# ProBuilder 4.2.3
# https://unity3d.com/unity/features/worldbuilding/probuilder
# 06.07.2020 13:28:10

mtllib ./waterSingle.mtl
o waterSingle

g Plane
v -0.5 0 0
v -0.25 0 0
v -0.25 0 0.25
v -0.5 0 0.25
v 0 0 0
v 0 0 0.25
v 0 0 0.5
v -0.25 0 0.5
v -0.25 -0.586241 0.5
v -0.5 -0.586241 0.5
v -0.5 -0.586241 0.25
v -0.25 -0.586241 0.25
v -0.25 -0.586241 0.75
v -0.5 -0.586241 0.75
v 0 0 0.75
v -0.25 0 0.75
v 0 0 1
v -0.25 0 1
v -0.5 0 1
v -0.5 0 0.75
v -1 0 0.5
v -0.75 0 0.5
v -0.75 0 0.75
v -1 0 0.75
v -0.7499999 -0.586241 0.5
v -0.7499999 -0.586241 0.75
v -0.75 0 1
v -1 0 1
v -1 0 0
v -0.75 0 0
v -0.75 0 0.25
v -1 0 0.25
v -0.7499999 -0.586241 0.25

vt 0.5 0
vt 0.25 0
vt 0.25 0.25
vt 0.5 0.25
vt 0 0
vt 0 0.25
vt 0 0.5
vt 0.25 0.5
vt 0.5 0.5
vt 0.25 0.75
vt 0.5 0.75
vt 0 0.75
vt 0 1
vt 0.25 1
vt 0.5 1
vt 1 0.5
vt 0.75 0.5
vt 0.75 0.75
vt 1 0.75
vt 0.7499999 0.5
vt 0.7499999 0.75
vt 0.75 1
vt 1 1
vt 1 0
vt 0.75 0
vt 0.75 0.25
vt 1 0.25
vt 0.7499999 0.25
vt -0.75 0
vt -0.5 0
vt -0.7499999 -0.586241
vt -0.5 -0.586241
vt 0.5 -0.586241
vt 0.75 -0.586241
vt -0.75 -0.5862409
vt 0.25 -0.586241
vt -0.25 0
vt -0.25 -0.586241
vt 0.7499999 -0.586241

vn 0 1 0
vn 0 0 1
vn -1 0 0
vn 1 1.016726E-07 0
vn 0 0 -1

usemtl ProBuilderDefault
f 4/4/1 3/3/1 2/2/1 1/1/1
f 3/3/1 6/6/1 5/5/1 2/2/1
f 8/8/1 7/7/1 6/6/1 3/3/1
f 10/9/1 9/8/1 12/3/1 11/4/1
f 14/11/1 13/10/1 9/8/1 10/9/1
f 16/10/1 15/12/1 7/7/1 8/8/1
f 18/14/1 17/13/1 15/12/1 16/10/1
f 19/15/1 18/14/1 16/10/1 20/11/1
f 24/19/1 23/18/1 22/17/1 21/16/1
f 26/21/1 14/11/1 10/9/1 25/20/1
f 27/22/1 19/15/1 20/11/1 23/18/1
f 28/23/1 27/22/1 23/18/1 24/19/1
f 32/27/1 31/26/1 30/25/1 29/24/1
f 31/26/1 4/4/1 1/1/1 30/25/1
f 25/20/1 10/9/1 11/4/1 33/28/1
f 21/16/1 22/17/1 31/26/1 32/27/1
f 33/31/2 11/32/2 4/30/2 31/29/2
f 9/33/3 13/34/3 16/25/3 8/1/3
f 26/35/4 25/32/4 22/30/4 23/29/4
f 13/36/5 14/33/5 20/1/5 16/2/5
f 11/32/2 12/38/2 3/37/2 4/30/2
f 12/36/3 9/33/3 8/1/3 3/2/3
f 25/32/4 33/38/4 31/37/4 22/30/4
f 14/33/5 26/39/5 23/25/5 20/1/5

