# Blender v2.82 (sub 7) OBJ File: ''
# www.blender.org
o Cube
v -4.888429 1.888158 1.496801
v -4.888429 1.888158 3.791265
v -4.013158 1.888158 1.496801
v -4.013158 1.888158 1.009587
v -4.736986 0.216167 3.791265
v -4.736986 0.216167 1.496801
v -3.919962 0.216167 1.496801
v -3.919962 0.216167 1.009587
v -3.130414 0.216167 0.944711
v -4.895990 0.216167 3.865709
v -4.941897 0.000000 3.923018
v -4.941897 0.000000 1.394487
v -4.895991 0.216167 1.415930
v -4.074707 0.000000 1.394487
v -4.020893 0.216167 1.415930
v -4.074707 0.000000 0.873661
v -4.020893 0.216167 0.894084
v -3.130414 0.216167 1.009587
v -3.271078 1.976778 1.009586
v -3.342985 0.216167 1.009587
v -3.342985 0.216167 0.894084
v -3.342985 0.000000 0.873661
v -3.073041 1.888158 1.009586
v -4.869790 1.682373 3.791265
v -4.869790 1.682373 1.496801
v -4.001688 1.682373 1.496801
v -3.342985 0.117883 0.358723
v -4.001688 1.682373 1.009587
v -3.166698 1.682373 1.009586
v -3.391503 1.682373 1.009586
v -3.256579 2.734063 1.009586
v -2.808676 2.071223 1.009586
v -2.921937 2.283648 1.009586
v -3.342985 0.000000 0.358723
v -2.808676 2.071223 1.106678
v -3.166698 1.682373 1.106678
v -3.130414 0.216167 1.106678
v -3.073041 1.888158 1.106678
v -3.342985 0.216167 0.626404
v -3.342985 0.000000 0.740635
v -3.342985 0.117883 0.626400
v -2.808676 2.071223 0.944711
v -3.166698 1.682373 0.944711
v -3.342985 0.197420 0.944711
v -2.921937 2.283648 0.944711
v -3.271078 1.976778 0.944711
v -3.391503 1.682373 0.944711
v -3.073041 1.888158 0.944711
v -4.169246 1.904955 0.903680
v -4.970477 1.904950 0.903680
v -4.970480 1.761330 3.949650
v -4.970480 1.904950 3.964942
v -4.031494 1.769963 0.903680
v -4.970480 1.761328 0.903680
v -4.690052 3.095061 2.578192
v -4.684145 3.095057 2.372182
v -3.951841 1.766508 2.078583
v -0.111571 1.888158 1.496801
v -0.111571 1.888158 3.791265
v -0.986842 1.888158 1.496801
v -0.986842 1.888158 1.009586
v -0.263014 0.216167 3.791265
v -0.263014 0.216167 1.496801
v -1.080038 0.216167 1.496801
v -2.500000 0.216167 3.791265
v -1.080038 0.216167 1.009586
v -2.500000 1.888158 3.791265
v -2.500000 2.102366 1.009586
v -2.500000 3.579969 1.009586
v -1.869586 0.216167 0.944711
v -2.500000 0.216167 1.009586
v -0.104009 0.216167 3.865709
v -0.058102 0.000000 3.923017
v -0.058103 0.000000 1.394486
v -0.104009 0.216167 1.415929
v -0.925293 0.000000 1.394486
v -2.500000 0.000000 3.923017
v -2.500000 0.216167 3.865709
v -0.979107 0.216167 1.415929
v -2.500000 0.216167 0.894084
v -0.925293 0.000000 0.873661
v -0.979107 0.216167 0.894084
v -1.869586 0.216167 1.009586
v -1.728922 1.976778 1.009586
v -1.657015 0.216167 1.009586
v -1.657015 0.216167 0.894084
v -1.657015 0.000000 0.873661
v -1.926959 1.888158 1.009586
v -2.500000 2.343646 1.009586
v -0.130210 1.682373 3.791265
v -0.130210 1.682373 1.496801
v -0.998312 1.682373 1.496801
v -1.657015 0.117883 0.358723
v -0.998312 1.682373 1.009586
v -1.833302 1.682373 1.009586
v -1.608498 1.682373 1.009586
v -2.500000 1.682373 3.791265
v -1.743421 2.734063 1.009586
v -2.191324 2.071223 1.009586
v -2.078063 2.283648 1.009586
v -1.657015 0.000000 0.358723
v -2.191324 2.071223 1.106678
v -2.500000 2.102366 1.106678
v -2.500000 1.682370 1.106678
v -2.500000 0.216167 1.106678
v -1.833302 1.682373 1.106678
v -1.869586 0.216167 1.106678
v -1.926959 1.888158 1.106678
v -2.500000 0.117883 0.358723
v -2.500000 0.000000 0.358723
v -1.657015 0.216167 0.626403
v -1.657015 0.000000 0.740634
v -2.500000 0.216167 0.626404
v -1.657015 0.117883 0.626400
v -2.500000 0.117883 0.626400
v -2.191324 2.071223 0.944711
v -2.500000 2.102366 0.944711
v -2.500000 2.343646 0.944711
v -1.833303 1.682373 0.944711
v -1.657015 0.197420 0.944711
v -2.078063 2.283648 0.944711
v -1.728922 1.976778 0.944711
v -1.608498 1.682373 0.944711
v -1.926959 1.888158 0.944711
v -2.500000 3.784522 0.903676
v -0.830755 1.904955 0.903680
v -0.029523 1.904950 0.903680
v -0.029520 1.761330 3.949649
v -0.029520 1.904950 3.964942
v -2.500000 1.904950 3.964943
v -2.500000 3.456191 0.903676
v -0.968506 1.769963 0.903680
v -0.029520 1.761328 0.903680
v -2.500000 1.761330 3.949209
v -0.309948 3.095061 2.578192
v -0.315855 3.095057 2.372182
v -2.500000 3.034900 2.358700
v -2.500000 3.034900 2.579905
v -1.048159 1.766508 2.078582
v -2.500000 3.362544 1.074461
v -0.807980 2.403518 1.593281
v -0.807980 3.334943 1.593281
v -0.807980 2.403518 2.175288
v -0.807980 3.334943 2.175288
v -1.389987 2.403518 1.593281
v -1.389987 3.334943 1.593281
v -1.389987 2.403518 2.175288
v -1.389987 3.334943 2.175288
v -0.911199 3.334943 1.696500
v -0.911199 3.334943 2.072069
v -1.286768 3.334943 2.072069
v -1.286768 3.334943 1.696500
v -0.911199 2.929082 1.696500
v -0.911199 2.929082 2.072069
v -1.286768 2.929082 2.072069
v -1.286768 2.929082 1.696500
vt 0.480119 0.750000
vt 0.493010 0.750000
vt 0.493010 0.799342
vt 0.480119 0.799342
vt 0.480119 0.500000
vt 0.493010 0.500000
vt 0.493010 0.841411
vt 0.480119 0.841411
vt 0.480119 0.841411
vt 0.493010 0.841411
vt 0.388275 0.841411
vt 0.480119 0.841411
vt 0.388275 0.841411
vt 0.493010 0.799342
vt 0.480119 0.799342
vt 0.480119 0.375000
vt 0.388275 0.500000
vt 0.388275 0.375000
vt 0.493010 0.858205
vt 0.493010 0.858205
vt 0.375000 0.830084
vt 0.388275 0.830085
vt 0.388275 0.830084
vt 0.375000 0.830084
vt 0.388275 0.750000
vt 0.388275 0.799342
vt 0.388275 0.799342
vt 0.388275 0.750000
vt 0.388275 0.450658
vt 0.388275 0.500000
vt 0.388275 0.450658
vt 0.375000 0.799342
vt 0.388275 0.799342
vt 0.375000 0.799342
vt 0.375000 0.500000
vt 0.375000 0.750000
vt 0.375000 0.450658
vt 0.388275 0.830084
vt 0.388275 0.830085
vt 0.388275 0.841411
vt 0.246505 0.399671
vt 0.426643 0.734754
vt 0.493010 0.830084
vt 0.388275 0.799342
vt 0.480119 0.830084
vt 0.375000 0.830084
vt 0.493010 0.875000
vt 0.493010 0.875000
vt 0.493010 0.375000
vt 0.493010 0.875000
vt 0.493010 0.858205
vt 0.388275 0.858205
vt 0.388275 0.858205
vt 0.000000 0.000000
vt 0.360276 0.639423
vt 0.375000 0.858205
vt 0.388275 0.858205
vt 0.388275 0.875000
vt 0.375000 0.875000
vt 0.480119 0.830084
vt 0.388275 0.830085
vt 0.480119 0.858205
vt 0.388275 0.858205
vt 0.493010 0.841411
vt 0.388275 0.858205
vt 0.388275 0.875000
vt 0.388275 0.830084
vt 0.388275 0.875000
vt 0.388275 0.858205
vt 0.426643 0.734754
vt 0.493010 0.830084
vt 0.360276 0.639423
vt 0.000000 0.000000
vt 0.000000 0.000000
vt 0.000000 0.000000
vt 0.000000 0.000000
vt 0.000000 0.000000
vt 0.000000 0.000000
vt 0.000000 0.000000
vt 0.000000 0.000000
vt 0.000000 0.000000
vt 0.000000 0.000000
vt 0.000000 0.000000
vt 0.000000 0.000000
vt 0.000000 0.000000
vt 0.000000 0.000000
vt 0.000000 0.000000
vt 0.000000 0.000000
vt 0.480119 0.750000
vt 0.480119 0.799342
vt 0.493010 0.799342
vt 0.493010 0.750000
vt 0.480119 0.500000
vt 0.493010 0.500000
vt 0.493010 0.841411
vt 0.493010 0.841411
vt 0.480119 0.841411
vt 0.480119 0.841411
vt 0.388275 0.841411
vt 0.388275 0.841411
vt 0.480119 0.841411
vt 0.480119 0.799342
vt 0.493010 0.799342
vt 0.388275 0.500000
vt 0.493010 0.858205
vt 0.493010 0.858205
vt 0.375000 0.830084
vt 0.375000 0.830084
vt 0.388275 0.830084
vt 0.388275 0.830085
vt 0.388275 0.750000
vt 0.388275 0.750000
vt 0.388275 0.799342
vt 0.388275 0.799342
vt 0.388275 0.500000
vt 0.375000 0.799342
vt 0.375000 0.799342
vt 0.388275 0.799342
vt 0.375000 0.500000
vt 0.375000 0.750000
vt 0.388275 0.830084
vt 0.388275 0.841411
vt 0.388275 0.830085
vt 0.246505 0.399671
vt 0.493010 0.830084
vt 0.426643 0.734754
vt 0.388275 0.799342
vt 0.480119 0.830084
vt 0.375000 0.830084
vt 0.493010 0.858205
vt 0.375000 0.858205
vt 0.388275 0.858205
vt 0.388275 0.830085
vt 0.480119 0.830084
vt 0.493010 0.841411
vt 0.388275 0.858205
vt 0.388275 0.830084
vt 0.388275 0.858205
vt 0.426643 0.734754
vt 0.493010 0.830084
vt 0.000000 0.000000
vt 0.000000 0.000000
vt 0.000000 0.000000
vt 0.000000 0.000000
vt 0.000000 0.000000
vt 0.000000 0.000000
vt 0.000000 0.000000
vt 0.000000 0.000000
vt 0.000000 0.000000
vt 0.375000 0.000000
vt 0.625000 0.000000
vt 0.625000 0.250000
vt 0.375000 0.250000
vt 0.625000 0.500000
vt 0.375000 0.500000
vt 0.625000 0.750000
vt 0.375000 0.750000
vt 0.625000 1.000000
vt 0.375000 1.000000
vt 0.125000 0.500000
vt 0.125000 0.750000
vt 0.625000 0.500000
vt 0.625000 0.750000
vt 0.625000 1.000000
vt 0.625000 0.750000
vt 0.625000 1.000000
vt 0.625000 0.000000
vt 0.625000 0.250000
vt 0.625000 0.500000
vt 0.875000 0.500000
vt 0.875000 0.750000
vt 0.625000 0.250000
vt 0.625000 0.000000
vn 0.0000 0.0000 -1.0000
vn -0.9959 -0.0902 0.0000
vn 0.7673 -0.6412 0.0000
vn 0.9798 -0.1998 -0.0000
vn 0.9997 0.0247 -0.0000
vn -0.9985 -0.0557 0.0000
vn 0.0000 0.0000 1.0000
vn 0.3458 -0.9383 0.0000
vn -1.0000 -0.0000 0.0000
vn 0.0000 1.0000 0.0000
vn -0.9704 0.2416 0.0000
vn -0.9782 0.2077 0.0000
vn 0.0000 0.2563 0.9666
vn -0.0000 0.0987 -0.9951
vn 0.0000 0.0941 -0.9956
vn 0.0000 -1.0000 0.0000
vn -0.9994 -0.0329 0.0047
vn -0.9842 0.1768 0.0024
vn 0.0436 -0.9888 0.1429
vn -0.8145 0.5802 0.0000
vn -0.4179 0.9085 0.0000
vn 0.0043 -1.0000 -0.0015
vn 0.0020 -1.0000 -0.0022
vn 0.0062 -1.0000 -0.0009
vn 0.0000 0.7663 0.6424
vn 0.0097 0.7663 0.6424
vn -0.7074 0.6283 0.3237
vn 0.0129 0.7790 -0.6268
vn -0.9970 0.0770 -0.0006
vn -0.9974 0.0715 -0.0005
vn 0.0000 -0.1074 0.9942
vn 0.0001 -0.1074 0.9942
vn -0.0000 -1.0000 -0.0028
vn 0.0275 0.9996 0.0004
vn -0.0000 1.0000 0.0004
vn -0.9728 0.2317 -0.0018
vn 0.7226 -0.6850 -0.0922
vn 0.9959 -0.0902 -0.0000
vn -0.7673 -0.6412 0.0000
vn -0.9798 -0.1998 0.0000
vn -0.9997 0.0247 0.0000
vn 0.9985 -0.0557 -0.0000
vn -0.3458 -0.9383 0.0000
vn 1.0000 0.0000 0.0000
vn 0.9704 0.2416 -0.0000
vn 0.9782 0.2077 -0.0000
vn 0.9994 -0.0329 0.0047
vn 0.9842 0.1768 0.0024
vn -0.0436 -0.9888 0.1429
vn 0.8145 0.5802 -0.0000
vn 0.4179 0.9085 -0.0000
vn -0.0043 -1.0000 -0.0015
vn -0.0062 -1.0000 -0.0009
vn -0.0020 -1.0000 -0.0022
vn -0.0097 0.7663 0.6424
vn 0.7074 0.6283 0.3237
vn -0.0129 0.7790 -0.6268
vn 0.9970 0.0770 -0.0006
vn 0.9974 0.0715 -0.0005
vn -0.0001 -0.1074 0.9942
vn -0.0275 0.9996 0.0004
vn 0.9728 0.2317 -0.0018
vn -0.7226 -0.6850 -0.0922
s 1
f 25/1/1 1/2/1 3/3/1 26/4/1
f 24/5/2 2/6/2 1/2/2 25/1/2
f 23/7/3 29/8/4 43/9/4 48/10/3
f 18/11/5 29/8/4 36/12/4 37/13/5
f 26/4/6 3/3/6 4/14/6 28/15/6
f 97/16/7 24/5/7 5/17/7 65/18/7
f 32/19/8 23/7/3 48/10/3 42/20/8
f 40/21/9 41/22/9 27/23/9 34/24/9
f 6/25/10 7/26/10 15/27/10 13/28/10
f 65/29/10 5/17/10 10/30/10 78/31/10
f 14/32/11 15/27/11 17/33/11 16/34/11
f 11/35/12 10/30/12 13/28/12 12/36/12
f 77/37/13 78/31/13 10/30/13 11/35/13
f 12/36/14 13/28/14 15/27/14 14/32/14
f 21/38/10 20/39/10 9/40/10
f 31/41/1 33/42/1 19/43/1 4/14/1
f 7/26/10 8/44/10 17/33/10 15/27/10
f 28/15/1 4/14/1 19/43/1 30/45/1
f 16/34/15 17/33/15 21/38/15 22/46/15
f 8/44/10 20/39/10 21/38/10 17/33/10
f 5/17/10 6/25/10 13/28/10 10/30/10
f 8/44/1 28/15/1 30/45/1 20/39/1
f 68/47/16 32/19/8 42/20/8 117/48/16
f 67/49/7 2/6/7 24/5/7 97/16/7
f 7/26/6 26/4/6 28/15/6 8/44/6
f 5/17/2 24/5/2 25/1/2 6/25/2
f 6/25/1 25/1/1 26/4/1 7/26/1
f 32/19/8 68/47/16 103/50/16 35/51/8
f 18/11/10 71/52/10 80/53/10 9/40/10
f 69/54/1 89/55/1 33/42/1 31/41/1
f 34/56/1 27/57/1 109/58/1 110/59/1
f 20/39/17 30/45/18 47/60/18 44/61/17
f 104/62/1 35/51/1 103/50/1
f 37/13/1 36/12/1 104/62/1 105/63/1
f 36/12/1 38/64/1 35/51/1 104/62/1
f 71/52/10 18/11/10 37/13/10 105/63/10
f 23/7/3 32/19/8 35/51/8 38/64/3
f 29/8/4 23/7/3 38/64/3 36/12/4
f 41/65/10 115/66/10 109/58/10 27/57/10
f 21/38/10 9/40/10 39/67/10
f 22/46/9 21/38/9 39/67/9 40/21/9
f 9/40/10 80/53/10 113/68/10 39/67/10
f 39/69/1 113/68/1 115/66/1 41/65/1
f 40/21/9 39/67/9 41/22/9
f 45/70/1 42/20/1 48/10/1 46/71/1
f 47/60/1 46/71/1 48/10/1 43/9/1
f 44/61/1 47/60/1 43/9/1 9/40/1
f 118/72/1 117/48/1 42/20/1 45/70/1
f 29/8/4 18/11/5 9/40/5 43/9/4
f 18/11/19 20/39/19 44/61/19 9/40/19
f 30/45/18 19/43/20 46/71/20 47/60/18
f 19/43/20 33/42/21 45/70/21 46/71/20
f 33/42/21 89/55/10 118/72/10 45/70/21
f 57/73/22 51/74/23 54/75/24 53/76/24
f 138/77/25 55/78/26 52/79/26 130/80/25
f 137/81/27 125/82/27 49/83/27
f 49/83/28 50/84/28 56/85/28 137/81/28
f 49/83/1 125/82/1 131/86/1 53/76/1
f 50/84/1 49/83/1 53/76/1 54/75/1
f 52/79/29 50/84/30 54/75/9 51/74/9
f 130/80/31 52/79/32 51/74/32 134/87/31
f 134/87/33 51/74/23 57/73/22
f 55/78/34 138/77/35 137/81/35 56/85/34
f 55/78/36 56/85/36 50/84/30 52/79/29
f 140/88/37 57/73/37 53/76/37 131/86/37
f 91/89/1 92/90/1 60/91/1 58/92/1
f 90/93/38 91/89/38 58/92/38 59/94/38
f 88/95/39 124/96/39 119/97/40 95/98/40
f 83/99/41 107/100/41 106/101/40 95/98/40
f 92/90/42 94/102/42 61/103/42 60/91/42
f 97/16/7 65/18/7 62/104/7 90/93/7
f 99/105/43 116/106/43 124/96/39 88/95/39
f 112/107/44 101/108/44 93/109/44 114/110/44
f 63/111/10 75/112/10 79/113/10 64/114/10
f 65/29/10 78/31/10 72/115/10 62/104/10
f 76/116/45 81/117/45 82/118/45 79/113/45
f 73/119/46 74/120/46 75/112/46 72/115/46
f 77/37/13 73/119/13 72/115/13 78/31/13
f 74/120/14 76/116/14 79/113/14 75/112/14
f 86/121/10 70/122/10 85/123/10
f 98/124/1 61/103/1 84/125/1 100/126/1
f 64/114/10 79/113/10 82/118/10 66/127/10
f 94/102/1 96/128/1 84/125/1 61/103/1
f 81/117/15 87/129/15 86/121/15 82/118/15
f 66/127/10 82/118/10 86/121/10 85/123/10
f 62/104/10 72/115/10 75/112/10 63/111/10
f 66/127/1 85/123/1 96/128/1 94/102/1
f 68/47/16 117/48/16 116/106/43 99/105/43
f 67/49/7 97/16/7 90/93/7 59/94/7
f 64/114/42 66/127/42 94/102/42 92/90/42
f 62/104/38 63/111/38 91/89/38 90/93/38
f 63/111/1 64/114/1 92/90/1 91/89/1
f 99/105/43 102/130/43 103/50/16 68/47/16
f 83/99/10 70/122/10 80/53/10 71/52/10
f 69/54/1 98/124/1 100/126/1 89/55/1
f 101/131/1 110/59/1 109/58/1 93/132/1
f 85/123/47 120/133/47 123/134/48 96/128/48
f 104/62/1 103/50/1 102/130/1
f 107/100/1 105/63/1 104/62/1 106/101/1
f 106/101/1 104/62/1 102/130/1 108/135/1
f 71/52/10 105/63/10 107/100/10 83/99/10
f 88/95/39 108/135/39 102/130/43 99/105/43
f 95/98/40 106/101/40 108/135/39 88/95/39
f 114/136/10 93/132/10 109/58/10 115/66/10
f 86/121/10 111/137/10 70/122/10
f 87/129/44 112/107/44 111/137/44 86/121/44
f 70/122/10 111/137/10 113/68/10 80/53/10
f 111/138/1 114/136/1 115/66/1 113/68/1
f 112/107/44 114/110/44 111/137/44
f 121/139/1 122/140/1 124/96/1 116/106/1
f 123/134/1 119/97/1 124/96/1 122/140/1
f 120/133/1 70/122/1 119/97/1 123/134/1
f 118/72/1 121/139/1 116/106/1 117/48/1
f 95/98/40 119/97/40 70/122/41 83/99/41
f 83/99/49 70/122/49 120/133/49 85/123/49
f 96/128/48 123/134/48 122/140/50 84/125/50
f 84/125/50 122/140/50 121/139/51 100/126/51
f 100/126/51 121/139/51 118/72/10 89/55/10
f 139/141/52 132/142/53 133/143/53 128/144/54
f 138/77/25 130/80/25 129/145/55 135/146/55
f 137/81/56 126/147/56 125/82/56
f 126/147/57 137/81/57 136/148/57 127/149/57
f 126/147/1 132/142/1 131/86/1 125/82/1
f 127/149/1 133/143/1 132/142/1 126/147/1
f 129/145/58 128/144/44 133/143/44 127/149/59
f 130/80/31 134/87/31 128/144/60 129/145/60
f 134/87/33 139/141/52 128/144/54
f 135/146/61 136/148/61 137/81/35 138/77/35
f 135/146/62 129/145/58 127/149/59 136/148/62
f 140/88/63 131/86/63 132/142/63 139/141/63
f 141/150/44 142/151/44 144/152/44 143/153/44
f 143/153/7 144/152/7 148/154/7 147/155/7
f 147/155/9 148/154/9 146/156/9 145/157/9
f 145/157/1 146/156/1 142/158/1 141/159/1
f 143/160/16 147/155/16 145/157/16 141/161/16
f 146/156/10 148/154/10 151/162/10 152/163/10
f 149/164/7 152/163/7 156/165/7 153/166/7
f 144/152/10 142/151/10 149/167/10 150/168/10
f 142/158/10 146/156/10 152/163/10 149/164/10
f 148/154/10 144/152/10 150/168/10 151/162/10
f 155/169/10 154/170/10 153/171/10 156/165/10
f 151/162/1 150/168/1 154/172/1 155/169/1
f 152/163/44 151/162/44 155/169/44 156/165/44
f 150/168/9 149/167/9 153/173/9 154/172/9
