# Blender v2.81 (sub 16) OBJ File: ''
# www.blender.org
o Cube
v -0.182139 0.533707 0.451404
v -0.431741 0.698110 0.470687
v -0.463313 0.698110 0.548961
v -0.191799 0.533707 0.725296
v -0.464032 0.533707 0.732451
v -0.530936 0.687772 0.606336
v -0.607143 0.677434 0.561787
v -0.686310 0.533707 0.721514
v -0.749415 0.533707 0.479962
v -0.637101 0.677434 0.488037
v -0.620428 0.677434 0.417470
v -0.766554 0.533707 0.247447
v -0.477834 0.533707 0.186308
v -0.543137 0.687772 0.379827
v -0.458410 0.698110 0.389875
v -0.220311 0.533707 0.241541
v -0.387525 0.146305 -0.040612
v -0.425967 0.327216 0.043756
v -0.125181 0.327216 0.176655
v -0.077191 0.146305 0.145346
v -0.535421 0.704227 0.483321
v -0.387525 -0.000000 0.079056
v -0.118877 -0.000000 0.204834
v -0.744905 -0.000000 0.436436
v -0.864635 0.146305 0.436499
v -0.822085 0.146305 0.152018
v -0.723683 -0.000000 0.172683
v -0.385657 -0.000000 0.796645
v -0.385614 0.146305 0.917558
v -0.691355 0.146305 0.796624
v -0.677877 -0.000000 0.741768
v -0.029440 -0.000000 0.437503
v 0.091271 0.146305 0.439083
v 0.007713 0.146305 0.833218
v -0.058169 -0.000000 0.766229
v -0.818239 0.327216 0.445441
v -0.800088 0.327216 0.199347
v -0.411227 0.327216 0.854812
v -0.688918 0.327216 0.762757
v -0.002293 0.327216 0.472607
v -0.100764 0.327216 0.794449
vt 0.022838 0.830929
vt 0.033338 0.847886
vt 0.034667 0.847886
vt 0.023244 0.830929
vt 0.034697 0.830929
vt 0.037511 0.846819
vt 0.040717 0.845753
vt 0.044048 0.830929
vt 0.046703 0.830929
vt 0.041978 0.845753
vt 0.041276 0.845753
vt 0.047424 0.830929
vt 0.035278 0.830929
vt 0.038025 0.846819
vt 0.034460 0.847886
vt 0.024444 0.830929
vt 0.031478 0.790973
vt 0.033096 0.809632
vt 0.020442 0.809632
vt 0.018423 0.790973
vt 0.037700 0.848517
vt 0.031478 0.775883
vt 0.020177 0.775883
vt 0.046513 0.775883
vt 0.051550 0.790973
vt 0.049760 0.790973
vt 0.045620 0.775883
vt 0.031400 0.775883
vt 0.031398 0.790973
vt 0.044260 0.790973
vt 0.043693 0.775883
vt 0.016414 0.775883
vt 0.011336 0.790973
vt 0.014851 0.790973
vt 0.017622 0.775883
vt 0.049598 0.809632
vt 0.048834 0.809632
vt 0.032475 0.809632
vt 0.044158 0.809632
vt 0.015272 0.809632
vt 0.019414 0.809632
vn 0.6925 0.7196 -0.0508
vn 0.3258 0.9452 -0.0199
vn 0.1937 0.9456 0.2614
vn 0.4824 0.6990 0.5279
vn -0.0325 0.5691 0.8216
vn -0.0666 0.8492 0.5238
vn -0.4228 0.8426 0.3335
vn -0.5934 0.4751 0.6497
vn -0.8883 0.4348 0.1480
vn -0.5608 0.8245 0.0748
vn -0.4195 0.8771 -0.2337
vn -0.6759 0.5618 -0.4770
vn -0.0307 0.6232 -0.7815
vn -0.0931 0.9059 -0.4132
vn 0.1970 0.9276 -0.3176
vn 0.5033 0.6957 -0.5126
vn 0.0685 -0.0835 -0.9941
vn 0.0075 0.4144 -0.9100
vn 0.6274 0.4793 -0.6137
vn 0.7143 -0.0706 -0.6962
vn -0.1157 0.9933 0.0061
vn 0.0655 -0.5416 -0.8381
vn 0.6212 -0.5302 -0.5771
vn -0.8398 -0.5308 0.1139
vn -0.9761 -0.1775 0.1255
vn -0.7923 -0.1653 -0.5873
vn -0.5772 -0.6001 -0.5538
vn -0.0606 -0.5413 0.8387
vn -0.0533 -0.1272 0.9905
vn -0.6480 -0.1606 0.7445
vn -0.6214 -0.5140 0.5913
vn 0.8248 -0.5466 -0.1449
vn 0.9899 -0.0468 -0.1336
vn 0.7235 -0.0899 0.6844
vn 0.5475 -0.6369 0.5428
vn -0.9687 0.1956 0.1528
vn -0.7703 0.3299 -0.5457
vn -0.0616 0.3428 0.9374
vn -0.6535 0.2458 0.7159
vn 0.8566 0.5127 -0.0584
vn 0.5552 0.5136 0.6542
s 1
f 1/1/1 2/2/2 3/3/3 4/4/4
f 5/5/5 6/6/6 7/7/7 8/8/8
f 9/9/9 10/10/10 11/11/11 12/12/12
f 13/13/13 14/14/14 15/15/15 16/16/16
f 17/17/17 18/18/18 19/19/19 20/20/20
f 21/21/21 2/2/2 15/15/15 14/14/14
f 22/22/22 17/17/17 20/20/20 23/23/23
f 24/24/24 25/25/25 26/26/26 27/27/27
f 28/28/28 29/29/29 30/30/30 31/31/31
f 32/32/32 33/33/33 34/34/34 35/35/35
f 25/25/25 36/36/36 37/37/37 26/26/26
f 29/29/29 38/38/38 39/39/39 30/30/30
f 33/33/33 40/40/40 41/41/41 34/34/34
f 18/18/18 13/13/13 16/16/16 19/19/19
f 36/36/36 9/9/9 12/12/12 37/37/37
f 38/38/38 5/5/5 8/8/8 39/39/39
f 40/40/40 1/1/1 4/4/4 41/41/41
f 19/19/19 16/16/16 1/1/1 40/40/40
f 39/39/39 8/8/8 9/9/9 36/36/36
f 20/20/20 19/19/19 40/40/40 33/33/33
f 30/30/30 39/39/39 36/36/36 25/25/25
f 23/23/23 20/20/20 33/33/33 32/32/32
f 31/31/31 30/30/30 25/25/25 24/24/24
f 6/6/6 3/3/3 2/2/2 21/21/21
f 8/8/8 7/7/7 10/10/10 9/9/9
f 16/16/16 15/15/15 2/2/2 1/1/1
f 7/7/7 6/6/6 21/21/21 10/10/10
f 41/41/41 4/4/4 5/5/5 38/38/38
f 37/37/37 12/12/12 13/13/13 18/18/18
f 34/34/34 41/41/41 38/38/38 29/29/29
f 35/35/35 34/34/34 29/29/29 28/28/28
f 27/27/27 26/26/26 17/17/17 22/22/22
f 10/10/10 21/21/21 14/14/14 11/11/11
f 26/26/26 37/37/37 18/18/18 17/17/17
f 12/12/12 11/11/11 14/14/14 13/13/13
f 4/4/4 3/3/3 6/6/6 5/5/5
