# Blender v2.81 (sub 16) OBJ File: ''
# www.blender.org
o Cube.001_Cube.006
v -4.262968 0.199100 0.886582
v -4.262968 0.095797 0.886582
v -4.461582 0.095797 0.886582
v -4.461582 0.000000 0.886582
v -3.963685 0.199100 0.462469
v -3.963685 0.095797 0.462471
v -4.088671 0.095797 0.312629
v -4.088671 0.000000 0.312629
v -2.599873 0.199100 0.886582
v -2.599873 0.095797 0.886582
v -2.401258 0.095797 0.886582
v -2.401258 0.000000 0.886582
v -3.431420 0.199100 0.354858
v -3.431420 0.095797 0.354863
v -3.431420 0.095797 0.151363
v -3.431420 0.000000 0.151363
v -2.899156 0.199100 0.462469
v -2.899156 0.095797 0.462471
v -2.774170 0.095797 0.312629
v -2.774170 0.000000 0.312629
v -3.431420 0.199100 0.886583
v -1.952423 2.178353 0.896511
v -0.137670 2.216578 1.304432
v -1.952422 2.178353 3.948503
v -0.137670 2.216578 3.784734
v -3.442725 3.812896 3.948503
v -4.911552 2.216578 0.979849
v -4.992289 2.281532 3.948503
v -4.911552 2.216578 3.784734
v -0.208519 0.209425 1.324121
v -0.208519 0.209425 3.751919
v -4.840703 0.209425 3.751919
v -4.840703 0.209425 0.999538
v -4.232325 0.209425 0.999538
v -4.272341 2.216578 0.979849
v -1.893167 2.281532 3.948503
v -2.001247 2.216578 0.979849
v -2.043246 0.209425 0.999538
v -1.893167 2.281532 0.896511
v -2.001247 2.216578 1.304432
v -2.043246 0.209425 1.324121
v -4.992289 2.281532 0.896512
v -2.627644 2.216578 0.979849
v -4.232325 0.209425 0.876975
v -3.442727 3.645192 0.979849
v -2.820414 0.209425 0.876975
v -2.623894 0.209425 0.999538
v -3.442726 3.812896 0.896511
v -4.272341 2.216578 0.857286
v -2.627644 2.216578 0.857286
v -2.623894 0.209425 0.876975
v -2.823042 2.060101 0.857286
v -4.045315 0.209425 0.876975
v -4.073473 2.060101 0.857286
v -2.823042 2.060101 0.979850
v -2.820414 0.209425 0.999539
v -4.045315 0.209425 0.999539
v -4.073473 2.060101 0.979850
v -4.491932 2.189815 0.529123
v -2.393523 2.554320 1.188467
v -2.393523 2.554320 0.685785
v -2.393524 2.361250 0.529123
v -2.393524 2.189811 0.529123
v -0.308063 1.773922 1.304432
v -1.878090 1.774259 1.304432
v -0.348482 0.589347 1.324121
v -1.904098 0.589347 1.324121
v -1.588639 1.774259 0.972258
v -0.610025 1.773922 0.972258
v -0.635219 0.589347 0.991947
v -1.604850 0.589347 0.991947
v -0.718192 1.942662 1.304432
v -4.491930 2.554320 0.685785
v -4.491932 2.361254 0.529123
v -1.480477 1.942820 1.304432
v -4.491930 2.554320 1.188467
v -2.393523 2.361250 1.188467
v -4.491930 2.361250 1.188467
v -2.393523 2.189820 1.188467
v -4.491930 2.189820 1.188467
v -4.384160 2.569999 0.851389
v -2.499590 2.570000 0.851388
v -2.499590 3.005189 0.851388
v -2.725977 3.218388 0.851388
v -3.447841 3.326087 0.851388
v -4.157773 3.218390 0.851389
v -4.384157 3.005190 0.851389
v -4.384160 2.569999 0.753240
v -2.499590 2.570000 0.753240
v -2.499590 3.005189 0.753240
v -2.725977 3.218388 0.753240
v -3.447841 3.326087 0.753240
v -4.157773 3.218390 0.753240
v -4.384157 3.005190 0.753240
v -0.123544 0.000000 3.861459
v -0.123544 0.000000 1.232281
v -0.100554 0.212507 3.875373
v -4.956863 0.212507 3.875373
v -4.935215 0.000000 3.861459
v -4.956863 0.212507 0.876970
v -4.935216 0.000000 0.876970
v -4.232320 0.000000 0.876970
v -0.100554 0.212507 1.232281
v -1.945212 0.212507 0.876970
v -1.953256 0.212507 1.232281
v -3.442726 3.626159 0.896511
v -3.442725 3.626159 3.948503
v -1.950514 0.000000 0.876970
v -1.958558 0.000000 1.232281
v -2.623894 0.000000 0.876970
v -0.757741 3.170578 2.669424
v -0.005732 2.251456 1.015551
v -0.013221 2.046362 1.015551
v -3.460171 3.170580 2.669425
v -0.005730 2.251460 3.925948
v -0.013221 2.046360 3.925948
v -2.449471 2.251460 1.015551
v -2.449471 2.251460 3.925944
v -2.449471 2.046360 3.925944
v -2.449471 2.046360 1.015551
v -4.933033 2.178353 0.896512
v -4.933033 2.178353 3.948503
vt 0.000000 0.000000
vt 0.000000 0.000000
vt 0.000000 0.000000
vt 0.000000 0.000000
vt 0.000000 0.000000
vt 0.000000 0.000000
vt 0.000000 0.000000
vt 0.000000 0.000000
vt 0.000000 0.000000
vt 0.000000 0.000000
vt 0.000000 0.000000
vt 0.000000 0.000000
vt 0.000000 0.000000
vt 0.000000 0.000000
vt 0.000000 0.000000
vt 0.000000 0.000000
vt 0.000000 0.000000
vt 0.000000 0.000000
vt 0.000000 0.000000
vt 0.000000 0.000000
vt 0.000000 0.000000
vt 0.398620 0.900852
vt 0.607351 0.900852
vt 0.607352 0.900852
vt 0.398620 0.900852
vt 0.398620 0.500000
vt 0.398620 0.722124
vt 0.398620 0.722124
vt 0.398620 0.500000
vt 0.607351 0.792914
vt 0.625000 0.792914
vt 0.625000 0.825426
vt 0.607351 0.825426
vt 0.398620 0.750000
vt 0.398620 0.782824
vt 0.398620 0.782824
vt 0.398620 0.750000
vt 0.000000 0.000000
vt 0.000000 0.000000
vt 0.000000 0.000000
vt 0.000000 0.000000
vt 0.398620 0.900852
vt 0.398620 0.900852
vt 0.000000 0.000000
vt 0.000000 0.000000
vt 0.000000 0.000000
vt 0.000000 0.000000
vt 0.000000 0.000000
vt 0.000000 0.000000
vt 0.000000 0.000000
vt 0.000000 0.000000
vt 0.000000 0.000000
vt 0.000000 0.000000
vt 0.000000 0.000000
vt 0.000000 0.000000
vt 0.607351 0.500000
vt 0.607352 0.722124
vt 0.607351 0.863139
vt 0.398620 0.863139
vt 0.398620 0.863139
vt 0.607351 0.863139
vt 0.607351 0.782824
vt 0.607351 0.782824
vt 0.000000 0.000000
vt 0.000000 0.000000
vt 0.000000 0.000000
vt 0.000000 0.000000
vt 0.398620 0.991738
vt 0.438056 0.991738
vt 0.561318 0.991738
vt 0.607351 1.000000
vt 0.607351 0.750000
vt 0.398620 0.792914
vt 0.607351 0.792914
vt 0.398620 0.792914
vt 0.398620 0.250000
vt 0.607351 0.250000
vt 0.398620 0.854088
vt 0.607351 0.854088
vt 0.398620 0.000000
vt 0.607351 0.000000
vt 0.000000 0.000000
vt 0.607351 0.825426
vt 0.398620 0.825426
vt 0.398620 0.854088
vt 0.607351 0.854088
vt 0.000000 0.000000
vt 0.000000 0.000000
vt 0.000000 0.000000
vt 0.000000 0.000000
vt 0.607351 0.900852
vt 0.607351 0.782824
vt 0.398620 0.907921
vt 0.438130 0.907921
vt 0.000000 0.000000
vt 0.000000 0.000000
vt 0.607351 0.907921
vt 0.561353 0.907921
vt 0.561329 0.965127
vt 0.607351 0.991738
vt 0.561353 0.907921
vt 0.438130 0.907921
vt 0.438056 0.991738
vt 0.561318 0.991738
vt 0.561346 0.925787
vt 0.607351 0.961565
vt 0.607351 0.931951
vt 0.000000 0.000000
vt 0.000000 0.000000
vt 0.000000 0.000000
vt 0.000000 0.000000
vt 0.000000 0.000000
vt 0.000000 0.000000
vt 0.000000 0.000000
vt 0.000000 0.000000
vt 0.000000 0.000000
vt 0.000000 0.000000
vt 0.000000 0.000000
vt 0.000000 0.000000
vt 0.000000 0.000000
vt 0.000000 0.000000
vt 0.000000 0.000000
vt 0.000000 0.000000
vt 0.000000 0.000000
vt 0.000000 0.000000
vt 0.000000 0.000000
vt 0.000000 0.000000
vt 0.375000 0.900852
vt 0.375000 0.900852
vt 0.375000 0.000000
vt 0.398620 0.000000
vt 0.398620 0.250000
vt 0.375000 0.250000
vt 0.375000 0.863139
vt 0.375000 0.349148
vt 0.398620 0.349148
vt 0.398620 0.428566
vt 0.375000 0.428566
vt 0.375000 0.750000
vt 0.375000 0.782824
vt 0.375000 0.500000
vt 0.375000 0.722124
vt 0.375000 0.907921
vt 0.398620 0.907921
vt 0.398620 0.991738
vt 0.375000 0.991738
vt 0.000000 0.000000
vt 0.000000 0.000000
vt 0.000000 0.000000
vt 0.000000 0.000000
vt 0.000000 0.000000
vt 0.000000 0.000000
vt 0.000000 0.000000
vt 0.000000 0.000000
vt 0.000000 0.000000
vt 0.000000 0.000000
vn -0.8170 -0.0000 -0.5766
vn -0.0000 1.0000 0.0000
vn -0.8385 0.0000 -0.5448
vn -0.2383 0.0000 -0.9712
vn -0.1982 -0.0000 -0.9802
vn 0.8170 -0.0000 -0.5766
vn 0.8385 0.0000 -0.5448
vn 0.2383 0.0000 -0.9712
vn 0.1982 -0.0000 -0.9802
vn 0.9998 -0.0209 -0.0000
vn 0.0265 0.9996 0.0000
vn -0.0000 -0.0000 -1.0000
vn 0.0023 0.9999 0.0115
vn 0.8672 -0.4980 -0.0000
vn -0.0332 0.9994 -0.0004
vn 0.0000 0.0000 1.0000
vn -0.9994 -0.0353 0.0000
vn 1.0000 0.0019 -0.0000
vn -0.9998 -0.0199 0.0000
vn 0.0025 -0.0124 -0.9999
vn 0.0000 -0.0098 -1.0000
vn 0.9999 0.0152 0.0000
vn 0.0000 -0.0163 0.9999
vn 0.0041 -0.0102 -0.9999
vn 0.9994 -0.0353 -0.0000
vn -0.0042 -0.0103 -0.9999
vn -0.0000 -0.0106 -0.9999
vn -1.0000 -0.0014 0.0000
vn 0.0000 -1.0000 0.0000
vn 0.6968 -0.7173 -0.0000
vn 0.0000 0.6301 -0.7765
vn -0.0029 -0.0123 -0.9999
vn -0.7484 0.0023 -0.6632
vn -0.0000 -0.0166 -0.9999
vn -0.3695 0.8717 -0.3220
vn 0.7481 -0.0317 -0.6629
vn 0.3596 0.8740 -0.3269
vn 0.0003 0.8917 -0.4527
vn -1.0000 0.0000 0.0000
vn 1.0000 -0.0000 -0.0000
vn -0.6856 0.7280 0.0000
vn 0.1476 0.9891 0.0000
vn -0.1500 0.9887 0.0000
vn 0.6856 0.7280 0.0000
vn 0.9994 -0.0249 0.0226
vn 0.9942 -0.1076 -0.0000
vn 0.0000 -0.0653 0.9979
vn -0.9949 -0.1013 0.0000
vn -0.6968 -0.7173 0.0000
vn -0.0285 0.9996 0.0000
vn -0.0000 0.9997 -0.0250
vn -0.0024 0.9999 0.0116
vn 0.0000 0.9994 0.0335
vn 0.7029 0.7113 -0.0000
vn -0.8672 -0.4980 0.0000
vn -0.7029 0.7113 0.0000
vn 0.0000 0.8741 -0.4858
vn 0.9993 -0.0365 -0.0000
vn -0.0000 0.8071 0.5904
vn 0.7740 0.6332 -0.0000
s off
f 5/1/1 6/2/1 2/3/1 1/4/1
f 6/2/2 7/5/2 3/6/2 2/3/2
f 7/5/3 8/7/3 4/8/3 3/6/3
f 15/9/4 16/10/4 8/7/4 7/5/4
f 14/11/2 15/9/2 7/5/2 6/2/2
f 13/12/5 14/11/5 6/2/5 5/1/5
f 1/4/2 21/13/2 13/12/2 5/1/2
f 17/14/6 9/15/6 10/16/6 18/17/6
f 18/17/2 10/16/2 11/18/2 19/19/2
f 19/19/7 11/18/7 12/20/7 20/21/7
f 15/9/8 19/19/8 20/21/8 16/10/8
f 14/11/2 18/17/2 19/19/2 15/9/2
f 13/12/9 17/14/9 18/17/9 14/11/9
f 9/15/2 17/14/2 13/12/2 21/13/2
f 38/22/10 37/23/10 40/24/10 41/25/10
f 32/26/11 33/27/11 100/28/11 98/29/11
f 54/30/12 49/31/12 50/32/12 52/33/12
f 33/34/13 34/35/13 44/36/13 100/37/13
f 36/38/14 24/39/14 22/40/14 39/41/14
f 38/22/15 41/25/15 105/42/15 104/43/15
f 48/44/12 106/45/12 121/46/12 42/47/12
f 74/48/12 62/49/12 63/50/12 59/51/12
f 28/52/16 122/53/16 107/54/16 26/55/16
f 32/26/17 29/56/17 27/57/17 33/27/17
f 43/58/18 47/59/18 51/60/18 50/61/18
f 34/35/19 35/62/19 49/63/19 44/36/19
f 35/64/2 43/65/2 50/66/2 49/67/2
f 30/68/20 66/69/20 64/70/20 23/71/20
f 47/59/21 43/58/21 37/23/21 38/22/21
f 33/34/21 27/72/21 35/62/21 34/35/21
f 53/73/22 54/30/22 58/74/22 57/75/22
f 31/76/23 25/77/23 29/56/23 32/26/23
f 46/78/24 52/79/24 50/61/24 51/60/24
f 30/80/25 23/81/25 25/77/25 31/76/25
f 44/36/26 49/63/26 54/30/26 53/73/26
f 43/65/12 35/64/12 45/82/12
f 57/75/27 58/74/27 55/83/27 56/84/27
f 52/79/28 46/78/28 56/85/28 55/86/28
f 54/30/29 52/33/29 55/83/29 58/74/29
f 46/87/2 53/88/2 57/89/2 56/90/2
f 37/23/12 43/58/12 45/91/12
f 35/62/12 27/72/12 45/92/12
f 41/93/12 67/94/12 66/69/12 30/68/12
f 106/45/30 107/54/30 122/53/30 121/46/30
f 61/95/31 62/49/31 74/48/31 73/96/31
f 41/25/32 40/97/32 65/98/32 67/94/32
f 64/70/12 72/99/12 23/100/12
f 67/94/33 65/98/33 68/101/33 71/102/33
f 70/103/34 71/102/34 68/101/34 69/104/34
f 65/98/35 75/105/35 68/101/35
f 66/69/29 67/94/29 71/102/29 70/103/29
f 64/70/36 66/69/36 70/103/36 69/104/36
f 69/104/37 72/99/37 64/70/37
f 23/106/12 72/99/12 75/105/12 40/107/12
f 40/107/12 75/105/12 65/98/12
f 68/101/38 75/105/38 72/99/38 69/104/38
f 61/95/2 73/96/2 76/108/2 60/109/2
f 80/110/39 78/111/39 74/48/39 59/51/39
f 60/109/40 77/112/40 62/49/40 61/95/40
f 76/108/39 73/96/39 74/48/39 78/111/39
f 79/113/40 63/50/40 62/49/40 77/112/40
f 81/114/16 82/115/16 83/116/16 87/117/16
f 83/116/16 84/118/16 86/119/16 87/117/16
f 85/120/16 86/119/16 84/118/16
f 88/121/12 94/122/12 90/123/12 89/124/12
f 90/123/12 94/122/12 93/125/12 91/126/12
f 92/127/12 91/126/12 93/125/12
f 86/119/41 93/125/41 94/122/41 87/117/41
f 84/118/42 91/126/42 92/127/42 85/120/42
f 82/115/40 89/124/40 90/123/40 83/116/40
f 87/117/39 94/122/39 88/121/39 81/114/39
f 85/120/43 92/127/43 93/125/43 86/119/43
f 83/116/44 90/123/44 91/126/44 84/118/44
f 108/128/45 104/43/45 105/42/45 109/129/45
f 96/130/46 103/131/46 97/132/46 95/133/46
f 110/134/12 51/60/12 104/43/12 108/128/12
f 95/135/47 97/136/47 98/137/47 99/138/47
f 101/139/12 100/37/12 44/36/12 102/140/12
f 99/141/48 98/29/48 100/28/48 101/142/48
f 109/143/12 105/144/12 103/145/12 96/146/12
f 22/40/49 24/39/49 107/54/49 106/45/49
f 30/80/50 31/76/50 97/132/50 103/131/50
f 31/76/51 32/26/51 98/29/51 97/132/51
f 47/59/52 38/22/52 104/43/52 51/60/52
f 41/93/53 30/68/53 103/145/53 105/144/53
f 39/41/54 48/44/54 26/55/54 36/38/54
f 39/41/12 22/40/12 106/45/12 48/44/12
f 42/47/55 121/46/55 122/53/55 28/52/55
f 48/44/56 42/47/56 28/52/56 26/55/56
f 111/147/57 112/148/57 117/149/57 114/150/57
f 113/151/12 120/152/12 117/149/12 112/148/12
f 113/151/58 112/148/58 115/153/58 116/154/58
f 116/154/16 115/153/16 118/155/16 119/156/16
f 114/150/59 118/155/59 115/153/59 111/147/59
f 112/148/60 111/147/60 115/153/60
f 26/55/16 107/54/16 24/39/16 36/38/16
f 120/152/29 113/151/29 116/154/29 119/156/29
f 51/60/12 110/134/12 46/78/12
f 53/73/12 102/140/12 44/36/12
f 53/73/12 46/78/12 110/134/12 102/140/12
