# Blender v2.82 (sub 7) OBJ File: 'brickBridge.blend'
# www.blender.org
o wBrickBridgeD4_Cube.018
v -0.500004 -0.402066 0.736578
v -0.726081 -0.089961 0.736578
v -0.500004 0.468535 0.736578
v -0.726081 0.468535 0.736578
v -0.751708 0.599281 0.736578
v -0.474377 0.599281 0.736578
v -0.474377 0.468535 0.736578
v -0.751708 0.468535 0.736578
v -0.499999 0.202893 2.246523
v -0.726076 0.377175 2.082448
v -0.726076 0.935671 2.082448
v -0.751703 1.066418 2.082448
v -0.751703 0.935671 2.082448
v -0.499999 0.935671 2.082448
v -0.474373 1.066418 2.082448
v -0.474373 0.935671 2.082448
v -0.500002 -0.402066 1.336942
v -0.500000 -0.030675 1.709990
v -0.812240 -0.139527 0.940176
v -0.812240 -0.139527 0.532980
v -0.405045 -0.139527 0.940176
v -0.405045 -0.139527 0.532980
v -0.812240 0.770369 0.940176
v -0.812240 0.770369 0.532980
v -0.405045 0.770369 0.532980
v -0.405045 0.770369 0.940176
v -0.848705 0.909090 0.976641
v -0.848705 0.909090 0.496515
v -0.368579 0.909090 0.976641
v -0.368579 0.909090 0.496515
v -0.848705 0.770369 0.976641
v -0.848705 0.770369 0.496515
v -0.368579 0.770369 0.496515
v -0.368579 0.770369 0.976641
v -3.499996 -0.402066 0.736578
v -3.273919 -0.089961 0.736578
v -2.000000 -0.089961 0.736578
v -3.499996 0.468535 0.736578
v -3.273919 0.468535 0.736578
v -3.248292 0.599281 0.736578
v -3.525623 0.599281 0.736578
v -3.525623 0.468535 0.736578
v -3.248292 0.468535 0.736578
v -2.000000 0.377175 2.082448
v -3.500001 0.202893 2.246523
v -3.273923 0.377175 2.082448
v -3.273923 0.935671 2.082448
v -3.248297 1.066418 2.082448
v -3.248297 0.935671 2.082448
v -3.500001 0.935671 2.082448
v -3.525627 1.066418 2.082448
v -3.525627 0.935671 2.082448
v -3.499999 -0.402066 1.336942
v -3.500000 -0.030675 1.709990
v -3.187760 -0.139527 0.940176
v -3.187760 -0.139527 0.532980
v -3.594955 -0.139527 0.940176
v -3.594955 -0.139527 0.532980
v -3.187760 0.770369 0.940176
v -3.187760 0.770369 0.532980
v -3.594955 0.770369 0.532980
v -3.594955 0.770369 0.940176
v -3.151295 0.909090 0.976641
v -3.151295 0.909090 0.496515
v -3.631421 0.909090 0.976641
v -3.631421 0.909090 0.496515
v -3.151295 0.770369 0.976641
v -3.151295 0.770369 0.496515
v -3.631421 0.770369 0.496515
v -3.631421 0.770369 0.976641
v -0.500004 -0.402066 5.056582
v -0.726081 -0.089961 5.056582
v -0.500004 0.468535 5.056582
v -0.726081 0.468535 5.056582
v -0.751708 0.599281 5.056582
v -0.474377 0.599281 5.056582
v -0.474377 0.468535 5.056582
v -0.751708 0.468535 5.056582
v -0.499999 0.202893 3.546638
v -0.726076 0.377175 3.710713
v -0.726076 0.935671 3.710713
v -0.751703 1.066418 3.710713
v -0.751703 0.935671 3.710713
v -0.499999 0.935671 3.710713
v -0.474373 1.066418 3.710713
v -0.474373 0.935671 3.710713
v -0.499999 0.271258 2.896580
v -0.500002 -0.402066 4.456219
v -0.500000 -0.030675 4.083170
v -0.726076 0.935671 2.896580
v -0.751703 1.066418 2.896580
v -0.751703 0.935671 2.896580
v -0.726076 0.377175 2.896580
v -0.499999 0.935671 2.896580
v -0.474373 1.066418 2.896580
v -0.474373 0.935671 2.896580
v -0.812240 -0.139527 4.852985
v -0.812240 -0.139527 5.260180
v -0.405045 -0.139527 4.852985
v -0.405045 -0.139527 5.260180
v -0.812240 0.770369 4.852985
v -0.812240 0.770369 5.260180
v -0.405045 0.770369 5.260180
v -0.405045 0.770369 4.852985
v -0.848705 0.909090 4.816519
v -0.848705 0.909090 5.296646
v -0.368579 0.909090 4.816519
v -0.368579 0.909090 5.296646
v -0.848705 0.770369 4.816519
v -0.848705 0.770369 5.296646
v -0.368579 0.770369 5.296646
v -0.368579 0.770369 4.816519
v -3.499996 -0.402066 5.056582
v -3.273919 -0.089961 5.056582
v -2.000000 -0.089961 5.056582
v -3.499996 0.468535 5.056582
v -3.273919 0.468535 5.056582
v -3.248292 0.599281 5.056582
v -3.525623 0.599281 5.056582
v -3.525623 0.468535 5.056582
v -3.248292 0.468535 5.056582
v -2.000000 0.377175 3.710713
v -3.500001 0.202893 3.546638
v -3.273923 0.377175 3.710713
v -3.273923 0.935671 3.710713
v -3.248297 1.066418 3.710713
v -3.248297 0.935671 3.710713
v -3.500001 0.935671 3.710713
v -3.525627 1.066418 3.710713
v -3.525627 0.935671 3.710713
v -3.500001 0.271258 2.896580
v -3.499999 -0.402066 4.456219
v -3.500000 -0.030675 4.083170
v -3.273923 0.935671 2.896580
v -3.248297 1.066418 2.896580
v -3.248297 0.935671 2.896580
v -3.273923 0.377175 2.896580
v -2.000000 0.377175 2.896580
v -3.500001 0.935671 2.896580
v -3.525627 1.066418 2.896580
v -3.525627 0.935671 2.896580
v -3.187760 -0.139527 4.852985
v -3.187760 -0.139527 5.260180
v -3.594955 -0.139527 4.852985
v -3.594955 -0.139527 5.260180
v -3.187760 0.770369 4.852985
v -3.187760 0.770369 5.260180
v -3.594955 0.770369 5.260180
v -3.594955 0.770369 4.852985
v -3.151295 0.909090 4.816519
v -3.151295 0.909090 5.296646
v -3.631421 0.909090 4.816519
v -3.631421 0.909090 5.296646
v -3.151295 0.770369 4.816519
v -3.151295 0.770369 5.296646
v -3.631421 0.770369 5.296646
v -3.631421 0.770369 4.816519
vt 0.950476 0.944757
vt 0.989435 0.944757
vt 0.992924 0.944757
vt 0.946987 0.944757
vt 0.989435 0.944757
vt 0.950476 0.944757
vt 0.946987 0.944757
vt 0.992924 0.944757
vt 0.432289 0.172172
vt 0.490694 0.172172
vt 0.490694 0.172172
vt 0.432289 0.172172
vt 0.929329 0.515451
vt 0.929329 0.776471
vt 0.870923 0.776471
vt 0.870923 0.515451
vt 0.929329 0.515451
vt 0.929329 0.776471
vt 0.870923 0.515451
vt 0.870923 0.776471
vt 0.946987 0.984552
vt 0.946987 0.984552
vt 0.992924 0.984552
vt 0.992924 0.984552
vt 0.950476 0.944757
vt 0.946987 0.944757
vt 0.992924 0.944757
vt 0.989435 0.944757
vt 0.989435 0.944757
vt 0.992924 0.944757
vt 0.946987 0.944757
vt 0.950476 0.944757
vt 0.432289 0.172172
vt 0.432289 0.172172
vt 0.490694 0.172172
vt 0.490694 0.172172
vt 0.929329 0.515451
vt 0.870923 0.515451
vt 0.870923 0.776471
vt 0.929329 0.776471
vt 0.929329 0.515451
vt 0.929329 0.776471
vt 0.870923 0.515451
vt 0.870923 0.776471
vt 0.946987 0.984552
vt 0.946987 0.984552
vt 0.992924 0.984552
vt 0.992924 0.984552
vt 0.950476 0.944757
vt 0.946987 0.944757
vt 0.992924 0.944757
vt 0.989435 0.944757
vt 0.989435 0.944757
vt 0.992924 0.944757
vt 0.946987 0.944757
vt 0.950476 0.944757
vt 0.432289 0.172172
vt 0.432289 0.172172
vt 0.490694 0.172172
vt 0.490694 0.172172
vt 0.929329 0.515451
vt 0.870923 0.515451
vt 0.870923 0.776471
vt 0.929329 0.776471
vt 0.929329 0.515451
vt 0.929329 0.776471
vt 0.870923 0.515451
vt 0.870923 0.776471
vt 0.946987 0.984552
vt 0.946987 0.984552
vt 0.992924 0.984552
vt 0.992924 0.984552
vt 0.950476 0.944757
vt 0.989435 0.944757
vt 0.992924 0.944757
vt 0.946987 0.944757
vt 0.989435 0.944757
vt 0.950476 0.944757
vt 0.946987 0.944757
vt 0.992924 0.944757
vt 0.432289 0.172172
vt 0.490694 0.172172
vt 0.490694 0.172172
vt 0.432289 0.172172
vt 0.929329 0.515451
vt 0.929329 0.776471
vt 0.870923 0.776471
vt 0.870923 0.515451
vt 0.929329 0.515451
vt 0.929329 0.776471
vt 0.870923 0.515451
vt 0.870923 0.776471
vt 0.946987 0.984552
vt 0.946987 0.984552
vt 0.992924 0.984552
vt 0.992924 0.984552
vt 0.945695 0.698663
vt 0.945695 0.516386
vt 0.996248 0.516386
vt 0.996248 0.698663
vt 0.993691 0.919199
vt 0.993691 0.990196
vt 0.989703 0.990196
vt 0.989703 0.919186
vt 0.950371 0.887668
vt 0.959106 0.887668
vt 0.959106 0.919186
vt 0.950371 0.919186
vt 0.927101 0.822948
vt 0.927101 0.987021
vt 0.848747 0.987021
vt 0.927101 0.738974
vt 0.980809 0.919186
vt 0.980809 0.990196
vt 0.959106 0.990196
vt 0.948476 0.887668
vt 0.948476 0.919186
vt 0.948476 0.990196
vt 0.950371 0.990196
vt 0.761729 0.987021
vt 0.761729 0.656291
vt 0.803533 0.656291
vt 0.803533 0.987021
vt 0.926951 0.515525
vt 0.927101 0.656291
vt 0.848747 0.656349
vt 0.848747 0.509660
vt 0.980809 0.887668
vt 0.996248 0.863232
vt 0.945695 0.863232
vt 0.989703 0.887668
vt 0.993691 0.887704
vt 0.761729 0.509495
vt 0.803533 0.509495
vt 0.945695 0.698663
vt 0.945695 0.516386
vt 0.993691 0.919199
vt 0.989703 0.919186
vt 0.989703 0.990196
vt 0.993691 0.990196
vt 0.950371 0.887668
vt 0.950371 0.919186
vt 0.959106 0.919186
vt 0.959106 0.887668
vt 0.927101 0.822948
vt 0.927101 0.738974
vt 0.848747 0.987021
vt 0.927101 0.987021
vt 0.980809 0.919186
vt 0.959106 0.990196
vt 0.980809 0.990196
vt 0.948476 0.887668
vt 0.948476 0.919186
vt 0.948476 0.990196
vt 0.950371 0.990196
vt 0.761729 0.987021
vt 0.803533 0.987021
vt 0.803533 0.656291
vt 0.761729 0.656291
vt 0.926951 0.515525
vt 0.848747 0.509660
vt 0.848747 0.656349
vt 0.927101 0.656291
vt 0.980809 0.887668
vt 0.945695 0.863232
vt 0.993691 0.887704
vt 0.989703 0.887668
vt 0.803533 0.509495
vt 0.761729 0.509495
vt 0.945695 0.698663
vt 0.996248 0.698663
vt 0.996248 0.516386
vt 0.945695 0.516386
vt 0.993691 0.919199
vt 0.989703 0.919186
vt 0.989703 0.990196
vt 0.993691 0.990196
vt 0.950371 0.919186
vt 0.959106 0.919186
vt 0.927101 0.822948
vt 0.927101 0.738974
vt 0.848747 0.987021
vt 0.927101 0.987021
vt 0.980809 0.919186
vt 0.959106 0.990196
vt 0.980809 0.990196
vt 0.948476 0.919186
vt 0.948476 0.990196
vt 0.950371 0.990196
vt 0.761729 0.987021
vt 0.803533 0.987021
vt 0.803533 0.656291
vt 0.761729 0.656291
vt 0.848747 0.656349
vt 0.927101 0.656291
vt 0.945695 0.698663
vt 0.945695 0.516386
vt 0.993691 0.919199
vt 0.993691 0.990196
vt 0.989703 0.990196
vt 0.989703 0.919186
vt 0.959106 0.919186
vt 0.950371 0.919186
vt 0.927101 0.822948
vt 0.927101 0.987021
vt 0.848747 0.987021
vt 0.927101 0.738974
vt 0.980809 0.919186
vt 0.980809 0.990196
vt 0.959106 0.990196
vt 0.948476 0.919186
vt 0.948476 0.990196
vt 0.950371 0.990196
vt 0.761729 0.987021
vt 0.761729 0.656291
vt 0.803533 0.656291
vt 0.803533 0.987021
vt 0.927101 0.656291
vt 0.848747 0.656349
vn 0.0000 -1.0000 -0.0000
vn 0.0000 0.0000 1.0000
vn 1.0000 0.0000 0.0000
vn 0.0000 0.0000 -1.0000
vn -1.0000 0.0000 0.0000
vn 0.0000 1.0000 0.0000
vn 0.0000 0.9861 -0.1663
vn 0.0000 0.9447 -0.3279
vn 0.0000 -0.9861 0.1663
vn 0.0000 -0.9447 0.3279
vn 0.0000 0.9861 0.1663
vn 0.0000 0.9447 0.3279
vn 0.0000 -0.9861 -0.1663
vn 0.0000 -0.9447 -0.3279
s off
f 23/1/1 26/2/1 34/3/1 31/4/1
f 25/5/1 24/6/1 32/7/1 33/8/1
f 26/2/1 25/5/1 33/8/1 34/3/1
f 20/9/1 22/10/1 21/11/1 19/12/1
f 24/6/1 23/1/1 31/4/1 32/7/1
f 21/13/2 26/14/2 23/15/2 19/16/2
f 22/17/3 25/18/3 26/14/3 21/13/3
f 20/19/4 24/20/4 25/18/4 22/17/4
f 19/16/5 23/15/5 24/20/5 20/19/5
f 31/4/5 27/21/5 28/22/5 32/7/5
f 32/7/4 28/22/4 30/23/4 33/8/4
f 33/8/3 30/23/3 29/24/3 34/3/3
f 34/3/2 29/24/2 27/21/2 31/4/2
f 30/23/6 28/22/6 27/21/6 29/24/6
f 59/25/1 67/26/1 70/27/1 62/28/1
f 61/29/1 69/30/1 68/31/1 60/32/1
f 62/28/1 70/27/1 69/30/1 61/29/1
f 56/33/1 55/34/1 57/35/1 58/36/1
f 60/32/1 68/31/1 67/26/1 59/25/1
f 57/37/2 55/38/2 59/39/2 62/40/2
f 58/41/5 57/37/5 62/40/5 61/42/5
f 56/43/4 58/41/4 61/42/4 60/44/4
f 55/38/3 56/43/3 60/44/3 59/39/3
f 67/26/3 68/31/3 64/45/3 63/46/3
f 68/31/4 69/30/4 66/47/4 64/45/4
f 69/30/5 70/27/5 65/48/5 66/47/5
f 70/27/2 67/26/2 63/46/2 65/48/2
f 66/47/6 65/48/6 63/46/6 64/45/6
f 101/49/1 109/50/1 112/51/1 104/52/1
f 103/53/1 111/54/1 110/55/1 102/56/1
f 104/52/1 112/51/1 111/54/1 103/53/1
f 98/57/1 97/58/1 99/59/1 100/60/1
f 102/56/1 110/55/1 109/50/1 101/49/1
f 99/61/4 97/62/4 101/63/4 104/64/4
f 100/65/3 99/61/3 104/64/3 103/66/3
f 98/67/2 100/65/2 103/66/2 102/68/2
f 97/62/5 98/67/5 102/68/5 101/63/5
f 109/50/5 110/55/5 106/69/5 105/70/5
f 110/55/2 111/54/2 108/71/2 106/69/2
f 111/54/3 112/51/3 107/72/3 108/71/3
f 112/51/4 109/50/4 105/70/4 107/72/4
f 108/71/6 107/72/6 105/70/6 106/69/6
f 146/73/1 149/74/1 157/75/1 154/76/1
f 148/77/1 147/78/1 155/79/1 156/80/1
f 149/74/1 148/77/1 156/80/1 157/75/1
f 143/81/1 145/82/1 144/83/1 142/84/1
f 147/78/1 146/73/1 154/76/1 155/79/1
f 144/85/4 149/86/4 146/87/4 142/88/4
f 145/89/5 148/90/5 149/86/5 144/85/5
f 143/91/2 147/92/2 148/90/2 145/89/2
f 142/88/3 146/87/3 147/92/3 143/91/3
f 154/76/3 150/93/3 151/94/3 155/79/3
f 155/79/2 151/94/2 153/95/2 156/80/2
f 156/80/5 153/95/5 152/96/5 157/75/5
f 157/75/4 152/96/4 150/93/4 154/76/4
f 153/95/6 151/94/6 150/93/6 152/96/6
s 1
f 10/97/7 2/98/8 37/99/8 44/100/7
f 14/101/9 3/102/10 7/103/10 16/104/9
f 92/105/5 91/106/5 12/107/5 13/108/5
f 17/109/3 1/110/3 3/111/3 18/112/3
f 15/113/7 6/114/8 5/115/8 12/107/7
f 90/116/1 92/105/1 13/108/9 11/117/9
f 4/118/10 11/117/9 13/108/9 8/119/10
f 2/120/5 10/121/5 11/122/5 4/123/5
f 7/103/3 6/114/3 15/113/3 16/104/3
f 8/119/5 13/108/5 12/107/5 5/115/5
f 87/124/3 9/125/3 14/126/3 94/127/3
f 3/111/3 14/126/3 9/125/3 18/112/3
f 15/113/7 12/107/7 91/106/6 95/128/6
f 10/97/7 44/100/7 138/129/6 93/130/6
f 14/101/9 16/104/9 96/131/1 94/132/1
f 10/121/5 93/133/5 90/134/5 11/122/5
f 15/113/3 95/128/3 96/131/3 16/104/3
f 46/135/7 44/100/7 37/99/8 36/136/8
f 50/137/9 52/138/9 42/139/10 38/140/10
f 136/141/3 49/142/3 48/143/3 135/144/3
f 53/145/5 54/146/5 38/147/5 35/148/5
f 51/149/7 48/143/7 40/150/8 41/151/8
f 134/152/1 47/153/9 49/142/9 136/141/1
f 39/154/10 43/155/10 49/142/9 47/153/9
f 36/156/3 39/157/3 47/158/3 46/159/3
f 42/139/5 52/138/5 51/149/5 41/151/5
f 43/155/3 40/150/3 48/143/3 49/142/3
f 131/160/5 139/161/5 50/162/5 45/163/5
f 38/147/5 54/146/5 45/163/5 50/162/5
f 51/149/7 140/164/6 135/144/6 48/143/7
f 46/135/7 137/165/6 138/129/6 44/100/7
f 50/137/9 139/166/1 141/167/1 52/138/9
f 46/159/3 47/158/3 134/168/3 137/169/3
f 51/149/5 52/138/5 141/167/5 140/164/5
f 80/170/11 122/171/11 115/172/12 72/173/12
f 84/174/13 86/175/13 77/176/14 73/177/14
f 92/105/5 83/178/5 82/179/5 91/106/5
f 88/180/3 89/181/3 73/182/3 71/183/3
f 85/184/11 82/179/11 75/185/12 76/186/12
f 90/116/1 81/187/13 83/178/13 92/105/1
f 74/188/14 78/189/14 83/178/13 81/187/13
f 72/190/5 74/191/5 81/192/5 80/193/5
f 77/176/3 86/175/3 85/184/3 76/186/3
f 78/189/5 75/185/5 82/179/5 83/178/5
f 87/124/3 94/127/3 84/194/3 79/195/3
f 73/182/3 89/181/3 79/195/3 84/194/3
f 85/184/11 95/128/6 91/106/6 82/179/11
f 80/170/11 93/130/6 138/129/6 122/171/11
f 84/174/13 94/132/1 96/131/1 86/175/13
f 80/193/5 81/192/5 90/134/5 93/133/5
f 85/184/3 86/175/3 96/131/3 95/128/3
f 124/196/11 114/197/12 115/172/12 122/171/11
f 128/198/13 116/199/14 120/200/14 130/201/13
f 136/141/3 135/144/3 126/202/3 127/203/3
f 132/204/5 113/205/5 116/206/5 133/207/5
f 129/208/11 119/209/12 118/210/12 126/202/11
f 134/152/1 136/141/1 127/203/13 125/211/13
f 117/212/14 125/211/13 127/203/13 121/213/14
f 114/214/3 124/215/3 125/216/3 117/217/3
f 120/200/5 119/209/5 129/208/5 130/201/5
f 121/213/3 127/203/3 126/202/3 118/210/3
f 131/160/5 123/218/5 128/219/5 139/161/5
f 116/206/5 128/219/5 123/218/5 133/207/5
f 129/208/11 126/202/11 135/144/6 140/164/6
f 124/196/11 122/171/11 138/129/6 137/165/6
f 128/198/13 130/201/13 141/167/1 139/166/1
f 124/215/3 137/169/3 134/168/3 125/216/3
f 129/208/5 140/164/5 141/167/5 130/201/5
