# Blender v2.82 (sub 7) OBJ File: 'ironBridge.blend'
# www.blender.org
o sironBridgeD3_Cube.001
v -0.500000 -0.100000 0.600000
v -0.500000 0.122251 0.600000
v -0.668880 0.829490 0.431121
v -0.668880 0.719737 0.431121
v -0.668880 -0.119657 0.431121
v -0.668880 0.218101 0.431121
v -0.331120 -0.119657 0.431121
v -0.331120 0.218101 0.431121
v -0.331120 0.719737 0.431121
v -0.331120 0.829490 0.431121
v -0.570207 0.266117 0.545786
v -0.570207 0.156363 0.545786
v -0.429793 0.156363 0.545786
v -0.429793 0.266117 0.545786
v -0.500000 0.122251 1.941047
v -0.500000 0.122251 1.841047
v -0.500000 0.122251 0.700000
v -3.500000 -0.100000 0.600000
v -3.500000 0.122251 0.600000
v -3.331120 0.829490 0.431121
v -3.331120 0.719737 0.431121
v -3.331120 -0.119657 0.431121
v -3.331120 0.218101 0.431121
v -3.668880 -0.119657 0.431121
v -3.668880 0.218101 0.431121
v -2.000000 0.122251 0.600000
v -2.000000 -0.100000 0.600000
v -3.668880 0.719737 0.431121
v -3.668880 0.829490 0.431121
v -3.429793 0.266117 0.545786
v -3.429793 0.156363 0.545786
v -3.570207 0.156363 0.545786
v -3.570207 0.266117 0.545786
v -3.500000 0.122251 1.941047
v -2.000000 0.122251 1.941047
v -3.500000 0.122251 1.841047
v -2.000000 0.122251 1.841047
v -3.500000 0.122251 0.700000
v -2.000000 0.122251 0.700000
v -0.500000 -0.100000 4.473160
v -0.500000 0.122251 4.473160
v -0.668880 0.829490 4.642039
v -0.668880 0.719737 4.642039
v -0.668880 -0.119657 4.642039
v -0.668880 0.218101 4.642039
v -0.331120 -0.119657 4.642039
v -0.331120 0.218101 4.642039
v -0.331120 0.719737 4.642039
v -0.331120 0.829490 4.642039
v -0.570207 0.266117 4.527374
v -0.570207 0.156363 4.527374
v -0.429793 0.156363 4.527374
v -0.429793 0.266117 4.527374
v -0.499997 0.122251 2.536580
v -0.668877 0.719737 2.536580
v -0.668877 0.829490 2.536580
v -0.331118 0.719737 2.536580
v -0.331118 0.829490 2.536580
v -0.668877 -0.119657 2.536580
v -0.668877 0.218101 2.536580
v -0.331118 -0.119657 2.536580
v -0.331118 0.218101 2.536580
v -0.500000 0.122251 3.132113
v -0.500000 0.122251 3.232113
v -0.500000 0.122251 4.373160
v -0.429791 0.266117 2.536580
v -0.429791 0.156363 2.536580
v -0.570204 0.156363 2.536580
v -0.570204 0.266117 2.536580
v -3.500000 -0.100000 4.473160
v -3.500000 0.122251 4.473160
v -3.331120 0.829490 4.642039
v -3.331120 0.719737 4.642039
v -3.331120 -0.119657 4.642039
v -3.331120 0.218101 4.642039
v -3.668880 -0.119657 4.642039
v -3.668880 0.218101 4.642039
v -2.000000 0.122251 4.473160
v -2.000000 -0.100000 4.473160
v -3.668880 0.719737 4.642039
v -3.668880 0.829490 4.642039
v -3.429793 0.266117 4.527374
v -3.429793 0.156363 4.527374
v -3.570207 0.156363 4.527374
v -3.570207 0.266117 4.527374
v -3.500003 0.122251 2.536580
v -2.000000 0.122251 2.536580
v -3.331123 0.719737 2.536580
v -3.331123 0.829490 2.536580
v -3.668882 0.719737 2.536580
v -3.668882 0.829490 2.536580
v -3.331123 -0.119657 2.536580
v -3.331123 0.218101 2.536580
v -3.668882 -0.119657 2.536580
v -3.668882 0.218101 2.536580
v -3.500000 0.122251 3.132113
v -2.000000 0.122251 3.132113
v -3.500000 0.122251 3.232113
v -2.000000 0.122251 3.232113
v -3.500000 0.122251 4.373160
v -2.000000 0.122251 4.373160
v -3.570209 0.266117 2.536580
v -3.570209 0.156363 2.536580
v -3.429796 0.156363 2.536580
v -3.429796 0.266117 2.536580
vt 0.384224 0.790510
vt 0.384224 0.778311
vt 0.490974 0.778311
vt 0.490974 0.790510
vt 0.474790 0.857646
vt 0.474790 0.864496
vt 0.474790 0.864496
vt 0.474790 0.857646
vt 0.385053 0.857646
vt 0.385053 0.864496
vt 0.385053 0.813249
vt 0.385053 0.834332
vt 0.474790 0.834332
vt 0.474790 0.813249
vt 0.474790 0.834332
vt 0.474790 0.813249
vt 0.386036 0.821171
vt 0.489949 0.821171
vt 0.489949 0.858947
vt 0.386036 0.858947
vt 0.137522 0.806790
vt 0.241344 0.806790
vt 0.241344 0.853516
vt 0.137522 0.853516
vt 0.385053 0.864496
vt 0.385053 0.857646
vt 0.385053 0.834332
vt 0.385053 0.813249
vt 0.137522 0.762259
vt 0.241344 0.762259
vt 0.241344 0.775296
vt 0.137522 0.775296
vt 0.493814 0.800004
vt 0.382799 0.800004
vt 0.382799 0.790951
vt 0.493814 0.790951
vt 0.382799 0.781898
vt 0.382799 0.760026
vt 0.493814 0.760026
vt 0.493814 0.781898
vt 0.489949 0.821171
vt 0.489949 0.858947
vt 0.386036 0.858947
vt 0.386036 0.821171
vt 0.490974 0.790510
vt 0.490974 0.778311
vt 0.474790 0.857646
vt 0.474790 0.857646
vt 0.474790 0.864496
vt 0.474790 0.864496
vt 0.385053 0.857646
vt 0.385053 0.864496
vt 0.385053 0.813249
vt 0.474790 0.813249
vt 0.474790 0.834332
vt 0.385053 0.834332
vt 0.474790 0.813249
vt 0.474790 0.834332
vt 0.386036 0.821171
vt 0.386036 0.858947
vt 0.489949 0.858947
vt 0.489949 0.821171
vt 0.137522 0.806790
vt 0.137522 0.853516
vt 0.385053 0.864496
vt 0.385053 0.857646
vt 0.385053 0.834332
vt 0.385053 0.813249
vt 0.137522 0.762259
vt 0.137522 0.775296
vt 0.493814 0.800004
vt 0.493814 0.790951
vt 0.493814 0.781898
vt 0.493814 0.760026
vt 0.489949 0.858947
vt 0.489949 0.821171
vt 0.386036 0.858947
vt 0.386036 0.821171
vt 0.384224 0.790510
vt 0.490974 0.790510
vt 0.490974 0.778311
vt 0.384224 0.778311
vt 0.474790 0.857646
vt 0.474790 0.857646
vt 0.474790 0.864496
vt 0.474790 0.864496
vt 0.474790 0.813249
vt 0.474790 0.834332
vt 0.474790 0.813249
vt 0.474790 0.834332
vt 0.386036 0.821171
vt 0.386036 0.858947
vt 0.489949 0.858947
vt 0.489949 0.821171
vt 0.137522 0.806790
vt 0.241344 0.806790
vt 0.137522 0.762259
vt 0.137522 0.775296
vt 0.241344 0.775296
vt 0.241344 0.762259
vt 0.493814 0.800004
vt 0.493814 0.790951
vt 0.382799 0.790951
vt 0.382799 0.800004
vt 0.382799 0.781898
vt 0.493814 0.781898
vt 0.493814 0.760026
vt 0.382799 0.760026
vt 0.490974 0.778311
vt 0.490974 0.790510
vt 0.474790 0.857646
vt 0.474790 0.864496
vt 0.474790 0.864496
vt 0.474790 0.857646
vt 0.474790 0.834332
vt 0.474790 0.813249
vt 0.474790 0.834332
vt 0.474790 0.813249
vt 0.386036 0.821171
vt 0.489949 0.821171
vt 0.489949 0.858947
vt 0.386036 0.858947
vt 0.137522 0.806790
vt 0.137522 0.762259
vt 0.137522 0.775296
vt 0.493814 0.800004
vt 0.493814 0.790951
vt 0.493814 0.760026
vt 0.493814 0.781898
vn -0.0000 0.0000 -1.0000
vn -1.0000 0.0000 0.0000
vn 0.0000 1.0000 -0.0000
vn 1.0000 0.0000 -0.0000
vn 0.0000 -1.0000 0.0000
vn -0.0000 0.0000 1.0000
s off
f 27/1/1 26/2/1 2/3/1 1/4/1
f 4/5/1 3/6/1 10/7/1 9/8/1
f 55/9/2 56/10/2 3/6/2 4/5/2
f 59/11/2 60/12/2 6/13/2 5/14/2
f 5/14/1 6/13/1 8/15/1 7/16/1
f 12/17/1 11/18/1 14/19/1 13/20/1
f 15/21/3 35/22/3 87/23/3 54/24/3
f 10/7/3 3/6/3 56/10/3 58/25/3
f 9/8/4 10/7/4 58/25/4 57/26/4
f 8/15/3 6/13/3 60/12/3 62/27/3
f 7/16/4 8/15/4 62/27/4 61/28/4
f 17/29/3 39/30/3 37/31/3 16/32/3
f 2/33/3 26/34/3 39/35/3 17/36/3
f 37/37/3 35/38/3 15/39/3 16/40/3
f 11/18/3 69/41/3 66/42/3 14/19/3
f 14/19/4 66/42/4 67/43/4 13/20/4
f 12/17/2 68/44/2 69/41/2 11/18/2
f 13/20/5 67/43/5 68/44/5 12/17/5
f 27/1/1 18/45/1 19/46/1 26/2/1
f 21/47/1 28/48/1 29/49/1 20/50/1
f 88/51/4 21/47/4 20/50/4 89/52/4
f 92/53/4 22/54/4 23/55/4 93/56/4
f 22/54/1 24/57/1 25/58/1 23/55/1
f 31/59/1 32/60/1 33/61/1 30/62/1
f 34/63/3 86/64/3 87/23/3 35/22/3
f 29/49/3 91/65/3 89/52/3 20/50/3
f 28/48/2 90/66/2 91/65/2 29/49/2
f 25/58/3 95/67/3 93/56/3 23/55/3
f 24/57/2 94/68/2 95/67/2 25/58/2
f 38/69/3 36/70/3 37/31/3 39/30/3
f 19/71/3 38/72/3 39/35/3 26/34/3
f 37/37/3 36/73/3 34/74/3 35/38/3
f 30/62/3 33/61/3 102/75/3 105/76/3
f 33/61/2 32/60/2 103/77/2 102/75/2
f 31/59/4 30/62/4 105/76/4 104/78/4
f 32/60/5 31/59/5 104/78/5 103/77/5
f 79/79/6 40/80/6 41/81/6 78/82/6
f 43/83/6 48/84/6 49/85/6 42/86/6
f 55/9/2 43/83/2 42/86/2 56/10/2
f 59/11/2 44/87/2 45/88/2 60/12/2
f 44/87/6 46/89/6 47/90/6 45/88/6
f 51/91/6 52/92/6 53/93/6 50/94/6
f 63/95/3 54/24/3 87/23/3 97/96/3
f 49/85/3 58/25/3 56/10/3 42/86/3
f 48/84/4 57/26/4 58/25/4 49/85/4
f 47/90/3 62/27/3 60/12/3 45/88/3
f 46/89/4 61/28/4 62/27/4 47/90/4
f 65/97/3 64/98/3 99/99/3 101/100/3
f 41/101/3 65/102/3 101/103/3 78/104/3
f 99/105/3 64/106/3 63/107/3 97/108/3
f 50/94/3 53/93/3 66/42/3 69/41/3
f 53/93/4 52/92/4 67/43/4 66/42/4
f 51/91/2 50/94/2 69/41/2 68/44/2
f 52/92/5 51/91/5 68/44/5 67/43/5
f 79/79/6 78/82/6 71/109/6 70/110/6
f 73/111/6 72/112/6 81/113/6 80/114/6
f 88/51/4 89/52/4 72/112/4 73/111/4
f 92/53/4 93/56/4 75/115/4 74/116/4
f 74/116/6 75/115/6 77/117/6 76/118/6
f 83/119/6 82/120/6 85/121/6 84/122/6
f 96/123/3 97/96/3 87/23/3 86/64/3
f 81/113/3 72/112/3 89/52/3 91/65/3
f 80/114/2 81/113/2 91/65/2 90/66/2
f 77/117/3 75/115/3 93/56/3 95/67/3
f 76/118/2 77/117/2 95/67/2 94/68/2
f 100/124/3 101/100/3 99/99/3 98/125/3
f 71/126/3 78/104/3 101/103/3 100/127/3
f 99/105/3 97/108/3 96/128/3 98/129/3
f 82/120/3 105/76/3 102/75/3 85/121/3
f 85/121/2 102/75/2 103/77/2 84/122/2
f 83/119/4 104/78/4 105/76/4 82/120/4
f 84/122/5 103/77/5 104/78/5 83/119/5
o SironBridgePillarsD3_Cube.020
v -0.573442 0.800743 0.792846
v -0.573442 -0.086926 0.792846
v -0.573442 0.800743 0.642584
v -0.573442 -0.086926 0.642584
v -0.426557 0.800743 0.792846
v -0.426557 -0.086926 0.792846
v -0.426557 0.800743 0.642584
v -0.426557 -0.086926 0.642584
v -0.542554 0.800743 1.060894
v -0.542554 -0.086926 1.060894
v -0.542554 0.800743 0.977375
v -0.542554 -0.086926 0.977375
v -0.457446 0.800743 1.060894
v -0.457446 -0.086926 1.060894
v -0.457446 0.800743 0.977375
v -0.457446 -0.086926 0.977375
v -0.542554 0.800743 1.345619
v -0.542554 -0.086926 1.345619
v -0.542554 0.800743 1.260511
v -0.542554 -0.086926 1.260511
v -0.457446 0.800743 1.345619
v -0.457446 -0.086926 1.345619
v -0.457446 0.800743 1.260511
v -0.457446 -0.086926 1.260511
v -0.542554 0.800743 1.642460
v -0.542554 -0.086926 1.642460
v -0.542554 0.800743 1.557352
v -0.542554 -0.086926 1.557352
v -0.457446 0.800743 1.642460
v -0.457446 -0.086926 1.642460
v -0.457446 0.800743 1.557352
v -0.457446 -0.086926 1.557352
v -0.573442 0.800743 2.006094
v -0.573442 -0.086926 2.006094
v -0.573442 0.800743 1.859210
v -0.573442 -0.086926 1.859210
v -0.426558 0.800743 2.006094
v -0.426558 -0.086926 2.006094
v -0.426558 0.800743 1.859210
v -0.426558 -0.086926 1.859210
v -0.542554 0.800743 2.284476
v -0.542554 -0.086926 2.284476
v -0.542088 0.800621 2.198888
v -0.542088 -0.087048 2.198888
v -0.456966 0.800621 2.284010
v -0.456966 -0.087048 2.284010
v -0.457445 0.800476 2.199367
v -0.443095 -0.087193 2.185017
v -0.542554 0.800743 2.494122
v -0.542554 -0.086926 2.494122
v -0.457446 0.800743 2.494122
v -0.457446 -0.086926 2.494122
v -3.426558 0.800743 0.792846
v -3.426558 -0.086926 0.792846
v -3.426558 0.800743 0.642584
v -3.426558 -0.086926 0.642584
v -3.573443 0.800743 0.792846
v -3.573443 -0.086926 0.792846
v -3.573443 0.800743 0.642584
v -3.573443 -0.086926 0.642584
v -3.457446 0.800743 1.060894
v -3.457446 -0.086926 1.060894
v -3.457446 0.800743 0.977375
v -3.457446 -0.086926 0.977375
v -3.542554 0.800743 1.060894
v -3.542554 -0.086926 1.060894
v -3.542554 0.800743 0.977375
v -3.542554 -0.086926 0.977375
v -3.457446 0.800743 1.345619
v -3.457446 -0.086926 1.345619
v -3.457446 0.800743 1.260511
v -3.457446 -0.086926 1.260511
v -3.542554 0.800743 1.345619
v -3.542554 -0.086926 1.345619
v -3.542554 0.800743 1.260511
v -3.542554 -0.086926 1.260511
v -3.457446 0.800743 1.642460
v -3.457446 -0.086926 1.642460
v -3.457446 0.800743 1.557352
v -3.457446 -0.086926 1.557352
v -3.542554 0.800743 1.642460
v -3.542554 -0.086926 1.642460
v -3.542554 0.800743 1.557352
v -3.542554 -0.086926 1.557352
v -3.426558 0.800743 2.006094
v -3.426558 -0.086926 2.006094
v -3.426558 0.800743 1.859210
v -3.426558 -0.086926 1.859210
v -3.573442 0.800743 2.006094
v -3.573442 -0.086926 2.006094
v -3.573442 0.800743 1.859210
v -3.573442 -0.086926 1.859210
v -3.457446 0.800743 2.284476
v -3.457446 -0.086926 2.284476
v -3.457912 0.800621 2.198888
v -3.457912 -0.087048 2.198888
v -3.543034 0.800621 2.284010
v -3.543034 -0.087048 2.284010
v -3.542555 0.800476 2.199367
v -3.556905 -0.087193 2.185017
v -3.457446 0.800743 2.494122
v -3.457446 -0.086926 2.494122
v -3.542554 0.800743 2.494122
v -3.542554 -0.086926 2.494122
v -0.573442 0.800743 4.280314
v -0.573442 -0.086926 4.280314
v -0.573442 0.800743 4.430576
v -0.573442 -0.086926 4.430576
v -0.426557 0.800743 4.280314
v -0.426557 -0.086926 4.280314
v -0.426557 0.800743 4.430576
v -0.426557 -0.086926 4.430576
v -0.542554 0.800743 4.012267
v -0.542554 -0.086926 4.012267
v -0.542554 0.800743 4.095785
v -0.542554 -0.086926 4.095785
v -0.457446 0.800743 4.012267
v -0.457446 -0.086926 4.012267
v -0.457446 0.800743 4.095785
v -0.457446 -0.086926 4.095785
v -0.542554 0.800743 3.727541
v -0.542554 -0.086926 3.727541
v -0.542554 0.800743 3.812649
v -0.542554 -0.086926 3.812649
v -0.457446 0.800743 3.727541
v -0.457446 -0.086926 3.727541
v -0.457446 0.800743 3.812649
v -0.457446 -0.086926 3.812649
v -0.542554 0.800743 3.430700
v -0.542554 -0.086926 3.430700
v -0.542554 0.800743 3.515808
v -0.542554 -0.086926 3.515808
v -0.457446 0.800743 3.430700
v -0.457446 -0.086926 3.430700
v -0.457446 0.800743 3.515808
v -0.457446 -0.086926 3.515808
v -0.573442 0.800743 3.067066
v -0.573442 -0.086926 3.067066
v -0.573442 0.800743 3.213950
v -0.573442 -0.086926 3.213950
v -0.426558 0.800743 3.067066
v -0.426558 -0.086926 3.067066
v -0.426558 0.800743 3.213950
v -0.426558 -0.086926 3.213950
v -0.542554 0.800743 2.788684
v -0.542554 -0.086926 2.788684
v -0.542088 0.800621 2.874272
v -0.542088 -0.087048 2.874272
v -0.456966 0.800621 2.789150
v -0.456966 -0.087048 2.789150
v -0.457445 0.800476 2.873793
v -0.443095 -0.087193 2.888143
v -0.542554 0.800743 2.579038
v -0.542554 -0.086926 2.579038
v -0.457446 0.800743 2.579038
v -0.457446 -0.086926 2.579038
v -0.457446 0.800743 2.536580
v -0.457446 -0.086926 2.536580
v -0.542554 0.800743 2.536580
v -0.542554 -0.086926 2.536580
v -3.426558 0.800743 4.280314
v -3.426558 -0.086926 4.280314
v -3.426558 0.800743 4.430576
v -3.426558 -0.086926 4.430576
v -3.573443 0.800743 4.280314
v -3.573443 -0.086926 4.280314
v -3.573443 0.800743 4.430576
v -3.573443 -0.086926 4.430576
v -3.457446 0.800743 4.012267
v -3.457446 -0.086926 4.012267
v -3.457446 0.800743 4.095785
v -3.457446 -0.086926 4.095785
v -3.542554 0.800743 4.012267
v -3.542554 -0.086926 4.012267
v -3.542554 0.800743 4.095785
v -3.542554 -0.086926 4.095785
v -3.457446 0.800743 3.727541
v -3.457446 -0.086926 3.727541
v -3.457446 0.800743 3.812649
v -3.457446 -0.086926 3.812649
v -3.542554 0.800743 3.727541
v -3.542554 -0.086926 3.727541
v -3.542554 0.800743 3.812649
v -3.542554 -0.086926 3.812649
v -3.457446 0.800743 3.430700
v -3.457446 -0.086926 3.430700
v -3.457446 0.800743 3.515808
v -3.457446 -0.086926 3.515808
v -3.542554 0.800743 3.430700
v -3.542554 -0.086926 3.430700
v -3.542554 0.800743 3.515808
v -3.542554 -0.086926 3.515808
v -3.426558 0.800743 3.067066
v -3.426558 -0.086926 3.067066
v -3.426558 0.800743 3.213950
v -3.426558 -0.086926 3.213950
v -3.573442 0.800743 3.067066
v -3.573442 -0.086926 3.067066
v -3.573442 0.800743 3.213950
v -3.573442 -0.086926 3.213950
v -3.457446 0.800743 2.788684
v -3.457446 -0.086926 2.788684
v -3.457912 0.800621 2.874272
v -3.457912 -0.087048 2.874272
v -3.543034 0.800621 2.789150
v -3.543034 -0.087048 2.789150
v -3.542555 0.800476 2.873793
v -3.556905 -0.087193 2.888143
v -3.457446 0.800743 2.579038
v -3.457446 -0.086926 2.579038
v -3.542554 0.800743 2.579038
v -3.542554 -0.086926 2.579038
v -3.542554 0.800743 2.536580
v -3.542554 -0.086926 2.536580
v -3.457446 0.800743 2.536580
v -3.457446 -0.086926 2.536580
vt 0.451496 0.814020
vt 0.459013 0.814020
vt 0.459013 0.870479
vt 0.451496 0.870479
vt 0.459013 0.814020
vt 0.459013 0.870479
vt 0.451496 0.814020
vt 0.451496 0.870479
vt 0.451496 0.814020
vt 0.459013 0.814020
vt 0.459013 0.870479
vt 0.451496 0.870479
vt 0.459013 0.814020
vt 0.459013 0.870479
vt 0.451496 0.814020
vt 0.451496 0.870479
vt 0.451496 0.814020
vt 0.459013 0.814020
vt 0.459013 0.870479
vt 0.451496 0.870479
vt 0.459013 0.814020
vt 0.459013 0.870479
vt 0.451496 0.814020
vt 0.451496 0.870479
vt 0.451496 0.814020
vt 0.459013 0.814020
vt 0.459013 0.870479
vt 0.451496 0.870479
vt 0.459013 0.814020
vt 0.459013 0.870479
vt 0.451496 0.814020
vt 0.451496 0.870479
vt 0.451496 0.814020
vt 0.459013 0.814020
vt 0.459013 0.870479
vt 0.451496 0.870479
vt 0.459013 0.814020
vt 0.459013 0.870479
vt 0.451496 0.814020
vt 0.451496 0.870479
vt 0.451496 0.814020
vt 0.459013 0.814020
vt 0.459013 0.870479
vt 0.451496 0.870479
vt 0.459013 0.814020
vt 0.459013 0.870479
vt 0.451496 0.814020
vt 0.451496 0.870479
vt 0.455255 0.814020
vt 0.459013 0.814020
vt 0.459013 0.870479
vt 0.455255 0.870479
vt 0.459013 0.814020
vt 0.459013 0.870479
vt 0.455255 0.814020
vt 0.455255 0.870479
vt 0.451496 0.814020
vt 0.451496 0.870479
vt 0.459013 0.870479
vt 0.459013 0.814020
vt 0.459013 0.870479
vt 0.459013 0.814020
vt 0.451496 0.870479
vt 0.451496 0.814020
vt 0.451496 0.814020
vt 0.451496 0.870479
vt 0.459013 0.870479
vt 0.459013 0.814020
vt 0.459013 0.870479
vt 0.459013 0.814020
vt 0.451496 0.870479
vt 0.451496 0.814020
vt 0.451496 0.814020
vt 0.451496 0.870479
vt 0.459013 0.870479
vt 0.459013 0.814020
vt 0.459013 0.870479
vt 0.459013 0.814020
vt 0.451496 0.870479
vt 0.451496 0.814020
vt 0.451496 0.814020
vt 0.451496 0.870479
vt 0.459013 0.870479
vt 0.459013 0.814020
vt 0.459013 0.870479
vt 0.459013 0.814020
vt 0.451496 0.870479
vt 0.451496 0.814020
vt 0.451496 0.814020
vt 0.451496 0.870479
vt 0.459013 0.870479
vt 0.459013 0.814020
vt 0.459013 0.870479
vt 0.459013 0.814020
vt 0.451496 0.870479
vt 0.451496 0.814020
vt 0.451496 0.814020
vt 0.451496 0.870479
vt 0.459013 0.870479
vt 0.459013 0.814020
vt 0.459013 0.870479
vt 0.459013 0.814020
vt 0.451496 0.870479
vt 0.451496 0.814020
vt 0.455255 0.814020
vt 0.455255 0.870479
vt 0.459013 0.870479
vt 0.459013 0.814020
vt 0.459013 0.870479
vt 0.459013 0.814020
vt 0.455255 0.870479
vt 0.455255 0.814020
vt 0.451496 0.814020
vt 0.451496 0.870479
vt 0.459013 0.870479
vt 0.459013 0.814020
vt 0.459013 0.870479
vt 0.459013 0.814020
vt 0.451496 0.870479
vt 0.451496 0.814020
vt 0.451496 0.814020
vt 0.451496 0.870479
vt 0.459013 0.870479
vt 0.459013 0.814020
vt 0.459013 0.870479
vt 0.459013 0.814020
vt 0.451496 0.870479
vt 0.451496 0.814020
vt 0.451496 0.814020
vt 0.451496 0.870479
vt 0.459013 0.870479
vt 0.459013 0.814020
vt 0.459013 0.870479
vt 0.459013 0.814020
vt 0.451496 0.870479
vt 0.451496 0.814020
vt 0.451496 0.814020
vt 0.451496 0.870479
vt 0.459013 0.870479
vt 0.459013 0.814020
vt 0.459013 0.870479
vt 0.459013 0.814020
vt 0.451496 0.870479
vt 0.451496 0.814020
vt 0.451496 0.814020
vt 0.451496 0.870479
vt 0.459013 0.870479
vt 0.459013 0.814020
vt 0.459013 0.870479
vt 0.459013 0.814020
vt 0.451496 0.870479
vt 0.451496 0.814020
vt 0.451496 0.814020
vt 0.451496 0.870479
vt 0.459013 0.870479
vt 0.459013 0.814020
vt 0.459013 0.870479
vt 0.459013 0.814020
vt 0.451496 0.870479
vt 0.451496 0.814020
vt 0.459013 0.870479
vt 0.459013 0.814020
vt 0.459013 0.870479
vt 0.459013 0.814020
vt 0.451496 0.814020
vt 0.459013 0.814020
vt 0.459013 0.870479
vt 0.451496 0.870479
vt 0.459013 0.814020
vt 0.459013 0.870479
vt 0.451496 0.814020
vt 0.451496 0.870479
vt 0.451496 0.814020
vt 0.459013 0.814020
vt 0.459013 0.870479
vt 0.451496 0.870479
vt 0.459013 0.814020
vt 0.459013 0.870479
vt 0.451496 0.814020
vt 0.451496 0.870479
vt 0.451496 0.814020
vt 0.459013 0.814020
vt 0.459013 0.870479
vt 0.451496 0.870479
vt 0.459013 0.814020
vt 0.459013 0.870479
vt 0.451496 0.814020
vt 0.451496 0.870479
vt 0.451496 0.814020
vt 0.459013 0.814020
vt 0.459013 0.870479
vt 0.451496 0.870479
vt 0.459013 0.814020
vt 0.459013 0.870479
vt 0.451496 0.814020
vt 0.451496 0.870479
vt 0.451496 0.814020
vt 0.459013 0.814020
vt 0.459013 0.870479
vt 0.451496 0.870479
vt 0.459013 0.814020
vt 0.459013 0.870479
vt 0.451496 0.814020
vt 0.451496 0.870479
vt 0.451496 0.814020
vt 0.459013 0.814020
vt 0.459013 0.870479
vt 0.451496 0.870479
vt 0.459013 0.814020
vt 0.459013 0.870479
vt 0.451496 0.814020
vt 0.451496 0.870479
vt 0.459013 0.814020
vt 0.459013 0.870479
vt 0.459013 0.814020
vt 0.459013 0.870479
vn -1.0000 0.0000 -0.0000
vn 0.0000 0.0000 -1.0000
vn 1.0000 0.0000 0.0000
vn 0.0000 0.0000 1.0000
vn -1.0000 0.0000 -0.0054
vn -0.0727 0.0075 -0.9973
vn 0.9973 0.0075 0.0727
vn 0.0054 0.0000 1.0000
vn 1.0000 0.0000 -0.0054
vn 0.0727 0.0075 -0.9973
vn -0.9973 0.0075 0.0727
vn -0.0054 0.0000 1.0000
vn -1.0000 0.0000 0.0054
vn -0.0727 0.0075 0.9973
vn 0.9973 0.0075 -0.0727
vn 0.0054 0.0000 -1.0000
vn 1.0000 0.0000 0.0054
vn 0.0727 0.0075 0.9973
vn -0.9973 0.0075 -0.0727
vn -0.0054 0.0000 -1.0000
s off
f 106/130/7 108/131/7 109/132/7 107/133/7
f 108/131/8 112/134/8 113/135/8 109/132/8
f 112/134/9 110/136/9 111/137/9 113/135/9
f 110/136/10 106/130/10 107/133/10 111/137/10
f 114/138/7 116/139/7 117/140/7 115/141/7
f 116/139/8 120/142/8 121/143/8 117/140/8
f 120/142/9 118/144/9 119/145/9 121/143/9
f 118/144/10 114/138/10 115/141/10 119/145/10
f 122/146/7 124/147/7 125/148/7 123/149/7
f 124/147/8 128/150/8 129/151/8 125/148/8
f 128/150/9 126/152/9 127/153/9 129/151/9
f 126/152/10 122/146/10 123/149/10 127/153/10
f 130/154/7 132/155/7 133/156/7 131/157/7
f 132/155/8 136/158/8 137/159/8 133/156/8
f 136/158/9 134/160/9 135/161/9 137/159/9
f 134/160/10 130/154/10 131/157/10 135/161/10
f 138/162/7 140/163/7 141/164/7 139/165/7
f 140/163/8 144/166/8 145/167/8 141/164/8
f 144/166/9 142/168/9 143/169/9 145/167/9
f 142/168/10 138/162/10 139/165/10 143/169/10
f 146/170/11 148/171/11 149/172/11 147/173/11
f 148/171/12 152/174/12 153/175/12 149/172/12
f 152/174/13 150/176/13 151/177/13 153/175/13
f 150/176/14 146/170/14 147/173/14 151/177/14
f 264/178/7 154/179/7 155/180/7 265/181/7
f 154/179/8 156/182/8 157/183/8 155/180/8
f 156/182/9 262/184/9 263/185/9 157/183/9
f 158/186/9 159/187/9 161/188/9 160/189/9
f 160/189/8 161/188/8 165/190/8 164/191/8
f 164/191/7 165/190/7 163/192/7 162/193/7
f 162/193/10 163/192/10 159/187/10 158/186/10
f 166/194/9 167/195/9 169/196/9 168/197/9
f 168/197/8 169/196/8 173/198/8 172/199/8
f 172/199/7 173/198/7 171/200/7 170/201/7
f 170/201/10 171/200/10 167/195/10 166/194/10
f 174/202/9 175/203/9 177/204/9 176/205/9
f 176/205/8 177/204/8 181/206/8 180/207/8
f 180/207/7 181/206/7 179/208/7 178/209/7
f 178/209/10 179/208/10 175/203/10 174/202/10
f 182/210/9 183/211/9 185/212/9 184/213/9
f 184/213/8 185/212/8 189/214/8 188/215/8
f 188/215/7 189/214/7 187/216/7 186/217/7
f 186/217/10 187/216/10 183/211/10 182/210/10
f 190/218/9 191/219/9 193/220/9 192/221/9
f 192/221/8 193/220/8 197/222/8 196/223/8
f 196/223/7 197/222/7 195/224/7 194/225/7
f 194/225/10 195/224/10 191/219/10 190/218/10
f 198/226/15 199/227/15 201/228/15 200/229/15
f 200/229/16 201/228/16 205/230/16 204/231/16
f 204/231/17 205/230/17 203/232/17 202/233/17
f 202/233/18 203/232/18 199/227/18 198/226/18
f 320/234/9 321/235/9 207/236/9 206/237/9
f 206/237/8 207/236/8 209/238/8 208/239/8
f 208/239/7 209/238/7 319/240/7 318/241/7
f 210/242/7 211/243/7 213/244/7 212/245/7
f 212/245/10 213/244/10 217/246/10 216/247/10
f 216/247/9 217/246/9 215/248/9 214/249/9
f 214/249/8 215/248/8 211/243/8 210/242/8
f 218/250/7 219/251/7 221/252/7 220/253/7
f 220/253/10 221/252/10 225/254/10 224/255/10
f 224/255/9 225/254/9 223/256/9 222/257/9
f 222/257/8 223/256/8 219/251/8 218/250/8
f 226/258/7 227/259/7 229/260/7 228/261/7
f 228/261/10 229/260/10 233/262/10 232/263/10
f 232/263/9 233/262/9 231/264/9 230/265/9
f 230/265/8 231/264/8 227/259/8 226/258/8
f 234/266/7 235/267/7 237/268/7 236/269/7
f 236/269/10 237/268/10 241/270/10 240/271/10
f 240/271/9 241/270/9 239/272/9 238/273/9
f 238/273/8 239/272/8 235/267/8 234/266/8
f 242/274/7 243/275/7 245/276/7 244/277/7
f 244/277/10 245/276/10 249/278/10 248/279/10
f 248/279/9 249/278/9 247/280/9 246/281/9
f 246/281/8 247/280/8 243/275/8 242/274/8
f 250/282/19 251/283/19 253/284/19 252/285/19
f 252/285/20 253/284/20 257/286/20 256/287/20
f 256/287/21 257/286/21 255/288/21 254/289/21
f 254/289/22 255/288/22 251/283/22 250/282/22
f 264/178/7 265/181/7 259/290/7 258/291/7
f 258/291/10 259/290/10 261/292/10 260/293/10
f 260/293/9 261/292/9 263/185/9 262/184/9
f 266/294/9 268/295/9 269/296/9 267/297/9
f 268/295/10 272/298/10 273/299/10 269/296/10
f 272/298/7 270/300/7 271/301/7 273/299/7
f 270/300/8 266/294/8 267/297/8 271/301/8
f 274/302/9 276/303/9 277/304/9 275/305/9
f 276/303/10 280/306/10 281/307/10 277/304/10
f 280/306/7 278/308/7 279/309/7 281/307/7
f 278/308/8 274/302/8 275/305/8 279/309/8
f 282/310/9 284/311/9 285/312/9 283/313/9
f 284/311/10 288/314/10 289/315/10 285/312/10
f 288/314/7 286/316/7 287/317/7 289/315/7
f 286/316/8 282/310/8 283/313/8 287/317/8
f 290/318/9 292/319/9 293/320/9 291/321/9
f 292/319/10 296/322/10 297/323/10 293/320/10
f 296/322/7 294/324/7 295/325/7 297/323/7
f 294/324/8 290/318/8 291/321/8 295/325/8
f 298/326/9 300/327/9 301/328/9 299/329/9
f 300/327/10 304/330/10 305/331/10 301/328/10
f 304/330/7 302/332/7 303/333/7 305/331/7
f 302/332/8 298/326/8 299/329/8 303/333/8
f 306/334/23 308/335/23 309/336/23 307/337/23
f 308/335/24 312/338/24 313/339/24 309/336/24
f 312/338/25 310/340/25 311/341/25 313/339/25
f 310/340/26 306/334/26 307/337/26 311/341/26
f 320/234/9 314/342/9 315/343/9 321/235/9
f 314/342/10 316/344/10 317/345/10 315/343/10
f 316/344/7 318/241/7 319/240/7 317/345/7
