# Blender v2.82 (sub 7) OBJ File: 'logBridge.blend'
# www.blender.org
o woodenFlatD4_Cylinder.007
v -1.084543 -0.038423 0.710318
v -1.094835 -0.061091 0.710952
v -1.115944 -0.108293 0.683052
v -1.297246 -0.167860 0.670444
v -1.473873 -0.047973 0.714092
v -1.445188 -0.036941 0.708825
v -1.563021 -0.036782 0.684606
v -1.533962 -0.049591 0.689967
v -1.945314 -0.047973 0.689915
v -1.916611 -0.036925 0.684622
v -2.068370 -0.036782 0.612074
v -2.039311 -0.049591 0.617435
v -2.450664 -0.047973 0.617383
v -2.421961 -0.036925 0.612090
v -2.559510 -0.036775 0.664814
v -2.530442 -0.049591 0.670186
v -2.705933 -0.167053 0.633935
v -2.891175 -0.107803 0.639574
v -2.917943 -0.053186 0.662409
v -2.914175 -0.036581 0.665182
v -2.897652 0.166646 0.974280
v -1.429688 0.166641 1.018241
v -1.739664 0.229014 1.035749
v -2.503149 -0.004210 0.875975
v -1.972750 -0.004363 0.895703
v -1.052463 0.032304 0.914752
v -1.578235 0.166661 0.994071
v -2.705710 -0.150118 0.717312
v -1.298075 -0.150258 0.712882
v -2.736156 0.229019 1.015964
v -2.406482 0.166640 0.921523
v -1.268224 0.229015 1.059939
v -2.951906 0.032369 0.870451
v -2.012020 -0.004210 0.823222
v -1.501308 -0.004363 0.919880
v -2.574715 0.166662 0.974290
v -1.106463 0.166419 1.018194
v -2.245011 0.229008 0.963204
v -1.901129 0.166641 0.994063
v -1.117006 -0.089594 0.762798
v -2.478100 -0.004365 0.823168
v -1.506669 -0.004210 0.895756
v -2.890117 -0.087690 0.761201
v -2.083585 0.166658 0.921531
v -3.052173 -0.118365 1.177943
v -3.052173 -0.174846 1.156001
v -3.052173 -0.170427 1.316251
v -3.052173 -0.251662 1.238286
v -3.052173 -0.093687 1.233968
v -0.947830 -0.229967 1.180301
v -0.947830 -0.113872 1.290822
v -0.947830 -0.173933 1.155436
v -0.947830 -0.091841 1.233585
v -0.947830 -0.251998 1.237537
v -0.947830 -0.169907 1.315687
v -0.947830 -0.116719 1.177507
v -3.052173 -0.230071 1.180995
v -3.052173 -0.115240 1.291257
v -3.052173 -0.231760 1.292158
v -0.947830 -0.229824 1.291501
v -3.052173 -0.118365 2.838914
v -3.052173 -0.174846 2.816972
v -0.947829 -0.229967 2.841553
v -0.947829 -0.173933 2.816688
v -0.947829 -0.116719 2.838759
v -3.052173 -0.230071 2.841967
v -1.084543 -0.038423 5.082842
v -1.094835 -0.061091 5.082208
v -1.115944 -0.108293 5.110108
v -1.297246 -0.167860 5.122716
v -1.473873 -0.047973 5.079068
v -1.445188 -0.036941 5.084335
v -1.563021 -0.036782 5.108554
v -1.533962 -0.049591 5.103193
v -1.945314 -0.047973 5.103245
v -1.916611 -0.036925 5.108538
v -2.068370 -0.036782 5.181086
v -2.039311 -0.049591 5.175725
v -2.450664 -0.047973 5.175777
v -2.421961 -0.036925 5.181070
v -2.559510 -0.036775 5.128345
v -2.530442 -0.049591 5.122974
v -2.705933 -0.167053 5.159225
v -2.891175 -0.107803 5.153586
v -2.917943 -0.053186 5.130751
v -2.914175 -0.036581 5.127978
v -2.897652 0.166646 4.818880
v -1.429688 0.166641 4.774919
v -1.739664 0.229014 4.757411
v -2.503149 -0.004210 4.917185
v -1.972750 -0.004363 4.897457
v -1.052463 0.032304 4.878408
v -1.578235 0.166661 4.799089
v -2.705710 -0.150118 5.075848
v -1.298075 -0.150258 5.080278
v -2.736156 0.229019 4.777195
v -2.406482 0.166640 4.871636
v -1.268224 0.229015 4.733221
v -2.951906 0.032369 4.922709
v -2.012020 -0.004210 4.969938
v -1.501308 -0.004363 4.873280
v -2.574715 0.166662 4.818870
v -1.106463 0.166419 4.774966
v -2.245011 0.229008 4.829956
v -1.901129 0.166641 4.799097
v -1.117006 -0.089594 5.030362
v -2.478100 -0.004365 4.969992
v -1.506669 -0.004210 4.897404
v -2.890117 -0.087690 5.031960
v -2.083585 0.166658 4.871629
v -3.052173 -0.118365 4.615217
v -3.052173 -0.174846 4.637159
v -3.052173 -0.170427 4.476909
v -3.052173 -0.251662 4.554874
v -3.052173 -0.093687 4.559192
v -0.947830 -0.229967 4.612859
v -0.947830 -0.113872 4.502338
v -0.947830 -0.173933 4.637724
v -0.947830 -0.091841 4.559575
v -0.947830 -0.251998 4.555623
v -0.947830 -0.169907 4.477473
v -0.947830 -0.116719 4.615653
v -3.052173 -0.230071 4.612164
v -3.052173 -0.115240 4.501903
v -3.052173 -0.231760 4.501002
v -0.947830 -0.229824 4.501658
v -3.052173 -0.118365 2.954246
v -3.052173 -0.174846 2.976188
v -1.429289 0.180220 2.896580
v -3.052173 -0.251662 2.896580
v -3.052173 -0.093687 2.896580
v -0.947829 -0.229967 2.951607
v -1.508139 0.004011 2.896580
v -0.947829 -0.173933 2.976472
v -0.947830 -0.091841 2.896580
v -0.947829 -0.251998 2.896580
v -1.900731 0.180221 2.896580
v -0.947829 -0.116719 2.954401
v -3.052173 -0.230071 2.951193
v -1.579002 0.180527 2.896580
v -1.739661 0.244948 2.896580
v -1.972101 0.002377 2.896580
v -1.052292 0.040860 2.896580
v -1.298820 -0.153206 2.896580
v -1.500659 0.002377 2.896580
v -1.107660 0.180650 2.896580
v -1.115907 -0.088947 2.896580
v -1.268214 0.244950 2.896580
v -2.406400 0.179974 2.896580
v -2.013489 0.004011 2.896580
v -2.478254 0.001049 2.896580
v -2.084352 0.180527 2.896580
v -2.245005 0.244946 2.896580
v -2.896524 0.180810 2.896580
v -2.504619 0.004011 2.896580
v -2.705255 -0.153138 2.896580
v -2.952122 0.040973 2.896580
v -2.575482 0.180527 2.896580
v -2.889763 -0.088053 2.896580
v -2.736160 0.244953 2.896580
vt 0.694041 0.599120
vt 0.744501 0.566584
vt 0.747854 0.595539
vt 0.749873 0.609486
vt 0.710829 0.602723
vt 0.750000 0.500000
vt 0.750000 0.524746
vt 0.625000 0.524746
vt 0.625000 0.500000
vt 0.500000 0.524746
vt 0.500000 0.500000
vt 0.711451 0.530029
vt 0.747454 0.517315
vt 0.747475 0.537717
vt 0.693558 0.535481
vt 0.693585 0.596919
vt 0.744539 0.567394
vt 0.747498 0.596009
vt 0.747476 0.615786
vt 0.711406 0.602522
vt 0.712034 0.529068
vt 0.748224 0.517156
vt 0.747942 0.538253
vt 0.694058 0.534541
vt 0.693585 0.596919
vt 0.744538 0.567395
vt 0.747498 0.596009
vt 0.747476 0.615786
vt 0.711406 0.602522
vt 0.712034 0.529068
vt 0.748224 0.517155
vt 0.747942 0.538253
vt 0.694059 0.534540
vt 0.693189 0.595809
vt 0.744473 0.567624
vt 0.747114 0.596016
vt 0.746871 0.615257
vt 0.710948 0.601397
vt 0.500000 0.500000
vt 0.500000 0.524746
vt 0.375000 0.524746
vt 0.375000 0.500000
vt 0.250000 0.524746
vt 0.250000 0.500000
vt 0.711551 0.530921
vt 0.748976 0.523327
vt 0.748202 0.538281
vt 0.694416 0.533275
vt 0.735655 0.825272
vt 0.742591 0.825272
vt 0.742591 0.987084
vt 0.735655 0.987343
vt 0.694033 0.825272
vt 0.700970 0.825272
vt 0.700970 0.987946
vt 0.694033 0.987343
vt 0.728718 0.825272
vt 0.728718 0.987946
vt 0.707907 0.825272
vt 0.707907 0.988518
vt 0.687096 0.825272
vt 0.687096 0.987084
vt 0.714844 0.825272
vt 0.714844 0.988746
vt 0.721781 0.988346
vt 0.721781 0.825272
vt 0.516571 0.933090
vt 0.543318 0.910413
vt 0.543365 0.558714
vt 0.517439 0.559090
vt 0.694033 0.825272
vt 0.700970 0.825272
vt 0.700970 0.987946
vt 0.694033 0.987343
vt 0.515012 0.968560
vt 0.520342 0.957270
vt 0.519937 0.553096
vt 0.515012 0.553056
vt 0.707907 0.825272
vt 0.707907 0.988518
vt 0.687096 0.825272
vt 0.687096 0.987084
vt 0.714844 0.825272
vt 0.714844 0.988746
vt 0.566155 0.900801
vt 0.566174 0.558556
vt 0.541705 0.910408
vt 0.541632 0.558708
vt 0.515613 0.933090
vt 0.514540 0.559081
vt 0.543616 0.900112
vt 0.517665 0.923206
vt 0.514358 0.554718
vt 0.541446 0.553917
vt 0.549895 0.899366
vt 0.568007 0.890118
vt 0.565987 0.553379
vt 0.547771 0.553158
vt 0.536902 0.922814
vt 0.533644 0.553128
vt 0.539000 0.920216
vt 0.512903 0.942881
vt 0.511616 0.552412
vt 0.538875 0.552053
vt 0.540615 0.920221
vt 0.563452 0.910617
vt 0.563472 0.551908
vt 0.540662 0.552059
vt 0.513873 0.942881
vt 0.514737 0.552418
vt 0.518386 0.957627
vt 0.513582 0.967555
vt 0.513582 0.553056
vt 0.518254 0.553090
vt 0.533428 0.932856
vt 0.532138 0.553115
vt 0.548326 0.909315
vt 0.546247 0.553140
vt 0.542096 0.910036
vt 0.566486 0.900069
vt 0.564497 0.553349
vt 0.540024 0.553864
vt 0.516155 0.933090
vt 0.513136 0.554629
vt 0.694041 0.599120
vt 0.747854 0.595539
vt 0.744501 0.566584
vt 0.710829 0.602723
vt 0.749873 0.609486
vt 0.750000 0.500000
vt 0.625000 0.500000
vt 0.625000 0.524746
vt 0.750000 0.524746
vt 0.500000 0.500000
vt 0.500000 0.524746
vt 0.711451 0.530029
vt 0.693558 0.535481
vt 0.747475 0.537717
vt 0.747454 0.517315
vt 0.693585 0.596919
vt 0.747498 0.596009
vt 0.744539 0.567394
vt 0.711406 0.602522
vt 0.747476 0.615786
vt 0.712034 0.529068
vt 0.694058 0.534541
vt 0.747942 0.538253
vt 0.748224 0.517156
vt 0.693585 0.596919
vt 0.747498 0.596009
vt 0.744538 0.567395
vt 0.711406 0.602522
vt 0.747476 0.615786
vt 0.712034 0.529068
vt 0.694059 0.534540
vt 0.747942 0.538253
vt 0.748224 0.517155
vt 0.693189 0.595809
vt 0.747114 0.596016
vt 0.744473 0.567624
vt 0.710948 0.601397
vt 0.746871 0.615257
vt 0.500000 0.500000
vt 0.375000 0.500000
vt 0.375000 0.524746
vt 0.500000 0.524746
vt 0.250000 0.500000
vt 0.250000 0.524746
vt 0.711551 0.530921
vt 0.694416 0.533275
vt 0.748202 0.538281
vt 0.748976 0.523327
vt 0.735655 0.825272
vt 0.735655 0.987343
vt 0.742591 0.987084
vt 0.742591 0.825272
vt 0.694033 0.825272
vt 0.694033 0.987343
vt 0.700970 0.987946
vt 0.700970 0.825272
vt 0.728718 0.825272
vt 0.728718 0.987946
vt 0.707907 0.988518
vt 0.707907 0.825272
vt 0.687096 0.825272
vt 0.687096 0.987084
vt 0.714844 0.988746
vt 0.714844 0.825272
vt 0.721781 0.988346
vt 0.721781 0.825272
vt 0.516571 0.933090
vt 0.543318 0.910413
vt 0.694033 0.825272
vt 0.694033 0.987343
vt 0.700970 0.987946
vt 0.700970 0.825272
vt 0.515012 0.968560
vt 0.520342 0.957270
vt 0.707907 0.988518
vt 0.707907 0.825272
vt 0.566155 0.900801
vt 0.541705 0.910408
vt 0.515613 0.933090
vt 0.543616 0.900112
vt 0.517665 0.923206
vt 0.549895 0.899366
vt 0.568007 0.890118
vt 0.536902 0.922814
vt 0.539000 0.920216
vt 0.512903 0.942881
vt 0.540615 0.920221
vt 0.563452 0.910617
vt 0.513873 0.942881
vt 0.518386 0.957627
vt 0.513582 0.967555
vt 0.533428 0.932856
vt 0.548326 0.909315
vt 0.542096 0.910036
vt 0.566486 0.900069
vt 0.516155 0.933090
vn 0.5822 0.6643 -0.4687
vn 0.0008 0.8250 -0.5651
vn 0.3092 0.7970 -0.5189
vn 0.9919 0.0293 -0.1238
vn 0.9661 -0.2559 -0.0356
vn 0.6351 -0.7667 0.0938
vn 0.4928 -0.8404 0.2258
vn 0.2885 -0.9429 0.1666
vn 0.2588 -0.9248 0.2788
vn -0.7666 0.5718 -0.2921
vn -0.3195 0.8034 -0.5024
vn -0.4573 0.7500 -0.4778
vn 0.4629 0.7477 -0.4760
vn -0.0001 0.8261 -0.5635
vn 0.3202 0.8031 -0.5025
vn 0.7683 0.5691 -0.2928
vn -0.3195 0.8035 -0.5023
vn -0.4591 0.7498 -0.4765
vn 0.4631 0.7477 -0.4759
vn 0.0001 0.8263 -0.5633
vn -0.2871 -0.9423 0.1721
vn -0.3050 -0.9471 0.0996
vn -0.6463 -0.7601 0.0668
vn -0.5533 -0.8208 0.1421
vn -0.9868 0.0768 -0.1424
vn -0.9779 -0.2002 -0.0605
vn -0.2960 0.8040 -0.5157
vn -0.5357 0.7015 -0.4701
vn -0.0003 0.7273 0.6863
vn -0.0008 0.9997 -0.0263
vn -0.0003 0.7271 0.6865
vn -0.0007 0.6904 -0.7234
vn -0.0003 -0.0259 -0.9997
vn -0.0003 -0.0261 -0.9997
vn -0.0007 0.6903 -0.7236
vn 0.0003 0.0213 0.9998
vn 0.0003 0.0212 0.9998
vn -0.0002 -0.7271 -0.6866
vn -0.0002 -0.7271 -0.6865
vn 0.0002 -1.0000 0.0040
vn 0.0002 -1.0000 0.0041
vn 0.0005 -0.7096 0.7046
vn 0.0005 -0.7095 0.7047
vn 0.9251 0.3797 -0.0016
vn 0.7641 0.6450 -0.0042
vn 0.7007 0.7135 -0.0000
vn 0.9251 0.3797 -0.0000
vn -0.0006 0.6944 -0.7196
vn -0.0002 -0.0259 -0.9997
vn -0.0002 -0.0261 -0.9997
vn -0.0006 0.6942 -0.7198
vn 0.6558 -0.7550 -0.0000
vn 0.3247 -0.9458 -0.0000
vn -0.0001 -0.7220 -0.6919
vn -0.0001 -0.7221 -0.6918
vn -0.0008 1.0000 0.0000
vn -0.0001 -1.0000 0.0000
vn -0.0002 1.0000 -0.0078
vn -0.0002 1.0000 -0.0000
vn -0.7642 0.6449 -0.0042
vn -0.7009 0.7133 -0.0000
vn -0.9251 0.3797 -0.0017
vn -0.9251 0.3797 -0.0000
vn 1.0000 -0.0000 0.0000
vn -1.0000 0.0000 0.0000
vn -0.7642 0.6449 -0.0043
vn 0.7758 0.6309 -0.0044
vn -0.0002 1.0000 -0.0079
vn 0.7038 0.7104 -0.0000
vn 0.9990 -0.0442 -0.0000
vn -0.7642 0.6450 -0.0041
vn -0.9251 0.3798 -0.0018
vn -0.9251 0.3798 0.0000
vn -0.7010 0.7131 -0.0000
vn 0.7641 0.6451 -0.0040
vn -0.0004 1.0000 -0.0075
vn -0.0004 1.0000 -0.0000
vn 0.7007 0.7134 0.0000
vn -0.3268 -0.9451 0.0000
vn -0.6597 -0.7515 0.0000
vn -0.9992 -0.0393 0.0000
vn -0.7753 0.6316 -0.0043
vn -0.7032 0.7110 -0.0000
vn 0.7641 0.6451 -0.0041
vn 0.0002 1.0000 -0.0078
vn 0.0002 1.0000 -0.0000
vn 0.5822 0.6643 0.4687
vn 0.3092 0.7970 0.5189
vn 0.0008 0.8250 0.5651
vn 0.9661 -0.2559 0.0356
vn 0.9919 0.0293 0.1238
vn 0.4928 -0.8404 -0.2258
vn 0.6351 -0.7667 -0.0938
vn 0.2588 -0.9248 -0.2788
vn 0.2885 -0.9429 -0.1666
vn -0.7666 0.5718 0.2921
vn -0.4573 0.7500 0.4778
vn -0.3195 0.8034 0.5024
vn 0.4629 0.7477 0.4760
vn 0.3202 0.8031 0.5025
vn -0.0001 0.8261 0.5635
vn 0.7683 0.5691 0.2928
vn -0.4591 0.7498 0.4765
vn -0.3195 0.8035 0.5023
vn 0.4631 0.7477 0.4759
vn 0.0001 0.8263 0.5633
vn -0.2871 -0.9423 -0.1721
vn -0.5533 -0.8208 -0.1421
vn -0.6463 -0.7601 -0.0668
vn -0.3050 -0.9471 -0.0996
vn -0.9779 -0.2002 0.0605
vn -0.9868 0.0768 0.1424
vn -0.5357 0.7015 0.4701
vn -0.2960 0.8040 0.5157
vn -0.0003 0.7273 -0.6863
vn -0.0003 0.7271 -0.6865
vn -0.0008 0.9997 0.0263
vn -0.0007 0.6904 0.7234
vn -0.0007 0.6903 0.7236
vn -0.0003 -0.0261 0.9997
vn -0.0003 -0.0259 0.9997
vn 0.0003 0.0213 -0.9998
vn 0.0003 0.0212 -0.9998
vn -0.0002 -0.7271 0.6865
vn -0.0002 -0.7271 0.6866
vn 0.0002 -1.0000 -0.0041
vn 0.0002 -1.0000 -0.0040
vn 0.0005 -0.7096 -0.7046
vn 0.0005 -0.7095 -0.7047
vn 0.9251 0.3797 0.0016
vn 0.7641 0.6450 0.0042
vn -0.0006 0.6944 0.7196
vn -0.0006 0.6942 0.7198
vn -0.0002 -0.0261 0.9997
vn -0.0002 -0.0259 0.9997
vn -0.0001 -0.7221 0.6918
vn -0.0001 -0.7220 0.6919
vn -0.0002 1.0000 0.0078
vn -0.7642 0.6449 0.0042
vn -0.9251 0.3797 0.0017
vn -0.7642 0.6449 0.0043
vn 0.7758 0.6309 0.0044
vn -0.0002 1.0000 0.0079
vn -0.7642 0.6450 0.0041
vn -0.9251 0.3798 0.0018
vn 0.7641 0.6451 0.0040
vn -0.0004 1.0000 0.0075
vn -0.7753 0.6316 0.0043
vn 0.7641 0.6450 0.0041
vn 0.0002 1.0000 0.0078
s 1
f 1/1/1 32/2/2 37/3/3
f 1/1/1 37/3/3 26/4/4 2/5/5
f 2/6/5 26/7/4 40/8/6 3/9/7
f 3/9/7 40/8/6 29/10/8 4/11/9
f 5/12/10 35/13/10 22/14/11 6/15/12
f 6/15/12 22/14/11 32/2/2
f 7/16/13 23/17/14 27/18/15
f 7/16/13 27/18/15 42/19/16 8/20/16
f 9/21/10 25/22/10 39/23/17 10/24/18
f 10/24/18 39/23/17 23/17/14
f 11/25/13 38/26/14 44/27/15
f 11/25/13 44/27/15 34/28/16 12/29/16
f 13/30/10 41/31/10 31/32/11 14/33/18
f 14/33/18 31/32/11 38/26/14
f 15/34/19 30/35/20 36/36/15
f 15/34/19 36/36/15 24/37/16 16/38/16
f 17/39/21 28/40/22 43/41/23 18/42/24
f 18/42/24 43/41/23 33/43/25 19/44/26
f 19/45/26 33/46/25 21/47/27 20/48/28
f 20/48/28 21/47/27 30/35/20
f 15/34/19 20/48/28 30/35/20
f 11/25/13 14/33/18 38/26/14
f 7/16/13 10/24/18 23/17/14
f 1/1/1 6/15/12 32/2/2
f 51/49/29 53/50/30 49/51/30 58/52/31
f 56/53/32 52/54/33 46/55/34 45/56/35
f 55/57/36 51/49/29 58/52/31 47/58/37
f 52/54/33 50/59/38 57/60/39 46/55/34
f 53/61/30 56/53/32 45/56/35 49/62/30
f 50/59/38 54/63/40 48/64/41 57/60/39
f 59/65/42 60/66/43 55/57/36 47/58/37
f 48/64/41 54/63/40 60/66/43 59/65/42
f 42/67/44 27/68/45 140/69/46 133/70/47
f 65/71/48 64/72/49 62/73/50 61/74/51
f 29/75/8 40/76/6 147/77/52 144/78/53
f 64/72/49 63/79/54 66/80/55 62/73/50
f 135/81/56 65/71/48 61/74/51 131/82/56
f 63/79/54 136/83/57 130/84/57 66/80/55
f 27/68/45 23/85/58 141/86/59 140/69/46
f 23/85/58 39/87/60 137/88/61 141/86/59
f 39/87/60 25/89/62 142/90/63 137/88/61
f 51/49/64 56/53/64 53/50/64
f 59/65/65 57/60/65 48/64/65
f 22/91/66 35/92/62 145/93/63 129/94/61
f 37/95/67 32/96/68 148/97/59 146/98/69
f 32/96/68 22/91/66 129/94/61 148/97/59
f 26/99/4 37/95/67 146/98/69 143/100/70
f 40/76/6 26/99/4 143/100/70 147/77/52
f 31/101/71 41/102/72 151/103/73 149/104/74
f 44/105/75 38/106/76 153/107/77 152/108/78
f 38/106/76 31/101/71 149/104/74 153/107/77
f 34/109/44 44/105/75 152/108/78 150/110/47
f 43/111/23 28/112/22 156/113/79 159/114/80
f 33/115/25 43/111/23 159/114/80 157/116/81
f 21/117/82 33/115/25 157/116/81 154/118/83
f 36/119/84 30/120/85 160/121/86 158/122/46
f 30/120/85 21/117/82 154/118/83 160/121/86
f 24/123/44 36/119/84 158/122/46 155/124/47
f 63/79/64 64/72/64 65/71/64
f 136/83/64 63/79/64 65/71/64 135/81/64
f 52/54/64 56/53/64 51/49/64 55/57/64
f 54/63/64 50/59/64 60/66/64
f 50/59/64 52/54/64 55/57/64 60/66/64
f 58/52/65 49/62/65 45/56/65
f 47/58/65 58/52/65 45/56/65 46/55/65
f 47/58/65 46/55/65 57/60/65 59/65/65
f 61/74/65 62/73/65 66/80/65
f 131/82/65 61/74/65 66/80/65 130/84/65
f 67/125/87 103/126/88 98/127/89
f 67/125/87 68/128/90 92/129/91 103/126/88
f 68/130/90 69/131/92 106/132/93 92/133/91
f 69/131/92 70/134/94 95/135/95 106/132/93
f 71/136/96 72/137/97 88/138/98 101/139/96
f 72/137/97 98/127/89 88/138/98
f 73/140/99 93/141/100 89/142/101
f 73/140/99 74/143/102 108/144/102 93/141/100
f 75/145/96 76/146/103 105/147/104 91/148/96
f 76/146/103 89/142/101 105/147/104
f 77/149/99 110/150/100 104/151/101
f 77/149/99 78/152/102 100/153/102 110/150/100
f 79/154/96 80/155/103 97/156/98 107/157/96
f 80/155/103 104/151/101 97/156/98
f 81/158/105 102/159/100 96/160/106
f 81/158/105 82/161/102 90/162/102 102/159/100
f 83/163/107 84/164/108 109/165/109 94/166/110
f 84/164/108 85/167/111 99/168/112 109/165/109
f 85/169/111 86/170/113 87/171/114 99/172/112
f 86/170/113 96/160/106 87/171/114
f 81/158/105 96/160/106 86/170/113
f 77/149/99 104/151/101 80/155/103
f 73/140/99 89/142/101 76/146/103
f 67/125/87 98/127/89 72/137/97
f 117/173/115 124/174/116 115/175/117 119/176/117
f 122/177/118 111/178/119 112/179/120 118/180/121
f 121/181/122 113/182/123 124/174/116 117/173/115
f 118/180/121 112/179/120 123/183/124 116/184/125
f 119/185/117 115/186/117 111/178/119 122/177/118
f 116/184/125 123/183/124 114/187/126 120/188/127
f 125/189/128 113/182/123 121/181/122 126/190/129
f 114/187/126 125/189/128 126/190/129 120/188/127
f 108/191/130 133/70/47 140/69/46 93/192/131
f 138/193/132 127/194/133 128/195/134 134/196/135
f 95/197/95 144/78/53 147/77/52 106/198/93
f 134/196/135 128/195/134 139/199/136 132/200/137
f 135/81/56 131/82/56 127/194/133 138/193/132
f 132/200/137 139/199/136 130/84/57 136/83/57
f 93/192/131 140/69/46 141/86/59 89/201/138
f 89/201/138 141/86/59 137/88/61 105/202/139
f 105/202/139 137/88/61 142/90/63 91/203/140
f 117/173/64 119/176/64 122/177/64
f 125/189/65 114/187/65 123/183/65
f 88/204/141 129/94/61 145/93/63 101/205/140
f 103/206/142 146/98/69 148/97/59 98/207/143
f 98/207/143 148/97/59 129/94/61 88/204/141
f 92/208/91 143/100/70 146/98/69 103/206/142
f 106/198/93 147/77/52 143/100/70 92/208/91
f 97/209/144 149/104/74 151/103/73 107/210/145
f 110/211/146 152/108/78 153/107/77 104/212/147
f 104/212/147 153/107/77 149/104/74 97/209/144
f 100/213/130 150/110/47 152/108/78 110/211/146
f 109/214/109 159/114/80 156/113/79 94/215/110
f 99/216/112 157/116/81 159/114/80 109/214/109
f 87/217/148 154/118/83 157/116/81 99/216/112
f 102/218/149 158/122/46 160/121/86 96/219/150
f 96/219/150 160/121/86 154/118/83 87/217/148
f 90/220/130 155/124/47 158/122/46 102/218/149
f 132/200/64 138/193/64 134/196/64
f 136/83/64 135/81/64 138/193/64 132/200/64
f 118/180/64 121/181/64 117/173/64 122/177/64
f 120/188/64 126/190/64 116/184/64
f 116/184/64 126/190/64 121/181/64 118/180/64
f 124/174/65 111/178/65 115/186/65
f 113/182/65 112/179/65 111/178/65 124/174/65
f 113/182/65 125/189/65 123/183/65 112/179/65
f 127/194/65 139/199/65 128/195/65
f 131/82/65 130/84/65 139/199/65 127/194/65
