# Blender v2.82 (sub 7) OBJ File: 'logBridge.blend'
# www.blender.org
o woodenFlat3_Cylinder.001
v -1.084543 -0.038423 0.976629
v -1.094835 -0.061091 0.977264
v -1.115944 -0.108293 0.949363
v -1.297246 -0.167860 0.936755
v -1.473873 -0.047973 0.980404
v -1.445188 -0.036941 0.975136
v -1.563021 -0.036782 0.950918
v -1.533962 -0.049591 0.956279
v -1.945314 -0.047973 0.956226
v -1.916611 -0.036925 0.950933
v -2.068370 -0.036782 0.878386
v -2.039311 -0.049591 0.883747
v -2.450664 -0.047973 0.883695
v -2.421961 -0.036925 0.878402
v -2.559510 -0.036775 0.931126
v -2.530442 -0.049591 0.936497
v -2.705933 -0.167053 0.900246
v -2.891175 -0.107803 0.905885
v -2.917943 -0.053186 0.928721
v -2.914175 -0.036581 0.931494
v -2.897652 0.166646 1.240592
v -1.429688 0.166641 1.284552
v -1.739664 0.229014 1.302060
v -2.503149 -0.004210 1.142287
v -1.972750 -0.004363 1.162014
v -1.052463 0.032304 1.181063
v -1.578235 0.166661 1.260382
v -2.705710 -0.150118 0.983623
v -1.298075 -0.150258 0.979193
v -2.736156 0.229019 1.282276
v -2.406482 0.166640 1.187835
v -1.268224 0.229015 1.326251
v -2.951906 0.032369 1.136762
v -2.012020 -0.004210 1.089533
v -1.501308 -0.004363 1.186192
v -2.574715 0.166662 1.240601
v -1.106463 0.166419 1.284505
v -2.245011 0.229008 1.229515
v -1.901129 0.166641 1.260375
v -1.117006 -0.089594 1.029109
v -2.478100 -0.004365 1.089480
v -1.506669 -0.004210 1.162068
v -2.890117 -0.087690 1.027512
v -2.083585 0.166658 1.187842
v -3.052173 -0.118365 1.447964
v -3.052173 -0.174846 1.426022
v -3.052173 -0.170427 1.586272
v -3.052173 -0.251662 1.508307
v -3.052173 -0.093687 1.503989
v -0.947830 -0.229967 1.450322
v -0.947830 -0.113872 1.560843
v -0.947830 -0.173933 1.425457
v -0.947830 -0.091841 1.503607
v -0.947830 -0.251998 1.507559
v -0.947830 -0.169907 1.585708
v -0.947830 -0.116719 1.447528
v -3.052173 -0.230071 1.451017
v -3.052173 -0.115240 1.561279
v -3.052173 -0.231760 1.562179
v -0.947830 -0.229824 1.561522
v -3.052173 -0.118365 2.442365
v -3.052173 -0.174846 2.420423
v -0.947830 -0.229967 2.445004
v -0.947830 -0.173933 2.420139
v -0.947830 -0.116719 2.442210
v -3.052173 -0.230071 2.445418
v -1.084543 -0.038423 4.023371
v -1.094835 -0.061091 4.022736
v -1.115944 -0.108293 4.050637
v -1.297246 -0.167860 4.063245
v -1.473873 -0.047973 4.019597
v -1.445188 -0.036941 4.024864
v -1.563021 -0.036782 4.049082
v -1.533962 -0.049591 4.043721
v -1.945314 -0.047973 4.043774
v -1.916611 -0.036925 4.049067
v -2.068370 -0.036782 4.121614
v -2.039311 -0.049591 4.116253
v -2.450664 -0.047973 4.116305
v -2.421961 -0.036925 4.121598
v -2.559510 -0.036775 4.068874
v -2.530442 -0.049591 4.063503
v -2.705933 -0.167053 4.099754
v -2.891175 -0.107803 4.094115
v -2.917943 -0.053186 4.071279
v -2.914175 -0.036581 4.068506
v -2.897652 0.166646 3.759408
v -1.429688 0.166641 3.715447
v -1.739664 0.229014 3.697939
v -2.503149 -0.004210 3.857713
v -1.972750 -0.004363 3.837986
v -1.052463 0.032304 3.818937
v -1.578235 0.166661 3.739618
v -2.705710 -0.150118 4.016376
v -1.298075 -0.150258 4.020807
v -2.736156 0.229019 3.717724
v -2.406482 0.166640 3.812165
v -1.268224 0.229015 3.673749
v -2.951906 0.032369 3.863238
v -2.012020 -0.004210 3.910467
v -1.501308 -0.004363 3.813808
v -2.574715 0.166662 3.759398
v -1.106463 0.166419 3.715495
v -2.245011 0.229008 3.770484
v -1.901129 0.166641 3.739625
v -1.117006 -0.089594 3.970891
v -2.478100 -0.004365 3.910521
v -1.506669 -0.004210 3.837932
v -2.890117 -0.087690 3.972488
v -2.083585 0.166658 3.812158
v -3.052173 -0.118365 3.552036
v -3.052173 -0.174846 3.573978
v -3.052173 -0.170427 3.413728
v -3.052173 -0.251662 3.491693
v -3.052173 -0.093687 3.496011
v -0.947830 -0.229967 3.549678
v -0.947830 -0.113872 3.439157
v -0.947830 -0.173933 3.574543
v -0.947830 -0.091841 3.496393
v -0.947830 -0.251998 3.492441
v -0.947830 -0.169907 3.414292
v -0.947830 -0.116719 3.552472
v -3.052173 -0.230071 3.548983
v -3.052173 -0.115240 3.438721
v -3.052173 -0.231760 3.437821
v -0.947830 -0.229824 3.438478
v -3.052173 -0.118365 2.557635
v -3.052173 -0.174846 2.579577
v -1.429289 0.180220 2.500000
v -3.052173 -0.251662 2.500000
v -3.052173 -0.093687 2.500000
v -0.947830 -0.229967 2.554996
v -1.508139 0.004011 2.500000
v -0.947830 -0.173933 2.579861
v -0.947830 -0.091841 2.500000
v -0.947830 -0.251998 2.500000
v -1.900731 0.180221 2.500000
v -0.947830 -0.116719 2.557790
v -3.052173 -0.230071 2.554582
v -1.579002 0.180527 2.500000
v -1.739661 0.244948 2.500000
v -1.972101 0.002377 2.500000
v -1.052292 0.040860 2.500000
v -1.298820 -0.153206 2.500000
v -1.500659 0.002377 2.500000
v -1.107660 0.180650 2.500000
v -1.115907 -0.088947 2.500000
v -1.268214 0.244950 2.500000
v -2.406400 0.179974 2.500000
v -2.013489 0.004011 2.500000
v -2.478254 0.001049 2.500000
v -2.084352 0.180527 2.500000
v -2.245005 0.244946 2.500000
v -2.896524 0.180810 2.500000
v -2.504619 0.004011 2.500000
v -2.705255 -0.153138 2.500000
v -2.952122 0.040973 2.500000
v -2.575482 0.180527 2.500000
v -2.889763 -0.088053 2.500000
v -2.736160 0.244953 2.500000
vt 0.694041 0.599120
vt 0.744501 0.566584
vt 0.747854 0.595539
vt 0.749873 0.609486
vt 0.710829 0.602723
vt 0.750000 0.500000
vt 0.750000 0.524746
vt 0.625000 0.524746
vt 0.625000 0.500000
vt 0.500000 0.524746
vt 0.500000 0.500000
vt 0.711451 0.530029
vt 0.747454 0.517315
vt 0.747475 0.537717
vt 0.693558 0.535481
vt 0.693585 0.596919
vt 0.744539 0.567394
vt 0.747498 0.596009
vt 0.747476 0.615786
vt 0.711406 0.602522
vt 0.712034 0.529068
vt 0.748224 0.517156
vt 0.747942 0.538253
vt 0.694058 0.534541
vt 0.693585 0.596919
vt 0.744538 0.567395
vt 0.747498 0.596009
vt 0.747476 0.615786
vt 0.711406 0.602522
vt 0.712034 0.529068
vt 0.748224 0.517155
vt 0.747942 0.538253
vt 0.694059 0.534540
vt 0.693189 0.595809
vt 0.744473 0.567624
vt 0.747114 0.596016
vt 0.746871 0.615257
vt 0.710948 0.601397
vt 0.500000 0.500000
vt 0.500000 0.524746
vt 0.375000 0.524746
vt 0.375000 0.500000
vt 0.250000 0.524746
vt 0.250000 0.500000
vt 0.711551 0.530921
vt 0.748976 0.523327
vt 0.748202 0.538281
vt 0.694416 0.533275
vt 0.735655 0.825272
vt 0.742591 0.825272
vt 0.742591 0.987084
vt 0.735655 0.987343
vt 0.694033 0.825272
vt 0.700970 0.825272
vt 0.700970 0.987946
vt 0.694033 0.987343
vt 0.728718 0.825272
vt 0.728718 0.987946
vt 0.707907 0.825272
vt 0.707907 0.988518
vt 0.687096 0.825272
vt 0.687096 0.987084
vt 0.714844 0.825272
vt 0.714844 0.988746
vt 0.721781 0.988346
vt 0.721781 0.825272
vt 0.516571 0.933090
vt 0.543318 0.910413
vt 0.543365 0.558714
vt 0.517439 0.559090
vt 0.694033 0.825272
vt 0.700970 0.825272
vt 0.700970 0.987946
vt 0.694033 0.987343
vt 0.515012 0.968560
vt 0.520342 0.957270
vt 0.519937 0.553096
vt 0.515012 0.553056
vt 0.707907 0.825272
vt 0.707907 0.988518
vt 0.687096 0.825272
vt 0.687096 0.987084
vt 0.714844 0.825272
vt 0.714844 0.988746
vt 0.566155 0.900801
vt 0.566174 0.558556
vt 0.541705 0.910408
vt 0.541632 0.558708
vt 0.515613 0.933090
vt 0.514540 0.559081
vt 0.543616 0.900112
vt 0.517665 0.923206
vt 0.514358 0.554718
vt 0.541446 0.553917
vt 0.549895 0.899366
vt 0.568007 0.890118
vt 0.565987 0.553379
vt 0.547771 0.553158
vt 0.536902 0.922814
vt 0.533644 0.553128
vt 0.539000 0.920216
vt 0.512903 0.942881
vt 0.511616 0.552412
vt 0.538875 0.552053
vt 0.540615 0.920221
vt 0.563452 0.910617
vt 0.563472 0.551908
vt 0.540662 0.552059
vt 0.513873 0.942881
vt 0.514737 0.552418
vt 0.518386 0.957627
vt 0.513582 0.967555
vt 0.513582 0.553056
vt 0.518254 0.553090
vt 0.533428 0.932856
vt 0.532138 0.553115
vt 0.548326 0.909315
vt 0.546247 0.553140
vt 0.542096 0.910036
vt 0.566486 0.900069
vt 0.564497 0.553349
vt 0.540024 0.553864
vt 0.516155 0.933090
vt 0.513136 0.554629
vt 0.694041 0.599120
vt 0.747854 0.595539
vt 0.744501 0.566584
vt 0.710829 0.602723
vt 0.749873 0.609486
vt 0.750000 0.500000
vt 0.625000 0.500000
vt 0.625000 0.524746
vt 0.750000 0.524746
vt 0.500000 0.500000
vt 0.500000 0.524746
vt 0.711451 0.530029
vt 0.693558 0.535481
vt 0.747475 0.537717
vt 0.747454 0.517315
vt 0.693585 0.596919
vt 0.747498 0.596009
vt 0.744539 0.567394
vt 0.711406 0.602522
vt 0.747476 0.615786
vt 0.712034 0.529068
vt 0.694058 0.534541
vt 0.747942 0.538253
vt 0.748224 0.517156
vt 0.693585 0.596919
vt 0.747498 0.596009
vt 0.744538 0.567395
vt 0.711406 0.602522
vt 0.747476 0.615786
vt 0.712034 0.529068
vt 0.694059 0.534540
vt 0.747942 0.538253
vt 0.748224 0.517155
vt 0.693189 0.595809
vt 0.747114 0.596016
vt 0.744473 0.567624
vt 0.710948 0.601397
vt 0.746871 0.615257
vt 0.500000 0.500000
vt 0.375000 0.500000
vt 0.375000 0.524746
vt 0.500000 0.524746
vt 0.250000 0.500000
vt 0.250000 0.524746
vt 0.711551 0.530921
vt 0.694416 0.533275
vt 0.748202 0.538281
vt 0.748976 0.523327
vt 0.735655 0.825272
vt 0.735655 0.987343
vt 0.742591 0.987084
vt 0.742591 0.825272
vt 0.694033 0.825272
vt 0.694033 0.987343
vt 0.700970 0.987946
vt 0.700970 0.825272
vt 0.728718 0.825272
vt 0.728718 0.987946
vt 0.707907 0.988518
vt 0.707907 0.825272
vt 0.687096 0.825272
vt 0.687096 0.987084
vt 0.714844 0.988746
vt 0.714844 0.825272
vt 0.721781 0.988346
vt 0.721781 0.825272
vt 0.516571 0.933090
vt 0.543318 0.910413
vt 0.694033 0.825272
vt 0.694033 0.987343
vt 0.700970 0.987946
vt 0.700970 0.825272
vt 0.515012 0.968560
vt 0.520342 0.957270
vt 0.707907 0.988518
vt 0.707907 0.825272
vt 0.566155 0.900801
vt 0.541705 0.910408
vt 0.515613 0.933090
vt 0.543616 0.900112
vt 0.517665 0.923206
vt 0.549895 0.899366
vt 0.568007 0.890118
vt 0.536902 0.922814
vt 0.539000 0.920216
vt 0.512903 0.942881
vt 0.540615 0.920221
vt 0.563452 0.910617
vt 0.513873 0.942881
vt 0.518386 0.957627
vt 0.513582 0.967555
vt 0.533428 0.932856
vt 0.548326 0.909315
vt 0.542096 0.910036
vt 0.566486 0.900069
vt 0.516155 0.933090
vn 0.5822 0.6643 -0.4687
vn 0.0008 0.8250 -0.5651
vn 0.3092 0.7970 -0.5189
vn 0.9919 0.0290 -0.1238
vn 0.9661 -0.2559 -0.0356
vn 0.6350 -0.7668 0.0938
vn 0.4928 -0.8404 0.2258
vn 0.2886 -0.9429 0.1665
vn 0.2588 -0.9248 0.2788
vn -0.7666 0.5718 -0.2921
vn -0.3195 0.8034 -0.5024
vn -0.4573 0.7500 -0.4778
vn 0.4629 0.7477 -0.4760
vn -0.0001 0.8261 -0.5635
vn 0.3202 0.8031 -0.5025
vn 0.7683 0.5691 -0.2928
vn -0.3195 0.8035 -0.5023
vn -0.4591 0.7498 -0.4765
vn 0.4631 0.7477 -0.4759
vn 0.0001 0.8263 -0.5633
vn -0.2871 -0.9423 0.1721
vn -0.3050 -0.9471 0.0995
vn -0.6463 -0.7601 0.0668
vn -0.5533 -0.8208 0.1421
vn -0.9868 0.0766 -0.1424
vn -0.9779 -0.2002 -0.0605
vn -0.2960 0.8040 -0.5157
vn -0.5357 0.7015 -0.4701
vn -0.0003 0.7273 0.6863
vn -0.0008 0.9997 -0.0263
vn -0.0003 0.7271 0.6865
vn -0.0007 0.6904 -0.7234
vn -0.0003 -0.0259 -0.9997
vn -0.0003 -0.0261 -0.9997
vn -0.0007 0.6903 -0.7236
vn 0.0003 0.0213 0.9998
vn 0.0003 0.0212 0.9998
vn -0.0002 -0.7271 -0.6866
vn -0.0002 -0.7271 -0.6865
vn 0.0002 -1.0000 0.0040
vn 0.0002 -1.0000 0.0041
vn 0.0005 -0.7096 0.7046
vn 0.0005 -0.7095 0.7047
vn 0.9250 0.3799 -0.0025
vn 0.7643 0.6448 -0.0064
vn 0.6999 0.7142 -0.0000
vn 0.9250 0.3799 -0.0000
vn -0.0006 0.6943 -0.7197
vn -0.0002 -0.0259 -0.9997
vn -0.0002 -0.0261 -0.9997
vn -0.0006 0.6941 -0.7199
vn 0.6558 -0.7550 -0.0000
vn 0.3247 -0.9458 -0.0000
vn -0.0001 -0.7219 -0.6920
vn -0.0001 -0.7220 -0.6919
vn -0.0008 1.0000 0.0000
vn -0.0001 -1.0000 0.0000
vn -0.0002 0.9999 -0.0121
vn -0.0002 1.0000 -0.0000
vn -0.7644 0.6447 -0.0065
vn -0.7001 0.7140 0.0000
vn -0.9250 0.3799 -0.0026
vn -0.9250 0.3799 -0.0000
vn 1.0000 -0.0000 0.0000
vn -1.0000 -0.0000 0.0000
vn -0.7644 0.6447 -0.0066
vn -0.9250 0.3799 -0.0027
vn -0.7001 0.7141 -0.0000
vn 0.7760 0.6307 -0.0067
vn -0.0002 0.9999 -0.0124
vn 0.7029 0.7113 -0.0000
vn 0.9991 -0.0436 0.0000
vn -0.7643 0.6448 -0.0062
vn -0.9250 0.3800 -0.0026
vn -0.9250 0.3800 0.0000
vn -0.7004 0.7138 0.0000
vn 0.7643 0.6448 -0.0060
vn -0.0004 0.9999 -0.0114
vn -0.0004 1.0000 -0.0000
vn 0.7000 0.7141 -0.0000
vn 0.9250 0.3799 -0.0023
vn -0.3268 -0.9451 -0.0000
vn -0.6596 -0.7516 0.0000
vn -0.9993 -0.0387 -0.0000
vn -0.7754 0.6315 -0.0065
vn -0.7024 0.7118 0.0000
vn 0.7643 0.6448 -0.0063
vn 0.0002 0.9999 -0.0119
vn 0.0002 1.0000 0.0000
vn 0.9250 0.3799 -0.0024
vn 0.5822 0.6643 0.4687
vn 0.3092 0.7970 0.5189
vn 0.0008 0.8250 0.5651
vn 0.9661 -0.2559 0.0356
vn 0.9919 0.0290 0.1238
vn 0.4928 -0.8403 -0.2258
vn 0.6350 -0.7668 -0.0938
vn 0.2588 -0.9248 -0.2788
vn 0.2886 -0.9429 -0.1665
vn -0.7666 0.5718 0.2921
vn -0.4573 0.7500 0.4778
vn -0.3195 0.8034 0.5024
vn 0.4629 0.7477 0.4760
vn 0.3202 0.8031 0.5025
vn -0.0001 0.8261 0.5635
vn 0.7683 0.5691 0.2928
vn -0.4591 0.7498 0.4765
vn -0.3195 0.8035 0.5023
vn 0.4631 0.7477 0.4759
vn 0.0001 0.8263 0.5633
vn -0.2871 -0.9423 -0.1721
vn -0.5533 -0.8208 -0.1421
vn -0.6463 -0.7601 -0.0668
vn -0.3050 -0.9471 -0.0995
vn -0.9779 -0.2002 0.0605
vn -0.9868 0.0766 0.1424
vn -0.5357 0.7015 0.4701
vn -0.2960 0.8040 0.5157
vn -0.0003 0.7273 -0.6863
vn -0.0003 0.7271 -0.6865
vn -0.0008 0.9997 0.0263
vn -0.0007 0.6904 0.7234
vn -0.0007 0.6903 0.7236
vn -0.0003 -0.0261 0.9997
vn -0.0003 -0.0259 0.9997
vn 0.0003 0.0213 -0.9998
vn 0.0003 0.0212 -0.9998
vn -0.0002 -0.7271 0.6865
vn -0.0002 -0.7271 0.6866
vn 0.0002 -1.0000 -0.0041
vn 0.0002 -1.0000 -0.0040
vn 0.0005 -0.7096 -0.7046
vn 0.0005 -0.7095 -0.7047
vn 0.9250 0.3799 0.0025
vn 0.7643 0.6448 0.0064
vn -0.0006 0.6943 0.7197
vn -0.0006 0.6941 0.7199
vn -0.0002 -0.0261 0.9997
vn -0.0002 -0.0259 0.9997
vn -0.0001 -0.7220 0.6919
vn -0.0001 -0.7219 0.6920
vn -0.0002 0.9999 0.0121
vn -0.7644 0.6447 0.0065
vn -0.9250 0.3799 0.0026
vn -0.7644 0.6447 0.0066
vn -0.9250 0.3799 0.0027
vn 0.7760 0.6307 0.0067
vn -0.0002 0.9999 0.0124
vn -0.7643 0.6448 0.0062
vn -0.9250 0.3800 0.0026
vn 0.7643 0.6448 0.0060
vn -0.0004 0.9999 0.0114
vn 0.9250 0.3799 0.0023
vn -0.7754 0.6315 0.0065
vn 0.7643 0.6448 0.0063
vn 0.0002 0.9999 0.0119
vn 0.9250 0.3799 0.0024
s 1
f 1/1/1 32/2/2 37/3/3
f 1/1/1 37/3/3 26/4/4 2/5/5
f 2/6/5 26/7/4 40/8/6 3/9/7
f 3/9/7 40/8/6 29/10/8 4/11/9
f 5/12/10 35/13/10 22/14/11 6/15/12
f 6/15/12 22/14/11 32/2/2
f 7/16/13 23/17/14 27/18/15
f 7/16/13 27/18/15 42/19/16 8/20/16
f 9/21/10 25/22/10 39/23/17 10/24/18
f 10/24/18 39/23/17 23/17/14
f 11/25/13 38/26/14 44/27/15
f 11/25/13 44/27/15 34/28/16 12/29/16
f 13/30/10 41/31/10 31/32/11 14/33/18
f 14/33/18 31/32/11 38/26/14
f 15/34/19 30/35/20 36/36/15
f 15/34/19 36/36/15 24/37/16 16/38/16
f 17/39/21 28/40/22 43/41/23 18/42/24
f 18/42/24 43/41/23 33/43/25 19/44/26
f 19/45/26 33/46/25 21/47/27 20/48/28
f 20/48/28 21/47/27 30/35/20
f 15/34/19 20/48/28 30/35/20
f 11/25/13 14/33/18 38/26/14
f 7/16/13 10/24/18 23/17/14
f 1/1/1 6/15/12 32/2/2
f 51/49/29 53/50/30 49/51/30 58/52/31
f 56/53/32 52/54/33 46/55/34 45/56/35
f 55/57/36 51/49/29 58/52/31 47/58/37
f 52/54/33 50/59/38 57/60/39 46/55/34
f 53/61/30 56/53/32 45/56/35 49/62/30
f 50/59/38 54/63/40 48/64/41 57/60/39
f 59/65/42 60/66/43 55/57/36 47/58/37
f 48/64/41 54/63/40 60/66/43 59/65/42
f 42/67/44 27/68/45 140/69/46 133/70/47
f 65/71/48 64/72/49 62/73/50 61/74/51
f 29/75/8 40/76/6 147/77/52 144/78/53
f 64/72/49 63/79/54 66/80/55 62/73/50
f 135/81/56 65/71/48 61/74/51 131/82/56
f 63/79/54 136/83/57 130/84/57 66/80/55
f 27/68/45 23/85/58 141/86/59 140/69/46
f 23/85/58 39/87/60 137/88/61 141/86/59
f 39/87/60 25/89/62 142/90/63 137/88/61
f 51/49/64 56/53/64 53/50/64
f 58/52/65 49/62/65 45/56/65
f 22/91/66 35/92/67 145/93/63 129/94/68
f 37/95/69 32/96/70 148/97/59 146/98/71
f 32/96/70 22/91/66 129/94/68 148/97/59
f 26/99/4 37/95/69 146/98/71 143/100/72
f 40/76/6 26/99/4 143/100/72 147/77/52
f 31/101/73 41/102/74 151/103/75 149/104/76
f 44/105/77 38/106/78 153/107/79 152/108/80
f 38/106/78 31/101/73 149/104/76 153/107/79
f 34/109/81 44/105/77 152/108/80 150/110/47
f 43/111/23 28/112/22 156/113/82 159/114/83
f 33/115/25 43/111/23 159/114/83 157/116/84
f 21/117/85 33/115/25 157/116/84 154/118/86
f 36/119/87 30/120/88 160/121/89 158/122/46
f 30/120/88 21/117/85 154/118/86 160/121/89
f 24/123/90 36/119/87 158/122/46 155/124/47
f 63/79/64 64/72/64 65/71/64
f 136/83/64 63/79/64 65/71/64 135/81/64
f 52/54/64 56/53/64 51/49/64 55/57/64
f 50/59/64 52/54/64 55/57/64 60/66/64
f 54/63/64 50/59/64 60/66/64
f 61/74/65 62/73/65 66/80/65
f 131/82/65 61/74/65 66/80/65 130/84/65
f 59/65/65 57/60/65 48/64/65
f 47/58/65 58/52/65 45/56/65 46/55/65 57/60/65 59/65/65
f 67/125/91 103/126/92 98/127/93
f 67/125/91 68/128/94 92/129/95 103/126/92
f 68/130/94 69/131/96 106/132/97 92/133/95
f 69/131/96 70/134/98 95/135/99 106/132/97
f 71/136/100 72/137/101 88/138/102 101/139/100
f 72/137/101 98/127/93 88/138/102
f 73/140/103 93/141/104 89/142/105
f 73/140/103 74/143/106 108/144/106 93/141/104
f 75/145/100 76/146/107 105/147/108 91/148/100
f 76/146/107 89/142/105 105/147/108
f 77/149/103 110/150/104 104/151/105
f 77/149/103 78/152/106 100/153/106 110/150/104
f 79/154/100 80/155/107 97/156/102 107/157/100
f 80/155/107 104/151/105 97/156/102
f 81/158/109 102/159/104 96/160/110
f 81/158/109 82/161/106 90/162/106 102/159/104
f 83/163/111 84/164/112 109/165/113 94/166/114
f 84/164/112 85/167/115 99/168/116 109/165/113
f 85/169/115 86/170/117 87/171/118 99/172/116
f 86/170/117 96/160/110 87/171/118
f 81/158/109 96/160/110 86/170/117
f 77/149/103 104/151/105 80/155/107
f 73/140/103 89/142/105 76/146/107
f 67/125/91 98/127/93 72/137/101
f 117/173/119 124/174/120 115/175/121 119/176/121
f 122/177/122 111/178/123 112/179/124 118/180/125
f 121/181/126 113/182/127 124/174/120 117/173/119
f 118/180/125 112/179/124 123/183/128 116/184/129
f 119/185/121 115/186/121 111/178/123 122/177/122
f 116/184/129 123/183/128 114/187/130 120/188/131
f 125/189/132 113/182/127 121/181/126 126/190/133
f 114/187/130 125/189/132 126/190/133 120/188/131
f 108/191/134 133/70/47 140/69/46 93/192/135
f 138/193/136 127/194/137 128/195/138 134/196/139
f 95/197/99 144/78/53 147/77/52 106/198/97
f 134/196/139 128/195/138 139/199/140 132/200/141
f 135/81/56 131/82/56 127/194/137 138/193/136
f 132/200/141 139/199/140 130/84/57 136/83/57
f 93/192/135 140/69/46 141/86/59 89/201/142
f 89/201/142 141/86/59 137/88/61 105/202/143
f 105/202/143 137/88/61 142/90/63 91/203/144
f 117/173/64 119/176/64 122/177/64
f 124/174/65 111/178/65 115/186/65
f 88/204/145 129/94/68 145/93/63 101/205/146
f 103/206/147 146/98/71 148/97/59 98/207/148
f 98/207/148 148/97/59 129/94/68 88/204/145
f 92/208/95 143/100/72 146/98/71 103/206/147
f 106/198/97 147/77/52 143/100/72 92/208/95
f 97/209/149 149/104/76 151/103/75 107/210/150
f 110/211/151 152/108/80 153/107/79 104/212/152
f 104/212/152 153/107/79 149/104/76 97/209/149
f 100/213/153 150/110/47 152/108/80 110/211/151
f 109/214/113 159/114/83 156/113/82 94/215/114
f 99/216/116 157/116/84 159/114/83 109/214/113
f 87/217/154 154/118/86 157/116/84 99/216/116
f 102/218/155 158/122/46 160/121/89 96/219/156
f 96/219/156 160/121/89 154/118/86 87/217/154
f 90/220/157 155/124/47 158/122/46 102/218/155
f 132/200/64 138/193/64 134/196/64
f 136/83/64 135/81/64 138/193/64 132/200/64
f 118/180/64 121/181/64 117/173/64 122/177/64
f 116/184/64 126/190/64 121/181/64 118/180/64
f 120/188/64 126/190/64 116/184/64
f 127/194/65 139/199/65 128/195/65
f 131/82/65 130/84/65 139/199/65 127/194/65
f 125/189/65 114/187/65 123/183/65
f 113/182/65 125/189/65 123/183/65 112/179/65 111/178/65 124/174/65
