# Blender v2.82 (sub 7) OBJ File: 'stoneBridge.blend'
# www.blender.org
o stoneBridgeD5_Cube.017
v -0.499999 -0.597921 5.762439
v -3.500001 -0.597922 5.762438
v -0.499999 -0.431379 5.372995
v -0.917472 0.113575 5.580278
v -0.499999 0.113575 5.580278
v -0.917472 0.033321 5.549752
v -3.500001 -0.431379 5.372995
v -3.082528 0.113575 5.580278
v -3.500001 0.113575 5.580278
v -3.082528 0.033322 5.549752
v -2.000000 0.033321 5.549752
v -0.499999 -0.293048 4.963807
v -0.917472 0.265979 5.129425
v -0.499999 0.265979 5.129425
v -0.917472 0.183653 5.105035
v -3.500001 -0.293048 4.963807
v -3.082528 0.265979 5.129425
v -3.500001 0.265979 5.129425
v -3.082528 0.183653 5.105035
v -2.000000 0.183653 5.105035
v -0.499999 -0.185367 4.543315
v -0.917472 0.384262 4.667667
v -0.499999 0.384262 4.667667
v -0.917472 0.300375 4.649354
v -3.500001 -0.185367 4.543315
v -3.082528 0.384263 4.667667
v -3.500001 0.384262 4.667667
v -3.082528 0.300375 4.649354
v -2.000000 0.300375 4.649354
v -0.499999 -0.108458 4.117136
v -0.917472 0.468821 4.198925
v -0.499999 0.468821 4.198925
v -0.917472 0.383807 4.186880
v -3.500001 -0.108458 4.117136
v -3.082528 0.468821 4.198925
v -3.500001 0.468821 4.198925
v -3.082528 0.383807 4.186880
v -2.000000 0.383808 4.186880
v -0.499999 -0.064236 3.689139
v -0.917472 0.517635 3.726115
v -0.499999 0.517635 3.726115
v -0.917472 0.431945 3.720669
v -3.500001 -0.064236 3.689139
v -3.082528 0.517635 3.726115
v -3.500001 0.517635 3.726115
v -3.082528 0.431945 3.720669
v -2.000000 0.431945 3.720669
v -0.499999 -0.054232 3.261714
v -0.917472 0.528730 3.251890
v -0.499999 0.528730 3.251890
v -0.917472 0.442879 3.253337
v -3.500000 -0.054231 3.261714
v -3.082527 0.528730 3.251890
v -3.500000 0.528730 3.251890
v -3.082527 0.442879 3.253337
v -2.000000 0.442879 3.253337
v -0.499999 -0.078008 2.827900
v -0.917472 0.502702 2.775785
v -0.499999 0.502702 2.775785
v -0.917472 0.417183 2.783460
v -3.500000 -0.078008 2.827900
v -3.082527 0.502702 2.775785
v -3.500000 0.502702 2.775785
v -3.082527 0.417183 2.783460
v -2.000000 0.417183 2.783460
v -0.499999 -0.131962 2.387597
v -0.917472 0.444356 2.299288
v -0.499999 0.444356 2.299288
v -0.917472 0.359483 2.312293
v -3.500001 -0.131962 2.387597
v -3.082527 0.444356 2.299288
v -3.500001 0.444355 2.299288
v -3.082528 0.359483 2.312293
v -2.000000 0.359483 2.312293
v -0.499999 -0.212741 1.946035
v -0.917472 0.357649 1.825220
v -0.499999 0.357648 1.825220
v -0.917472 0.273649 1.843012
v -3.500001 -0.212741 1.946035
v -3.082527 0.357648 1.825220
v -3.500000 0.357648 1.825220
v -3.082528 0.273649 1.843012
v -2.000000 0.273649 1.843012
v -0.499999 -0.318262 1.507910
v -0.917472 0.244666 1.356077
v -0.499999 0.244666 1.356077
v -0.917472 0.161766 1.378437
v -3.500001 -0.318262 1.507910
v -3.082528 0.244666 1.356077
v -3.500001 0.244666 1.356077
v -3.082528 0.161766 1.378437
v -2.000000 0.161766 1.378437
v -0.499999 -0.447076 1.078656
v -0.917472 0.106200 0.894737
v -0.499999 0.106200 0.894737
v -0.917472 0.024721 0.921822
v -3.500001 -0.447076 1.078657
v -3.082528 0.106200 0.894737
v -3.500000 0.106200 0.894737
v -3.082528 0.024721 0.921823
v -2.000000 0.024721 0.921822
v -0.499999 -0.598542 0.667497
v -3.500002 -0.598543 0.667496
v -0.499999 -0.434098 0.600003
v -0.499998 -0.629831 0.600003
v -0.917472 -0.093892 0.600003
v -2.000000 -0.093892 0.600002
v -3.082528 -0.093893 0.600002
v -3.500001 -0.002439 0.600002
v -3.082528 -0.002439 0.600002
v -3.500000 -0.629833 0.600002
v -3.500002 -0.434097 0.600002
v -0.499999 -0.002439 0.600003
v -0.917472 -0.002439 0.600003
v -0.499999 -0.375638 5.869312
v -0.499999 -0.656203 5.869312
v -0.917472 -0.103395 5.869312
v -2.000000 -0.103394 5.869311
v -3.082528 -0.103394 5.869311
v -3.082528 -0.010089 5.869311
v -3.500001 -0.010089 5.869311
v -3.500000 -0.375641 5.869310
v -3.500001 -0.656203 5.869311
v -0.499999 -0.010090 5.869312
v -0.917472 -0.010089 5.869312
vt 0.112980 0.029399
vt 0.112980 0.128660
vt 0.078961 0.029399
vt 0.112980 0.029399
vt 0.078961 0.029399
vt 0.112980 0.128659
vt 0.112980 0.029399
vt 0.112980 0.264047
vt 0.039185 0.264047
vt 0.001968 0.128660
vt 0.001968 0.029399
vt 0.112980 0.466615
vt 0.030118 0.466615
vt 0.039185 0.432060
vt 0.112980 0.432060
vt 0.112980 0.029399
vt 0.001968 0.029399
vt 0.001968 0.128659
vt 0.039185 0.264047
vt 0.112980 0.264047
vt 0.112980 0.466615
vt 0.112980 0.432060
vt 0.039185 0.432060
vt 0.030119 0.466615
vt 0.134783 0.008210
vt 0.233626 0.008210
vt 0.233626 0.478787
vt 0.134783 0.478787
vt 0.112980 0.029399
vt 0.112980 0.264047
vt 0.001968 0.264047
vt 0.001968 0.029399
vt 0.112980 0.466615
vt 0.001968 0.466615
vt 0.001968 0.432060
vt 0.112980 0.432060
vt 0.134783 0.008210
vt 0.233626 0.008210
vt 0.112980 0.029399
vt 0.001968 0.029399
vt 0.001968 0.264047
vt 0.112980 0.264047
vt 0.112980 0.466615
vt 0.112980 0.432060
vt 0.001968 0.432060
vt 0.001968 0.466615
vt 0.134783 0.008210
vt 0.233626 0.008210
vt 0.233626 0.478787
vt 0.134783 0.478787
vt 0.112980 0.029399
vt 0.112980 0.264047
vt 0.001968 0.264047
vt 0.001968 0.029399
vt 0.112980 0.466615
vt 0.001968 0.466615
vt 0.001968 0.432060
vt 0.112980 0.432060
vt 0.134783 0.008210
vt 0.233626 0.008210
vt 0.112980 0.029399
vt 0.001968 0.029399
vt 0.001968 0.264047
vt 0.112980 0.264047
vt 0.112980 0.466615
vt 0.112980 0.432060
vt 0.001968 0.432060
vt 0.001968 0.466615
vt 0.134783 0.008210
vt 0.233626 0.008210
vt 0.233626 0.478787
vt 0.134783 0.478787
vt 0.112980 0.029399
vt 0.112980 0.264047
vt 0.001968 0.264047
vt 0.001968 0.029399
vt 0.112980 0.466615
vt 0.001968 0.466615
vt 0.001968 0.432060
vt 0.112980 0.432060
vt 0.134783 0.008210
vt 0.233626 0.008210
vt 0.112980 0.029399
vt 0.001968 0.029399
vt 0.001968 0.264047
vt 0.112980 0.264047
vt 0.112980 0.466615
vt 0.112980 0.432060
vt 0.001968 0.432060
vt 0.001968 0.466615
vt 0.134783 0.008210
vt 0.233626 0.008210
vt 0.233626 0.478787
vt 0.134783 0.478787
vt 0.112980 0.029399
vt 0.112980 0.264047
vt 0.001968 0.264047
vt 0.001968 0.029399
vt 0.112980 0.466615
vt 0.001968 0.466615
vt 0.001968 0.432060
vt 0.112980 0.432060
vt 0.134783 0.008210
vt 0.233626 0.008210
vt 0.112980 0.029399
vt 0.001968 0.029399
vt 0.001968 0.264047
vt 0.112980 0.264047
vt 0.112980 0.466615
vt 0.112980 0.432060
vt 0.001968 0.432060
vt 0.001968 0.466615
vt 0.134783 0.008210
vt 0.233626 0.008210
vt 0.233626 0.478787
vt 0.134783 0.478787
vt 0.112980 0.029399
vt 0.112980 0.264047
vt 0.001968 0.264047
vt 0.001968 0.029399
vt 0.112980 0.466615
vt 0.001968 0.466615
vt 0.001968 0.432060
vt 0.112980 0.432060
vt 0.134783 0.008210
vt 0.233626 0.008210
vt 0.112980 0.029399
vt 0.001968 0.029399
vt 0.001968 0.264047
vt 0.112980 0.264047
vt 0.112980 0.466615
vt 0.112980 0.432060
vt 0.001968 0.432060
vt 0.001968 0.466615
vt 0.134783 0.008210
vt 0.233626 0.008210
vt 0.233626 0.478787
vt 0.134783 0.478787
vt 0.112980 0.029399
vt 0.112980 0.264047
vt 0.001968 0.264047
vt 0.001968 0.029399
vt 0.112980 0.466615
vt 0.001968 0.466615
vt 0.001968 0.432060
vt 0.112980 0.432060
vt 0.134783 0.008210
vt 0.233626 0.008210
vt 0.112980 0.029399
vt 0.001968 0.029399
vt 0.001968 0.264047
vt 0.112980 0.264047
vt 0.112980 0.466615
vt 0.112980 0.432060
vt 0.001968 0.432060
vt 0.001968 0.466615
vt 0.134783 0.008210
vt 0.233626 0.008210
vt 0.233626 0.478787
vt 0.134783 0.478787
vt 0.112980 0.029399
vt 0.112980 0.264047
vt 0.001968 0.264047
vt 0.001968 0.029399
vt 0.112980 0.466615
vt 0.001968 0.466615
vt 0.001968 0.432060
vt 0.112980 0.432060
vt 0.134783 0.008210
vt 0.233626 0.008210
vt 0.112980 0.029399
vt 0.001968 0.029399
vt 0.001968 0.264047
vt 0.112980 0.264047
vt 0.112980 0.466615
vt 0.112980 0.432060
vt 0.001968 0.432060
vt 0.001968 0.466615
vt 0.134783 0.008210
vt 0.233626 0.008210
vt 0.233626 0.478787
vt 0.134783 0.478787
vt 0.112980 0.029399
vt 0.112980 0.264047
vt 0.001968 0.264047
vt 0.001968 0.029399
vt 0.112980 0.466615
vt 0.001968 0.466615
vt 0.001968 0.432060
vt 0.112980 0.432060
vt 0.134783 0.008210
vt 0.233626 0.008210
vt 0.112980 0.029399
vt 0.001968 0.029399
vt 0.001968 0.264047
vt 0.112980 0.264047
vt 0.112980 0.466615
vt 0.112980 0.432060
vt 0.001968 0.432060
vt 0.001968 0.466615
vt 0.134783 0.008210
vt 0.233626 0.008210
vt 0.233626 0.478787
vt 0.134783 0.478787
vt 0.112980 0.029399
vt 0.112980 0.264047
vt 0.001968 0.264047
vt 0.001968 0.029399
vt 0.112980 0.466615
vt 0.001968 0.466615
vt 0.001968 0.432060
vt 0.112980 0.432060
vt 0.134783 0.008210
vt 0.233626 0.008210
vt 0.112980 0.029399
vt 0.001968 0.029399
vt 0.001968 0.264047
vt 0.112980 0.264047
vt 0.112980 0.466615
vt 0.112980 0.432060
vt 0.001968 0.432060
vt 0.001968 0.466615
vt 0.134783 0.008210
vt 0.233626 0.008210
vt 0.233626 0.478787
vt 0.134783 0.478787
vt 0.112980 0.029399
vt 0.112980 0.264047
vt 0.001968 0.264047
vt 0.001968 0.029399
vt 0.112980 0.466615
vt 0.001968 0.466615
vt 0.001968 0.432060
vt 0.112980 0.432060
vt 0.134783 0.008210
vt 0.233626 0.008210
vt 0.112980 0.029399
vt 0.001968 0.029399
vt 0.001968 0.264047
vt 0.112980 0.264047
vt 0.112980 0.466615
vt 0.112980 0.432060
vt 0.001968 0.432060
vt 0.001968 0.466615
vt 0.134783 0.008210
vt 0.206571 0.008210
vt 0.206571 0.478787
vt 0.134783 0.478787
vt 0.112980 0.029399
vt 0.112980 0.100938
vt 0.074900 0.264047
vt 0.001968 0.264047
vt 0.001968 0.029399
vt 0.074900 0.432060
vt 0.001968 0.432060
vt 0.134783 0.008210
vt 0.206571 0.008210
vt 0.112980 0.029399
vt 0.001968 0.029399
vt 0.001968 0.264047
vt 0.074901 0.264047
vt 0.112980 0.100938
vt 0.001968 0.432060
vt 0.074901 0.432060
vt 0.082594 0.466615
vt 0.001968 0.466615
vt 0.022094 0.029399
vt 0.001968 0.100938
vt 0.001968 0.029399
vt 0.001968 0.100938
vt 0.022082 0.029399
vt 0.001968 0.029399
vt 0.159848 0.008210
vt 0.159848 0.478787
vt 0.233626 0.478787
vt 0.233626 0.008210
vt 0.082594 0.466615
vt 0.001968 0.466615
vt 0.159847 0.008210
vt 0.233626 0.008210
vn 1.0000 -0.0000 0.0000
vn -1.0000 0.0000 -0.0000
vn -0.0000 0.9341 0.3571
vn -0.0000 0.9587 0.2844
vn 0.0000 0.9771 0.2130
vn 0.0000 0.9901 0.1402
vn 0.0000 0.9980 0.0631
vn 0.0000 0.9999 -0.0156
vn 0.0000 0.9961 -0.0881
vn 0.0000 0.9886 -0.1508
vn -0.0000 0.9783 -0.2071
vn -0.0000 0.9654 -0.2609
vn 0.0000 0.9485 -0.3168
vn 0.0000 0.9383 -0.3458
vn 0.0000 0.9383 -0.3459
vn 0.0000 0.9194 0.3933
vn 0.0000 0.9194 0.3934
s 1
f 1/1/1 115/2/1 116/3/1
f 2/4/2 123/5/2 122/6/2
f 3/7/1 5/8/1 124/9/1 115/10/1 1/11/1
f 6/12/2 117/13/2 125/14/2 4/15/2
f 7/16/2 2/17/2 122/18/2 121/19/2 9/20/2
f 10/21/1 8/22/1 120/23/1 119/24/1
f 6/25/3 15/26/4 20/27/4 11/28/3
f 12/29/1 14/30/1 5/31/1 3/32/1
f 15/33/2 6/34/2 4/35/2 13/36/2
f 5/31/3 14/30/4 13/36/4 4/35/3
f 10/37/3 11/28/3 20/27/4 19/38/4
f 16/39/2 7/40/2 9/41/2 18/42/2
f 19/43/1 17/44/1 8/45/1 10/46/1
f 9/41/3 8/45/3 17/44/4 18/42/4
f 15/47/4 24/48/5 29/49/5 20/50/4
f 21/51/1 23/52/1 14/53/1 12/54/1
f 24/55/2 15/56/2 13/57/2 22/58/2
f 14/53/4 23/52/5 22/58/5 13/57/4
f 19/59/4 20/50/4 29/49/5 28/60/5
f 25/61/2 16/62/2 18/63/2 27/64/2
f 28/65/1 26/66/1 17/67/1 19/68/1
f 18/63/4 17/67/4 26/66/5 27/64/5
f 24/69/5 33/70/6 38/71/6 29/72/5
f 30/73/1 32/74/1 23/75/1 21/76/1
f 33/77/2 24/78/2 22/79/2 31/80/2
f 23/75/5 32/74/6 31/80/6 22/79/5
f 28/81/5 29/72/5 38/71/6 37/82/6
f 34/83/2 25/84/2 27/85/2 36/86/2
f 37/87/1 35/88/1 26/89/1 28/90/1
f 27/85/5 26/89/5 35/88/6 36/86/6
f 33/91/6 42/92/7 47/93/7 38/94/6
f 39/95/1 41/96/1 32/97/1 30/98/1
f 42/99/2 33/100/2 31/101/2 40/102/2
f 32/97/6 41/96/7 40/102/7 31/101/6
f 37/103/6 38/94/6 47/93/7 46/104/7
f 43/105/2 34/106/2 36/107/2 45/108/2
f 46/109/1 44/110/1 35/111/1 37/112/1
f 36/107/6 35/111/6 44/110/7 45/108/7
f 42/113/7 51/114/8 56/115/8 47/116/7
f 48/117/1 50/118/1 41/119/1 39/120/1
f 51/121/2 42/122/2 40/123/2 49/124/2
f 41/119/7 50/118/8 49/124/8 40/123/7
f 46/125/7 47/116/7 56/115/8 55/126/8
f 52/127/2 43/128/2 45/129/2 54/130/2
f 55/131/1 53/132/1 44/133/1 46/134/1
f 45/129/7 44/133/7 53/132/8 54/130/8
f 51/135/8 60/136/9 65/137/9 56/138/8
f 57/139/1 59/140/1 50/141/1 48/142/1
f 60/143/2 51/144/2 49/145/2 58/146/2
f 50/141/8 59/140/9 58/146/9 49/145/8
f 55/147/8 56/138/8 65/137/9 64/148/9
f 61/149/2 52/150/2 54/151/2 63/152/2
f 64/153/1 62/154/1 53/155/1 55/156/1
f 54/151/8 53/155/8 62/154/9 63/152/9
f 60/157/9 69/158/10 74/159/10 65/160/9
f 66/161/1 68/162/1 59/163/1 57/164/1
f 69/165/2 60/166/2 58/167/2 67/168/2
f 59/163/9 68/162/10 67/168/10 58/167/9
f 64/169/9 65/160/9 74/159/10 73/170/10
f 70/171/2 61/172/2 63/173/2 72/174/2
f 73/175/1 71/176/1 62/177/1 64/178/1
f 63/173/9 62/177/9 71/176/10 72/174/10
f 69/179/10 78/180/11 83/181/11 74/182/10
f 75/183/1 77/184/1 68/185/1 66/186/1
f 78/187/2 69/188/2 67/189/2 76/190/2
f 68/185/10 77/184/11 76/190/11 67/189/10
f 73/191/10 74/182/10 83/181/11 82/192/11
f 79/193/2 70/194/2 72/195/2 81/196/2
f 82/197/1 80/198/1 71/199/1 73/200/1
f 72/195/10 71/199/10 80/198/11 81/196/11
f 78/201/11 87/202/12 92/203/12 83/204/11
f 84/205/1 86/206/1 77/207/1 75/208/1
f 87/209/2 78/210/2 76/211/2 85/212/2
f 77/207/11 86/206/12 85/212/12 76/211/11
f 82/213/11 83/204/11 92/203/12 91/214/12
f 88/215/2 79/216/2 81/217/2 90/218/2
f 91/219/1 89/220/1 80/221/1 82/222/1
f 81/217/11 80/221/11 89/220/12 90/218/12
f 87/223/12 96/224/13 101/225/13 92/226/12
f 93/227/1 95/228/1 86/229/1 84/230/1
f 96/231/2 87/232/2 85/233/2 94/234/2
f 86/229/12 95/228/13 94/234/13 85/233/12
f 91/235/12 92/226/12 101/225/13 100/236/13
f 97/237/2 88/238/2 90/239/2 99/240/2
f 100/241/1 98/242/1 89/243/1 91/244/1
f 90/239/12 89/243/12 98/242/13 99/240/13
f 96/245/13 106/246/14 107/247/14 101/248/13
f 102/249/1 104/250/1 113/251/1 95/252/1 93/253/1
f 95/252/13 113/251/15 114/254/15 94/255/13
f 100/256/13 101/248/13 107/247/14 108/257/14
f 103/258/2 97/259/2 99/260/2 109/261/2 112/262/2
f 99/260/13 98/263/13 110/264/15 109/261/15
f 108/265/1 110/264/1 98/263/1 100/266/1
f 105/267/1 104/268/1 102/269/1
f 112/270/2 111/271/2 103/272/2
f 119/273/16 118/274/16 11/275/3 10/276/3
f 121/19/17 120/23/17 8/22/3 9/20/3
f 114/254/2 106/277/2 96/278/2 94/255/2
f 118/274/16 117/279/16 6/280/3 11/275/3
f 125/14/17 124/9/17 5/8/3 4/15/3
