# Blender v2.82 (sub 7) OBJ File: 'stoneBridge.blend'
# www.blender.org
o stoneBridgeD4_Cube.016
v -0.499999 -0.553164 4.952819
v -0.917472 -0.112384 5.182825
v -3.500001 -0.553163 4.952819
v -3.082528 -0.112384 5.182825
v -2.000000 -0.112384 5.182825
v -0.499999 -0.378565 4.575553
v -0.917472 0.161239 4.795900
v -0.499999 0.161239 4.795900
v -0.917472 0.081744 4.763450
v -3.500001 -0.378565 4.575553
v -3.082528 0.161239 4.795900
v -3.500001 0.161239 4.795900
v -3.082528 0.081744 4.763450
v -2.000000 0.081744 4.763450
v -0.499999 -0.238345 4.182095
v -0.917472 0.319282 4.352367
v -0.499999 0.319282 4.352367
v -0.917472 0.237162 4.327292
v -3.500001 -0.238345 4.182095
v -3.082528 0.319282 4.352367
v -3.500001 0.319282 4.352367
v -3.082528 0.237162 4.327292
v -2.000000 0.237162 4.327292
v -0.499999 -0.135849 3.780146
v -0.917472 0.435343 3.897106
v -0.499999 0.435343 3.897106
v -0.917472 0.351226 3.879882
v -3.500000 -0.135849 3.780146
v -3.082528 0.435343 3.897106
v -3.500001 0.435343 3.897106
v -3.082528 0.351225 3.879882
v -2.000000 0.351226 3.879882
v -0.499999 -0.073272 3.375461
v -0.917472 0.506760 3.434654
v -0.499999 0.506760 3.434654
v -0.917472 0.421341 3.425937
v -3.500001 -0.073272 3.375461
v -3.082528 0.506760 3.434654
v -3.500001 0.506760 3.434654
v -3.082528 0.421341 3.425937
v -2.000000 0.421341 3.425937
v -0.499999 -0.053720 2.972182
v -0.917472 0.529317 2.969312
v -0.499999 0.529317 2.969312
v -0.917472 0.443455 2.969735
v -3.500001 -0.053720 2.972182
v -3.082528 0.529317 2.969312
v -3.500000 0.529317 2.969312
v -3.082528 0.443455 2.969735
v -2.000000 0.443455 2.969735
v -0.499999 -0.076946 2.560923
v -0.917472 0.503038 2.501261
v -0.499999 0.503038 2.501261
v -0.917472 0.417626 2.510047
v -3.500001 -0.076946 2.560923
v -3.082528 0.503038 2.501261
v -3.500002 0.503038 2.501261
v -3.082528 0.417626 2.510047
v -2.000000 0.417626 2.510047
v -0.499999 -0.138510 2.138574
v -0.917472 0.434733 2.032119
v -0.499999 0.434733 2.032119
v -0.917472 0.350314 2.047796
v -3.500000 -0.138510 2.138574
v -3.082527 0.434733 2.032119
v -3.500000 0.434733 2.032119
v -3.082527 0.350314 2.047796
v -2.000000 0.350314 2.047796
v -0.499999 -0.233622 1.713491
v -0.917472 0.330567 1.566416
v -0.499999 0.330567 1.566416
v -0.917472 0.247481 1.588076
v -3.500001 -0.233623 1.713491
v -3.082528 0.330567 1.566416
v -3.500001 0.330567 1.566416
v -3.082528 0.247481 1.588076
v -2.000000 0.247481 1.588076
v -0.499999 -0.358577 1.292928
v -0.917472 0.194330 1.107900
v -0.499999 0.194330 1.107900
v -0.917472 0.112905 1.135148
v -3.500001 -0.358577 1.292928
v -3.082528 0.194330 1.107900
v -3.500001 0.194330 1.107900
v -3.082528 0.112905 1.135149
v -2.000000 0.112905 1.135149
v -0.499999 -0.510894 0.885413
v -0.917472 0.027267 0.661085
v -0.499999 0.027267 0.661085
v -0.917472 -0.051986 0.694121
v -3.500001 -0.510894 0.885414
v -3.082528 0.027267 0.661085
v -3.500001 0.027267 0.661085
v -3.082528 -0.051986 0.694121
v -2.000000 -0.051986 0.694121
v -0.499998 -0.644154 0.600004
v -2.000000 -0.095972 0.600003
v -0.917472 -0.095972 0.600003
v -3.082528 -0.095973 0.600002
v -3.500001 -0.001285 0.600002
v -3.082528 -0.001284 0.600002
v -3.500001 -0.644157 0.600002
v -0.917472 -0.001283 0.600003
v -0.499999 -0.001283 0.600004
v -0.499999 -0.694791 5.192875
v -0.917472 -0.118320 5.192875
v -0.917472 -0.093125 5.192875
v -2.000000 -0.118320 5.192874
v -3.082528 -0.118319 5.192873
v -3.082528 -0.022525 5.192873
v -3.082528 -0.093127 5.192873
v -3.500000 -0.022525 5.192873
v -3.500001 -0.093128 5.192873
v -3.500001 -0.694790 5.192873
v -0.499999 -0.022526 5.192875
v -0.499999 -0.093124 5.192875
v -0.917472 -0.022526 5.192875
vt 0.112980 0.029399
vt 0.112980 0.238234
vt 0.035282 0.029399
vt 0.112980 0.466615
vt 0.110127 0.466615
vt 0.112980 0.457873
vt 0.112980 0.029399
vt 0.035283 0.029399
vt 0.112980 0.238232
vt 0.112980 0.466615
vt 0.112980 0.457874
vt 0.110128 0.466615
vt 0.134783 0.008210
vt 0.233626 0.008210
vt 0.233626 0.478787
vt 0.134783 0.478787
vt 0.112980 0.029399
vt 0.112980 0.264047
vt 0.009689 0.264047
vt 0.001968 0.238234
vt 0.001968 0.029399
vt 0.112980 0.466615
vt 0.001968 0.466615
vt 0.001968 0.457873
vt 0.009689 0.432060
vt 0.112980 0.432060
vt 0.134783 0.008210
vt 0.233626 0.008210
vt 0.112980 0.029399
vt 0.001968 0.029399
vt 0.001968 0.238232
vt 0.009689 0.264047
vt 0.112980 0.264047
vt 0.112980 0.466615
vt 0.112980 0.432060
vt 0.009689 0.432060
vt 0.001968 0.457874
vt 0.001968 0.466615
vt 0.134783 0.008210
vt 0.233626 0.008210
vt 0.233626 0.478787
vt 0.134783 0.478787
vt 0.112980 0.029399
vt 0.112980 0.264047
vt 0.001968 0.264047
vt 0.001968 0.029399
vt 0.112980 0.466615
vt 0.001968 0.466615
vt 0.001968 0.432060
vt 0.112980 0.432060
vt 0.134783 0.008210
vt 0.233626 0.008210
vt 0.112980 0.029399
vt 0.001968 0.029399
vt 0.001968 0.264047
vt 0.112980 0.264047
vt 0.112980 0.466615
vt 0.112980 0.432060
vt 0.001968 0.432060
vt 0.001968 0.466615
vt 0.134783 0.008210
vt 0.233626 0.008210
vt 0.233626 0.478787
vt 0.134783 0.478787
vt 0.112980 0.029399
vt 0.112980 0.264047
vt 0.001968 0.264047
vt 0.001968 0.029399
vt 0.112980 0.466615
vt 0.001968 0.466615
vt 0.001968 0.432060
vt 0.112980 0.432060
vt 0.134783 0.008210
vt 0.233626 0.008210
vt 0.112980 0.029399
vt 0.001968 0.029399
vt 0.001968 0.264047
vt 0.112980 0.264047
vt 0.112980 0.466615
vt 0.112980 0.432060
vt 0.001968 0.432060
vt 0.001968 0.466615
vt 0.134783 0.008210
vt 0.233626 0.008210
vt 0.233626 0.478787
vt 0.134783 0.478787
vt 0.112980 0.029399
vt 0.112980 0.264047
vt 0.001968 0.264047
vt 0.001968 0.029399
vt 0.112980 0.466615
vt 0.001968 0.466615
vt 0.001968 0.432060
vt 0.112980 0.432060
vt 0.134783 0.008210
vt 0.233626 0.008210
vt 0.112980 0.029399
vt 0.001968 0.029399
vt 0.001968 0.264047
vt 0.112980 0.264047
vt 0.112980 0.466615
vt 0.112980 0.432060
vt 0.001968 0.432060
vt 0.001968 0.466615
vt 0.134783 0.008210
vt 0.233626 0.008210
vt 0.233626 0.478787
vt 0.134783 0.478787
vt 0.112980 0.029399
vt 0.112980 0.264047
vt 0.001968 0.264047
vt 0.001968 0.029399
vt 0.112980 0.466615
vt 0.001968 0.466615
vt 0.001968 0.432060
vt 0.112980 0.432060
vt 0.134783 0.008210
vt 0.233626 0.008210
vt 0.112980 0.029399
vt 0.001968 0.029399
vt 0.001968 0.264047
vt 0.112980 0.264047
vt 0.112980 0.466615
vt 0.112980 0.432060
vt 0.001968 0.432060
vt 0.001968 0.466615
vt 0.134783 0.008210
vt 0.233626 0.008210
vt 0.233626 0.478787
vt 0.134783 0.478787
vt 0.112980 0.029399
vt 0.112980 0.264047
vt 0.001968 0.264047
vt 0.001968 0.029399
vt 0.112980 0.466615
vt 0.001968 0.466615
vt 0.001968 0.432060
vt 0.112980 0.432060
vt 0.134783 0.008210
vt 0.233626 0.008210
vt 0.112980 0.029399
vt 0.001968 0.029399
vt 0.001968 0.264047
vt 0.112980 0.264047
vt 0.112980 0.466615
vt 0.112980 0.432060
vt 0.001968 0.432060
vt 0.001968 0.466615
vt 0.134783 0.008210
vt 0.233626 0.008210
vt 0.233626 0.478787
vt 0.134783 0.478787
vt 0.112980 0.029399
vt 0.112980 0.264047
vt 0.001968 0.264047
vt 0.001968 0.029399
vt 0.112980 0.466615
vt 0.001968 0.466615
vt 0.001968 0.432060
vt 0.112980 0.432060
vt 0.134783 0.008210
vt 0.233626 0.008210
vt 0.112980 0.029399
vt 0.001968 0.029399
vt 0.001968 0.264047
vt 0.112980 0.264047
vt 0.112980 0.466615
vt 0.112980 0.432060
vt 0.001968 0.432060
vt 0.001968 0.466615
vt 0.134783 0.008210
vt 0.233626 0.008210
vt 0.233626 0.478787
vt 0.134783 0.478787
vt 0.112980 0.029399
vt 0.112980 0.264047
vt 0.001968 0.264047
vt 0.001968 0.029399
vt 0.112980 0.466615
vt 0.001968 0.466615
vt 0.001968 0.432060
vt 0.112980 0.432060
vt 0.134783 0.008210
vt 0.233626 0.008210
vt 0.112980 0.029399
vt 0.001968 0.029399
vt 0.001968 0.264047
vt 0.112980 0.264047
vt 0.112980 0.466615
vt 0.112980 0.432060
vt 0.001968 0.432060
vt 0.001968 0.466615
vt 0.134783 0.008210
vt 0.233626 0.008210
vt 0.233626 0.478787
vt 0.134783 0.478787
vt 0.112980 0.029399
vt 0.112980 0.264047
vt 0.001968 0.264047
vt 0.001968 0.029399
vt 0.112980 0.466615
vt 0.001968 0.466615
vt 0.001968 0.432060
vt 0.112980 0.432060
vt 0.134783 0.008210
vt 0.233626 0.008210
vt 0.112980 0.029399
vt 0.001968 0.029399
vt 0.001968 0.264047
vt 0.112980 0.264047
vt 0.112980 0.466615
vt 0.112980 0.432060
vt 0.001968 0.432060
vt 0.001968 0.466615
vt 0.134783 0.008210
vt 0.233626 0.008210
vt 0.233626 0.478787
vt 0.134783 0.478787
vt 0.112980 0.029399
vt 0.112980 0.264047
vt 0.001968 0.264047
vt 0.001968 0.029399
vt 0.112980 0.466615
vt 0.001968 0.466615
vt 0.001968 0.432060
vt 0.112980 0.432060
vt 0.134783 0.008210
vt 0.233626 0.008210
vt 0.112980 0.029399
vt 0.001968 0.029399
vt 0.001968 0.264047
vt 0.112980 0.264047
vt 0.112980 0.466615
vt 0.112980 0.432060
vt 0.001968 0.432060
vt 0.001968 0.466615
vt 0.134783 0.008210
vt 0.156957 0.008210
vt 0.156956 0.478787
vt 0.134783 0.478787
vt 0.001968 0.264047
vt 0.017863 0.264047
vt 0.017863 0.432060
vt 0.001968 0.432060
vt 0.134783 0.008210
vt 0.156955 0.008210
vt 0.001968 0.264047
vt 0.001968 0.432060
vt 0.017861 0.432060
vt 0.017861 0.264047
vt 0.231086 0.008210
vt 0.231086 0.478787
vt 0.233626 0.478787
vt 0.233626 0.008210
vt 0.085667 0.029399
vt 0.001968 0.029399
vt 0.085654 0.029399
vt 0.001968 0.029399
vt 0.231086 0.008210
vt 0.233626 0.008210
vt 0.026870 0.466615
vt 0.001968 0.466615
vt 0.026872 0.466615
vt 0.001968 0.466615
vn 1.0000 -0.0000 -0.0000
vn -1.0000 -0.0000 -0.0000
vn -0.0000 0.8854 0.4649
vn -0.0000 0.9257 0.3783
vn 0.0000 0.9565 0.2917
vn -0.0000 0.9798 0.2001
vn -0.0000 0.9949 0.1007
vn -0.0000 1.0000 -0.0038
vn -0.0000 0.9950 -0.1002
vn -0.0000 0.9834 -0.1813
vn -0.0000 0.9678 -0.2517
vn -0.0000 0.9482 -0.3177
vn -0.0000 0.9220 -0.3871
vn -0.0000 0.9059 -0.4234
vn -0.0000 0.8610 0.5086
vn 0.0000 0.9075 0.4201
s 1
f 1/1/1 116/2/1 105/3/1
f 2/4/2 106/5/2 107/6/2
f 3/7/2 114/8/2 113/9/2
f 4/10/1 111/11/1 109/12/1
f 2/13/3 9/14/4 14/15/4 5/16/3
f 6/17/1 8/18/1 115/19/1 116/20/1 1/21/1
f 9/22/2 2/23/2 107/24/2 117/25/2 7/26/2
f 4/27/3 5/16/3 14/15/4 13/28/4
f 10/29/2 3/30/2 113/31/2 112/32/2 12/33/2
f 13/34/1 11/35/1 110/36/1 111/37/1 4/38/1
f 9/39/4 18/40/5 23/41/5 14/42/4
f 15/43/1 17/44/1 8/45/1 6/46/1
f 18/47/2 9/48/2 7/49/2 16/50/2
f 8/45/4 17/44/5 16/50/5 7/49/4
f 13/51/4 14/42/4 23/41/5 22/52/5
f 19/53/2 10/54/2 12/55/2 21/56/2
f 22/57/1 20/58/1 11/59/1 13/60/1
f 12/55/4 11/59/4 20/58/5 21/56/5
f 18/61/5 27/62/6 32/63/6 23/64/5
f 24/65/1 26/66/1 17/67/1 15/68/1
f 27/69/2 18/70/2 16/71/2 25/72/2
f 17/67/5 26/66/6 25/72/6 16/71/5
f 22/73/5 23/64/5 32/63/6 31/74/6
f 28/75/2 19/76/2 21/77/2 30/78/2
f 31/79/1 29/80/1 20/81/1 22/82/1
f 21/77/5 20/81/5 29/80/6 30/78/6
f 27/83/6 36/84/7 41/85/7 32/86/6
f 33/87/1 35/88/1 26/89/1 24/90/1
f 36/91/2 27/92/2 25/93/2 34/94/2
f 26/89/6 35/88/7 34/94/7 25/93/6
f 31/95/6 32/86/6 41/85/7 40/96/7
f 37/97/2 28/98/2 30/99/2 39/100/2
f 40/101/1 38/102/1 29/103/1 31/104/1
f 30/99/6 29/103/6 38/102/7 39/100/7
f 36/105/7 45/106/8 50/107/8 41/108/7
f 42/109/1 44/110/1 35/111/1 33/112/1
f 45/113/2 36/114/2 34/115/2 43/116/2
f 35/111/7 44/110/8 43/116/8 34/115/7
f 40/117/7 41/108/7 50/107/8 49/118/8
f 46/119/2 37/120/2 39/121/2 48/122/2
f 49/123/1 47/124/1 38/125/1 40/126/1
f 39/121/7 38/125/7 47/124/8 48/122/8
f 45/127/8 54/128/9 59/129/9 50/130/8
f 51/131/1 53/132/1 44/133/1 42/134/1
f 54/135/2 45/136/2 43/137/2 52/138/2
f 44/133/8 53/132/9 52/138/9 43/137/8
f 49/139/8 50/130/8 59/129/9 58/140/9
f 55/141/2 46/142/2 48/143/2 57/144/2
f 58/145/1 56/146/1 47/147/1 49/148/1
f 48/143/8 47/147/8 56/146/9 57/144/9
f 54/149/9 63/150/10 68/151/10 59/152/9
f 60/153/1 62/154/1 53/155/1 51/156/1
f 63/157/2 54/158/2 52/159/2 61/160/2
f 53/155/9 62/154/10 61/160/10 52/159/9
f 58/161/9 59/152/9 68/151/10 67/162/10
f 64/163/2 55/164/2 57/165/2 66/166/2
f 67/167/1 65/168/1 56/169/1 58/170/1
f 57/165/9 56/169/9 65/168/10 66/166/10
f 63/171/10 72/172/11 77/173/11 68/174/10
f 69/175/1 71/176/1 62/177/1 60/178/1
f 72/179/2 63/180/2 61/181/2 70/182/2
f 62/177/10 71/176/11 70/182/11 61/181/10
f 67/183/10 68/174/10 77/173/11 76/184/11
f 73/185/2 64/186/2 66/187/2 75/188/2
f 76/189/1 74/190/1 65/191/1 67/192/1
f 66/187/10 65/191/10 74/190/11 75/188/11
f 72/193/11 81/194/12 86/195/12 77/196/11
f 78/197/1 80/198/1 71/199/1 69/200/1
f 81/201/2 72/202/2 70/203/2 79/204/2
f 71/199/11 80/198/12 79/204/12 70/203/11
f 76/205/11 77/196/11 86/195/12 85/206/12
f 82/207/2 73/208/2 75/209/2 84/210/2
f 85/211/1 83/212/1 74/213/1 76/214/1
f 75/209/11 74/213/11 83/212/12 84/210/12
f 81/215/12 90/216/13 95/217/13 86/218/12
f 87/219/1 89/220/1 80/221/1 78/222/1
f 90/223/2 81/224/2 79/225/2 88/226/2
f 80/221/12 89/220/13 88/226/13 79/225/12
f 85/227/12 86/218/12 95/217/13 94/228/13
f 91/229/2 82/230/2 84/231/2 93/232/2
f 94/233/1 92/234/1 83/235/1 85/236/1
f 84/231/12 83/235/12 92/234/13 93/232/13
f 90/237/13 98/238/14 97/239/14 95/240/13
f 89/241/13 104/242/14 103/243/14 88/244/13
f 94/245/13 95/240/13 97/239/14 99/246/14
f 93/247/13 92/248/13 101/249/14 100/250/14
f 109/251/15 108/252/15 5/253/3 4/254/3
f 96/255/1 104/242/1 89/241/1 87/256/1
f 112/32/16 110/36/16 11/35/4 12/33/4
f 100/250/2 102/257/2 91/258/2 93/247/2
f 108/252/15 106/259/15 2/260/3 5/253/3
f 99/261/1 101/249/1 92/248/1 94/262/1
f 103/243/2 98/263/2 90/264/2 88/244/2
f 117/25/16 115/19/16 8/18/4 7/26/4
