# Blender v2.81 (sub 16) OBJ File: ''
# www.blender.org
o Cube.002_Cube.010
v -3.491349 1.901424 4.719915
v -2.977153 1.668727 4.719915
v -3.246423 1.758627 4.719915
v -2.422810 1.548481 4.719915
v -2.142319 1.505271 4.719915
v -2.700958 1.604533 4.719915
v -3.474258 1.653926 4.698756
v -3.222809 1.527702 4.763270
v -2.946414 1.431413 4.755773
v -2.657047 1.375036 4.657266
v -2.331759 1.320156 4.742750
v -0.508650 1.901424 4.719914
v -1.022846 1.668727 4.719915
v -0.753577 1.758627 4.719915
v -1.577189 1.548481 4.719915
v -1.857681 1.505271 4.719915
v -1.299041 1.604533 4.719915
v -0.525741 1.653926 4.698756
v -0.777191 1.527702 4.763270
v -1.053586 1.431413 4.755773
v -1.342953 1.375036 4.657266
v -1.668241 1.320156 4.742750
v -2.000000 1.275753 4.679162
v -2.000000 1.505271 4.719915
v -2.813118 1.913482 2.350389
v -2.813118 1.913482 4.350389
v -2.872235 0.127599 4.350390
v -3.920948 0.000000 2.015508
v -3.920948 0.138522 2.015508
v -3.920948 0.000000 4.515508
v -3.920948 0.138522 4.515508
v -3.602100 0.127598 4.350389
v -3.602100 0.127598 2.350389
v -2.791593 0.000000 1.474693
v -2.791593 0.025922 1.474693
v -2.791592 0.000000 1.994281
v -2.791592 0.130857 1.994281
v -2.791592 0.000000 2.064634
v -2.791592 0.130857 2.064634
v -3.263658 1.245811 2.350389
v -3.263658 1.245811 4.350389
v -3.587720 -0.000000 4.824214
v -3.587720 2.000000 4.824214
v -3.662592 0.000000 4.769816
v -3.662592 2.000000 4.769816
v -3.633993 -0.000000 4.681799
v -3.633993 2.000000 4.681799
v -3.541446 0.000000 4.681799
v -3.541446 2.000000 4.681799
v -3.512848 -0.000000 4.769817
v -3.512848 2.000000 4.769817
v -2.872235 0.127599 2.350389
v -2.631302 1.620502 2.350389
v -2.631303 0.127599 2.350389
v -2.631302 1.620502 2.391356
v -2.631303 0.127599 2.391357
v -3.491349 1.901424 4.718936
v -2.977153 1.668727 4.718936
v -3.246423 1.758627 4.718936
v -2.422810 1.548481 4.718936
v -2.142319 1.505271 4.718936
v -2.700958 1.604533 4.718936
v -3.474258 1.653926 4.697778
v -3.222809 1.527702 4.762291
v -2.946414 1.431413 4.754794
v -2.657047 1.375036 4.656287
v -2.331759 1.320156 4.741772
v -0.508650 1.901424 4.718936
v -1.022846 1.668727 4.718936
v -0.753577 1.758627 4.718936
v -1.577189 1.548481 4.718936
v -1.857681 1.505271 4.718936
v -1.299041 1.604533 4.718936
v -0.525741 1.653926 4.697777
v -0.777191 1.527702 4.762291
v -1.053586 1.431413 4.754794
v -1.342953 1.375036 4.656287
v -1.668241 1.320156 4.741772
v -1.186882 1.913482 2.350389
v -1.186882 1.913482 4.350389
v -1.127765 0.127599 4.350390
v -0.079052 0.000000 2.015507
v -0.079052 0.138522 2.015507
v -0.079052 0.000000 4.515507
v -0.079052 0.138522 4.515507
v -0.397900 0.127598 4.350389
v -2.000000 2.165392 4.350389
v -0.397900 0.127598 2.350389
v -1.208408 0.000000 1.474692
v -1.208408 0.025922 1.474692
v -1.208408 0.000000 1.994281
v -1.208408 0.130857 1.994281
v -2.000000 2.165392 2.350389
v -1.208408 0.000000 2.064634
v -1.208408 0.130857 2.064634
v -0.736342 1.245811 2.350389
v -2.000000 1.913486 4.350389
v -0.736342 1.245811 4.350389
v -2.000000 1.913486 2.350389
v -0.412280 -0.000000 4.824214
v -0.412280 2.000000 4.824214
v -0.337408 0.000000 4.769816
v -0.337408 2.000000 4.769816
v -0.366006 -0.000000 4.681799
v -0.366006 2.000000 4.681799
v -0.458553 0.000000 4.681799
v -0.458553 2.000000 4.681799
v -0.487152 -0.000000 4.769816
v -0.487152 2.000000 4.769816
v -2.000000 0.000000 4.515508
v -2.000000 0.138522 4.515508
v -2.000000 0.000000 2.015507
v -2.000000 0.138522 2.015507
v -2.000000 0.130857 1.994281
v -2.000000 0.000000 1.474693
v -2.000000 0.025922 1.474693
v -2.000000 0.130857 2.064634
v -1.127765 0.127599 2.350389
v -2.000000 0.127599 4.350390
v -2.000000 1.620505 2.350389
v -2.000000 1.620505 2.391357
v -1.368698 1.620502 2.350389
v -1.368697 0.127599 2.350389
v -2.000000 0.127598 2.391356
v -1.368698 1.620502 2.391356
v -1.368697 0.127599 2.391357
v -0.508650 1.901424 4.718936
v -1.022846 1.668727 4.718936
v -0.753577 1.758627 4.718936
v -1.577189 1.548481 4.718936
v -1.857681 1.505271 4.718936
v -1.299041 1.604533 4.718936
v -0.525741 1.653926 4.697777
v -0.777191 1.527702 4.762291
v -1.053586 1.431413 4.754794
v -1.342953 1.375036 4.656287
v -1.668241 1.320156 4.741772
v -3.491349 1.901424 4.718936
v -2.977153 1.668727 4.718936
v -3.246423 1.758627 4.718936
v -2.422810 1.548481 4.718936
v -2.142319 1.505271 4.718936
v -2.700958 1.604533 4.718936
v -3.474258 1.653926 4.697778
v -3.222809 1.527702 4.762291
v -2.946414 1.431413 4.754794
v -2.657047 1.375036 4.656287
v -2.331759 1.320156 4.741772
v -2.000000 1.275753 4.678183
v -2.000000 1.505271 4.718936
vt 0.000000 0.000000
vt 0.000000 0.000000
vt 0.000000 0.000000
vt 0.000000 0.000000
vt 0.000000 0.000000
vt 0.000000 0.000000
vt 0.000000 0.000000
vt 0.000000 0.000000
vt 0.000000 0.000000
vt 0.000000 0.000000
vt 0.000000 0.000000
vt 0.000000 0.000000
vt 0.000000 0.000000
vt 0.000000 0.000000
vt 0.000000 0.000000
vt 0.000000 0.000000
vt 0.000000 0.000000
vt 0.000000 0.000000
vt 0.000000 0.000000
vt 0.000000 0.000000
vt 0.000000 0.000000
vt 0.000000 0.000000
vt 0.000000 0.000000
vt 0.000000 0.000000
vt 1.000000 0.000000
vt 1.000000 1.000000
vt 1.000000 1.000000
vt 1.000000 0.000000
vt 0.500000 1.000000
vt 0.500000 1.000000
vt 0.500000 0.000000
vt 0.500000 0.000000
vt 1.000000 0.000000
vt 1.000000 1.000000
vt 0.000000 0.000000
vt 0.000000 0.000000
vt 0.000000 0.000000
vt 0.000000 0.000000
vt 1.000000 0.000000
vt 0.500000 0.000000
vt 0.000000 0.000000
vt 1.000000 0.000000
vt 0.500000 0.000000
vt 0.000000 0.000000
vt 0.000000 0.000000
vt 0.000000 0.000000
vt 0.000000 0.000000
vt 0.000000 0.000000
vt 0.000000 0.000000
vt 0.000000 0.000000
vt 0.000000 0.000000
vt 0.000000 0.000000
vt 0.000000 0.000000
vt 0.000000 0.000000
vt 0.000000 0.000000
vt 0.000000 0.000000
vt 0.000000 0.000000
vt 0.000000 0.000000
vt 0.000000 0.000000
vt 0.000000 0.000000
vt 0.000000 0.000000
vt 0.000000 0.000000
vt 0.000000 0.000000
vt 0.000000 0.000000
vt 0.000000 0.000000
vt 0.000000 0.000000
vt 0.000000 0.000000
vt 0.000000 0.000000
vt 1.000000 0.000000
vt 1.000000 0.000000
vt 1.000000 1.000000
vt 1.000000 1.000000
vt 1.000000 0.000000
vt 1.000000 1.000000
vt 0.000000 0.000000
vt 1.000000 0.000000
vt 0.000000 0.000000
vt 0.000000 0.000000
vt 1.000000 0.000000
vt 0.000000 0.000000
vt 0.000000 0.000000
vt 0.000000 0.000000
vt 0.000000 0.000000
vt 0.000000 0.000000
vt 0.000000 0.000000
vt 0.000000 0.000000
vt 0.000000 0.000000
vt 0.000000 0.000000
vt 0.000000 0.000000
vt 0.000000 0.000000
vt 0.000000 0.000000
vt 0.000000 0.000000
vt 0.000000 0.000000
vt 0.000000 0.000000
vt 0.000000 0.000000
vt 0.000000 0.000000
vt 0.000000 0.000000
vt 0.000000 0.000000
vt 0.000000 0.000000
vt 0.000000 0.000000
vt 0.000000 0.000000
vt 0.000000 0.000000
vt 0.375000 0.375000
vt 0.625000 0.375000
vt 0.625000 0.500000
vt 0.375000 0.500000
vt 0.625000 0.750000
vt 0.375000 0.750000
vt 0.625000 0.500000
vt 0.375000 0.500000
vt 0.375000 0.500000
vt 0.625000 0.500000
vt 0.625000 0.750000
vt 0.375000 0.750000
vt 0.750000 0.500000
vt 0.750000 0.500000
vt 1.000000 0.500000
vt 1.000000 1.000000
vt 0.800000 1.000000
vt 0.800000 0.500000
vt 0.600000 1.000000
vt 0.600000 0.500000
vt 0.400000 1.000000
vt 0.400000 0.500000
vt 0.478254 0.324164
vt 0.250000 0.490000
vt 0.021746 0.324164
vt 0.108932 0.055836
vt 0.391068 0.055836
vt 0.200000 1.000000
vt 0.200000 0.500000
vt 0.000000 1.000000
vt 0.000000 0.500000
vt 0.750000 0.500000
vt 0.750000 0.750000
vt 0.625000 0.875000
vt 0.375000 0.875000
vt 0.750000 0.750000
vt 0.625000 0.875000
vt 0.375000 0.875000
vt 0.375000 0.500000
vt 0.625000 0.500000
vt 0.375000 0.750000
vt 0.625000 0.750000
vt 0.625000 0.500000
vt 0.625000 0.500000
vt 0.375000 0.500000
vt 0.375000 0.500000
vt 0.375000 0.750000
vt 0.625000 0.750000
vt 1.000000 0.500000
vt 0.800000 0.500000
vt 0.800000 1.000000
vt 1.000000 1.000000
vt 0.600000 0.500000
vt 0.600000 1.000000
vt 0.400000 0.500000
vt 0.400000 1.000000
vt 0.478254 0.324164
vt 0.391068 0.055836
vt 0.108932 0.055836
vt 0.021746 0.324164
vt 0.250000 0.490000
vt 0.200000 0.500000
vt 0.200000 1.000000
vt 0.000000 0.500000
vt 0.000000 1.000000
vn 0.0163 0.1059 0.9942
vn -0.0550 -0.2727 0.9605
vn 0.0358 0.1538 0.9874
vn 0.0636 0.1904 0.9796
vn -0.0517 -0.0886 0.9947
vn 0.0000 -0.1748 0.9846
vn -0.0163 0.1059 0.9942
vn 0.0550 -0.2727 0.9605
vn -0.0358 0.1538 0.9874
vn -0.0636 0.1904 0.9796
vn 0.0517 -0.0886 0.9947
vn -0.8289 0.5594 0.0000
vn 0.0000 0.0000 1.0000
vn -0.2959 0.9552 0.0000
vn 0.0000 0.0000 -1.0000
vn -0.9571 0.2897 0.0000
vn 0.0000 -1.0000 0.0000
vn 1.0000 -0.0000 0.0000
vn -0.0163 -0.1059 -0.9942
vn 0.0550 0.2727 -0.9605
vn -0.0358 -0.1538 -0.9874
vn -0.0636 -0.1904 -0.9796
vn 0.0517 0.0886 -0.9947
vn 0.0000 0.1748 -0.9846
vn 0.0163 -0.1059 -0.9942
vn -0.0550 0.2727 -0.9605
vn 0.0358 -0.1538 -0.9874
vn 0.0636 -0.1904 -0.9796
vn -0.0517 0.0886 -0.9947
vn 0.8289 0.5594 -0.0000
vn 0.2959 0.9552 -0.0000
vn 0.9571 0.2897 -0.0000
vn -1.0000 -0.0000 0.0000
vn -0.0000 0.9950 -0.0995
vn 0.0000 1.0000 0.0000
vn -0.9511 0.0000 0.3090
vn -0.5878 0.0000 -0.8090
vn 0.5878 0.0000 -0.8090
vn 0.9511 0.0000 0.3090
vn -0.0000 0.9802 -0.1980
s off
f 11/1/1 5/2/1 4/3/1
f 10/4/2 4/3/2 6/5/2
f 9/6/3 6/5/3 2/7/3
f 2/7/4 3/8/4 8/9/4
f 1/10/5 7/11/5 3/8/5
f 24/12/6 5/2/6 23/13/6
f 22/14/7 15/15/7 16/16/7
f 21/17/8 17/18/8 15/15/8
f 20/19/9 13/20/9 17/18/9
f 13/20/10 19/21/10 14/22/10
f 12/23/11 14/22/11 18/24/11
f 24/12/6 23/13/6 16/16/6
f 40/25/12 41/26/12 26/27/12 25/28/12
f 97/29/13 87/30/13 26/27/13
f 93/31/14 25/28/14 26/27/14 87/30/14
f 93/31/15 99/32/15 25/28/15
f 33/33/16 32/34/16 41/26/16 40/25/16
f 26/27/13 27/35/13 119/36/13 97/29/13
f 124/37/15 56/38/15 55/39/15 121/40/15
f 25/28/15 52/41/15 33/33/15 40/25/15
f 26/27/13 41/26/13 32/34/13 27/35/13
f 53/42/17 120/43/17 121/40/17 55/39/17
f 25/28/15 99/32/15 120/43/15 53/42/15
f 52/41/15 25/28/15 53/42/15 54/44/15
f 54/44/18 53/42/18 55/39/18 56/38/18
f 67/45/19 60/46/19 61/47/19
f 66/48/20 62/49/20 60/46/20
f 65/50/21 58/51/21 62/49/21
f 58/51/22 64/52/22 59/53/22
f 57/54/23 59/53/23 63/55/23
f 150/56/24 149/57/24 61/47/24
f 78/58/25 72/59/25 71/60/25
f 77/61/26 71/60/26 73/62/26
f 76/63/27 73/62/27 69/64/27
f 69/64/28 70/65/28 75/66/28
f 68/67/29 74/68/29 70/65/29
f 150/56/24 72/59/24 149/57/24
f 96/69/30 79/70/30 80/71/30 98/72/30
f 97/29/13 80/71/13 87/30/13
f 93/31/31 87/30/31 80/71/31 79/70/31
f 93/31/15 79/70/15 99/32/15
f 88/73/32 96/69/32 98/72/32 86/74/32
f 80/71/13 97/29/13 119/36/13 81/75/13
f 124/37/15 121/40/15 125/76/15 126/77/15
f 79/70/15 96/69/15 88/73/15 118/78/15
f 80/71/13 81/75/13 86/74/13 98/72/13
f 122/79/17 125/76/17 121/40/17 120/43/17
f 79/70/15 122/79/15 120/43/15 99/32/15
f 118/78/15 123/80/15 122/79/15 79/70/15
f 123/80/33 126/77/33 125/76/33 122/79/33
f 137/81/25 131/82/25 130/83/25
f 136/84/26 130/83/26 132/85/26
f 135/86/27 132/85/27 128/87/27
f 128/87/28 129/88/28 134/89/28
f 127/90/29 133/91/29 129/88/29
f 150/56/24 131/82/24 149/57/24
f 148/92/19 141/93/19 142/94/19
f 147/95/20 143/96/20 141/93/20
f 146/97/21 139/98/21 143/96/21
f 139/98/22 145/99/22 140/100/22
f 138/101/23 140/100/23 144/102/23
f 150/56/24 149/57/24 142/94/24
s 1
f 110/103/13 111/104/13 31/105/13 30/106/13
f 30/106/33 31/105/33 29/107/33 28/108/33
f 37/109/33 36/110/33 38/111/33 39/112/33
f 36/110/33 37/109/33 35/113/33 34/114/33
f 114/115/34 37/109/34 39/112/35 117/116/35
f 42/117/13 43/118/13 45/119/36 44/120/36
f 44/120/36 45/119/36 47/121/37 46/122/37
f 46/122/37 47/121/37 49/123/38 48/124/38
f 45/125/35 43/126/35 51/127/35 49/128/35 47/129/35
f 48/124/38 49/123/38 51/130/39 50/131/39
f 50/131/39 51/130/39 43/132/13 42/133/13
f 31/105/35 111/134/35 113/135/35 29/107/35
f 28/108/15 29/107/15 113/136/15 112/137/15
f 37/109/34 114/115/34 116/138/40 35/113/40
f 34/114/15 35/113/15 116/139/15 115/140/15
f 110/103/13 84/141/13 85/142/13 111/104/13
f 84/141/18 82/143/18 83/144/18 85/142/18
f 92/145/18 95/146/18 94/147/18 91/148/18
f 91/148/18 89/149/18 90/150/18 92/145/18
f 114/115/34 117/116/35 95/146/35 92/145/34
f 100/151/13 102/152/39 103/153/39 101/154/13
f 102/152/39 104/155/38 105/156/38 103/153/39
f 104/155/38 106/157/37 107/158/37 105/156/38
f 103/159/35 105/160/35 107/161/35 109/162/35 101/163/35
f 106/157/37 108/164/36 109/165/36 107/158/37
f 108/164/36 100/166/13 101/167/13 109/165/36
f 85/142/35 83/144/35 113/135/35 111/134/35
f 82/143/15 112/137/15 113/136/15 83/144/15
f 92/145/34 90/150/40 116/138/40 114/115/34
f 89/149/15 115/140/15 116/139/15 90/150/15
