# Blender v2.81 (sub 16) OBJ File: ''
# www.blender.org
o Cube_Cube.001
v -2.212016 1.868740 2.875736
v -0.272667 1.868740 2.875735
v -3.786582 1.868740 0.310108
v -3.786582 1.868740 2.875736
v -1.161512 1.868740 0.310108
v -0.272667 1.868740 0.705775
v -0.423286 2.752802 1.720933
v -1.161512 1.868740 0.705775
v -2.475806 2.820373 0.310108
v -1.893954 1.770861 0.319083
v -3.051284 1.770861 0.319084
v -1.893954 1.774346 0.408067
v -3.051284 1.774346 0.408067
v -1.341714 1.868740 0.310108
v -1.346123 1.770861 0.319083
v -2.475806 2.891470 0.260152
v -3.605241 1.868740 0.310108
v -3.594489 1.770861 0.319084
v -0.423244 2.891470 1.616210
v -3.576756 2.891470 1.616210
v -0.072854 2.002210 0.260152
v -3.927150 2.002210 0.260152
v -1.324565 2.002210 0.260152
v -3.632548 2.002210 0.260152
v -2.475806 2.891470 1.616210
v -3.927150 2.002210 2.989984
v -0.072849 2.002210 2.989984
v -2.475806 2.002210 2.989984
v -3.576756 2.891470 1.829846
v -2.475806 2.891470 1.829846
v -0.423244 2.891470 1.829846
v -3.529968 2.688838 1.724479
v -3.576798 2.752802 1.720933
v -2.475848 1.863542 2.987889
v -0.072892 1.863542 2.987889
v -0.470033 2.688838 1.724479
v -3.927193 1.863542 2.987889
v -3.632590 1.863542 0.258057
v -1.324607 1.863542 0.258057
v -3.927193 1.863542 0.258057
v -0.072896 1.863542 0.258057
v -2.475848 2.752802 0.258057
v -1.898945 0.178452 0.381727
v -3.001803 0.178452 0.381727
v -0.367000 0.187936 2.804986
v -1.205785 0.187936 0.755633
v -3.692249 0.187936 0.380858
v -1.205785 0.187936 0.380858
v -1.898945 0.181937 0.470711
v -3.001803 0.181937 0.470711
v -1.376899 0.178452 0.381727
v -0.367000 0.187936 0.755633
v -3.692249 0.187936 2.804986
v -3.519441 0.178452 0.381727
v -2.200821 0.187936 2.804986
v -2.183107 0.000700 2.731309
v -0.360608 0.000700 2.731309
v -3.494876 0.000700 0.322363
v -3.665615 0.000700 0.322363
v -1.363688 0.000700 0.322363
v -1.882968 0.000700 0.322363
v -1.194022 0.000700 0.694897
v -1.194022 0.000700 0.322363
v -0.360608 0.000700 0.694896
v -1.882432 0.171555 0.315641
v -2.985290 0.171555 0.315641
v -2.979981 0.000700 0.322363
v -0.350487 0.181040 2.738900
v -1.189272 0.181040 0.689547
v -3.675736 0.181040 0.314772
v -1.189272 0.181039 0.314772
v -1.882432 0.088379 -0.108360
v -1.882968 -0.009467 -0.101639
v -1.360386 0.171555 0.315641
v -0.350487 0.181040 0.689547
v -3.675736 0.181040 2.738900
v -3.665615 0.000700 2.731309
v -3.502928 0.171555 0.315642
v -2.184308 0.181040 2.738900
v -2.985290 0.088379 -0.108360
v -2.979981 -0.009467 -0.101639
v -1.882968 -0.004384 0.213599
v -1.882432 0.166472 0.109545
v -2.985290 0.166472 0.109544
v -2.979981 -0.004798 0.213599
v -2.985290 0.092633 0.109544
v -1.882432 0.092633 0.109544
vt 0.599133 0.036911
vt 0.625000 0.036911
vt 0.625000 0.250000
vt 0.599133 0.250000
vt 0.599133 0.487312
vt 0.625000 0.487312
vt 0.625000 0.500000
vt 0.599133 0.500000
vt 0.744792 0.713089
vt 0.808666 0.713089
vt 0.573266 0.106874
vt 0.596358 0.921058
vt 0.625000 0.921058
vt 0.625000 0.933666
vt 0.625000 0.316334
vt 0.599133 0.316334
vt 0.625000 0.616692
vt 0.599133 0.616692
vt 0.596358 0.800950
vt 0.625000 0.882470
vt 0.596358 0.882470
vt 0.596358 0.762688
vt 0.625000 0.762688
vt 0.625000 0.800950
vt 0.396449 0.882470
vt 0.396449 0.921058
vt 0.396449 0.762688
vt 0.396449 0.800950
vt 0.599133 0.750000
vt 0.396449 0.762688
vt 0.599133 0.750000
vt 0.625000 0.750000
vt 0.396449 0.800950
vt 0.596358 0.800950
vt 0.596358 0.882470
vt 0.396449 0.882470
vt 0.399224 0.933666
vt 0.000000 0.000000
vt 0.000000 0.000000
vt 0.000000 0.000000
vt 0.000000 0.000000
vt 0.000000 0.000000
vt 0.000000 0.000000
vt 0.000000 0.000000
vt 0.000000 0.000000
vt 0.000000 0.000000
vt 0.000000 0.000000
vt 0.000000 0.000000
vt 0.000000 0.000000
vt 0.000000 0.000000
vt 0.000000 0.000000
vt 0.625000 0.616692
vt 0.625000 0.616692
vt 0.625000 0.616692
vt 0.625000 0.500000
vt 0.000000 0.000000
vt 0.000000 0.000000
vt 0.000000 0.000000
vt 0.000000 0.000000
vt 0.000000 0.000000
vt 0.000000 0.000000
vt 0.000000 0.000000
vt 0.000000 0.000000
vt 0.000000 0.000000
vt 0.000000 0.000000
vt 0.573266 0.106874
vt 0.744792 0.713089
vt 0.599133 0.933666
vt 0.599133 0.316334
vt 0.599133 0.250000
vt 0.599133 0.616692
vt 0.599133 0.500000
vt 0.399224 0.933666
vt 0.396449 0.921058
vt 0.375000 0.882470
vt 0.375000 0.800950
vt 0.396449 0.800950
vt 0.375000 0.882470
vt 0.599133 0.933666
vt 0.737938 0.713089
vt 0.596358 0.933666
vt 0.375000 0.800950
vt 0.375000 0.882470
vt 0.396449 0.882470
vt 0.375000 0.882470
vt 0.396449 0.882470
vt 0.375000 0.933666
vt 0.375000 0.921058
vt 0.596358 0.750000
vt 0.375000 0.762688
vt 0.396449 0.800950
vt 0.375000 0.800950
vt 0.375000 0.882470
vt 0.396449 0.882470
vt 0.596358 0.500000
vt 0.596358 0.616692
vt 0.596358 0.250000
vt 0.596358 0.316334
vt 0.567715 0.114380
vt 0.596358 0.487312
vt 0.599133 0.487312
vt 0.596358 0.036911
vt 0.599133 0.036911
vt 0.375000 0.800950
vt 0.396449 0.800950
vt 0.375000 0.882470
vt 0.375000 0.800950
vt 0.375000 0.800950
vt 0.375000 0.882470
vt 0.375000 0.800950
vt 0.396449 0.800950
vt 0.396449 0.882470
vn 0.9984 -0.0560 -0.0000
vn 0.0000 -0.0421 0.9991
vn -0.0000 -0.0297 -0.9996
vn 0.0000 -0.0913 -0.9958
vn -0.9984 -0.0560 0.0000
vn -0.0000 -0.0086 -1.0000
vn 0.0124 -0.0217 -0.9997
vn -0.0000 -0.0393 -0.9992
vn 0.0550 0.9944 -0.0900
vn 0.0152 -0.0399 -0.9991
vn 0.9995 0.0310 -0.0012
vn 0.0000 -0.9992 0.0391
vn -0.0124 -0.0219 -0.9997
vn -0.0155 -0.0404 -0.9991
vn -0.6095 0.7928 0.0000
vn 0.6113 0.7914 0.0000
vn -0.0000 0.8362 -0.5484
vn 0.0000 0.7937 0.6084
vn 0.0000 1.0000 0.0000
vn -0.9544 0.2986 0.0000
vn 0.9722 0.2340 -0.0000
vn 0.0117 0.0151 -0.9998
vn 0.9723 0.0867 -0.2172
vn 0.9777 0.0727 0.1972
vn 0.0000 -0.0151 0.9999
vn 1.0000 -0.0003 -0.0000
vn -0.9777 0.0732 0.1969
vn -0.0000 0.0151 -0.9999
vn -1.0000 0.0003 0.0000
vn -0.0116 0.0151 -0.9998
vn -0.9723 0.0871 -0.2169
vn -0.5739 -0.7124 0.4039
vn 0.5864 -0.7282 0.3547
vn -0.0000 -0.9951 0.0994
vn -0.3928 -0.7519 0.5295
vn -0.5287 -0.6249 -0.5744
vn 0.0000 -0.9989 -0.0463
vn 0.4227 -0.6921 -0.5850
vn 0.8444 -0.3356 0.4176
vn -0.0036 -0.9999 0.0129
vn 0.0000 -0.9999 0.0116
vn 0.0000 0.9946 -0.1038
vn 0.0000 0.9992 -0.0391
vn 0.9997 -0.0263 0.0000
vn -1.0000 0.0031 -0.0001
vn 0.0000 -0.9946 0.1038
vn -0.3854 -0.9228 0.0000
vn -0.0556 0.9915 -0.1174
vn -0.0000 -0.0685 -0.9976
vn 1.0000 -0.0054 0.0001
vn -0.0014 -0.0407 -0.9992
vn 0.0014 -0.0406 -0.9992
vn 0.3854 0.9228 -0.0000
vn -0.9986 -0.0538 0.0009
vn 0.0000 0.9997 -0.0247
vn 0.0000 0.9998 -0.0195
vn -0.9995 -0.0307 0.0010
vn 1.0000 -0.0031 0.0001
vn 0.0000 0.0000 -1.0000
vn -0.9987 0.0000 0.0510
vn 1.0000 0.0000 0.0051
s off
f 52/1/1 6/2/1 2/3/1 45/4/1
f 55/5/2 1/6/2 4/7/2 53/8/2
f 46/9/3 8/10/3 6/2/3 52/11/3
f 15/12/4 14/13/4 5/14/4
f 45/4/2 2/3/2 1/15/2 55/16/2
f 53/8/5 4/7/5 3/17/5 47/18/5
f 11/19/6 9/20/6 10/21/6
f 18/22/7 17/23/7 9/24/7 11/19/7
f 43/25/8 10/21/8 15/12/8 51/26/8
f 54/27/8 18/22/8 11/19/8 44/28/8
f 47/29/9 54/27/9 78/30/9 70/31/9
f 47/29/10 3/32/10 18/22/10 54/27/10
f 50/33/8 13/34/8 12/35/8 49/36/8
f 44/28/11 11/19/11 13/34/11 50/33/11
f 11/19/12 10/21/12 12/35/12 13/34/12
f 10/21/13 9/20/13 14/13/13 15/12/13
f 15/12/14 5/14/14 48/37/14 51/26/14
f 3/32/4 17/23/4 18/22/4
f 25/38/15 16/39/15 24/40/15
f 25/38/16 23/41/16 16/39/16
f 22/42/17 20/43/17 25/38/17 24/40/17
f 21/44/17 23/41/17 25/38/17 19/45/17
f 30/46/18 29/47/18 26/48/18 28/49/18
f 31/50/18 30/46/18 28/49/18 27/51/18
f 19/45/19 25/38/19 30/46/19 31/50/19
f 25/38/19 20/43/19 29/47/19 30/46/19
f 3/17/20 4/7/20 32/52/20
f 6/53/21 36/54/21 2/55/21
f 23/41/22 39/56/22 42/57/22 16/39/22
f 27/51/23 35/58/23 7/59/23 31/50/23
f 19/45/24 7/59/24 41/60/24 21/44/24
f 28/49/25 34/61/25 35/58/25 27/51/25
f 31/50/26 7/59/26 19/45/26
f 26/48/25 37/62/25 34/61/25 28/49/25
f 22/42/27 40/63/27 33/64/27 20/43/27
f 21/44/28 41/60/28 39/56/28 23/41/28
f 20/43/29 33/64/29 29/47/29
f 16/39/30 42/57/30 38/65/30 24/40/30
f 29/47/31 33/64/31 37/62/31 26/48/31
f 24/40/28 38/65/28 40/63/28 22/42/28
f 9/20/32 42/57/32 39/56/32 14/13/32
f 9/20/33 17/23/33 38/65/33 42/57/33
f 17/23/34 3/32/34 40/63/34 38/65/34
f 3/32/35 32/52/35 33/64/35 40/63/35
f 4/7/36 37/62/36 33/64/36 32/52/36
f 4/7/37 1/6/37 34/61/37 37/62/37
f 1/6/37 2/3/37 35/58/37 34/61/37
f 35/58/38 2/3/38 36/54/38 7/59/38
f 6/53/39 41/60/39 7/59/39 36/54/39
f 8/10/40 14/13/40 39/56/40 41/60/40
f 6/53/41 8/10/41 41/60/41
f 46/9/42 52/11/42 75/66/42 69/67/42
f 50/33/43 49/36/43 43/25/43 44/28/43
f 5/14/44 8/10/44 46/9/44 48/68/44
f 10/21/45 43/25/45 49/36/45 12/35/45
f 45/4/46 55/16/46 79/69/46 68/70/46
f 53/8/47 47/18/47 70/71/47 76/72/47
f 51/26/48 48/37/48 71/73/48 74/74/48
f 73/75/49 81/76/49 80/77/49 72/78/49
f 71/79/44 69/67/44 62/80/44 63/81/44
f 66/82/42 44/28/42 43/25/42 65/83/42
f 87/84/50 82/85/50 73/75/50 72/86/50
f 74/74/51 71/73/51 63/87/51 60/88/51
f 59/89/52 70/31/52 78/30/52 58/90/52
f 58/90/8 78/30/8 66/91/8 67/92/8
f 61/93/8 65/94/8 74/74/8 60/88/8
f 77/95/5 76/72/5 70/71/5 59/96/5
f 57/97/2 68/70/2 79/69/2 56/98/2
f 62/80/3 69/67/3 75/66/3 64/99/3
f 56/100/2 79/101/2 76/72/2 77/95/2
f 64/102/1 75/103/1 68/70/1 57/97/1
f 55/5/46 53/8/46 76/72/46 79/101/46
f 48/68/53 46/9/53 69/67/53 71/79/53
f 52/1/53 45/4/53 68/70/53 75/103/53
f 54/27/42 44/28/42 66/91/42 78/30/42
f 43/25/42 51/26/42 74/74/42 65/94/42
f 85/104/54 86/105/54 80/77/54 81/76/54
f 66/82/55 65/83/55 83/106/55 84/107/55
f 86/108/56 87/109/56 72/78/56 80/110/56
f 67/92/57 66/91/57 84/111/57 85/104/57
f 65/94/58 61/93/58 82/85/58 83/112/58
f 84/107/59 83/106/59 87/109/59 86/108/59
f 85/104/60 84/111/60 86/105/60
f 83/112/61 82/85/61 87/84/61
