# Blender v2.81 (sub 16) OBJ File: ''
# www.blender.org
o Cube.001_Cube.011
v -8.734818 0.050000 5.500000
v -8.835091 2.331943 5.500000
v -8.734818 0.050000 8.500000
v -8.835090 2.331943 8.500000
v -8.734819 0.376833 8.500000
v -8.734819 0.376833 5.500000
v -6.948640 0.050000 5.500000
v -6.948642 2.331943 5.500000
v -6.948641 0.210593 5.500000
v -8.821417 2.065337 8.500000
v -8.821417 2.065337 5.500000
v -6.948642 2.065337 5.500000
v -7.251025 0.050000 5.500000
v -7.268002 2.331943 5.500000
v -7.251025 0.376833 5.500000
v -7.265687 2.065337 5.500000
v -6.948641 0.210593 5.579246
v -6.948642 2.065337 5.579246
v -7.505556 2.476334 5.023615
v -7.505557 2.174880 5.023615
v -7.505556 2.476334 5.877689
v -7.505557 2.174880 5.877689
v -6.948642 0.209353 5.373507
v -6.948642 0.128114 5.373507
v -6.948642 0.128114 5.248608
v -6.948642 0.044738 5.248608
v -6.948642 0.044737 5.576308
v -7.050451 2.174882 5.023615
v -7.505557 2.174880 5.442611
v -7.050451 2.174882 5.442611
v -7.505557 0.049999 5.023615
v -7.050451 0.050001 5.023615
v -7.505557 0.049999 5.442611
v -7.050451 0.050001 5.442611
v -7.050451 0.322989 5.023615
v -7.505557 0.322987 5.023615
v -7.050451 0.322989 5.442611
v -7.505557 0.322987 5.442611
v -7.447097 1.992131 5.077436
v -7.108912 1.992132 5.077436
v -7.447097 1.992131 5.388789
v -7.108912 1.992132 5.388789
v -7.447097 0.505737 5.077436
v -7.108912 0.505738 5.077436
v -7.108912 0.505738 5.388789
v -7.447097 0.505737 5.388789
v -8.128017 3.553406 7.000000
v -8.988032 2.547100 5.374558
v -8.988029 2.547100 8.616331
v -8.988032 2.314291 5.374558
v -8.988029 2.314291 8.616331
v -7.592209 2.593278 4.964735
v -7.592209 2.593278 6.370682
v -7.534069 2.421645 4.964735
v -7.534069 2.421645 6.009101
v -3.265182 0.050000 5.499999
v -3.164910 2.331943 5.499999
v -3.265182 0.050000 8.499999
v -3.164910 2.331943 8.499999
v -6.000000 0.050000 8.500000
v -6.000000 2.331943 8.500000
v -6.000000 2.331943 5.500000
v -3.265180 0.376833 8.499999
v -3.265181 0.376833 5.499999
v -6.000000 0.210593 5.500000
v -6.000000 0.376833 8.500000
v -5.051360 0.050000 5.500000
v -5.051358 2.331943 5.500000
v -5.051360 0.210593 5.500000
v -3.178583 2.065337 8.499999
v -3.178583 2.065337 5.499999
v -6.000000 2.065337 5.500000
v -6.000000 2.065337 8.500000
v -5.051358 2.065337 5.500000
v -4.748976 0.050000 5.500000
v -4.731999 2.331943 5.500000
v -4.748975 0.376833 5.500000
v -4.734314 2.065337 5.500000
v -6.000000 2.065337 5.579246
v -6.000000 0.210593 5.579246
v -5.051360 0.210593 5.579245
v -5.051358 2.065337 5.579245
v -6.000000 2.986136 5.023615
v -4.494444 2.476334 5.023614
v -4.494443 2.174880 5.023614
v -6.000000 2.174885 5.023615
v -4.494444 2.476334 5.877689
v -4.494443 2.174880 5.877689
v -6.000000 2.174885 5.877689
v -6.000000 0.209352 5.373507
v -5.051358 0.209353 5.373507
v -6.000000 0.128114 5.373507
v -5.051358 0.128114 5.373507
v -6.000000 0.128114 5.248608
v -5.051358 0.128114 5.248608
v -6.000000 0.044737 5.248608
v -5.051358 0.044738 5.248608
v -5.051358 0.044737 5.576308
v -4.949549 2.174882 5.023614
v -4.494443 2.174880 5.442611
v -4.949549 2.174882 5.442611
v -4.494443 0.049999 5.023614
v -4.949549 0.050001 5.023614
v -4.494443 0.049999 5.442611
v -4.949549 0.050001 5.442611
v -4.949549 0.322989 5.023614
v -4.494443 0.322987 5.023614
v -4.949549 0.322989 5.442611
v -4.494443 0.322987 5.442611
v -4.552903 1.992131 5.077436
v -4.891088 1.992132 5.077436
v -4.552903 1.992131 5.388789
v -4.891088 1.992132 5.388789
v -4.552903 0.505737 5.077436
v -4.891088 0.505738 5.077436
v -4.891088 0.505738 5.388789
v -4.552903 0.505737 5.388789
v -3.871983 3.553406 7.000000
v -6.000000 3.553406 7.000000
v -3.011968 2.547100 5.374557
v -6.000000 2.547100 5.374558
v -3.011970 2.547100 8.616331
v -6.000000 2.547100 8.616331
v -3.011968 2.314291 5.374557
v -6.000000 2.314291 5.374558
v -3.011970 2.314291 8.616331
v -6.000000 2.314291 8.616331
v -6.000000 3.132634 4.964735
v -4.407791 2.593278 4.964734
v -6.000000 3.132634 6.370682
v -4.407791 2.593278 6.370681
v -6.000000 2.961001 4.964734
v -4.465931 2.421645 4.964734
v -6.000000 2.961001 6.009101
v -4.465931 2.421645 6.009101
v -5.296101 3.004013 6.342717
v -5.296101 3.895601 6.342717
v -5.296101 3.004013 7.657283
v -5.296101 3.895601 7.657283
v -6.703899 3.004013 6.342717
v -6.703899 3.895601 6.342717
v -6.703899 3.004013 7.657283
v -6.703899 3.895601 7.657283
v -5.137121 3.895601 6.194265
v -5.137120 3.895601 7.805735
v -6.862880 3.895601 6.194265
v -6.862879 3.895601 7.805735
v -6.000000 4.744120 7.000000
v -0.000000 0.000000 -0.000000
v -0.000000 0.050000 -0.000000
v 0.000000 0.000000 10.000000
v 0.000000 0.050000 10.000000
v -12.000000 0.000000 0.000000
v -12.000000 0.050000 0.000000
v -12.000000 0.000000 10.000000
v -12.000000 0.050000 10.000000
vt 0.595792 0.375000
vt 0.625000 0.375000
vt 0.625000 0.500000
vt 0.595792 0.500000
vt 0.625000 0.750000
vt 0.595792 0.750000
vt 0.595792 0.831641
vt 0.625000 0.831641
vt 0.625000 0.875000
vt 0.595792 0.875000
vt 0.375000 0.500000
vt 0.410806 0.500000
vt 0.410806 0.750000
vt 0.375000 0.750000
vt 0.375000 0.375000
vt 0.410806 0.375000
vt 0.375000 0.817820
vt 0.410806 0.817819
vt 0.410806 0.831641
vt 0.375000 0.831641
vt 0.595792 0.817820
vt 0.625000 0.817819
vt 0.410806 0.875000
vt 0.410806 0.831641
vt 0.410806 0.875000
vt 0.595792 0.831641
vt 0.595792 0.875000
vt 0.000000 0.000000
vt 0.000000 0.000000
vt 0.000000 0.000000
vt 0.000000 0.000000
vt 0.000000 0.000000
vt 0.000000 0.000000
vt 0.000000 0.000000
vt 0.000000 0.000000
vt 0.000000 0.000000
vt 0.000000 0.000000
vt 0.000000 0.000000
vt 0.000000 0.000000
vt 0.000000 0.000000
vt 0.000000 0.000000
vt 0.000000 0.000000
vt 0.000000 0.000000
vt 0.000000 0.000000
vt 0.000000 0.000000
vt 0.000000 0.000000
vt 0.000000 0.000000
vt 0.000000 0.000000
vt 0.000000 0.000000
vt 0.000000 0.000000
vt 0.000000 0.000000
vt 0.000000 0.000000
vt 0.000000 0.000000
vt 0.000000 0.000000
vt 0.000000 0.000000
vt 0.000000 0.000000
vt 0.000000 0.000000
vt 0.000000 0.000000
vt 0.000000 0.000000
vt 0.000000 0.000000
vt 0.000000 0.000000
vt 0.000000 0.000000
vt 0.000000 0.000000
vt 0.000000 0.000000
vt 0.000000 0.000000
vt 0.000000 0.000000
vt 0.000000 0.000000
vt 0.000000 0.000000
vt 0.000000 0.000000
vt 0.000000 0.000000
vt 0.000000 0.000000
vt 0.000000 0.000000
vt 0.000000 0.000000
vt 0.000000 0.000000
vt 0.000000 0.000000
vt 0.000000 0.000000
vt 0.000000 0.000000
vt 0.000000 0.000000
vt 0.000000 0.000000
vt 0.000000 0.000000
vt 0.000000 0.000000
vt 0.000000 0.000000
vt 0.595792 0.500000
vt 0.625000 0.500000
vt 0.595792 0.750000
vt 0.625000 0.750000
vt 0.595792 0.831641
vt 0.625000 0.831641
vt 0.375000 0.500000
vt 0.375000 0.750000
vt 0.410806 0.750000
vt 0.410806 0.500000
vt 0.375000 0.817820
vt 0.375000 0.831641
vt 0.410806 0.831641
vt 0.410806 0.817819
vt 0.595792 0.817820
vt 0.625000 0.817819
vt 0.410806 0.831641
vt 0.595792 0.831641
vt 0.000000 0.000000
vt 0.000000 0.000000
vt 0.000000 0.000000
vt 0.000000 0.000000
vt 0.000000 0.000000
vt 0.000000 0.000000
vt 0.000000 0.000000
vt 0.000000 0.000000
vt 0.000000 0.000000
vt 0.000000 0.000000
vt 0.000000 0.000000
vt 0.000000 0.000000
vt 0.000000 0.000000
vt 0.000000 0.000000
vt 0.000000 0.000000
vt 0.000000 0.000000
vt 0.000000 0.000000
vt 0.000000 0.000000
vt 0.000000 0.000000
vt 0.000000 0.000000
vt 0.000000 0.000000
vt 0.000000 0.000000
vt 0.000000 0.000000
vt 0.000000 0.000000
vt 0.000000 0.000000
vt 0.000000 0.000000
vt 0.000000 0.000000
vt 0.000000 0.000000
vt 0.000000 0.000000
vt 0.000000 0.000000
vt 0.000000 0.000000
vt 0.000000 0.000000
vt 0.000000 0.000000
vt 0.000000 0.000000
vt 0.000000 0.000000
vt 0.000000 0.000000
vt 0.000000 0.000000
vt 0.000000 0.000000
vt 0.375000 0.000000
vt 0.625000 0.000000
vt 0.625000 0.250000
vt 0.375000 0.250000
vt 0.625000 0.500000
vt 0.375000 0.500000
vt 0.625000 0.750000
vt 0.375000 0.750000
vt 0.625000 1.000000
vt 0.375000 1.000000
vt 0.625000 0.000000
vt 0.625000 0.250000
vt 0.625000 0.750000
vt 0.625000 1.000000
vt 0.625000 0.500000
vt 0.625000 1.000000
vt 0.625000 0.500000
vt 0.625000 0.750000
vt 0.625000 0.250000
vt 0.375000 0.000000
vt 0.625000 0.000000
vt 0.625000 0.250000
vt 0.375000 0.250000
vt 0.625000 0.500000
vt 0.375000 0.500000
vt 0.625000 0.750000
vt 0.375000 0.750000
vt 0.625000 1.000000
vt 0.375000 1.000000
vt 0.875000 0.500000
vt 0.875000 0.750000
vn 0.0000 0.0000 1.0000
vn -0.9987 -0.0512 0.0000
vn 0.0000 0.0000 -1.0000
vn -1.0000 -0.0000 0.0000
vn -0.0000 1.0000 0.0000
vn 1.0000 0.0000 0.0000
vn 0.0000 -1.0000 0.0000
vn 0.0000 1.0000 -0.0098
vn -0.9525 0.3047 0.0000
vn 0.9525 0.3047 0.0000
vn 0.9525 -0.3047 0.0000
vn 0.0000 -0.2825 -0.9593
vn 0.0000 -0.2825 0.9593
vn -0.0000 0.2825 -0.9593
vn -0.9525 -0.3047 0.0000
vn -0.0000 0.2825 0.9593
vn 0.0000 0.8502 -0.5264
vn 0.0000 0.8489 0.5285
vn -0.7602 0.6497 0.0000
vn -0.3208 0.9471 0.0000
vn 0.3317 -0.9434 0.0000
vn -0.9471 -0.3208 0.0000
vn 0.9987 -0.0512 -0.0000
vn 0.7602 0.6497 0.0000
vn 0.3208 0.9471 0.0000
vn -0.3317 -0.9434 0.0000
vn 0.9471 -0.3208 0.0000
vn 0.0000 0.6886 -0.7252
vn 0.0000 0.6886 0.7252
vn -0.7011 0.7130 0.0000
vn 0.7011 0.7130 -0.0000
s off
f 73/1/1 61/2/1 4/3/1 10/4/1
f 10/4/2 4/3/2 2/5/2 11/6/2
f 12/7/3 8/8/3 62/9/3 72/10/3
f 3/11/4 5/12/4 6/13/4 1/14/4
f 60/15/1 66/16/1 5/12/1 3/11/1
f 13/17/3 15/18/3 9/19/3 7/20/3
f 16/21/3 14/22/3 8/8/3 12/7/3
f 15/18/3 16/21/3 12/7/3 9/19/3
f 65/23/5 9/19/5 17/24/5 80/25/5
f 5/12/2 10/4/2 11/6/2 6/13/2
f 66/16/1 73/1/1 10/4/1 5/12/1
f 6/13/3 11/6/3 16/21/3 15/18/3
f 11/6/3 2/5/3 14/22/3 16/21/3
f 1/14/3 6/13/3 15/18/3 13/17/3
f 17/24/3 18/26/3 79/27/3 80/25/3
f 9/19/6 12/7/6 18/26/6 17/24/6
f 12/7/7 72/10/7 79/27/7 18/26/7
f 19/28/3 83/29/3 86/30/3 28/31/3
f 21/32/4 29/33/4 22/34/4
f 90/35/3 92/36/3 24/37/3 23/38/3
f 92/36/5 94/39/5 25/40/5 24/37/5
f 94/39/3 96/41/3 26/42/3 25/40/3
f 23/38/8 9/43/8 65/44/8 90/35/8
f 23/38/4 24/37/4 27/45/4 9/43/4
f 24/37/4 25/40/4 26/42/4 27/45/4
f 29/33/7 30/46/7 89/47/7 22/34/7
f 19/28/3 28/31/3 20/48/3
f 36/49/3 35/50/3 32/51/3 31/52/3
f 28/31/7 86/30/7 89/47/7 30/46/7
f 19/28/4 20/48/4 29/33/4 21/32/4
f 36/49/9 38/53/9 46/54/9 43/55/9
f 35/50/6 37/56/6 34/57/6 32/51/6
f 37/56/1 38/53/1 33/58/1 34/57/1
f 38/53/4 36/49/4 31/52/4 33/58/4
f 37/56/10 35/50/10 44/59/10 45/60/10
f 28/31/11 30/46/11 42/61/11 40/62/11
f 20/48/12 28/31/12 40/62/12 39/63/12
f 41/64/4 39/63/4 43/55/4 46/54/4
f 42/61/1 41/64/1 46/54/1 45/60/1
f 40/62/6 42/61/6 45/60/6 44/59/6
f 39/63/3 40/62/3 44/59/3 43/55/3
f 30/46/13 29/33/13 41/64/13 42/61/13
f 35/50/14 36/49/14 43/55/14 44/59/14
f 29/33/15 20/48/15 39/63/15 41/64/15
f 38/53/16 37/56/16 45/60/16 46/54/16
f 47/65/17 119/66/17 121/67/17 48/68/17
f 119/66/18 47/65/18 49/69/18 123/70/18
f 47/65/19 48/68/19 49/69/19
f 49/69/4 48/68/4 50/71/4 51/72/4
f 123/70/1 49/69/1 51/72/1 127/73/1
f 48/68/3 121/67/3 125/74/3 50/71/3
f 125/74/7 127/73/7 51/72/7 50/71/7
f 128/75/20 52/76/20 53/77/20 130/78/20
f 132/79/21 134/80/21 55/81/21 54/82/21
f 52/76/22 54/82/22 55/81/22 53/77/22
f 128/75/3 132/79/3 54/82/3 52/76/3
f 73/1/1 70/83/1 59/84/1 61/2/1
f 70/83/23 71/85/23 57/86/23 59/84/23
f 74/87/3 72/10/3 62/9/3 68/88/3
f 58/89/6 56/90/6 64/91/6 63/92/6
f 60/15/1 58/89/1 63/92/1 66/16/1
f 75/93/3 67/94/3 69/95/3 77/96/3
f 78/97/3 74/87/3 68/88/3 76/98/3
f 77/96/3 69/95/3 74/87/3 78/97/3
f 65/23/5 80/25/5 81/99/5 69/95/5
f 63/92/23 64/91/23 71/85/23 70/83/23
f 66/16/1 63/92/1 70/83/1 73/1/1
f 64/91/3 77/96/3 78/97/3 71/85/3
f 71/85/3 78/97/3 76/98/3 57/86/3
f 56/90/3 75/93/3 77/96/3 64/91/3
f 81/99/3 80/25/3 79/27/3 82/100/3
f 69/95/4 81/99/4 82/100/4 74/87/4
f 74/87/7 82/100/7 79/27/7 72/10/7
f 84/101/3 99/102/3 86/30/3 83/29/3
f 87/103/6 88/104/6 100/105/6
f 90/35/3 91/106/3 93/107/3 92/36/3
f 92/36/5 93/107/5 95/108/5 94/39/5
f 94/39/3 95/108/3 97/109/3 96/41/3
f 91/106/8 90/35/8 65/44/8 69/110/8
f 91/106/6 69/110/6 98/111/6 93/107/6
f 93/107/6 98/111/6 97/109/6 95/108/6
f 100/105/7 88/104/7 89/47/7 101/112/7
f 84/101/3 85/113/3 99/102/3
f 107/114/3 102/115/3 103/116/3 106/117/3
f 99/102/7 101/112/7 89/47/7 86/30/7
f 84/101/6 87/103/6 100/105/6 85/113/6
f 107/114/10 114/118/10 117/119/10 109/120/10
f 106/117/4 103/116/4 105/121/4 108/122/4
f 108/122/1 105/121/1 104/123/1 109/120/1
f 109/120/6 104/123/6 102/115/6 107/114/6
f 108/122/9 116/124/9 115/125/9 106/117/9
f 99/102/15 111/126/15 113/127/15 101/112/15
f 85/113/12 110/128/12 111/126/12 99/102/12
f 112/129/6 117/119/6 114/118/6 110/128/6
f 113/127/1 116/124/1 117/119/1 112/129/1
f 111/126/4 115/125/4 116/124/4 113/127/4
f 110/128/3 114/118/3 115/125/3 111/126/3
f 101/112/13 113/127/13 112/129/13 100/105/13
f 106/117/14 115/125/14 114/118/14 107/114/14
f 100/105/11 112/129/11 110/128/11 85/113/11
f 109/120/16 117/119/16 116/124/16 108/122/16
f 118/130/17 120/131/17 121/67/17 119/66/17
f 119/66/18 123/70/18 122/132/18 118/130/18
f 118/130/24 122/132/24 120/131/24
f 122/132/6 126/133/6 124/134/6 120/131/6
f 123/70/1 127/73/1 126/133/1 122/132/1
f 120/131/3 124/134/3 125/74/3 121/67/3
f 125/74/7 124/134/7 126/133/7 127/73/7
f 128/75/25 130/78/25 131/135/25 129/136/25
f 132/79/26 133/137/26 135/138/26 134/80/26
f 129/136/27 131/135/27 135/138/27 133/137/27
f 128/75/3 129/136/3 133/137/3 132/79/3
f 136/139/6 137/140/6 139/141/6 138/142/6
f 138/142/1 139/141/1 143/143/1 142/144/1
f 142/144/4 143/143/4 141/145/4 140/146/4
f 140/146/3 141/145/3 137/147/3 136/148/3
f 139/141/7 137/140/7 144/149/7 145/150/7
f 137/147/7 141/145/7 146/151/7 144/152/7
f 143/143/7 139/141/7 145/150/7 147/153/7
f 141/145/7 143/143/7 147/153/7 146/151/7
f 144/152/28 146/151/28 148/154/28
f 147/153/29 145/150/29 148/155/29
f 146/151/30 147/153/30 148/156/30
f 145/150/31 144/149/31 148/157/31
f 149/158/6 150/159/6 152/160/6 151/161/6
f 151/161/1 152/160/1 156/162/1 155/163/1
f 155/163/4 156/162/4 154/164/4 153/165/4
f 153/165/3 154/164/3 150/166/3 149/167/3
f 156/162/5 152/168/5 150/169/5 154/164/5
