# Blender v2.82 (sub 7) OBJ File: 'trees.blend'
# www.blender.org
o apple_Sphere.002
v -0.500000 2.885327 -0.009284
v -0.500000 2.531770 0.091041
v -0.500000 2.856728 -0.146330
v -0.596906 2.894024 -0.049424
v -0.667846 2.802361 0.021516
v -0.693812 2.667065 0.047482
v -0.677859 2.531770 0.021516
v -0.582940 2.415334 -0.049424
v -0.637046 2.894024 -0.146330
v -0.737370 2.802361 -0.146330
v -0.774092 2.667065 -0.146330
v -0.751531 2.531770 -0.146330
v -0.617295 2.415334 -0.146330
v -0.596906 2.894024 -0.243236
v -0.667846 2.802361 -0.314176
v -0.693812 2.667065 -0.340142
v -0.677859 2.531770 -0.314176
v -0.582940 2.415334 -0.243236
v -0.500000 2.455359 -0.146330
v -0.500000 2.885327 -0.283376
v -0.500000 2.802361 -0.383700
v -0.500000 2.667065 -0.420422
v -0.500000 2.531770 -0.383700
v -0.500000 2.432728 -0.283376
v -0.403094 2.900426 -0.243236
v -0.332154 2.802361 -0.314176
v -0.306188 2.667065 -0.340142
v -0.322141 2.531770 -0.314176
v -0.417060 2.415334 -0.243236
v -0.362954 2.900426 -0.146330
v -0.262630 2.802361 -0.146330
v -0.225908 2.667065 -0.146330
v -0.248469 2.531770 -0.146330
v -0.382705 2.415334 -0.146330
v -0.403094 2.900426 -0.049424
v -0.332154 2.802361 0.021516
v -0.306188 2.667065 0.047482
v -0.322141 2.531770 0.021516
v -0.417060 2.415334 -0.049424
v -0.500000 2.802361 0.091040
v -0.500000 2.667065 0.127762
v -0.500000 2.432728 -0.009284
v -0.499546 2.853870 -0.140231
v -0.481343 2.977770 -0.153474
v -0.508283 3.004711 -0.125943
v -0.536681 2.966848 -0.153474
v -1.055470 2.036252 -0.009284
v -1.055470 1.682695 0.091041
v -1.055470 2.007652 -0.146330
v -1.152376 2.044949 -0.049424
v -1.223316 1.953285 0.021516
v -1.249282 1.817990 0.047482
v -1.233329 1.682695 0.021516
v -1.138410 1.566259 -0.049424
v -1.192516 2.044949 -0.146330
v -1.292840 1.953285 -0.146330
v -1.329562 1.817990 -0.146330
v -1.307001 1.682695 -0.146330
v -1.172765 1.566259 -0.146330
v -1.152376 2.044949 -0.243236
v -1.223316 1.953285 -0.314176
v -1.249282 1.817990 -0.340142
v -1.233329 1.682695 -0.314176
v -1.138410 1.566259 -0.243236
v -1.055470 1.606284 -0.146330
v -1.055470 2.036252 -0.283376
v -1.055470 1.953285 -0.383700
v -1.055470 1.817990 -0.420422
v -1.055470 1.682695 -0.383700
v -1.055470 1.583652 -0.283376
v -0.958564 2.051350 -0.243236
v -0.887624 1.953285 -0.314176
v -0.861658 1.817990 -0.340142
v -0.877611 1.682695 -0.314176
v -0.972530 1.566259 -0.243236
v -0.918424 2.051350 -0.146330
v -0.818100 1.953285 -0.146330
v -0.781378 1.817990 -0.146330
v -0.803939 1.682695 -0.146330
v -0.938175 1.566259 -0.146330
v -0.958564 2.051350 -0.049424
v -0.887624 1.953285 0.021516
v -0.861658 1.817990 0.047482
v -0.877611 1.682695 0.021516
v -0.972530 1.566259 -0.049424
v -1.055470 1.953285 0.091040
v -1.055470 1.817990 0.127762
v -1.055470 1.583652 -0.009284
v -1.055016 2.004795 -0.140231
v -1.036813 2.128694 -0.153474
v -1.063754 2.155635 -0.125943
v -1.092151 2.117773 -0.153474
v 0.142758 2.036252 -0.009284
v 0.142758 1.682695 0.091041
v 0.142758 2.007652 -0.146330
v 0.045852 2.044949 -0.049424
v -0.025088 1.953285 0.021516
v -0.051054 1.817990 0.047482
v -0.035101 1.682695 0.021516
v 0.059818 1.566259 -0.049424
v 0.005713 2.044949 -0.146330
v -0.094612 1.953285 -0.146330
v -0.131333 1.817990 -0.146330
v -0.108773 1.682695 -0.146330
v 0.025464 1.566259 -0.146330
v 0.045852 2.044949 -0.243236
v -0.025088 1.953285 -0.314176
v -0.051054 1.817990 -0.340142
v -0.035101 1.682695 -0.314176
v 0.059818 1.566259 -0.243236
v 0.142758 1.606284 -0.146330
v 0.142758 2.036252 -0.283376
v 0.142758 1.953285 -0.383700
v 0.142758 1.817990 -0.420422
v 0.142758 1.682695 -0.383700
v 0.142758 1.583652 -0.283376
v 0.239664 2.051350 -0.243236
v 0.310605 1.953285 -0.314176
v 0.336570 1.817990 -0.340142
v 0.320618 1.682695 -0.314176
v 0.225698 1.566259 -0.243236
v 0.279804 2.051350 -0.146330
v 0.380129 1.953285 -0.146330
v 0.416850 1.817990 -0.146330
v 0.394289 1.682695 -0.146330
v 0.260053 1.566259 -0.146330
v 0.239664 2.051350 -0.049424
v 0.310605 1.953285 0.021516
v 0.336570 1.817990 0.047482
v 0.320618 1.682695 0.021516
v 0.225698 1.566259 -0.049424
v 0.142758 1.953285 0.091040
v 0.142758 1.817990 0.127762
v 0.142758 1.583652 -0.009284
v 0.143212 2.004795 -0.140231
v 0.161415 2.128694 -0.153474
v 0.134475 2.155635 -0.125943
v 0.106078 2.117773 -0.153474
vt 0.935041 0.836242
vt 0.935041 0.872809
vt 0.907616 0.872809
vt 0.907616 0.836242
vt 0.935041 0.909375
vt 0.935041 0.945942
vt 0.907616 0.945942
vt 0.907616 0.909375
vt 0.935041 0.799676
vt 0.907616 0.799676
vt 0.921328 0.982508
vt 0.921328 0.763109
vt 0.880191 0.836242
vt 0.880191 0.799676
vt 0.880191 0.909375
vt 0.880191 0.872809
vt 0.893903 0.982508
vt 0.880191 0.945942
vt 0.893903 0.763109
vt 0.852766 0.836242
vt 0.852766 0.799676
vt 0.852766 0.909375
vt 0.852766 0.872809
vt 0.866479 0.982508
vt 0.852766 0.945942
vt 0.866479 0.763109
vt 0.825341 0.836242
vt 0.825341 0.799676
vt 0.825341 0.909375
vt 0.825341 0.872809
vt 0.839054 0.982508
vt 0.825341 0.945942
vt 0.839054 0.763109
vt 0.797916 0.909375
vt 0.797916 0.872809
vt 0.811629 0.982508
vt 0.797916 0.945942
vt 0.811629 0.763109
vt 0.797916 0.799676
vt 0.797916 0.836242
vt 0.784204 0.982508
vt 0.770491 0.945942
vt 0.784204 0.763109
vt 0.770491 0.799676
vt 0.770491 0.872809
vt 0.770491 0.836242
vt 0.770491 0.909375
vt 0.976178 0.763109
vt 0.989890 0.799676
vt 0.962466 0.799676
vt 0.989890 0.836242
vt 0.989890 0.872809
vt 0.962466 0.872809
vt 0.962466 0.836242
vt 0.989890 0.909375
vt 0.989890 0.945942
vt 0.962466 0.945942
vt 0.962466 0.909375
vt 0.976178 0.982508
vt 0.948753 0.763109
vt 0.948753 0.982508
vt 0.521640 0.697015
vt 0.521640 0.697015
vt 0.521640 0.697015
vt 0.521640 0.697015
vt 0.935041 0.836242
vt 0.935041 0.872809
vt 0.907616 0.872809
vt 0.907616 0.836242
vt 0.935041 0.909375
vt 0.935041 0.945942
vt 0.907616 0.945942
vt 0.907616 0.909375
vt 0.935041 0.799676
vt 0.907616 0.799676
vt 0.921328 0.982508
vt 0.921328 0.763109
vt 0.880191 0.836242
vt 0.880191 0.799676
vt 0.880191 0.909375
vt 0.880191 0.872809
vt 0.893903 0.982508
vt 0.880191 0.945942
vt 0.893903 0.763109
vt 0.852766 0.836242
vt 0.852766 0.799676
vt 0.852766 0.909375
vt 0.852766 0.872809
vt 0.866479 0.982508
vt 0.852766 0.945942
vt 0.866479 0.763109
vt 0.825341 0.836242
vt 0.825341 0.799676
vt 0.825341 0.909375
vt 0.825341 0.872809
vt 0.839054 0.982508
vt 0.825341 0.945942
vt 0.839054 0.763109
vt 0.797916 0.909375
vt 0.797916 0.872809
vt 0.811629 0.982508
vt 0.797916 0.945942
vt 0.811629 0.763109
vt 0.797916 0.799676
vt 0.797916 0.836242
vt 0.784204 0.982508
vt 0.770491 0.945942
vt 0.784204 0.763109
vt 0.770491 0.799676
vt 0.770491 0.872809
vt 0.770491 0.836242
vt 0.770491 0.909375
vt 0.976178 0.763109
vt 0.989890 0.799676
vt 0.962466 0.799676
vt 0.989890 0.836242
vt 0.989890 0.872809
vt 0.962466 0.872809
vt 0.962466 0.836242
vt 0.989890 0.909375
vt 0.989890 0.945942
vt 0.962466 0.945942
vt 0.962466 0.909375
vt 0.976178 0.982508
vt 0.948753 0.763109
vt 0.948753 0.982508
vt 0.521640 0.697015
vt 0.521640 0.697015
vt 0.521640 0.697015
vt 0.521640 0.697015
vt 0.935041 0.836242
vt 0.935041 0.872809
vt 0.907616 0.872809
vt 0.907616 0.836242
vt 0.935041 0.909375
vt 0.935041 0.945942
vt 0.907616 0.945942
vt 0.907616 0.909375
vt 0.935041 0.799676
vt 0.907616 0.799676
vt 0.921328 0.982508
vt 0.921328 0.763109
vt 0.880191 0.836242
vt 0.880191 0.799676
vt 0.880191 0.909375
vt 0.880191 0.872809
vt 0.893903 0.982508
vt 0.880191 0.945942
vt 0.893903 0.763109
vt 0.852766 0.836242
vt 0.852766 0.799676
vt 0.852766 0.909375
vt 0.852766 0.872809
vt 0.866479 0.982508
vt 0.852766 0.945942
vt 0.866479 0.763109
vt 0.825341 0.836242
vt 0.825341 0.799676
vt 0.825341 0.909375
vt 0.825341 0.872809
vt 0.839054 0.982508
vt 0.825341 0.945942
vt 0.839054 0.763109
vt 0.797916 0.909375
vt 0.797916 0.872809
vt 0.811629 0.982508
vt 0.797916 0.945942
vt 0.811629 0.763109
vt 0.797916 0.799676
vt 0.797916 0.836242
vt 0.784204 0.982508
vt 0.770491 0.945942
vt 0.784204 0.763109
vt 0.770491 0.799676
vt 0.770491 0.872809
vt 0.770491 0.836242
vt 0.770491 0.909375
vt 0.976178 0.763109
vt 0.989890 0.799676
vt 0.962466 0.799676
vt 0.989890 0.836242
vt 0.989890 0.872809
vt 0.962466 0.872809
vt 0.962466 0.836242
vt 0.989890 0.909375
vt 0.989890 0.945942
vt 0.962466 0.945942
vt 0.962466 0.909375
vt 0.976178 0.982508
vt 0.948753 0.763109
vt 0.948753 0.982508
vt 0.521640 0.697015
vt 0.521640 0.697015
vt 0.521640 0.697015
vt 0.521640 0.697015
vn 0.0000 -0.4610 0.8874
vn 0.0000 0.0070 1.0000
vn -0.6997 0.0228 0.7140
vn -0.6288 -0.4629 0.6247
vn -0.0023 0.4947 0.8690
vn -0.0156 0.9289 0.3700
vn -0.2178 0.9439 0.2482
vn -0.6108 0.4981 0.6155
vn 0.0000 -0.8936 0.4488
vn -0.1816 -0.9428 0.2796
vn -0.0255 0.9997 0.0000
vn 0.0000 -1.0000 0.0000
vn -0.8904 -0.4551 0.0000
vn -0.2995 -0.9541 0.0000
vn -0.8703 0.4925 0.0000
vn -0.9992 0.0398 0.0000
vn -0.3414 0.9399 0.0000
vn -0.6288 -0.4629 -0.6247
vn -0.1816 -0.9428 -0.2796
vn -0.6108 0.4981 -0.6155
vn -0.6997 0.0228 -0.7140
vn -0.2178 0.9439 -0.2482
vn 0.0000 -0.4610 -0.8874
vn 0.0000 -0.8936 -0.4488
vn -0.0023 0.4947 -0.8690
vn 0.0000 0.0070 -1.0000
vn -0.0156 0.9289 -0.3700
vn 0.6125 0.4894 -0.6207
vn 0.6997 0.0228 -0.7140
vn 0.2028 0.9452 -0.2557
vn 0.1816 -0.9428 -0.2796
vn 0.6288 -0.4629 -0.6247
vn 0.3440 0.9390 0.0000
vn 0.2995 -0.9541 0.0000
vn 0.9992 0.0398 0.0000
vn 0.8904 -0.4551 0.0000
vn 0.8772 0.4801 0.0000
vn 0.1816 -0.9428 0.2796
vn 0.6997 0.0228 0.7140
vn 0.6288 -0.4629 0.6247
vn 0.2028 0.9452 0.2557
vn 0.6125 0.4894 0.6207
vn -0.0457 0.8798 0.4732
vn 0.8451 0.3412 -0.4114
vn -0.9238 0.1274 -0.3611
vn 0.0764 -0.9962 0.0420
s 1
f 2/1/1 41/2/2 6/3/3 7/4/4
f 40/5/5 1/6/6 4/7/7 5/8/8
f 42/9/9 2/1/1 7/4/4 8/10/10
f 41/2/2 40/5/5 5/8/8 6/3/3
f 1/6/6 3/11/11 4/7/7
f 19/12/12 42/9/9 8/10/10
f 8/10/10 7/4/4 12/13/13 13/14/14
f 6/3/3 5/8/8 10/15/15 11/16/16
f 4/7/7 3/17/11 9/18/17
f 19/19/12 8/10/10 13/14/14
f 7/4/4 6/3/3 11/16/16 12/13/13
f 5/8/8 4/7/7 9/18/17 10/15/15
f 13/14/14 12/13/13 17/20/18 18/21/19
f 11/16/16 10/15/15 15/22/20 16/23/21
f 9/18/17 3/24/11 14/25/22
f 19/26/12 13/14/14 18/21/19
f 12/13/13 11/16/16 16/23/21 17/20/18
f 10/15/15 9/18/17 14/25/22 15/22/20
f 18/21/19 17/20/18 23/27/23 24/28/24
f 16/23/21 15/22/20 21/29/25 22/30/26
f 14/25/22 3/31/11 20/32/27
f 19/33/12 18/21/19 24/28/24
f 17/20/18 16/23/21 22/30/26 23/27/23
f 15/22/20 14/25/22 20/32/27 21/29/25
f 22/30/26 21/29/25 26/34/28 27/35/29
f 20/32/27 3/36/11 25/37/30
f 19/38/12 24/28/24 29/39/31
f 23/27/23 22/30/26 27/35/29 28/40/32
f 21/29/25 20/32/27 25/37/30 26/34/28
f 24/28/24 23/27/23 28/40/32 29/39/31
f 25/37/30 3/41/11 30/42/33
f 19/43/12 29/39/31 34/44/34
f 28/40/32 27/35/29 32/45/35 33/46/36
f 26/34/28 25/37/30 30/42/33 31/47/37
f 29/39/31 28/40/32 33/46/36 34/44/34
f 27/35/29 26/34/28 31/47/37 32/45/35
f 19/48/12 34/49/34 39/50/38
f 33/51/36 32/52/35 37/53/39 38/54/40
f 31/55/37 30/56/33 35/57/41 36/58/42
f 34/49/34 33/51/36 38/54/40 39/50/38
f 32/52/35 31/55/37 36/58/42 37/53/39
f 30/56/33 3/59/11 35/57/41
f 19/60/12 39/50/38 42/9/9
f 38/54/40 37/53/39 41/2/2 2/1/1
f 36/58/42 35/57/41 1/6/6 40/5/5
f 39/50/38 38/54/40 2/1/1 42/9/9
f 37/53/39 36/58/42 40/5/5 41/2/2
f 35/57/41 3/61/11 1/6/6
f 45/62/43 44/63/44 46/64/45
f 44/63/44 45/62/43 43/65/46
f 45/62/43 46/64/45 43/65/46
f 43/65/46 46/64/45 44/63/44
f 48/66/1 87/67/2 52/68/3 53/69/4
f 86/70/5 47/71/6 50/72/7 51/73/8
f 88/74/9 48/66/1 53/69/4 54/75/10
f 87/67/2 86/70/5 51/73/8 52/68/3
f 47/71/6 49/76/11 50/72/7
f 65/77/12 88/74/9 54/75/10
f 54/75/10 53/69/4 58/78/13 59/79/14
f 52/68/3 51/73/8 56/80/15 57/81/16
f 50/72/7 49/82/11 55/83/17
f 65/84/12 54/75/10 59/79/14
f 53/69/4 52/68/3 57/81/16 58/78/13
f 51/73/8 50/72/7 55/83/17 56/80/15
f 59/79/14 58/78/13 63/85/18 64/86/19
f 57/81/16 56/80/15 61/87/20 62/88/21
f 55/83/17 49/89/11 60/90/22
f 65/91/12 59/79/14 64/86/19
f 58/78/13 57/81/16 62/88/21 63/85/18
f 56/80/15 55/83/17 60/90/22 61/87/20
f 64/86/19 63/85/18 69/92/23 70/93/24
f 62/88/21 61/87/20 67/94/25 68/95/26
f 60/90/22 49/96/11 66/97/27
f 65/98/12 64/86/19 70/93/24
f 63/85/18 62/88/21 68/95/26 69/92/23
f 61/87/20 60/90/22 66/97/27 67/94/25
f 68/95/26 67/94/25 72/99/28 73/100/29
f 66/97/27 49/101/11 71/102/30
f 65/103/12 70/93/24 75/104/31
f 69/92/23 68/95/26 73/100/29 74/105/32
f 67/94/25 66/97/27 71/102/30 72/99/28
f 70/93/24 69/92/23 74/105/32 75/104/31
f 71/102/30 49/106/11 76/107/33
f 65/108/12 75/104/31 80/109/34
f 74/105/32 73/100/29 78/110/35 79/111/36
f 72/99/28 71/102/30 76/107/33 77/112/37
f 75/104/31 74/105/32 79/111/36 80/109/34
f 73/100/29 72/99/28 77/112/37 78/110/35
f 65/113/12 80/114/34 85/115/38
f 79/116/36 78/117/35 83/118/39 84/119/40
f 77/120/37 76/121/33 81/122/41 82/123/42
f 80/114/34 79/116/36 84/119/40 85/115/38
f 78/117/35 77/120/37 82/123/42 83/118/39
f 76/121/33 49/124/11 81/122/41
f 65/125/12 85/115/38 88/74/9
f 84/119/40 83/118/39 87/67/2 48/66/1
f 82/123/42 81/122/41 47/71/6 86/70/5
f 85/115/38 84/119/40 48/66/1 88/74/9
f 83/118/39 82/123/42 86/70/5 87/67/2
f 81/122/41 49/126/11 47/71/6
f 91/127/43 90/128/44 92/129/45
f 90/128/44 91/127/43 89/130/46
f 91/127/43 92/129/45 89/130/46
f 89/130/46 92/129/45 90/128/44
f 94/131/1 133/132/2 98/133/3 99/134/4
f 132/135/5 93/136/6 96/137/7 97/138/8
f 134/139/9 94/131/1 99/134/4 100/140/10
f 133/132/2 132/135/5 97/138/8 98/133/3
f 93/136/6 95/141/11 96/137/7
f 111/142/12 134/139/9 100/140/10
f 100/140/10 99/134/4 104/143/13 105/144/14
f 98/133/3 97/138/8 102/145/15 103/146/16
f 96/137/7 95/147/11 101/148/17
f 111/149/12 100/140/10 105/144/14
f 99/134/4 98/133/3 103/146/16 104/143/13
f 97/138/8 96/137/7 101/148/17 102/145/15
f 105/144/14 104/143/13 109/150/18 110/151/19
f 103/146/16 102/145/15 107/152/20 108/153/21
f 101/148/17 95/154/11 106/155/22
f 111/156/12 105/144/14 110/151/19
f 104/143/13 103/146/16 108/153/21 109/150/18
f 102/145/15 101/148/17 106/155/22 107/152/20
f 110/151/19 109/150/18 115/157/23 116/158/24
f 108/153/21 107/152/20 113/159/25 114/160/26
f 106/155/22 95/161/11 112/162/27
f 111/163/12 110/151/19 116/158/24
f 109/150/18 108/153/21 114/160/26 115/157/23
f 107/152/20 106/155/22 112/162/27 113/159/25
f 114/160/26 113/159/25 118/164/28 119/165/29
f 112/162/27 95/166/11 117/167/30
f 111/168/12 116/158/24 121/169/31
f 115/157/23 114/160/26 119/165/29 120/170/32
f 113/159/25 112/162/27 117/167/30 118/164/28
f 116/158/24 115/157/23 120/170/32 121/169/31
f 117/167/30 95/171/11 122/172/33
f 111/173/12 121/169/31 126/174/34
f 120/170/32 119/165/29 124/175/35 125/176/36
f 118/164/28 117/167/30 122/172/33 123/177/37
f 121/169/31 120/170/32 125/176/36 126/174/34
f 119/165/29 118/164/28 123/177/37 124/175/35
f 111/178/12 126/179/34 131/180/38
f 125/181/36 124/182/35 129/183/39 130/184/40
f 123/185/37 122/186/33 127/187/41 128/188/42
f 126/179/34 125/181/36 130/184/40 131/180/38
f 124/182/35 123/185/37 128/188/42 129/183/39
f 122/186/33 95/189/11 127/187/41
f 111/190/12 131/180/38 134/139/9
f 130/184/40 129/183/39 133/132/2 94/131/1
f 128/188/42 127/187/41 93/136/6 132/135/5
f 131/180/38 130/184/40 94/131/1 134/139/9
f 129/183/39 128/188/42 132/135/5 133/132/2
f 127/187/41 95/191/11 93/136/6
f 137/192/43 136/193/44 138/194/45
f 136/193/44 137/192/43 135/195/46
f 137/192/43 138/194/45 135/195/46
f 135/195/46 138/194/45 136/193/44
