# Blender v2.82 (sub 7) OBJ File: 'trees.blend'
# www.blender.org
o money_Sphere.007
v -0.500000 2.875772 0.056397
v -0.500000 2.494334 0.091011
v -0.500000 2.920994 -0.074790
v -0.614955 2.882743 0.016867
v -0.699107 2.772886 0.069531
v -0.729909 2.635138 0.071608
v -0.699107 2.506407 0.022543
v -0.651203 2.444692 -0.060373
v -0.662570 2.899567 -0.078568
v -0.781580 2.802029 -0.095766
v -0.825141 2.668789 -0.119260
v -0.781580 2.535549 -0.142754
v -0.713833 2.461517 -0.155808
v -0.614955 2.916394 -0.174002
v -0.699107 2.831175 -0.261063
v -0.729909 2.702444 -0.310128
v -0.699107 2.564695 -0.308050
v -0.651203 2.478345 -0.251242
v -0.500000 2.440589 -0.159498
v -0.500000 2.923364 -0.213532
v -0.500000 2.843248 -0.329531
v -0.500000 2.716385 -0.389188
v -0.500000 2.576768 -0.376518
v -0.500000 2.485315 -0.290772
v -0.385045 2.916394 -0.174002
v -0.300893 2.831175 -0.261063
v -0.270091 2.702444 -0.310128
v -0.300893 2.564695 -0.308050
v -0.348797 2.478345 -0.251242
v -0.337430 2.899567 -0.078568
v -0.218420 2.802029 -0.095766
v -0.174859 2.668789 -0.119260
v -0.218420 2.535549 -0.142754
v -0.286167 2.461517 -0.155808
v -0.385045 2.882743 0.016867
v -0.300893 2.772886 0.069531
v -0.270091 2.635138 0.071608
v -0.300893 2.506407 0.022543
v -0.348797 2.444692 -0.060373
v -0.500000 2.760813 0.137999
v -0.500000 2.621197 0.150668
v -0.500000 2.437721 -0.020843
v -0.534670 2.937707 -0.030713
v -0.522300 3.121647 -0.079229
v -0.588300 3.073227 0.036265
v -0.741515 3.002759 -0.100192
v -0.482114 2.889262 -0.058083
v -0.467124 2.898546 -0.084973
v -0.518661 2.883224 -0.086641
v -0.475990 3.004072 -0.084460
v -0.517933 2.977904 -0.009290
v -0.620005 2.959904 -0.089470
v -0.587691 2.930763 -0.046152
v -0.581862 2.895083 -0.051619
v -0.597712 2.931740 -0.077098
v -0.592353 2.896059 -0.083082
v -0.589509 2.939218 -0.100609
v -0.583717 2.902781 -0.101913
v -0.537241 2.949125 -0.104665
v -0.530368 2.913826 -0.111342
v -0.476560 2.956821 -0.093493
v -0.476249 2.921681 -0.099939
v -0.461505 2.956885 -0.068455
v -0.453064 2.921746 -0.074383
v -0.482402 2.948528 -0.039951
v -0.474394 2.913983 -0.049645
v -0.527743 2.902939 -0.040216
v -1.095147 2.018762 0.056397
v -1.095147 1.637323 0.091011
v -1.095147 2.063983 -0.074790
v -1.210101 2.025732 0.016867
v -1.294254 1.915875 0.069531
v -1.325056 1.778127 0.071608
v -1.294254 1.649396 0.022543
v -1.246349 1.587681 -0.060373
v -1.257717 2.042556 -0.078568
v -1.376727 1.945018 -0.095767
v -1.420287 1.811778 -0.119260
v -1.376727 1.678538 -0.142754
v -1.308980 1.604506 -0.155808
v -1.210101 2.059383 -0.174002
v -1.294254 1.974164 -0.261063
v -1.325056 1.845433 -0.310128
v -1.294254 1.707685 -0.308050
v -1.246349 1.621334 -0.251242
v -1.095147 1.583578 -0.159498
v -1.095147 2.066354 -0.213532
v -1.095147 1.986237 -0.329531
v -1.095147 1.859374 -0.389188
v -1.095147 1.719757 -0.376518
v -1.095147 1.628304 -0.290772
v -0.980192 2.059383 -0.174002
v -0.896039 1.974164 -0.261063
v -0.865237 1.845433 -0.310128
v -0.896039 1.707685 -0.308050
v -0.943944 1.621334 -0.251242
v -0.932576 2.042556 -0.078568
v -0.813567 1.945018 -0.095767
v -0.770006 1.811778 -0.119260
v -0.813567 1.678538 -0.142754
v -0.881314 1.604506 -0.155808
v -0.980192 2.025732 0.016867
v -0.896039 1.915875 0.069531
v -0.865237 1.778127 0.071608
v -0.896039 1.649396 0.022543
v -0.943944 1.587681 -0.060374
v -1.095147 1.903803 0.137998
v -1.095147 1.764186 0.150668
v -1.095147 1.580711 -0.020844
v -1.129816 2.080696 -0.030713
v -1.117447 2.264636 -0.079229
v -1.183447 2.216217 0.036265
v -1.336661 2.145748 -0.100192
v -1.077260 2.032252 -0.058083
v -1.062270 2.041536 -0.084973
v -1.113807 2.026213 -0.086641
v -1.071136 2.147061 -0.084460
v -1.113080 2.120894 -0.009290
v -1.215152 2.102893 -0.089470
v -1.182837 2.073752 -0.046152
v -1.177008 2.038073 -0.051619
v -1.192859 2.074729 -0.077098
v -1.187499 2.039048 -0.083082
v -1.184655 2.082207 -0.100609
v -1.178863 2.045770 -0.101913
v -1.132387 2.092114 -0.104665
v -1.125514 2.056815 -0.111342
v -1.071706 2.099810 -0.093493
v -1.071396 2.064670 -0.099939
v -1.056651 2.099874 -0.068455
v -1.048210 2.064735 -0.074383
v -1.077548 2.091517 -0.039951
v -1.069540 2.056973 -0.049645
v -1.122890 2.045928 -0.040216
v 0.134823 2.018762 0.056397
v 0.134823 1.637323 0.091011
v 0.134823 2.063983 -0.074790
v 0.019868 2.025732 0.016867
v -0.064284 1.915875 0.069531
v -0.095086 1.778127 0.071608
v -0.064284 1.649396 0.022543
v -0.016380 1.587681 -0.060373
v -0.027748 2.042556 -0.078568
v -0.146757 1.945018 -0.095767
v -0.190318 1.811778 -0.119260
v -0.146757 1.678538 -0.142754
v -0.079010 1.604506 -0.155808
v 0.019868 2.059383 -0.174002
v -0.064284 1.974164 -0.261063
v -0.095086 1.845433 -0.310128
v -0.064284 1.707685 -0.308050
v -0.016380 1.621334 -0.251242
v 0.134823 1.583578 -0.159498
v 0.134823 2.066354 -0.213532
v 0.134823 1.986237 -0.329531
v 0.134823 1.859374 -0.389188
v 0.134823 1.719757 -0.376518
v 0.134823 1.628304 -0.290772
v 0.249777 2.059383 -0.174002
v 0.333930 1.974164 -0.261063
v 0.364732 1.845433 -0.310128
v 0.333930 1.707685 -0.308050
v 0.286025 1.621334 -0.251242
v 0.297393 2.042556 -0.078568
v 0.416403 1.945018 -0.095767
v 0.459963 1.811778 -0.119260
v 0.416403 1.678538 -0.142754
v 0.348656 1.604506 -0.155808
v 0.249777 2.025732 0.016867
v 0.333930 1.915875 0.069531
v 0.364732 1.778127 0.071608
v 0.333930 1.649396 0.022543
v 0.286025 1.587681 -0.060374
v 0.134823 1.903803 0.137998
v 0.134823 1.764186 0.150668
v 0.134823 1.580711 -0.020844
v 0.100153 2.080696 -0.030713
v 0.112522 2.264636 -0.079229
v 0.046523 2.216217 0.036265
v -0.106692 2.145748 -0.100192
v 0.152709 2.032252 -0.058083
v 0.167699 2.041536 -0.084973
v 0.116162 2.026213 -0.086641
v 0.158833 2.147061 -0.084460
v 0.116889 2.120894 -0.009290
v 0.014818 2.102893 -0.089470
v 0.047132 2.073752 -0.046152
v 0.052962 2.038073 -0.051619
v 0.037111 2.074729 -0.077098
v 0.042470 2.039048 -0.083082
v 0.045314 2.082207 -0.100609
v 0.051106 2.045770 -0.101913
v 0.097582 2.092114 -0.104665
v 0.104456 2.056815 -0.111342
v 0.158263 2.099810 -0.093493
v 0.158574 2.064670 -0.099939
v 0.173318 2.099874 -0.068455
v 0.181759 2.064735 -0.074383
v 0.152421 2.091517 -0.039951
v 0.160429 2.056973 -0.049645
v 0.107080 2.045928 -0.040216
vt 0.991188 0.311143
vt 0.991188 0.371683
vt 0.985681 0.371683
vt 0.985681 0.311143
vt 0.991188 0.433687
vt 0.991042 0.492857
vt 0.985633 0.492857
vt 0.985681 0.433687
vt 0.991042 0.261677
vt 0.985633 0.261677
vt 0.988337 0.499320
vt 0.988337 0.253414
vt 0.980174 0.311143
vt 0.980223 0.261677
vt 0.980174 0.433687
vt 0.980174 0.371683
vt 0.982928 0.499320
vt 0.980223 0.492857
vt 0.982928 0.253414
vt 0.974667 0.311143
vt 0.974813 0.261677
vt 0.974667 0.433687
vt 0.974667 0.371683
vt 0.977518 0.499320
vt 0.974813 0.492857
vt 0.977518 0.253414
vt 0.933233 0.260912
vt 0.966707 0.310210
vt 0.876500 0.318804
vt 0.877965 0.265762
vt 0.978420 0.372213
vt 0.966707 0.434216
vt 0.876500 0.425623
vt 0.876500 0.372213
vt 0.972108 0.499320
vt 0.972147 0.492857
vt 0.972108 0.253414
vt 0.972147 0.261677
vt 0.931768 0.492876
vt 0.876500 0.482975
vt 0.786292 0.434216
vt 0.774579 0.372213
vt 0.971653 0.499320
vt 0.971159 0.492857
vt 0.971653 0.253414
vt 0.971159 0.261677
vt 0.786292 0.310210
vt 0.821232 0.492876
vt 0.822697 0.260912
vt 0.970665 0.499320
vt 0.970170 0.492857
vt 0.970665 0.253414
vt 0.970170 0.261677
vt 0.971159 0.311143
vt 0.971159 0.371683
vt 0.970170 0.371683
vt 0.970170 0.311143
vt 0.971159 0.433687
vt 0.970170 0.433687
vt 0.993342 0.253414
vt 0.993960 0.261677
vt 0.992723 0.261677
vt 0.993960 0.311143
vt 0.993960 0.371683
vt 0.992723 0.371683
vt 0.992723 0.311143
vt 0.993960 0.433687
vt 0.993960 0.492857
vt 0.992723 0.492857
vt 0.992723 0.433687
vt 0.993342 0.499320
vt 0.991853 0.253414
vt 0.991853 0.499320
vt 0.803074 0.492194
vt 0.803074 0.492194
vt 0.803074 0.492194
vt 0.803074 0.492194
vt 0.803074 0.492194
vt 0.803074 0.492194
vt 0.803074 0.492194
vt 0.803074 0.492194
vt 0.803074 0.492194
vt 0.757843 0.491641
vt 0.753498 0.491641
vt 0.753498 0.490250
vt 0.757843 0.490250
vt 0.753498 0.488859
vt 0.757843 0.488859
vt 0.757843 0.493033
vt 0.753498 0.493033
vt 0.753498 0.487468
vt 0.757843 0.487468
vt 0.753498 0.486077
vt 0.757843 0.486077
vt 0.753498 0.484686
vt 0.757843 0.484686
vt 0.757843 0.495815
vt 0.753498 0.495815
vt 0.753498 0.494424
vt 0.757843 0.494424
vt 0.991188 0.311143
vt 0.991188 0.371683
vt 0.985681 0.371683
vt 0.985681 0.311143
vt 0.991188 0.433687
vt 0.991042 0.492857
vt 0.985633 0.492857
vt 0.985681 0.433687
vt 0.991042 0.261677
vt 0.985633 0.261677
vt 0.988337 0.499320
vt 0.988337 0.253414
vt 0.980174 0.311143
vt 0.980223 0.261677
vt 0.980174 0.433687
vt 0.980174 0.371683
vt 0.982928 0.499320
vt 0.980223 0.492857
vt 0.982928 0.253414
vt 0.974667 0.311143
vt 0.974813 0.261677
vt 0.974667 0.433687
vt 0.974667 0.371683
vt 0.977518 0.499320
vt 0.974813 0.492857
vt 0.977518 0.253414
vt 0.933233 0.260912
vt 0.966707 0.310210
vt 0.876500 0.318804
vt 0.877965 0.265762
vt 0.978420 0.372213
vt 0.966707 0.434216
vt 0.876500 0.425623
vt 0.876500 0.372213
vt 0.972108 0.499320
vt 0.972147 0.492857
vt 0.972108 0.253414
vt 0.972147 0.261677
vt 0.931768 0.492876
vt 0.876500 0.482975
vt 0.786292 0.434216
vt 0.774579 0.372213
vt 0.971653 0.499320
vt 0.971159 0.492857
vt 0.971653 0.253414
vt 0.971159 0.261677
vt 0.786292 0.310210
vt 0.821232 0.492876
vt 0.822697 0.260912
vt 0.970665 0.499320
vt 0.970170 0.492857
vt 0.970665 0.253414
vt 0.970170 0.261677
vt 0.971159 0.311143
vt 0.971159 0.371683
vt 0.970170 0.371683
vt 0.970170 0.311143
vt 0.971159 0.433687
vt 0.970170 0.433687
vt 0.993342 0.253414
vt 0.993960 0.261677
vt 0.992723 0.261677
vt 0.993960 0.311143
vt 0.993960 0.371683
vt 0.992723 0.371683
vt 0.992723 0.311143
vt 0.993960 0.433687
vt 0.993960 0.492857
vt 0.992723 0.492857
vt 0.992723 0.433687
vt 0.993342 0.499320
vt 0.991853 0.253414
vt 0.991853 0.499320
vt 0.803074 0.492194
vt 0.803074 0.492194
vt 0.803074 0.492194
vt 0.803074 0.492194
vt 0.803074 0.492194
vt 0.803074 0.492194
vt 0.803074 0.492194
vt 0.803074 0.492194
vt 0.803074 0.492194
vt 0.757843 0.491641
vt 0.753498 0.491641
vt 0.753498 0.490250
vt 0.757843 0.490250
vt 0.753498 0.488859
vt 0.757843 0.488859
vt 0.757843 0.493033
vt 0.753498 0.493033
vt 0.753498 0.487468
vt 0.757843 0.487468
vt 0.753498 0.486077
vt 0.757843 0.486077
vt 0.753498 0.484686
vt 0.757843 0.484686
vt 0.757843 0.495815
vt 0.753498 0.495815
vt 0.753498 0.494424
vt 0.757843 0.494424
vt 0.991188 0.311143
vt 0.991188 0.371683
vt 0.985681 0.371683
vt 0.985681 0.311143
vt 0.991188 0.433687
vt 0.991042 0.492857
vt 0.985633 0.492857
vt 0.985681 0.433687
vt 0.991042 0.261677
vt 0.985633 0.261677
vt 0.988337 0.499320
vt 0.988337 0.253414
vt 0.980174 0.311143
vt 0.980223 0.261677
vt 0.980174 0.433687
vt 0.980174 0.371683
vt 0.982928 0.499320
vt 0.980223 0.492857
vt 0.982928 0.253414
vt 0.974667 0.311143
vt 0.974813 0.261677
vt 0.974667 0.433687
vt 0.974667 0.371683
vt 0.977518 0.499320
vt 0.974813 0.492857
vt 0.977518 0.253414
vt 0.933233 0.260912
vt 0.966707 0.310210
vt 0.876500 0.318804
vt 0.877965 0.265762
vt 0.978420 0.372213
vt 0.966707 0.434216
vt 0.876500 0.425623
vt 0.876500 0.372213
vt 0.972108 0.499320
vt 0.972147 0.492857
vt 0.972108 0.253414
vt 0.972147 0.261677
vt 0.931768 0.492876
vt 0.876500 0.482975
vt 0.786292 0.434216
vt 0.774579 0.372213
vt 0.971653 0.499320
vt 0.971159 0.492857
vt 0.971653 0.253414
vt 0.971159 0.261677
vt 0.786292 0.310210
vt 0.821232 0.492876
vt 0.822697 0.260912
vt 0.970665 0.499320
vt 0.970170 0.492857
vt 0.970665 0.253414
vt 0.970170 0.261677
vt 0.971159 0.311143
vt 0.971159 0.371683
vt 0.970170 0.371683
vt 0.970170 0.311143
vt 0.971159 0.433687
vt 0.970170 0.433687
vt 0.993342 0.253414
vt 0.993960 0.261677
vt 0.992723 0.261677
vt 0.993960 0.311143
vt 0.993960 0.371683
vt 0.992723 0.371683
vt 0.992723 0.311143
vt 0.993960 0.433687
vt 0.993960 0.492857
vt 0.992723 0.492857
vt 0.992723 0.433687
vt 0.993342 0.499320
vt 0.991853 0.253414
vt 0.991853 0.499320
vt 0.803074 0.492194
vt 0.803074 0.492194
vt 0.803074 0.492194
vt 0.803074 0.492194
vt 0.803074 0.492194
vt 0.803074 0.492194
vt 0.803074 0.492194
vt 0.803074 0.492194
vt 0.803074 0.492194
vt 0.757843 0.491641
vt 0.753498 0.491641
vt 0.753498 0.490250
vt 0.757843 0.490250
vt 0.753498 0.488859
vt 0.757843 0.488859
vt 0.757843 0.493033
vt 0.753498 0.493033
vt 0.753498 0.487468
vt 0.757843 0.487468
vt 0.753498 0.486077
vt 0.757843 0.486077
vt 0.753498 0.484686
vt 0.757843 0.484686
vt 0.757843 0.495815
vt 0.753498 0.495815
vt 0.753498 0.494424
vt 0.757843 0.494424
vn 0.0000 -0.6592 0.7519
vn 0.0000 -0.1736 0.9848
vn -0.6699 -0.1289 0.7311
vn -0.5576 -0.6134 0.5593
vn 0.0000 0.3222 0.9467
vn 0.0000 0.7659 0.6429
vn -0.3107 0.7974 0.5173
vn -0.5730 0.3838 0.7241
vn 0.0000 -0.9611 0.2762
vn -0.3086 -0.9309 0.1954
vn 0.0000 0.9848 0.1736
vn 0.0000 -0.9848 -0.1736
vn -0.8665 -0.4916 -0.0867
vn -0.5111 -0.8464 -0.1492
vn -0.8505 0.5179 0.0913
vn -1.0000 0.0000 0.0000
vn -0.4646 0.8721 0.1538
vn -0.5576 -0.3851 -0.7353
vn -0.3086 -0.8079 -0.5020
vn -0.5730 0.6083 -0.5492
vn -0.6699 0.1289 -0.7311
vn -0.3107 0.9262 -0.2134
vn 0.0000 -0.3623 -0.9320
vn 0.0000 -0.8087 -0.5882
vn 0.0000 0.6265 -0.7794
vn 0.0000 0.1736 -0.9848
vn 0.0000 0.9396 -0.3422
vn 0.5730 0.6083 -0.5492
vn 0.6699 0.1289 -0.7311
vn 0.3107 0.9262 -0.2134
vn 0.3086 -0.8079 -0.5020
vn 0.5576 -0.3851 -0.7353
vn 0.4646 0.8721 0.1538
vn 0.5111 -0.8464 -0.1492
vn 1.0000 0.0000 0.0000
vn 0.8665 -0.4916 -0.0867
vn 0.8505 0.5179 0.0913
vn 0.3086 -0.9309 0.1954
vn 0.6699 -0.1289 0.7311
vn 0.5576 -0.6134 0.5593
vn 0.3107 0.7974 0.5173
vn 0.5730 0.3838 0.7241
vn -0.1249 0.3544 0.9267
vn 0.4355 0.8383 -0.3281
vn -0.9581 -0.0893 -0.2721
vn 0.8734 0.2142 -0.4373
vn 0.3490 -0.2701 0.8973
vn 0.3514 -0.3392 0.8726
vn 0.8813 0.0756 -0.4664
vn -0.4237 -0.7912 -0.4409
vn -0.5406 -0.7270 -0.4232
vn -0.6621 -0.2477 0.7072
vn -0.6420 -0.2489 0.7251
vn -0.9861 -0.1578 -0.0518
vn -0.9862 -0.1583 -0.0485
vn -0.5715 -0.0012 -0.8206
vn -0.6397 -0.0176 -0.7684
vn 0.0067 -0.2333 0.9724
vn 0.0025 -0.2335 0.9723
vn 0.0080 0.1416 -0.9899
vn 0.0119 0.1431 -0.9896
vn 0.5377 0.2136 -0.8156
vn 0.4753 0.2131 -0.8536
vn 0.9875 0.1525 0.0388
vn 0.9877 0.1549 0.0212
vn 0.5103 -0.1018 0.8539
vn 0.5455 -0.0856 0.8337
vn 0.4354 0.8383 -0.3281
s 1
f 2/1/1 41/2/2 6/3/3 7/4/4
f 40/5/5 1/6/6 4/7/7 5/8/8
f 42/9/9 2/1/1 7/4/4 8/10/10
f 41/2/2 40/5/5 5/8/8 6/3/3
f 1/6/6 3/11/11 4/7/7
f 19/12/12 42/9/9 8/10/10
f 8/10/10 7/4/4 12/13/13 13/14/14
f 6/3/3 5/8/8 10/15/15 11/16/16
f 4/7/7 3/17/11 9/18/17
f 19/19/12 8/10/10 13/14/14
f 7/4/4 6/3/3 11/16/16 12/13/13
f 5/8/8 4/7/7 9/18/17 10/15/15
f 13/14/14 12/13/13 17/20/18 18/21/19
f 11/16/16 10/15/15 15/22/20 16/23/21
f 9/18/17 3/24/11 14/25/22
f 19/26/12 13/14/14 18/21/19
f 12/13/13 11/16/16 16/23/21 17/20/18
f 10/15/15 9/18/17 14/25/22 15/22/20
f 18/27/19 17/28/18 23/29/23 24/30/24
f 16/31/21 15/32/20 21/33/25 22/34/26
f 14/25/22 3/35/11 20/36/27
f 19/37/12 18/21/19 24/38/24
f 17/28/18 16/31/21 22/34/26 23/29/23
f 15/32/20 14/39/22 20/40/27 21/33/25
f 22/34/26 21/33/25 26/41/28 27/42/29
f 20/36/27 3/43/11 25/44/30
f 19/45/12 24/38/24 29/46/31
f 23/29/23 22/34/26 27/42/29 28/47/32
f 21/33/25 20/40/27 25/48/30 26/41/28
f 24/30/24 23/29/23 28/47/32 29/49/31
f 25/44/30 3/50/11 30/51/33
f 19/52/12 29/46/31 34/53/34
f 28/54/32 27/55/29 32/56/35 33/57/36
f 26/58/28 25/44/30 30/51/33 31/59/37
f 29/46/31 28/54/32 33/57/36 34/53/34
f 27/55/29 26/58/28 31/59/37 32/56/35
f 19/60/12 34/61/34 39/62/38
f 33/63/36 32/64/35 37/65/39 38/66/40
f 31/67/37 30/68/33 35/69/41 36/70/42
f 34/61/34 33/63/36 38/66/40 39/62/38
f 32/64/35 31/67/37 36/70/42 37/65/39
f 30/68/33 3/71/11 35/69/41
f 19/72/12 39/62/38 42/9/9
f 38/66/40 37/65/39 41/2/2 2/1/1
f 36/70/42 35/69/41 1/6/6 40/5/5
f 39/62/38 38/66/40 2/1/1 42/9/9
f 37/65/39 36/70/42 40/5/5 41/2/2
f 35/69/41 3/73/11 1/6/6
f 45/74/43 44/75/44 46/76/45
f 50/77/46 51/78/47 47/79/48 48/80/49
f 51/78/47 52/81/50 49/82/51 47/79/48
f 54/83/52 53/84/53 55/85/54 56/86/55
f 56/86/55 55/85/54 57/87/56 58/88/57
f 50/77/46 52/81/50 46/76/45 44/75/44
f 67/89/58 43/90/59 53/84/53 54/83/52
f 48/80/49 49/82/51 52/81/50 50/77/46
f 45/74/43 46/76/45 52/81/50 51/78/47
f 44/75/44 45/74/43 51/78/47 50/77/46
f 58/88/57 57/87/56 59/91/60 60/92/61
f 60/92/61 59/91/60 61/93/62 62/94/63
f 62/94/63 61/93/62 63/95/64 64/96/65
f 64/97/65 63/98/64 65/99/66 66/100/67
f 66/100/67 65/99/66 43/90/59 67/89/58
f 69/101/1 108/102/2 73/103/3 74/104/4
f 107/105/5 68/106/6 71/107/7 72/108/8
f 109/109/9 69/101/1 74/104/4 75/110/10
f 108/102/2 107/105/5 72/108/8 73/103/3
f 68/106/6 70/111/11 71/107/7
f 86/112/12 109/109/9 75/110/10
f 75/110/10 74/104/4 79/113/13 80/114/14
f 73/103/3 72/108/8 77/115/15 78/116/16
f 71/107/7 70/117/11 76/118/17
f 86/119/12 75/110/10 80/114/14
f 74/104/4 73/103/3 78/116/16 79/113/13
f 72/108/8 71/107/7 76/118/17 77/115/15
f 80/114/14 79/113/13 84/120/18 85/121/19
f 78/116/16 77/115/15 82/122/20 83/123/21
f 76/118/17 70/124/11 81/125/22
f 86/126/12 80/114/14 85/121/19
f 79/113/13 78/116/16 83/123/21 84/120/18
f 77/115/15 76/118/17 81/125/22 82/122/20
f 85/127/19 84/128/18 90/129/23 91/130/24
f 83/131/21 82/132/20 88/133/25 89/134/26
f 81/125/22 70/135/11 87/136/27
f 86/137/12 85/121/19 91/138/24
f 84/128/18 83/131/21 89/134/26 90/129/23
f 82/132/20 81/139/22 87/140/27 88/133/25
f 89/134/26 88/133/25 93/141/28 94/142/29
f 87/136/27 70/143/11 92/144/30
f 86/145/12 91/138/24 96/146/31
f 90/129/23 89/134/26 94/142/29 95/147/32
f 88/133/25 87/140/27 92/148/30 93/141/28
f 91/130/24 90/129/23 95/147/32 96/149/31
f 92/144/30 70/150/11 97/151/33
f 86/152/12 96/146/31 101/153/34
f 95/154/32 94/155/29 99/156/35 100/157/36
f 93/158/28 92/144/30 97/151/33 98/159/37
f 96/146/31 95/154/32 100/157/36 101/153/34
f 94/155/29 93/158/28 98/159/37 99/156/35
f 86/160/12 101/161/34 106/162/38
f 100/163/36 99/164/35 104/165/39 105/166/40
f 98/167/37 97/168/33 102/169/41 103/170/42
f 101/161/34 100/163/36 105/166/40 106/162/38
f 99/164/35 98/167/37 103/170/42 104/165/39
f 97/168/33 70/171/11 102/169/41
f 86/172/12 106/162/38 109/109/9
f 105/166/40 104/165/39 108/102/2 69/101/1
f 103/170/42 102/169/41 68/106/6 107/105/5
f 106/162/38 105/166/40 69/101/1 109/109/9
f 104/165/39 103/170/42 107/105/5 108/102/2
f 102/169/41 70/173/11 68/106/6
f 112/174/43 111/175/44 113/176/45
f 117/177/46 118/178/47 114/179/48 115/180/49
f 118/178/47 119/181/50 116/182/51 114/179/48
f 121/183/52 120/184/53 122/185/54 123/186/55
f 123/186/55 122/185/54 124/187/56 125/188/57
f 117/177/46 119/181/50 113/176/45 111/175/44
f 134/189/58 110/190/59 120/184/53 121/183/52
f 115/180/49 116/182/51 119/181/50 117/177/46
f 112/174/43 113/176/45 119/181/50 118/178/47
f 111/175/44 112/174/43 118/178/47 117/177/46
f 125/188/57 124/187/56 126/191/60 127/192/61
f 127/192/61 126/191/60 128/193/62 129/194/63
f 129/194/63 128/193/62 130/195/64 131/196/65
f 131/197/65 130/198/64 132/199/66 133/200/67
f 133/200/67 132/199/66 110/190/59 134/189/58
f 136/201/1 175/202/2 140/203/3 141/204/4
f 174/205/5 135/206/6 138/207/7 139/208/8
f 176/209/9 136/201/1 141/204/4 142/210/10
f 175/202/2 174/205/5 139/208/8 140/203/3
f 135/206/6 137/211/11 138/207/7
f 153/212/12 176/209/9 142/210/10
f 142/210/10 141/204/4 146/213/13 147/214/14
f 140/203/3 139/208/8 144/215/15 145/216/16
f 138/207/7 137/217/11 143/218/17
f 153/219/12 142/210/10 147/214/14
f 141/204/4 140/203/3 145/216/16 146/213/13
f 139/208/8 138/207/7 143/218/17 144/215/15
f 147/214/14 146/213/13 151/220/18 152/221/19
f 145/216/16 144/215/15 149/222/20 150/223/21
f 143/218/17 137/224/11 148/225/22
f 153/226/12 147/214/14 152/221/19
f 146/213/13 145/216/16 150/223/21 151/220/18
f 144/215/15 143/218/17 148/225/22 149/222/20
f 152/227/19 151/228/18 157/229/23 158/230/24
f 150/231/21 149/232/20 155/233/25 156/234/26
f 148/225/22 137/235/11 154/236/27
f 153/237/12 152/221/19 158/238/24
f 151/228/18 150/231/21 156/234/26 157/229/23
f 149/232/20 148/239/22 154/240/27 155/233/25
f 156/234/26 155/233/25 160/241/28 161/242/29
f 154/236/27 137/243/11 159/244/30
f 153/245/12 158/238/24 163/246/31
f 157/229/23 156/234/26 161/242/29 162/247/32
f 155/233/25 154/240/27 159/248/30 160/241/28
f 158/230/24 157/229/23 162/247/32 163/249/31
f 159/244/30 137/250/11 164/251/33
f 153/252/12 163/246/31 168/253/34
f 162/254/32 161/255/29 166/256/35 167/257/36
f 160/258/28 159/244/30 164/251/33 165/259/37
f 163/246/31 162/254/32 167/257/36 168/253/34
f 161/255/29 160/258/28 165/259/37 166/256/35
f 153/260/12 168/261/34 173/262/38
f 167/263/36 166/264/35 171/265/39 172/266/40
f 165/267/37 164/268/33 169/269/41 170/270/42
f 168/261/34 167/263/36 172/266/40 173/262/38
f 166/264/35 165/267/37 170/270/42 171/265/39
f 164/268/33 137/271/11 169/269/41
f 153/272/12 173/262/38 176/209/9
f 172/266/40 171/265/39 175/202/2 136/201/1
f 170/270/42 169/269/41 135/206/6 174/205/5
f 173/262/38 172/266/40 136/201/1 176/209/9
f 171/265/39 170/270/42 174/205/5 175/202/2
f 169/269/41 137/273/11 135/206/6
f 179/274/43 178/275/68 180/276/45
f 184/277/46 185/278/47 181/279/48 182/280/49
f 185/278/47 186/281/50 183/282/51 181/279/48
f 188/283/52 187/284/53 189/285/54 190/286/55
f 190/286/55 189/285/54 191/287/56 192/288/57
f 184/277/46 186/281/50 180/276/45 178/275/68
f 201/289/58 177/290/59 187/284/53 188/283/52
f 182/280/49 183/282/51 186/281/50 184/277/46
f 179/274/43 180/276/45 186/281/50 185/278/47
f 178/275/68 179/274/43 185/278/47 184/277/46
f 192/288/57 191/287/56 193/291/60 194/292/61
f 194/292/61 193/291/60 195/293/62 196/294/63
f 196/294/63 195/293/62 197/295/64 198/296/65
f 198/297/65 197/298/64 199/299/66 200/300/67
f 200/300/67 199/299/66 177/290/59 201/289/58
