# Blender v2.82 (sub 7) OBJ File: 'trees.blend'
# www.blender.org
o orange_Sphere
v -0.500000 2.901403 -0.025191
v -0.500000 2.531770 0.075133
v -0.500000 2.923157 -0.162237
v -0.596906 2.901403 -0.065331
v -0.667846 2.802361 0.005609
v -0.693812 2.667065 0.031575
v -0.667846 2.531770 0.005609
v -0.596906 2.432728 -0.065331
v -0.637046 2.901399 -0.162237
v -0.737370 2.802357 -0.162237
v -0.774092 2.667062 -0.162237
v -0.737370 2.531766 -0.162237
v -0.637046 2.432724 -0.162237
v -0.596906 2.901399 -0.259143
v -0.667846 2.802357 -0.330083
v -0.693812 2.667062 -0.356049
v -0.667846 2.531766 -0.330083
v -0.596906 2.432724 -0.259143
v -0.500000 2.396472 -0.162237
v -0.500000 2.901399 -0.299283
v -0.500000 2.802357 -0.399608
v -0.500000 2.667062 -0.436329
v -0.500000 2.531766 -0.399608
v -0.500000 2.432724 -0.299283
v -0.403094 2.901399 -0.259143
v -0.332154 2.802357 -0.330083
v -0.306188 2.667062 -0.356049
v -0.332154 2.531766 -0.330083
v -0.403094 2.432724 -0.259143
v -0.362954 2.901399 -0.162237
v -0.262630 2.802357 -0.162237
v -0.225908 2.667062 -0.162237
v -0.262630 2.531766 -0.162237
v -0.362954 2.432724 -0.162237
v -0.403094 2.901403 -0.065331
v -0.332154 2.802361 0.005609
v -0.306188 2.667065 0.031575
v -0.332154 2.531770 0.005609
v -0.403094 2.432728 -0.065331
v -0.500000 2.802361 0.075133
v -0.500000 2.667065 0.111855
v -0.500000 2.432728 -0.025191
v -0.497129 2.882995 -0.156138
v -0.478926 2.990026 -0.169381
v -0.505866 3.016967 -0.141850
v -0.534263 2.979105 -0.169381
v -1.055470 2.052328 -0.025191
v -1.055470 1.682695 0.075133
v -1.055470 2.074081 -0.162237
v -1.152376 2.052328 -0.065331
v -1.223316 1.953285 0.005609
v -1.249282 1.817990 0.031575
v -1.223316 1.682695 0.005609
v -1.152376 1.583652 -0.065331
v -1.192516 2.052324 -0.162237
v -1.292840 1.953281 -0.162237
v -1.329561 1.817986 -0.162237
v -1.292840 1.682691 -0.162237
v -1.192516 1.583648 -0.162237
v -1.152376 2.052324 -0.259143
v -1.223316 1.953281 -0.330083
v -1.249282 1.817986 -0.356049
v -1.223316 1.682691 -0.330083
v -1.152376 1.583648 -0.259143
v -1.055470 1.547396 -0.162237
v -1.055470 2.052324 -0.299283
v -1.055470 1.953281 -0.399608
v -1.055470 1.817986 -0.436329
v -1.055470 1.682691 -0.399608
v -1.055470 1.583648 -0.299283
v -0.958564 2.052324 -0.259143
v -0.887624 1.953281 -0.330083
v -0.861658 1.817986 -0.356049
v -0.887624 1.682691 -0.330083
v -0.958564 1.583648 -0.259143
v -0.918424 2.052324 -0.162237
v -0.818099 1.953281 -0.162237
v -0.781378 1.817986 -0.162237
v -0.818099 1.682691 -0.162237
v -0.918424 1.583648 -0.162237
v -0.958564 2.052328 -0.065331
v -0.887624 1.953285 0.005609
v -0.861658 1.817990 0.031575
v -0.887624 1.682695 0.005609
v -0.958564 1.583652 -0.065331
v -1.055470 1.953285 0.075133
v -1.055470 1.817990 0.111855
v -1.055470 1.583652 -0.025191
v -1.052599 2.033920 -0.156138
v -1.034396 2.140951 -0.169381
v -1.061337 2.167892 -0.141850
v -1.089734 2.130029 -0.169381
v 0.142758 2.052328 -0.025191
v 0.142758 1.682695 0.075133
v 0.142758 2.074081 -0.162237
v 0.045852 2.052328 -0.065331
v -0.025088 1.953285 0.005609
v -0.051054 1.817990 0.031575
v -0.025088 1.682695 0.005609
v 0.045852 1.583652 -0.065331
v 0.005712 2.052324 -0.162237
v -0.094612 1.953281 -0.162237
v -0.131333 1.817986 -0.162237
v -0.094612 1.682691 -0.162237
v 0.005712 1.583648 -0.162237
v 0.045852 2.052324 -0.259143
v -0.025088 1.953281 -0.330083
v -0.051054 1.817986 -0.356049
v -0.025088 1.682691 -0.330083
v 0.045852 1.583648 -0.259143
v 0.142758 1.547396 -0.162237
v 0.142758 2.052324 -0.299283
v 0.142758 1.953281 -0.399608
v 0.142758 1.817986 -0.436329
v 0.142758 1.682691 -0.399608
v 0.142758 1.583648 -0.299283
v 0.239664 2.052324 -0.259143
v 0.310605 1.953281 -0.330083
v 0.336570 1.817986 -0.356049
v 0.310605 1.682691 -0.330083
v 0.239664 1.583648 -0.259143
v 0.279804 2.052324 -0.162237
v 0.380129 1.953281 -0.162237
v 0.416850 1.817986 -0.162237
v 0.380129 1.682691 -0.162237
v 0.279804 1.583648 -0.162237
v 0.239664 2.052328 -0.065331
v 0.310605 1.953285 0.005609
v 0.336570 1.817990 0.031575
v 0.310605 1.682695 0.005609
v 0.239664 1.583652 -0.065331
v 0.142758 1.953285 0.075133
v 0.142758 1.817990 0.111855
v 0.142758 1.583652 -0.025191
v 0.145629 2.033920 -0.156138
v 0.163832 2.140951 -0.169381
v 0.136892 2.167892 -0.141850
v 0.108495 2.130029 -0.169381
vt 0.679119 0.836242
vt 0.679119 0.872809
vt 0.651694 0.872809
vt 0.651694 0.836242
vt 0.679119 0.909375
vt 0.679119 0.945942
vt 0.651694 0.945942
vt 0.651694 0.909375
vt 0.679119 0.799676
vt 0.651694 0.799676
vt 0.665407 0.982508
vt 0.665407 0.763109
vt 0.624270 0.836242
vt 0.624270 0.799676
vt 0.624270 0.909375
vt 0.624270 0.872809
vt 0.637982 0.982508
vt 0.624270 0.945942
vt 0.637982 0.763109
vt 0.596845 0.836242
vt 0.596845 0.799676
vt 0.596845 0.909375
vt 0.596845 0.872809
vt 0.610557 0.982508
vt 0.596845 0.945942
vt 0.610557 0.763109
vt 0.569420 0.836242
vt 0.569420 0.799676
vt 0.569420 0.909375
vt 0.569420 0.872809
vt 0.583132 0.982508
vt 0.569420 0.945942
vt 0.583132 0.763109
vt 0.541995 0.909375
vt 0.541995 0.872809
vt 0.555707 0.982508
vt 0.541995 0.945942
vt 0.555707 0.763109
vt 0.541995 0.799676
vt 0.541995 0.836242
vt 0.528282 0.982508
vt 0.514570 0.945942
vt 0.528282 0.763109
vt 0.514570 0.799676
vt 0.514570 0.872809
vt 0.514570 0.836242
vt 0.514570 0.909375
vt 0.720257 0.763109
vt 0.733969 0.799676
vt 0.706544 0.799676
vt 0.733969 0.836242
vt 0.733969 0.872809
vt 0.706544 0.872809
vt 0.706544 0.836242
vt 0.733969 0.909375
vt 0.733969 0.945942
vt 0.706544 0.945942
vt 0.706544 0.909375
vt 0.720257 0.982508
vt 0.692832 0.763109
vt 0.692832 0.982508
vt 0.519199 0.734612
vt 0.519199 0.734612
vt 0.519199 0.734612
vt 0.519199 0.734612
vt 0.679119 0.836242
vt 0.679119 0.872809
vt 0.651694 0.872809
vt 0.651694 0.836242
vt 0.679119 0.909375
vt 0.679119 0.945942
vt 0.651694 0.945942
vt 0.651694 0.909375
vt 0.679119 0.799676
vt 0.651694 0.799676
vt 0.665407 0.982508
vt 0.665407 0.763109
vt 0.624270 0.836242
vt 0.624270 0.799676
vt 0.624270 0.909375
vt 0.624270 0.872809
vt 0.637982 0.982508
vt 0.624270 0.945942
vt 0.637982 0.763109
vt 0.596845 0.836242
vt 0.596845 0.799676
vt 0.596845 0.909375
vt 0.596845 0.872809
vt 0.610557 0.982508
vt 0.596845 0.945942
vt 0.610557 0.763109
vt 0.569420 0.836242
vt 0.569420 0.799676
vt 0.569420 0.909375
vt 0.569420 0.872809
vt 0.583132 0.982508
vt 0.569420 0.945942
vt 0.583132 0.763109
vt 0.541995 0.909375
vt 0.541995 0.872809
vt 0.555707 0.982508
vt 0.541995 0.945942
vt 0.555707 0.763109
vt 0.541995 0.799676
vt 0.541995 0.836242
vt 0.528282 0.982508
vt 0.514570 0.945942
vt 0.528282 0.763109
vt 0.514570 0.799676
vt 0.514570 0.872809
vt 0.514570 0.836242
vt 0.514570 0.909375
vt 0.720257 0.763109
vt 0.733969 0.799676
vt 0.706544 0.799676
vt 0.733969 0.836242
vt 0.733969 0.872809
vt 0.706544 0.872809
vt 0.706544 0.836242
vt 0.733969 0.909375
vt 0.733969 0.945942
vt 0.706544 0.945942
vt 0.706544 0.909375
vt 0.720257 0.982508
vt 0.692832 0.763109
vt 0.692832 0.982508
vt 0.519199 0.734612
vt 0.519199 0.734612
vt 0.519199 0.734612
vt 0.519199 0.734612
vt 0.679119 0.836242
vt 0.679119 0.872809
vt 0.651694 0.872809
vt 0.651694 0.836242
vt 0.679119 0.909375
vt 0.679119 0.945942
vt 0.651694 0.945942
vt 0.651694 0.909375
vt 0.679119 0.799676
vt 0.651694 0.799676
vt 0.665407 0.982508
vt 0.665407 0.763109
vt 0.624270 0.836242
vt 0.624270 0.799676
vt 0.624270 0.909375
vt 0.624270 0.872809
vt 0.637982 0.982508
vt 0.624270 0.945942
vt 0.637982 0.763109
vt 0.596845 0.836242
vt 0.596845 0.799676
vt 0.596845 0.909375
vt 0.596845 0.872809
vt 0.610557 0.982508
vt 0.596845 0.945942
vt 0.610557 0.763109
vt 0.569420 0.836242
vt 0.569420 0.799676
vt 0.569420 0.909375
vt 0.569420 0.872809
vt 0.583132 0.982508
vt 0.569420 0.945942
vt 0.583132 0.763109
vt 0.541995 0.909375
vt 0.541995 0.872809
vt 0.555707 0.982508
vt 0.541995 0.945942
vt 0.555707 0.763109
vt 0.541995 0.799676
vt 0.541995 0.836242
vt 0.528282 0.982508
vt 0.514570 0.945942
vt 0.528282 0.763109
vt 0.514570 0.799676
vt 0.514570 0.872809
vt 0.514570 0.836242
vt 0.514570 0.909375
vt 0.720257 0.763109
vt 0.733969 0.799676
vt 0.706544 0.799676
vt 0.733969 0.836242
vt 0.733969 0.872809
vt 0.706544 0.872809
vt 0.706544 0.836242
vt 0.733969 0.909375
vt 0.733969 0.945942
vt 0.706544 0.945942
vt 0.706544 0.909375
vt 0.720257 0.982508
vt 0.692832 0.763109
vt 0.692832 0.982508
vt 0.519199 0.734612
vt 0.519199 0.734612
vt 0.519199 0.734612
vt 0.519199 0.734612
vn 0.0000 -0.4783 0.8782
vn 0.0000 0.0000 1.0000
vn -0.7071 0.0000 0.7071
vn -0.6210 -0.4783 0.6210
vn 0.0000 0.4783 0.8782
vn 0.0000 0.8615 0.5077
vn -0.3590 0.8615 0.3590
vn -0.6210 0.4783 0.6210
vn 0.0000 -0.8410 0.5410
vn -0.3825 -0.8410 0.3825
vn 0.0000 1.0000 0.0000
vn 0.0000 -1.0000 0.0000
vn -0.8782 -0.4783 0.0000
vn -0.5410 -0.8410 0.0000
vn -0.8782 0.4783 0.0000
vn -1.0000 0.0000 0.0000
vn -0.5077 0.8615 0.0000
vn -0.6210 -0.4783 -0.6210
vn -0.3825 -0.8410 -0.3825
vn -0.6210 0.4783 -0.6210
vn -0.7071 0.0000 -0.7071
vn -0.3590 0.8615 -0.3590
vn 0.0000 -0.4783 -0.8782
vn 0.0000 -0.8410 -0.5410
vn 0.0000 0.4783 -0.8782
vn 0.0000 0.0000 -1.0000
vn 0.0000 0.8615 -0.5077
vn 0.6210 0.4783 -0.6210
vn 0.7071 0.0000 -0.7071
vn 0.3590 0.8615 -0.3590
vn 0.3825 -0.8410 -0.3825
vn 0.6210 -0.4783 -0.6210
vn 0.5077 0.8615 0.0000
vn 0.5410 -0.8410 0.0000
vn 1.0000 0.0000 0.0000
vn 0.8782 -0.4783 0.0000
vn 0.8782 0.4783 0.0000
vn 0.3825 -0.8410 0.3825
vn 0.7071 0.0000 0.7071
vn 0.6210 -0.4783 0.6210
vn 0.3590 0.8615 0.3590
vn 0.6210 0.4783 0.6210
vn -0.0479 0.8777 0.4769
vn 0.8483 0.3306 -0.4136
vn -0.9275 0.1038 -0.3590
vn 0.0884 -0.9948 0.0499
vn -0.0478 0.8777 0.4769
vn -0.9275 0.1038 -0.3591
vn 0.0883 -0.9948 0.0499
s 1
f 2/1/1 41/2/2 6/3/3 7/4/4
f 40/5/5 1/6/6 4/7/7 5/8/8
f 42/9/9 2/1/1 7/4/4 8/10/10
f 41/2/2 40/5/5 5/8/8 6/3/3
f 1/6/6 3/11/11 4/7/7
f 19/12/12 42/9/9 8/10/10
f 8/10/10 7/4/4 12/13/13 13/14/14
f 6/3/3 5/8/8 10/15/15 11/16/16
f 4/7/7 3/17/11 9/18/17
f 19/19/12 8/10/10 13/14/14
f 7/4/4 6/3/3 11/16/16 12/13/13
f 5/8/8 4/7/7 9/18/17 10/15/15
f 13/14/14 12/13/13 17/20/18 18/21/19
f 11/16/16 10/15/15 15/22/20 16/23/21
f 9/18/17 3/24/11 14/25/22
f 19/26/12 13/14/14 18/21/19
f 12/13/13 11/16/16 16/23/21 17/20/18
f 10/15/15 9/18/17 14/25/22 15/22/20
f 18/21/19 17/20/18 23/27/23 24/28/24
f 16/23/21 15/22/20 21/29/25 22/30/26
f 14/25/22 3/31/11 20/32/27
f 19/33/12 18/21/19 24/28/24
f 17/20/18 16/23/21 22/30/26 23/27/23
f 15/22/20 14/25/22 20/32/27 21/29/25
f 22/30/26 21/29/25 26/34/28 27/35/29
f 20/32/27 3/36/11 25/37/30
f 19/38/12 24/28/24 29/39/31
f 23/27/23 22/30/26 27/35/29 28/40/32
f 21/29/25 20/32/27 25/37/30 26/34/28
f 24/28/24 23/27/23 28/40/32 29/39/31
f 25/37/30 3/41/11 30/42/33
f 19/43/12 29/39/31 34/44/34
f 28/40/32 27/35/29 32/45/35 33/46/36
f 26/34/28 25/37/30 30/42/33 31/47/37
f 29/39/31 28/40/32 33/46/36 34/44/34
f 27/35/29 26/34/28 31/47/37 32/45/35
f 19/48/12 34/49/34 39/50/38
f 33/51/36 32/52/35 37/53/39 38/54/40
f 31/55/37 30/56/33 35/57/41 36/58/42
f 34/49/34 33/51/36 38/54/40 39/50/38
f 32/52/35 31/55/37 36/58/42 37/53/39
f 30/56/33 3/59/11 35/57/41
f 19/60/12 39/50/38 42/9/9
f 38/54/40 37/53/39 41/2/2 2/1/1
f 36/58/42 35/57/41 1/6/6 40/5/5
f 39/50/38 38/54/40 2/1/1 42/9/9
f 37/53/39 36/58/42 40/5/5 41/2/2
f 35/57/41 3/61/11 1/6/6
f 45/62/43 44/63/44 46/64/45
f 44/63/44 45/62/43 43/65/46
f 45/62/43 46/64/45 43/65/46
f 43/65/46 46/64/45 44/63/44
f 48/66/1 87/67/2 52/68/3 53/69/4
f 86/70/5 47/71/6 50/72/7 51/73/8
f 88/74/9 48/66/1 53/69/4 54/75/10
f 87/67/2 86/70/5 51/73/8 52/68/3
f 47/71/6 49/76/11 50/72/7
f 65/77/12 88/74/9 54/75/10
f 54/75/10 53/69/4 58/78/13 59/79/14
f 52/68/3 51/73/8 56/80/15 57/81/16
f 50/72/7 49/82/11 55/83/17
f 65/84/12 54/75/10 59/79/14
f 53/69/4 52/68/3 57/81/16 58/78/13
f 51/73/8 50/72/7 55/83/17 56/80/15
f 59/79/14 58/78/13 63/85/18 64/86/19
f 57/81/16 56/80/15 61/87/20 62/88/21
f 55/83/17 49/89/11 60/90/22
f 65/91/12 59/79/14 64/86/19
f 58/78/13 57/81/16 62/88/21 63/85/18
f 56/80/15 55/83/17 60/90/22 61/87/20
f 64/86/19 63/85/18 69/92/23 70/93/24
f 62/88/21 61/87/20 67/94/25 68/95/26
f 60/90/22 49/96/11 66/97/27
f 65/98/12 64/86/19 70/93/24
f 63/85/18 62/88/21 68/95/26 69/92/23
f 61/87/20 60/90/22 66/97/27 67/94/25
f 68/95/26 67/94/25 72/99/28 73/100/29
f 66/97/27 49/101/11 71/102/30
f 65/103/12 70/93/24 75/104/31
f 69/92/23 68/95/26 73/100/29 74/105/32
f 67/94/25 66/97/27 71/102/30 72/99/28
f 70/93/24 69/92/23 74/105/32 75/104/31
f 71/102/30 49/106/11 76/107/33
f 65/108/12 75/104/31 80/109/34
f 74/105/32 73/100/29 78/110/35 79/111/36
f 72/99/28 71/102/30 76/107/33 77/112/37
f 75/104/31 74/105/32 79/111/36 80/109/34
f 73/100/29 72/99/28 77/112/37 78/110/35
f 65/113/12 80/114/34 85/115/38
f 79/116/36 78/117/35 83/118/39 84/119/40
f 77/120/37 76/121/33 81/122/41 82/123/42
f 80/114/34 79/116/36 84/119/40 85/115/38
f 78/117/35 77/120/37 82/123/42 83/118/39
f 76/121/33 49/124/11 81/122/41
f 65/125/12 85/115/38 88/74/9
f 84/119/40 83/118/39 87/67/2 48/66/1
f 82/123/42 81/122/41 47/71/6 86/70/5
f 85/115/38 84/119/40 48/66/1 88/74/9
f 83/118/39 82/123/42 86/70/5 87/67/2
f 81/122/41 49/126/11 47/71/6
f 91/127/47 90/128/44 92/129/48
f 90/128/44 91/127/47 89/130/46
f 91/127/47 92/129/48 89/130/46
f 89/130/46 92/129/48 90/128/44
f 94/131/1 133/132/2 98/133/3 99/134/4
f 132/135/5 93/136/6 96/137/7 97/138/8
f 134/139/9 94/131/1 99/134/4 100/140/10
f 133/132/2 132/135/5 97/138/8 98/133/3
f 93/136/6 95/141/11 96/137/7
f 111/142/12 134/139/9 100/140/10
f 100/140/10 99/134/4 104/143/13 105/144/14
f 98/133/3 97/138/8 102/145/15 103/146/16
f 96/137/7 95/147/11 101/148/17
f 111/149/12 100/140/10 105/144/14
f 99/134/4 98/133/3 103/146/16 104/143/13
f 97/138/8 96/137/7 101/148/17 102/145/15
f 105/144/14 104/143/13 109/150/18 110/151/19
f 103/146/16 102/145/15 107/152/20 108/153/21
f 101/148/17 95/154/11 106/155/22
f 111/156/12 105/144/14 110/151/19
f 104/143/13 103/146/16 108/153/21 109/150/18
f 102/145/15 101/148/17 106/155/22 107/152/20
f 110/151/19 109/150/18 115/157/23 116/158/24
f 108/153/21 107/152/20 113/159/25 114/160/26
f 106/155/22 95/161/11 112/162/27
f 111/163/12 110/151/19 116/158/24
f 109/150/18 108/153/21 114/160/26 115/157/23
f 107/152/20 106/155/22 112/162/27 113/159/25
f 114/160/26 113/159/25 118/164/28 119/165/29
f 112/162/27 95/166/11 117/167/30
f 111/168/12 116/158/24 121/169/31
f 115/157/23 114/160/26 119/165/29 120/170/32
f 113/159/25 112/162/27 117/167/30 118/164/28
f 116/158/24 115/157/23 120/170/32 121/169/31
f 117/167/30 95/171/11 122/172/33
f 111/173/12 121/169/31 126/174/34
f 120/170/32 119/165/29 124/175/35 125/176/36
f 118/164/28 117/167/30 122/172/33 123/177/37
f 121/169/31 120/170/32 125/176/36 126/174/34
f 119/165/29 118/164/28 123/177/37 124/175/35
f 111/178/12 126/179/34 131/180/38
f 125/181/36 124/182/35 129/183/39 130/184/40
f 123/185/37 122/186/33 127/187/41 128/188/42
f 126/179/34 125/181/36 130/184/40 131/180/38
f 124/182/35 123/185/37 128/188/42 129/183/39
f 122/186/33 95/189/11 127/187/41
f 111/190/12 131/180/38 134/139/9
f 130/184/40 129/183/39 133/132/2 94/131/1
f 128/188/42 127/187/41 93/136/6 132/135/5
f 131/180/38 130/184/40 94/131/1 134/139/9
f 129/183/39 128/188/42 132/135/5 133/132/2
f 127/187/41 95/191/11 93/136/6
f 137/192/43 136/193/44 138/194/48
f 136/193/44 137/192/43 135/195/49
f 137/192/43 138/194/48 135/195/49
f 135/195/49 138/194/48 136/193/44
