# Blender v2.82 (sub 7) OBJ File: 'trees.blend'
# www.blender.org
o peach_Sphere.004
v -0.598884 2.947288 -0.010323
v -0.604353 2.826155 0.161392
v -0.606098 2.623378 0.179558
v -0.602396 2.491184 0.039200
v -0.670071 2.942857 -0.044604
v -0.800026 2.826155 0.067161
v -0.813481 2.623378 0.079687
v -0.705962 2.491184 -0.010675
v -0.690118 2.948484 -0.117829
v -0.857964 2.826155 -0.142563
v -0.874886 2.623378 -0.142588
v -0.752727 2.491184 -0.122743
v -0.638012 2.947859 -0.164988
v -0.731782 2.826155 -0.326438
v -0.741153 2.623378 -0.337468
v -0.671039 2.491184 -0.218643
v -0.606603 2.929311 -0.091557
v -0.569220 2.943078 -0.165597
v -0.499706 2.826155 -0.315016
v -0.495189 2.623378 -0.325361
v -0.545759 2.491184 -0.213400
v -0.545158 2.940934 -0.138428
v -0.416070 2.856320 -0.217976
v -0.401219 2.623378 -0.222514
v -0.502076 2.491184 -0.164077
v -0.546564 2.951051 -0.055830
v -0.413708 2.856320 0.067161
v -0.398715 2.623378 0.079687
v -0.498829 2.491184 -0.010675
v -0.607088 2.474101 -0.090518
v -0.599447 2.948826 -0.176875
v -0.490378 2.623378 -0.234936
v -0.540362 2.491184 -0.173954
v -0.586452 2.623378 -0.372773
v -0.598976 2.491184 -0.240923
v -0.566247 2.927481 -0.143869
v -0.495168 2.826155 -0.229696
v -0.585816 2.826155 -0.359750
v -0.480233 2.491184 -0.093691
v -0.342347 2.623378 -0.125408
v -0.375876 2.860579 -0.115901
v -0.536838 2.951494 -0.099248
v -0.603337 2.912630 0.059800
v -0.724975 2.906816 0.005446
v -0.772342 2.910131 -0.125322
v -0.676662 2.943584 -0.225668
v -0.542856 2.935993 -0.220003
v -0.495904 2.939703 -0.167106
v -0.492576 2.939703 -0.003228
v -0.599217 2.943584 -0.249160
v -0.537300 2.908991 -0.177404
v -0.470203 2.942355 -0.093414
v -0.606286 2.705006 0.181495
v -0.814917 2.705006 0.081023
v -0.876691 2.705006 -0.142590
v -0.742153 2.705006 -0.338643
v -0.494708 2.705006 -0.326464
v -0.400173 2.705006 -0.222998
v -0.586521 2.705006 -0.374161
v -0.397654 2.705006 0.081023
v -0.489869 2.705006 -0.235494
v -0.340946 2.705006 -0.125307
v -0.605539 2.530693 0.126429
v -0.772098 2.530693 0.046218
v -0.831188 2.530693 -0.132948
v -0.714735 2.530693 -0.288602
v -0.515705 2.530693 -0.279366
v -0.442203 2.530693 -0.198002
v -0.438980 2.530693 0.046218
v -0.510023 2.530693 -0.210208
v -0.593640 2.530693 -0.319779
v -0.399507 2.530693 -0.106723
v -1.154354 2.098212 -0.010323
v -1.159823 1.977080 0.161392
v -1.161568 1.774302 0.179558
v -1.157866 1.642108 0.039200
v -1.225541 2.093782 -0.044604
v -1.355496 1.977080 0.067161
v -1.368951 1.774302 0.079687
v -1.261433 1.642108 -0.010675
v -1.245589 2.099409 -0.117829
v -1.413434 1.977080 -0.142563
v -1.430356 1.774302 -0.142588
v -1.308197 1.642108 -0.122743
v -1.193482 2.098783 -0.164988
v -1.287252 1.977080 -0.326438
v -1.296623 1.774302 -0.337468
v -1.226510 1.642108 -0.218643
v -1.162073 2.080236 -0.091557
v -1.124691 2.094002 -0.165597
v -1.055177 1.977080 -0.315016
v -1.050659 1.774302 -0.325361
v -1.101229 1.642108 -0.213400
v -1.100628 2.091859 -0.138428
v -0.971540 2.007245 -0.217976
v -0.956689 1.774302 -0.222514
v -1.057546 1.642108 -0.164077
v -1.102034 2.101975 -0.055830
v -0.969178 2.007245 0.067161
v -0.954186 1.774302 0.079687
v -1.054299 1.642108 -0.010675
v -1.162559 1.625025 -0.090518
v -1.154917 2.099751 -0.176875
v -1.045848 1.774302 -0.234936
v -1.095832 1.642108 -0.173954
v -1.141922 1.774302 -0.372773
v -1.154446 1.642108 -0.240923
v -1.121717 2.078405 -0.143869
v -1.050638 1.977080 -0.229696
v -1.141286 1.977080 -0.359750
v -1.035703 1.642108 -0.093691
v -0.897817 1.774302 -0.125408
v -0.931346 2.011503 -0.115901
v -1.092308 2.102418 -0.099248
v -1.158807 2.063554 0.059800
v -1.280445 2.057740 0.005446
v -1.327812 2.061055 -0.125322
v -1.232132 2.094508 -0.225668
v -1.098327 2.086918 -0.220003
v -1.051374 2.090628 -0.167106
v -1.048046 2.090628 -0.003228
v -1.154687 2.094508 -0.249160
v -1.092771 2.059915 -0.177404
v -1.025673 2.093279 -0.093414
v -1.161756 1.855931 0.181495
v -1.370387 1.855931 0.081023
v -1.432161 1.855931 -0.142590
v -1.297624 1.855931 -0.338643
v -1.050179 1.855931 -0.326464
v -0.955643 1.855931 -0.222998
v -1.141991 1.855931 -0.374161
v -0.953125 1.855931 0.081023
v -1.045339 1.855931 -0.235494
v -0.896416 1.855931 -0.125307
v -1.161009 1.681618 0.126429
v -1.327569 1.681618 0.046218
v -1.386658 1.681618 -0.132948
v -1.270205 1.681618 -0.288602
v -1.071175 1.681618 -0.279366
v -0.997673 1.681618 -0.198002
v -0.994450 1.681618 0.046218
v -1.065493 1.681618 -0.210208
v -1.149110 1.681618 -0.319779
v -0.954978 1.681618 -0.106723
v 0.043874 2.098212 -0.010323
v 0.038405 1.977080 0.161392
v 0.036660 1.774302 0.179558
v 0.040363 1.642108 0.039200
v -0.027312 2.093782 -0.044604
v -0.157268 1.977080 0.067161
v -0.170723 1.774302 0.079687
v -0.063204 1.642108 -0.010675
v -0.047360 2.099409 -0.117829
v -0.215205 1.977080 -0.142563
v -0.232128 1.774302 -0.142588
v -0.109969 1.642108 -0.122743
v 0.004746 2.098783 -0.164988
v -0.089024 1.977080 -0.326438
v -0.098395 1.774302 -0.337468
v -0.028281 1.642108 -0.218643
v 0.036155 2.080236 -0.091557
v 0.073538 2.094002 -0.165597
v 0.143052 1.977080 -0.315016
v 0.147569 1.774302 -0.325361
v 0.096999 1.642108 -0.213400
v 0.097600 2.091859 -0.138428
v 0.226688 2.007245 -0.217976
v 0.241539 1.774302 -0.222514
v 0.140683 1.642108 -0.164077
v 0.096194 2.101975 -0.055830
v 0.229050 2.007245 0.067161
v 0.244043 1.774302 0.079687
v 0.143929 1.642108 -0.010675
v 0.035670 1.625025 -0.090518
v 0.043311 2.099751 -0.176875
v 0.152380 1.774302 -0.234936
v 0.102396 1.642108 -0.173954
v 0.056306 1.774302 -0.372773
v 0.043782 1.642108 -0.240923
v 0.076511 2.078405 -0.143869
v 0.147590 1.977080 -0.229696
v 0.056942 1.977080 -0.359750
v 0.162525 1.642108 -0.093691
v 0.300411 1.774302 -0.125408
v 0.266882 2.011503 -0.115901
v 0.105920 2.102418 -0.099248
v 0.039421 2.063554 0.059800
v -0.082217 2.057740 0.005446
v -0.129584 2.061055 -0.125322
v -0.033904 2.094508 -0.225668
v 0.099902 2.086918 -0.220003
v 0.146854 2.090628 -0.167106
v 0.150182 2.090628 -0.003228
v 0.043541 2.094508 -0.249160
v 0.105458 2.059915 -0.177404
v 0.172555 2.093279 -0.093414
v 0.036473 1.855931 0.181495
v -0.172159 1.855931 0.081023
v -0.233933 1.855931 -0.142590
v -0.099395 1.855931 -0.338643
v 0.148050 1.855931 -0.326464
v 0.242585 1.855931 -0.222998
v 0.056238 1.855931 -0.374161
v 0.245104 1.855931 0.081023
v 0.152889 1.855931 -0.235494
v 0.301812 1.855931 -0.125307
v 0.037219 1.681618 0.126429
v -0.129340 1.681618 0.046218
v -0.188430 1.681618 -0.132948
v -0.071977 1.681618 -0.288602
v 0.127054 1.681618 -0.279366
v 0.200556 1.681618 -0.198002
v 0.203778 1.681618 0.046218
v 0.132735 1.681618 -0.210208
v 0.049118 1.681618 -0.319779
v 0.243251 1.681618 -0.106723
vt 0.908829 0.511546
vt 0.925449 0.558082
vt 0.892209 0.558082
vt 0.925449 0.627885
vt 0.925449 0.651153
vt 0.892209 0.651153
vt 0.892209 0.627885
vt 0.925449 0.697688
vt 0.908829 0.744224
vt 0.892209 0.697688
vt 0.925449 0.581350
vt 0.925449 0.604617
vt 0.892209 0.604617
vt 0.892209 0.581350
vt 0.925449 0.690407
vt 0.892209 0.688102
vt 0.858969 0.604617
vt 0.858969 0.581349
vt 0.858924 0.703576
vt 0.858969 0.689416
vt 0.875589 0.511546
vt 0.858969 0.558082
vt 0.858969 0.651153
vt 0.858969 0.627885
vt 0.875589 0.744224
vt 0.825730 0.604617
vt 0.825730 0.581350
vt 0.825057 0.709974
vt 0.825730 0.695692
vt 0.842350 0.511546
vt 0.825730 0.558082
vt 0.825730 0.651153
vt 0.825730 0.627885
vt 0.842350 0.744224
vt 0.809232 0.581350
vt 0.809232 0.604617
vt 0.792490 0.604617
vt 0.792490 0.581350
vt 0.809232 0.695692
vt 0.809200 0.709974
vt 0.793745 0.706931
vt 0.792490 0.695692
vt 0.809110 0.511546
vt 0.809232 0.558082
vt 0.809232 0.627885
vt 0.809232 0.651153
vt 0.792490 0.651153
vt 0.792490 0.627885
vt 0.809110 0.744224
vt 0.775870 0.511546
vt 0.783661 0.558082
vt 0.759250 0.558082
vt 0.783661 0.695692
vt 0.783661 0.651153
vt 0.975308 0.581350
vt 0.975308 0.604617
vt 0.958688 0.604617
vt 0.958688 0.581349
vt 0.975308 0.695692
vt 0.975308 0.708815
vt 0.959218 0.708815
vt 0.958688 0.695692
vt 0.975308 0.511546
vt 0.991928 0.558082
vt 0.975308 0.558082
vt 0.975308 0.627885
vt 0.975308 0.664308
vt 0.958688 0.651153
vt 0.958688 0.627885
vt 0.975308 0.744224
vt 0.942069 0.511546
vt 0.958688 0.558082
vt 0.942069 0.744224
vt 0.991928 0.581350
vt 0.991928 0.604617
vt 0.783661 0.627885
vt 0.759250 0.651153
vt 0.759250 0.627885
vt 0.991928 0.695692
vt 0.988627 0.706931
vt 0.783661 0.581350
vt 0.783661 0.604617
vt 0.759250 0.604617
vt 0.759250 0.581350
vt 0.775870 0.744224
vt 0.782114 0.706931
vt 0.762551 0.706931
vt 0.991928 0.627885
vt 0.991928 0.651153
vt 0.759250 0.695692
vt 0.792490 0.558082
vt 0.908829 0.511546
vt 0.925449 0.558082
vt 0.892209 0.558082
vt 0.925449 0.627885
vt 0.925449 0.651153
vt 0.892209 0.651153
vt 0.892209 0.627885
vt 0.925449 0.697688
vt 0.908829 0.744224
vt 0.892209 0.697688
vt 0.925449 0.581350
vt 0.925449 0.604617
vt 0.892209 0.604617
vt 0.892209 0.581350
vt 0.925449 0.690407
vt 0.892209 0.688102
vt 0.858969 0.604617
vt 0.858969 0.581349
vt 0.858924 0.703576
vt 0.858969 0.689416
vt 0.875589 0.511546
vt 0.858969 0.558082
vt 0.858969 0.651153
vt 0.858969 0.627885
vt 0.875589 0.744224
vt 0.825730 0.604617
vt 0.825730 0.581350
vt 0.825057 0.709974
vt 0.825730 0.695692
vt 0.842350 0.511546
vt 0.825730 0.558082
vt 0.825730 0.651153
vt 0.825730 0.627885
vt 0.842350 0.744224
vt 0.809232 0.581350
vt 0.809232 0.604617
vt 0.792490 0.604617
vt 0.792490 0.581350
vt 0.809232 0.695692
vt 0.809200 0.709974
vt 0.793745 0.706931
vt 0.792490 0.695692
vt 0.809110 0.511546
vt 0.809232 0.558082
vt 0.809232 0.627885
vt 0.809232 0.651153
vt 0.792490 0.651153
vt 0.792490 0.627885
vt 0.809110 0.744224
vt 0.775870 0.511546
vt 0.783661 0.558082
vt 0.759250 0.558082
vt 0.783661 0.695692
vt 0.783661 0.651153
vt 0.975308 0.581350
vt 0.975308 0.604617
vt 0.958688 0.604617
vt 0.958688 0.581349
vt 0.975308 0.695692
vt 0.975308 0.708815
vt 0.959218 0.708815
vt 0.958688 0.695692
vt 0.975308 0.511546
vt 0.991928 0.558082
vt 0.975308 0.558082
vt 0.975308 0.627885
vt 0.975308 0.664308
vt 0.958688 0.651153
vt 0.958688 0.627885
vt 0.975308 0.744224
vt 0.942069 0.511546
vt 0.958688 0.558082
vt 0.942069 0.744224
vt 0.991928 0.581350
vt 0.991928 0.604617
vt 0.783661 0.627885
vt 0.759250 0.651153
vt 0.759250 0.627885
vt 0.991928 0.695692
vt 0.988627 0.706931
vt 0.783661 0.581350
vt 0.783661 0.604617
vt 0.759250 0.604617
vt 0.759250 0.581350
vt 0.775870 0.744224
vt 0.782114 0.706931
vt 0.762551 0.706931
vt 0.991928 0.627885
vt 0.991928 0.651153
vt 0.759250 0.695692
vt 0.792490 0.558082
vt 0.908829 0.511546
vt 0.925449 0.558082
vt 0.892209 0.558082
vt 0.925449 0.627885
vt 0.925449 0.651153
vt 0.892209 0.651153
vt 0.892209 0.627885
vt 0.925449 0.697688
vt 0.908829 0.744224
vt 0.892209 0.697688
vt 0.925449 0.581350
vt 0.925449 0.604617
vt 0.892209 0.604617
vt 0.892209 0.581350
vt 0.925449 0.690407
vt 0.892209 0.688102
vt 0.858969 0.604617
vt 0.858969 0.581349
vt 0.858924 0.703576
vt 0.858969 0.689416
vt 0.875589 0.511546
vt 0.858969 0.558082
vt 0.858969 0.651153
vt 0.858969 0.627885
vt 0.875589 0.744224
vt 0.825730 0.604617
vt 0.825730 0.581350
vt 0.825057 0.709974
vt 0.825730 0.695692
vt 0.842350 0.511546
vt 0.825730 0.558082
vt 0.825730 0.651153
vt 0.825730 0.627885
vt 0.842350 0.744224
vt 0.809232 0.581350
vt 0.809232 0.604617
vt 0.792490 0.604617
vt 0.792490 0.581350
vt 0.809232 0.695692
vt 0.809200 0.709974
vt 0.793745 0.706931
vt 0.792490 0.695692
vt 0.809110 0.511546
vt 0.809232 0.558082
vt 0.809232 0.627885
vt 0.809232 0.651153
vt 0.792490 0.651153
vt 0.792490 0.627885
vt 0.809110 0.744224
vt 0.775870 0.511546
vt 0.783661 0.558082
vt 0.759250 0.558082
vt 0.783661 0.695692
vt 0.783661 0.651153
vt 0.975308 0.581350
vt 0.975308 0.604617
vt 0.958688 0.604617
vt 0.958688 0.581349
vt 0.975308 0.695692
vt 0.975308 0.708815
vt 0.959218 0.708815
vt 0.958688 0.695692
vt 0.975308 0.511546
vt 0.991928 0.558082
vt 0.975308 0.558082
vt 0.975308 0.627885
vt 0.975308 0.664308
vt 0.958688 0.651153
vt 0.958688 0.627885
vt 0.975308 0.744224
vt 0.942069 0.511546
vt 0.958688 0.558082
vt 0.942069 0.744224
vt 0.991928 0.581350
vt 0.991928 0.604617
vt 0.783661 0.627885
vt 0.759250 0.651153
vt 0.759250 0.627885
vt 0.991928 0.695692
vt 0.988627 0.706931
vt 0.783661 0.581350
vt 0.783661 0.604617
vt 0.759250 0.604617
vt 0.759250 0.581350
vt 0.775870 0.744224
vt 0.782114 0.706931
vt 0.762551 0.706931
vt 0.991928 0.627885
vt 0.991928 0.651153
vt 0.759250 0.695692
vt 0.792490 0.558082
vn 0.0037 -1.0000 0.0079
vn 0.0042 -0.9500 0.3124
vn -0.2324 -0.9494 0.2113
vn -0.0032 0.0665 0.9978
vn -0.0167 0.4416 0.8970
vn -0.6843 0.4514 0.5726
vn -0.7649 0.0693 0.6404
vn -0.0883 0.9778 0.1898
vn -0.0181 0.9994 -0.0299
vn -0.1679 0.9734 0.1557
vn -0.0002 -0.6992 0.7149
vn -0.0002 -0.2527 0.9676
vn -0.7432 -0.2435 0.6231
vn -0.5477 -0.6904 0.4726
vn -0.0665 0.8283 0.5563
vn -0.4372 0.8141 0.3822
vn -0.9567 -0.2415 -0.1625
vn -0.7208 -0.6838 -0.1135
vn -0.1822 0.9815 0.0592
vn -0.5990 0.7988 -0.0549
vn -0.3164 -0.9470 -0.0555
vn -0.8897 0.4313 -0.1498
vn -0.9849 0.0633 -0.1613
vn -0.5403 -0.2484 -0.8040
vn -0.4088 -0.6926 -0.5943
vn 0.0272 0.9981 0.0557
vn -0.2998 0.8782 -0.3727
vn -0.1765 -0.9487 -0.2622
vn -0.5124 0.4107 -0.7542
vn -0.5627 0.0550 -0.8249
vn 0.0816 -0.7011 -0.7084
vn 0.1214 -0.2571 -0.9587
vn 0.8044 -0.2109 -0.5554
vn 0.6792 -0.6095 -0.4088
vn 0.0849 0.8769 -0.4732
vn 0.0759 0.9957 0.0540
vn 0.4451 0.8699 0.2127
vn 0.6164 0.7686 -0.1713
vn 0.0358 -0.9475 -0.3179
vn 0.1244 0.0493 -0.9910
vn 0.1216 0.4062 -0.9057
vn 0.7850 0.3466 -0.5135
vn 0.8347 0.0366 -0.5495
vn 0.2460 -0.9463 -0.2097
vn 0.2200 -0.9142 -0.3403
vn 0.8410 0.5143 0.1681
vn 0.9676 0.2521 -0.0163
vn 0.7111 -0.7004 -0.0610
vn 0.9568 -0.2580 -0.1340
vn 0.7442 -0.2518 0.6186
vn 0.5523 -0.6956 0.4595
vn 0.4361 0.8994 -0.0314
vn -0.0795 0.9936 -0.0798
vn -0.0516 0.9969 0.0591
vn 0.3238 0.8833 0.3389
vn 0.3227 -0.9464 -0.0153
vn 0.9887 0.0781 -0.1277
vn 0.8728 0.4798 -0.0893
vn 0.6668 0.4779 0.5718
vn 0.7689 0.0701 0.6355
vn 0.2550 -0.9468 0.1960
vn 0.4392 -0.6388 -0.6316
vn 0.5616 -0.2256 -0.7960
vn 0.1356 0.0213 -0.9905
vn 0.0353 0.2545 -0.9664
vn 0.5027 0.4310 -0.7493
vn 0.5723 0.0553 -0.8182
vn 0.1415 0.8332 -0.5346
vn -0.2366 0.8958 -0.3762
vn 0.5889 -0.6329 -0.5027
vn 0.1448 -0.1625 -0.9760
vn 0.6455 0.6642 0.3771
vn -0.3943 0.7796 -0.4866
vn -0.2071 0.5966 -0.7753
vn 0.4101 -0.8943 -0.1790
vn 0.9984 0.0201 -0.0531
vn 0.9898 -0.1298 -0.0592
vn 0.0042 -0.9500 0.3123
vn -0.5627 0.0550 -0.8248
s 1
f 30/1/1 4/2/2 8/3/3
f 53/4/4 2/5/5 6/6/6 54/7/7
f 1/8/8 17/9/9 5/10/10
f 63/11/11 3/12/12 7/13/13 64/14/14
f 43/15/15 1/8/8 5/10/10 44/16/16
f 64/14/14 7/13/13 11/17/17 65/18/18
f 44/16/16 5/10/10 9/19/19 45/20/20
f 30/21/1 8/3/3 12/22/21
f 54/7/7 6/6/6 10/23/22 55/24/23
f 5/10/10 17/25/9 9/19/19
f 65/18/18 11/17/17 15/26/24 66/27/25
f 9/19/19 13/28/26 46/29/27
f 30/30/1 12/22/21 16/31/28
f 55/24/23 10/23/22 14/32/29 56/33/30
f 9/19/19 17/34/9 13/28/26
f 71/35/31 34/36/32 20/37/33 67/38/34
f 50/39/35 31/40/36 18/41/37 47/42/38
f 30/43/1 16/31/28 35/44/39
f 59/45/40 38/46/41 19/47/42 57/48/43
f 17/49/9 18/41/37 31/40/36
f 56/33/30 14/32/29 38/46/41 59/45/40
f 46/29/27 13/28/26 31/40/36 50/39/35
f 30/50/1 33/51/44 25/52/45
f 66/27/25 15/26/24 34/36/32 71/35/31
f 51/53/46 37/54/47 19/47/42 47/42/38
f 72/55/48 40/56/49 28/57/50 69/58/51
f 52/59/52 42/60/53 26/61/54 49/62/55
f 30/63/1 25/64/45 39/65/56
f 62/66/57 41/67/58 27/68/59 60/69/60
f 17/70/9 26/61/54 42/60/53
f 69/58/51 28/57/50 3/12/12 63/11/11
f 49/62/55 26/61/54 1/8/8 43/15/15
f 30/71/1 29/72/61 4/2/2
f 60/69/60 27/68/59 2/5/5 53/4/4
f 26/61/54 17/73/9 1/8/8
f 68/74/62 24/75/63 40/56/49 72/55/48
f 61/76/64 37/54/65 23/77/66 58/78/67
f 48/79/68 22/80/69 42/60/53 52/59/52
f 70/81/70 32/82/71 24/83/63 68/84/62
f 17/85/9 36/86/72 18/41/37
f 36/86/73 17/85/9 22/87/69
f 58/88/67 23/89/66 41/67/58 62/66/57
f 51/53/74 36/86/73 22/87/69 48/90/68
f 67/38/34 70/81/70 33/51/44 21/91/75
f 21/91/75 33/51/44 30/50/1
f 57/48/43 61/76/76 32/82/77 20/37/33
f 29/72/61 30/63/1 39/65/56
f 21/91/75 30/43/1 35/44/39
f 22/80/69 17/70/9 42/60/53
f 13/28/26 17/49/9 31/40/36
f 37/54/65 51/53/74 48/90/68 23/77/66
f 23/89/66 48/79/68 52/59/52 41/67/58
f 27/68/59 49/62/55 43/15/15 2/5/5
f 41/67/58 52/59/52 49/62/55 27/68/59
f 36/86/72 51/53/46 47/42/38 18/41/37
f 14/32/29 46/29/27 50/39/35 38/46/41
f 38/46/41 50/39/35 47/42/38 19/47/42
f 10/23/22 45/20/20 46/29/27 14/32/29
f 6/6/6 44/16/16 45/20/20 10/23/22
f 2/5/5 43/15/15 44/16/16 6/6/6
f 45/20/20 9/19/19 46/29/27
f 19/47/42 37/54/47 61/76/76 57/48/43
f 24/75/63 58/88/67 62/66/57 40/56/49
f 32/82/71 61/76/64 58/78/67 24/83/63
f 28/57/50 60/69/60 53/4/4 3/12/12
f 40/56/49 62/66/57 60/69/60 28/57/50
f 15/26/24 56/33/30 59/45/40 34/36/32
f 34/36/32 59/45/40 57/48/43 20/37/33
f 11/17/17 55/24/23 56/33/30 15/26/24
f 7/13/13 54/7/7 55/24/23 11/17/17
f 3/12/12 53/4/4 54/7/7 7/13/13
f 20/37/33 32/82/77 70/81/70 67/38/34
f 33/51/44 70/81/70 68/84/62 25/52/45
f 25/64/45 68/74/62 72/55/48 39/65/56
f 29/72/61 69/58/51 63/11/11 4/2/2
f 39/65/56 72/55/48 69/58/51 29/72/61
f 16/31/28 66/27/25 71/35/31 35/44/39
f 35/44/39 71/35/31 67/38/34 21/91/75
f 12/22/21 65/18/18 66/27/25 16/31/28
f 8/3/3 64/14/14 65/18/18 12/22/21
f 4/2/2 63/11/11 64/14/14 8/3/3
f 102/92/1 76/93/78 80/94/3
f 125/95/4 74/96/5 78/97/6 126/98/7
f 73/99/8 89/100/9 77/101/10
f 135/102/11 75/103/12 79/104/13 136/105/14
f 115/106/15 73/99/8 77/101/10 116/107/16
f 136/105/14 79/104/13 83/108/17 137/109/18
f 116/107/16 77/101/10 81/110/19 117/111/20
f 102/112/1 80/94/3 84/113/21
f 126/98/7 78/97/6 82/114/22 127/115/23
f 77/101/10 89/116/9 81/110/19
f 137/109/18 83/108/17 87/117/24 138/118/25
f 81/110/19 85/119/26 118/120/27
f 102/121/1 84/113/21 88/122/28
f 127/115/23 82/114/22 86/123/29 128/124/79
f 81/110/19 89/125/9 85/119/26
f 143/126/31 106/127/32 92/128/33 139/129/34
f 122/130/35 103/131/36 90/132/37 119/133/38
f 102/134/1 88/122/28 107/135/39
f 131/136/40 110/137/41 91/138/42 129/139/43
f 89/140/9 90/132/37 103/131/36
f 128/124/79 86/123/29 110/137/41 131/136/40
f 118/120/27 85/119/26 103/131/36 122/130/35
f 102/141/1 105/142/44 97/143/45
f 138/118/25 87/117/24 106/127/32 143/126/31
f 123/144/46 109/145/47 91/138/42 119/133/38
f 144/146/48 112/147/49 100/148/50 141/149/51
f 124/150/52 114/151/53 98/152/54 121/153/55
f 102/154/1 97/155/45 111/156/56
f 134/157/57 113/158/58 99/159/59 132/160/60
f 89/161/9 98/152/54 114/151/53
f 141/149/51 100/148/50 75/103/12 135/102/11
f 121/153/55 98/152/54 73/99/8 115/106/15
f 102/162/1 101/163/61 76/93/78
f 132/160/60 99/159/59 74/96/5 125/95/4
f 98/152/54 89/164/9 73/99/8
f 140/165/62 96/166/63 112/147/49 144/146/48
f 133/167/64 109/145/65 95/168/66 130/169/67
f 120/170/68 94/171/69 114/151/53 124/150/52
f 142/172/70 104/173/71 96/174/63 140/175/62
f 89/176/9 108/177/72 90/132/37
f 108/177/73 89/176/9 94/178/69
f 130/179/67 95/180/66 113/158/58 134/157/57
f 123/144/74 108/177/73 94/178/69 120/181/68
f 139/129/34 142/172/70 105/142/44 93/182/75
f 93/182/75 105/142/44 102/141/1
f 129/139/43 133/167/76 104/173/77 92/128/33
f 101/163/61 102/154/1 111/156/56
f 93/182/75 102/134/1 107/135/39
f 94/171/69 89/161/9 114/151/53
f 85/119/26 89/140/9 103/131/36
f 109/145/65 123/144/74 120/181/68 95/168/66
f 95/180/66 120/170/68 124/150/52 113/158/58
f 99/159/59 121/153/55 115/106/15 74/96/5
f 113/158/58 124/150/52 121/153/55 99/159/59
f 108/177/72 123/144/46 119/133/38 90/132/37
f 86/123/29 118/120/27 122/130/35 110/137/41
f 110/137/41 122/130/35 119/133/38 91/138/42
f 82/114/22 117/111/20 118/120/27 86/123/29
f 78/97/6 116/107/16 117/111/20 82/114/22
f 74/96/5 115/106/15 116/107/16 78/97/6
f 117/111/20 81/110/19 118/120/27
f 91/138/42 109/145/47 133/167/76 129/139/43
f 96/166/63 130/179/67 134/157/57 112/147/49
f 104/173/71 133/167/64 130/169/67 96/174/63
f 100/148/50 132/160/60 125/95/4 75/103/12
f 112/147/49 134/157/57 132/160/60 100/148/50
f 87/117/24 128/124/79 131/136/40 106/127/32
f 106/127/32 131/136/40 129/139/43 92/128/33
f 83/108/17 127/115/23 128/124/79 87/117/24
f 79/104/13 126/98/7 127/115/23 83/108/17
f 75/103/12 125/95/4 126/98/7 79/104/13
f 92/128/33 104/173/77 142/172/70 139/129/34
f 105/142/44 142/172/70 140/175/62 97/143/45
f 97/155/45 140/165/62 144/146/48 111/156/56
f 101/163/61 141/149/51 135/102/11 76/93/78
f 111/156/56 144/146/48 141/149/51 101/163/61
f 88/122/28 138/118/25 143/126/31 107/135/39
f 107/135/39 143/126/31 139/129/34 93/182/75
f 84/113/21 137/109/18 138/118/25 88/122/28
f 80/94/3 136/105/14 137/109/18 84/113/21
f 76/93/78 135/102/11 136/105/14 80/94/3
f 174/183/1 148/184/2 152/185/3
f 197/186/4 146/187/5 150/188/6 198/189/7
f 145/190/8 161/191/9 149/192/10
f 207/193/11 147/194/12 151/195/13 208/196/14
f 187/197/15 145/190/8 149/192/10 188/198/16
f 208/196/14 151/195/13 155/199/17 209/200/18
f 188/198/16 149/192/10 153/201/19 189/202/20
f 174/203/1 152/185/3 156/204/21
f 198/189/7 150/188/6 154/205/22 199/206/23
f 149/192/10 161/207/9 153/201/19
f 209/200/18 155/199/17 159/208/24 210/209/25
f 153/201/19 157/210/26 190/211/27
f 174/212/1 156/204/21 160/213/28
f 199/206/23 154/205/22 158/214/29 200/215/30
f 153/201/19 161/216/9 157/210/26
f 215/217/31 178/218/32 164/219/33 211/220/34
f 194/221/35 175/222/36 162/223/37 191/224/38
f 174/225/1 160/213/28 179/226/39
f 203/227/40 182/228/41 163/229/42 201/230/43
f 161/231/9 162/223/37 175/222/36
f 200/215/30 158/214/29 182/228/41 203/227/40
f 190/211/27 157/210/26 175/222/36 194/221/35
f 174/232/1 177/233/44 169/234/45
f 210/209/25 159/208/24 178/218/32 215/217/31
f 195/235/46 181/236/47 163/229/42 191/224/38
f 216/237/48 184/238/49 172/239/50 213/240/51
f 196/241/52 186/242/53 170/243/54 193/244/55
f 174/245/1 169/246/45 183/247/56
f 206/248/57 185/249/58 171/250/59 204/251/60
f 161/252/9 170/243/54 186/242/53
f 213/240/51 172/239/50 147/194/12 207/193/11
f 193/244/55 170/243/54 145/190/8 187/197/15
f 174/253/1 173/254/61 148/184/2
f 204/251/60 171/250/59 146/187/5 197/186/4
f 170/243/54 161/255/9 145/190/8
f 212/256/62 168/257/63 184/238/49 216/237/48
f 205/258/64 181/236/65 167/259/66 202/260/67
f 192/261/68 166/262/69 186/242/53 196/241/52
f 214/263/70 176/264/71 168/265/63 212/266/62
f 161/267/9 180/268/72 162/223/37
f 180/268/73 161/267/9 166/269/69
f 202/270/67 167/271/66 185/249/58 206/248/57
f 195/235/74 180/268/73 166/269/69 192/272/68
f 211/220/34 214/263/70 177/233/44 165/273/75
f 165/273/75 177/233/44 174/232/1
f 201/230/43 205/258/76 176/264/77 164/219/33
f 173/254/61 174/245/1 183/247/56
f 165/273/75 174/225/1 179/226/39
f 166/262/69 161/252/9 186/242/53
f 157/210/26 161/231/9 175/222/36
f 181/236/65 195/235/74 192/272/68 167/259/66
f 167/271/66 192/261/68 196/241/52 185/249/58
f 171/250/59 193/244/55 187/197/15 146/187/5
f 185/249/58 196/241/52 193/244/55 171/250/59
f 180/268/72 195/235/46 191/224/38 162/223/37
f 158/214/29 190/211/27 194/221/35 182/228/41
f 182/228/41 194/221/35 191/224/38 163/229/42
f 154/205/22 189/202/20 190/211/27 158/214/29
f 150/188/6 188/198/16 189/202/20 154/205/22
f 146/187/5 187/197/15 188/198/16 150/188/6
f 189/202/20 153/201/19 190/211/27
f 163/229/42 181/236/47 205/258/76 201/230/43
f 168/257/63 202/270/67 206/248/57 184/238/49
f 176/264/71 205/258/64 202/260/67 168/265/63
f 172/239/50 204/251/60 197/186/4 147/194/12
f 184/238/49 206/248/57 204/251/60 172/239/50
f 159/208/24 200/215/30 203/227/40 178/218/32
f 178/218/32 203/227/40 201/230/43 164/219/33
f 155/199/17 199/206/23 200/215/30 159/208/24
f 151/195/13 198/189/7 199/206/23 155/199/17
f 147/194/12 197/186/4 198/189/7 151/195/13
f 164/219/33 176/264/77 214/263/70 211/220/34
f 177/233/44 214/263/70 212/266/62 169/234/45
f 169/246/45 212/256/62 216/237/48 183/247/56
f 173/254/61 213/240/51 207/193/11 148/184/2
f 183/247/56 216/237/48 213/240/51 173/254/61
f 160/213/28 210/209/25 215/217/31 179/226/39
f 179/226/39 215/217/31 211/220/34 165/273/75
f 156/204/21 209/200/18 210/209/25 160/213/28
f 152/185/3 208/196/14 209/200/18 156/204/21
f 148/184/2 207/193/11 208/196/14 152/185/3
