# Blender v2.82 (sub 7) OBJ File: 'trees.blend'
# www.blender.org
o pear_Sphere.005
v -0.570370 3.033225 -0.017785
v -0.446099 2.613811 0.116704
v -0.566093 3.016500 -0.100506
v -0.628340 3.023819 -0.042013
v -0.656118 2.959608 0.000807
v -0.649564 2.687180 0.076846
v -0.603241 2.571444 0.053085
v -0.491642 2.491180 -0.011830
v -0.651813 3.017817 -0.100506
v -0.696775 2.949211 -0.100506
v -0.720493 2.668057 -0.100506
v -0.668332 2.553895 -0.100506
v -0.521995 2.482997 -0.100506
v -0.628340 3.023819 -0.158999
v -0.656118 2.959608 -0.201819
v -0.649564 2.687180 -0.277858
v -0.603241 2.571444 -0.254097
v -0.491642 2.491180 -0.189182
v -0.427897 2.546301 -0.100506
v -0.570370 3.033225 -0.183228
v -0.557963 2.984707 -0.243784
v -0.478327 2.733347 -0.351319
v -0.446099 2.613811 -0.317717
v -0.422506 2.526305 -0.225913
v -0.515958 3.056545 -0.158999
v -0.459809 3.009806 -0.201819
v -0.307090 2.779515 -0.277858
v -0.288956 2.656178 -0.254097
v -0.345084 2.530694 -0.189182
v -0.492485 3.062548 -0.100506
v -0.419152 3.020203 -0.100506
v -0.236161 2.798638 -0.100506
v -0.223866 2.673728 -0.100506
v -0.314730 2.538878 -0.100506
v -0.515958 3.056545 -0.042013
v -0.459809 3.009806 0.000807
v -0.307090 2.779515 0.076845
v -0.288956 2.656178 0.053085
v -0.345084 2.530694 -0.011830
v -0.557963 2.984707 0.042772
v -0.478327 2.733347 0.150307
v -0.422506 2.526305 0.024900
v -0.565531 3.025486 -0.094407
v -0.519355 3.141892 -0.107650
v -0.539388 3.174300 -0.080119
v -0.575722 3.143972 -0.107650
v -0.637447 2.827466 0.022902
v -0.686864 2.814393 -0.100506
v -0.637447 2.827466 -0.223915
v -0.518145 2.859027 -0.275032
v -0.398843 2.890588 -0.223915
v -0.349427 2.903661 -0.100506
v -0.398843 2.890588 0.022902
v -0.518145 2.859027 0.074020
v -1.125840 2.184150 -0.017785
v -1.001569 1.764735 0.116704
v -1.121564 2.167425 -0.100506
v -1.183810 2.174744 -0.042013
v -1.211588 2.110532 0.000807
v -1.205034 1.838104 0.076846
v -1.158711 1.722368 0.053085
v -1.047112 1.642105 -0.011830
v -1.207283 2.168742 -0.100506
v -1.252245 2.100136 -0.100506
v -1.275963 1.818982 -0.100506
v -1.223802 1.704819 -0.100506
v -1.077466 1.633922 -0.100506
v -1.183810 2.174744 -0.158999
v -1.211588 2.110532 -0.201819
v -1.205034 1.838104 -0.277858
v -1.158711 1.722368 -0.254097
v -1.047112 1.642105 -0.189182
v -0.983367 1.697225 -0.100506
v -1.125840 2.184150 -0.183228
v -1.113434 2.135632 -0.243784
v -1.033797 1.884272 -0.351319
v -1.001569 1.764735 -0.317717
v -0.977976 1.677229 -0.225913
v -1.071429 2.207470 -0.158999
v -1.015279 2.160731 -0.201819
v -0.862560 1.930439 -0.277858
v -0.844426 1.807103 -0.254097
v -0.900554 1.681619 -0.189182
v -1.047955 2.213472 -0.100506
v -0.974622 2.171128 -0.100506
v -0.791631 1.949562 -0.100506
v -0.779336 1.824652 -0.100506
v -0.870201 1.689802 -0.100506
v -1.071429 2.207470 -0.042013
v -1.015279 2.160731 0.000807
v -0.862560 1.930439 0.076845
v -0.844426 1.807103 0.053085
v -0.900554 1.681619 -0.011830
v -1.113434 2.135632 0.042772
v -1.033797 1.884272 0.150307
v -0.977976 1.677229 0.024900
v -1.121001 2.176410 -0.094407
v -1.074826 2.292816 -0.107650
v -1.094858 2.325225 -0.080119
v -1.131192 2.294897 -0.107650
v -1.192917 1.978391 0.022902
v -1.242334 1.965318 -0.100506
v -1.192917 1.978391 -0.223915
v -1.073615 2.009952 -0.275032
v -0.954313 2.041513 -0.223915
v -0.904897 2.054586 -0.100506
v -0.954313 2.041513 0.022902
v -1.073615 2.009952 0.074020
v 0.072388 2.184150 -0.017785
v 0.196660 1.764735 0.116704
v 0.076665 2.167425 -0.100506
v 0.014418 2.174744 -0.042013
v -0.013360 2.110532 0.000807
v -0.006806 1.838104 0.076846
v 0.039517 1.722368 0.053085
v 0.151116 1.642105 -0.011830
v -0.009055 2.168742 -0.100506
v -0.054017 2.100136 -0.100506
v -0.077735 1.818982 -0.100506
v -0.025574 1.704819 -0.100506
v 0.120763 1.633922 -0.100506
v 0.014418 2.174744 -0.158999
v -0.013360 2.110532 -0.201819
v -0.006806 1.838104 -0.277858
v 0.039517 1.722368 -0.254097
v 0.151116 1.642105 -0.189182
v 0.214861 1.697225 -0.100506
v 0.072388 2.184150 -0.183228
v 0.084795 2.135632 -0.243784
v 0.164431 1.884272 -0.351319
v 0.196660 1.764735 -0.317717
v 0.220252 1.677229 -0.225913
v 0.126800 2.207470 -0.158999
v 0.182949 2.160731 -0.201819
v 0.335668 1.930439 -0.277858
v 0.353802 1.807103 -0.254097
v 0.297675 1.681619 -0.189182
v 0.150273 2.213472 -0.100506
v 0.223606 2.171128 -0.100506
v 0.406597 1.949562 -0.100506
v 0.418893 1.824652 -0.100506
v 0.328028 1.689802 -0.100506
v 0.126800 2.207470 -0.042013
v 0.182949 2.160731 0.000807
v 0.335669 1.930439 0.076845
v 0.353802 1.807103 0.053085
v 0.297675 1.681619 -0.011830
v 0.084795 2.135632 0.042772
v 0.164431 1.884272 0.150307
v 0.220252 1.677229 0.024900
v 0.077227 2.176410 -0.094407
v 0.123403 2.292816 -0.107650
v 0.103370 2.325225 -0.080119
v 0.067036 2.294897 -0.107650
v 0.005311 1.978391 0.022902
v -0.044105 1.965318 -0.100506
v 0.005311 1.978391 -0.223915
v 0.124613 2.009952 -0.275032
v 0.243915 2.041513 -0.223915
v 0.293331 2.054586 -0.100506
v 0.243915 2.041513 0.022902
v 0.124613 2.009952 0.074020
vt 0.677708 0.335317
vt 0.677708 0.375971
vt 0.650283 0.375971
vt 0.650283 0.335317
vt 0.677708 0.416624
vt 0.677708 0.457277
vt 0.650283 0.457277
vt 0.650283 0.416624
vt 0.677708 0.294664
vt 0.650283 0.294664
vt 0.677708 0.396297
vt 0.650283 0.396297
vt 0.663996 0.497931
vt 0.663996 0.254011
vt 0.622858 0.335317
vt 0.622858 0.294664
vt 0.622858 0.416624
vt 0.622858 0.396297
vt 0.636571 0.497931
vt 0.622858 0.457277
vt 0.636571 0.254011
vt 0.622858 0.375971
vt 0.595434 0.335317
vt 0.595434 0.294664
vt 0.595434 0.416624
vt 0.595434 0.396297
vt 0.609146 0.497931
vt 0.595434 0.457277
vt 0.609146 0.254011
vt 0.595434 0.375971
vt 0.568009 0.335317
vt 0.568009 0.294664
vt 0.568009 0.416624
vt 0.568008 0.396297
vt 0.581721 0.497931
vt 0.568009 0.457277
vt 0.581721 0.254011
vt 0.568009 0.375971
vt 0.540584 0.416624
vt 0.540584 0.396297
vt 0.554296 0.497931
vt 0.540584 0.457277
vt 0.554296 0.254011
vt 0.540584 0.294664
vt 0.540584 0.375971
vt 0.540584 0.335317
vt 0.526871 0.497931
vt 0.513159 0.457277
vt 0.526871 0.254011
vt 0.513159 0.294664
vt 0.513159 0.375971
vt 0.513159 0.335317
vt 0.513159 0.416624
vt 0.513159 0.396297
vt 0.718845 0.254011
vt 0.732558 0.294664
vt 0.705133 0.294664
vt 0.732558 0.335317
vt 0.732558 0.375971
vt 0.705133 0.375971
vt 0.705133 0.335317
vt 0.732558 0.416624
vt 0.732558 0.457277
vt 0.705133 0.457277
vt 0.705133 0.416624
vt 0.732558 0.396297
vt 0.705133 0.396297
vt 0.718845 0.497931
vt 0.691421 0.254011
vt 0.691421 0.497931
vt 0.521640 0.697015
vt 0.521640 0.697015
vt 0.521640 0.697015
vt 0.521640 0.697015
vt 0.677708 0.335317
vt 0.677708 0.375971
vt 0.650283 0.375971
vt 0.650283 0.335317
vt 0.677708 0.416624
vt 0.677708 0.457277
vt 0.650283 0.457277
vt 0.650283 0.416624
vt 0.677708 0.294664
vt 0.650283 0.294664
vt 0.677708 0.396297
vt 0.650283 0.396297
vt 0.663996 0.497931
vt 0.663996 0.254011
vt 0.622858 0.335317
vt 0.622858 0.294664
vt 0.622858 0.416624
vt 0.622858 0.396297
vt 0.636571 0.497931
vt 0.622858 0.457277
vt 0.636571 0.254011
vt 0.622858 0.375971
vt 0.595434 0.335317
vt 0.595434 0.294664
vt 0.595434 0.416624
vt 0.595434 0.396297
vt 0.609146 0.497931
vt 0.595434 0.457277
vt 0.609146 0.254011
vt 0.595434 0.375971
vt 0.568009 0.335317
vt 0.568009 0.294664
vt 0.568009 0.416624
vt 0.568008 0.396297
vt 0.581721 0.497931
vt 0.568009 0.457277
vt 0.581721 0.254011
vt 0.568009 0.375971
vt 0.540584 0.416624
vt 0.540584 0.396297
vt 0.554296 0.497931
vt 0.540584 0.457277
vt 0.554296 0.254011
vt 0.540584 0.294664
vt 0.540584 0.375971
vt 0.540584 0.335317
vt 0.526871 0.497931
vt 0.513159 0.457277
vt 0.526871 0.254011
vt 0.513159 0.294664
vt 0.513159 0.375971
vt 0.513159 0.335317
vt 0.513159 0.416624
vt 0.513159 0.396297
vt 0.718845 0.254011
vt 0.732558 0.294664
vt 0.705133 0.294664
vt 0.732558 0.335317
vt 0.732558 0.375971
vt 0.705133 0.375971
vt 0.705133 0.335317
vt 0.732558 0.416624
vt 0.732558 0.457277
vt 0.705133 0.457277
vt 0.705133 0.416624
vt 0.732558 0.396297
vt 0.705133 0.396297
vt 0.718845 0.497931
vt 0.691421 0.254011
vt 0.691421 0.497931
vt 0.521640 0.697015
vt 0.521640 0.697015
vt 0.521640 0.697015
vt 0.521640 0.697015
vt 0.677708 0.335317
vt 0.677708 0.375971
vt 0.650283 0.375971
vt 0.650283 0.335317
vt 0.677708 0.416624
vt 0.677708 0.457277
vt 0.650283 0.457277
vt 0.650283 0.416624
vt 0.677708 0.294664
vt 0.650283 0.294664
vt 0.677708 0.396297
vt 0.650283 0.396297
vt 0.663996 0.497931
vt 0.663996 0.254011
vt 0.622858 0.335317
vt 0.622858 0.294664
vt 0.622858 0.416624
vt 0.622858 0.396297
vt 0.636571 0.497931
vt 0.622858 0.457277
vt 0.636571 0.254011
vt 0.622858 0.375971
vt 0.595434 0.335317
vt 0.595434 0.294664
vt 0.595434 0.416624
vt 0.595434 0.396297
vt 0.609146 0.497931
vt 0.595434 0.457277
vt 0.609146 0.254011
vt 0.595434 0.375971
vt 0.568009 0.335317
vt 0.568009 0.294664
vt 0.568009 0.416624
vt 0.568008 0.396297
vt 0.581721 0.497931
vt 0.568009 0.457277
vt 0.581721 0.254011
vt 0.568009 0.375971
vt 0.540584 0.416624
vt 0.540584 0.396297
vt 0.554296 0.497931
vt 0.540584 0.457277
vt 0.554296 0.254011
vt 0.540584 0.294664
vt 0.540584 0.375971
vt 0.540584 0.335317
vt 0.526871 0.497931
vt 0.513159 0.457277
vt 0.526871 0.254011
vt 0.513159 0.294664
vt 0.513159 0.375971
vt 0.513159 0.335317
vt 0.513159 0.416624
vt 0.513159 0.396297
vt 0.718845 0.254011
vt 0.732558 0.294664
vt 0.705133 0.294664
vt 0.732558 0.335317
vt 0.732558 0.375971
vt 0.705133 0.375971
vt 0.705133 0.335317
vt 0.732558 0.416624
vt 0.732558 0.457277
vt 0.705133 0.457277
vt 0.705133 0.416624
vt 0.732558 0.396297
vt 0.705133 0.396297
vt 0.718845 0.497931
vt 0.691421 0.254011
vt 0.691421 0.497931
vt 0.521640 0.697015
vt 0.521640 0.697015
vt 0.521640 0.697015
vt 0.521640 0.697015
vn 0.1200 -0.4451 0.8874
vn -0.0291 0.1228 0.9920
vn -0.7016 -0.0539 0.7105
vn -0.4866 -0.6106 0.6247
vn -0.1296 0.4621 0.8773
vn -0.2452 0.8961 0.3700
vn -0.4449 0.8605 0.2482
vn -0.7236 0.2953 0.6239
vn 0.2326 -0.8628 0.4488
vn 0.0701 -0.9575 0.2796
vn -0.0996 0.3696 0.9238
vn -0.7306 0.1722 0.6607
vn -0.2724 0.9622 0.0000
vn 0.2603 -0.9655 0.0000
vn -0.7412 -0.6712 0.0000
vn -0.0408 -0.9991 0.0000
vn -0.9761 0.2173 0.0000
vn -0.9960 0.0891 0.0000
vn -0.5636 0.8260 0.0000
vn -0.9928 -0.1198 0.0000
vn -0.4866 -0.6106 -0.6247
vn 0.0701 -0.9575 -0.2796
vn -0.7236 0.2953 -0.6239
vn -0.7306 0.1722 -0.6607
vn -0.4449 0.8605 -0.2482
vn -0.7016 -0.0539 -0.7105
vn 0.1200 -0.4451 -0.8874
vn 0.2326 -0.8628 -0.4488
vn -0.1296 0.4621 -0.8773
vn -0.0996 0.3696 -0.9238
vn -0.2452 0.8961 -0.3700
vn -0.0291 0.1228 -0.9920
vn 0.4659 0.6275 -0.6238
vn 0.5169 0.5624 -0.6453
vn -0.0377 0.9660 -0.2557
vn 0.4207 -0.8630 -0.2796
vn 0.6294 0.3276 -0.7046
vn 0.7276 -0.2833 -0.6247
vn 0.1007 0.9949 0.0000
vn 0.5375 -0.8432 0.0000
vn 0.9057 0.4238 0.0000
vn 0.9782 -0.2076 0.0000
vn 0.7224 0.6914 0.0000
vn 0.7677 0.6408 0.0000
vn 0.4207 -0.8630 0.2796
vn 0.6294 0.3276 0.7046
vn 0.7276 -0.2833 0.6247
vn -0.0377 0.9660 0.2557
vn 0.4659 0.6275 0.6238
vn 0.5169 0.5624 0.6453
vn 0.1576 0.8667 0.4732
vn 0.9009 0.1379 -0.4114
vn -0.8698 0.3361 -0.3611
vn -0.1544 -0.9871 0.0420
vn 0.1576 0.8668 0.4732
s 1
f 2/1/1 41/2/2 6/3/3 7/4/4
f 40/5/5 1/6/6 4/7/7 5/8/8
f 42/9/9 2/1/1 7/4/4 8/10/10
f 54/11/11 40/5/5 5/8/8 47/12/12
f 1/6/6 3/13/13 4/7/7
f 19/14/14 42/9/9 8/10/10
f 8/10/10 7/4/4 12/15/15 13/16/16
f 47/12/12 5/8/8 10/17/17 48/18/18
f 4/7/7 3/19/13 9/20/19
f 19/21/14 8/10/10 13/16/16
f 7/4/4 6/3/3 11/22/20 12/15/15
f 5/8/8 4/7/7 9/20/19 10/17/17
f 13/16/16 12/15/15 17/23/21 18/24/22
f 48/18/18 10/17/17 15/25/23 49/26/24
f 9/20/19 3/27/13 14/28/25
f 19/29/14 13/16/16 18/24/22
f 12/15/15 11/22/20 16/30/26 17/23/21
f 10/17/17 9/20/19 14/28/25 15/25/23
f 18/24/22 17/23/21 23/31/27 24/32/28
f 49/26/24 15/25/23 21/33/29 50/34/30
f 14/28/25 3/35/13 20/36/31
f 19/37/14 18/24/22 24/32/28
f 17/23/21 16/30/26 22/38/32 23/31/27
f 15/25/23 14/28/25 20/36/31 21/33/29
f 50/34/30 21/33/29 26/39/33 51/40/34
f 20/36/31 3/41/13 25/42/35
f 19/43/14 24/32/28 29/44/36
f 23/31/27 22/38/32 27/45/37 28/46/38
f 21/33/29 20/36/31 25/42/35 26/39/33
f 24/32/28 23/31/27 28/46/38 29/44/36
f 25/42/35 3/47/13 30/48/39
f 19/49/14 29/44/36 34/50/40
f 28/46/38 27/45/37 32/51/41 33/52/42
f 26/39/33 25/42/35 30/48/39 31/53/43
f 29/44/36 28/46/38 33/52/42 34/50/40
f 51/40/34 26/39/33 31/53/43 52/54/44
f 19/55/14 34/56/40 39/57/45
f 33/58/42 32/59/41 37/60/46 38/61/47
f 31/62/43 30/63/39 35/64/48 36/65/49
f 34/56/40 33/58/42 38/61/47 39/57/45
f 52/66/44 31/62/43 36/65/49 53/67/50
f 30/63/39 3/68/13 35/64/48
f 19/69/14 39/57/45 42/9/9
f 38/61/47 37/60/46 41/2/2 2/1/1
f 36/65/49 35/64/48 1/6/6 40/5/5
f 39/57/45 38/61/47 2/1/1 42/9/9
f 53/67/50 36/65/49 40/5/5 54/11/11
f 35/64/48 3/70/13 1/6/6
f 45/71/51 44/72/52 46/73/53
f 44/72/52 45/71/51 43/74/54
f 45/71/51 46/73/53 43/74/54
f 43/74/54 46/73/53 44/72/52
f 37/60/46 53/67/50 54/11/11 41/2/2
f 32/59/41 52/66/44 53/67/50 37/60/46
f 27/45/37 51/40/34 52/54/44 32/51/41
f 22/38/32 50/34/30 51/40/34 27/45/37
f 16/30/26 49/26/24 50/34/30 22/38/32
f 11/22/20 48/18/18 49/26/24 16/30/26
f 6/3/3 47/12/12 48/18/18 11/22/20
f 41/2/2 54/11/11 47/12/12 6/3/3
f 56/75/1 95/76/2 60/77/3 61/78/4
f 94/79/5 55/80/6 58/81/7 59/82/8
f 96/83/9 56/75/1 61/78/4 62/84/10
f 108/85/11 94/79/5 59/82/8 101/86/12
f 55/80/6 57/87/13 58/81/7
f 73/88/14 96/83/9 62/84/10
f 62/84/10 61/78/4 66/89/15 67/90/16
f 101/86/12 59/82/8 64/91/17 102/92/18
f 58/81/7 57/93/13 63/94/19
f 73/95/14 62/84/10 67/90/16
f 61/78/4 60/77/3 65/96/20 66/89/15
f 59/82/8 58/81/7 63/94/19 64/91/17
f 67/90/16 66/89/15 71/97/21 72/98/22
f 102/92/18 64/91/17 69/99/23 103/100/24
f 63/94/19 57/101/13 68/102/25
f 73/103/14 67/90/16 72/98/22
f 66/89/15 65/96/20 70/104/26 71/97/21
f 64/91/17 63/94/19 68/102/25 69/99/23
f 72/98/22 71/97/21 77/105/27 78/106/28
f 103/100/24 69/99/23 75/107/29 104/108/30
f 68/102/25 57/109/13 74/110/31
f 73/111/14 72/98/22 78/106/28
f 71/97/21 70/104/26 76/112/32 77/105/27
f 69/99/23 68/102/25 74/110/31 75/107/29
f 104/108/30 75/107/29 80/113/33 105/114/34
f 74/110/31 57/115/13 79/116/35
f 73/117/14 78/106/28 83/118/36
f 77/105/27 76/112/32 81/119/37 82/120/38
f 75/107/29 74/110/31 79/116/35 80/113/33
f 78/106/28 77/105/27 82/120/38 83/118/36
f 79/116/35 57/121/13 84/122/39
f 73/123/14 83/118/36 88/124/40
f 82/120/38 81/119/37 86/125/41 87/126/42
f 80/113/33 79/116/35 84/122/39 85/127/43
f 83/118/36 82/120/38 87/126/42 88/124/40
f 105/114/34 80/113/33 85/127/43 106/128/44
f 73/129/14 88/130/40 93/131/45
f 87/132/42 86/133/41 91/134/46 92/135/47
f 85/136/43 84/137/39 89/138/48 90/139/49
f 88/130/40 87/132/42 92/135/47 93/131/45
f 106/140/44 85/136/43 90/139/49 107/141/50
f 84/137/39 57/142/13 89/138/48
f 73/143/14 93/131/45 96/83/9
f 92/135/47 91/134/46 95/76/2 56/75/1
f 90/139/49 89/138/48 55/80/6 94/79/5
f 93/131/45 92/135/47 56/75/1 96/83/9
f 107/141/50 90/139/49 94/79/5 108/85/11
f 89/138/48 57/144/13 55/80/6
f 99/145/55 98/146/52 100/147/53
f 98/146/52 99/145/55 97/148/54
f 99/145/55 100/147/53 97/148/54
f 97/148/54 100/147/53 98/146/52
f 91/134/46 107/141/50 108/85/11 95/76/2
f 86/133/41 106/140/44 107/141/50 91/134/46
f 81/119/37 105/114/34 106/128/44 86/125/41
f 76/112/32 104/108/30 105/114/34 81/119/37
f 70/104/26 103/100/24 104/108/30 76/112/32
f 65/96/20 102/92/18 103/100/24 70/104/26
f 60/77/3 101/86/12 102/92/18 65/96/20
f 95/76/2 108/85/11 101/86/12 60/77/3
f 110/149/1 149/150/2 114/151/3 115/152/4
f 148/153/5 109/154/6 112/155/7 113/156/8
f 150/157/9 110/149/1 115/152/4 116/158/10
f 162/159/11 148/153/5 113/156/8 155/160/12
f 109/154/6 111/161/13 112/155/7
f 127/162/14 150/157/9 116/158/10
f 116/158/10 115/152/4 120/163/15 121/164/16
f 155/160/12 113/156/8 118/165/17 156/166/18
f 112/155/7 111/167/13 117/168/19
f 127/169/14 116/158/10 121/164/16
f 115/152/4 114/151/3 119/170/20 120/163/15
f 113/156/8 112/155/7 117/168/19 118/165/17
f 121/164/16 120/163/15 125/171/21 126/172/22
f 156/166/18 118/165/17 123/173/23 157/174/24
f 117/168/19 111/175/13 122/176/25
f 127/177/14 121/164/16 126/172/22
f 120/163/15 119/170/20 124/178/26 125/171/21
f 118/165/17 117/168/19 122/176/25 123/173/23
f 126/172/22 125/171/21 131/179/27 132/180/28
f 157/174/24 123/173/23 129/181/29 158/182/30
f 122/176/25 111/183/13 128/184/31
f 127/185/14 126/172/22 132/180/28
f 125/171/21 124/178/26 130/186/32 131/179/27
f 123/173/23 122/176/25 128/184/31 129/181/29
f 158/182/30 129/181/29 134/187/33 159/188/34
f 128/184/31 111/189/13 133/190/35
f 127/191/14 132/180/28 137/192/36
f 131/179/27 130/186/32 135/193/37 136/194/38
f 129/181/29 128/184/31 133/190/35 134/187/33
f 132/180/28 131/179/27 136/194/38 137/192/36
f 133/190/35 111/195/13 138/196/39
f 127/197/14 137/192/36 142/198/40
f 136/194/38 135/193/37 140/199/41 141/200/42
f 134/187/33 133/190/35 138/196/39 139/201/43
f 137/192/36 136/194/38 141/200/42 142/198/40
f 159/188/34 134/187/33 139/201/43 160/202/44
f 127/203/14 142/204/40 147/205/45
f 141/206/42 140/207/41 145/208/46 146/209/47
f 139/210/43 138/211/39 143/212/48 144/213/49
f 142/204/40 141/206/42 146/209/47 147/205/45
f 160/214/44 139/210/43 144/213/49 161/215/50
f 138/211/39 111/216/13 143/212/48
f 127/217/14 147/205/45 150/157/9
f 146/209/47 145/208/46 149/150/2 110/149/1
f 144/213/49 143/212/48 109/154/6 148/153/5
f 147/205/45 146/209/47 110/149/1 150/157/9
f 161/215/50 144/213/49 148/153/5 162/159/11
f 143/212/48 111/218/13 109/154/6
f 153/219/55 152/220/52 154/221/53
f 152/220/52 153/219/55 151/222/54
f 153/219/55 154/221/53 151/222/54
f 151/222/54 154/221/53 152/220/52
f 145/208/46 161/215/50 162/159/11 149/150/2
f 140/207/41 160/214/44 161/215/50 145/208/46
f 135/193/37 159/188/34 160/202/44 140/199/41
f 130/186/32 158/182/30 159/188/34 135/193/37
f 124/178/26 157/174/24 158/182/30 130/186/32
f 119/170/20 156/166/18 157/174/24 124/178/26
f 114/151/3 155/160/12 156/166/18 119/170/20
f 149/150/2 162/159/11 155/160/12 114/151/3
