# Blender v2.82 (sub 7) OBJ File: 'fences.blend'
# www.blender.org
o fence14_linked_Cylinder.006
v -0.015994 0.376924 -0.015994
v -0.015994 0.408911 -0.015994
v 0.015994 0.376924 -0.015994
v 0.015994 0.408911 -0.015994
v -0.018528 0.409999 0.099616
v 0.018528 0.409999 0.099616
v 0.009957 0.406591 0.109982
v -0.004979 0.411339 0.117180
v -0.004979 0.401842 0.102783
v -0.000000 0.444836 0.084754
v -0.018528 0.414050 0.158806
v 0.018528 0.414050 0.158806
v 0.009957 0.409261 0.149001
v -0.004979 0.412984 0.141223
v -0.004979 0.405538 0.156780
v -0.000000 0.450587 0.168783
v -0.004979 0.771545 0.370586
v 0.009957 0.766903 0.377854
v -0.018528 0.373030 0.102146
v 0.018528 0.373030 0.102146
v 0.009957 0.377818 0.111951
v -0.004979 0.374095 0.119729
v -0.004979 0.381542 0.104172
v -0.000000 0.336492 0.092169
v -0.004979 0.772837 0.346522
v 0.009957 0.769000 0.338800
v -0.018528 0.377081 0.161336
v 0.018528 0.377081 0.161336
v 0.009957 0.380489 0.150970
v -0.004979 0.375740 0.143772
v -0.004979 0.385237 0.158169
v -0.000000 0.342243 0.176198
v 0.018528 0.770464 0.388168
v -0.018528 0.770464 0.388168
v 0.018528 0.773643 0.328926
v -0.018528 0.773643 0.328926
v -0.000000 0.810030 0.318412
v -0.004979 0.765162 0.331077
v -0.004979 0.762261 0.385122
v -0.000000 0.805516 0.402517
v -0.018528 0.736641 0.326940
v 0.018528 0.736641 0.326940
v 0.009957 0.740201 0.337254
v -0.004979 0.735559 0.344521
v -0.004979 0.744843 0.329986
v -0.000000 0.701589 0.312591
v -0.018528 0.733461 0.386182
v 0.018528 0.733461 0.386182
v 0.009957 0.738105 0.376308
v -0.004979 0.734268 0.368586
v -0.004979 0.741942 0.384031
v -0.000000 0.697074 0.396696
v -0.015994 0.735391 -0.015994
v -0.015994 0.767379 -0.015994
v 0.015994 0.735391 -0.015994
v 0.015994 0.767379 -0.015994
v -0.015994 0.735391 0.500000
v 0.015994 0.735391 0.500000
v -0.015994 0.767379 0.500000
v 0.015994 0.767379 0.500000
v 0.015994 0.376924 0.500000
v 0.015994 0.408911 0.500000
v -0.015994 0.408911 0.500000
v -0.015994 0.376924 0.500000
vt 0.000000 0.000000
vt 0.000000 0.000000
vt 0.000000 0.000000
vt 0.000000 0.000000
vt 0.485668 0.230060
vt 0.491172 0.230060
vt 0.491171 0.233688
vt 0.485668 0.233688
vt 0.480165 0.235563
vt 0.483793 0.235563
vt 0.483793 0.241067
vt 0.480165 0.241067
vt 0.425456 0.246367
vt 0.425456 0.246367
vt 0.425456 0.246367
vt 0.425456 0.246367
vt 0.425456 0.246367
vt 0.425456 0.246367
vt 0.425456 0.246367
vt 0.425456 0.246367
vt 0.428972 0.193388
vt 0.428972 0.210107
vt 0.433700 0.193276
vt 0.424245 0.193276
vt 0.425456 0.246367
vt 0.425456 0.246367
vt 0.425456 0.217048
vt 0.425456 0.217048
vt 0.425456 0.217048
vt 0.472271 0.246367
vt 0.472271 0.246367
vt 0.472271 0.246367
vt 0.472271 0.246367
vt 0.472271 0.246367
vt 0.472271 0.246367
vt 0.428972 0.193388
vt 0.433700 0.193276
vt 0.428972 0.210107
vt 0.428972 0.193388
vt 0.433700 0.193276
vt 0.428972 0.210107
vt 0.424245 0.193276
vt 0.424245 0.193276
vt 0.428972 0.193388
vt 0.428972 0.210107
vt 0.472271 0.246367
vt 0.472271 0.246367
vt 0.433700 0.193276
vt 0.428972 0.210107
vt 0.424245 0.193276
vt 0.428972 0.193388
vt 0.428972 0.193388
vt 0.433700 0.193276
vt 0.428972 0.210107
vt 0.424245 0.193276
vt 0.425456 0.217048
vt 0.425456 0.246367
vt 0.425456 0.246367
vt 0.425456 0.217048
vt 0.425456 0.217048
vt 0.433700 0.193276
vt 0.428972 0.193388
vt 0.428972 0.210107
vt 0.433700 0.193276
vt 0.424245 0.193276
vt 0.425456 0.217048
vt 0.425456 0.246367
vt 0.425456 0.246367
vt 0.424245 0.193276
vt 0.425456 0.217048
vt 0.428972 0.193388
vt 0.428972 0.210107
vt 0.433700 0.193276
vt 0.424245 0.193276
vt 0.425456 0.246367
vt 0.425456 0.246367
vt 0.485668 0.230060
vt 0.491172 0.230060
vt 0.491172 0.233680
vt 0.485668 0.233680
vt 0.480165 0.235563
vt 0.483784 0.235563
vt 0.483784 0.241067
vt 0.480165 0.241067
vt 0.493055 0.241067
vt 0.493055 0.235563
vt 0.496675 0.235563
vt 0.496675 0.241067
vt 0.493047 0.241067
vt 0.493047 0.235563
vt 0.496675 0.235563
vt 0.496675 0.241067
vt 0.485668 0.242950
vt 0.491172 0.242950
vt 0.491172 0.246570
vt 0.485668 0.246570
vt 0.485668 0.242942
vt 0.491171 0.242942
vt 0.491172 0.246570
vt 0.485668 0.246570
vn 0.0000 0.0000 1.0000
vn 0.7071 -0.7071 0.0000
vn 0.7071 0.7071 0.0000
vn -0.7071 -0.7071 0.0000
vn -0.5773 -0.6154 -0.5366
vn -0.5773 -0.5366 0.6154
vn -0.5773 0.6154 0.5366
vn -0.5773 0.5366 -0.6154
vn -0.5773 -0.5455 -0.6074
vn -0.5773 -0.6074 0.5455
vn -0.5773 0.5455 0.6074
vn -0.5773 0.6074 -0.5455
vn 0.9772 0.1773 -0.1169
vn 0.0000 0.8347 -0.5506
vn -0.4886 0.6432 0.5895
vn -0.4886 -0.2887 -0.8234
vn 0.5773 -0.6154 -0.5366
vn 0.5773 -0.5366 0.6154
vn 0.5773 0.6154 0.5366
vn 0.5773 0.5455 0.6074
vn 0.5773 -0.6074 0.5455
vn 0.5773 -0.5455 -0.6074
vn 0.5773 0.6074 -0.5455
vn 0.9772 -0.1790 -0.1143
vn -0.4886 -0.6345 0.5989
vn 0.0000 -0.8427 -0.5383
vn 0.9772 0.1915 0.0917
vn -0.4886 0.5569 -0.6716
vn 0.0000 0.9020 0.4317
vn -0.4886 -0.1738 0.8550
vn -0.4886 -0.2765 0.8275
vn 0.9772 0.1790 0.1143
vn 0.0000 0.8427 0.5383
vn 0.5773 0.5366 -0.6154
vn -0.4886 0.5668 0.6634
vn 0.0000 0.8955 -0.4450
vn -0.4886 -0.1864 -0.8524
vn 0.9772 0.1902 -0.0945
vn 0.9772 -0.1915 -0.0917
vn -0.4886 -0.5569 0.6716
vn 0.0000 -0.9020 -0.4317
vn -0.4886 0.1738 -0.8550
vn -0.4886 0.6345 -0.5989
vn 0.9772 -0.1773 0.1169
vn 0.0000 -0.8347 0.5506
vn -0.4886 -0.6432 -0.5895
vn -0.4886 0.2887 0.8234
vn -0.4886 0.2765 -0.8275
vn 0.9772 -0.1902 0.0945
vn 0.0000 -0.8955 0.4450
vn -0.4886 -0.5668 -0.6634
vn -0.4886 0.1864 0.8524
vn 0.5773 0.5773 0.5773
vn 0.5773 -0.5773 0.5773
vn -0.5773 -0.5773 0.5773
vn -0.5773 0.5773 0.5773
vn -0.7071 0.7071 0.0000
s off
f 60/1/1 59/2/1 57/3/1 58/4/1
s 1
f 3/5/2 4/6/3 62/7/3 61/8/2
f 3/9/2 61/10/2 64/11/4 1/12/4
f 19/13/5 27/14/6 11/15/7 5/16/8
f 41/17/9 47/18/10 34/19/11 36/20/12
f 7/21/13 10/22/14 8/23/15
f 8/23/15 10/22/14 9/24/16
f 9/24/16 10/22/14 7/21/13
f 20/25/17 28/26/18 27/27/6 19/28/5
f 11/29/7 27/27/6 28/30/18 12/31/19
f 33/32/20 48/33/21 42/34/22 35/35/23
f 43/36/24 44/37/25 46/38/26
f 13/39/27 14/40/28 16/41/29
f 14/40/28 15/42/30 16/41/29
f 15/42/30 13/39/27 16/41/29
f 39/43/31 18/44/32 40/45/33
f 12/31/19 28/30/18 20/46/17 6/47/34
f 25/48/35 37/49/36 38/50/37
f 26/51/38 37/49/36 25/48/35
f 21/52/39 22/53/40 24/54/41
f 22/53/40 23/55/42 24/54/41
f 23/55/42 21/52/39 24/54/41
f 6/47/34 20/46/17 19/28/5 5/56/8
f 42/57/22 48/58/21 47/59/10 41/60/9
f 18/44/32 17/61/43 40/45/33
f 17/61/43 39/43/31 40/45/33
f 29/62/44 32/63/45 30/64/46
f 30/64/46 32/63/45 31/65/47
f 31/65/47 32/63/45 29/62/44
f 34/66/11 47/59/10 48/33/21 33/32/20
f 38/50/37 37/49/36 26/51/38
f 5/56/8 11/29/7 12/67/19 6/68/34
f 44/37/25 45/69/48 46/38/26
f 45/69/48 43/36/24 46/38/26
f 35/35/23 42/34/22 41/60/9 36/70/12
f 49/71/49 52/72/50 50/73/51
f 50/73/51 52/72/50 51/74/52
f 51/74/52 52/72/50 49/71/49
f 36/70/12 34/66/11 33/75/20 35/76/23
f 55/77/2 56/78/3 60/79/53 58/80/54
f 55/81/2 58/82/54 57/83/55 53/84/4
f 59/85/56 60/86/53 56/87/3 54/88/57
f 63/89/57 62/90/3 4/91/3 2/92/57
f 57/93/55 59/94/56 54/95/57 53/96/4
f 64/97/4 63/98/57 2/99/57 1/100/4
