# Blender v2.82 (sub 7) OBJ File: 'fences.blend'
# www.blender.org
o fence8_linked_Cube.007
v -0.115487 0.568942 0.000000
v -0.115487 0.568942 0.500000
v -0.115487 0.000000 0.500000
v -0.115487 1.201971 0.500000
v -0.115487 0.000000 0.000000
v -0.115487 1.198410 0.000000
v -0.115487 0.789861 0.000000
v -0.115487 0.789861 0.500000
v -0.115487 0.994136 0.000000
v -0.115487 0.994136 0.500000
v -0.115487 0.354076 0.500000
v -0.115487 0.354076 0.000000
v -0.115487 0.122095 0.500000
v -0.115487 0.122095 0.000000
v -0.115487 0.568942 0.174710
v -0.115487 0.000000 0.174710
v -0.115487 1.201971 0.174710
v -0.115487 0.789861 0.174710
v -0.115487 0.994136 0.174710
v -0.115487 0.354076 0.174710
v -0.115487 0.122095 0.174710
v -0.115487 0.000000 0.353675
v -0.115487 1.201971 0.367803
v -0.115487 1.201971 0.342310
v -0.115487 1.201971 0.012423
v -0.115487 0.568942 0.353675
v -0.115487 1.198410 0.353675
v -0.115487 0.789861 0.353675
v -0.115487 0.994136 0.353675
v -0.115487 0.354076 0.353675
v -0.115487 0.122095 0.353675
v -0.127526 0.336442 0.173851
v -0.127526 0.336442 0.010093
v -0.127526 0.139729 0.010093
v -0.127526 0.139729 0.173851
v -0.127526 0.336442 0.344441
v -0.127526 0.139729 0.344441
v -0.127526 0.585103 0.172331
v -0.127526 0.585103 0.020739
v -0.127526 0.773701 0.020739
v -0.127526 0.773701 0.172331
v -0.127526 0.585103 0.335316
v -0.127526 0.773701 0.335316
v -0.127526 1.191769 0.173653
v -0.127526 1.191769 0.012423
v -0.127526 1.000777 0.012423
v -0.127526 1.000777 0.173653
v -0.127526 1.191769 0.342310
v -0.127526 1.000777 0.342310
v -0.127526 0.982927 0.000000
v -0.127526 0.801070 0.000000
v -0.127526 0.801070 0.158999
v -0.127526 0.982927 0.158999
v -0.127526 0.554716 0.155111
v -0.127526 0.554716 0.000000
v -0.127526 0.368302 0.000000
v -0.127526 0.368302 0.155111
v -0.127526 0.979608 0.477070
v -0.127526 0.804389 0.477070
v -0.127526 0.804389 0.352365
v -0.127526 0.804389 0.198951
v -0.127526 0.979608 0.352365
v -0.127526 0.979608 0.198951
v -0.127526 0.550648 0.475773
v -0.127526 0.372370 0.475773
v -0.127526 0.550648 0.352291
v -0.127526 0.550648 0.200322
v -0.127526 0.372370 0.352291
v -0.127526 0.372370 0.200322
v -0.127526 0.771882 0.500000
v -0.127526 0.586922 0.500000
v -0.127526 1.186999 0.500000
v -0.127526 1.005548 0.500000
v -0.127526 0.336649 0.500000
v -0.127526 0.139521 0.500000
v -0.127526 0.586922 0.366849
v -0.127526 1.186999 0.367803
v -0.127526 0.771882 0.366849
v -0.127526 1.005548 0.367803
v -0.127526 0.336649 0.369515
v -0.127526 0.139521 0.369515
v -0.115487 0.568942 -0.115487
v -0.115487 0.000000 -0.115487
v -0.115487 1.198410 -0.115487
v -0.115487 0.789861 -0.115487
v -0.115487 0.994136 -0.115487
v -0.115487 0.354076 -0.115487
v -0.115487 0.122095 -0.115487
v -0.127526 0.982927 -0.127526
v -0.127526 0.801070 -0.127526
v -0.127526 0.554716 -0.127526
v -0.127526 0.368302 -0.127526
v 0.115487 0.568942 0.000000
v 0.115487 0.568942 0.500000
v 0.115487 0.000000 0.500000
v 0.115487 1.201971 0.500000
v 0.115487 0.000000 0.000000
v 0.115487 1.198410 0.000000
v 0.115487 0.789861 0.000000
v 0.115487 0.789861 0.500000
v 0.115487 0.994136 0.000000
v 0.115487 0.994136 0.500000
v 0.115487 0.354076 0.500000
v 0.115487 0.354076 0.000000
v 0.115487 0.122095 0.500000
v 0.115487 0.122095 0.000000
v 0.115487 0.568942 0.174710
v 0.115487 0.000000 0.174710
v 0.115487 1.201971 0.174710
v 0.115487 0.789861 0.174710
v 0.115487 0.994136 0.174710
v 0.115487 0.354076 0.174710
v 0.115487 0.122095 0.174710
v -0.000000 1.201971 0.367803
v 0.115487 0.000000 0.353675
v 0.115487 1.201971 0.367803
v -0.000000 1.201971 0.342310
v 0.115487 1.201971 0.342310
v 0.115487 1.201971 0.012423
v 0.115487 0.568942 0.353675
v -0.000000 1.201971 0.012423
v 0.115487 1.198410 0.353675
v 0.115487 0.789861 0.353675
v 0.115487 0.994136 0.353675
v 0.115487 0.354076 0.353675
v 0.115487 0.122095 0.353675
v 0.127526 0.336442 0.173851
v 0.127526 0.336442 0.010093
v 0.127526 0.139729 0.010093
v 0.127526 0.139729 0.173851
v 0.127526 0.336442 0.344441
v 0.127526 0.139729 0.344441
v 0.127526 0.585103 0.172331
v 0.127526 0.585103 0.020739
v 0.127526 0.773701 0.020739
v 0.127526 0.773701 0.172331
v 0.127526 0.585103 0.335316
v 0.127526 0.773701 0.335316
v 0.127526 1.191769 0.173653
v 0.127526 1.191769 0.012423
v 0.127526 1.000777 0.012423
v 0.127526 1.000777 0.173653
v 0.127526 1.191769 0.342310
v 0.127526 1.000777 0.342310
v 0.127526 0.982927 0.000000
v 0.127526 0.801070 0.000000
v 0.127526 0.801070 0.158999
v 0.127526 0.982927 0.158999
v 0.127526 0.554716 0.155111
v 0.127526 0.554716 0.000000
v 0.127526 0.368302 0.000000
v 0.127526 0.368302 0.155111
v 0.127526 0.979608 0.477070
v 0.127526 0.804389 0.477070
v 0.127526 0.804389 0.352365
v 0.127526 0.804389 0.198951
v 0.127526 0.979608 0.352365
v 0.127526 0.979608 0.198951
v 0.127526 0.550648 0.475773
v 0.127526 0.372370 0.475773
v 0.127526 0.550648 0.352291
v 0.127526 0.550648 0.200322
v 0.127526 0.372370 0.352291
v 0.127526 0.372370 0.200322
v 0.127526 0.771882 0.500000
v 0.127526 0.586922 0.500000
v 0.127526 1.186999 0.500000
v 0.127526 1.005548 0.500000
v 0.127526 0.336649 0.500000
v 0.127526 0.139521 0.500000
v 0.127526 0.586922 0.366849
v 0.127526 1.186999 0.367803
v 0.127526 0.771882 0.366849
v 0.127526 1.005548 0.367803
v 0.127526 0.336649 0.369515
v 0.127526 0.139521 0.369515
v -0.000000 1.201971 0.500000
v -0.000000 1.198410 0.000000
v -0.000000 1.201971 0.174710
v -0.000000 1.198410 0.353675
v 0.115487 0.568942 -0.115487
v 0.115487 0.000000 -0.115487
v 0.115487 1.198410 -0.115487
v 0.115487 0.789861 -0.115487
v 0.115487 0.994136 -0.115487
v 0.115487 0.354076 -0.115487
v 0.115487 0.122095 -0.115487
v 0.127526 0.982927 -0.127526
v 0.127526 0.801070 -0.127526
v 0.127526 0.554716 -0.127526
v 0.127526 0.368302 -0.127526
v 0.000000 1.198410 -0.007825
vt 0.938099 0.615701
vt 0.886801 0.615532
vt 0.886801 0.648105
vt 0.938099 0.648105
vt 0.873701 0.576222
vt 0.873701 0.654845
vt 0.865980 0.647080
vt 0.865980 0.584327
vt 0.991385 0.573950
vt 0.991385 0.648105
vt 0.980060 0.632539
vt 0.980060 0.584661
vt 0.823872 0.577620
vt 0.872446 0.577620
vt 0.866570 0.583779
vt 0.823872 0.583779
vt 0.866570 0.648275
vt 0.823872 0.648275
vt 0.873837 0.655090
vt 0.819490 0.655090
vt 0.819490 0.647461
vt 0.865971 0.647461
vt 0.774904 0.508098
vt 0.774904 0.524290
vt 0.751735 0.524290
vt 0.751735 0.508098
vt 0.800253 0.508098
vt 0.800253 0.524290
vt 0.763648 0.655090
vt 0.767767 0.647461
vt 0.874306 0.661115
vt 0.874306 0.740181
vt 0.863741 0.731763
vt 0.863741 0.671483
vt 0.878413 0.662623
vt 0.936276 0.662623
vt 0.936276 0.670069
vt 0.887430 0.670069
vt 0.876311 0.573950
vt 0.938099 0.573950
vt 0.938099 0.584661
vt 0.886801 0.584661
vt 0.818019 0.576222
vt 0.818019 0.584327
vt 0.991385 0.615290
vt 0.980060 0.615330
vt 0.980060 0.648105
vt 0.938099 0.632539
vt 0.922169 0.618786
vt 0.888997 0.618786
vt 0.888997 0.647079
vt 0.922169 0.647079
vt 0.763868 0.576223
vt 0.796048 0.576223
vt 0.796048 0.584588
vt 0.769193 0.584588
vt 0.796048 0.654310
vt 0.763867 0.654310
vt 0.769193 0.645828
vt 0.796048 0.645828
vt 0.988009 0.741397
vt 0.936276 0.741397
vt 0.936276 0.729119
vt 0.981527 0.729119
vt 0.824921 0.661115
vt 0.824921 0.671483
vt 0.764052 0.663580
vt 0.801583 0.663580
vt 0.801583 0.669525
vt 0.770181 0.669525
vt 0.818043 0.508098
vt 0.818043 0.524290
vt 0.886801 0.632539
vt 0.876311 0.648105
vt 0.876311 0.615452
vt 0.875326 0.618786
vt 0.875326 0.644754
vt 0.888997 0.638849
vt 0.819490 0.583799
vt 0.767767 0.583799
vt 0.865971 0.583799
vt 0.763603 0.576759
vt 0.819490 0.576759
vt 0.873837 0.576759
vt 0.818019 0.647080
vt 0.771886 0.647080
vt 0.771886 0.584327
vt 0.818019 0.654845
vt 0.764103 0.654845
vt 0.764193 0.576222
vt 0.864750 0.584697
vt 0.864750 0.645811
vt 0.811229 0.645811
vt 0.811229 0.584082
vt 0.873824 0.656840
vt 0.810980 0.656854
vt 0.811229 0.574854
vt 0.873824 0.574854
vt 0.872446 0.653276
vt 0.824921 0.731763
vt 0.774164 0.731763
vt 0.774164 0.671483
vt 0.823872 0.653276
vt 0.824921 0.740181
vt 0.762379 0.740181
vt 0.762379 0.661115
vt 0.887430 0.729119
vt 0.981527 0.670069
vt 0.878276 0.741397
vt 0.988009 0.662623
vt 0.922169 0.584837
vt 0.922169 0.638849
vt 0.888997 0.584837
vt 0.801583 0.734251
vt 0.770181 0.734251
vt 0.875326 0.576365
vt 0.922169 0.576365
vt 0.493687 0.750000
vt 0.539773 0.750000
vt 0.539773 0.750000
vt 0.493687 0.750000
vt 0.582386 0.750000
vt 0.625000 0.750000
vt 0.625000 0.750000
vt 0.582386 0.750000
vt 0.801583 0.740777
vt 0.764052 0.740777
vt 0.400470 0.750000
vt 0.448864 0.750000
vt 0.448864 0.750000
vt 0.400470 0.750000
vt 0.823872 0.583779
vt 0.823872 0.577620
vt 0.811229 0.645811
vt 0.811229 0.584082
vt 0.811229 0.574854
vt 0.764625 0.655090
vt 0.810279 0.655090
vt 0.809990 0.576759
vt 0.823872 0.653276
vt 0.823872 0.648275
vt 0.874602 0.648105
vt 0.875091 0.615452
vt 0.884152 0.615452
vt 0.976465 0.648105
vt 0.810980 0.656854
vt 0.875166 0.654845
vt 0.836347 0.576222
vt 0.836836 0.654845
vt 0.976465 0.573950
vt 0.751735 0.524290
vt 0.751735 0.508098
vt 0.938099 0.648105
vt 0.886801 0.648105
vt 0.873701 0.576222
vt 0.865980 0.584327
vt 0.865980 0.647080
vt 0.873701 0.654845
vt 0.991385 0.573950
vt 0.980060 0.584661
vt 0.980060 0.632539
vt 0.991385 0.648105
vt 0.823872 0.577620
vt 0.823872 0.583779
vt 0.866570 0.583779
vt 0.872446 0.577620
vt 0.823872 0.648275
vt 0.866570 0.648275
vt 0.873837 0.655090
vt 0.865971 0.647461
vt 0.819490 0.647461
vt 0.819490 0.655090
vt 0.774904 0.508098
vt 0.751735 0.508098
vt 0.751735 0.524290
vt 0.774904 0.524290
vt 0.800253 0.508098
vt 0.800253 0.524290
vt 0.767767 0.647461
vt 0.763648 0.655090
vt 0.874306 0.661115
vt 0.863741 0.671483
vt 0.863741 0.731763
vt 0.874306 0.740181
vt 0.878413 0.662623
vt 0.887430 0.670069
vt 0.936276 0.670069
vt 0.936276 0.662623
vt 0.876311 0.573950
vt 0.886801 0.584661
vt 0.938099 0.584661
vt 0.938099 0.573950
vt 0.818019 0.576222
vt 0.818019 0.584327
vt 0.980060 0.648105
vt 0.938099 0.632539
vt 0.922169 0.647079
vt 0.888997 0.647079
vt 0.763868 0.576223
vt 0.769193 0.584588
vt 0.796048 0.584588
vt 0.796048 0.576223
vt 0.796048 0.654310
vt 0.796048 0.645828
vt 0.769193 0.645828
vt 0.763867 0.654310
vt 0.988009 0.741397
vt 0.981527 0.729119
vt 0.936276 0.729119
vt 0.936276 0.741397
vt 0.824921 0.661115
vt 0.824921 0.671483
vt 0.764052 0.663580
vt 0.770181 0.669525
vt 0.801583 0.669525
vt 0.801583 0.663580
vt 0.818043 0.508098
vt 0.818043 0.524290
vt 0.886801 0.632539
vt 0.876311 0.648105
vt 0.875326 0.644754
vt 0.888997 0.638849
vt 0.819490 0.583799
vt 0.767767 0.583799
vt 0.865971 0.583799
vt 0.763603 0.576759
vt 0.819490 0.576759
vt 0.873837 0.576759
vt 0.818019 0.647080
vt 0.771886 0.647080
vt 0.771886 0.584327
vt 0.818019 0.654845
vt 0.764103 0.654845
vt 0.764193 0.576222
vt 0.864750 0.584697
vt 0.811229 0.584082
vt 0.811229 0.645811
vt 0.864750 0.645811
vt 0.873824 0.656840
vt 0.810980 0.656854
vt 0.811229 0.574854
vt 0.873824 0.574854
vt 0.872446 0.653276
vt 0.774164 0.671483
vt 0.774164 0.731763
vt 0.824921 0.731763
vt 0.823872 0.653276
vt 0.824921 0.740181
vt 0.762379 0.740181
vt 0.762379 0.661115
vt 0.887430 0.729119
vt 0.981527 0.670069
vt 0.878276 0.741397
vt 0.988009 0.662623
vt 0.922169 0.584837
vt 0.888997 0.584837
vt 0.922169 0.638849
vt 0.770181 0.734251
vt 0.801583 0.734251
vt 0.875326 0.576365
vt 0.922169 0.576365
vt 0.493687 0.750000
vt 0.493687 0.750000
vt 0.539773 0.750000
vt 0.539773 0.750000
vt 0.582386 0.750000
vt 0.582386 0.750000
vt 0.625000 0.750000
vt 0.625000 0.750000
vt 0.801583 0.740777
vt 0.764052 0.740777
vt 0.400470 0.750000
vt 0.400470 0.750000
vt 0.448864 0.750000
vt 0.448864 0.750000
vt 0.823872 0.577620
vt 0.823872 0.583779
vt 0.811229 0.584082
vt 0.811229 0.645811
vt 0.811229 0.574854
vt 0.809990 0.576759
vt 0.810279 0.655090
vt 0.764625 0.655090
vt 0.823872 0.648275
vt 0.823872 0.653276
vt 0.874602 0.648105
vt 0.976465 0.648105
vt 0.810980 0.656854
vt 0.875166 0.654845
vt 0.836836 0.654845
vt 0.836347 0.576222
vt 0.976465 0.573950
vt 0.751735 0.508098
vt 0.751735 0.524290
vn 0.0000 1.0000 -0.0000
vn -0.8648 0.0000 -0.5021
vn -0.6865 0.0000 0.7272
vn -0.7633 -0.6460 0.0000
vn -1.0000 0.0000 0.0000
vn -0.8259 0.5639 -0.0000
vn -0.8854 0.0000 0.4649
vn -0.8353 -0.5497 0.0000
vn -0.4830 -0.8756 -0.0000
vn -0.8019 0.5974 0.0000
vn -0.0000 0.9543 0.2989
vn -0.6465 0.7629 -0.0000
vn -0.8309 -0.5564 0.0000
vn -0.8309 0.5564 0.0000
vn -0.8353 0.5497 0.0000
vn -0.7700 -0.6381 0.0000
vn -0.8227 -0.5684 -0.0000
vn -0.6316 0.7453 -0.2136
vn 0.0000 0.9613 -0.2755
vn 0.0000 0.9697 -0.2444
vn -0.7698 0.6190 -0.1560
vn -0.8259 -0.5639 -0.0000
vn -0.6425 0.0000 -0.7663
vn -0.6086 0.0000 0.7935
vn -0.8019 -0.5974 0.0000
vn -0.8362 0.0000 0.5484
vn -0.6288 0.7420 0.2325
vn -0.7181 0.0000 -0.6959
vn -0.6814 0.7319 0.0000
vn -0.6814 -0.7319 0.0000
vn -0.7938 0.0000 0.6082
vn -0.8521 0.0000 0.5234
vn -0.7633 0.6460 0.0000
vn -0.7700 0.6381 0.0000
vn -0.8956 0.0000 -0.4448
vn -0.9050 0.0000 -0.4254
vn -0.8955 0.0000 0.4450
vn -0.6879 -0.7258 0.0000
vn -0.0000 0.0000 1.0000
vn -0.7382 0.0000 -0.6746
vn -0.8227 0.5684 -0.0000
vn -0.7961 0.0000 -0.6051
vn -0.7793 0.6266 0.0000
vn -0.7611 0.0000 -0.6486
vn 0.8648 0.0000 -0.5021
vn 0.6865 0.0000 0.7272
vn 0.7633 -0.6460 0.0000
vn 1.0000 0.0000 0.0000
vn 0.8259 0.5639 0.0000
vn 0.8854 0.0000 0.4649
vn 0.8353 -0.5497 0.0000
vn 0.4830 -0.8756 0.0000
vn 0.8019 0.5974 0.0000
vn 0.6465 0.7629 -0.0000
vn 0.8309 -0.5564 0.0000
vn 0.8309 0.5564 0.0000
vn 0.8353 0.5497 0.0000
vn 0.7700 -0.6381 0.0000
vn 0.8227 -0.5684 0.0000
vn 0.6316 0.7453 -0.2136
vn 0.7698 0.6190 -0.1560
vn 0.8259 -0.5639 0.0000
vn 0.6425 0.0000 -0.7663
vn 0.6086 0.0000 0.7935
vn 0.8019 -0.5974 0.0000
vn 0.8362 0.0000 0.5484
vn 0.6288 0.7420 0.2325
vn 0.7181 0.0000 -0.6959
vn 0.6814 0.7319 0.0000
vn 0.6814 -0.7319 0.0000
vn 0.7938 0.0000 0.6082
vn 0.8521 0.0000 0.5234
vn 0.7633 0.6460 0.0000
vn 0.7700 0.6381 0.0000
vn 0.8956 0.0000 -0.4448
vn 0.9050 0.0000 -0.4254
vn 0.8955 0.0000 0.4450
vn 0.6879 -0.7258 0.0000
vn 0.7382 0.0000 -0.6746
vn 0.8227 0.5684 0.0000
vn 0.7961 0.0000 -0.6051
vn 0.7793 0.6266 0.0000
vn 0.7611 0.0000 -0.6486
s off
f 179/1/1 121/2/1 25/3/1 17/4/1
f 7/5/2 1/6/2 39/7/2 40/8/2
f 29/9/3 27/10/3 48/11/3 49/12/3
f 12/13/4 20/14/4 57/15/4 56/16/4
f 57/15/5 54/17/5 55/18/5 56/16/5
f 30/19/6 20/20/6 32/21/6 36/22/6
f 16/23/5 21/24/5 14/25/5 5/26/5
f 22/27/5 31/28/5 21/24/5 16/23/5
f 20/20/6 12/29/6 33/30/6 32/21/6
f 8/31/7 10/32/7 58/33/7 59/34/7
f 20/35/8 30/36/8 68/37/8 69/38/8
f 9/39/9 19/40/9 47/41/9 46/42/9
f 18/43/10 7/5/10 40/8/10 41/44/10
f 180/45/11 117/46/11 24/47/11 27/10/11
f 48/11/12 24/47/12 17/4/12 44/48/12
f 177/49/1 114/50/1 23/51/1 4/52/1
f 26/53/13 2/54/13 71/55/13 76/56/13
f 8/57/14 28/58/14 78/59/14 70/60/14
f 2/61/15 26/62/15 66/63/15 64/64/15
f 28/65/16 8/31/16 59/34/16 60/66/16
f 31/67/17 13/68/17 75/69/17 81/70/17
f 3/71/5 13/72/5 31/28/5 22/27/5
f 45/73/18 25/3/18 6/74/18
f 25/3/19 121/2/19 178/75/19 6/74/19
f 23/51/20 114/50/20 180/76/20 27/77/20
f 77/78/21 23/51/21 27/77/21
f 24/47/1 117/46/1 179/1/1 17/4/1
f 35/79/5 32/21/5 33/30/5 34/80/5
f 37/81/5 36/22/5 32/21/5 35/79/5
f 14/82/22 21/83/22 35/79/22 34/80/22
f 12/29/23 14/82/23 34/80/23 33/30/23
f 31/84/24 30/19/24 36/22/24 37/81/24
f 21/83/22 31/84/22 37/81/22 35/79/22
f 38/85/5 41/44/5 40/8/5 39/7/5
f 42/86/5 43/87/5 41/44/5 38/85/5
f 15/88/25 26/89/25 42/86/25 38/85/25
f 26/89/26 28/90/26 43/87/26 42/86/26
f 28/90/10 18/43/10 41/44/10 43/87/10
f 1/6/25 15/88/25 38/85/25 39/7/25
f 47/41/5 44/48/5 45/73/5 46/42/5
f 49/12/5 48/11/5 44/48/5 47/41/5
f 17/4/12 25/3/12 45/73/12 44/48/12
f 27/10/27 24/47/27 48/11/27
f 6/74/28 9/39/28 46/42/28 45/73/28
f 19/40/9 29/9/9 49/12/9 47/41/9
f 52/91/5 53/92/5 50/93/5 51/94/5
f 19/95/29 9/96/29 50/93/29 53/92/29
f 7/97/30 18/98/30 52/91/30 51/94/30
f 18/98/31 19/95/31 53/92/31 52/91/31
f 20/14/32 15/99/32 54/17/32 57/15/32
f 60/66/5 62/100/5 63/101/5 61/102/5
f 15/99/33 1/103/33 55/18/33 54/17/33
f 59/34/5 58/33/5 62/100/5 60/66/5
f 29/104/34 19/105/34 63/101/34 62/100/34
f 19/105/35 18/106/35 61/102/35 63/101/35
f 10/32/34 29/104/34 62/100/34 58/33/34
f 18/106/16 28/65/16 60/66/16 61/102/16
f 68/37/5 66/63/5 67/107/5 69/38/5
f 65/108/5 64/64/5 66/63/5 68/37/5
f 15/109/36 20/35/36 69/38/36 67/107/36
f 30/36/8 11/110/8 65/108/8 68/37/8
f 11/110/37 2/61/37 64/64/37 65/108/37
f 26/62/15 15/109/15 67/107/15 66/63/15
f 71/55/5 70/60/5 78/59/5 76/56/5
f 73/111/5 72/112/5 77/78/5 79/113/5
f 75/69/5 74/114/5 80/115/5 81/70/5
f 29/116/38 10/117/38 73/111/38 79/113/38
f 2/118/39 8/119/39 70/120/39 71/121/39
f 10/122/39 4/123/39 72/124/39 73/125/39
f 28/58/40 26/53/40 76/56/40 78/59/40
f 11/126/41 30/127/41 80/115/41 74/114/41
f 30/127/42 31/67/42 81/70/42 80/115/42
f 4/52/43 23/51/43 77/78/43 72/112/43
f 27/77/44 29/116/44 79/113/44 77/78/44
f 13/128/39 11/129/39 74/130/39 75/131/39
f 12/13/4 56/16/4 92/132/4 87/133/4
f 51/94/5 50/93/5 89/134/5 90/135/5
f 7/97/30 51/94/30 90/135/30 85/136/30
f 14/82/5 12/137/5 87/138/5 88/139/5
f 55/18/33 1/103/33 82/140/33 91/141/33
f 6/142/1 178/143/1 192/144/1 84/145/1
f 50/93/29 9/96/29 86/146/29 89/134/29
f 1/147/5 7/5/5 85/148/5 82/149/5
f 9/39/5 6/142/5 84/145/5 86/150/5
f 56/16/5 55/18/5 91/141/5 92/132/5
f 5/26/5 14/25/5 88/151/5 83/152/5
f 179/1/1 109/153/1 119/154/1 121/2/1
f 99/155/45 135/156/45 134/157/45 93/158/45
f 124/159/46 144/160/46 143/161/46 122/162/46
f 104/163/47 151/164/47 152/165/47 112/166/47
f 152/165/48 151/164/48 150/167/48 149/168/48
f 125/169/49 131/170/49 127/171/49 112/172/49
f 108/173/48 97/174/48 106/175/48 113/176/48
f 115/177/48 108/173/48 113/176/48 126/178/48
f 112/172/49 127/171/49 128/179/49 104/180/49
f 100/181/50 154/182/50 153/183/50 102/184/50
f 112/185/51 164/186/51 163/187/51 125/188/51
f 101/189/52 141/190/52 142/191/52 111/192/52
f 110/193/53 136/194/53 135/156/53 99/155/53
f 180/45/11 122/162/11 118/195/11 117/46/11
f 143/161/54 139/196/54 109/153/54 118/195/54
f 177/49/1 96/197/1 116/198/1 114/50/1
f 120/199/55 171/200/55 166/201/55 94/202/55
f 100/203/56 165/204/56 173/205/56 123/206/56
f 94/207/57 159/208/57 161/209/57 120/210/57
f 123/211/58 155/212/58 154/182/58 100/181/58
f 126/213/59 176/214/59 170/215/59 105/216/59
f 95/217/48 115/177/48 126/178/48 105/218/48
f 140/219/60 98/220/60 119/154/60
f 119/154/19 98/220/19 178/75/19 121/2/19
f 116/198/20 122/221/20 180/76/20 114/50/20
f 172/222/61 122/221/61 116/198/61
f 118/195/1 109/153/1 179/1/1 117/46/1
f 130/223/48 129/224/48 128/179/48 127/171/48
f 132/225/48 130/223/48 127/171/48 131/170/48
f 106/226/62 129/224/62 130/223/62 113/227/62
f 104/180/63 128/179/63 129/224/63 106/226/63
f 126/228/64 132/225/64 131/170/64 125/169/64
f 113/227/62 130/223/62 132/225/62 126/228/62
f 133/229/48 134/157/48 135/156/48 136/194/48
f 137/230/48 133/229/48 136/194/48 138/231/48
f 107/232/65 133/229/65 137/230/65 120/233/65
f 120/233/66 137/230/66 138/231/66 123/234/66
f 123/234/53 138/231/53 136/194/53 110/193/53
f 93/158/65 134/157/65 133/229/65 107/232/65
f 142/191/48 141/190/48 140/219/48 139/196/48
f 144/160/48 142/191/48 139/196/48 143/161/48
f 109/153/54 139/196/54 140/219/54 119/154/54
f 122/162/67 143/161/67 118/195/67
f 98/220/68 140/219/68 141/190/68 101/189/68
f 111/192/52 142/191/52 144/160/52 124/159/52
f 147/235/48 146/236/48 145/237/48 148/238/48
f 111/239/69 148/238/69 145/237/69 101/240/69
f 99/241/70 146/236/70 147/235/70 110/242/70
f 110/242/71 147/235/71 148/238/71 111/239/71
f 112/166/72 152/165/72 149/168/72 107/243/72
f 155/212/48 156/244/48 158/245/48 157/246/48
f 107/243/73 149/168/73 150/167/73 93/247/73
f 154/182/48 155/212/48 157/246/48 153/183/48
f 124/248/74 157/246/74 158/245/74 111/249/74
f 111/249/75 158/245/75 156/244/75 110/250/75
f 102/184/74 153/183/74 157/246/74 124/248/74
f 110/250/58 156/244/58 155/212/58 123/211/58
f 163/187/48 164/186/48 162/251/48 161/209/48
f 160/252/48 163/187/48 161/209/48 159/208/48
f 107/253/76 162/251/76 164/186/76 112/185/76
f 125/188/51 163/187/51 160/252/51 103/254/51
f 103/254/77 160/252/77 159/208/77 94/207/77
f 120/210/57 161/209/57 162/251/57 107/253/57
f 166/201/48 171/200/48 173/205/48 165/204/48
f 168/255/48 174/256/48 172/222/48 167/257/48
f 170/215/48 176/214/48 175/258/48 169/259/48
f 124/260/78 174/256/78 168/255/78 102/261/78
f 94/262/39 166/263/39 165/264/39 100/265/39
f 102/266/39 168/267/39 167/268/39 96/269/39
f 123/206/79 173/205/79 171/200/79 120/199/79
f 103/270/80 169/259/80 175/258/80 125/271/80
f 125/271/81 175/258/81 176/214/81 126/213/81
f 96/197/82 167/257/82 172/222/82 116/198/82
f 122/221/83 172/222/83 174/256/83 124/260/83
f 105/272/39 170/273/39 169/274/39 103/275/39
f 104/163/47 186/276/47 191/277/47 151/164/47
f 146/236/48 189/278/48 188/279/48 145/237/48
f 99/241/70 184/280/70 189/278/70 146/236/70
f 106/226/48 187/281/48 186/282/48 104/283/48
f 150/167/73 190/284/73 181/285/73 93/247/73
f 98/286/1 183/287/1 192/144/1 178/143/1
f 145/237/69 188/279/69 185/288/69 101/240/69
f 93/289/48 181/290/48 184/291/48 99/155/48
f 101/189/48 185/292/48 183/287/48 98/286/48
f 151/164/48 191/277/48 190/284/48 150/167/48
f 97/174/48 182/293/48 187/294/48 106/175/48
