# Blender v2.81 (sub 16) OBJ File: 'fences.blend'
# www.blender.org
o fence4_unlinked_Plane.007
v -0.114151 0.000000 -0.000000
v -0.114151 0.361421 0.429815
v -0.095024 0.864357 -0.000000
v -0.095024 0.864357 0.406930
v -0.095024 0.387906 -0.000000
v -0.095024 0.387906 0.406930
v -0.114151 0.361421 -0.000000
v -0.114151 0.000000 0.429815
v 0.095024 0.864357 0.000000
v 0.095024 0.864357 0.406930
v 0.095024 0.387906 0.000000
v 0.095024 0.387906 0.406930
v -0.108033 0.864348 0.422249
v -0.108033 0.958766 0.422249
v -0.108033 0.958766 -0.000000
v -0.108033 0.864348 -0.000000
v 0.108033 0.864348 0.422249
v 0.108033 0.958766 0.422249
v 0.108033 0.958766 0.000000
v 0.108033 0.864348 0.000000
v 0.114151 0.361421 0.000000
v 0.114151 0.000000 0.000000
v 0.114151 0.000000 0.429815
v 0.114151 0.361421 0.429815
v -0.010881 1.071634 0.396318
v 0.010881 1.071634 0.396318
v 0.050132 1.139772 -0.000000
v 0.050132 1.139772 0.341128
v 0.035449 1.104323 -0.000000
v 0.035449 1.104323 0.341128
v -0.000000 1.089640 -0.000000
v 0.000000 1.089640 0.341128
v -0.035449 1.104323 0.000000
v -0.035449 1.104323 0.341128
v -0.050133 1.139772 0.000000
v -0.050132 1.139772 0.341128
v -0.035449 1.175221 -0.000000
v -0.035449 1.175221 0.341128
v -0.000000 1.189905 -0.000000
v 0.000000 1.189905 0.341128
v 0.035449 1.175221 -0.000000
v 0.035449 1.175221 0.341128
v 0.072824 1.139772 0.341128
v 0.051494 1.088278 0.341128
v 0.000000 1.066948 0.341128
v -0.051494 1.088278 0.341128
v -0.072824 1.139772 0.341128
v -0.051494 1.191267 0.341128
v 0.000000 1.212596 0.341128
v 0.051494 1.191267 0.341128
v 0.072824 1.139772 0.434731
v 0.051494 1.088278 0.434731
v 0.000000 1.066948 0.434731
v -0.051494 1.088278 0.434731
v -0.072824 1.139772 0.434731
v -0.051494 1.191267 0.434731
v 0.000000 1.212596 0.434731
v 0.051494 1.191267 0.434731
v -0.192702 0.969319 0.164119
v -0.192701 0.984498 0.075688
v -0.190240 1.001804 -0.000000
v -0.175488 0.905375 0.164119
v -0.192702 0.984498 0.252549
v -0.192702 0.984498 0.412658
v -0.175488 0.905375 0.075688
v -0.175488 0.905375 -0.000000
v -0.175488 0.905375 0.252549
v -0.175488 0.905375 0.332604
v -0.175488 0.905375 0.412658
v -0.192701 1.011534 0.015242
v -0.192701 1.011534 0.347845
v -0.192701 1.011534 0.317362
v -0.190240 1.001804 0.332604
v -0.192701 1.011534 0.000000
v -0.142505 0.905375 0.075688
v -0.142505 0.905375 0.164119
v -0.142505 0.905375 -0.000000
v -0.142505 0.905375 0.252549
v -0.142505 0.905375 0.332604
v -0.000000 1.038294 0.418005
v -0.142505 0.905375 0.412658
v -0.192702 0.976909 0.462185
v -0.175488 0.905375 0.447545
v -0.142505 0.905375 0.447545
v 0.192702 0.969319 0.164119
v 0.192701 0.984498 0.075688
v 0.190240 1.001804 0.000000
v 0.175488 0.905375 0.164119
v 0.192701 0.984498 0.252549
v 0.192701 0.984498 0.412658
v 0.175488 0.905375 0.075688
v 0.175488 0.905375 0.000000
v 0.175488 0.905375 0.252549
v 0.175488 0.905375 0.332604
v 0.175488 0.905375 0.412658
v -0.000000 1.106901 0.164119
v -0.000000 1.122080 0.075688
v 0.000000 1.149116 -0.000000
v -0.000000 1.122080 0.252549
v 0.192701 1.011534 0.015242
v -0.000000 1.122080 0.412658
v 0.192701 1.011534 0.347845
v 0.192701 1.011534 0.317362
v 0.190240 1.001804 0.332604
v -0.000000 1.149116 0.317362
v -0.000000 1.149116 0.347845
v -0.000000 1.149116 0.015242
v 0.192701 1.011534 0.000000
v 0.142505 0.905375 0.075688
v 0.142505 0.905375 0.164119
v 0.142505 0.905375 0.000000
v 0.142505 0.905375 0.252549
v 0.142505 0.905375 0.332604
v -0.000000 1.038294 0.401022
v 0.142505 0.905375 0.412658
v 0.192701 0.976909 0.462185
v 0.175488 0.905375 0.447545
v -0.000000 1.114491 0.418265
v 0.142505 0.905375 0.447545
v -0.000000 1.038294 0.333457
vt 0.917155 0.954708
vt 0.764931 0.954708
vt 0.764931 0.961544
vt 0.917155 0.961544
vt 0.764931 0.845136
vt 0.917155 0.845136
vt 0.917155 0.954708
vt 0.764931 0.954708
vt 0.917155 0.961544
vt 0.764931 0.845136
vt 0.917155 0.845136
vt 0.994840 0.751965
vt 0.994840 0.751965
vt 0.994840 0.829855
vt 0.994840 0.829855
vt 0.761507 0.751965
vt 0.761507 0.829855
vt 0.994840 0.835413
vt 0.761508 0.835413
vt 0.764931 0.961544
vt 0.917155 0.982496
vt 0.764931 0.982496
vt 0.764931 0.982496
vt 0.917155 0.982496
vt 0.761507 0.751965
vt 0.761507 0.829855
vt 0.994840 0.835413
vt 0.761508 0.835413
vt 0.917155 0.982496
vt 0.917155 0.982496
vt 0.929863 0.947453
vt 0.997871 0.947453
vt 0.997871 0.953632
vt 0.929863 0.953632
vt 0.997871 0.959810
vt 0.929863 0.959810
vt 0.997871 0.965989
vt 0.929863 0.965989
vt 0.997871 0.972168
vt 0.929863 0.972168
vt 0.997871 0.978347
vt 0.929863 0.978347
vt 0.997871 0.984526
vt 0.929863 0.984526
vt 0.997871 0.990704
vt 0.929863 0.990704
vt 0.997871 0.996883
vt 0.929863 0.996883
vt 0.997871 0.965989
vt 0.997871 0.972168
vt 0.997871 0.990704
vt 0.997871 0.996883
vt 0.997871 0.947453
vt 0.997871 0.953632
vt 0.997871 0.978347
vt 0.997871 0.959810
vt 0.997871 0.984526
vt 0.997871 0.965989
vt 0.997871 0.972168
vt 0.997871 0.953632
vt 0.997871 0.959810
vt 0.997871 0.984526
vt 0.997871 0.990704
vt 0.997871 0.978347
vt 0.997871 0.947453
vt 0.997871 0.996883
vt 0.941583 0.968679
vt 0.942124 0.959679
vt 0.953272 0.960472
vt 0.953082 0.966285
vt 0.933678 0.973643
vt 0.931867 0.971030
vt 0.964416 0.969436
vt 0.964400 0.960632
vt 0.984123 0.969444
vt 0.985110 0.991969
vt 0.976458 0.996069
vt 0.976132 0.974863
vt 0.932735 0.958686
vt 0.952937 0.990122
vt 0.941908 0.992305
vt 0.974317 0.972513
vt 0.974347 0.960597
vt 0.984259 0.960836
vt 0.963953 0.992365
vt 0.972503 0.974891
vt 0.989560 0.967943
vt 0.990529 0.990607
vt 0.933681 0.996182
vt 0.931786 0.996182
vt 0.931786 0.973475
vt 0.972636 0.996130
vt 0.933210 0.950174
vt 0.942569 0.950997
vt 0.953525 0.951718
vt 0.964480 0.951999
vt 0.974412 0.952062
vt 0.984381 0.952214
vt 0.989696 0.961000
vt 0.989830 0.952350
vt 0.989800 0.967323
vt 0.941583 0.968679
vt 0.953082 0.966285
vt 0.953272 0.960472
vt 0.942124 0.959679
vt 0.931867 0.971030
vt 0.933678 0.973643
vt 0.964416 0.969436
vt 0.964400 0.960632
vt 0.984123 0.969444
vt 0.976132 0.974863
vt 0.932735 0.958686
vt 0.984259 0.960836
vt 0.974347 0.960597
vt 0.974317 0.972513
vt 0.972503 0.974891
vt 0.989560 0.967943
vt 0.931786 0.973475
vt 0.942569 0.950997
vt 0.933210 0.950174
vt 0.953525 0.951718
vt 0.964480 0.951999
vt 0.974412 0.952062
vt 0.984381 0.952214
vt 0.989696 0.961000
vt 0.989830 0.952350
vt 0.985410 0.967198
vt 0.984863 0.966797
vt 0.976008 0.967395
vn -0.0004 -1.0000 -0.0003
vn -0.0007 -1.0000 -0.0000
vn -0.0003 -1.0000 -0.0003
vn -1.0000 0.0000 -0.0000
vn 0.0004 -1.0000 -0.0003
vn 0.0003 -1.0000 -0.0003
vn 1.0000 0.0000 0.0000
vn 0.0000 0.0000 1.0000
vn 0.0000 0.2821 0.9594
vn -0.9726 0.2327 -0.0000
vn -0.9515 0.3077 -0.0000
vn -0.8107 0.5855 -0.0000
vn 0.0000 0.0804 0.9968
vn 0.9515 0.3077 0.0000
vn 0.9726 0.2327 0.0000
vn 0.0007 -1.0000 0.0000
vn 0.0000 0.6538 0.7567
vn 0.8107 0.5855 0.0000
vn 0.0000 0.2239 0.9746
vn 0.7071 -0.7071 -0.0000
vn 0.0000 -1.0000 0.0000
vn -0.7071 -0.7071 0.0000
vn -0.7071 0.7071 0.0000
vn 0.0000 1.0000 -0.0000
vn 0.7071 0.7071 -0.0000
vn 0.0000 0.0000 -1.0000
vn -0.9793 -0.2000 -0.0314
vn -0.9780 -0.2066 -0.0283
vn -0.9722 -0.2340 -0.0000
vn -0.9844 -0.1680 -0.0517
vn -0.9809 -0.1919 -0.0324
vn -0.9792 -0.2009 0.0296
vn -0.9782 -0.2056 0.0283
vn -0.5507 0.7909 0.2668
vn -0.5508 0.7848 0.2843
vn -0.5745 0.8046 0.1503
vn -0.5722 0.8015 0.1738
vn -0.9832 -0.1790 -0.0365
vn -0.5811 0.8139 0.0000
vn -0.5623 0.7876 0.2521
vn -0.5655 0.7920 0.2300
vn -0.9811 -0.1916 -0.0287
vn -0.9800 -0.1988 -0.0000
vn -0.9842 -0.1772 -0.0000
vn -0.9796 -0.1991 -0.0282
vn -0.9802 -0.1956 -0.0295
vn -0.5667 0.7937 -0.2210
vn -0.5641 0.7901 -0.2400
vn -0.9811 -0.1916 0.0287
vn -0.5497 0.8054 0.2217
vn -0.5709 0.7997 0.1860
vn -0.5736 0.8035 0.1593
vn -0.5745 0.8046 -0.1503
vn -0.5722 0.8015 -0.1738
vn -0.9695 -0.2452 0.0000
vn 0.2418 -0.9703 0.0000
vn 0.3666 -0.9304 0.0000
vn 0.3481 -0.9375 0.0000
vn 0.1394 -0.0930 0.9859
vn 0.1864 -0.0554 0.9809
vn 0.0000 -0.2005 0.9797
vn -0.0000 -0.0207 0.9998
vn -0.9751 -0.2209 -0.0199
vn 0.9793 -0.2000 -0.0314
vn 0.9722 -0.2340 -0.0000
vn 0.9780 -0.2066 -0.0283
vn 0.9809 -0.1919 -0.0324
vn 0.9844 -0.1680 -0.0517
vn 0.9792 -0.2009 0.0296
vn 0.9782 -0.2056 0.0283
vn 0.5507 0.7909 0.2668
vn 0.5722 0.8015 0.1738
vn 0.5745 0.8046 0.1503
vn 0.5508 0.7848 0.2843
vn 0.9832 -0.1790 -0.0365
vn 0.5811 0.8139 -0.0000
vn 0.5655 0.7920 0.2300
vn 0.5623 0.7876 0.2521
vn 0.9811 -0.1916 -0.0287
vn 0.9802 -0.1956 -0.0295
vn 0.9796 -0.1991 -0.0282
vn 0.9842 -0.1772 0.0000
vn 0.9800 -0.1988 -0.0000
vn 0.5641 0.7901 -0.2400
vn 0.5667 0.7937 -0.2210
vn 0.9811 -0.1916 0.0287
vn 0.5497 0.8054 0.2217
vn 0.5709 0.7997 0.1860
vn 0.5736 0.8035 0.1593
vn 0.5722 0.8015 -0.1738
vn 0.5745 0.8046 -0.1503
vn 0.9695 -0.2452 0.0000
vn -0.2418 -0.9703 -0.0000
vn -0.3666 -0.9304 0.0000
vn -0.3481 -0.9375 0.0000
vn -0.1394 -0.0930 0.9859
vn -0.1864 -0.0554 0.9809
vn 0.9751 -0.2209 -0.0199
vn 0.6821 -0.7313 0.0000
vn -0.6821 -0.7313 0.0000
s 1
f 10/1/1 9/2/2 20/3/2 17/4/3
f 5/5/4 6/6/4 4/7/4 3/8/4
f 4/7/5 10/1/1 17/4/3 13/9/6
f 11/10/7 9/2/7 10/1/7 12/11/7
f 6/6/8 12/11/8 10/1/8 4/7/8
f 8/12/8 23/13/8 24/14/9 2/15/9
f 1/16/4 8/12/4 2/15/10 7/17/11
f 6/18/12 5/19/12 7/17/11 2/15/10
f 16/20/4 13/9/4 14/21/4 15/22/4
f 20/3/7 19/23/7 18/24/7 17/4/7
f 13/9/8 17/4/8 18/24/13 14/21/13
f 22/25/7 21/26/14 24/14/15 23/13/7
f 3/8/16 4/7/5 13/9/6 16/20/16
f 12/27/17 6/18/17 2/15/9 24/14/9
f 11/28/18 12/27/18 24/14/15 21/26/14
f 14/21/13 18/24/13 26/29/19 25/30/19
f 27/31/7 28/32/7 30/33/20 29/34/20
f 29/34/20 30/33/20 32/35/21 31/36/21
f 31/36/21 32/35/21 34/37/22 33/38/22
f 33/38/22 34/37/22 36/39/4 35/40/4
f 35/40/4 36/39/4 38/41/23 37/42/23
f 37/42/23 38/41/23 40/43/24 39/44/24
f 39/44/24 40/43/24 42/45/25 41/46/25
f 41/46/25 42/45/25 28/47/7 27/48/7
f 36/39/26 34/37/26 46/49/26 47/50/26
f 28/47/26 42/45/26 50/51/26 43/52/26
f 30/33/26 28/32/26 43/53/26 44/54/26
f 38/41/26 36/39/26 47/50/26 48/55/26
f 32/35/26 30/33/26 44/54/26 45/56/26
f 40/43/26 38/41/26 48/55/26 49/57/26
f 34/37/26 32/35/26 45/56/26 46/49/26
f 42/45/26 40/43/26 49/57/26 50/51/26
f 47/50/4 46/49/22 54/58/22 55/59/4
f 45/56/21 44/54/20 52/60/20 53/61/21
f 50/51/25 49/57/24 57/62/24 58/63/25
f 48/55/23 47/50/4 55/59/4 56/64/23
f 46/49/22 45/56/21 53/61/21 54/58/22
f 44/54/20 43/53/7 51/65/7 52/60/20
f 43/52/7 50/51/25 58/63/25 51/66/7
f 49/57/24 48/55/23 56/64/23 57/62/24
f 57/62/8 56/64/8 58/63/8
f 56/64/8 55/59/8 51/66/8 58/63/8
f 52/60/8 51/66/8 55/59/8 54/58/8
f 53/61/8 52/60/8 54/58/8
f 60/67/27 65/68/28 62/69/29 59/70/29
f 60/67/27 70/71/30 61/72/31
f 63/73/32 59/70/29 62/69/29 67/74/33
f 64/75/34 101/76/35 106/77/36 71/78/37
f 61/72/31 66/79/38 65/68/28 60/67/27
f 59/70/39 96/80/39 97/81/40 60/67/41
f 71/78/42 73/82/43 68/83/44 69/84/45 64/75/46
f 59/70/39 63/73/47 99/85/48 96/80/39
f 73/82/43 72/86/49 63/73/32 67/74/33 68/83/44
f 82/87/50 118/88/50 101/76/35 64/75/34
f 70/71/51 107/89/52 98/90/39 74/91/39
f 71/78/42 72/86/49 73/82/43
f 71/78/37 106/77/36 105/92/53 72/86/54
f 63/73/47 72/86/54 105/92/53 99/85/48
f 107/89/52 70/71/51 60/67/41 97/81/40
f 70/71/30 74/91/55 61/72/31
f 65/68/21 66/79/21 77/93/21 75/94/21
f 62/69/21 65/68/21 75/94/21 76/95/21
f 67/74/21 62/69/21 76/95/21 78/96/21
f 68/83/21 67/74/21 78/96/21 79/97/56
f 69/84/21 68/83/21 79/97/56 81/98/57
f 83/99/21 69/84/21 81/98/57 84/100/58
f 84/100/59 82/87/60 83/99/61
f 118/88/62 82/87/60 84/100/59 80/101/62
f 64/75/46 69/84/45 83/99/63 82/87/63
f 86/102/64 85/103/65 88/104/65 91/105/66
f 86/102/64 87/106/67 100/107/68
f 89/108/69 93/109/70 88/104/65 85/103/65
f 90/110/71 102/111/72 106/77/73 101/76/74
f 87/106/67 86/102/64 91/105/66 92/112/75
f 85/103/76 86/102/77 97/81/78 96/80/76
f 102/111/79 90/110/80 95/113/81 94/114/82 104/115/83
f 85/103/76 96/80/76 99/85/84 89/108/85
f 104/115/83 94/114/82 93/109/70 89/108/69 103/116/86
f 116/117/87 90/110/71 101/76/74 118/88/87
f 100/107/88 108/118/76 98/90/76 107/89/89
f 102/111/79 104/115/83 103/116/86
f 102/111/72 103/116/90 105/92/91 106/77/73
f 89/108/85 99/85/84 105/92/91 103/116/90
f 107/89/89 97/81/78 86/102/77 100/107/88
f 100/107/68 87/106/67 108/118/92
f 91/105/21 109/119/21 111/120/21 92/112/21
f 88/104/21 110/121/21 109/119/21 91/105/21
f 93/109/21 112/122/21 110/121/21 88/104/21
f 94/114/21 113/123/93 112/122/21 93/109/21
f 95/113/21 115/124/94 113/123/93 94/114/21
f 117/125/21 119/126/95 115/124/94 95/113/21
f 119/126/96 117/125/61 116/117/97
f 118/88/62 80/101/62 119/126/96 116/117/97
f 90/110/80 116/117/98 117/125/98 95/113/81
f 80/101/99 84/100/58 81/98/57 114/127/99
f 80/101/100 114/128/100 115/124/94 119/126/95
f 120/129/99 114/127/99 81/98/57 79/97/56
f 113/123/93 115/124/94 114/127/100 120/129/100
