# Blender v2.81 (sub 16) OBJ File: 'fences.blend'
# www.blender.org
o fence3_linked_Plane.006
v 0.012705 1.064666 0.506214
v -0.012706 0.586161 0.478165
v -0.012706 0.425394 0.317399
v -0.012706 0.333223 0.225228
v -0.012706 0.200167 0.092171
v -0.012706 0.165600 0.001005
v 0.012706 0.586161 0.478165
v 0.012706 0.425394 0.317399
v 0.012706 0.333223 0.225228
v 0.012706 0.200167 0.092171
v 0.012706 0.770503 0.478165
v 0.012706 0.678332 0.385994
v 0.012706 0.517565 0.225228
v 0.012706 0.425394 0.133057
v 0.012706 0.292338 0.000000
v -0.012706 0.770503 0.478165
v -0.012706 0.678332 0.385994
v -0.012706 0.517565 0.225228
v -0.012706 0.425394 0.133057
v -0.012706 0.292338 0.000000
v 0.012706 0.903560 0.345109
v 0.012706 0.811389 0.252937
v 0.012706 0.650622 0.092171
v 0.012706 0.558451 -0.000000
v -0.012706 0.903560 0.345109
v -0.012706 0.811389 0.252937
v -0.012706 0.650622 0.092171
v -0.012706 0.558451 -0.000000
v -0.012706 0.995731 0.252937
v -0.012706 0.903560 0.160766
v -0.012706 0.742793 -0.000000
v 0.012706 0.995731 0.252937
v 0.012706 0.903560 0.160766
v 0.012706 0.742793 -0.000000
v -0.012706 1.156497 0.092171
v -0.012706 1.064326 -0.000000
v 0.012706 1.156497 0.092171
v 0.012706 1.064326 0.000000
v 0.012706 1.163051 0.000837
v -0.012706 1.163051 0.000837
v 0.012706 0.165600 0.001005
v -0.012706 1.064666 0.506214
v -0.012706 1.158692 0.415899
v 0.012705 1.158692 0.415899
v -0.012706 0.212480 0.345971
v 0.012706 0.212480 0.345971
v -0.012706 0.207812 0.418343
v 0.012706 0.323931 0.418862
v -0.012706 0.323931 0.418862
v 0.012706 0.207812 0.418343
v -0.072214 0.000000 0.440859
v -0.059141 0.000000 0.427786
v -0.059141 1.275785 0.427786
v -0.072214 1.275785 0.440859
v 0.059141 0.000000 0.427786
v 0.072214 0.000000 0.440859
v 0.072214 1.275785 0.440859
v 0.059141 1.275785 0.427786
v -0.022401 0.113585 0.473141
v -0.022401 0.113586 0.000000
v 0.022401 0.113586 0.473141
v 0.022401 0.113586 0.000000
v 0.022401 0.243935 0.473141
v 0.022401 0.243935 -0.000000
v -0.022401 0.243935 0.473141
v -0.022401 0.243935 -0.000000
v -0.022401 1.067814 0.444736
v -0.022401 1.150007 0.000000
v 0.022401 1.067814 0.444735
v 0.022401 1.150007 0.000000
v 0.022401 1.198164 0.444736
v 0.022401 1.280357 -0.000000
v -0.022401 1.198164 0.444736
v -0.022401 1.280357 -0.000000
v 0.022401 1.136561 0.141606
v 0.022401 1.264122 0.168424
v -0.022401 1.264122 0.168424
v -0.022401 1.136561 0.141606
v 0.022401 1.097003 0.282705
v 0.022401 1.222628 0.314763
v -0.022401 1.097003 0.282705
v -0.022401 1.222628 0.314763
v -0.072214 0.000000 0.500000
v -0.072214 1.275785 0.500000
v 0.072214 1.275785 0.500000
v 0.072214 0.000000 0.500000
vt 0.533302 0.881306
vt 0.556651 0.904656
vt 0.540477 0.920830
vt 0.517127 0.897481
vt 0.584863 0.965217
vt 0.556651 0.937005
vt 0.572826 0.920830
vt 0.601038 0.949042
vt 0.601038 0.949042
vt 0.584863 0.965217
vt 0.601038 0.966367
vt 0.618888 0.879123
vt 0.614523 0.879123
vt 0.614523 0.849280
vt 0.618888 0.849280
vt 0.545339 0.836920
vt 0.561514 0.853094
vt 0.517127 0.865132
vt 0.517127 0.897481
vt 0.540477 0.920830
vt 0.556651 0.904656
vt 0.533302 0.881306
vt 0.614186 0.877786
vt 0.618551 0.877786
vt 0.618551 0.913844
vt 0.614186 0.913844
vt 0.601038 0.966367
vt 0.584863 0.876444
vt 0.601038 0.860269
vt 0.601038 0.892618
vt 0.601038 0.860269
vt 0.584863 0.876444
vt 0.601038 0.892618
vt 0.614361 0.914742
vt 0.614361 0.878684
vt 0.618726 0.878684
vt 0.618726 0.914742
vt 0.618624 0.879797
vt 0.614259 0.879797
vt 0.614259 0.843739
vt 0.618624 0.843739
vt 0.572826 0.920830
vt 0.556651 0.937005
vt 0.618726 0.842626
vt 0.614361 0.842626
vt 0.577688 0.836920
vt 0.614523 0.908966
vt 0.618888 0.908966
vt 0.618624 0.909640
vt 0.614259 0.909640
vt 0.577688 0.836920
vt 0.561514 0.853094
vt 0.584863 0.797396
vt 0.601038 0.813570
vt 0.561514 0.820745
vt 0.601038 0.813570
vt 0.584863 0.797396
vt 0.561514 0.820745
vt 0.545339 0.836920
vt 0.517127 0.865132
vt 0.619371 0.849716
vt 0.619371 0.879559
vt 0.615006 0.879559
vt 0.615006 0.849716
vt 0.614165 0.843850
vt 0.618530 0.843850
vt 0.618530 0.879908
vt 0.614165 0.879908
vt 0.614340 0.879338
vt 0.614340 0.849495
vt 0.618705 0.849495
vt 0.618705 0.879338
vt 0.601038 0.791330
vt 0.601038 0.791330
vt 0.614186 0.853887
vt 0.618551 0.853887
vt 0.537953 0.955703
vt 0.522104 0.939203
vt 0.537953 0.955703
vt 0.522104 0.939203
vt 0.619371 0.903041
vt 0.615006 0.903041
vt 0.618705 0.906419
vt 0.614340 0.906419
vt 0.540325 0.799557
vt 0.527625 0.798737
vt 0.527534 0.819115
vt 0.618530 0.902664
vt 0.614165 0.902664
vt 0.527534 0.819115
vt 0.527625 0.798737
vt 0.540325 0.799557
vt 0.707847 0.767514
vt 0.707847 0.967852
vt 0.697840 0.967852
vt 0.697840 0.767514
vt 0.674329 0.967858
vt 0.670832 0.967864
vt 0.694343 0.967858
vt 0.694343 0.767520
vt 0.670832 0.767526
vt 0.674329 0.767520
vt 0.660825 0.967864
vt 0.660825 0.767526
vt 0.695628 0.990078
vt 0.695628 0.970064
vt 0.618888 0.879123
vt 0.614523 0.879123
vt 0.614523 0.849280
vt 0.618888 0.849280
vt 0.584863 0.797396
vt 0.601038 0.813570
vt 0.577688 0.836920
vt 0.561514 0.820745
vt 0.601038 0.813570
vt 0.584863 0.797396
vt 0.561514 0.820745
vt 0.577688 0.836920
vt 0.614340 0.879338
vt 0.614340 0.849495
vt 0.618705 0.849495
vt 0.618705 0.879338
vt 0.618888 0.864202
vt 0.614523 0.864202
vt 0.614523 0.849280
vt 0.618888 0.849280
vt 0.567351 0.814908
vt 0.583526 0.831082
vt 0.577688 0.836920
vt 0.561514 0.820745
vt 0.583526 0.831082
vt 0.567351 0.814908
vt 0.561514 0.820745
vt 0.577688 0.836920
vt 0.614340 0.864417
vt 0.614340 0.849495
vt 0.618705 0.849495
vt 0.618705 0.864417
vt 0.614340 0.871877
vt 0.618705 0.871877
vt 0.601038 0.813570
vt 0.584863 0.797396
vt 0.573188 0.809070
vt 0.589363 0.825245
vt 0.584863 0.797396
vt 0.601038 0.813570
vt 0.589363 0.825245
vt 0.573189 0.809070
vt 0.618888 0.871662
vt 0.614523 0.871662
vt 0.618888 0.879123
vt 0.614523 0.879123
vt 0.614340 0.879338
vt 0.618705 0.879338
vn 1.0000 -0.0000 -0.0000
vn -1.0000 0.0000 0.0000
vn -0.0000 0.7071 -0.7071
vn 0.0000 0.7071 0.7071
vn 0.0000 -0.7071 0.7071
vn 0.0000 -0.7071 -0.7071
vn 0.0000 1.0000 0.0000
vn -0.7071 0.0000 -0.7071
vn 0.7071 0.0000 -0.7071
vn 0.0000 0.0000 -1.0000
vn 0.0000 -1.0000 -0.0000
vn 0.0000 0.9954 0.0959
vn 0.0000 -0.9955 -0.0945
vn 0.0000 -0.9629 -0.2699
vn 0.0000 0.9621 0.2728
vn 0.0000 0.9827 0.1850
vn -0.0000 -0.9842 -0.1773
vn 0.0000 0.0939 -0.9956
vn -0.0000 0.0085 -1.0000
vn 0.0000 -0.0079 -1.0000
s off
f 12/1/1 22/2/1 21/3/1 11/4/1
f 37/5/1 32/6/1 33/7/1 38/8/1
f 36/9/2 35/10/2 40/11/2
f 19/12/3 14/13/3 15/14/3 20/15/3
f 8/16/1 13/17/1 12/1/1 7/18/1
f 16/19/2 25/20/2 26/21/2 17/22/2
f 29/23/4 32/24/4 37/25/4 35/26/4
f 37/5/1 38/8/1 39/27/1
f 23/28/1 24/29/1 34/30/1
f 28/31/2 27/32/2 31/33/2
f 31/34/3 30/35/3 33/36/3 34/37/3
f 22/2/1 23/28/1 34/30/1 33/7/1
f 27/38/5 23/39/5 22/40/5 26/41/5
f 30/42/2 31/33/2 27/32/2 26/21/2
f 35/10/2 36/9/2 30/42/2 29/43/2
f 38/44/6 33/36/6 30/35/6 36/45/6
f 14/46/1 24/29/1 23/28/1 13/17/1
f 24/47/6 14/13/6 19/12/6 28/48/6
f 18/49/4 13/50/4 23/39/4 27/38/4
f 27/32/2 28/31/2 19/51/2 18/52/2
f 10/53/1 15/54/1 14/46/1 9/55/1
f 20/56/2 5/57/2 4/58/2 19/51/2
f 9/55/1 14/46/1 13/17/1 8/16/1
f 4/58/2 3/59/2 18/52/2 19/51/2
f 3/59/2 2/60/2 17/22/2 18/52/2
f 11/61/4 21/62/4 25/63/4 16/64/4
f 7/65/5 2/66/5 3/67/5 8/68/5
f 4/69/5 5/70/5 10/71/5 9/72/5
f 21/3/1 22/2/1 33/7/1 32/6/1
f 25/20/2 29/43/2 30/42/2 26/21/2
f 7/18/1 12/1/1 11/4/1
f 16/19/2 17/22/2 2/60/2
f 20/56/2 6/73/2 5/57/2
f 41/74/1 15/54/1 10/53/1
f 32/24/3 29/23/3 43/75/3 44/76/3
f 32/6/1 44/77/1 1/78/1 21/3/1
f 43/79/2 29/43/2 25/20/2 42/80/2
f 25/63/5 21/62/5 1/81/5 42/82/5
f 4/69/6 9/72/6 46/83/6 45/84/6
f 3/59/2 4/58/2 45/85/2 47/86/2 49/87/2
f 8/68/4 3/67/4 49/88/4 48/89/4
f 9/55/1 8/16/1 48/90/1 50/91/1 46/92/1
f 83/93/2 84/94/2 54/95/2 51/96/2
f 58/97/7 54/95/7 57/98/7
f 51/96/8 54/95/8 53/99/8 52/100/8
f 57/98/9 56/101/9 55/102/9 58/97/9
f 85/103/7 57/98/7 54/95/7 84/94/7
f 52/100/10 53/99/10 58/97/10 55/102/10
f 56/101/1 57/98/1 85/103/1 86/104/1
f 58/105/7 53/106/7 54/95/7
f 65/107/7 63/108/7 64/109/7 66/110/7
f 62/111/1 64/112/1 63/113/1 61/114/1
f 66/115/2 60/116/2 59/117/2 65/118/2
f 59/119/11 60/120/11 62/121/11 61/122/11
f 77/123/12 76/124/12 72/125/12 74/126/12
f 79/127/1 80/128/1 71/129/1 69/130/1
f 82/131/2 81/132/2 67/133/2 73/134/2
f 78/135/13 68/136/13 70/137/13 75/138/13
f 81/139/14 78/135/14 75/138/14 79/140/14
f 74/141/2 68/142/2 78/143/2 77/144/2
f 70/145/1 72/146/1 76/147/1 75/148/1
f 82/149/15 80/150/15 76/124/15 77/123/15
f 73/151/16 71/152/16 80/150/16 82/149/16
f 67/153/17 81/139/17 79/140/17 69/154/17
f 77/144/2 78/143/2 81/132/2 82/131/2
f 75/148/1 76/147/1 80/128/1 79/127/1
f 13/50/18 18/49/18 17/22/18 26/21/18 22/40/18 12/1/18
f 72/125/10 70/137/10 68/142/10 74/126/10
f 40/11/19 39/27/19 38/8/19 36/45/19
f 28/31/10 31/33/10 34/37/10 24/29/10
f 20/15/20 15/14/20 41/74/20 6/73/20
f 64/109/10 62/121/10 60/116/10 66/110/10
l 21 11
l 37 32
