# Blender v2.82 (sub 7) OBJ File: 'fences.blend'
# www.blender.org
o fence10_unlinked_Cube.013
v -0.055957 0.000000 0.389784
v -0.063647 1.068193 0.382095
v 0.055957 0.000000 0.389784
v 0.063647 1.068193 0.382095
v -0.055957 0.000000 0.501699
v -0.063647 1.068193 0.509388
v 0.055957 0.000000 0.501699
v 0.063647 1.068193 0.509388
v -0.055957 1.027393 0.389784
v 0.055957 1.027393 0.389784
v 0.055957 1.027393 0.501699
v -0.055957 1.027393 0.501699
v -0.058795 1.039226 0.386947
v 0.058795 1.039226 0.386947
v 0.058795 1.039226 0.504536
v -0.058795 1.039226 0.504536
v 0.000000 1.097023 0.445742
v 0.048887 1.038478 0.396854
v 0.048887 1.028140 0.396854
v 0.048887 1.038478 0.494629
v 0.048887 1.028140 0.494629
v -0.048887 1.038478 0.494629
v -0.048887 1.028140 0.494629
v -0.048887 1.028140 0.396854
v -0.048887 1.038478 0.396854
v -0.023916 0.771626 0.000000
v -0.023916 1.004184 0.000000
v 0.023916 0.771626 0.000000
v 0.023916 1.004184 0.000000
v -0.023916 0.771626 0.471194
v -0.023916 1.004184 0.471194
v 0.023916 0.771626 0.471194
v 0.023916 1.004184 0.471194
v -0.023916 0.484674 0.000000
v -0.023916 0.717232 0.000000
v 0.023916 0.484674 0.000000
v 0.023916 0.717232 0.000000
v -0.023916 0.484674 0.471194
v -0.023916 0.717232 0.471194
v 0.023916 0.484674 0.471194
v 0.023916 0.717232 0.471194
v -0.023916 0.194668 0.000000
v -0.023916 0.427226 0.000000
v 0.023916 0.194668 0.000000
v 0.023916 0.427226 0.000000
v -0.023916 0.194668 0.471194
v -0.023916 0.427226 0.471194
v 0.023916 0.194668 0.471194
v 0.023916 0.427226 0.471194
vt 0.358213 0.258593
vt 0.361181 0.258593
vt 0.361181 0.316547
vt 0.358213 0.316547
vt 0.361181 0.374500
vt 0.358213 0.374500
vt 0.361181 0.432453
vt 0.358213 0.432453
vt 0.361181 0.490407
vt 0.358213 0.490407
vt 0.361181 0.374500
vt 0.272162 0.432453
vt 0.356852 0.432453
vt 0.356852 0.490407
vt 0.272162 0.490407
vt 0.272162 0.374500
vt 0.356852 0.374500
vt 0.272162 0.316547
vt 0.356852 0.316547
vt 0.272162 0.258593
vt 0.356852 0.258593
vt 0.358213 0.490407
vt 0.358213 0.432453
vt 0.358213 0.374500
vt 0.358213 0.316547
vt 0.356852 0.374500
vt 0.356852 0.432453
vt 0.356852 0.258593
vt 0.356852 0.316547
vt 0.361181 0.432453
vt 0.361181 0.316547
vt 0.361181 0.490407
vt 0.356852 0.490407
vt 0.358213 0.258593
vt 0.476298 0.267217
vt 0.412980 0.267217
vt 0.412980 0.493440
vt 0.476298 0.493440
vt 0.476298 0.493440
vt 0.412980 0.493440
vt 0.412980 0.267217
vt 0.476298 0.267217
vt 0.475900 0.267217
vt 0.412583 0.267217
vt 0.412583 0.493440
vt 0.475900 0.493440
vt 0.475900 0.493440
vt 0.412583 0.493440
vt 0.412583 0.267217
vt 0.475900 0.267217
vt 0.475690 0.267217
vt 0.412372 0.267217
vt 0.412372 0.493440
vt 0.475690 0.493440
vt 0.475690 0.493440
vt 0.412372 0.493440
vt 0.412372 0.267217
vt 0.475690 0.267217
vn 0.0000 -0.1652 -0.9863
vn 0.9863 -0.1652 0.0000
vn 0.0000 -0.1652 0.9863
vn -0.9863 -0.1652 -0.0000
vn 0.4126 0.9109 0.0000
vn -1.0000 0.0000 -0.0000
vn 0.0000 0.0000 1.0000
vn 1.0000 0.0000 0.0000
vn 0.0000 0.0000 -1.0000
vn -0.0753 -0.9972 0.0000
vn 0.0753 -0.9972 -0.0000
vn 0.0000 0.9945 0.1052
vn 0.0000 0.9945 -0.1052
vn 0.0000 0.9109 0.4126
vn 0.0000 0.9109 -0.4126
vn -0.4126 0.9109 0.0000
vn 0.1052 0.9945 0.0000
vn 0.0000 -0.9972 -0.0753
vn -0.1052 0.9945 -0.0000
vn 0.0000 -0.9972 0.0753
vn 0.0000 -1.0000 -0.0000
vn 0.0000 1.0000 -0.0000
s off
f 13/1/1 2/2/1 4/3/1 14/4/1
f 14/4/2 4/3/2 8/5/2 15/6/2
f 15/6/3 8/5/3 6/7/3 16/8/3
f 16/8/4 6/7/4 2/9/4 13/10/4
f 8/5/5 4/3/5 17/11/5
f 5/12/6 12/13/6 9/14/6 1/15/6
f 7/16/7 11/17/7 12/13/7 5/12/7
f 3/18/8 10/19/8 11/17/8 7/16/8
f 1/20/9 9/21/9 10/19/9 3/18/9
f 16/8/10 13/10/10 25/22/10 22/23/10
f 14/4/11 15/6/11 20/24/11 18/25/11
f 12/13/12 11/17/12 21/26/12 23/27/12
f 10/19/13 9/21/13 24/28/13 19/29/13
f 6/7/14 8/5/14 17/30/14
f 4/3/15 2/2/15 17/31/15
f 2/9/16 6/7/16 17/32/16
f 23/27/6 22/23/6 25/22/6 24/33/6
f 21/26/7 20/24/7 22/23/7 23/27/7
f 19/29/8 18/25/8 20/24/8 21/26/8
f 24/28/9 25/34/9 18/25/9 19/29/9
f 11/17/17 10/19/17 19/29/17 21/26/17
f 13/1/18 14/4/18 18/25/18 25/34/18
f 9/14/19 12/13/19 23/27/19 24/33/19
f 15/6/20 16/8/20 22/23/20 20/24/20
f 28/35/8 29/36/8 33/37/8 32/38/8
f 30/39/6 31/40/6 27/41/6 26/42/6
f 28/35/21 32/38/21 30/39/21 26/42/21
f 33/37/22 29/36/22 27/41/22 31/40/22
f 36/43/8 37/44/8 41/45/8 40/46/8
f 38/47/6 39/48/6 35/49/6 34/50/6
f 36/43/21 40/46/21 38/47/21 34/50/21
f 41/45/22 37/44/22 35/49/22 39/48/22
f 44/51/8 45/52/8 49/53/8 48/54/8
f 46/55/6 47/56/6 43/57/6 42/58/6
f 44/51/21 48/54/21 46/55/21 42/58/21
f 49/53/22 45/52/22 43/57/22 47/56/22
