# Blender v2.81 (sub 16) OBJ File: 'fences.blend'
# www.blender.org
o fence5_unlinked_Plane.012
v 0.138740 1.141534 0.194865
v -0.138741 1.141534 0.194865
v -0.138741 1.141534 0.472346
v 0.138740 1.141534 0.472346
v -0.138741 0.000000 0.333606
v -0.138741 1.141534 0.333606
v -0.138741 1.041860 0.333606
v -0.162258 1.141534 0.333606
v -0.162258 1.041860 0.333606
v 0.138740 0.000000 0.333606
v 0.138740 1.141534 0.333606
v 0.138740 1.041860 0.333606
v 0.162258 1.141534 0.333606
v 0.162258 1.041860 0.333606
v -0.109726 0.000000 0.000000
v -0.109726 0.000000 0.298518
v 0.109726 0.000000 0.000000
v 0.109726 0.000000 0.298518
v 0.125389 0.000000 0.194865
v 0.138740 0.000000 0.208216
v -0.138741 0.000000 0.208216
v -0.125390 0.000000 0.194865
v -0.125390 0.000000 0.472346
v -0.138741 0.000000 0.458995
v 0.138740 0.000000 0.458995
v 0.125389 0.000000 0.472346
v 0.138740 1.041860 0.208216
v 0.125389 1.041860 0.194865
v -0.125390 1.041860 0.194865
v -0.138741 1.041860 0.208216
v 0.125389 1.041860 0.472346
v 0.138740 1.041860 0.458995
v -0.138741 1.041860 0.458995
v -0.125390 1.041860 0.472346
v -0.148907 1.141534 0.171348
v -0.162258 1.141534 0.184699
v 0.162258 1.141534 0.184699
v 0.148907 1.141534 0.171348
v -0.162258 1.041860 0.184699
v -0.148907 1.041860 0.171348
v 0.148907 1.141534 0.495864
v 0.162258 1.141534 0.482513
v -0.162258 1.141534 0.482513
v -0.148907 1.141534 0.495864
v 0.148907 1.041860 0.171348
v 0.162258 1.041860 0.184699
v 0.162258 1.041860 0.482513
v 0.148907 1.041860 0.495864
v -0.148907 1.041860 0.495864
v -0.162258 1.041860 0.482513
v -0.109726 0.331313 0.000000
v -0.096371 0.344668 0.000000
v -0.096371 0.344668 0.298518
v -0.109726 0.331313 0.298518
v 0.096371 0.344668 0.000000
v 0.109726 0.331313 0.000000
v 0.109726 0.331313 0.298518
v 0.096371 0.344668 0.298518
v -0.032616 0.319554 0.078353
v -0.000000 1.060392 0.110969
v 0.032616 0.319554 0.078353
v -0.032616 0.319554 0.143585
v 0.032616 0.319554 0.143585
v -0.028871 0.878477 0.000000
v -0.028871 0.878477 0.292274
v 0.028871 0.878477 0.000000
v 0.028871 0.878477 0.292274
v -0.028871 0.820735 0.000000
v -0.028871 0.820735 0.292274
v 0.028871 0.820735 0.000000
v 0.028871 0.820735 0.292274
v -0.028871 0.497183 0.000000
v -0.028871 0.497183 0.292274
v 0.028871 0.497183 0.000000
v 0.028871 0.497183 0.292274
v -0.028871 0.439441 0.000000
v -0.028871 0.439441 0.292274
v 0.028871 0.439441 0.000000
v 0.028871 0.439441 0.292274
v -0.032693 0.906397 0.078276
v 0.032693 0.906397 0.078276
v 0.032693 0.906397 0.143662
v -0.032693 0.906397 0.143662
v -0.054072 0.968826 0.056897
v 0.054072 0.968826 0.056897
v 0.054072 0.968826 0.165041
v -0.054072 0.968826 0.165041
vt 0.145493 0.701309
vt 0.145493 0.723140
vt 0.110997 0.723171
vt 0.111149 0.701183
vt 0.066732 0.727519
vt 0.029309 0.727519
vt 0.030781 0.723171
vt 0.065162 0.723140
vt 0.068709 0.697784
vt 0.088780 0.697687
vt 0.088780 0.701309
vt 0.068530 0.701285
vt 0.027610 0.701309
vt 0.027610 0.723140
vt 0.008991 0.723140
vt 0.008991 0.701309
vt 0.145231 0.504683
vt 0.145231 0.697687
vt 0.111280 0.697813
vt 0.111299 0.504683
vt 0.107499 0.504683
vt 0.107499 0.697687
vt 0.088779 0.504683
vt 0.064901 0.697687
vt 0.065162 0.701309
vt 0.068826 0.504683
vt 0.088780 0.723140
vt 0.068495 0.723110
vt 0.147007 0.727519
vt 0.109492 0.727519
vt 0.088780 0.727560
vt 0.107788 0.723140
vt 0.030842 0.701315
vt 0.027327 0.697687
vt 0.031003 0.697742
vt 0.170016 0.727560
vt 0.148929 0.723171
vt 0.170016 0.723140
vt 0.107788 0.701309
vt 0.170016 0.504683
vt 0.170016 0.697687
vt 0.149028 0.697813
vt 0.149249 0.504683
vt 0.170016 0.701309
vt 0.148868 0.701183
vt 0.008991 0.727560
vt 0.064901 0.504683
vt 0.031079 0.504683
vt 0.093558 0.568175
vt 0.093558 0.568175
vt 0.002345 0.568175
vt 0.002345 0.568175
vt 0.002345 0.504683
vt 0.002345 0.504683
vt 0.093558 0.504683
vt 0.093558 0.504683
vt 0.002345 0.565715
vt 0.093558 0.565715
vt 0.008991 0.697687
vt 0.027327 0.504683
vt 0.008991 0.504683
vt 0.002345 0.565715
vt 0.093558 0.565715
vt 0.212489 0.693866
vt 0.214038 0.706555
vt 0.212489 0.706555
vt 0.214038 0.719244
vt 0.212489 0.719244
vt 0.214038 0.731933
vt 0.212489 0.731933
vt 0.214038 0.744622
vt 0.212489 0.744622
vt 0.188661 0.719244
vt 0.201349 0.719244
vt 0.201349 0.731933
vt 0.188661 0.731933
vt 0.201349 0.693866
vt 0.214038 0.693866
vt 0.214038 0.706555
vt 0.201349 0.706555
vt 0.214038 0.719244
vt 0.201349 0.719244
vt 0.214038 0.731933
vt 0.201349 0.731933
vt 0.214038 0.744622
vt 0.201349 0.744622
vt 0.201349 0.706555
vt 0.214038 0.706555
vt 0.214038 0.719244
vt 0.201349 0.719244
vt 0.201349 0.693866
vt 0.214038 0.693866
vt 0.214038 0.731933
vt 0.201349 0.731933
vt 0.214038 0.744622
vt 0.201349 0.744622
vt 0.211422 0.731933
vt 0.211422 0.744622
vt 0.201349 0.744622
vt 0.211422 0.719244
vt 0.201349 0.706555
vt 0.211422 0.706555
vt 0.201349 0.693866
vt 0.211422 0.693866
vn 0.3827 0.0000 0.9239
vn -0.3827 0.0000 0.9239
vn 0.0000 1.0000 0.0000
vn 0.0000 -1.0000 0.0000
vn 0.9239 0.0000 -0.3827
vn 1.0000 0.0000 0.0000
vn -0.9239 0.0000 0.3827
vn -1.0000 0.0000 0.0000
vn -0.9239 0.0000 -0.3827
vn -0.3827 0.0000 -0.9239
vn 0.3827 0.0000 -0.9239
vn 0.9239 0.0000 0.3827
vn -0.3827 0.9239 -0.0000
vn 0.3827 0.9239 0.0000
vn -0.7071 -0.7071 -0.0000
vn 0.7071 -0.7071 0.0000
vn 0.9239 0.3827 0.0000
vn -0.9239 0.3827 -0.0000
vn -0.7036 0.1002 -0.7036
vn 0.7036 0.1002 -0.7036
vn 0.7036 0.1002 0.7036
vn -0.7036 0.1002 0.7036
vn 0.5773 -0.5774 -0.5773
vn 0.5773 -0.5774 0.5773
vn -0.5773 -0.5774 0.5773
vn -0.5773 -0.5774 -0.5773
vn -0.7071 0.7071 0.0000
vn 0.7071 0.7071 -0.0000
vn -0.6848 -0.2494 0.6848
vn -0.6848 -0.2494 -0.6848
vn 0.6848 -0.2494 0.6848
vn 0.6848 -0.2494 -0.6848
s 1
f 48/1/1 41/2/1 44/3/2 49/4/2
f 2/5/3 1/6/3 38/7/3 35/8/3
f 30/9/4 7/10/4 9/11/4 39/12/4
f 46/13/5 37/14/5 13/15/6 14/16/6
f 26/17/1 31/18/1 34/19/2 23/20/2
f 24/21/7 33/22/7 7/10/8 5/23/8
f 29/24/4 30/9/4 39/12/4 40/25/4
f 5/23/8 7/10/8 30/9/9 21/26/9
f 9/11/8 8/27/8 36/28/9 39/12/9
f 4/29/3 3/30/3 44/3/3 41/2/3
f 3/30/3 6/31/3 8/27/3 43/32/3
f 6/31/3 2/5/3 36/28/3 8/27/3
f 40/25/10 35/8/10 38/7/11 45/33/11
f 27/34/4 28/35/4 45/33/4 46/13/4
f 11/36/3 4/29/3 42/37/3 13/38/3
f 33/22/4 34/19/4 49/4/4 50/39/4
f 10/40/6 12/41/6 32/42/12 25/43/12
f 50/39/7 43/32/7 8/27/8 9/11/8
f 32/42/4 12/41/4 14/44/4 47/45/4
f 1/6/3 11/46/3 13/15/3 37/14/3
f 22/47/10 29/24/10 28/35/11 19/48/11
f 31/18/4 32/42/4 47/45/4 48/1/4
f 14/44/6 13/38/6 42/37/12 47/45/12
f 11/36/3 6/31/3 3/30/3 4/29/3
f 2/5/3 6/31/3 11/36/3 1/6/3
f 53/49/13 58/50/14 55/51/14 52/52/13
f 15/53/15 17/54/16 18/55/16 16/56/15
f 56/57/17 57/58/17 18/55/16 17/54/16
f 28/35/4 29/24/4 40/25/4 45/33/4
f 35/8/3 36/28/3 2/5/3
f 37/14/3 38/7/3 1/6/3
f 41/2/3 42/37/3 4/29/3
f 43/32/3 44/3/3 3/30/3
f 12/59/4 27/34/4 46/13/4 14/16/4
f 27/34/5 20/60/5 19/48/11 28/35/11
f 31/18/1 26/17/1 25/43/12 32/42/12
f 33/22/7 24/21/7 23/20/2 34/19/2
f 21/26/9 30/9/9 29/24/10 22/47/10
f 39/12/9 36/28/9 35/8/10 40/25/10
f 37/14/5 46/13/5 45/33/11 38/7/11
f 41/2/1 48/1/1 47/45/12 42/37/12
f 43/32/7 50/39/7 49/4/2 44/3/2
f 20/60/5 27/34/5 12/59/6 10/61/6
f 7/10/4 33/22/4 50/39/4 9/11/4
f 34/19/4 31/18/4 48/1/4 49/4/4
f 53/49/13 52/52/13 51/62/18 54/63/18
f 57/58/17 56/57/17 55/51/14 58/50/14
f 51/62/18 15/53/15 16/56/15 54/63/18
f 84/64/19 60/65/3 85/66/20
f 85/66/20 60/67/3 86/68/21
f 86/68/21 60/69/3 87/70/22
f 87/70/22 60/71/3 84/72/19
f 61/73/23 63/74/24 62/75/25 59/76/26
f 64/77/27 65/78/27 67/79/28 66/80/28
f 66/80/28 67/79/28 71/81/16 70/82/16
f 70/82/16 71/81/16 69/83/15 68/84/15
f 68/84/15 69/83/15 65/85/27 64/86/27
f 74/87/28 75/88/28 79/89/16 78/90/16
f 72/91/27 73/92/27 75/88/28 74/87/28
f 78/90/16 79/89/16 77/93/15 76/94/15
f 76/94/15 77/93/15 73/95/27 72/96/27
f 62/75/25 83/97/29 80/98/30 59/99/26
f 63/74/24 82/100/31 83/97/29 62/75/25
f 61/101/23 81/102/32 82/100/31 63/74/24
f 59/103/26 80/104/30 81/102/32 61/101/23
f 83/97/29 87/70/22 84/72/19 80/98/30
f 82/100/31 86/68/21 87/70/22 83/97/29
f 81/102/32 85/66/20 86/68/21 82/100/31
f 80/104/30 84/64/19 85/66/20 81/102/32
