# Blender v2.81 (sub 16) OBJ File: 'fences.blend'
# www.blender.org
o Fence12_linked_Cube.015
v -0.122118 0.000000 0.000000
v -0.122118 0.784697 0.000000
v -0.122118 0.000000 0.200646
v -0.122118 0.764273 0.187575
v -0.122118 0.613306 0.000000
v -0.122118 0.613306 0.144072
v -0.122118 0.565414 0.218619
v -0.210427 0.542539 0.000000
v -0.122118 0.360907 0.139865
v -0.122118 0.360907 0.000000
v -0.122118 0.262076 0.231690
v -0.197845 0.258808 0.000000
v -0.122118 0.076125 0.200646
v -0.122118 0.177270 0.225155
v -0.122118 0.076125 0.000000
v -0.197845 0.167467 0.000000
v -0.122118 0.788782 0.355667
v -0.122118 0.000000 0.362203
v -0.122118 0.636997 0.358118
v -0.122118 0.611164 0.376908
v -0.194355 0.425446 0.353870
v -0.122118 0.310276 0.414488
v -0.171699 0.197285 0.399274
v -0.122118 0.076125 0.375075
v -0.148624 0.724050 0.000000
v -0.122118 0.724050 0.187575
v -0.150967 0.746701 0.356320
v -0.122118 0.000000 0.500000
v -0.122118 0.332824 0.500000
v -0.150799 0.464360 0.500000
v -0.182501 0.208864 0.500000
v -0.122118 0.076125 0.500000
v -0.122118 0.767737 0.500000
v -0.126017 0.737653 0.500000
v -0.122118 0.622865 0.500000
v -0.122118 0.656467 0.500000
v -0.122118 0.000000 0.500000
v -0.122118 0.000000 -0.122118
v -0.122118 0.784697 -0.122118
v -0.122118 0.613306 -0.122118
v -0.210427 0.542539 -0.210427
v -0.122118 0.360907 -0.122118
v -0.197845 0.258808 -0.197845
v -0.122118 0.076125 -0.122118
v -0.197845 0.167467 -0.197845
v -0.148624 0.724050 -0.148624
v 0.122118 0.000000 0.000000
v 0.122118 0.784697 0.000000
v 0.122118 0.000000 0.200646
v 0.122118 0.764273 0.187575
v 0.122118 0.613306 0.000000
v 0.122118 0.613306 0.144072
v 0.122118 0.565414 0.218619
v 0.210427 0.542539 0.000000
v 0.122118 0.360907 0.139865
v 0.122118 0.360907 0.000000
v 0.122118 0.262076 0.231690
v 0.197845 0.258808 0.000000
v 0.122118 0.076125 0.200646
v 0.122118 0.177270 0.225155
v 0.122118 0.076125 0.000000
v 0.197845 0.167467 0.000000
v 0.000000 0.784697 0.000000
v -0.000000 0.764273 0.187575
v 0.122118 0.788782 0.355667
v 0.122118 0.000000 0.362203
v 0.122118 0.636997 0.358118
v 0.122118 0.611164 0.376908
v 0.194355 0.425446 0.353870
v 0.122118 0.310276 0.414488
v 0.171699 0.197285 0.399274
v 0.122118 0.076125 0.375075
v -0.000000 0.788782 0.355667
v 0.148624 0.724050 0.000000
v 0.122118 0.724050 0.187575
v 0.150967 0.746701 0.356320
v 0.122118 0.000000 0.500000
v 0.122118 0.332824 0.500000
v 0.150799 0.464360 0.500000
v 0.182501 0.208864 0.500000
v 0.122118 0.076125 0.500000
v -0.000000 0.767737 0.500000
v 0.122118 0.767737 0.500000
v 0.126017 0.737653 0.500000
v 0.122118 0.622865 0.500000
v 0.122118 0.656467 0.500000
v 0.122118 0.000000 0.500000
v 0.122118 0.000000 -0.122118
v 0.122118 0.784697 -0.122118
v 0.122118 0.613306 -0.122118
v 0.210427 0.542539 -0.210427
v 0.122118 0.360907 -0.122118
v 0.197845 0.258808 -0.197845
v 0.122118 0.076125 -0.122118
v 0.197845 0.167467 -0.197845
v 0.000000 0.784697 -0.028667
v 0.148624 0.724050 -0.148624
vt 0.933380 0.409222
vt 0.933380 0.429092
vt 0.858075 0.429092
vt 0.858075 0.409222
vt 0.933380 0.430961
vt 0.858075 0.430961
vt 0.881085 0.433324
vt 0.784875 0.433324
vt 0.784875 0.425538
vt 0.881085 0.425538
vt 0.881085 0.397506
vt 0.784875 0.397506
vt 0.835766 0.451190
vt 0.835766 0.472948
vt 0.784016 0.472948
vt 0.782078 0.451190
vt 0.936705 0.435196
vt 0.936705 0.472296
vt 0.874940 0.472296
vt 0.874940 0.435196
vt 0.936705 0.362606
vt 0.874940 0.362606
vt 0.874908 0.395345
vt 0.782466 0.395345
vt 0.874908 0.363953
vt 0.782466 0.363953
vt 0.938810 0.433643
vt 0.938810 0.473388
vt 0.875957 0.473388
vt 0.875957 0.433643
vt 0.938810 0.362514
vt 0.938810 0.386604
vt 0.875957 0.386604
vt 0.875957 0.362514
vt 0.837502 0.419641
vt 0.837502 0.472309
vt 0.788087 0.472310
vt 0.788087 0.419641
vt 0.834376 0.253894
vt 0.834579 0.275922
vt 0.799809 0.275922
vt 0.799605 0.253894
vt 0.753099 0.275922
vt 0.752895 0.253894
vt 0.837502 0.366972
vt 0.788087 0.366972
vt 0.881085 0.363387
vt 0.784875 0.363387
vt 0.915915 0.365729
vt 0.858075 0.365729
vt 0.866088 0.419641
vt 0.860618 0.472309
vt 0.913868 0.395345
vt 0.910075 0.451190
vt 0.927350 0.472948
vt 0.932883 0.363387
vt 0.931837 0.397506
vt 0.864032 0.253894
vt 0.859482 0.275922
vt 0.864032 0.253894
vt 0.905135 0.363953
vt 0.931473 0.425538
vt 0.931473 0.433324
vt 0.872893 0.366972
vt 0.858075 0.409222
vt 0.858075 0.365729
vt 0.875957 0.473388
vt 0.875957 0.410124
vt 0.858075 0.430961
vt 0.858075 0.429092
vt 0.875957 0.386604
vt 0.875957 0.362514
vt 0.874940 0.472296
vt 0.874940 0.435196
vt 0.874940 0.362606
vt 0.752895 0.253894
vt 0.752895 0.253894
vt 0.933380 0.409222
vt 0.858075 0.409222
vt 0.858075 0.429092
vt 0.933380 0.429092
vt 0.881085 0.425538
vt 0.784875 0.425538
vt 0.881085 0.397506
vt 0.784875 0.397506
vt 0.835766 0.451190
vt 0.782078 0.451190
vt 0.784016 0.472948
vt 0.835766 0.472948
vt 0.936705 0.435196
vt 0.874940 0.435196
vt 0.874940 0.472296
vt 0.936705 0.472296
vt 0.936705 0.362606
vt 0.874940 0.362606
vt 0.874908 0.395345
vt 0.782466 0.395345
vt 0.874908 0.363953
vt 0.782466 0.363953
vt 0.938810 0.433643
vt 0.875957 0.433643
vt 0.875957 0.473388
vt 0.938810 0.473388
vt 0.938810 0.362514
vt 0.875957 0.362514
vt 0.875957 0.386604
vt 0.938810 0.386604
vt 0.837502 0.419641
vt 0.788087 0.419641
vt 0.788087 0.472310
vt 0.837502 0.472309
vt 0.834376 0.253894
vt 0.799605 0.253894
vt 0.799809 0.275922
vt 0.834579 0.275922
vt 0.752895 0.253894
vt 0.753099 0.275922
vt 0.837502 0.366972
vt 0.788087 0.366972
vt 0.881085 0.363387
vt 0.784875 0.363387
vt 0.915915 0.365729
vt 0.858075 0.365729
vt 0.866088 0.419641
vt 0.860618 0.472309
vt 0.913868 0.395345
vt 0.910075 0.451190
vt 0.927350 0.472948
vt 0.932883 0.363387
vt 0.931837 0.397506
vt 0.864032 0.253894
vt 0.864032 0.253894
vt 0.859482 0.275922
vt 0.905135 0.363953
vt 0.931473 0.425538
vt 0.872893 0.366972
vt 0.858075 0.365729
vt 0.858075 0.409222
vt 0.875957 0.410124
vt 0.875957 0.473388
vt 0.858075 0.429092
vt 0.875957 0.386604
vt 0.875957 0.362514
vt 0.874940 0.435196
vt 0.874940 0.472296
vt 0.874940 0.362606
vt 0.752895 0.253894
vt 0.752895 0.253894
vn -0.9928 0.0873 0.0822
vn -0.6271 0.7698 0.1192
vn -0.5677 0.8212 0.0577
vn -0.9964 0.0740 0.0411
vn 0.0000 0.9941 0.1082
vn 0.0000 0.9985 0.0542
vn 0.0000 1.0000 -0.0000
vn 0.0000 0.9895 -0.1443
vn -0.5965 0.7856 -0.1644
vn -0.5385 0.8426 -0.0020
vn -0.9917 0.1283 0.0063
vn -0.9938 0.0661 -0.0896
vn -0.9920 0.1245 -0.0192
vn -1.0000 0.0000 -0.0000
vn -0.9847 0.1198 -0.1265
vn -0.9664 0.1144 0.2300
vn -0.7494 0.6468 0.1417
vn -0.9511 0.3025 0.0629
vn -0.9748 0.1928 0.1121
vn -0.9326 -0.2636 0.2466
vn -0.9890 0.0875 0.1191
vn -0.9989 -0.0401 -0.0247
vn -0.9828 -0.0932 -0.1592
vn -0.9340 -0.3379 0.1159
vn -0.9300 -0.3614 -0.0666
vn -0.9507 0.1517 0.2706
vn -0.8912 0.4172 0.1780
vn -0.9579 0.2568 0.1281
vn -0.9094 -0.3795 0.1705
vn -0.9503 -0.1756 0.2569
vn -0.9550 -0.2691 0.1250
vn -0.9628 -0.2663 0.0446
vn -0.9930 0.0080 -0.1178
vn -0.9202 0.3614 -0.1502
vn -0.9491 0.2578 -0.1811
vn -0.9881 -0.0011 -0.1540
vn -0.9558 -0.2823 -0.0823
vn -0.9736 -0.1892 -0.1276
vn -0.9898 -0.1417 0.0107
vn -0.9911 -0.1183 -0.0604
vn -0.9879 -0.1337 0.0790
vn -0.9951 0.0458 -0.0881
vn -0.8962 0.4242 -0.1297
vn -0.9841 0.0252 0.1760
vn -0.9903 0.1300 0.0491
vn -0.9816 -0.1675 0.0919
vn -0.9869 0.1169 0.1109
vn -0.9153 -0.3118 0.2548
vn -0.5585 0.8146 0.1567
vn 0.0000 0.9895 0.1443
vn -0.9182 -0.3954 -0.0237
vn -0.9977 0.0684 -0.0000
vn -0.9217 0.3878 -0.0000
vn -0.9938 0.1111 0.0000
vn -0.9687 0.2484 -0.0000
vn -0.7249 0.6888 0.0000
vn -0.9647 -0.2635 -0.0000
vn -0.9206 -0.3906 -0.0000
vn -0.9922 0.1245 0.0000
vn 0.9928 0.0873 0.0822
vn 0.9964 0.0740 0.0411
vn 0.5677 0.8212 0.0577
vn 0.6271 0.7698 0.1192
vn 0.5385 0.8426 -0.0020
vn 0.5965 0.7856 -0.1644
vn 0.9917 0.1283 0.0063
vn 0.9938 0.0661 -0.0896
vn 0.9920 0.1245 -0.0192
vn 0.9847 0.1198 -0.1265
vn 1.0000 0.0000 0.0000
vn 0.9664 0.1144 0.2300
vn 0.9748 0.1928 0.1121
vn 0.9511 0.3025 0.0629
vn 0.7494 0.6468 0.1417
vn 0.9326 -0.2636 0.2466
vn 0.9890 0.0875 0.1191
vn 0.9989 -0.0401 -0.0247
vn 0.9828 -0.0932 -0.1592
vn 0.9340 -0.3379 0.1159
vn 0.9300 -0.3614 -0.0666
vn 0.9507 0.1517 0.2706
vn 0.9579 0.2568 0.1281
vn 0.8912 0.4172 0.1780
vn 0.9094 -0.3795 0.1705
vn 0.9628 -0.2663 0.0446
vn 0.9550 -0.2691 0.1250
vn 0.9503 -0.1756 0.2569
vn 0.9930 0.0080 -0.1178
vn 0.9881 -0.0011 -0.1540
vn 0.9491 0.2578 -0.1811
vn 0.9202 0.3614 -0.1502
vn 0.9558 -0.2823 -0.0823
vn 0.9736 -0.1892 -0.1276
vn 0.9898 -0.1417 0.0107
vn 0.9911 -0.1183 -0.0604
vn 0.9879 -0.1337 0.0790
vn 0.9951 0.0458 -0.0881
vn 0.8962 0.4242 -0.1297
vn 0.9841 0.0252 0.1760
vn 0.9903 0.1300 0.0491
vn 0.9816 -0.1675 0.0919
vn 0.9869 0.1169 0.1109
vn 0.9153 -0.3118 0.2548
vn 0.5585 0.8146 0.1567
vn 0.9182 -0.3954 -0.0237
vn 0.9217 0.3878 0.0000
vn 0.9977 0.0684 0.0000
vn 0.9687 0.2484 0.0000
vn 0.9938 0.1111 0.0000
vn 0.7249 0.6888 0.0000
vn 0.9647 -0.2635 0.0000
vn 0.9206 -0.3906 0.0000
vn 0.9922 0.1245 0.0000
s 1
f 26/1/1 4/2/2 2/3/3 25/4/4
f 64/5/5 63/6/6 2/3/3 4/2/2
f 73/7/7 64/8/8 4/9/9 17/10/10
f 27/11/11 17/10/10 4/9/9 26/12/12
f 20/13/13 19/14/14 6/15/14 7/16/15
f 7/17/16 6/18/17 5/19/18 8/20/19
f 9/21/20 7/17/16 8/20/19 10/22/21
f 21/23/22 20/13/13 7/16/15 9/24/23
f 22/25/24 21/23/22 9/24/23 11/26/25
f 11/27/26 9/28/27 10/29/21 12/30/28
f 13/31/29 14/32/30 16/33/31 15/34/32
f 14/32/30 11/27/26 12/30/28 16/33/31
f 23/35/33 22/36/34 11/37/35 14/38/36
f 18/39/14 24/40/14 13/41/14 3/42/14
f 3/42/14 13/41/14 15/43/32 1/44/14
f 24/45/37 23/35/33 14/38/36 13/46/38
f 19/47/39 27/11/11 26/12/12 6/48/40
f 6/49/41 26/1/1 25/4/4 5/50/18
f 31/51/42 29/52/43 22/36/34 23/35/33
f 30/53/44 35/54/45 20/13/13 21/23/22
f 35/54/45 36/55/14 19/14/14 20/13/13
f 36/56/46 34/57/47 27/11/11 19/47/39
f 28/58/14 32/59/14 24/40/14 18/39/14 37/60/14
f 29/61/48 30/53/44 21/23/22 22/25/24
f 33/62/49 82/63/50 73/7/7 17/10/10
f 34/57/47 33/62/49 17/10/10 27/11/11
f 32/64/51 31/51/42 23/35/33 24/45/37
f 5/50/18 25/4/4 46/65/52 40/66/53
f 12/30/28 10/29/21 42/67/54 43/68/55
f 2/3/3 63/6/6 96/69/7 39/70/56
f 16/33/31 12/30/28 43/68/55 45/71/57
f 15/34/32 16/33/31 45/71/57 44/72/58
f 25/4/4 2/3/3 39/70/56 46/65/52
f 8/20/19 5/19/18 40/73/53 41/74/59
f 10/22/21 8/20/19 41/74/59 42/75/54
f 1/44/14 15/43/32 44/76/58 38/77/14
f 75/78/60 74/79/61 48/80/62 50/81/63
f 64/5/5 50/81/63 48/80/62 63/6/6
f 73/7/7 65/82/64 50/83/65 64/8/8
f 76/84/66 75/85/67 50/83/65 65/82/64
f 68/86/68 53/87/69 52/88/70 67/89/70
f 53/90/71 54/91/72 51/92/73 52/93/74
f 55/94/75 56/95/76 54/91/72 53/90/71
f 69/96/77 55/97/78 53/87/69 68/86/68
f 70/98/79 57/99/80 55/97/78 69/96/77
f 57/100/81 58/101/82 56/102/76 55/103/83
f 59/104/84 61/105/85 62/106/86 60/107/87
f 60/107/87 62/106/86 58/101/82 57/100/81
f 71/108/88 60/109/89 57/110/90 70/111/91
f 66/112/70 49/113/70 59/114/70 72/115/70
f 49/113/70 47/116/70 61/117/85 59/114/70
f 72/118/92 59/119/93 60/109/89 71/108/88
f 67/120/94 52/121/95 75/85/67 76/84/66
f 52/122/96 51/123/73 74/79/61 75/78/60
f 80/124/97 71/108/88 70/111/91 78/125/98
f 79/126/99 69/96/77 68/86/68 85/127/100
f 85/127/100 68/86/68 67/89/70 86/128/70
f 86/129/101 67/120/94 76/84/66 84/130/102
f 77/131/70 87/132/70 66/112/70 72/115/70 81/133/70
f 78/134/103 70/98/79 69/96/77 79/126/99
f 83/135/104 65/82/64 73/7/7 82/63/50
f 84/130/102 76/84/66 65/82/64 83/135/104
f 81/136/105 72/118/92 71/108/88 80/124/97
f 51/123/73 90/137/106 97/138/107 74/79/61
f 58/101/82 93/139/108 92/140/109 56/102/76
f 48/80/62 89/141/110 96/69/7 63/6/6
f 62/106/86 95/142/111 93/139/108 58/101/82
f 61/105/85 94/143/112 95/142/111 62/106/86
f 74/79/61 97/138/107 89/141/110 48/80/62
f 54/91/72 91/144/113 90/145/106 51/92/73
f 56/95/76 92/146/109 91/144/113 54/91/72
f 47/116/70 88/147/70 94/148/112 61/117/85
