# Blender v2.82 (sub 7) OBJ File: 'fences.blend'
# www.blender.org
o fence13_linked_Cylinder.005
v 0.327364 0.197240 -0.000000
v 0.250450 1.188653 -0.000000
v 0.231481 0.197240 0.231481
v 0.177095 1.188653 0.186202
v -0.000000 0.197240 0.327364
v -0.000000 1.188653 0.259557
v -0.231481 0.197240 0.231481
v -0.177095 1.188653 0.186202
v -0.327364 0.197240 -0.000000
v -0.250450 1.188653 -0.000000
v 0.240072 1.003978 -0.000000
v 0.169756 1.003978 0.178864
v -0.000000 1.003978 0.254450
v -0.169757 1.003978 0.178864
v -0.240072 1.003978 -0.000000
v 0.195589 0.569426 0.195589
v -0.000000 0.569426 0.276605
v -0.195590 0.569426 0.195589
v -0.276606 0.569426 -0.000000
v 0.276605 0.569426 -0.000000
v 0.303805 0.588076 -0.000000
v 0.214823 0.588076 0.214823
v -0.000000 0.588076 0.303805
v -0.214823 0.588076 0.214823
v -0.303806 0.588076 -0.000000
v 0.221231 1.206348 -0.000000
v 0.156434 1.206348 0.165542
v -0.000000 1.206348 0.230339
v -0.156434 1.206348 0.165542
v -0.221232 1.206348 -0.000000
v -0.000000 1.206348 -0.000000
v -0.242589 0.956582 -0.000000
v -0.171536 0.956582 0.180643
v -0.000000 0.956582 0.251696
v 0.171536 0.956582 0.180644
v 0.242589 0.956582 -0.000000
v -0.237717 1.051807 -0.000000
v -0.168091 1.051807 0.177198
v -0.000000 1.051807 0.254840
v 0.168091 1.051807 0.177198
v 0.237717 1.051807 -0.000000
v 0.175738 1.027893 0.184845
v -0.000000 1.027893 0.262909
v -0.175738 1.027893 0.184845
v -0.248531 1.027893 -0.000000
v 0.248531 1.027893 -0.000000
v 0.247313 0.979728 -0.000000
v -0.247313 0.979728 -0.000000
v -0.174877 0.979728 0.183984
v -0.000000 0.979728 0.261691
v 0.174877 0.979728 0.183984
v 0.327364 0.197240 0.500000
v 0.250450 1.188653 0.500000
v -0.327364 0.197240 0.500000
v -0.250450 1.188653 0.500000
v -0.231481 0.197240 0.268519
v -0.177095 1.188653 0.318048
v -0.000000 0.197240 0.172636
v -0.000000 1.188653 0.244693
v 0.231481 0.197240 0.268519
v 0.177095 1.188653 0.318048
v 0.240072 1.003978 0.500000
v -0.240072 1.003978 0.500000
v -0.169757 1.003978 0.325386
v -0.000000 1.003978 0.251964
v 0.169756 1.003978 0.325386
v -0.276606 0.569426 0.500000
v -0.195590 0.569426 0.304410
v -0.000000 0.569426 0.223395
v 0.195589 0.569426 0.304410
v 0.276605 0.569426 0.500000
v 0.303805 0.588076 0.500000
v -0.303806 0.588076 0.500000
v -0.214823 0.588076 0.285177
v -0.000000 0.588076 0.196194
v 0.214823 0.588076 0.285177
v 0.221231 1.206348 0.500000
v -0.221232 1.206348 0.500000
v -0.156434 1.206348 0.338708
v -0.000000 1.206348 0.273911
v 0.156434 1.206348 0.338708
v -0.000000 1.206348 0.500000
v 0.171536 0.956582 0.323606
v -0.000000 0.956582 0.249447
v -0.171536 0.956582 0.323606
v -0.242589 0.956582 0.500000
v 0.242589 0.956582 0.500000
v 0.168091 1.051807 0.327051
v -0.000000 1.051807 0.251181
v -0.168091 1.051807 0.327051
v -0.237717 1.051807 0.500000
v 0.237717 1.051807 0.500000
v -0.248531 1.027893 0.500000
v -0.175738 1.027893 0.319405
v -0.000000 1.027893 0.243505
v 0.175738 1.027893 0.319405
v 0.248531 1.027893 0.500000
v 0.247313 0.979728 0.500000
v 0.174877 0.979728 0.320266
v -0.000000 0.979728 0.244723
v -0.174877 0.979728 0.320266
v -0.247313 0.979728 0.500000
v -0.221232 1.206348 -0.000000
v 0.303805 0.588076 -0.000000
v 0.214823 0.588076 -0.214823
v -0.214823 0.588076 -0.214823
v -0.303806 0.588076 -0.000000
v -0.276606 0.569426 -0.000000
v 0.276605 0.569426 -0.000000
v 0.195589 0.569426 -0.195590
v -0.195590 0.569426 -0.195590
v 0.240072 1.003978 -0.000000
v 0.169756 1.003978 -0.178864
v -0.169757 1.003978 -0.178864
v -0.240072 1.003978 -0.000000
v 0.250450 1.188653 -0.000000
v 0.327364 0.197240 -0.000000
v 0.177095 1.188653 -0.186203
v 0.231481 0.197240 -0.231481
v -0.177095 1.188653 -0.186203
v -0.231481 0.197240 -0.231481
v -0.250450 1.188653 -0.000000
v -0.327364 0.197240 -0.000000
v -0.156434 1.206348 -0.165542
v 0.156434 1.206348 -0.165542
v 0.221231 1.206348 -0.000000
v -0.000000 1.206348 -0.000000
v 0.242589 0.956582 -0.000000
v 0.171536 0.956582 -0.180644
v -0.171536 0.956582 -0.180644
v -0.242589 0.956582 -0.000000
v 0.237717 1.051807 -0.000000
v 0.168091 1.051807 -0.177199
v -0.168091 1.051807 -0.177199
v -0.237717 1.051807 -0.000000
v -0.175738 1.027893 -0.184846
v 0.175738 1.027893 -0.184846
v 0.248531 1.027893 -0.000000
v -0.248531 1.027893 -0.000000
v -0.247313 0.979728 -0.000000
v 0.247313 0.979728 -0.000000
v 0.174877 0.979728 -0.183985
v -0.174877 0.979728 -0.183985
vt 0.079358 0.192449
vt 0.079358 0.222139
vt 0.112128 0.222139
vt 0.110462 0.192449
vt 0.125702 0.222139
vt 0.123346 0.192449
vt 0.112128 0.222139
vt 0.110462 0.192449
vt 0.079358 0.222139
vt 0.079358 0.192449
vt 0.244558 0.117575
vt 0.244519 0.135828
vt 0.233588 0.135828
vt 0.233588 0.117575
vt 0.249101 0.117575
vt 0.249047 0.135828
vt 0.244558 0.117575
vt 0.244519 0.135828
vt 0.233588 0.117575
vt 0.233588 0.135828
vt 0.079358 0.007043
vt 0.079358 0.087792
vt 0.115550 0.087792
vt 0.122192 0.007043
vt 0.130542 0.087792
vt 0.139934 0.007043
vt 0.115550 0.087792
vt 0.122192 0.007043
vt 0.079358 0.087792
vt 0.079358 0.007043
vt 0.079358 0.091838
vt 0.119109 0.091838
vt 0.135575 0.091838
vt 0.119109 0.091838
vt 0.079358 0.091838
vt 0.108305 0.225979
vt 0.079358 0.225979
vt 0.108305 0.225979
vt 0.120295 0.225979
vt 0.079358 0.225979
vt 0.079358 0.225979
vt 0.111099 0.171789
vt 0.079358 0.171789
vt 0.124247 0.171789
vt 0.111099 0.171789
vt 0.079358 0.171789
vt 0.233781 0.120735
vt 0.233781 0.135856
vt 0.244606 0.135856
vt 0.244659 0.120735
vt 0.249089 0.135856
vt 0.249165 0.120735
vt 0.244606 0.135856
vt 0.244659 0.120735
vt 0.233781 0.135856
vt 0.233781 0.120735
vt 0.244713 0.105614
vt 0.233781 0.105614
vt 0.249241 0.105614
vt 0.244713 0.105614
vt 0.233781 0.105614
vt 0.233588 0.104543
vt 0.244606 0.104543
vt 0.249170 0.104543
vt 0.244606 0.104543
vt 0.233588 0.104543
vt 0.079358 0.192449
vt 0.079358 0.222139
vt 0.046588 0.222139
vt 0.048254 0.192449
vt 0.033014 0.222139
vt 0.035370 0.192449
vt 0.046588 0.222139
vt 0.048254 0.192449
vt 0.079358 0.222139
vt 0.079358 0.192449
vt 0.222618 0.117575
vt 0.222656 0.135828
vt 0.233588 0.135828
vt 0.233588 0.117575
vt 0.218074 0.117575
vt 0.218128 0.135828
vt 0.222618 0.117575
vt 0.222656 0.135828
vt 0.233588 0.117575
vt 0.233588 0.135828
vt 0.079358 0.007043
vt 0.079358 0.087792
vt 0.043165 0.087792
vt 0.036524 0.007043
vt 0.028174 0.087792
vt 0.018781 0.007043
vt 0.043165 0.087792
vt 0.036524 0.007043
vt 0.079358 0.087792
vt 0.079358 0.007043
vt 0.079358 0.091838
vt 0.039606 0.091838
vt 0.023141 0.091838
vt 0.039606 0.091838
vt 0.079358 0.091838
vt 0.050411 0.225979
vt 0.038420 0.225979
vt 0.050411 0.225979
vt 0.079358 0.225979
vt 0.079358 0.225979
vt 0.079358 0.225979
vt 0.047616 0.171789
vt 0.079358 0.171789
vt 0.034468 0.171789
vt 0.047616 0.171789
vt 0.079358 0.171789
vt 0.233781 0.120735
vt 0.233781 0.135856
vt 0.222957 0.135856
vt 0.222903 0.120735
vt 0.218474 0.135856
vt 0.218398 0.120735
vt 0.222957 0.135856
vt 0.222904 0.120735
vt 0.233781 0.135856
vt 0.233781 0.120735
vt 0.222850 0.105614
vt 0.233781 0.105614
vt 0.218322 0.105614
vt 0.222850 0.105614
vt 0.233781 0.105614
vt 0.233588 0.104543
vt 0.222569 0.104543
vt 0.218006 0.104543
vt 0.222569 0.104543
vt 0.233588 0.104543
vt 0.233781 0.105614
vt 0.233781 0.120735
vt 0.244659 0.120735
vt 0.244713 0.105614
vt 0.244606 0.104543
vt 0.244558 0.117575
vt 0.233588 0.117575
vt 0.233588 0.104543
vt 0.079358 0.192449
vt 0.079358 0.222139
vt 0.112128 0.222139
vt 0.110462 0.192449
vt 0.244713 0.105614
vt 0.244659 0.120735
vt 0.233781 0.120735
vt 0.233781 0.105614
vt 0.122192 0.007043
vt 0.115550 0.087792
vt 0.079358 0.087792
vt 0.079358 0.007043
vt 0.079358 0.087792
vt 0.079358 0.091838
vt 0.119109 0.091838
vt 0.115550 0.087792
vt 0.079358 0.171789
vt 0.111099 0.171789
vt 0.233588 0.117575
vt 0.233588 0.135828
vt 0.244519 0.135828
vt 0.244558 0.117575
vt 0.244519 0.135828
vt 0.233588 0.135828
vt 0.079358 0.007043
vt 0.122192 0.007043
vt 0.233781 0.135856
vt 0.244606 0.135856
vt 0.108305 0.225979
vt 0.079358 0.225979
vt 0.079358 0.225979
vt 0.244606 0.135856
vt 0.233781 0.135856
vt 0.110462 0.192449
vt 0.112128 0.222139
vt 0.079358 0.222139
vt 0.079358 0.192449
vt 0.108305 0.225979
vt 0.079358 0.225979
vt 0.119109 0.091838
vt 0.111099 0.171789
vt 0.079358 0.171789
vt 0.079358 0.091838
vt 0.233588 0.104543
vt 0.244606 0.104543
vn 0.9181 0.1629 0.3612
vn 0.8602 0.3815 0.3383
vn 0.6540 0.4111 0.6351
vn 0.7117 0.1701 0.6815
vn 0.0000 0.4176 0.9086
vn 0.0000 0.1666 0.9860
vn -0.6540 0.4111 0.6351
vn -0.7117 0.1701 0.6815
vn -0.8602 0.3815 0.3383
vn -0.9181 0.1629 0.3612
vn -0.7208 0.0150 0.6930
vn -0.7232 -0.0269 0.6901
vn -0.9303 -0.0249 0.3660
vn -0.9298 0.0389 0.3659
vn 0.0000 -0.0038 1.0000
vn 0.0000 -0.0274 0.9996
vn 0.7208 0.0150 0.6930
vn 0.7232 -0.0269 0.6901
vn 0.9298 0.0389 0.3659
vn 0.9303 -0.0249 0.3660
vn 0.9166 0.1250 0.3797
vn 0.8326 -0.4334 0.3449
vn 0.6272 -0.4617 0.6272
vn 0.7006 0.1351 0.7006
vn 0.0000 -0.4617 0.8870
vn 0.0000 0.1351 0.9908
vn -0.6272 -0.4617 0.6272
vn -0.7006 0.1351 0.7006
vn -0.8326 -0.4334 0.3449
vn -0.9166 0.1250 0.3797
vn 0.8741 -0.3299 0.3565
vn 0.6638 -0.3578 0.6567
vn 0.0000 -0.3620 0.9322
vn -0.6638 -0.3578 0.6567
vn -0.8741 -0.3299 0.3565
vn -0.2354 0.9442 0.2302
vn -0.3251 0.9370 0.1277
vn 0.2354 0.9442 0.2302
vn 0.0000 0.9444 0.3287
vn 0.3251 0.9370 0.1277
vn 0.0000 1.0000 0.0000
vn -0.7132 -0.0537 0.6988
vn -0.9286 -0.0200 0.3706
vn 0.0000 -0.0908 0.9958
vn 0.7132 -0.0537 0.6988
vn 0.9286 -0.0200 0.3706
vn 0.9300 0.0362 0.3659
vn 0.7205 0.0266 0.6929
vn 0.0000 0.0196 0.9998
vn -0.7205 0.0266 0.6929
vn -0.9300 0.0362 0.3659
vn -0.9151 0.1631 -0.3687
vn -0.8579 0.3802 -0.3455
vn -0.6511 0.4097 -0.6388
vn -0.7065 0.1667 -0.6878
vn 0.0000 0.4148 -0.9099
vn 0.0000 0.1584 -0.9874
vn 0.6511 0.4097 -0.6388
vn 0.7065 0.1667 -0.6878
vn 0.8579 0.3802 -0.3455
vn 0.9151 0.1631 -0.3687
vn 0.7147 0.0419 -0.6981
vn 0.7162 -0.0269 -0.6973
vn 0.9272 -0.0249 -0.3735
vn 0.9268 0.0389 -0.3734
vn 0.0000 0.0421 -0.9991
vn 0.0000 -0.0272 -0.9996
vn -0.7147 0.0419 -0.6981
vn -0.7162 -0.0269 -0.6973
vn -0.9268 0.0389 -0.3734
vn -0.9272 -0.0249 -0.3735
vn -0.9166 0.1250 -0.3797
vn -0.8326 -0.4334 -0.3449
vn -0.6272 -0.4617 -0.6272
vn -0.7006 0.1351 -0.7006
vn 0.0000 -0.4617 -0.8870
vn 0.0000 0.1351 -0.9908
vn 0.6272 -0.4617 -0.6272
vn 0.7006 0.1351 -0.7006
vn 0.8326 -0.4334 -0.3449
vn 0.9166 0.1250 -0.3797
vn -0.8736 -0.3287 -0.3588
vn -0.6642 -0.3555 -0.6576
vn 0.0000 -0.3591 -0.9333
vn 0.6642 -0.3555 -0.6576
vn 0.8736 -0.3287 -0.3588
vn -0.2340 0.9443 -0.2312
vn 0.0000 0.9444 -0.3287
vn 0.2340 0.9443 -0.2312
vn -0.3254 0.9364 -0.1310
vn 0.3254 0.9364 -0.1310
vn 0.7127 -0.0243 -0.7010
vn 0.9264 -0.0190 -0.3761
vn 0.0000 -0.0283 -0.9996
vn -0.7127 -0.0243 -0.7010
vn -0.9264 -0.0190 -0.3761
vn -0.9269 0.0361 -0.3734
vn -0.7147 0.0248 -0.6989
vn 0.0000 0.0165 -0.9998
vn 0.7147 0.0248 -0.6989
vn 0.9269 0.0361 -0.3734
vn -0.9303 -0.0249 -0.3660
vn -0.9300 0.0362 -0.3659
vn -0.9300 0.0358 -0.3659
vn -0.9303 -0.0250 -0.3660
vn 0.9286 -0.0212 -0.3705
vn 0.9298 0.0387 -0.3659
vn 0.9298 0.0389 -0.3659
vn 0.9286 -0.0200 -0.3706
vn -0.9181 0.1629 -0.3612
vn -0.8602 0.3815 -0.3383
vn -0.8625 0.3757 -0.3392
vn -0.9180 0.1636 -0.3612
vn 0.9303 -0.0250 -0.3660
vn 0.9300 0.0358 -0.3659
vn 0.9300 0.0362 -0.3659
vn 0.9303 -0.0249 -0.3660
vn -0.8741 -0.3299 -0.3565
vn -0.8754 -0.3258 -0.3570
vn -0.9286 -0.0200 -0.3706
vn -0.9286 -0.0212 -0.3705
vn -0.9298 0.0389 -0.3659
vn -0.9298 0.0387 -0.3659
vn -0.3343 0.9333 -0.1313
vn -0.3251 0.9370 -0.1277
vn 0.9180 0.1636 -0.3612
vn 0.9181 0.1629 -0.3612
vn 0.8625 0.3757 -0.3392
vn 0.8602 0.3815 -0.3383
vn 0.3343 0.9333 -0.1313
vn 0.3251 0.9370 -0.1277
vn 0.8754 -0.3258 -0.3570
vn 0.8741 -0.3299 -0.3565
s 1
f 41/1/1 2/2/2 4/3/3 40/4/4
f 40/4/4 4/3/3 6/5/5 39/6/6
f 39/6/6 6/5/5 8/7/7 38/8/8
f 38/8/8 8/7/7 10/9/9 37/10/10
f 49/11/11 14/12/12 15/13/13 48/14/14
f 50/15/15 13/16/16 14/12/12 49/11/11
f 51/17/17 12/18/18 13/16/16 50/15/15
f 47/19/19 11/20/20 12/18/18 51/17/17
f 1/21/21 20/22/22 16/23/23 3/24/24
f 3/24/24 16/23/23 17/25/25 5/26/26
f 5/26/26 17/25/25 18/27/27 7/28/28
f 7/28/28 18/27/27 19/29/29 9/30/30
f 20/22/22 21/31/31 22/32/32 16/23/23
f 16/23/23 22/32/32 23/33/33 17/25/25
f 17/25/25 23/33/33 24/34/34 18/27/27
f 18/27/27 24/34/34 25/35/35 19/29/29
f 10/9/9 8/7/7 29/36/36 30/37/37
f 6/5/5 4/3/3 27/38/38 28/39/39
f 4/3/3 2/2/2 26/40/40 27/38/38
f 8/7/7 6/5/5 28/39/39 29/36/36
f 27/38/38 26/40/40 31/41/41
f 30/37/37 29/36/36 31/41/41
f 28/39/39 27/38/38 31/41/41
f 29/36/36 28/39/39 31/41/41
f 24/34/34 33/42/42 32/43/43 25/35/35
f 23/33/33 34/44/44 33/42/42 24/34/34
f 22/32/32 35/45/45 34/44/44 23/33/33
f 21/31/31 36/46/46 35/45/45 22/32/32
f 46/47/47 41/48/1 40/49/4 42/50/48
f 42/50/48 40/49/4 39/51/6 43/52/49
f 43/52/49 39/51/6 38/53/8 44/54/50
f 44/54/50 38/53/8 37/55/10 45/56/51
f 14/57/12 44/54/50 45/56/51 15/58/13
f 13/59/16 43/52/49 44/54/50 14/57/12
f 12/60/18 42/50/48 43/52/49 13/59/16
f 11/61/20 46/47/47 42/50/48 12/60/18
f 36/62/46 47/19/19 51/17/17 35/63/45
f 35/63/45 51/17/17 50/15/15 34/64/44
f 34/64/44 50/15/15 49/11/11 33/65/42
f 33/65/42 49/11/11 48/14/14 32/66/43
f 91/67/52 55/68/53 57/69/54 90/70/55
f 90/70/55 57/69/54 59/71/56 89/72/57
f 89/72/57 59/71/56 61/73/58 88/74/59
f 88/74/59 61/73/58 53/75/60 92/76/61
f 99/77/62 66/78/63 62/79/64 98/80/65
f 100/81/66 65/82/67 66/78/63 99/77/62
f 101/83/68 64/84/69 65/82/67 100/81/66
f 102/85/70 63/86/71 64/84/69 101/83/68
f 54/87/72 67/88/73 68/89/74 56/90/75
f 56/90/75 68/89/74 69/91/76 58/92/77
f 58/92/77 69/91/76 70/93/78 60/94/79
f 60/94/79 70/93/78 71/95/80 52/96/81
f 67/88/73 73/97/82 74/98/83 68/89/74
f 68/89/74 74/98/83 75/99/84 69/91/76
f 69/91/76 75/99/84 76/100/85 70/93/78
f 70/93/78 76/100/85 72/101/86 71/95/80
f 59/71/56 57/69/54 79/102/87 80/103/88
f 61/73/58 59/71/56 80/103/88 81/104/89
f 57/69/54 55/68/53 78/105/90 79/102/87
f 53/75/60 61/73/58 81/104/89 77/106/91
f 77/106/91 81/104/89 82/107/41
f 80/103/88 79/102/87 82/107/41
f 81/104/89 80/103/88 82/107/41
f 79/102/87 78/105/90 82/107/41
f 76/100/85 83/108/92 87/109/93 72/101/86
f 75/99/84 84/110/94 83/108/92 76/100/85
f 74/98/83 85/111/95 84/110/94 75/99/84
f 73/97/82 86/112/96 85/111/95 74/98/83
f 93/113/97 91/114/52 90/115/55 94/116/98
f 94/116/98 90/115/55 89/117/57 95/118/99
f 95/118/99 89/117/57 88/119/59 96/120/100
f 96/120/100 88/119/59 92/121/61 97/122/101
f 66/123/63 96/120/100 97/122/101 62/124/64
f 65/125/67 95/118/99 96/120/100 66/123/63
f 64/126/69 94/116/98 95/118/99 65/125/67
f 63/127/71 93/113/97 94/116/98 64/126/69
f 86/128/96 102/85/70 101/83/68 85/129/95
f 85/129/95 101/83/68 100/81/66 84/130/94
f 84/130/94 100/81/66 99/77/62 83/131/92
f 83/131/92 99/77/62 98/80/65 87/132/93
f 115/133/102 139/134/103 136/135/104 114/136/105
f 129/137/106 142/138/107 141/139/108 128/140/109
f 135/141/110 122/142/111 120/143/112 134/144/113
f 113/145/114 137/146/115 138/147/116 112/148/117
f 119/149/81 110/150/80 109/151/80 117/152/81
f 108/153/73 107/154/118 106/155/119 111/156/73
f 107/154/118 131/157/120 130/158/121 106/155/119
f 140/159/122 115/160/102 114/161/105 143/162/123
f 142/138/107 113/163/114 112/164/117 141/139/108
f 123/165/72 108/153/73 111/156/73 121/166/72
f 139/134/103 135/167/110 134/168/113 136/135/104
f 124/169/124 103/170/125 127/171/41
f 137/146/115 133/172/126 132/173/127 138/147/116
f 133/174/126 118/175/128 116/176/129 132/177/127
f 116/176/129 118/175/128 125/178/130 126/179/131
f 105/180/132 129/181/106 128/182/109 104/183/133
f 131/184/120 140/159/122 143/162/123 130/185/121
f 126/179/131 125/178/130 127/171/41
f 110/150/80 105/180/132 104/183/133 109/151/80
f 120/143/112 122/142/111 103/170/125 124/169/124
