# Blender v2.82 (sub 7) OBJ File: ''
# www.blender.org
o Fence1_linked_Plane
v 0.044711 0.812498 0.248240
v 0.049032 0.691644 0.400125
v 0.049032 0.691644 0.080025
v 0.019316 -0.002450 0.334797
v 0.016069 -0.002450 0.161682
v -0.039970 0.812498 0.248240
v -0.044377 0.691644 0.080025
v -0.042552 0.691644 0.400125
v -0.025510 -0.002450 0.161682
v -0.027234 -0.002450 0.334797
v -0.018596 0.538685 0.500000
v -0.018596 0.538685 -0.000000
v -0.018596 0.334698 -0.000000
v -0.018596 0.334698 0.500000
v 0.018595 0.334698 0.000000
v 0.018595 0.334698 0.500000
v 0.018595 0.538685 0.500000
v 0.018595 0.538685 0.000000
vt 0.034168 0.994576
vt 0.005369 0.966280
vt 0.071574 0.973202
vt 0.033898 0.824002
vt 0.069712 0.827716
vt 0.114209 0.972962
vt 0.089443 0.958164
vt 0.134203 0.953795
vt 0.079370 0.827214
vt 0.120155 0.825267
vt 0.151470 0.960429
vt 0.130570 0.824002
vt 0.119554 0.992040
vt 0.149113 0.770405
vt 0.242943 0.770405
vt 0.242943 0.810006
vt 0.149113 0.810006
vt 0.242943 0.817226
vt 0.149113 0.817226
vt 0.149113 0.763185
vt 0.242943 0.763185
vt 0.149113 0.856826
vt 0.242943 0.856826
vn 0.9994 0.0357 0.0000
vn 0.9990 -0.0452 -0.0066
vn -0.9996 0.0285 0.0057
vn -0.9997 -0.0246 0.0002
vn -0.0000 -0.0937 0.9956
vn 0.0000 0.8121 -0.5835
vn 0.0000 -0.1168 -0.9932
vn 0.0000 0.7825 0.6226
vn -1.0000 -0.0000 -0.0000
vn 0.0000 -1.0000 -0.0000
vn 0.0000 1.0000 0.0000
vn 1.0000 0.0000 0.0000
s 1
f 1/1/1 2/2/1 3/3/1
f 2/2/2 4/4/2 5/5/2 3/3/2
f 6/6/3 7/7/3 8/8/3
f 8/8/4 7/7/4 9/9/4 10/10/4
f 2/11/5 8/8/5 10/10/5 4/12/5
f 3/3/6 7/7/6 6/6/6 1/13/6
f 5/5/7 9/9/7 7/7/7 3/3/7
f 1/13/8 6/6/8 8/8/8 2/11/8
f 11/14/9 12/15/9 13/16/9 14/17/9
f 15/18/10 16/19/10 14/17/10 13/16/10
f 17/20/11 18/21/11 12/15/11 11/14/11
f 17/22/12 16/19/12 15/18/12 18/23/12
