# Blender v2.81 (sub 16) OBJ File: 'fences.blend'
# www.blender.org
o fence6_linked_Cube.004
v -0.039071 1.074842 0.460929
v 0.039071 1.074842 0.460929
v -0.059729 0.000000 0.447320
v -0.052680 -0.000000 0.440271
v -0.051436 1.041263 0.441515
v -0.058485 1.041263 0.448564
v 0.052680 0.000000 0.440271
v 0.059729 0.000000 0.447320
v 0.058485 1.041263 0.448564
v 0.051436 1.041263 0.441515
v -0.032528 0.796180 0.000000
v -0.027606 0.803229 0.000000
v -0.026928 0.802259 0.460668
v -0.031850 0.795210 0.460668
v 0.027606 0.803229 0.000000
v 0.032527 0.796180 0.000000
v 0.031850 0.795210 0.460668
v 0.026928 0.802259 0.460668
v -0.027606 0.710056 0.000000
v -0.032528 0.717105 0.000000
v -0.031850 0.718075 0.460668
v -0.026928 0.711026 0.460668
v 0.032527 0.717105 0.000000
v 0.027606 0.710056 0.000000
v 0.026928 0.711026 0.460668
v 0.031850 0.718075 0.460668
v -0.032528 0.992061 0.000000
v -0.027606 0.999110 0.000000
v -0.026928 0.998140 0.460668
v -0.031850 0.991090 0.460668
v 0.027606 0.999110 0.000000
v 0.032527 0.992061 0.000000
v 0.031850 0.991090 0.460668
v 0.026928 0.998140 0.460668
v -0.027606 0.905937 0.000000
v -0.032528 0.912986 0.000000
v -0.031850 0.913956 0.460668
v -0.026928 0.906907 0.460668
v 0.032527 0.912986 0.000000
v 0.027606 0.905937 0.000000
v 0.026928 0.906907 0.460668
v 0.031850 0.913956 0.460668
v -0.032528 0.296303 0.000000
v -0.027606 0.303352 0.000000
v -0.026928 0.302382 0.460668
v -0.031850 0.295333 0.460668
v 0.027606 0.303352 0.000000
v 0.032527 0.296303 0.000000
v 0.031850 0.295333 0.460668
v 0.026928 0.302382 0.460668
v -0.027606 0.210179 0.000000
v -0.032528 0.217228 0.000000
v -0.031850 0.218199 0.460668
v -0.026928 0.211150 0.460668
v 0.032527 0.217228 0.000000
v 0.027606 0.210179 0.000000
v 0.026928 0.211150 0.460668
v 0.031850 0.218199 0.460668
v -0.020022 0.733877 0.243164
v -0.015792 0.733877 0.250213
v -0.015375 0.273172 0.249518
v -0.019605 0.273172 0.242469
v 0.015791 0.733877 0.250213
v 0.020022 0.733877 0.243164
v 0.019605 0.273172 0.242469
v 0.015374 0.273172 0.249518
v -0.015792 0.733877 0.183490
v -0.020022 0.733877 0.190539
v -0.019605 0.273172 0.191234
v -0.015375 0.273172 0.184185
v 0.020022 0.733877 0.190539
v 0.015791 0.733877 0.183490
v 0.015374 0.273172 0.184185
v 0.019605 0.273172 0.191234
v 0.039071 1.074842 0.500000
v -0.039071 1.074842 0.500000
v 0.059729 0.000000 0.500000
v -0.059729 0.000000 0.500000
v -0.058485 1.041263 0.500000
v 0.058485 1.041263 0.500000
vt 0.321117 0.715518
vt 0.373746 0.715518
vt 0.373746 0.738661
vt 0.321117 0.738727
vt 0.373746 0.610259
vt 0.373746 0.610259
vt 0.373746 0.587116
vt 0.373746 0.583944
vt 0.373746 0.580772
vt 0.373746 0.534486
vt 0.373746 0.531314
vt 0.321117 0.534420
vt 0.321117 0.580838
vt 0.400061 0.636573
vt 0.426376 0.636573
vt 0.426376 0.689203
vt 0.400061 0.689203
vt 0.321117 0.535296
vt 0.373746 0.535381
vt 0.373746 0.579878
vt 0.321117 0.579962
vt 0.321117 0.693185
vt 0.373746 0.693269
vt 0.373746 0.737766
vt 0.321117 0.737851
vt 0.321117 0.640555
vt 0.373746 0.640640
vt 0.373746 0.685137
vt 0.321117 0.685221
vt 0.321117 0.535296
vt 0.373746 0.535381
vt 0.373746 0.579878
vt 0.321117 0.579962
vt 0.321117 0.587926
vt 0.373746 0.588010
vt 0.373746 0.632507
vt 0.321117 0.632592
vt 0.321117 0.693185
vt 0.373746 0.693269
vt 0.373746 0.737766
vt 0.321117 0.737851
vt 0.321117 0.640555
vt 0.373746 0.640640
vt 0.373746 0.685137
vt 0.321117 0.685221
vt 0.321117 0.535296
vt 0.373746 0.535381
vt 0.373746 0.579878
vt 0.321117 0.579962
vt 0.321117 0.587926
vt 0.373746 0.588010
vt 0.373746 0.632507
vt 0.321117 0.632592
vt 0.321117 0.693185
vt 0.373746 0.693269
vt 0.373746 0.737766
vt 0.321117 0.737851
vt 0.321117 0.640555
vt 0.373746 0.640640
vt 0.373746 0.685137
vt 0.321117 0.685221
vt 0.321117 0.536874
vt 0.373746 0.536993
vt 0.373746 0.578266
vt 0.321117 0.578384
vt 0.321117 0.587926
vt 0.373746 0.588010
vt 0.373746 0.632507
vt 0.321117 0.632592
vt 0.321117 0.694763
vt 0.373746 0.694881
vt 0.373746 0.736154
vt 0.321117 0.736272
vt 0.321117 0.642133
vt 0.373746 0.642252
vt 0.373746 0.683525
vt 0.321117 0.683643
vt 0.321117 0.589504
vt 0.373746 0.589622
vt 0.373746 0.630895
vt 0.321117 0.631013
vt 0.373746 0.531314
vt 0.373746 0.583944
vt 0.373746 0.741832
vt 0.321117 0.741832
vt 0.321117 0.587049
vt 0.373746 0.741832
vt 0.321119 0.741832
vt 0.373746 0.741832
vt 0.321119 0.741832
vt 0.373746 0.741832
vt 0.321119 0.741832
vt 0.373746 0.741832
vt 0.321118 0.741832
vt 0.321117 0.610259
vt 0.373746 0.741832
vt 0.373746 0.715518
vn -1.0000 0.0012 -0.0000
vn -0.9657 0.2597 -0.0000
vn -0.8850 0.2758 -0.3752
vn -0.9238 0.0016 -0.3828
vn 0.8657 0.5005 0.0000
vn 0.9657 0.2597 0.0000
vn 0.8850 0.2758 -0.3752
vn 0.5507 0.6273 -0.5507
vn 0.3752 0.2758 -0.8850
vn -0.3752 0.2758 -0.8850
vn -0.5507 0.6273 -0.5507
vn -0.3828 0.0016 -0.9238
vn 0.3828 0.0016 -0.9238
vn 0.0000 1.0000 -0.0000
vn -0.4624 0.8867 0.0025
vn -0.4623 0.8867 0.0025
vn 0.4623 0.8867 0.0025
vn 0.4624 0.8867 0.0025
vn -0.9538 -0.3004 0.0020
vn -0.9540 -0.2998 0.0020
vn -0.9540 0.2998 0.0020
vn -0.9538 0.3004 0.0020
vn 0.4624 -0.8867 0.0025
vn 0.4623 -0.8867 0.0025
vn -0.4623 -0.8867 0.0025
vn -0.4624 -0.8867 0.0025
vn 0.9538 0.3004 0.0020
vn 0.9540 0.2998 0.0020
vn 0.9540 -0.2998 0.0020
vn 0.9538 -0.3004 0.0020
vn -0.4927 -0.0018 0.8702
vn -0.4926 -0.0018 0.8702
vn 0.4926 -0.0018 0.8702
vn 0.4927 -0.0018 0.8702
vn -0.9636 -0.0013 -0.2672
vn -0.9638 -0.0013 -0.2668
vn -0.9638 -0.0013 0.2668
vn -0.9636 -0.0013 0.2672
vn 0.4927 -0.0018 -0.8702
vn 0.4926 -0.0018 -0.8702
vn -0.4926 -0.0018 -0.8702
vn -0.4927 -0.0018 -0.8702
vn 0.9636 -0.0013 0.2672
vn 0.9638 -0.0013 0.2668
vn 0.9638 -0.0013 -0.2668
vn 0.9636 -0.0013 -0.2672
vn 0.9238 0.0016 -0.3828
vn 1.0000 0.0012 0.0000
vn -0.8657 0.5005 0.0000
vn 0.0000 0.0000 -1.0000
s 1
f 78/1/1 79/2/2 6/3/3 3/4/4
f 75/5/5 80/6/6 9/7/7 2/8/8
f 2/8/8 10/9/9 5/10/10 1/11/11
f 4/12/12 5/10/10 10/9/9 7/13/13
f 75/14/14 2/15/14 1/16/14 76/17/14
f 12/18/15 13/19/16 18/20/17 15/21/18
f 20/22/19 21/23/20 14/24/21 11/25/22
f 24/26/23 25/27/24 22/28/25 19/29/26
f 28/30/15 29/31/16 34/32/17 31/33/18
f 16/34/27 17/35/28 26/36/29 23/37/30
f 36/38/19 37/39/20 30/40/21 27/41/22
f 40/42/23 41/43/24 38/44/25 35/45/26
f 44/46/15 45/47/16 50/48/17 47/49/18
f 32/50/27 33/51/28 42/52/29 39/53/30
f 52/54/19 53/55/20 46/56/21 43/57/22
f 56/58/23 57/59/24 54/60/25 51/61/26
f 60/62/31 61/63/32 66/64/33 63/65/34
f 48/66/27 49/67/28 58/68/29 55/69/30
f 68/70/35 69/71/36 62/72/37 59/73/38
f 72/74/39 73/75/40 70/76/41 67/77/42
f 64/78/43 65/79/44 74/80/45 71/81/46
f 5/10/10 6/82/3 1/11/11
f 9/7/7 10/83/9 2/8/8
f 3/4/4 6/3/3 5/84/10 4/85/12
f 9/7/7 8/86/47 7/13/13 10/9/9
f 11/25/22 14/24/21 13/87/16 12/88/15
f 17/35/28 16/34/27 15/21/18 18/20/17
f 25/27/24 24/26/23 23/37/30 26/36/29
f 21/23/20 20/22/19 19/29/26 22/28/25
f 27/41/22 30/40/21 29/89/16 28/90/15
f 33/51/28 32/50/27 31/33/18 34/32/17
f 41/43/24 40/42/23 39/53/30 42/52/29
f 37/39/20 36/38/19 35/45/26 38/44/25
f 43/57/22 46/56/21 45/91/16 44/92/15
f 49/67/28 48/66/27 47/49/18 50/48/17
f 57/59/24 56/58/23 55/69/30 58/68/29
f 53/55/20 52/54/19 51/61/26 54/60/25
f 59/73/38 62/72/37 61/93/32 60/94/31
f 65/79/44 64/78/43 63/65/34 66/64/33
f 73/75/40 72/74/39 71/81/46 74/80/45
f 69/71/36 68/70/35 67/77/42 70/76/41
f 8/86/47 9/7/7 80/6/6 77/95/48
f 1/96/11 6/3/3 79/2/2 76/97/49
f 28/30/50 31/33/50 32/50/50 27/41/50
f 40/42/50 35/45/50 36/38/50 39/53/50
f 27/41/50 32/50/50 39/53/50 36/38/50
f 12/18/50 15/21/50 16/34/50 11/25/50
f 24/26/50 19/29/50 20/22/50 23/37/50
f 11/25/50 16/34/50 23/37/50 20/22/50
f 44/46/50 47/49/50 48/66/50 43/57/50
f 56/58/50 51/61/50 52/54/50 55/69/50
f 43/57/50 48/66/50 55/69/50 52/54/50
