# Blender v2.81 (sub 16) OBJ File: 'fences.blend'
# www.blender.org
o fence8_linked_Cube.007
v -0.115487 0.568942 0.000000
v -0.115487 0.568942 0.500000
v -0.115487 0.000000 0.500000
v -0.115487 1.201971 0.500000
v -0.115487 0.000000 0.000000
v -0.115487 1.198410 0.000000
v -0.115487 0.789861 0.000000
v -0.115487 0.789861 0.500000
v -0.115487 0.994136 0.000000
v -0.115487 0.994136 0.500000
v -0.115487 0.354076 0.500000
v -0.115487 0.354076 0.000000
v -0.115487 0.122095 0.500000
v -0.115487 0.122095 0.000000
v -0.115487 0.568942 0.174710
v -0.115487 0.000000 0.174710
v -0.115487 1.201971 0.174710
v -0.115487 0.789861 0.174710
v -0.115487 0.994136 0.174710
v -0.115487 0.354076 0.174710
v -0.115487 0.122095 0.174710
v -0.115487 0.000000 0.353675
v -0.115487 1.201971 0.367803
v -0.115487 1.201971 0.342310
v -0.115487 1.201971 0.012423
v -0.115487 0.568942 0.353675
v -0.115487 1.198410 0.353675
v -0.115487 0.789861 0.353675
v -0.115487 0.994136 0.353675
v -0.115487 0.354076 0.353675
v -0.115487 0.122095 0.353675
v -0.127526 0.336442 0.173851
v -0.127526 0.336442 0.010093
v -0.127526 0.139729 0.010093
v -0.127526 0.139729 0.173851
v -0.127526 0.336442 0.344441
v -0.127526 0.139729 0.344441
v -0.127526 0.585103 0.172331
v -0.127526 0.585103 0.020739
v -0.127526 0.773701 0.020739
v -0.127526 0.773701 0.172331
v -0.127526 0.585103 0.335316
v -0.127526 0.773701 0.335316
v -0.127526 1.191769 0.173653
v -0.127526 1.191769 0.012423
v -0.127526 1.000777 0.012423
v -0.127526 1.000777 0.173653
v -0.127526 1.191769 0.342310
v -0.127526 1.000777 0.342310
v -0.127526 0.982927 -0.010580
v -0.127526 0.801070 -0.010580
v -0.127526 0.801070 0.158999
v -0.127526 0.982927 0.158999
v -0.127526 0.554716 0.155111
v -0.127526 0.554716 0.000000
v -0.127526 0.368302 0.000000
v -0.127526 0.368302 0.155111
v -0.127526 0.979608 0.477070
v -0.127526 0.804389 0.477070
v -0.127526 0.804389 0.352365
v -0.127526 0.804389 0.198951
v -0.127526 0.979608 0.352365
v -0.127526 0.979608 0.198951
v -0.127526 0.550648 0.475773
v -0.127526 0.372370 0.475773
v -0.127526 0.550648 0.352291
v -0.127526 0.550648 0.200322
v -0.127526 0.372370 0.352291
v -0.127526 0.372370 0.200322
v -0.127526 0.771882 0.500000
v -0.127526 0.586922 0.500000
v -0.127526 1.186999 0.500000
v -0.127526 1.005548 0.500000
v -0.127526 0.336649 0.500000
v -0.127526 0.139521 0.500000
v -0.127526 0.586922 0.366849
v -0.127526 1.186999 0.367803
v -0.127526 0.771882 0.366849
v -0.127526 1.005548 0.367803
v -0.127526 0.336649 0.369515
v -0.127526 0.139521 0.369515
v 0.115487 0.568942 0.000000
v 0.115487 0.568942 0.500000
v 0.115487 0.000000 0.500000
v 0.115487 1.201971 0.500000
v 0.115487 0.000000 0.000000
v 0.115487 1.198410 0.000000
v 0.115487 0.789861 0.000000
v 0.115487 0.789861 0.500000
v 0.115487 0.994136 0.000000
v 0.115487 0.994136 0.500000
v 0.115487 0.354076 0.500000
v 0.115487 0.354076 0.000000
v 0.115487 0.122095 0.500000
v 0.115487 0.122095 0.000000
v 0.115487 0.568942 0.174710
v 0.115487 0.000000 0.174710
v 0.115487 1.201971 0.174710
v 0.115487 0.789861 0.174710
v 0.115487 0.994136 0.174710
v 0.115487 0.354076 0.174710
v 0.115487 0.122095 0.174710
v -0.000000 1.201971 0.367803
v 0.115487 0.000000 0.353675
v 0.115487 1.201971 0.367803
v -0.000000 1.201971 0.342310
v 0.115487 1.201971 0.342310
v 0.115487 1.201971 0.012423
v 0.115487 0.568942 0.353675
v -0.000000 1.201971 0.012423
v 0.115487 1.198410 0.353675
v 0.115487 0.789861 0.353675
v 0.115487 0.994136 0.353675
v 0.115487 0.354076 0.353675
v 0.115487 0.122095 0.353675
v 0.127526 0.336442 0.173851
v 0.127526 0.336442 0.010093
v 0.127526 0.139729 0.010093
v 0.127526 0.139729 0.173851
v 0.127526 0.336442 0.344441
v 0.127526 0.139729 0.344441
v 0.127526 0.585103 0.172331
v 0.127526 0.585103 0.020739
v 0.127526 0.773701 0.020739
v 0.127526 0.773701 0.172331
v 0.127526 0.585103 0.335316
v 0.127526 0.773701 0.335316
v 0.127526 1.191769 0.173653
v 0.127526 1.191769 0.012423
v 0.127526 1.000777 0.012423
v 0.127526 1.000777 0.173653
v 0.127526 1.191769 0.342310
v 0.127526 1.000777 0.342310
v 0.127526 0.982927 -0.010580
v 0.127526 0.801070 -0.010580
v 0.127526 0.801070 0.158999
v 0.127526 0.982927 0.158999
v 0.127526 0.554716 0.155111
v 0.127526 0.554716 0.000000
v 0.127526 0.368302 0.000000
v 0.127526 0.368302 0.155111
v 0.127526 0.979608 0.477070
v 0.127526 0.804389 0.477070
v 0.127526 0.804389 0.352365
v 0.127526 0.804389 0.198951
v 0.127526 0.979608 0.352365
v 0.127526 0.979608 0.198951
v 0.127526 0.550648 0.475773
v 0.127526 0.372370 0.475773
v 0.127526 0.550648 0.352291
v 0.127526 0.550648 0.200322
v 0.127526 0.372370 0.352291
v 0.127526 0.372370 0.200322
v 0.127526 0.771882 0.500000
v 0.127526 0.586922 0.500000
v 0.127526 1.186999 0.500000
v 0.127526 1.005548 0.500000
v 0.127526 0.336649 0.500000
v 0.127526 0.139521 0.500000
v 0.127526 0.586922 0.366849
v 0.127526 1.186999 0.367803
v 0.127526 0.771882 0.366849
v 0.127526 1.005548 0.367803
v 0.127526 0.336649 0.369515
v 0.127526 0.139521 0.369515
v -0.000000 1.201971 0.500000
v 0.000000 1.198410 0.000000
v -0.000000 1.201971 0.174710
v -0.000000 1.198410 0.353675
v 0.000000 0.994136 0.000000
v 0.000000 0.789861 0.000000
v 0.000000 0.568942 0.000000
v 0.000000 0.354076 0.000000
v 0.000000 0.122095 0.000000
v 0.000000 0.000000 0.000000
v 0.000000 0.982927 -0.010580
v 0.000000 0.801070 -0.010580
v 0.000000 0.554716 0.000000
v 0.000000 0.368302 0.000000
vt 0.938099 0.615701
vt 0.886801 0.615532
vt 0.886801 0.648105
vt 0.938099 0.648105
vt 0.873701 0.576222
vt 0.873701 0.654845
vt 0.865980 0.647080
vt 0.865980 0.584327
vt 0.991385 0.573950
vt 0.991385 0.648105
vt 0.980060 0.632539
vt 0.980060 0.584661
vt 0.823872 0.577620
vt 0.872446 0.577620
vt 0.866570 0.583779
vt 0.823872 0.583779
vt 0.866570 0.648275
vt 0.823872 0.648275
vt 0.873837 0.655090
vt 0.819490 0.655090
vt 0.819490 0.647461
vt 0.865971 0.647461
vt 0.774904 0.508098
vt 0.774904 0.524290
vt 0.751735 0.524290
vt 0.751735 0.508098
vt 0.800253 0.508098
vt 0.800253 0.524290
vt 0.763648 0.655090
vt 0.767767 0.647461
vt 0.874306 0.661115
vt 0.874306 0.740181
vt 0.863741 0.731763
vt 0.863741 0.671483
vt 0.878413 0.662623
vt 0.936276 0.662623
vt 0.936276 0.670069
vt 0.887430 0.670069
vt 0.876311 0.573950
vt 0.938099 0.573950
vt 0.938099 0.584661
vt 0.886801 0.584661
vt 0.818019 0.576222
vt 0.818019 0.584327
vt 0.991385 0.615290
vt 0.980060 0.615330
vt 0.980060 0.648105
vt 0.938099 0.632539
vt 0.922169 0.618786
vt 0.888997 0.618786
vt 0.888997 0.647079
vt 0.922169 0.647079
vt 0.763868 0.576223
vt 0.796048 0.576223
vt 0.796048 0.584588
vt 0.769193 0.584588
vt 0.796048 0.654310
vt 0.763867 0.654310
vt 0.769193 0.645828
vt 0.796048 0.645828
vt 0.988009 0.741397
vt 0.936276 0.741397
vt 0.936276 0.729119
vt 0.981527 0.729119
vt 0.824921 0.661115
vt 0.824921 0.671483
vt 0.764052 0.663580
vt 0.801583 0.663580
vt 0.801583 0.669525
vt 0.770181 0.669525
vt 0.818043 0.508098
vt 0.818043 0.524290
vt 0.886801 0.632539
vt 0.876311 0.648105
vt 0.876311 0.615452
vt 0.875326 0.618786
vt 0.875326 0.644754
vt 0.888997 0.638849
vt 0.819490 0.583799
vt 0.767767 0.583799
vt 0.865971 0.583799
vt 0.763603 0.576759
vt 0.819490 0.576759
vt 0.873837 0.576759
vt 0.818019 0.647080
vt 0.771886 0.647080
vt 0.771886 0.584327
vt 0.818019 0.654845
vt 0.764103 0.654845
vt 0.764193 0.576222
vt 0.864750 0.584697
vt 0.864750 0.645811
vt 0.811229 0.645811
vt 0.811229 0.584082
vt 0.873824 0.656840
vt 0.810980 0.656854
vt 0.811229 0.574854
vt 0.873824 0.574854
vt 0.872446 0.653276
vt 0.824921 0.731763
vt 0.774164 0.731763
vt 0.774164 0.671483
vt 0.823872 0.653276
vt 0.824921 0.740181
vt 0.762379 0.740181
vt 0.762379 0.661115
vt 0.887430 0.729119
vt 0.981527 0.670069
vt 0.878276 0.741397
vt 0.988009 0.662623
vt 0.922169 0.584837
vt 0.922169 0.638849
vt 0.888997 0.584837
vt 0.801583 0.734251
vt 0.770181 0.734251
vt 0.875326 0.576365
vt 0.922169 0.576365
vt 0.493687 0.750000
vt 0.539773 0.750000
vt 0.539773 0.750000
vt 0.493687 0.750000
vt 0.582386 0.750000
vt 0.625000 0.750000
vt 0.625000 0.750000
vt 0.582386 0.750000
vt 0.801583 0.740777
vt 0.764052 0.740777
vt 0.400470 0.750000
vt 0.448864 0.750000
vt 0.448864 0.750000
vt 0.400470 0.750000
vt 0.876340 0.614544
vt 0.769509 0.583243
vt 0.768897 0.574348
vt 0.771054 0.656338
vt 0.770533 0.645424
vt 0.764800 0.654070
vt 0.762398 0.574466
vt 0.762309 0.573573
vt 0.765022 0.655345
vt 0.824095 0.653295
vt 0.767541 0.653989
vt 0.769903 0.649468
vt 0.771697 0.648877
vt 0.771081 0.582436
vt 0.772312 0.582960
vt 0.771924 0.577534
vt 0.823659 0.576971
vt 0.763370 0.576048
vt 0.757394 0.524525
vt 0.756317 0.508838
vt 0.938099 0.648105
vt 0.886801 0.648105
vt 0.873701 0.576222
vt 0.865980 0.584327
vt 0.865980 0.647080
vt 0.873701 0.654845
vt 0.991385 0.573950
vt 0.980060 0.584661
vt 0.980060 0.632539
vt 0.991385 0.648105
vt 0.823872 0.577620
vt 0.823872 0.583779
vt 0.866570 0.583779
vt 0.872446 0.577620
vt 0.823872 0.648275
vt 0.866570 0.648275
vt 0.873837 0.655090
vt 0.865971 0.647461
vt 0.819490 0.647461
vt 0.819490 0.655090
vt 0.774904 0.508098
vt 0.751735 0.508098
vt 0.751735 0.524290
vt 0.774904 0.524290
vt 0.800253 0.508098
vt 0.800253 0.524290
vt 0.767767 0.647461
vt 0.763648 0.655090
vt 0.874306 0.661115
vt 0.863741 0.671483
vt 0.863741 0.731763
vt 0.874306 0.740181
vt 0.878413 0.662623
vt 0.887430 0.670069
vt 0.936276 0.670069
vt 0.936276 0.662623
vt 0.876311 0.573950
vt 0.886801 0.584661
vt 0.938099 0.584661
vt 0.938099 0.573950
vt 0.818019 0.576222
vt 0.818019 0.584327
vt 0.980060 0.648105
vt 0.938099 0.632539
vt 0.922169 0.647079
vt 0.888997 0.647079
vt 0.763868 0.576223
vt 0.769193 0.584588
vt 0.796048 0.584588
vt 0.796048 0.576223
vt 0.796048 0.654310
vt 0.796048 0.645828
vt 0.769193 0.645828
vt 0.763867 0.654310
vt 0.988009 0.741397
vt 0.981527 0.729119
vt 0.936276 0.729119
vt 0.936276 0.741397
vt 0.824921 0.661115
vt 0.824921 0.671483
vt 0.764052 0.663580
vt 0.770181 0.669525
vt 0.801583 0.669525
vt 0.801583 0.663580
vt 0.818043 0.508098
vt 0.818043 0.524290
vt 0.886801 0.632539
vt 0.876311 0.648105
vt 0.875326 0.644754
vt 0.888997 0.638849
vt 0.819490 0.583799
vt 0.767767 0.583799
vt 0.865971 0.583799
vt 0.763603 0.576759
vt 0.819490 0.576759
vt 0.873837 0.576759
vt 0.818019 0.647080
vt 0.771886 0.647080
vt 0.771886 0.584327
vt 0.818019 0.654845
vt 0.764103 0.654845
vt 0.764193 0.576222
vt 0.864750 0.584697
vt 0.811229 0.584082
vt 0.811229 0.645811
vt 0.864750 0.645811
vt 0.873824 0.656840
vt 0.810980 0.656854
vt 0.811229 0.574854
vt 0.873824 0.574854
vt 0.872446 0.653276
vt 0.774164 0.671483
vt 0.774164 0.731763
vt 0.824921 0.731763
vt 0.823872 0.653276
vt 0.824921 0.740181
vt 0.762379 0.740181
vt 0.762379 0.661115
vt 0.887430 0.729119
vt 0.981527 0.670069
vt 0.878276 0.741397
vt 0.988009 0.662623
vt 0.922169 0.584837
vt 0.888997 0.584837
vt 0.922169 0.638849
vt 0.770181 0.734251
vt 0.801583 0.734251
vt 0.875326 0.576365
vt 0.922169 0.576365
vt 0.493687 0.750000
vt 0.493687 0.750000
vt 0.539773 0.750000
vt 0.539773 0.750000
vt 0.582386 0.750000
vt 0.582386 0.750000
vt 0.625000 0.750000
vt 0.625000 0.750000
vt 0.801583 0.740777
vt 0.764052 0.740777
vt 0.400470 0.750000
vt 0.400470 0.750000
vt 0.448864 0.750000
vt 0.448864 0.750000
vt 0.764800 0.654070
vt 0.762398 0.574466
vt 0.824095 0.653295
vn 0.0000 1.0000 -0.0000
vn -0.8648 0.0000 -0.5021
vn -0.6865 0.0000 0.7272
vn -0.7633 -0.6460 0.0000
vn -1.0000 0.0000 0.0000
vn -0.8259 0.5639 -0.0000
vn -0.8854 0.0000 0.4649
vn -0.8353 -0.5497 0.0000
vn -0.4830 -0.8756 -0.0000
vn -0.8019 0.5974 0.0000
vn -0.0000 0.9543 0.2989
vn -0.6465 0.7629 -0.0000
vn -0.8309 -0.5564 0.0000
vn -0.8309 0.5564 0.0000
vn -0.8353 0.5497 0.0000
vn -0.7700 -0.6381 0.0000
vn -0.8227 -0.5684 -0.0000
vn -0.6316 0.7453 -0.2136
vn 0.0000 0.9613 -0.2755
vn 0.0000 0.9697 -0.2444
vn -0.7698 0.6190 -0.1560
vn -0.8259 -0.5639 -0.0000
vn -0.6425 0.0000 -0.7663
vn -0.6086 0.0000 0.7935
vn -0.8019 -0.5974 0.0000
vn -0.8362 0.0000 0.5484
vn -0.6288 0.7420 0.2325
vn -0.7181 0.0000 -0.6959
vn -0.6814 0.7319 0.0000
vn -0.6814 -0.7319 0.0000
vn -0.7938 0.0000 0.6082
vn -0.8521 0.0000 0.5234
vn -0.7633 0.6460 0.0000
vn -0.7700 0.6381 0.0000
vn -0.8956 0.0000 -0.4448
vn -0.9050 0.0000 -0.4254
vn -0.8955 0.0000 0.4450
vn -0.6879 -0.7258 0.0000
vn -0.0000 0.0000 1.0000
vn -0.7382 0.0000 -0.6746
vn -0.8227 0.5684 -0.0000
vn -0.7961 0.0000 -0.6051
vn -0.7793 0.6266 0.0000
vn -0.7611 0.0000 -0.6486
vn 0.0000 0.0000 -1.0000
vn 0.0000 -0.6864 -0.7272
vn 0.0000 0.6864 -0.7272
vn 0.8648 0.0000 -0.5021
vn 0.6865 0.0000 0.7272
vn 0.7633 -0.6460 0.0000
vn 1.0000 0.0000 0.0000
vn 0.8259 0.5639 0.0000
vn 0.8854 0.0000 0.4649
vn 0.8353 -0.5497 0.0000
vn 0.4830 -0.8756 0.0000
vn 0.8019 0.5974 0.0000
vn 0.6465 0.7629 -0.0000
vn 0.8309 -0.5564 0.0000
vn 0.8309 0.5564 0.0000
vn 0.8353 0.5497 0.0000
vn 0.7700 -0.6381 0.0000
vn 0.8227 -0.5684 0.0000
vn 0.6316 0.7453 -0.2136
vn 0.7698 0.6190 -0.1560
vn 0.8259 -0.5639 0.0000
vn 0.6425 0.0000 -0.7663
vn 0.6086 0.0000 0.7935
vn 0.8019 -0.5974 0.0000
vn 0.8362 0.0000 0.5484
vn 0.6288 0.7420 0.2325
vn 0.7181 0.0000 -0.6959
vn 0.6814 0.7319 0.0000
vn 0.6814 -0.7319 0.0000
vn 0.7938 0.0000 0.6082
vn 0.8521 0.0000 0.5234
vn 0.7633 0.6460 0.0000
vn 0.7700 0.6381 0.0000
vn 0.8956 0.0000 -0.4448
vn 0.9050 0.0000 -0.4254
vn 0.8955 0.0000 0.4450
vn 0.6879 -0.7258 0.0000
vn 0.7382 0.0000 -0.6746
vn 0.8227 0.5684 0.0000
vn 0.7961 0.0000 -0.6051
vn 0.7793 0.6266 0.0000
vn 0.7611 0.0000 -0.6486
s off
f 168/1/1 110/2/1 25/3/1 17/4/1
f 7/5/2 1/6/2 39/7/2 40/8/2
f 29/9/3 27/10/3 48/11/3 49/12/3
f 12/13/4 20/14/4 57/15/4 56/16/4
f 57/15/5 54/17/5 55/18/5 56/16/5
f 30/19/6 20/20/6 32/21/6 36/22/6
f 16/23/5 21/24/5 14/25/5 5/26/5
f 22/27/5 31/28/5 21/24/5 16/23/5
f 20/20/6 12/29/6 33/30/6 32/21/6
f 8/31/7 10/32/7 58/33/7 59/34/7
f 20/35/8 30/36/8 68/37/8 69/38/8
f 9/39/9 19/40/9 47/41/9 46/42/9
f 18/43/10 7/5/10 40/8/10 41/44/10
f 169/45/11 106/46/11 24/47/11 27/10/11
f 48/11/12 24/47/12 17/4/12 44/48/12
f 166/49/1 103/50/1 23/51/1 4/52/1
f 26/53/13 2/54/13 71/55/13 76/56/13
f 8/57/14 28/58/14 78/59/14 70/60/14
f 2/61/15 26/62/15 66/63/15 64/64/15
f 28/65/16 8/31/16 59/34/16 60/66/16
f 31/67/17 13/68/17 75/69/17 81/70/17
f 3/71/5 13/72/5 31/28/5 22/27/5
f 45/73/18 25/3/18 6/74/18
f 25/3/19 110/2/19 167/75/19 6/74/19
f 23/51/20 103/50/20 169/76/20 27/77/20
f 77/78/21 23/51/21 27/77/21
f 24/47/1 106/46/1 168/1/1 17/4/1
f 35/79/5 32/21/5 33/30/5 34/80/5
f 37/81/5 36/22/5 32/21/5 35/79/5
f 14/82/22 21/83/22 35/79/22 34/80/22
f 12/29/23 14/82/23 34/80/23 33/30/23
f 31/84/24 30/19/24 36/22/24 37/81/24
f 21/83/22 31/84/22 37/81/22 35/79/22
f 38/85/5 41/44/5 40/8/5 39/7/5
f 42/86/5 43/87/5 41/44/5 38/85/5
f 15/88/25 26/89/25 42/86/25 38/85/25
f 26/89/26 28/90/26 43/87/26 42/86/26
f 28/90/10 18/43/10 41/44/10 43/87/10
f 1/6/25 15/88/25 38/85/25 39/7/25
f 47/41/5 44/48/5 45/73/5 46/42/5
f 49/12/5 48/11/5 44/48/5 47/41/5
f 17/4/12 25/3/12 45/73/12 44/48/12
f 27/10/27 24/47/27 48/11/27
f 6/74/28 9/39/28 46/42/28 45/73/28
f 19/40/9 29/9/9 49/12/9 47/41/9
f 52/91/5 53/92/5 50/93/5 51/94/5
f 19/95/29 9/96/29 50/93/29 53/92/29
f 7/97/30 18/98/30 52/91/30 51/94/30
f 18/98/31 19/95/31 53/92/31 52/91/31
f 20/14/32 15/99/32 54/17/32 57/15/32
f 60/66/5 62/100/5 63/101/5 61/102/5
f 15/99/33 1/103/33 55/18/33 54/17/33
f 59/34/5 58/33/5 62/100/5 60/66/5
f 29/104/34 19/105/34 63/101/34 62/100/34
f 19/105/35 18/106/35 61/102/35 63/101/35
f 10/32/34 29/104/34 62/100/34 58/33/34
f 18/106/16 28/65/16 60/66/16 61/102/16
f 68/37/5 66/63/5 67/107/5 69/38/5
f 65/108/5 64/64/5 66/63/5 68/37/5
f 15/109/36 20/35/36 69/38/36 67/107/36
f 30/36/8 11/110/8 65/108/8 68/37/8
f 11/110/37 2/61/37 64/64/37 65/108/37
f 26/62/15 15/109/15 67/107/15 66/63/15
f 71/55/5 70/60/5 78/59/5 76/56/5
f 73/111/5 72/112/5 77/78/5 79/113/5
f 75/69/5 74/114/5 80/115/5 81/70/5
f 29/116/38 10/117/38 73/111/38 79/113/38
f 2/118/39 8/119/39 70/120/39 71/121/39
f 10/122/39 4/123/39 72/124/39 73/125/39
f 28/58/40 26/53/40 76/56/40 78/59/40
f 11/126/41 30/127/41 80/115/41 74/114/41
f 30/127/42 31/67/42 81/70/42 80/115/42
f 4/52/43 23/51/43 77/78/43 72/112/43
f 27/77/44 29/116/44 79/113/44 77/78/44
f 13/128/39 11/129/39 74/130/39 75/131/39
f 170/132/45 9/39/45 6/74/45 167/75/45
f 7/97/46 51/94/46 177/133/46 171/134/46
f 50/93/47 9/96/47 170/135/47 176/136/47
f 51/94/45 50/93/45 176/136/45 177/133/45
f 1/137/45 7/138/45 171/139/45 172/140/45
f 55/18/45 1/141/45 172/142/45 178/143/45
f 56/16/45 55/18/45 178/144/45 179/145/45
f 12/13/45 56/16/45 179/146/45 173/147/45
f 14/82/45 12/13/45 173/148/45 174/149/45
f 5/26/45 14/25/45 174/150/45 175/151/45
f 168/1/1 98/152/1 108/153/1 110/2/1
f 88/154/48 124/155/48 123/156/48 82/157/48
f 113/158/49 133/159/49 132/160/49 111/161/49
f 93/162/50 140/163/50 141/164/50 101/165/50
f 141/164/51 140/163/51 139/166/51 138/167/51
f 114/168/52 120/169/52 116/170/52 101/171/52
f 97/172/51 86/173/51 95/174/51 102/175/51
f 104/176/51 97/172/51 102/175/51 115/177/51
f 101/171/52 116/170/52 117/178/52 93/179/52
f 89/180/53 143/181/53 142/182/53 91/183/53
f 101/184/54 153/185/54 152/186/54 114/187/54
f 90/188/55 130/189/55 131/190/55 100/191/55
f 99/192/56 125/193/56 124/155/56 88/154/56
f 169/45/11 111/161/11 107/194/11 106/46/11
f 132/160/57 128/195/57 98/152/57 107/194/57
f 166/49/1 85/196/1 105/197/1 103/50/1
f 109/198/58 160/199/58 155/200/58 83/201/58
f 89/202/59 154/203/59 162/204/59 112/205/59
f 83/206/60 148/207/60 150/208/60 109/209/60
f 112/210/61 144/211/61 143/181/61 89/180/61
f 115/212/62 165/213/62 159/214/62 94/215/62
f 84/216/51 104/176/51 115/177/51 94/217/51
f 129/218/63 87/219/63 108/153/63
f 108/153/19 87/219/19 167/75/19 110/2/19
f 105/197/20 111/220/20 169/76/20 103/50/20
f 161/221/64 111/220/64 105/197/64
f 107/194/1 98/152/1 168/1/1 106/46/1
f 119/222/51 118/223/51 117/178/51 116/170/51
f 121/224/51 119/222/51 116/170/51 120/169/51
f 95/225/65 118/223/65 119/222/65 102/226/65
f 93/179/66 117/178/66 118/223/66 95/225/66
f 115/227/67 121/224/67 120/169/67 114/168/67
f 102/226/65 119/222/65 121/224/65 115/227/65
f 122/228/51 123/156/51 124/155/51 125/193/51
f 126/229/51 122/228/51 125/193/51 127/230/51
f 96/231/68 122/228/68 126/229/68 109/232/68
f 109/232/69 126/229/69 127/230/69 112/233/69
f 112/233/56 127/230/56 125/193/56 99/192/56
f 82/157/68 123/156/68 122/228/68 96/231/68
f 131/190/51 130/189/51 129/218/51 128/195/51
f 133/159/51 131/190/51 128/195/51 132/160/51
f 98/152/57 128/195/57 129/218/57 108/153/57
f 111/161/70 132/160/70 107/194/70
f 87/219/71 129/218/71 130/189/71 90/188/71
f 100/191/55 131/190/55 133/159/55 113/158/55
f 136/234/51 135/235/51 134/236/51 137/237/51
f 100/238/72 137/237/72 134/236/72 90/239/72
f 88/240/73 135/235/73 136/234/73 99/241/73
f 99/241/74 136/234/74 137/237/74 100/238/74
f 101/165/75 141/164/75 138/167/75 96/242/75
f 144/211/51 145/243/51 147/244/51 146/245/51
f 96/242/76 138/167/76 139/166/76 82/246/76
f 143/181/51 144/211/51 146/245/51 142/182/51
f 113/247/77 146/245/77 147/244/77 100/248/77
f 100/248/78 147/244/78 145/243/78 99/249/78
f 91/183/77 142/182/77 146/245/77 113/247/77
f 99/249/61 145/243/61 144/211/61 112/210/61
f 152/186/51 153/185/51 151/250/51 150/208/51
f 149/251/51 152/186/51 150/208/51 148/207/51
f 96/252/79 151/250/79 153/185/79 101/184/79
f 114/187/54 152/186/54 149/251/54 92/253/54
f 92/253/80 149/251/80 148/207/80 83/206/80
f 109/209/60 150/208/60 151/250/60 96/252/60
f 155/200/51 160/199/51 162/204/51 154/203/51
f 157/254/51 163/255/51 161/221/51 156/256/51
f 159/214/51 165/213/51 164/257/51 158/258/51
f 113/259/81 163/255/81 157/254/81 91/260/81
f 83/261/39 155/262/39 154/263/39 89/264/39
f 91/265/39 157/266/39 156/267/39 85/268/39
f 112/205/82 162/204/82 160/199/82 109/198/82
f 92/269/83 158/258/83 164/257/83 114/270/83
f 114/270/84 164/257/84 165/213/84 115/212/84
f 85/196/85 156/256/85 161/221/85 105/197/85
f 111/220/86 161/221/86 163/255/86 113/259/86
f 94/271/39 159/272/39 158/273/39 92/274/39
f 170/132/45 167/75/45 87/219/45 90/188/45
f 88/240/46 171/134/46 177/133/46 135/235/46
f 134/236/47 176/136/47 170/135/47 90/239/47
f 135/235/45 177/133/45 176/136/45 134/236/45
f 82/275/45 172/140/45 171/139/45 88/276/45
f 139/166/45 178/143/45 172/142/45 82/277/45
f 140/163/45 179/145/45 178/144/45 139/166/45
f 93/162/45 173/147/45 179/146/45 140/163/45
f 95/225/45 174/149/45 173/148/45 93/162/45
f 86/173/45 175/151/45 174/150/45 95/174/45
