# Blender v2.81 (sub 16) OBJ File: 'fences.blend'
# www.blender.org
o fence7_unlinked_Cube.005
v -0.027310 0.000000 0.106976
v -0.034263 1.199488 0.131440
v 0.027310 0.000000 0.106976
v 0.034262 1.199488 0.131440
v -0.027310 0.000000 0.200354
v -0.034263 1.199488 0.196874
v 0.027310 0.000000 0.200354
v 0.034262 1.199488 0.196874
v -0.027310 0.000000 0.392550
v -0.034263 1.228864 0.452686
v 0.027310 0.000000 0.392550
v 0.034262 1.228864 0.452686
v 0.027310 0.000000 0.000000
v 0.034262 1.199488 0.000000
v -0.027310 0.000000 0.000000
v -0.034263 1.199488 0.000000
v -0.018060 0.543653 -0.000000
v -0.018060 0.639573 -0.000000
v 0.018060 0.543653 0.000000
v 0.018060 0.639573 0.000000
v -0.018060 0.543653 0.479118
v -0.018060 0.639573 0.487861
v 0.018060 0.543653 0.479118
v 0.018060 0.639573 0.487861
v -0.018060 0.297099 -0.000000
v -0.018060 0.393019 -0.000000
v 0.018060 0.297099 0.000000
v 0.018060 0.393019 0.000000
v -0.018060 0.297099 0.461632
v -0.018060 0.393019 0.466877
v 0.018060 0.297099 0.461632
v 0.018060 0.393019 0.466877
vt 0.580958 0.625977
vt 0.639745 0.625977
vt 0.639745 0.684764
vt 0.580958 0.684764
vt 0.580958 0.596583
vt 0.639745 0.596583
vt 0.580958 0.508402
vt 0.639745 0.508402
vt 0.639745 0.567189
vt 0.580958 0.567189
vt 0.580958 0.625977
vt 0.639745 0.625977
vt 0.639745 0.684764
vt 0.580958 0.684764
vt 0.639745 0.743552
vt 0.580958 0.743552
vt 0.698533 0.625977
vt 0.698533 0.684764
vt 0.669139 0.625977
vt 0.669139 0.684764
vt 0.639745 0.714158
vt 0.580958 0.714158
vt 0.669571 0.628023
vt 0.704468 0.628023
vt 0.704468 0.662919
vt 0.669571 0.662919
vt 0.704468 0.697816
vt 0.669571 0.697816
vt 0.704468 0.732713
vt 0.669571 0.732713
vt 0.634674 0.662919
vt 0.634674 0.697816
vt 0.739365 0.662919
vt 0.739365 0.697816
vt 0.669571 0.628023
vt 0.704468 0.628023
vt 0.704468 0.662919
vt 0.669571 0.662919
vt 0.704468 0.697816
vt 0.669571 0.697816
vt 0.704468 0.732713
vt 0.669571 0.732713
vt 0.634674 0.662919
vt 0.634674 0.697816
vt 0.739365 0.662919
vt 0.739365 0.697816
vn 0.0000 -0.0204 0.9998
vn 1.0000 -0.0058 0.0000
vn 0.0000 -0.0029 -1.0000
vn 0.0000 -0.0489 0.9988
vn 1.0000 -0.0057 0.0004
vn -1.0000 -0.0057 0.0004
vn 0.0000 0.9935 -0.1141
vn 0.0000 1.0000 0.0000
vn -1.0000 -0.0058 -0.0000
vn 1.0000 -0.0000 0.0000
vn 0.0000 -0.0908 0.9959
vn -1.0000 0.0000 -0.0000
vn 0.0000 -1.0000 0.0000
vn 0.0000 -0.0546 0.9985
s off
f 3/1/1 4/2/1 2/3/1 1/4/1
f 13/5/2 14/6/2 4/2/2 3/1/2
f 5/7/3 6/8/3 8/9/3 7/10/3
f 11/11/4 12/12/4 10/13/4 9/14/4
f 7/10/5 8/9/5 12/12/5 11/11/5
f 9/14/6 10/13/6 6/15/6 5/16/6
f 12/12/7 8/17/7 6/18/7 10/13/7
f 4/2/8 14/19/8 16/20/8 2/3/8
f 1/4/9 2/3/9 16/21/9 15/22/9
f 19/23/10 20/24/10 24/25/10 23/26/10
f 23/26/11 24/25/11 22/27/11 21/28/11
f 21/28/12 22/27/12 18/29/12 17/30/12
f 19/31/13 23/26/13 21/28/13 17/32/13
f 24/25/8 20/33/8 18/34/8 22/27/8
f 27/35/10 28/36/10 32/37/10 31/38/10
f 31/38/14 32/37/14 30/39/14 29/40/14
f 29/40/12 30/39/12 26/41/12 25/42/12
f 27/43/13 31/38/13 29/40/13 25/44/13
f 32/37/8 28/45/8 26/46/8 30/39/8
