# Blender v2.82 (sub 7) OBJ File: 'fences.blend'
# www.blender.org
o fence17_unlinked_Cube.001
v -0.323487 0.000000 0.411660
v -0.292420 0.636224 0.000001
v -0.322943 0.592158 0.086639
v -0.280064 0.666293 0.136062
v -0.292420 0.557562 0.256325
v -0.222271 0.634992 0.304101
v -0.183577 0.585569 0.386473
v -0.117552 0.682767 0.384825
v -0.064654 0.603690 0.486967
v -0.206964 0.742506 0.000001
v -0.190622 0.749980 0.136062
v -0.152422 0.733924 0.304101
v -0.082030 0.711140 0.377464
v -0.311115 0.063002 0.399287
v -0.323487 0.050629 0.411660
v -0.279610 0.348581 0.000001
v -0.311303 0.323207 0.079052
v -0.281400 0.362745 0.120238
v -0.310065 0.344624 0.140008
v -0.267974 0.374278 0.200963
v -0.303126 0.254015 0.316283
v -0.199340 0.370983 0.355822
v -0.186161 0.277079 0.428309
v -0.100390 0.331444 0.436546
v -0.216495 0.571133 0.000001
v -0.218285 0.574051 0.120238
v -0.204859 0.580816 0.200963
v -0.169320 0.571801 0.334929
v -0.100390 0.567605 0.389519
v -0.321081 0.456100 0.028623
v -0.311587 0.525887 0.040063
v -0.321081 0.457244 0.077817
v -0.305813 0.509871 0.123579
v -0.317476 0.452668 0.216247
v -0.305813 0.509871 0.236840
v -0.305813 0.419490 0.336373
v -0.152012 0.511015 0.395929
v -0.129867 0.403474 0.470227
v -0.192506 0.680983 0.040063
v -0.186732 0.684828 0.123579
v -0.216103 0.682445 0.225717
v -0.152012 0.685178 0.323797
v -0.279805 0.254673 0.040063
v -0.279852 0.128827 0.053983
v -0.274030 0.238656 0.123579
v -0.276247 0.131878 0.175252
v -0.274030 0.238656 0.236840
v -0.258596 0.104421 0.318259
v -0.152012 0.239800 0.395929
v -0.047828 0.102705 0.415885
v -0.236648 0.409769 0.040063
v -0.230874 0.413614 0.123579
v -0.216103 0.411230 0.225717
v -0.132223 0.410150 0.386720
v -0.282224 0.068266 0.052871
v -0.276943 0.107164 0.052648
v -0.351508 0.066064 0.141884
v -0.276943 0.122037 0.203663
v -0.276943 0.061402 0.242561
v -0.208929 0.104876 0.270018
v -0.193704 0.065978 0.336373
v -0.104678 0.111740 0.368406
v -0.229394 0.316282 0.052648
v -0.229394 0.331155 0.203663
v -0.208929 0.313994 0.270018
v -0.104678 0.320859 0.368406
v -0.323487 0.050629 0.000001
v -0.323487 0.000000 0.000001
v -0.311115 0.063002 0.000001
v -0.276943 0.105037 0.000001
v -0.308377 0.504902 0.000001
v -0.189297 0.681195 0.000001
v -0.233438 0.409980 0.000001
v -0.277670 0.255435 0.000001
v -0.235830 0.314155 0.000001
v -0.274882 0.216668 0.022424
v 0.323487 0.000000 0.411660
v 0.292420 0.636224 0.000001
v 0.322943 0.592158 0.086639
v 0.280064 0.666293 0.136062
v 0.292420 0.557562 0.256325
v 0.222271 0.634992 0.304101
v 0.183577 0.585569 0.386473
v 0.117552 0.682767 0.384825
v 0.064654 0.603690 0.486967
v -0.000000 0.670411 0.422442
v -0.000000 0.000000 0.411660
v -0.000000 0.783945 0.000001
v -0.000000 0.812655 0.136062
v -0.000000 0.791841 0.304101
v -0.000000 0.739512 0.370102
v 0.206964 0.742506 0.000001
v 0.190622 0.749980 0.136062
v 0.152422 0.733924 0.304101
v 0.082030 0.711140 0.377464
v -0.000000 0.697545 0.401124
v 0.311115 0.063002 0.399287
v 0.323487 0.050629 0.411660
v -0.000000 0.063002 0.399287
v -0.000000 0.050629 0.411660
v 0.279610 0.348581 0.000001
v 0.311303 0.323207 0.079053
v 0.281400 0.362745 0.120238
v 0.310065 0.344624 0.140008
v 0.267974 0.374278 0.200963
v 0.303126 0.254015 0.316283
v 0.199340 0.370983 0.355822
v 0.186161 0.277079 0.428309
v 0.100390 0.331444 0.436546
v -0.000000 0.207886 0.472790
v -0.000000 0.329797 0.464278
v 0.216495 0.571133 0.000001
v 0.218285 0.574051 0.120238
v 0.204859 0.580816 0.200963
v 0.169320 0.571801 0.334929
v 0.100390 0.567605 0.389519
v -0.000000 0.561696 0.413132
v 0.321081 0.456100 0.028623
v 0.311587 0.525887 0.040063
v 0.321081 0.457244 0.077817
v 0.305813 0.509871 0.123579
v 0.317476 0.452668 0.216247
v 0.305813 0.509871 0.236840
v 0.305813 0.419490 0.336373
v 0.152012 0.511015 0.395929
v 0.129867 0.403474 0.470227
v -0.000000 0.529320 0.465651
v 0.192506 0.680983 0.040063
v 0.186732 0.684828 0.123579
v 0.216103 0.682445 0.225718
v 0.152012 0.685178 0.323797
v -0.000000 0.693949 0.378258
v 0.279805 0.254673 0.040063
v 0.279852 0.128827 0.053983
v 0.274030 0.238656 0.123579
v 0.276247 0.131878 0.175252
v 0.274030 0.238656 0.236840
v 0.258596 0.104421 0.318259
v 0.152012 0.239800 0.395929
v 0.047828 0.102705 0.415885
v -0.000000 0.239991 0.434189
v 0.236648 0.409769 0.040063
v 0.230874 0.413614 0.123579
v 0.216103 0.411230 0.225718
v 0.132223 0.410150 0.386720
v -0.000000 0.416061 0.429740
v 0.282224 0.068266 0.052872
v 0.276943 0.107164 0.052648
v 0.351508 0.066064 0.141884
v 0.276943 0.122037 0.203663
v 0.276943 0.061402 0.242561
v 0.208929 0.104876 0.270018
v 0.193704 0.065978 0.336373
v 0.104678 0.111740 0.368406
v -0.000000 0.056826 0.433618
v -0.000000 0.127757 0.407304
v 0.229394 0.316282 0.052648
v 0.229394 0.331155 0.203663
v 0.208929 0.313994 0.270018
v 0.104678 0.320859 0.368406
v -0.000000 0.336875 0.407304
v 0.323487 0.050629 0.000001
v 0.323487 0.000000 0.000001
v -0.000000 0.063002 0.000001
v 0.311115 0.063002 0.000001
v 0.276943 0.105037 0.000001
v 0.308377 0.504902 0.000001
v 0.189297 0.681195 0.000001
v 0.233438 0.409980 0.000001
v 0.277670 0.255435 0.000001
v 0.235830 0.314155 0.000001
v 0.274882 0.216668 0.022424
vt 0.933281 0.166028
vt 0.888878 0.158712
vt 0.924196 0.138637
vt 0.827756 0.002585
vt 0.827756 0.017024
vt 0.789443 0.017024
vt 0.789443 0.002585
vt 0.876608 0.136970
vt 0.855831 0.150104
vt 0.988440 0.195472
vt 0.973048 0.219340
vt 0.953597 0.195050
vt 0.827756 0.002585
vt 0.827756 0.017024
vt 0.959234 0.165907
vt 0.855461 0.184882
vt 0.888121 0.189139
vt 0.890248 0.239602
vt 0.856017 0.238339
vt 0.929006 0.195424
vt 0.951303 0.206413
vt 0.952970 0.228014
vt 0.932920 0.235068
vt 0.965090 0.222827
vt 0.827756 0.023125
vt 0.827756 0.023125
vt 0.789993 0.023125
vt 0.789993 0.023125
vt 0.953041 0.064433
vt 0.951718 0.105171
vt 0.931488 0.104426
vt 0.916675 0.081867
vt 0.906723 0.117860
vt 0.891560 0.070734
vt 0.873816 0.118718
vt 0.861302 0.102997
vt 0.857929 0.114750
vt 0.850680 0.097205
vt 0.838691 0.110758
vt 0.873644 0.187675
vt 0.857753 0.185299
vt 0.928264 0.183667
vt 0.906556 0.184907
vt 0.838507 0.184490
vt 0.948329 0.183157
vt 0.935432 0.118521
vt 0.945422 0.171963
vt 0.917801 0.147271
vt 0.896850 0.100406
vt 0.878174 0.128153
vt 0.873783 0.110444
vt 0.857077 0.129939
vt 0.848667 0.112820
vt 0.841372 0.134019
vt 0.837144 0.113093
vt 0.832282 0.119434
vt 0.877952 0.188408
vt 0.858572 0.195351
vt 0.926000 0.219776
vt 0.899220 0.196768
vt 0.842952 0.194441
vt 0.943183 0.082866
vt 0.953173 0.136308
vt 0.925552 0.111616
vt 0.904601 0.064751
vt 0.885925 0.092498
vt 0.881534 0.074790
vt 0.864828 0.094285
vt 0.856418 0.077166
vt 0.849123 0.098365
vt 0.885703 0.152753
vt 0.866323 0.159696
vt 0.933751 0.184121
vt 0.906971 0.161114
vt 0.850703 0.158787
vt 0.855854 0.043898
vt 0.863295 0.055304
vt 0.853201 0.054670
vt 0.881097 0.031961
vt 0.892262 0.059417
vt 0.898786 0.041161
vt 0.910747 0.057872
vt 0.922912 0.044627
vt 0.937863 0.064888
vt 0.962358 0.052335
vt 0.958737 0.073398
vt 0.863350 0.123939
vt 0.853193 0.122952
vt 0.932943 0.131534
vt 0.905827 0.124518
vt 0.892316 0.128051
vt 0.953816 0.140044
vt 0.843241 0.159980
vt 0.843753 0.095595
vt 0.835490 0.195635
vt 0.833297 0.129855
vt 0.847687 0.091260
vt 0.933281 0.166028
vt 0.924196 0.138637
vt 0.888878 0.158712
vt 0.827756 0.002585
vt 0.789443 0.002585
vt 0.789443 0.017024
vt 0.827756 0.017024
vt 0.876608 0.136970
vt 0.855831 0.150104
vt 0.988440 0.195472
vt 0.953597 0.195050
vt 0.959234 0.165907
vt 0.855461 0.184882
vt 0.888121 0.189139
vt 0.929006 0.195424
vt 0.951303 0.206413
vt 0.827756 0.023125
vt 0.789993 0.023125
vt 0.931488 0.104426
vt 0.916675 0.081867
vt 0.906723 0.117860
vt 0.891560 0.070734
vt 0.873816 0.118718
vt 0.861302 0.102997
vt 0.857929 0.114750
vt 0.850680 0.097205
vt 0.838691 0.110758
vt 0.857753 0.185299
vt 0.873644 0.187675
vt 0.906556 0.184907
vt 0.928264 0.183667
vt 0.838507 0.184490
vt 0.935432 0.118521
vt 0.917801 0.147271
vt 0.896850 0.100406
vt 0.878174 0.128153
vt 0.873783 0.110444
vt 0.857077 0.129939
vt 0.848667 0.112820
vt 0.841372 0.134019
vt 0.837144 0.113093
vt 0.832282 0.119434
vt 0.858572 0.195351
vt 0.877952 0.188408
vt 0.899220 0.196768
vt 0.842952 0.194441
vt 0.943183 0.082866
vt 0.925552 0.111616
vt 0.904601 0.064751
vt 0.885925 0.092498
vt 0.881534 0.074790
vt 0.864828 0.094285
vt 0.856418 0.077166
vt 0.849123 0.098365
vt 0.866323 0.159696
vt 0.885703 0.152753
vt 0.906971 0.161114
vt 0.850703 0.158787
vt 0.855854 0.043898
vt 0.853201 0.054670
vt 0.863295 0.055304
vt 0.881097 0.031961
vt 0.892262 0.059417
vt 0.898786 0.041161
vt 0.910747 0.057872
vt 0.922912 0.044627
vt 0.937863 0.064888
vt 0.853193 0.122952
vt 0.863350 0.123939
vt 0.905827 0.124518
vt 0.932943 0.131534
vt 0.892316 0.128051
vt 0.843241 0.159980
vt 0.843753 0.095595
vt 0.835490 0.195635
vt 0.833297 0.129855
vt 0.847687 0.091260
vn -0.7140 0.5493 0.4341
vn -0.7735 0.6198 0.1325
vn -0.7909 0.4921 0.3637
vn -1.0000 -0.0000 -0.0000
vn -0.6507 0.3914 0.6507
vn -0.9239 0.3827 -0.0000
vn -0.8541 0.5187 -0.0371
vn -0.7829 0.6217 -0.0238
vn -0.1284 0.7509 0.6478
vn -0.0000 0.6584 0.7527
vn -0.4658 0.5805 0.6679
vn 0.0000 0.0000 1.0000
vn 0.0000 0.3827 0.9239
vn -0.6641 0.4611 0.5886
vn -0.5346 0.8428 -0.0631
vn -0.5344 0.8415 0.0798
vn 0.0000 0.9999 0.0154
vn -0.0000 0.9932 -0.1164
vn -0.5242 0.7507 0.4021
vn -0.3028 0.6437 0.7029
vn -0.0000 0.7323 0.6810
vn 0.0000 0.9342 0.3568
vn -0.0000 0.5683 0.8228
vn 0.0000 0.9239 0.3827
vn -0.3002 0.9054 0.3002
vn -0.3827 0.9239 -0.0000
vn 0.0000 1.0000 0.0000
vn 0.0000 0.0697 0.9976
vn 0.0000 0.1357 0.9907
vn -0.3766 0.2448 0.8934
vn -0.4036 0.5229 0.7508
vn -0.7303 0.3372 0.5941
vn -0.7567 0.5540 0.3471
vn -0.8888 0.3956 0.2316
vn -0.5480 0.8360 -0.0283
vn -0.8653 0.5013 0.0022
vn -0.7478 0.6579 -0.0886
vn -0.9197 0.3895 -0.0499
vn -0.9365 0.2568 0.2387
vn -0.9575 0.2841 0.0494
vn -0.4379 0.1834 0.8801
vn -0.7900 0.2039 0.5782
vn -0.9596 0.2792 -0.0341
vn 0.0000 0.2053 0.9787
vn -0.4156 0.4575 0.7861
vn -0.0000 0.4526 0.8917
vn -0.5167 0.4318 0.7393
vn -0.5739 0.6062 0.5505
vn -0.8610 0.4422 0.2512
vn -0.9798 0.1998 0.0000
vn -0.9014 0.4326 0.0171
vn -0.9758 0.1924 0.1044
vn -0.8888 0.4548 -0.0565
vn -0.9740 0.1590 -0.1613
vn -0.9169 0.3519 -0.1886
vn -0.8494 0.4534 0.2701
vn -0.8348 0.5505 -0.0027
vn 0.0000 0.4260 0.9047
vn -0.5820 0.3681 0.7251
vn -0.8102 0.5835 -0.0561
vn -0.2438 -0.0442 0.9688
vn -0.0000 0.0112 0.9999
vn -0.5741 0.1354 0.8075
vn -0.7656 0.2670 0.5853
vn -0.9268 0.2155 0.3075
vn -0.9998 0.0208 0.0000
vn -0.9857 0.1579 0.0594
vn -0.9975 0.0082 0.0705
vn -0.9910 0.1329 0.0143
vn -0.9152 0.2561 0.3112
vn -0.9607 0.2667 0.0767
vn -0.0000 0.0557 0.9984
vn -0.5749 0.1414 0.8059
vn -0.9649 0.2622 0.0130
vn -0.9909 0.1345 -0.0054
vn -0.9554 0.2953 -0.0046
vn -0.9820 0.1856 0.0344
vn -0.5542 0.8284 -0.0816
vn -0.8677 0.3765 0.3245
vn -0.5651 0.4455 0.6944
vn -0.7087 0.2373 0.6644
vn -0.5311 0.6721 0.5159
vn -0.5339 0.1432 0.8334
vn 0.0000 0.3478 0.9376
vn 0.0000 0.1674 0.9859
vn -0.9765 0.2149 0.0129
vn -0.9770 0.2071 0.0513
vn -0.5177 0.0000 0.8555
vn -0.7603 0.0494 0.6477
vn -0.9454 0.1673 0.2797
vn -0.9606 0.2711 -0.0608
vn -0.9902 0.1266 -0.0595
vn -0.7937 0.5704 -0.2115
vn -0.9931 -0.1032 -0.0549
vn 0.7140 0.5493 0.4341
vn 0.7909 0.4921 0.3637
vn 0.7735 0.6198 0.1325
vn 1.0000 0.0000 0.0000
vn 0.9239 0.3827 0.0000
vn 0.6507 0.3914 0.6507
vn 0.8541 0.5187 -0.0371
vn 0.7829 0.6217 -0.0238
vn 0.1284 0.7509 0.6478
vn 0.4658 0.5805 0.6679
vn 0.6641 0.4611 0.5886
vn 0.5346 0.8428 -0.0631
vn 0.5344 0.8415 0.0798
vn 0.5242 0.7507 0.4021
vn 0.3028 0.6437 0.7029
vn 0.3002 0.9054 0.3002
vn 0.3827 0.9239 0.0000
vn 0.3766 0.2448 0.8934
vn 0.4036 0.5229 0.7508
vn 0.7303 0.3372 0.5941
vn 0.7567 0.5540 0.3471
vn 0.8888 0.3956 0.2316
vn 0.5480 0.8360 -0.0283
vn 0.8653 0.5013 0.0022
vn 0.7478 0.6579 -0.0886
vn 0.9197 0.3895 -0.0499
vn 0.9575 0.2841 0.0494
vn 0.9365 0.2568 0.2387
vn 0.7900 0.2039 0.5782
vn 0.4379 0.1834 0.8801
vn 0.9596 0.2792 -0.0341
vn 0.4156 0.4575 0.7861
vn 0.5167 0.4318 0.7393
vn 0.5739 0.6063 0.5505
vn 0.8610 0.4422 0.2512
vn 0.9798 0.1998 0.0000
vn 0.9014 0.4326 0.0171
vn 0.9758 0.1924 0.1044
vn 0.8888 0.4548 -0.0565
vn 0.9740 0.1590 -0.1613
vn 0.9169 0.3519 -0.1886
vn 0.8348 0.5505 -0.0027
vn 0.8494 0.4534 0.2701
vn 0.5820 0.3681 0.7251
vn 0.8102 0.5835 -0.0561
vn 0.2438 -0.0442 0.9688
vn 0.5741 0.1354 0.8075
vn 0.7656 0.2670 0.5853
vn 0.9268 0.2155 0.3075
vn 0.9998 0.0208 0.0000
vn 0.9857 0.1579 0.0594
vn 0.9975 0.0082 0.0705
vn 0.9910 0.1329 0.0143
vn 0.9607 0.2667 0.0767
vn 0.9152 0.2561 0.3112
vn 0.5749 0.1414 0.8059
vn 0.9649 0.2622 0.0130
vn 0.9909 0.1345 -0.0054
vn 0.9820 0.1856 0.0344
vn 0.9554 0.2953 -0.0046
vn 0.5542 0.8284 -0.0816
vn 0.8677 0.3765 0.3245
vn 0.5651 0.4455 0.6944
vn 0.7087 0.2373 0.6644
vn 0.5311 0.6721 0.5159
vn 0.5339 0.1432 0.8334
vn 0.9770 0.2071 0.0513
vn 0.9765 0.2149 0.0129
vn 0.7603 0.0494 0.6477
vn 0.5177 0.0000 0.8555
vn 0.9454 0.1673 0.2797
vn 0.9606 0.2711 -0.0608
vn 0.9902 0.1266 -0.0595
vn 0.7937 0.5704 -0.2115
vn 0.9931 -0.1032 -0.0549
s 1
f 6/1/1 4/2/2 5/3/3
f 1/4/4 15/5/5 67/6/6 68/7/4
f 3/8/7 4/2/2 2/9/8
f 9/10/9 86/11/10 8/12/11
f 87/13/12 100/14/13 15/5/5 1/4/12
f 8/12/11 6/1/1 7/15/14
f 10/16/15 11/17/16 89/18/17 88/19/18
f 12/20/19 13/21/20 91/22/21 90/23/22
f 13/21/20 96/24/23 91/22/21
f 11/17/16 12/20/19 90/23/22 89/18/17
f 4/2/2 6/1/1 12/20/19 11/17/16
f 8/12/11 86/11/10 96/24/23 13/21/20
f 6/1/1 8/12/11 13/21/20 12/20/19
f 2/9/8 4/2/2 11/17/16 10/16/15
f 99/25/24 14/26/25 15/5/5 100/14/13
f 14/26/25 69/27/26 67/6/6 15/5/5
f 99/25/24 164/28/27 69/27/26 14/26/25
f 110/29/28 111/30/29 24/31/30
f 23/32/31 24/31/30 22/33/32
f 21/34/33 22/33/32 20/35/34
f 19/36/35 20/35/34 18/37/36
f 17/38/37 18/37/36 16/39/38
f 18/37/36 20/35/34 27/40/39 26/41/40
f 22/33/32 24/31/30 29/42/41 28/43/42
f 16/39/38 18/37/36 26/41/40 25/44/43
f 20/35/34 22/33/32 28/43/42 27/40/39
f 24/31/30 111/30/29 117/45/44 29/42/41
f 38/46/45 127/47/46 37/48/47
f 36/49/48 37/48/47 35/50/49
f 34/51/50 35/50/49 33/52/51
f 32/53/52 33/52/51 31/54/53
f 30/55/54 31/54/53 71/56/55
f 35/50/49 41/57/56 40/58/57 33/52/51
f 127/47/46 132/59/58 42/60/59 37/48/47
f 33/52/51 40/58/57 39/61/60 31/54/53
f 37/48/47 42/60/59 41/57/56 35/50/49
f 50/62/61 141/63/62 49/64/63
f 48/65/64 49/64/63 47/66/65
f 46/67/66 47/66/65 45/68/67
f 44/69/68 45/68/67 43/70/69
f 47/66/65 53/71/70 52/72/71 45/68/67
f 141/63/62 146/73/72 54/74/73 49/64/63
f 45/68/67 52/72/71 51/75/74 43/70/69
f 49/64/63 54/74/73 53/71/70 47/66/65
f 55/76/75 56/77/76 70/78/77
f 57/79/78 58/80/79 56/77/76
f 59/81/80 60/82/81 58/80/79
f 61/83/82 62/84/83 60/82/81
f 155/85/84 156/86/85 62/84/83
f 56/77/76 63/87/86 75/88/87 70/78/77
f 60/82/81 62/84/83 66/89/88 65/90/89
f 58/80/79 64/91/90 63/87/86 56/77/76
f 156/86/85 161/92/12 66/89/88 62/84/83
f 58/80/79 60/82/81 65/90/89 64/91/90
f 73/93/91 74/94/92 43/70/69 51/75/74
f 72/95/93 71/96/55 31/54/53 39/61/60
f 74/94/92 76/97/94 43/70/69
f 82/98/95 81/99/96 80/100/97
f 77/101/98 163/102/98 162/103/99 98/104/100
f 79/105/101 78/106/102 80/100/97
f 85/107/103 84/108/104 86/11/10
f 87/13/12 77/101/12 98/104/100 100/14/13
f 84/108/104 83/109/105 82/98/95
f 92/110/106 88/19/18 89/18/17 93/111/107
f 94/112/108 90/23/22 91/22/21 95/113/109
f 95/113/109 91/22/21 96/24/23
f 93/111/107 89/18/17 90/23/22 94/112/108
f 80/100/97 93/111/107 94/112/108 82/98/95
f 84/108/104 95/113/109 96/24/23 86/11/10
f 82/98/95 94/112/108 95/113/109 84/108/104
f 78/106/102 92/110/106 93/111/107 80/100/97
f 99/25/24 100/14/13 98/104/100 97/114/110
f 97/114/110 98/104/100 162/103/99 165/115/111
f 99/25/24 97/114/110 165/115/111 164/28/27
f 110/29/28 109/116/112 111/30/29
f 108/117/113 107/118/114 109/116/112
f 106/119/115 105/120/116 107/118/114
f 104/121/117 103/122/118 105/120/116
f 102/123/119 101/124/120 103/122/118
f 103/122/118 113/125/121 114/126/122 105/120/116
f 107/118/114 115/127/123 116/128/124 109/116/112
f 101/124/120 112/129/125 113/125/121 103/122/118
f 105/120/116 114/126/122 115/127/123 107/118/114
f 109/116/112 116/128/124 117/45/44 111/30/29
f 126/130/126 125/131/127 127/47/46
f 124/132/128 123/133/129 125/131/127
f 122/134/130 121/135/131 123/133/129
f 120/136/132 119/137/133 121/135/131
f 118/138/134 167/139/135 119/137/133
f 123/133/129 121/135/131 129/140/136 130/141/137
f 127/47/46 125/131/127 131/142/138 132/59/58
f 121/135/131 119/137/133 128/143/139 129/140/136
f 125/131/127 123/133/129 130/141/137 131/142/138
f 140/144/140 139/145/141 141/63/62
f 138/146/142 137/147/143 139/145/141
f 136/148/144 135/149/145 137/147/143
f 134/150/146 133/151/147 135/149/145
f 137/147/143 135/149/145 143/152/148 144/153/149
f 141/63/62 139/145/141 145/154/150 146/73/72
f 135/149/145 133/151/147 142/155/151 143/152/148
f 139/145/141 137/147/143 144/153/149 145/154/150
f 147/156/152 166/157/153 148/158/154
f 149/159/155 148/158/154 150/160/156
f 151/161/157 150/160/156 152/162/158
f 153/163/159 152/162/158 154/164/160
f 155/85/84 154/164/160 156/86/85
f 148/158/154 166/157/153 171/165/161 157/166/162
f 152/162/158 159/167/163 160/168/164 154/164/160
f 150/160/156 148/158/154 157/166/162 158/169/165
f 156/86/85 154/164/160 160/168/164 161/92/12
f 150/160/156 158/169/165 159/167/163 152/162/158
f 169/170/166 142/155/151 133/151/147 170/171/167
f 168/172/168 128/143/139 119/137/133 167/173/135
f 170/171/167 133/151/147 172/174/169
