# Blender v2.81 (sub 16) OBJ File: 'fences.blend'
# www.blender.org
o Fence12_unlinked_Cube.011
v -0.122118 0.764273 0.408172
v -0.122118 0.000000 0.023759
v -0.122118 0.764273 0.023759
v -0.122118 0.613306 0.408172
v -0.122118 0.659055 0.018857
v -0.146856 0.596458 0.432680
v -0.122118 0.627503 0.048779
v -0.146856 0.416460 0.463725
v -0.122118 0.489985 0.096226
v -0.122118 0.363378 0.408172
v -0.122118 0.358476 0.097285
v -0.122118 0.000000 0.224282
v -0.122118 0.786058 0.224282
v -0.122118 0.636997 0.226733
v -0.201131 0.575218 0.236536
v -0.193709 0.471195 0.246340
v -0.122118 0.360927 0.261045
v -0.122118 0.218526 0.249100
v -0.190372 0.217301 0.073394
v -0.122118 0.076125 0.049503
v -0.146856 0.219752 0.441167
v -0.122118 0.076125 0.237154
v -0.139567 0.719148 0.444118
v -0.122118 0.736239 0.022453
v -0.149369 0.745340 0.224935
v -0.111567 0.000000 0.408172
v -0.122118 0.000000 0.397621
v -0.122118 0.076125 0.397621
v -0.111567 0.076125 0.408172
v -0.122118 0.000000 -0.000000
v -0.122118 0.767737 -0.000000
v -0.126017 0.737653 -0.000000
v -0.122118 0.622865 -0.000000
v -0.122118 0.656467 -0.000000
v -0.150799 0.464360 -0.000000
v -0.122118 0.332824 -0.000000
v -0.182501 0.208864 -0.000000
v -0.122118 0.076125 -0.000000
v -0.122118 0.000000 -0.000000
v 0.122118 0.764273 0.408172
v 0.122118 0.000000 0.023759
v 0.122118 0.764273 0.023759
v 0.122118 0.613306 0.408172
v 0.122118 0.659055 0.018857
v 0.146856 0.596458 0.432680
v 0.122118 0.627503 0.048779
v 0.146856 0.416460 0.463725
v 0.122118 0.489985 0.096226
v 0.122118 0.363378 0.408172
v 0.122118 0.358476 0.097285
v 0.122118 0.000000 0.224282
v 0.122118 0.786058 0.224282
v 0.122118 0.636997 0.226733
v 0.201131 0.575218 0.236536
v 0.193709 0.471195 0.246340
v -0.000000 0.219752 0.445752
v 0.122118 0.360927 0.261045
v 0.122118 0.218526 0.249100
v 0.190372 0.217301 0.073394
v 0.122118 0.076125 0.049503
v 0.146856 0.219752 0.441167
v 0.122118 0.076125 0.237154
v -0.000000 0.000000 0.408172
v -0.000000 0.764273 0.408172
v -0.000000 0.764273 0.023759
v -0.000000 0.613306 0.408172
v -0.000000 0.596458 0.432680
v -0.000000 0.416460 0.463725
v -0.000000 0.363378 0.408172
v -0.000000 0.786058 0.224282
v -0.000000 0.076125 0.408172
v 0.139567 0.719148 0.444118
v 0.122118 0.736239 0.022453
v 0.149369 0.745340 0.224935
v -0.000000 0.719148 0.444118
v 0.111567 0.000000 0.408172
v 0.122118 0.000000 0.397621
v 0.122118 0.076125 0.397621
v 0.111567 0.076125 0.408172
v 0.122118 0.000000 0.000000
v 0.000000 0.767737 0.000000
v 0.122118 0.767737 0.000000
v 0.126017 0.737653 0.000000
v 0.122118 0.622865 0.000000
v 0.122118 0.656467 0.000000
v 0.150799 0.464360 0.000000
v 0.122118 0.332824 0.000000
v 0.182501 0.208864 0.000000
v 0.122118 0.076125 0.000000
v 0.122118 0.000000 0.000000
vt 0.868078 0.398956
vt 0.879506 0.413870
vt 0.879506 0.403752
vt 0.876718 0.414108
vt 0.866080 0.419340
vt 0.866080 0.403752
vt 0.937092 0.403752
vt 0.937092 0.419340
vt 0.866080 0.413211
vt 0.937092 0.411358
vt 0.826294 0.451022
vt 0.826294 0.472664
vt 0.782550 0.472665
vt 0.782550 0.451022
vt 0.882940 0.451022
vt 0.882940 0.472665
vt 0.870038 0.472665
vt 0.870038 0.451022
vt 0.882940 0.395472
vt 0.870038 0.395472
vt 0.826294 0.395472
vt 0.782550 0.395472
vt 0.826294 0.364247
vt 0.782550 0.364247
vt 0.882940 0.364247
vt 0.870038 0.364247
vt 0.877437 0.417243
vt 0.877437 0.472284
vt 0.861229 0.472284
vt 0.861229 0.417243
vt 0.936332 0.419640
vt 0.936332 0.472309
vt 0.886917 0.472309
vt 0.886917 0.419640
vt 0.936332 0.366972
vt 0.886917 0.366972
vt 0.783320 0.472284
vt 0.783320 0.417243
vt 0.877437 0.362644
vt 0.864961 0.362644
vt 0.876718 0.419340
vt 0.855936 0.362644
vt 0.783320 0.362644
vt 0.903916 0.253894
vt 0.904120 0.275922
vt 0.869350 0.275922
vt 0.869146 0.253894
vt 0.936345 0.253894
vt 0.936339 0.275922
vt 0.866088 0.419641
vt 0.872893 0.366972
vt 0.860618 0.472309
vt 0.939522 0.363953
vt 0.939522 0.395345
vt 0.913868 0.395345
vt 0.905135 0.363953
vt 0.939522 0.451190
vt 0.910075 0.451190
vt 0.939522 0.472948
vt 0.927350 0.472948
vt 0.939768 0.397506
vt 0.939768 0.425538
vt 0.931473 0.425538
vt 0.931837 0.397506
vt 0.939768 0.433324
vt 0.931473 0.433324
vt 0.939768 0.363387
vt 0.932883 0.363387
vt 0.871396 0.369674
vt 0.866080 0.369674
vt 0.937092 0.369674
vt 0.869140 0.364658
vt 0.943311 0.253894
vt 0.943515 0.275922
vt 0.992210 0.253894
vt 0.992414 0.275922
vt 0.876718 0.414108
vt 0.879506 0.403752
vt 0.866080 0.419340
vt 0.937092 0.419340
vt 0.937092 0.403752
vt 0.866080 0.403752
vt 0.826294 0.451022
vt 0.782550 0.451022
vt 0.782550 0.472665
vt 0.826294 0.472664
vt 0.870038 0.451022
vt 0.870038 0.472665
vt 0.870038 0.395472
vt 0.826294 0.395472
vt 0.782550 0.395472
vt 0.826294 0.364247
vt 0.782550 0.364247
vt 0.870038 0.364247
vt 0.861229 0.417243
vt 0.861229 0.472284
vt 0.936332 0.419640
vt 0.886917 0.419640
vt 0.886917 0.472309
vt 0.936332 0.472309
vt 0.936332 0.366972
vt 0.886917 0.366972
vt 0.783320 0.417243
vt 0.783320 0.472284
vt 0.864961 0.362644
vt 0.876718 0.419340
vt 0.855936 0.362644
vt 0.783320 0.362644
vt 0.903916 0.253894
vt 0.869146 0.253894
vt 0.869350 0.275922
vt 0.904120 0.275922
vt 0.936345 0.253894
vt 0.936339 0.275922
vt 0.872893 0.366972
vt 0.866088 0.419641
vt 0.860618 0.472309
vt 0.939522 0.363953
vt 0.905135 0.363953
vt 0.913868 0.395345
vt 0.939522 0.395345
vt 0.910075 0.451190
vt 0.939522 0.451190
vt 0.927350 0.472948
vt 0.939522 0.472948
vt 0.939768 0.397506
vt 0.931837 0.397506
vt 0.931473 0.425538
vt 0.939768 0.425538
vt 0.939768 0.363387
vt 0.932883 0.363387
vt 0.871396 0.369674
vt 0.866080 0.369674
vt 0.937092 0.369674
vt 0.943515 0.275922
vt 0.943311 0.253894
vn 0.0000 0.1718 0.9851
vn 0.0000 0.8737 0.4865
vn -0.4279 0.8166 0.3874
vn -0.6462 0.1462 0.7490
vn -0.9889 0.1476 -0.0198
vn -0.5179 0.8554 -0.0010
vn -0.5839 0.8030 -0.1193
vn -0.9915 0.1003 -0.0826
vn 0.0000 1.0000 0.0049
vn 0.0000 0.9942 -0.1080
vn -0.9499 0.3051 -0.0671
vn -0.6933 0.7204 0.0210
vn -0.7699 0.6373 -0.0340
vn -0.8775 0.4519 -0.1608
vn 0.0000 0.5394 0.8421
vn 0.0000 0.8241 0.5665
vn -0.3187 0.8807 0.3504
vn -0.5779 0.4969 0.6474
vn 0.0000 -0.3133 0.9497
vn -0.5729 -0.3317 0.7495
vn -0.9743 -0.2109 -0.0791
vn -0.9174 -0.1985 -0.3449
vn -0.9052 -0.4158 -0.0886
vn -0.9297 -0.2901 -0.2271
vn 0.0000 -0.7230 0.6908
vn -0.5672 -0.7247 0.3912
vn 0.0000 -0.0003 1.0000
vn 0.0000 0.2399 0.9708
vn -0.7355 0.2294 0.6374
vn -0.7249 0.0002 0.6889
vn -0.9816 -0.0103 0.1905
vn -0.9596 0.2069 0.1907
vn -0.9491 0.3087 0.0618
vn -0.9987 0.0215 0.0469
vn -0.9510 -0.2516 0.1795
vn -0.9349 -0.3487 0.0658
vn -0.9940 0.0806 -0.0734
vn -0.9974 -0.0003 -0.0716
vn 0.0000 -0.2406 0.9706
vn -0.3662 -0.1560 0.9174
vn -0.9367 -0.1030 0.3347
vn -0.9949 -0.0726 -0.0696
vn -1.0000 0.0000 -0.0000
vn -0.9239 0.0000 0.3827
vn -0.9962 -0.0194 -0.0844
vn -0.9057 -0.4228 -0.0290
vn -0.8875 0.4423 -0.1293
vn -0.9792 -0.1061 0.1732
vn -0.9851 0.0149 0.1716
vn -0.9850 -0.0103 0.1722
vn -0.9903 0.0815 0.1125
vn -0.9939 0.0649 0.0896
vn -0.9955 0.0185 0.0928
vn -0.6974 0.6989 0.1589
vn -0.6441 0.7477 0.1617
vn -0.9955 0.0206 0.0927
vn -0.0000 0.9895 0.1443
vn -0.9952 -0.0266 0.0947
vn -0.6787 -0.3593 0.6405
vn -0.9837 -0.1768 -0.0330
vn -0.9870 -0.1443 -0.0701
vn 0.0000 -0.3216 0.9469
vn -0.3827 0.0000 0.9239
vn 0.0000 0.0000 1.0000
vn 0.6462 0.1462 0.7490
vn 0.4279 0.8166 0.3874
vn 0.9889 0.1476 -0.0198
vn 0.9915 0.1003 -0.0826
vn 0.5839 0.8030 -0.1193
vn 0.5179 0.8554 -0.0010
vn 0.9499 0.3051 -0.0671
vn 0.8775 0.4519 -0.1608
vn 0.7699 0.6373 -0.0340
vn 0.6933 0.7204 0.0210
vn 0.5779 0.4969 0.6474
vn 0.3187 0.8807 0.3504
vn 0.5729 -0.3317 0.7495
vn 0.9743 -0.2109 -0.0791
vn 0.9174 -0.1985 -0.3449
vn 0.9052 -0.4158 -0.0886
vn 0.9297 -0.2901 -0.2271
vn 0.5672 -0.7247 0.3912
vn 0.7249 0.0002 0.6889
vn 0.7355 0.2294 0.6374
vn 0.9816 -0.0103 0.1905
vn 0.9987 0.0215 0.0469
vn 0.9491 0.3087 0.0618
vn 0.9596 0.2069 0.1907
vn 0.9510 -0.2516 0.1795
vn 0.9349 -0.3487 0.0658
vn 0.9974 -0.0003 -0.0716
vn 0.9940 0.0806 -0.0734
vn 0.3662 -0.1560 0.9174
vn 0.9367 -0.1030 0.3347
vn 0.9949 -0.0726 -0.0696
vn 1.0000 -0.0000 0.0000
vn 0.9239 -0.0000 0.3827
vn 0.9057 -0.4228 -0.0290
vn 0.9962 -0.0194 -0.0844
vn 0.8875 0.4423 -0.1293
vn 0.9792 -0.1061 0.1732
vn 0.9850 -0.0103 0.1722
vn 0.9851 0.0149 0.1716
vn 0.9939 0.0649 0.0896
vn 0.9903 0.0815 0.1125
vn 0.9955 0.0185 0.0928
vn 0.9955 0.0206 0.0927
vn 0.6441 0.7477 0.1617
vn 0.6974 0.6989 0.1589
vn 0.9952 -0.0266 0.0947
vn 0.6787 -0.3593 0.6405
vn 0.9837 -0.1768 -0.0330
vn 0.9870 -0.1443 -0.0701
vn 0.3827 0.0000 0.9239
s 1
f 75/1/1 64/2/2 1/3/3 23/4/4
f 25/5/5 13/6/6 3/7/7 24/8/8
f 70/9/9 65/10/10 3/7/7 13/6/6
f 15/11/11 14/12/12 5/13/13 7/14/14
f 67/15/15 66/16/16 4/17/17 6/18/18
f 68/19/19 67/15/15 6/18/18 8/20/20
f 16/21/21 15/11/11 7/14/14 9/22/22
f 17/23/23 16/21/21 9/22/22 11/24/24
f 69/25/25 68/19/19 8/20/20 10/26/26
f 56/27/27 69/28/28 10/29/29 21/30/30
f 18/31/31 17/32/32 11/33/33 19/34/34
f 22/35/35 18/31/31 19/34/34 20/36/36
f 21/30/30 10/29/29 17/37/37 18/38/38
f 71/39/39 56/27/27 21/30/30 29/40/40
f 10/26/26 8/20/20 16/21/21 17/23/23
f 8/20/20 6/18/18 15/11/11 16/21/21
f 6/18/18 4/17/17 14/12/12 15/11/11
f 64/2/2 70/9/9 13/6/6 1/3/3
f 23/41/4 1/3/3 13/6/6 25/5/5
f 28/42/41 21/30/30 18/38/38 22/43/42
f 12/44/43 22/45/43 20/46/43 2/47/43
f 27/48/44 28/49/41 22/45/43 12/44/43
f 20/36/36 19/34/34 37/50/45 38/51/46
f 19/34/34 11/33/33 36/52/47 37/50/45
f 11/53/48 9/54/49 35/55/50 36/56/48
f 9/54/49 7/57/51 33/58/52 35/55/50
f 7/57/51 5/59/43 34/60/43 33/58/52
f 24/61/53 3/62/54 31/63/55 32/64/56
f 65/65/57 81/66/57 31/63/55 3/62/54
f 5/67/58 24/61/53 32/64/56 34/68/58
f 4/69/59 23/41/4 25/5/5 14/70/60
f 14/70/60 25/5/5 24/8/8 5/71/61
f 66/72/62 75/1/1 23/4/4 4/69/59
f 28/42/41 29/40/40 21/30/30
f 28/49/41 27/48/44 26/73/63 29/74/40
f 63/75/64 71/76/64 29/74/40 26/73/63
f 75/1/1 72/77/65 40/78/66 64/2/2
f 74/79/67 73/80/68 42/81/69 52/82/70
f 70/9/9 52/82/70 42/81/69 65/10/10
f 54/83/71 46/84/72 44/85/73 53/86/74
f 67/15/15 45/87/75 43/88/76 66/16/16
f 68/19/19 47/89/77 45/87/75 67/15/15
f 55/90/78 48/91/79 46/84/72 54/83/71
f 57/92/80 50/93/81 48/91/79 55/90/78
f 69/25/25 49/94/82 47/89/77 68/19/19
f 56/27/27 61/95/83 49/96/84 69/28/28
f 58/97/85 59/98/86 50/99/87 57/100/88
f 62/101/89 60/102/90 59/98/86 58/97/85
f 61/95/83 58/103/91 57/104/92 49/96/84
f 71/39/39 79/105/93 61/95/83 56/27/27
f 49/94/82 57/92/80 55/90/78 47/89/77
f 47/89/77 55/90/78 54/83/71 45/87/75
f 45/87/75 54/83/71 53/86/74 43/88/76
f 64/2/2 40/78/66 52/82/70 70/9/9
f 72/106/65 74/79/67 52/82/70 40/78/66
f 78/107/94 62/108/95 58/103/91 61/95/83
f 51/109/96 41/110/96 60/111/96 62/112/96
f 77/113/97 51/109/96 62/112/96 78/114/94
f 60/102/90 89/115/98 88/116/99 59/98/86
f 59/98/86 88/116/99 87/117/100 50/99/87
f 50/118/101 87/119/101 86/120/102 48/121/103
f 48/121/103 86/120/102 84/122/104 46/123/105
f 46/123/105 84/122/104 85/124/96 44/125/96
f 73/126/106 83/127/107 82/128/108 42/129/109
f 65/65/57 42/129/109 82/128/108 81/66/57
f 44/130/110 85/131/110 83/127/107 73/126/106
f 43/132/111 53/133/112 74/79/67 72/106/65
f 53/133/112 44/134/113 73/80/68 74/79/67
f 66/72/62 43/132/111 72/77/65 75/1/1
f 78/107/94 61/95/83 79/105/93
f 78/114/94 79/135/93 76/136/114 77/113/97
f 63/75/64 76/136/114 79/135/93 71/76/64
l 39 2
l 30 38
l 90 41
l 80 89
