# Blender v2.82 (sub 7) OBJ File: 'fences.blend'
# www.blender.org
o fence17_linked_Cube.016
v -0.309239 0.592158 0.142031
v -0.283872 0.641581 0.112377
v -0.308051 0.578979 0.043185
v -0.286929 0.621812 -0.000000
v -0.323487 0.000000 -0.323487
v -0.287688 0.646524 0.212871
v -0.304146 0.628402 0.244172
v -0.292420 0.656408 0.295242
v -0.309284 0.615222 0.339723
v -0.292420 0.634992 0.369377
v -0.322943 0.592158 0.451749
v -0.206570 0.742242 0.369377
v -0.209134 0.739148 0.112377
v -0.211043 0.741706 0.212871
v -0.213409 0.746824 0.295242
v -0.210663 0.729389 -0.000000
v -0.323487 0.050629 -0.323487
v -0.311115 0.063002 -0.311115
v -0.281400 0.392399 -0.000000
v -0.302458 0.278726 0.065252
v -0.269379 0.346271 0.127854
v -0.342254 0.229303 0.203636
v -0.299704 0.338034 0.279418
v -0.311490 0.270489 0.333784
v -0.274594 0.351213 0.386502
v -0.311303 0.323207 0.444162
v -0.279610 0.348581 0.500000
v -0.218285 0.561756 -0.000000
v -0.206264 0.561390 0.127854
v -0.236589 0.567453 0.279418
v -0.211479 0.572052 0.386502
v -0.216495 0.571133 0.500000
v -0.288568 0.509871 -0.000000
v -0.322152 0.453812 0.058525
v -0.314698 0.530464 0.163778
v -0.332547 0.403474 0.287335
v -0.305813 0.488134 0.333097
v -0.321081 0.456100 0.393732
v -0.311587 0.525887 0.405173
v -0.321081 0.457244 0.442926
v -0.308377 0.504902 0.500000
v -0.169487 0.672116 -0.000000
v -0.195617 0.675231 0.163778
v -0.186732 0.681364 0.333097
v -0.192506 0.680983 0.405173
v -0.189297 0.681195 0.500000
v -0.256785 0.238656 -0.000000
v -0.266377 0.182598 0.058525
v -0.282915 0.258078 0.122791
v -0.276772 0.152167 0.180770
v -0.274030 0.256735 0.296795
v -0.278703 0.142728 0.337058
v -0.279805 0.254673 0.405173
v -0.279876 0.152644 0.419092
v -0.277670 0.255435 0.500000
v -0.213629 0.400902 -0.000000
v -0.239759 0.404016 0.163778
v -0.230874 0.410150 0.333097
v -0.236648 0.409769 0.405173
v -0.233438 0.409980 0.500000
v -0.293093 0.075131 -0.000000
v -0.276943 0.125469 0.079118
v -0.300562 0.068266 0.139752
v -0.276943 0.112884 0.203819
v -0.318125 0.069410 0.245005
v -0.276943 0.102588 0.304496
v -0.269597 0.068266 0.378860
v -0.276943 0.107164 0.417757
v -0.276943 0.131189 -0.000000
v -0.243239 0.334587 0.079118
v -0.243239 0.322003 0.203819
v -0.243239 0.311706 0.304496
v -0.229394 0.316282 0.417757
v -0.214116 0.340307 -0.000000
v -0.323487 0.050629 0.500000
v -0.323487 0.000000 0.500000
v -0.311115 0.063002 0.500000
v -0.276943 0.105037 0.500000
v -0.206964 0.742506 0.500000
v -0.292420 0.636224 0.500000
v -0.235830 0.314155 0.500000
v -0.345664 0.069285 0.500000
v -0.241889 0.586264 -0.089060
v -0.204250 0.643777 -0.068485
v -0.147813 0.590786 -0.149784
v -0.133171 0.524201 -0.087445
v -0.101638 0.670239 -0.048356
v -0.083660 0.474625 -0.132253
v -0.216236 0.413969 -0.079624
v -0.139236 0.396589 -0.084403
v -0.108007 0.561677 -0.051128
v -0.086321 0.336126 -0.129410
v -0.239381 0.324844 -0.115152
v -0.151479 0.231409 -0.053816
v -0.129901 0.393655 -0.045874
v -0.076010 0.177731 -0.126722
v -0.226741 0.177443 -0.063829
v -0.148947 0.127264 -0.066259
v -0.117533 0.336383 -0.044541
v -0.025629 0.063615 -0.137007
v -0.236997 0.059249 -0.056124
v 0.309239 0.592158 0.142031
v 0.283872 0.641581 0.112377
v 0.308051 0.578979 0.043185
v 0.286929 0.621812 0.000000
v 0.000000 0.794869 0.000000
v -0.000000 0.794618 0.112377
v -0.000000 0.795144 0.295242
v -0.000000 0.794793 0.212871
v 0.323487 0.000000 -0.323487
v 0.287688 0.646524 0.212871
v 0.304146 0.628402 0.244172
v 0.292420 0.656408 0.295242
v 0.309284 0.615222 0.339723
v 0.292420 0.634992 0.369377
v 0.322943 0.592158 0.451749
v -0.000000 0.063002 0.000000
v -0.000000 0.783261 0.369377
v 0.206570 0.742242 0.369377
v 0.209134 0.739148 0.112377
v 0.211043 0.741706 0.212871
v 0.213409 0.746824 0.295242
v 0.210663 0.729389 0.000000
v 0.323487 0.050629 -0.323487
v 0.311115 0.063002 -0.311115
v 0.281400 0.392399 0.000000
v 0.302458 0.278726 0.065252
v 0.269379 0.346271 0.127854
v 0.342254 0.229303 0.203636
v 0.299704 0.338034 0.279418
v 0.311490 0.270489 0.333784
v 0.274594 0.351213 0.386502
v 0.311303 0.323207 0.444162
v 0.279610 0.348581 0.500000
v 0.218285 0.561756 0.000000
v 0.206264 0.561390 0.127854
v 0.236589 0.567453 0.279418
v 0.211479 0.572052 0.386502
v 0.216495 0.571133 0.500000
v 0.288568 0.509871 0.000000
v 0.322152 0.453812 0.058525
v 0.314698 0.530464 0.163778
v 0.332547 0.403474 0.287335
v 0.305813 0.488134 0.333097
v 0.321081 0.456100 0.393732
v 0.311587 0.525887 0.405173
v 0.321081 0.457244 0.442926
v 0.308377 0.504902 0.500000
v 0.169487 0.672116 0.000000
v 0.195617 0.675231 0.163778
v 0.186732 0.681364 0.333097
v 0.192506 0.680983 0.405173
v 0.189297 0.681195 0.500000
v 0.256785 0.238656 0.000000
v 0.266377 0.182598 0.058525
v 0.282915 0.258078 0.122791
v 0.276772 0.152167 0.180770
v 0.274030 0.256735 0.296795
v 0.278703 0.142728 0.337058
v 0.279804 0.254673 0.405173
v 0.279876 0.152644 0.419092
v 0.277670 0.255435 0.500000
v 0.213629 0.400902 0.000000
v 0.239759 0.404016 0.163778
v 0.230874 0.410150 0.333097
v 0.236648 0.409769 0.405173
v 0.233438 0.409980 0.500000
v 0.293093 0.075131 0.000000
v 0.276943 0.125469 0.079118
v 0.300562 0.068266 0.139752
v 0.276943 0.112884 0.203819
v 0.318125 0.069410 0.245005
v 0.276943 0.102588 0.304496
v 0.269597 0.068266 0.378860
v 0.276943 0.107164 0.417757
v 0.276943 0.131189 0.000000
v 0.243239 0.334587 0.079118
v 0.243239 0.322003 0.203819
v 0.243239 0.311706 0.304496
v 0.229394 0.316282 0.417757
v 0.214116 0.340307 0.000000
v 0.323487 0.050629 0.500000
v 0.323487 0.000000 0.500000
v -0.000000 0.063002 0.500000
v 0.311115 0.063002 0.500000
v 0.276943 0.105037 0.500000
v -0.000000 0.783945 0.500000
v 0.206964 0.742506 0.500000
v 0.292420 0.636224 0.500000
v 0.235830 0.314155 0.500000
v 0.345664 0.069285 0.500000
v 0.241889 0.586264 -0.089060
v 0.204250 0.643777 -0.068485
v 0.147813 0.590786 -0.149784
v 0.000000 0.632769 -0.112107
v 0.133171 0.524201 -0.087445
v 0.101638 0.670239 -0.048356
v 0.000000 0.530368 -0.111645
v 0.000000 0.672028 -0.059209
v 0.083660 0.474625 -0.132253
v 0.216236 0.413969 -0.079624
v 0.000000 0.396208 -0.109866
v 0.000000 0.561599 -0.082678
v 0.139236 0.396589 -0.084403
v 0.108007 0.561677 -0.051128
v 0.086321 0.336126 -0.129410
v 0.239381 0.324844 -0.115152
v 0.000000 0.224162 -0.093269
v 0.000000 0.386408 -0.077384
v 0.151479 0.231409 -0.053816
v 0.129901 0.393655 -0.045874
v 0.076010 0.177731 -0.126722
v 0.226741 0.177443 -0.063829
v 0.000000 0.120823 -0.091111
v 0.000000 0.329942 -0.047674
v 0.148947 0.127264 -0.066259
v 0.117533 0.336383 -0.044541
v 0.025629 0.063615 -0.137007
v 0.236997 0.059249 -0.056124
vt 0.848554 0.143363
vt 0.855831 0.150104
vt 0.836893 0.154069
vt 0.876608 0.136970
vt 0.888584 0.158635
vt 0.772389 0.136969
vt 0.790524 0.153256
vt 0.762002 0.149535
vt 0.797562 0.138874
vt 0.815958 0.153133
vt 0.823761 0.146794
vt 0.855461 0.184882
vt 0.887842 0.189573
vt 0.889943 0.239591
vt 0.856017 0.238339
vt 0.791254 0.184369
vt 0.816403 0.184084
vt 0.816563 0.239160
vt 0.791195 0.239160
vt 0.837261 0.239118
vt 0.836909 0.184150
vt 0.762820 0.239100
vt 0.762957 0.183019
vt 0.887831 0.189101
vt 0.850680 0.097205
vt 0.857929 0.114750
vt 0.838691 0.110758
vt 0.827243 0.082460
vt 0.817336 0.106200
vt 0.804485 0.065310
vt 0.787303 0.108729
vt 0.774379 0.084770
vt 0.762319 0.123947
vt 0.787124 0.180551
vt 0.762178 0.180490
vt 0.838507 0.184490
vt 0.817145 0.182797
vt 0.857753 0.185299
vt 0.848667 0.112820
vt 0.857077 0.129939
vt 0.841372 0.134019
vt 0.837144 0.113093
vt 0.826845 0.126527
vt 0.817931 0.099400
vt 0.795216 0.139582
vt 0.773483 0.121465
vt 0.764148 0.143748
vt 0.797888 0.197391
vt 0.767366 0.205766
vt 0.842952 0.194441
vt 0.829528 0.196589
vt 0.858572 0.195351
vt 0.856916 0.079734
vt 0.864167 0.097376
vt 0.848224 0.100399
vt 0.845401 0.079238
vt 0.834229 0.091956
vt 0.827144 0.064295
vt 0.801800 0.102874
vt 0.781324 0.083348
vt 0.770523 0.104959
vt 0.802360 0.143717
vt 0.771077 0.148525
vt 0.847464 0.145971
vt 0.833882 0.146560
vt 0.862876 0.148672
vt 0.783179 0.045113
vt 0.798351 0.060307
vt 0.783178 0.061886
vt 0.809916 0.042424
vt 0.822270 0.056806
vt 0.829860 0.039281
vt 0.841580 0.053941
vt 0.855854 0.043898
vt 0.863295 0.055304
vt 0.863350 0.123939
vt 0.841499 0.121817
vt 0.822189 0.124682
vt 0.798271 0.128183
vt 0.782232 0.131625
vt 0.801997 0.002585
vt 0.801997 0.017024
vt 0.755462 0.017024
vt 0.755462 0.002585
vt 0.879070 0.057544
vt 0.879125 0.126178
vt 0.802750 0.023125
vt 0.802750 0.023125
vt 0.755462 0.023125
vt 0.755462 0.023125
vt 0.879702 0.033790
vt 0.757627 0.134349
vt 0.758745 0.149606
vt 0.758745 0.149606
vt 0.757627 0.134349
vt 0.758745 0.149606
vt 0.759197 0.182992
vt 0.759351 0.239436
vt 0.767366 0.205766
vt 0.764148 0.143748
vt 0.767366 0.205766
vt 0.764148 0.143748
vt 0.766345 0.143503
vt 0.766284 0.143687
vt 0.766455 0.090154
vt 0.766301 0.143748
vt 0.763379 0.143748
vt 0.765966 0.088735
vt 0.762319 0.123947
vt 0.762178 0.180490
vt 0.762178 0.180490
vt 0.762319 0.123947
vt 0.762900 0.123947
vt 0.761737 0.123947
vt 0.763869 0.071821
vt 0.763675 0.123947
vt 0.761156 0.123947
vt 0.762900 0.059420
vt 0.770523 0.104959
vt 0.771077 0.148525
vt 0.771077 0.148525
vt 0.770523 0.104959
vt 0.770923 0.104791
vt 0.774892 0.064260
vt 0.771271 0.104764
vt 0.770166 0.104812
vt 0.774417 0.075979
vt 0.783178 0.061886
vt 0.782232 0.131625
vt 0.782232 0.131625
vt 0.783178 0.061886
vt 0.783178 0.061886
vt 0.783178 0.061886
vt 0.848554 0.143363
vt 0.836893 0.154069
vt 0.855831 0.150104
vt 0.876608 0.136970
vt 0.888584 0.158635
vt 0.772389 0.136969
vt 0.762002 0.149535
vt 0.790524 0.153256
vt 0.797562 0.138874
vt 0.815958 0.153133
vt 0.823761 0.146794
vt 0.855461 0.184882
vt 0.887842 0.189573
vt 0.791254 0.184369
vt 0.816403 0.184084
vt 0.836909 0.184150
vt 0.762957 0.183019
vt 0.887831 0.189101
vt 0.850680 0.097205
vt 0.838691 0.110758
vt 0.857929 0.114750
vt 0.827243 0.082460
vt 0.817336 0.106200
vt 0.804485 0.065310
vt 0.787303 0.108729
vt 0.774379 0.084770
vt 0.762319 0.123947
vt 0.762178 0.180490
vt 0.787124 0.180551
vt 0.817145 0.182797
vt 0.838507 0.184490
vt 0.857753 0.185299
vt 0.848667 0.112820
vt 0.841372 0.134019
vt 0.857077 0.129939
vt 0.837144 0.113093
vt 0.826845 0.126527
vt 0.817931 0.099400
vt 0.795216 0.139582
vt 0.773483 0.121465
vt 0.764148 0.143748
vt 0.767366 0.205766
vt 0.797888 0.197391
vt 0.829528 0.196589
vt 0.842952 0.194441
vt 0.858572 0.195351
vt 0.856916 0.079734
vt 0.848224 0.100399
vt 0.864167 0.097376
vt 0.845401 0.079238
vt 0.834229 0.091956
vt 0.827144 0.064295
vt 0.801800 0.102874
vt 0.781324 0.083348
vt 0.770523 0.104959
vt 0.771077 0.148525
vt 0.802360 0.143717
vt 0.833882 0.146560
vt 0.847464 0.145971
vt 0.862876 0.148672
vt 0.783179 0.045113
vt 0.783178 0.061886
vt 0.798351 0.060307
vt 0.809916 0.042424
vt 0.822270 0.056806
vt 0.829860 0.039281
vt 0.841580 0.053941
vt 0.855854 0.043898
vt 0.863295 0.055304
vt 0.841499 0.121817
vt 0.863350 0.123939
vt 0.798271 0.128183
vt 0.822189 0.124682
vt 0.782232 0.131625
vt 0.801997 0.002585
vt 0.755462 0.002585
vt 0.755462 0.017024
vt 0.801997 0.017024
vt 0.879070 0.057544
vt 0.879125 0.126178
vt 0.802750 0.023125
vt 0.755462 0.023125
vt 0.879702 0.033790
vt 0.757627 0.134349
vt 0.758745 0.149606
vt 0.758745 0.149606
vt 0.757627 0.134349
vt 0.759197 0.182992
vt 0.764148 0.143748
vt 0.767366 0.205766
vt 0.766345 0.143503
vt 0.766455 0.090154
vt 0.766301 0.143748
vt 0.765966 0.088735
vt 0.763379 0.143748
vt 0.762319 0.123947
vt 0.762178 0.180490
vt 0.762900 0.123947
vt 0.763869 0.071821
vt 0.763675 0.123947
vt 0.762900 0.059420
vt 0.761156 0.123947
vt 0.770523 0.104959
vt 0.771077 0.148525
vt 0.774892 0.064260
vt 0.771271 0.104764
vt 0.774417 0.075979
vt 0.770166 0.104812
vt 0.783178 0.061886
vt 0.782232 0.131625
vt 0.783178 0.061886
vt 0.783178 0.061886
vn -0.8501 0.5059 0.1462
vn -0.7976 0.5986 0.0737
vn -0.7858 0.6176 0.0317
vn -0.8193 0.5734 -0.0054
vn -0.7939 0.6080 -0.0050
vn -0.9136 0.4039 -0.0462
vn -0.8375 0.5439 -0.0535
vn -0.7957 0.5366 -0.2809
vn -0.9014 0.4294 -0.0554
vn -0.8047 0.5892 -0.0736
vn -0.8254 0.5530 -0.1138
vn -0.5120 0.8563 0.0683
vn -0.5193 0.8546 -0.0046
vn 0.0000 1.0000 -0.0039
vn 0.0000 0.9983 0.0587
vn -0.5534 0.8318 -0.0422
vn -0.5364 0.8425 -0.0498
vn 0.0000 0.9997 -0.0264
vn 0.0000 0.9996 -0.0281
vn 0.0000 0.9992 0.0412
vn -0.5239 0.8510 0.0362
vn -0.0000 0.8972 -0.4417
vn -0.5092 0.7538 -0.4152
vn -0.6153 0.7882 -0.0089
vn -0.8926 0.4499 -0.0305
vn -0.9310 0.3531 0.0925
vn -0.9338 0.3086 0.1810
vn -0.9465 0.3226 0.0054
vn -0.8800 0.4501 -0.1516
vn -0.9470 0.3210 -0.0099
vn -0.9398 0.2835 0.1907
vn -0.8542 0.4312 -0.2906
vn -0.9560 0.2926 -0.0219
vn -0.8205 0.3110 -0.4797
vn -0.9594 0.2711 0.0778
vn -0.9624 0.2715 0.0114
vn -0.9611 0.2736 -0.0382
vn -0.9819 0.1754 0.0721
vn -0.8981 0.4313 0.0856
vn -0.8924 0.4470 -0.0625
vn -0.9740 0.1590 -0.1613
vn -0.9120 0.4095 -0.0244
vn -0.9634 0.2439 0.1115
vn -0.8509 0.5245 -0.0287
vn -0.9170 0.3506 -0.1904
vn -0.7419 0.4692 -0.4790
vn -0.8035 0.5943 -0.0334
vn -0.6631 0.4874 -0.5682
vn -0.8173 0.5730 -0.0605
vn -0.8203 0.5694 -0.0532
vn -0.8087 0.5812 0.0910
vn -0.9997 0.0038 0.0225
vn -0.9840 0.1763 0.0248
vn -0.9873 0.1582 -0.0129
vn -0.9984 0.0223 -0.0528
vn -0.9855 0.1698 -0.0045
vn -0.9983 -0.0301 0.0507
vn -0.9818 0.1714 -0.0815
vn -0.9786 -0.0429 -0.2015
vn -0.7791 0.2602 -0.5703
vn -0.9593 0.2771 -0.0539
vn -0.7575 0.2168 -0.6158
vn -0.9617 0.2736 -0.0162
vn -0.9623 0.2716 -0.0137
vn -0.9621 0.2715 0.0257
vn -0.9607 0.2768 0.0200
vn -0.9702 0.2393 -0.0382
vn -0.8432 0.2838 -0.4566
vn -0.9069 0.4193 0.0423
vn -0.9485 0.3153 0.0321
vn -0.6881 0.7218 0.0738
vn -0.9686 0.2454 0.0406
vn -0.9811 -0.1931 0.0078
vn -0.9644 0.2640 0.0125
vn -0.9799 0.1991 0.0093
vn -0.9840 0.1746 0.0340
vn -0.9871 0.1591 0.0162
vn -0.9779 0.1936 -0.0790
vn -0.7443 0.1993 -0.6374
vn -1.0000 0.0000 -0.0000
vn -0.9239 0.3827 -0.0000
vn -0.9576 0.2880 -0.0000
vn -0.7926 0.6097 -0.0051
vn -0.9777 0.2073 -0.0329
vn -0.3827 0.9239 -0.0000
vn 0.0000 1.0000 -0.0000
vn -0.5526 0.8334 -0.0000
vn -0.4614 0.8869 0.0229
vn -0.6030 0.5876 -0.5395
vn -0.3865 0.6129 -0.6892
vn -0.0810 0.8084 -0.5831
vn 0.0000 0.6573 -0.7536
vn -0.3219 0.3354 -0.8854
vn -0.3485 0.3756 -0.8588
vn 0.0000 0.3183 -0.9480
vn -0.0000 0.3959 -0.9183
vn -0.1732 0.5596 -0.8105
vn -0.4878 0.3097 -0.8162
vn -0.3318 0.3790 -0.8638
vn -0.3374 0.2072 -0.9183
vn 0.0000 0.2006 -0.9797
vn 0.0000 0.3010 -0.9536
vn -0.1545 0.4993 -0.8525
vn -0.3580 0.7424 -0.5662
vn -0.3344 0.2962 -0.8947
vn -0.3477 0.1002 -0.9322
vn 0.0000 0.0895 -0.9960
vn 0.0000 0.3440 -0.9390
vn -0.1421 0.7211 -0.6781
vn -0.3317 0.5980 -0.7296
vn -0.2850 0.2627 -0.9218
vn -0.2609 0.1549 -0.9529
vn 0.0000 0.1610 -0.9870
vn 0.0000 0.4114 -0.9115
vn -0.0978 0.6491 -0.7544
vn -0.4096 0.4088 -0.8155
vn 0.8501 0.5059 0.1462
vn 0.7858 0.6176 0.0317
vn 0.7976 0.5986 0.0737
vn 0.8193 0.5734 -0.0054
vn 0.7939 0.6080 -0.0050
vn 0.9136 0.4039 -0.0462
vn 0.7957 0.5366 -0.2809
vn 0.8375 0.5439 -0.0535
vn 0.9014 0.4294 -0.0554
vn 0.8047 0.5892 -0.0736
vn 0.8254 0.5530 -0.1138
vn 0.5120 0.8563 0.0683
vn 0.5193 0.8546 -0.0046
vn 0.5534 0.8318 -0.0422
vn 0.5364 0.8425 -0.0498
vn 0.5239 0.8510 0.0362
vn 0.5092 0.7538 -0.4152
vn 0.6153 0.7882 -0.0089
vn 0.9310 0.3531 0.0925
vn 0.8926 0.4499 -0.0305
vn 0.9338 0.3086 0.1810
vn 0.9465 0.3226 0.0054
vn 0.8800 0.4501 -0.1516
vn 0.9470 0.3210 -0.0099
vn 0.9398 0.2835 0.1907
vn 0.8542 0.4312 -0.2906
vn 0.8205 0.3110 -0.4797
vn 0.9560 0.2926 -0.0219
vn 0.9624 0.2715 0.0114
vn 0.9594 0.2711 0.0778
vn 0.9611 0.2736 -0.0382
vn 0.9819 0.1754 0.0721
vn 0.8924 0.4470 -0.0625
vn 0.8981 0.4313 0.0856
vn 0.9740 0.1590 -0.1613
vn 0.9120 0.4095 -0.0244
vn 0.9634 0.2439 0.1115
vn 0.8509 0.5245 -0.0287
vn 0.9170 0.3506 -0.1904
vn 0.7419 0.4692 -0.4790
vn 0.6631 0.4874 -0.5682
vn 0.8035 0.5943 -0.0334
vn 0.8203 0.5694 -0.0532
vn 0.8173 0.5730 -0.0605
vn 0.8087 0.5812 0.0910
vn 0.9997 0.0038 0.0225
vn 0.9873 0.1582 -0.0129
vn 0.9840 0.1763 0.0248
vn 0.9984 0.0223 -0.0528
vn 0.9855 0.1698 -0.0045
vn 0.9983 -0.0301 0.0507
vn 0.9818 0.1714 -0.0815
vn 0.9786 -0.0429 -0.2015
vn 0.7791 0.2602 -0.5703
vn 0.7575 0.2168 -0.6158
vn 0.9593 0.2771 -0.0539
vn 0.9623 0.2716 -0.0137
vn 0.9617 0.2736 -0.0162
vn 0.9621 0.2715 0.0257
vn 0.9607 0.2768 0.0200
vn 0.8432 0.2838 -0.4566
vn 0.9702 0.2393 -0.0382
vn 0.9069 0.4193 0.0423
vn 0.9485 0.3153 0.0321
vn 0.6881 0.7218 0.0738
vn 0.9686 0.2454 0.0406
vn 0.9811 -0.1931 0.0078
vn 0.9644 0.2640 0.0125
vn 0.9840 0.1746 0.0340
vn 0.9799 0.1991 0.0093
vn 0.9779 0.1936 -0.0790
vn 0.9871 0.1591 0.0162
vn 0.7443 0.1993 -0.6374
vn 1.0000 0.0000 0.0000
vn 0.9576 0.2880 0.0000
vn 0.9239 0.3827 0.0000
vn 0.7926 0.6097 -0.0051
vn 0.9777 0.2073 -0.0329
vn 0.3827 0.9239 0.0000
vn 0.5526 0.8334 0.0000
vn 0.4614 0.8869 0.0229
vn 0.6030 0.5876 -0.5395
vn 0.3865 0.6129 -0.6892
vn 0.0810 0.8084 -0.5831
vn 0.3485 0.3756 -0.8588
vn 0.3219 0.3354 -0.8854
vn 0.1732 0.5596 -0.8105
vn 0.4878 0.3097 -0.8162
vn 0.3318 0.3790 -0.8638
vn 0.3374 0.2072 -0.9183
vn 0.1545 0.4993 -0.8525
vn 0.3580 0.7424 -0.5662
vn 0.3344 0.2962 -0.8947
vn 0.3477 0.1002 -0.9322
vn 0.1421 0.7211 -0.6781
vn 0.3317 0.5980 -0.7296
vn 0.2850 0.2627 -0.9218
vn 0.2609 0.1549 -0.9529
vn 0.0978 0.6491 -0.7544
vn 0.4096 0.4088 -0.8155
s 1
f 9/1/1 10/2/2 8/3/3
f 11/4/4 80/5/5 10/2/2
f 3/6/6 2/7/7 4/8/8
f 1/9/9 6/10/10 2/7/7
f 7/11/11 8/3/3 6/10/10
f 12/12/12 79/13/13 187/14/14 118/15/15
f 13/16/16 14/17/17 109/18/18 107/19/19
f 12/12/12 118/15/15 108/20/20 15/21/21
f 13/16/16 107/19/19 106/22/22 16/23/23
f 14/17/17 15/21/21 108/20/20 109/18/18
f 6/10/10 8/3/3 15/21/21 14/17/17
f 2/7/7 13/16/16 16/23/23 4/8/8
f 10/2/2 12/12/12 15/21/21 8/3/3
f 2/7/7 6/10/10 14/17/17 13/16/16
f 10/2/2 80/5/5 79/24/13 12/12/12
f 26/25/24 27/26/25 25/27/26
f 24/28/27 25/27/26 23/29/28
f 22/30/29 23/29/28 21/31/30
f 20/32/31 21/31/30 19/33/32
f 19/33/32 21/31/30 29/34/33 28/35/34
f 23/29/28 25/27/26 31/36/35 30/37/36
f 23/29/28 30/37/36 29/34/33 21/31/30
f 25/27/26 27/26/25 32/38/37 31/36/35
f 40/39/38 41/40/39 39/41/40
f 38/42/41 39/41/40 37/43/42
f 36/44/43 37/43/42 35/45/44
f 34/46/45 35/45/44 33/47/46
f 33/47/46 35/45/44 43/48/47 42/49/48
f 37/43/42 39/41/40 45/50/49 44/51/50
f 37/43/42 44/51/50 43/48/47 35/45/44
f 41/40/39 46/52/51 45/50/49 39/41/40
f 54/53/52 55/54/53 53/55/54
f 52/56/55 53/55/54 51/57/56
f 50/58/57 51/57/56 49/59/58
f 48/60/59 49/59/58 47/61/60
f 47/61/60 49/59/58 57/62/61 56/63/62
f 51/57/56 53/55/54 59/64/63 58/65/64
f 51/57/56 58/65/64 57/62/61 49/59/58
f 55/54/53 60/66/65 59/64/63 53/55/54
f 61/67/66 62/68/67 69/69/68
f 63/70/69 64/71/70 62/68/67
f 65/72/71 66/73/72 64/71/70
f 67/74/73 68/75/74 66/73/72
f 68/75/74 73/76/75 72/77/76 66/73/72
f 64/71/70 71/78/77 70/79/78 62/68/67
f 64/71/70 66/73/72 72/77/76 71/78/77
f 62/68/67 70/79/78 74/80/79 69/69/68
f 76/81/80 75/82/81 17/83/82 5/84/80
f 78/85/83 81/86/84 73/76/75 68/75/74
f 77/87/85 184/88/86 117/89/86 18/90/87
f 75/82/81 77/87/85 18/90/87 17/83/82
f 82/91/88 78/85/83 68/75/74
f 83/92/89 4/93/8 84/94/90
f 85/95/91 84/94/90 195/96/92
f 16/97/23 84/94/90 4/93/8
f 106/98/22 195/96/92 84/94/90 16/97/23
f 33/47/46 42/49/48 87/99/93 86/100/94
f 86/100/94 87/99/93 199/101/95 198/102/96
f 86/103/94 198/104/96 88/105/97
f 33/106/46 86/107/94 89/108/98
f 90/109/99 91/110/100 203/111/101 202/112/102
f 19/33/32 28/35/34 91/110/100 90/109/99
f 90/113/99 202/114/102 92/115/103
f 19/116/32 90/117/99 93/118/104
f 94/119/105 95/120/106 209/121/107 208/122/108
f 47/61/60 56/63/62 95/120/106 94/119/105
f 94/119/105 208/123/108 96/124/109
f 47/125/60 94/126/105 97/127/110
f 98/128/111 99/129/112 215/130/113 214/131/114
f 69/69/68 74/80/79 99/129/112 98/128/111
f 98/128/111 214/131/114 100/132/115
f 69/69/68 98/128/111 101/133/116
f 114/134/117 113/135/118 115/136/119
f 116/137/120 115/136/119 189/138/121
f 104/139/122 105/140/123 103/141/124
f 102/142/125 103/141/124 111/143/126
f 112/144/127 111/143/126 113/135/118
f 119/145/128 118/15/15 187/14/14 188/146/129
f 120/147/130 107/19/19 109/18/18 121/148/131
f 119/145/128 122/149/132 108/20/20 118/15/15
f 120/147/130 123/150/133 106/22/22 107/19/19
f 121/148/131 109/18/18 108/20/20 122/149/132
f 111/143/126 121/148/131 122/149/132 113/135/118
f 103/141/124 105/140/123 123/150/133 120/147/130
f 115/136/119 113/135/118 122/149/132 119/145/128
f 103/141/124 120/147/130 121/148/131 111/143/126
f 115/136/119 119/145/128 188/151/129 189/138/121
f 133/152/134 132/153/135 134/154/136
f 131/155/137 130/156/138 132/153/135
f 129/157/139 128/158/140 130/156/138
f 127/159/141 126/160/142 128/158/140
f 126/160/142 135/161/143 136/162/144 128/158/140
f 130/156/138 137/163/145 138/164/146 132/153/135
f 130/156/138 128/158/140 136/162/144 137/163/145
f 132/153/135 138/164/146 139/165/147 134/154/136
f 147/166/148 146/167/149 148/168/150
f 145/169/151 144/170/152 146/167/149
f 143/171/153 142/172/154 144/170/152
f 141/173/155 140/174/156 142/172/154
f 140/174/156 149/175/157 150/176/158 142/172/154
f 144/170/152 151/177/159 152/178/160 146/167/149
f 144/170/152 142/172/154 150/176/158 151/177/159
f 148/168/150 146/167/149 152/178/160 153/179/161
f 161/180/162 160/181/163 162/182/164
f 159/183/165 158/184/166 160/181/163
f 157/185/167 156/186/168 158/184/166
f 155/187/169 154/188/170 156/186/168
f 154/188/170 163/189/171 164/190/172 156/186/168
f 158/184/166 165/191/173 166/192/174 160/181/163
f 158/184/166 156/186/168 164/190/172 165/191/173
f 162/182/164 160/181/163 166/192/174 167/193/175
f 168/194/176 176/195/177 169/196/178
f 170/197/179 169/196/178 171/198/180
f 172/199/181 171/198/180 173/200/182
f 174/201/183 173/200/182 175/202/184
f 175/202/184 173/200/182 179/203/185 180/204/186
f 171/198/180 169/196/178 177/205/187 178/206/188
f 171/198/180 178/206/188 179/203/185 173/200/182
f 169/196/178 176/195/177 181/207/189 177/205/187
f 183/208/190 110/209/190 124/210/191 182/211/192
f 186/212/193 175/202/184 180/204/186 190/213/194
f 185/214/195 125/215/196 117/89/86 184/88/86
f 182/211/192 124/210/191 125/215/196 185/214/195
f 191/216/197 175/202/184 186/212/193
f 192/217/198 193/218/199 105/219/123
f 194/220/200 195/96/92 193/218/199
f 123/221/133 105/219/123 193/218/199
f 106/98/22 123/221/133 193/218/199 195/96/92
f 140/174/156 196/222/201 197/223/202 149/175/157
f 196/222/201 198/102/96 199/101/95 197/223/202
f 196/224/201 200/225/203 198/104/96
f 140/226/156 201/227/204 196/228/201
f 204/229/205 202/112/102 203/111/101 205/230/206
f 126/160/142 204/229/205 205/230/206 135/161/143
f 204/231/205 206/232/207 202/114/102
f 126/233/142 207/234/208 204/235/205
f 210/236/209 208/122/108 209/121/107 211/237/210
f 154/188/170 210/236/209 211/237/210 163/189/171
f 210/236/209 212/238/211 208/123/108
f 154/239/170 213/240/212 210/241/209
f 216/242/213 214/131/114 215/130/113 217/243/214
f 176/195/177 216/242/213 217/243/214 181/207/189
f 216/242/213 218/244/215 214/131/114
f 176/195/177 219/245/216 216/242/213
l 60 32
l 167 139
