# Blender v2.82 (sub 7) OBJ File: 'fences.blend'
# www.blender.org
o fence11_unlinked_Cylinder.001
v 0.044768 0.000000 0.458819
v 0.044768 1.210713 0.458819
v 0.031656 0.000000 0.490475
v 0.031656 1.210713 0.490475
v -0.000000 0.000000 0.503588
v -0.000000 1.210713 0.503588
v -0.031656 0.000000 0.490475
v -0.031656 1.210713 0.490475
v -0.044768 0.000000 0.458819
v -0.044768 1.210713 0.458819
v -0.031656 0.000000 0.427164
v -0.031656 1.210713 0.427164
v -0.000000 0.000000 0.414051
v -0.000000 1.210713 0.414051
v 0.031656 0.000000 0.427164
v 0.031656 1.210713 0.427164
v 0.040036 1.223226 0.458819
v 0.028310 1.223226 0.487129
v -0.000000 1.223226 0.498856
v -0.028310 1.223226 0.487129
v -0.040036 1.223226 0.458819
v -0.028310 1.223226 0.430510
v -0.000000 1.223226 0.418783
v 0.028310 1.223226 0.430510
v -0.000000 1.223226 0.458819
v 0.039477 0.529652 0.000000
v 0.027915 0.501737 0.000000
v -0.000000 0.490175 0.000000
v -0.027915 0.501737 0.000000
v -0.039477 0.529652 0.000000
v -0.027915 0.557567 0.000000
v -0.000000 0.569129 0.000000
v 0.027915 0.557567 0.000000
v 0.039477 0.529652 0.465636
v 0.027915 0.501737 0.465636
v -0.000000 0.490175 0.465636
v -0.027915 0.501737 0.465636
v -0.039477 0.529652 0.465636
v -0.027915 0.557567 0.465636
v -0.000000 0.569129 0.465636
v 0.027915 0.557567 0.465636
v 0.039477 0.870332 0.000000
v 0.027915 0.842417 0.000000
v -0.000000 0.830855 0.000000
v -0.027915 0.842417 0.000000
v -0.039477 0.870332 0.000000
v -0.027915 0.898247 0.000000
v -0.000000 0.909809 0.000000
v 0.027915 0.898247 0.000000
v 0.039477 0.870332 0.465636
v 0.027915 0.842417 0.465636
v -0.000000 0.830855 0.465636
v -0.027915 0.842417 0.465636
v -0.039477 0.870332 0.465636
v -0.027915 0.898247 0.465636
v -0.000000 0.909809 0.465636
v 0.027915 0.898247 0.465636
v 0.039477 1.152400 0.000000
v 0.027915 1.124486 0.000000
v -0.000000 1.112923 0.000000
v -0.027915 1.124486 0.000000
v -0.039477 1.152400 0.000000
v -0.027915 1.180315 0.000000
v -0.000000 1.191878 0.000000
v 0.027915 1.180315 0.000000
v 0.039477 1.152401 0.473056
v 0.027915 1.124486 0.473056
v -0.000000 1.112923 0.473056
v -0.027915 1.124486 0.473056
v -0.039477 1.152401 0.473056
v -0.027915 1.180315 0.473056
v -0.000000 1.191878 0.473056
v 0.027915 1.180315 0.473056
v 0.039477 0.195138 0.000000
v 0.027915 0.167223 0.000000
v -0.000000 0.155661 0.000000
v -0.027915 0.167223 0.000000
v -0.039477 0.195138 0.000000
v -0.027915 0.223053 0.000000
v -0.000000 0.234616 0.000000
v 0.027915 0.223053 0.000000
v 0.039477 0.195138 0.465636
v 0.027915 0.167224 0.465636
v -0.000000 0.155661 0.465636
v -0.027915 0.167224 0.465636
v -0.039477 0.195138 0.465636
v -0.027915 0.223053 0.465636
v -0.000000 0.234616 0.465636
v 0.027915 0.223053 0.465636
v -0.011416 0.210749 0.000000
v -0.011416 0.210749 0.456469
v -0.011416 0.512842 0.000000
v -0.011416 0.512842 0.456469
v -0.011416 0.210749 0.055201
v -0.011416 0.512842 0.055201
v -0.011416 0.210749 0.119950
v -0.011416 0.512842 0.119950
v -0.011416 0.210749 0.188105
v -0.011416 0.512842 0.188105
v -0.011416 0.210749 0.262651
v -0.011416 0.512842 0.262651
v -0.011416 0.210749 0.323352
v -0.011416 0.512842 0.323352
v -0.011416 0.210749 0.394205
v -0.011416 0.512842 0.394205
v -0.011416 0.545019 0.000000
v -0.011416 0.545019 0.456469
v -0.011416 0.847112 0.000000
v -0.011416 0.847112 0.456469
v -0.011416 0.545019 0.055201
v -0.011416 0.847112 0.055201
v -0.011416 0.545019 0.119950
v -0.011416 0.847112 0.119950
v -0.011416 0.545019 0.188105
v -0.011416 0.847112 0.188105
v -0.011416 0.545019 0.262651
v -0.011416 0.847112 0.262651
v -0.011416 0.545019 0.323352
v -0.011416 0.847112 0.323352
v -0.011416 0.545019 0.394205
v -0.011416 0.847112 0.394205
v 0.020192 1.144311 0.016939
v -0.020192 1.144311 0.016939
v -0.020192 1.176135 0.041802
v 0.020192 1.176135 0.041802
v 0.020192 0.863676 0.376136
v -0.020192 0.863676 0.376136
v -0.020192 0.895499 0.400999
v 0.020192 0.895499 0.400999
v 0.018590 1.144311 0.400999
v -0.018590 1.144311 0.400999
v -0.018590 1.176135 0.376136
v 0.018590 1.176135 0.376136
v 0.018590 0.863676 0.041802
v -0.018590 0.863676 0.041802
v -0.018590 0.895499 0.016939
v 0.018590 0.895499 0.016939
v -0.025857 0.512842 0.027601
v -0.025857 0.210749 0.027601
v -0.025857 0.512842 0.087575
v -0.025857 0.210749 0.087575
v -0.025857 0.512842 0.154028
v -0.025857 0.210749 0.154028
v -0.025857 0.512842 0.225378
v -0.025857 0.210749 0.225378
v -0.025857 0.512842 0.293002
v -0.025857 0.210749 0.293002
v -0.025857 0.512842 0.358779
v -0.025857 0.210749 0.358779
v -0.025857 0.847112 0.358779
v -0.025857 0.545019 0.358779
v -0.025857 0.847112 0.293002
v -0.025857 0.545019 0.293002
v -0.025857 0.847112 0.225378
v -0.025857 0.545019 0.225378
v -0.025857 0.847112 0.154028
v -0.025857 0.545019 0.154028
v -0.025857 0.847112 0.087575
v -0.025857 0.545019 0.087575
v -0.025857 0.847112 0.027601
v -0.025857 0.545019 0.027601
v 0.011416 0.210749 0.000000
v 0.011416 0.210749 0.456469
v 0.011416 0.512842 0.000000
v 0.011416 0.512842 0.456469
v 0.011416 0.210749 0.055201
v 0.011416 0.512842 0.055201
v 0.011416 0.210749 0.119950
v 0.011416 0.512842 0.119950
v 0.011416 0.210749 0.188105
v 0.011416 0.512842 0.188105
v 0.011416 0.210749 0.262651
v 0.011416 0.512842 0.262651
v 0.011416 0.210749 0.323352
v 0.011416 0.512842 0.323352
v 0.011416 0.210749 0.394205
v 0.011416 0.512842 0.394205
v 0.011416 0.545019 0.000000
v 0.011416 0.545019 0.456469
v 0.011416 0.847112 0.000000
v 0.011416 0.847112 0.456469
v 0.011416 0.545019 0.055201
v 0.011416 0.847112 0.055201
v 0.011416 0.545019 0.119950
v 0.011416 0.847112 0.119950
v 0.011416 0.545019 0.188105
v 0.011416 0.847112 0.188105
v 0.011416 0.545019 0.262651
v 0.011416 0.847112 0.262651
v 0.011416 0.545019 0.323352
v 0.011416 0.847112 0.323352
v 0.011416 0.545019 0.394205
v 0.011416 0.847112 0.394205
v 0.025857 0.512842 0.027601
v 0.025857 0.210749 0.027601
v 0.025857 0.512842 0.087575
v 0.025857 0.210749 0.087575
v 0.025857 0.512842 0.154028
v 0.025857 0.210749 0.154028
v 0.025857 0.512842 0.225378
v 0.025857 0.210749 0.225378
v 0.025857 0.512842 0.293002
v 0.025857 0.210749 0.293002
v 0.025857 0.512842 0.358779
v 0.025857 0.210749 0.358779
v 0.025857 0.847112 0.358779
v 0.025857 0.545019 0.358779
v 0.025857 0.847112 0.293002
v 0.025857 0.545019 0.293002
v 0.025857 0.847112 0.225378
v 0.025857 0.545019 0.225378
v 0.025857 0.847112 0.154028
v 0.025857 0.545019 0.154028
v 0.025857 0.847112 0.087575
v 0.025857 0.545019 0.087575
v 0.025857 0.847112 0.027601
v 0.025857 0.545019 0.027601
vt 0.561859 0.437410
vt 0.561859 0.496184
vt 0.554573 0.496184
vt 0.554573 0.437410
vt 0.547287 0.496184
vt 0.547287 0.437410
vt 0.540001 0.496184
vt 0.540001 0.437410
vt 0.532715 0.496184
vt 0.532715 0.437410
vt 0.525429 0.496184
vt 0.525429 0.437410
vt 0.518143 0.496184
vt 0.518143 0.437410
vt 0.510856 0.496184
vt 0.510856 0.437410
vt 0.503570 0.496184
vt 0.510856 0.496184
vt 0.503570 0.496184
vt 0.561859 0.496184
vt 0.554573 0.496184
vt 0.547287 0.496184
vt 0.540001 0.496184
vt 0.525429 0.496184
vt 0.518143 0.496184
vt 0.532715 0.496184
vt 0.510856 0.496184
vt 0.525429 0.496184
vt 0.540001 0.496184
vt 0.554573 0.496184
vt 0.503570 0.496184
vt 0.518143 0.496184
vt 0.532715 0.496184
vt 0.547287 0.496184
vt 0.721569 0.426808
vt 0.585427 0.426808
vt 0.585427 0.420971
vt 0.721569 0.420971
vt 0.721569 0.432644
vt 0.585428 0.432644
vt 0.721569 0.438480
vt 0.585428 0.438480
vt 0.721569 0.444317
vt 0.585428 0.444317
vt 0.721569 0.450153
vt 0.585428 0.450153
vt 0.721569 0.455989
vt 0.585428 0.455989
vt 0.721569 0.461826
vt 0.585428 0.461826
vt 0.721569 0.467662
vt 0.585428 0.467662
vt 0.503570 0.437410
vt 0.721569 0.426808
vt 0.585427 0.426808
vt 0.585427 0.420971
vt 0.721569 0.420971
vt 0.721569 0.432644
vt 0.585428 0.432644
vt 0.721569 0.438480
vt 0.585428 0.438480
vt 0.721569 0.444317
vt 0.585428 0.444317
vt 0.721569 0.450153
vt 0.585428 0.450153
vt 0.721569 0.455989
vt 0.585428 0.455989
vt 0.721569 0.461826
vt 0.585428 0.461826
vt 0.721569 0.467662
vt 0.585428 0.467662
vt 0.721569 0.426808
vt 0.585427 0.426808
vt 0.585427 0.420971
vt 0.721569 0.420971
vt 0.721569 0.432644
vt 0.585428 0.432644
vt 0.721569 0.438480
vt 0.585428 0.438480
vt 0.721569 0.444317
vt 0.585428 0.444317
vt 0.721569 0.450153
vt 0.585428 0.450153
vt 0.721569 0.455989
vt 0.585428 0.455989
vt 0.721569 0.461826
vt 0.585428 0.461826
vt 0.721569 0.467662
vt 0.585428 0.467662
vt 0.721569 0.426808
vt 0.585427 0.426808
vt 0.585427 0.420971
vt 0.721569 0.420971
vt 0.721569 0.432644
vt 0.585428 0.432644
vt 0.721569 0.438480
vt 0.585428 0.438480
vt 0.721569 0.444317
vt 0.585428 0.444317
vt 0.721569 0.450153
vt 0.585428 0.450153
vt 0.721569 0.455989
vt 0.585428 0.455989
vt 0.721569 0.461826
vt 0.585428 0.461826
vt 0.721569 0.467662
vt 0.585428 0.467662
vt 0.733374 0.251131
vt 0.746867 0.251131
vt 0.746867 0.326085
vt 0.733374 0.326085
vt 0.720287 0.251131
vt 0.728572 0.251131
vt 0.728572 0.326085
vt 0.720287 0.326085
vt 0.740345 0.251131
vt 0.748244 0.251131
vt 0.748244 0.326085
vt 0.740345 0.326085
vt 0.740281 0.251131
vt 0.748596 0.251131
vt 0.748596 0.326085
vt 0.740281 0.326085
vt 0.720679 0.251131
vt 0.729773 0.251131
vt 0.729773 0.326085
vt 0.720679 0.326085
vt 0.700942 0.251131
vt 0.709295 0.251131
vt 0.709295 0.326085
vt 0.700942 0.326085
vt 0.720806 0.251131
vt 0.729449 0.251131
vt 0.729449 0.326085
vt 0.720806 0.326085
vt 0.733374 0.251131
vt 0.746867 0.251131
vt 0.746867 0.326085
vt 0.733374 0.326085
vt 0.702847 0.251131
vt 0.711133 0.251131
vt 0.711133 0.326085
vt 0.702847 0.326085
vt 0.721355 0.251131
vt 0.729254 0.251131
vt 0.729254 0.326085
vt 0.721355 0.326085
vt 0.700364 0.251131
vt 0.708678 0.251131
vt 0.708678 0.326085
vt 0.700364 0.326085
vt 0.740056 0.251131
vt 0.749150 0.251131
vt 0.749150 0.326085
vt 0.740056 0.326085
vt 0.720707 0.251131
vt 0.729060 0.251131
vt 0.729060 0.326085
vt 0.720707 0.326085
vt 0.720806 0.251131
vt 0.729449 0.251131
vt 0.729449 0.326085
vt 0.720806 0.326085
vt 0.721569 0.461826
vt 0.585428 0.461826
vt 0.585428 0.450153
vt 0.721569 0.450153
vt 0.585427 0.426808
vt 0.721569 0.426808
vt 0.721569 0.438480
vt 0.585428 0.438480
vt 0.721569 0.461826
vt 0.721569 0.450153
vt 0.585428 0.450153
vt 0.585428 0.461826
vt 0.585427 0.426808
vt 0.721569 0.426808
vt 0.721569 0.438480
vt 0.585428 0.438480
vt 0.712001 0.251131
vt 0.712001 0.326085
vt 0.732447 0.251131
vt 0.732447 0.326085
vt 0.731967 0.251131
vt 0.731967 0.326085
vt 0.711585 0.251131
vt 0.711585 0.326085
vt 0.692590 0.251131
vt 0.692590 0.326085
vt 0.712162 0.251131
vt 0.712162 0.326085
vt 0.712162 0.251131
vt 0.712162 0.326085
vt 0.712355 0.251131
vt 0.712355 0.326085
vt 0.730963 0.251131
vt 0.730963 0.326085
vt 0.692050 0.251131
vt 0.692050 0.326085
vt 0.713457 0.251131
vt 0.713457 0.326085
vt 0.694562 0.251131
vt 0.694562 0.326085
vt 0.733374 0.251131
vt 0.733374 0.326085
vt 0.746867 0.326085
vt 0.746867 0.251131
vt 0.720287 0.251131
vt 0.720287 0.326085
vt 0.728572 0.326085
vt 0.728572 0.251131
vt 0.740345 0.251131
vt 0.740345 0.326085
vt 0.748244 0.326085
vt 0.748244 0.251131
vt 0.740281 0.251131
vt 0.740281 0.326085
vt 0.748596 0.326085
vt 0.748596 0.251131
vt 0.720679 0.251131
vt 0.720679 0.326085
vt 0.729773 0.326085
vt 0.729773 0.251131
vt 0.700942 0.251131
vt 0.700942 0.326085
vt 0.709295 0.326085
vt 0.709295 0.251131
vt 0.720806 0.251131
vt 0.720806 0.326085
vt 0.729449 0.326085
vt 0.729449 0.251131
vt 0.733374 0.251131
vt 0.733374 0.326085
vt 0.746867 0.326085
vt 0.746867 0.251131
vt 0.702847 0.251131
vt 0.702847 0.326085
vt 0.711133 0.326085
vt 0.711133 0.251131
vt 0.721355 0.251131
vt 0.721355 0.326085
vt 0.729254 0.326085
vt 0.729254 0.251131
vt 0.700364 0.251131
vt 0.700364 0.326085
vt 0.708678 0.326085
vt 0.708678 0.251131
vt 0.740056 0.251131
vt 0.740056 0.326085
vt 0.749150 0.326085
vt 0.749150 0.251131
vt 0.720707 0.251131
vt 0.720707 0.326085
vt 0.729060 0.326085
vt 0.729060 0.251131
vt 0.720806 0.251131
vt 0.720806 0.326085
vt 0.729449 0.326085
vt 0.729449 0.251131
vt 0.712001 0.251131
vt 0.712001 0.326085
vt 0.732447 0.251131
vt 0.732447 0.326085
vt 0.731967 0.251131
vt 0.731967 0.326085
vt 0.711585 0.251131
vt 0.711585 0.326085
vt 0.692590 0.251131
vt 0.692590 0.326085
vt 0.712162 0.251131
vt 0.712162 0.326085
vt 0.712162 0.251131
vt 0.712162 0.326085
vt 0.712355 0.251131
vt 0.712355 0.326085
vt 0.730963 0.251131
vt 0.730963 0.326085
vt 0.692050 0.251131
vt 0.692050 0.326085
vt 0.713457 0.251131
vt 0.713457 0.326085
vt 0.694562 0.251131
vt 0.694562 0.326085
vn 1.0000 0.0000 0.0000
vn 0.9850 0.1725 0.0000
vn 0.6965 0.1725 0.6965
vn 0.7071 0.0000 0.7071
vn 0.0000 0.1725 0.9850
vn 0.0000 0.0000 1.0000
vn -0.6965 0.1725 0.6965
vn -0.7071 0.0000 0.7071
vn -0.9850 0.1725 0.0000
vn -1.0000 0.0000 0.0000
vn -0.6965 0.1725 -0.6965
vn -0.7071 0.0000 -0.7071
vn 0.0000 0.1725 -0.9850
vn 0.0000 0.0000 -1.0000
vn 0.6965 0.1725 -0.6965
vn 0.7071 0.0000 -0.7071
vn 0.4595 0.7601 -0.4595
vn 0.6498 0.7601 0.0000
vn 0.4595 0.7601 0.4595
vn 0.0000 0.7601 0.6498
vn -0.4595 0.7601 0.4595
vn -0.4595 0.7601 -0.4595
vn 0.0000 0.7601 -0.6498
vn -0.6498 0.7601 0.0000
vn 0.0000 1.0000 0.0000
vn 0.7071 0.7071 0.0000
vn -0.7071 0.7071 0.0000
vn -0.7071 -0.7071 0.0000
vn 0.0000 -1.0000 0.0000
vn 0.7071 -0.7071 0.0000
vn -0.9813 0.0000 0.1923
vn -0.9995 0.0000 0.0312
vn -0.9999 0.0000 0.0094
vn -0.9999 0.0000 0.0156
vn -0.9993 0.0000 -0.0372
vn -0.9996 0.0000 0.0285
vn 0.7071 -0.5572 -0.4353
vn -0.7071 -0.5572 -0.4353
vn 0.7071 0.5572 0.4353
vn -0.7071 0.5572 0.4353
vn 0.7071 -0.5572 0.4353
vn -0.7071 -0.5572 0.4353
vn 0.7071 0.5572 -0.4353
vn -0.7071 0.5572 -0.4353
vn -0.8860 0.0000 -0.4636
vn 0.9813 0.0000 0.1923
vn 0.9995 0.0000 0.0312
vn 0.9999 0.0000 0.0094
vn 0.9999 0.0000 0.0156
vn 0.9993 0.0000 -0.0372
vn 0.9996 0.0000 0.0285
vn 0.8860 0.0000 -0.4636
s 1
f 1/1/1 2/2/2 4/3/3 3/4/4
f 3/4/4 4/3/3 6/5/5 5/6/6
f 5/6/6 6/5/5 8/7/7 7/8/8
f 7/8/8 8/7/7 10/9/9 9/10/10
f 9/10/10 10/9/9 12/11/11 11/12/12
f 11/12/12 12/11/11 14/13/13 13/14/14
f 13/14/14 14/13/13 16/15/15 15/16/16
f 2/17/2 16/15/15 24/18/17 17/19/18
f 4/3/3 2/2/2 17/20/18 18/21/19
f 8/7/7 6/5/5 19/22/20 20/23/21
f 14/13/13 12/11/11 22/24/22 23/25/23
f 10/9/9 8/7/7 20/23/21 21/26/24
f 16/15/15 14/13/13 23/25/23 24/18/17
f 6/5/5 4/3/3 18/21/19 19/22/20
f 12/11/11 10/9/9 21/26/24 22/24/22
f 24/18/17 23/25/23 25/27/25
f 22/24/22 21/26/24 25/28/25
f 20/23/21 19/22/20 25/29/25
f 18/21/19 17/20/18 25/30/25
f 17/19/18 24/18/17 25/31/25
f 23/25/23 22/24/22 25/32/25
f 21/26/24 20/23/21 25/33/25
f 19/22/20 18/21/19 25/34/25
f 33/35/26 41/36/26 34/37/1 26/38/1
f 32/39/25 40/40/25 41/36/26 33/35/26
f 31/41/27 39/42/27 40/40/25 32/39/25
f 30/43/10 38/44/10 39/42/27 31/41/27
f 29/45/28 37/46/28 38/44/10 30/43/10
f 28/47/29 36/48/29 37/46/28 29/45/28
f 27/49/30 35/50/30 36/48/29 28/47/29
f 26/51/1 34/52/1 35/50/30 27/49/30
f 15/16/16 16/15/15 2/17/2 1/53/1
f 49/54/26 57/55/26 50/56/1 42/57/1
f 48/58/25 56/59/25 57/55/26 49/54/26
f 47/60/27 55/61/27 56/59/25 48/58/25
f 46/62/10 54/63/10 55/61/27 47/60/27
f 45/64/28 53/65/28 54/63/10 46/62/10
f 44/66/29 52/67/29 53/65/28 45/64/28
f 43/68/30 51/69/30 52/67/29 44/66/29
f 42/70/1 50/71/1 51/69/30 43/68/30
f 65/72/26 73/73/26 66/74/1 58/75/1
f 64/76/25 72/77/25 73/73/26 65/72/26
f 63/78/27 71/79/27 72/77/25 64/76/25
f 62/80/10 70/81/10 71/79/27 63/78/27
f 61/82/28 69/83/28 70/81/10 62/80/10
f 60/84/29 68/85/29 69/83/28 61/82/28
f 59/86/30 67/87/30 68/85/29 60/84/29
f 58/88/1 66/89/1 67/87/30 59/86/30
f 81/90/26 89/91/26 82/92/1 74/93/1
f 80/94/25 88/95/25 89/91/26 81/90/26
f 79/96/27 87/97/27 88/95/25 80/94/25
f 78/98/10 86/99/10 87/97/27 79/96/27
f 77/100/28 85/101/28 86/99/10 78/98/10
f 76/102/29 84/103/29 85/101/28 77/100/28
f 75/104/30 83/105/30 84/103/29 76/102/29
f 74/106/1 82/107/1 83/105/30 75/104/30
f 104/108/31 91/109/10 93/110/10 105/111/31
f 139/112/10 94/113/32 95/114/32 138/115/10
f 141/116/10 96/117/33 97/118/33 140/119/10
f 143/120/10 98/121/34 99/122/34 142/123/10
f 145/124/10 100/125/35 101/126/35 144/127/10
f 147/128/10 102/129/36 103/130/36 146/131/10
f 149/132/10 104/133/31 105/134/31 148/135/10
f 120/136/31 107/137/10 109/138/10 121/139/31
f 161/140/10 110/141/32 111/142/32 160/143/10
f 159/144/10 112/145/33 113/146/33 158/147/10
f 157/148/10 114/149/34 115/150/34 156/151/10
f 155/152/10 116/153/35 117/154/35 154/155/10
f 153/156/10 118/157/36 119/158/36 152/159/10
f 151/160/10 120/161/31 121/162/31 150/163/10
f 122/164/37 126/165/37 127/166/38 123/167/38
f 129/168/39 126/165/37 122/164/37 125/169/39
f 124/170/40 128/171/40 129/168/39 125/169/39
f 123/167/38 127/166/38 128/171/40 124/170/40
f 130/172/41 131/173/42 135/174/42 134/175/41
f 137/176/43 133/177/43 130/172/41 134/175/41
f 132/178/44 133/177/43 137/176/43 136/179/44
f 131/173/42 132/178/44 136/179/44 135/174/42
f 90/180/45 139/112/10 138/115/10 92/181/45
f 94/182/32 141/116/10 140/119/10 95/183/32
f 96/184/33 143/120/10 142/123/10 97/185/33
f 98/186/34 145/124/10 144/127/10 99/187/34
f 100/188/35 147/128/10 146/131/10 101/189/35
f 102/190/36 149/132/10 148/135/10 103/191/36
f 118/192/36 151/160/10 150/163/10 119/193/36
f 116/194/35 153/156/10 152/159/10 117/195/35
f 114/196/34 155/152/10 154/155/10 115/197/34
f 112/198/33 157/148/10 156/151/10 113/199/33
f 110/200/32 159/144/10 158/147/10 111/201/32
f 106/202/45 161/140/10 160/143/10 108/203/45
f 176/204/46 177/205/46 165/206/1 163/207/1
f 195/208/1 194/209/1 167/210/47 166/211/47
f 197/212/1 196/213/1 169/214/48 168/215/48
f 199/216/1 198/217/1 171/218/49 170/219/49
f 201/220/1 200/221/1 173/222/50 172/223/50
f 203/224/1 202/225/1 175/226/51 174/227/51
f 205/228/1 204/229/1 177/230/46 176/231/46
f 192/232/46 193/233/46 181/234/1 179/235/1
f 217/236/1 216/237/1 183/238/47 182/239/47
f 215/240/1 214/241/1 185/242/48 184/243/48
f 213/244/1 212/245/1 187/246/49 186/247/49
f 211/248/1 210/249/1 189/250/50 188/251/50
f 209/252/1 208/253/1 191/254/51 190/255/51
f 207/256/1 206/257/1 193/258/46 192/259/46
f 162/260/52 164/261/52 194/209/1 195/208/1
f 166/262/47 167/263/47 196/213/1 197/212/1
f 168/264/48 169/265/48 198/217/1 199/216/1
f 170/266/49 171/267/49 200/221/1 201/220/1
f 172/268/50 173/269/50 202/225/1 203/224/1
f 174/270/51 175/271/51 204/229/1 205/228/1
f 190/272/51 191/273/51 206/257/1 207/256/1
f 188/274/50 189/275/50 208/253/1 209/252/1
f 186/276/49 187/277/49 210/249/1 211/248/1
f 184/278/48 185/279/48 212/245/1 213/244/1
f 182/280/47 183/281/47 214/241/1 215/240/1
f 178/282/52 180/283/52 216/237/1 217/236/1
