# Blender v2.82 (sub 7) OBJ File: 'fences.blend'
# www.blender.org
o fence14_unlinked_Cylinder.008
v 0.087302 0.000000 0.333462
v 0.087302 0.990871 0.333462
v 0.061732 0.000000 0.395194
v 0.061732 0.990871 0.395194
v -0.000000 0.000000 0.420764
v -0.000000 0.990871 0.420764
v -0.061732 0.000000 0.395194
v -0.061732 0.990871 0.395194
v -0.087302 0.000000 0.333462
v -0.087302 0.990871 0.333462
v -0.061732 0.000000 0.271730
v -0.061732 0.990871 0.271730
v -0.000000 0.000000 0.246160
v -0.000000 0.990871 0.246160
v 0.061732 0.000000 0.271730
v 0.061732 0.990871 0.271730
v 0.070952 1.015623 0.333462
v 0.050171 1.015623 0.383633
v -0.000000 1.015623 0.404414
v -0.050171 1.015623 0.383633
v -0.070952 1.015623 0.333462
v -0.050171 1.015623 0.283291
v -0.000000 1.015623 0.262510
v 0.050171 1.015623 0.283291
v -0.000000 1.015623 0.333462
v 0.090031 0.395750 0.335168
v 0.089878 0.426002 0.331553
v 0.063718 0.403166 0.398357
v 0.063565 0.433419 0.394742
v 0.000124 0.405979 0.424590
v -0.000029 0.436231 0.420975
v -0.063497 0.402540 0.398500
v -0.063650 0.432792 0.394885
v -0.089878 0.394864 0.335370
v -0.090031 0.425116 0.331756
v -0.063565 0.387447 0.272182
v -0.063718 0.417700 0.268567
v 0.000028 0.384635 0.245949
v -0.000125 0.414887 0.242334
v 0.063650 0.388074 0.272038
v 0.063497 0.418326 0.268424
v 0.098050 0.410916 0.333352
v 0.069369 0.419000 0.402227
v 0.000052 0.422065 0.430821
v -0.069295 0.418317 0.402383
v -0.098051 0.409950 0.333572
v -0.069369 0.401866 0.264696
v -0.000052 0.398801 0.236102
v 0.069295 0.402549 0.264540
v -0.015994 0.376924 0.266753
v -0.015994 0.408911 0.266753
v 0.015994 0.376924 0.266753
v 0.015994 0.408911 0.266753
v -0.004979 0.769789 0.137968
v 0.009957 0.765543 0.145474
v -0.004979 0.769789 0.113869
v 0.009957 0.765543 0.106363
v 0.018528 0.769651 0.155583
v -0.018528 0.769651 0.155583
v 0.018528 0.769651 0.096255
v -0.018528 0.769651 0.096255
v -0.000000 0.805422 0.083806
v -0.004979 0.761298 0.098857
v -0.004979 0.761298 0.152980
v -0.000000 0.805422 0.168032
v -0.018528 0.732596 0.096255
v 0.018528 0.732596 0.096255
v 0.009957 0.736704 0.106363
v -0.004979 0.732458 0.113869
v -0.004979 0.740950 0.098857
v -0.000000 0.696825 0.083806
v -0.018528 0.732596 0.155583
v 0.018528 0.732596 0.155583
v 0.009957 0.736704 0.145474
v -0.004979 0.732458 0.137968
v -0.004979 0.740950 0.152980
v -0.000000 0.696825 0.168032
v -0.015994 0.735391 0.268502
v -0.015994 0.767379 0.268502
v 0.015994 0.735391 0.268502
v 0.015994 0.767379 0.268502
v 0.095296 0.360428 0.331383
v 0.095296 0.392436 0.335541
v 0.067385 0.351748 0.398206
v 0.067385 0.383756 0.402364
v -0.000000 0.348153 0.425886
v -0.000000 0.380161 0.430043
v -0.067385 0.351748 0.398206
v -0.067385 0.383756 0.402364
v -0.095296 0.360428 0.331383
v -0.095296 0.392436 0.335541
v -0.067385 0.369108 0.264560
v -0.067385 0.401116 0.268717
v -0.000000 0.372703 0.236881
v -0.000000 0.404711 0.241038
v 0.067385 0.369108 0.264560
v 0.067385 0.401116 0.268717
v 0.103873 0.376432 0.333462
v 0.073449 0.366971 0.406299
v -0.000000 0.363052 0.436470
v -0.073449 0.366971 0.406299
v -0.103873 0.376432 0.333462
v -0.073449 0.385893 0.260624
v -0.000000 0.389812 0.230454
v 0.073449 0.385893 0.260624
v 0.087302 0.767642 0.335247
v 0.087302 0.796995 0.331677
v 0.061732 0.775095 0.396527
v 0.061732 0.804448 0.392957
v -0.000000 0.778182 0.421911
v -0.000000 0.807535 0.418341
v -0.061732 0.775095 0.396527
v -0.061732 0.804448 0.392957
v -0.087302 0.767642 0.335247
v -0.087302 0.796995 0.331677
v -0.061732 0.760189 0.273966
v -0.061732 0.789542 0.270396
v -0.000000 0.757102 0.248583
v -0.000000 0.786455 0.245013
v 0.061732 0.760189 0.273966
v 0.061732 0.789542 0.270396
v 0.095159 0.782319 0.333462
v 0.067288 0.790442 0.400258
v -0.000000 0.793807 0.427925
v -0.067288 0.790442 0.400258
v -0.095160 0.782319 0.333462
v -0.067288 0.774195 0.266666
v -0.000000 0.770830 0.238998
v 0.067288 0.774195 0.266666
v 0.091137 0.721381 0.332447
v 0.091137 0.752182 0.334477
v 0.064443 0.717144 0.396751
v 0.064443 0.747945 0.398781
v -0.000000 0.715389 0.423387
v -0.000000 0.746190 0.425416
v -0.064443 0.717144 0.396751
v -0.064443 0.747945 0.398781
v -0.091137 0.721381 0.332447
v -0.091137 0.752182 0.334477
v -0.064443 0.725618 0.268143
v -0.064443 0.756419 0.270173
v -0.000000 0.727373 0.241508
v -0.000000 0.758174 0.243537
v 0.064443 0.725618 0.268143
v 0.064443 0.756419 0.270173
v 0.099339 0.736782 0.333462
v 0.070243 0.732163 0.403553
v -0.000000 0.730250 0.432586
v -0.070243 0.732163 0.403553
v -0.099339 0.736782 0.333462
v -0.070243 0.741400 0.263371
v -0.000000 0.743313 0.234338
v 0.070243 0.741400 0.263371
v -0.018528 0.414588 0.045528
v 0.018528 0.414588 0.045528
v 0.009957 0.409613 0.055239
v -0.004979 0.413187 0.063087
v -0.004979 0.406039 0.047391
v -0.000000 0.451310 0.036252
v -0.018528 0.409405 0.104629
v 0.018528 0.409405 0.104629
v 0.009957 0.406196 0.094201
v -0.004979 0.411081 0.087094
v -0.004979 0.401311 0.101307
v -0.000000 0.443952 0.120156
v -0.018528 0.377674 0.042291
v 0.018528 0.377674 0.042291
v 0.009957 0.380884 0.052720
v -0.004979 0.375998 0.059826
v -0.004979 0.385769 0.045613
v -0.000000 0.343128 0.026765
v -0.018528 0.372491 0.101392
v 0.018528 0.372491 0.101392
v 0.009957 0.377467 0.091681
v -0.004979 0.373893 0.083833
v -0.004979 0.381040 0.099529
v -0.000000 0.335770 0.110668
v 0.015994 0.376924 -0.000000
v 0.015994 0.408911 -0.000000
v -0.015994 0.408911 -0.000000
v -0.015994 0.376924 -0.000000
v -0.015994 0.735391 -0.000000
v 0.015994 0.735391 -0.000000
v -0.015994 0.767379 -0.000000
v 0.015994 0.767379 -0.000000
vt 0.000000 0.000000
vt 0.000000 0.000000
vt 0.000000 0.000000
vt 0.000000 0.000000
vt 0.405756 0.002966
vt 0.405756 0.229086
vt 0.387876 0.229086
vt 0.387876 0.002966
vt 0.369997 0.229086
vt 0.369997 0.002966
vt 0.352118 0.229086
vt 0.352118 0.002966
vt 0.334238 0.229086
vt 0.334238 0.002966
vt 0.316359 0.229086
vt 0.316359 0.002966
vt 0.298480 0.229086
vt 0.298480 0.002966
vt 0.280600 0.229086
vt 0.298480 0.229086
vt 0.280600 0.229086
vt 0.280600 0.002966
vt 0.262721 0.229086
vt 0.262721 0.002966
vt 0.352118 0.229086
vt 0.334238 0.229086
vt 0.387876 0.229086
vt 0.369997 0.229086
vt 0.316359 0.229086
vt 0.262721 0.229086
vt 0.405756 0.229086
vt 0.352118 0.229086
vt 0.387876 0.229086
vt 0.262721 0.229086
vt 0.298480 0.229086
vt 0.334238 0.229086
vt 0.369997 0.229086
vt 0.280600 0.229086
vt 0.316359 0.229086
vt 0.463060 0.198938
vt 0.463060 0.204719
vt 0.467306 0.204719
vt 0.467306 0.198938
vt 0.471552 0.204719
vt 0.471552 0.198938
vt 0.475798 0.204719
vt 0.475798 0.198938
vt 0.480044 0.204719
vt 0.480044 0.198938
vt 0.484291 0.204719
vt 0.484291 0.198938
vt 0.488537 0.204719
vt 0.488537 0.198938
vt 0.492783 0.204719
vt 0.492783 0.198938
vt 0.497029 0.204719
vt 0.497029 0.198938
vt 0.492783 0.193156
vt 0.497029 0.193156
vt 0.488537 0.193156
vt 0.484291 0.193156
vt 0.480044 0.193156
vt 0.475798 0.193156
vt 0.471552 0.193156
vt 0.467306 0.193156
vt 0.463060 0.193156
vt 0.485668 0.241067
vt 0.491172 0.241067
vt 0.491172 0.242981
vt 0.485668 0.242981
vt 0.491172 0.235563
vt 0.493086 0.235563
vt 0.493086 0.241067
vt 0.425456 0.246367
vt 0.425456 0.246367
vt 0.425456 0.246367
vt 0.425456 0.246367
vt 0.472271 0.246367
vt 0.472271 0.246367
vt 0.472271 0.246367
vt 0.472271 0.246367
vt 0.428972 0.193388
vt 0.433700 0.193276
vt 0.428972 0.210107
vt 0.424245 0.193276
vt 0.428972 0.193388
vt 0.428972 0.210107
vt 0.433700 0.193276
vt 0.428972 0.210107
vt 0.424245 0.193276
vt 0.428972 0.193388
vt 0.425456 0.246367
vt 0.425456 0.246367
vt 0.425456 0.217048
vt 0.425456 0.217048
vt 0.433700 0.193276
vt 0.425456 0.217048
vt 0.424245 0.193276
vt 0.425456 0.217048
vt 0.428972 0.193388
vt 0.428972 0.210107
vt 0.433700 0.193276
vt 0.424245 0.193276
vt 0.425456 0.246367
vt 0.425456 0.246367
vt 0.485668 0.241067
vt 0.491172 0.241067
vt 0.491172 0.242990
vt 0.485668 0.242990
vt 0.491172 0.235563
vt 0.493094 0.235563
vt 0.493094 0.241067
vt 0.463060 0.198938
vt 0.463060 0.204719
vt 0.467306 0.204719
vt 0.467306 0.198938
vt 0.471552 0.204719
vt 0.471552 0.198938
vt 0.475798 0.204719
vt 0.475798 0.198938
vt 0.480044 0.204719
vt 0.480044 0.198938
vt 0.484291 0.204719
vt 0.484291 0.198938
vt 0.488537 0.204719
vt 0.488537 0.198938
vt 0.492783 0.204719
vt 0.492783 0.198938
vt 0.497029 0.204719
vt 0.497029 0.198938
vt 0.492783 0.193156
vt 0.497029 0.193156
vt 0.488537 0.193156
vt 0.484291 0.193156
vt 0.480044 0.193156
vt 0.475798 0.193156
vt 0.471552 0.193156
vt 0.467306 0.193156
vt 0.463060 0.193156
vt 0.463060 0.198938
vt 0.463060 0.204719
vt 0.467306 0.204719
vt 0.467306 0.198938
vt 0.471552 0.204719
vt 0.471552 0.198938
vt 0.475798 0.204719
vt 0.475798 0.198938
vt 0.480044 0.204719
vt 0.480044 0.198938
vt 0.484291 0.204719
vt 0.484291 0.198938
vt 0.488537 0.204719
vt 0.488537 0.198938
vt 0.492783 0.204719
vt 0.492783 0.198938
vt 0.497029 0.204719
vt 0.497029 0.198938
vt 0.492783 0.193156
vt 0.497029 0.193156
vt 0.488537 0.193156
vt 0.484291 0.193156
vt 0.480044 0.193156
vt 0.475798 0.193156
vt 0.471552 0.193156
vt 0.467306 0.193156
vt 0.463060 0.193156
vt 0.463060 0.198938
vt 0.463060 0.204719
vt 0.467306 0.204719
vt 0.467306 0.198938
vt 0.471552 0.204719
vt 0.471552 0.198938
vt 0.475798 0.204719
vt 0.475798 0.198938
vt 0.480044 0.204719
vt 0.480044 0.198938
vt 0.484291 0.204719
vt 0.484291 0.198938
vt 0.488537 0.204719
vt 0.488537 0.198938
vt 0.492783 0.204719
vt 0.492783 0.198938
vt 0.497029 0.204719
vt 0.497029 0.198938
vt 0.492783 0.193156
vt 0.497029 0.193156
vt 0.488537 0.193156
vt 0.484291 0.193156
vt 0.480044 0.193156
vt 0.475798 0.193156
vt 0.471552 0.193156
vt 0.467306 0.193156
vt 0.463060 0.193156
vt 0.425456 0.246367
vt 0.425456 0.246367
vt 0.425456 0.246367
vt 0.425456 0.246367
vt 0.428972 0.193388
vt 0.428972 0.210107
vt 0.433700 0.193276
vt 0.424245 0.193276
vt 0.425456 0.246367
vt 0.425456 0.246367
vt 0.425456 0.217048
vt 0.425456 0.217048
vt 0.425456 0.217048
vt 0.472271 0.246367
vt 0.472271 0.246367
vt 0.428972 0.193388
vt 0.433700 0.193276
vt 0.428972 0.210107
vt 0.424245 0.193276
vt 0.472271 0.246367
vt 0.472271 0.246367
vt 0.428972 0.193388
vt 0.433700 0.193276
vt 0.428972 0.210107
vt 0.424245 0.193276
vt 0.425456 0.217048
vt 0.428972 0.193388
vt 0.428972 0.210107
vt 0.433700 0.193276
vt 0.424245 0.193276
vt 0.425456 0.246367
vt 0.425456 0.246367
vt 0.485668 0.233649
vt 0.491172 0.233649
vt 0.485668 0.235563
vt 0.483753 0.241067
vt 0.483753 0.235563
vt 0.483745 0.241067
vt 0.483745 0.235563
vt 0.485668 0.235563
vt 0.485668 0.233641
vt 0.491172 0.233641
vn 0.0000 0.0000 -1.0000
vn 1.0000 0.0000 0.0000
vn 0.9628 0.2701 0.0000
vn 0.6808 0.2701 0.6808
vn 0.7071 0.0000 0.7071
vn 0.0000 0.2701 0.9628
vn 0.0000 0.0000 1.0000
vn -0.6808 0.2701 0.6808
vn -0.7071 0.0000 0.7071
vn -0.9628 0.2701 0.0000
vn -1.0000 0.0000 0.0000
vn -0.6808 0.2701 -0.6808
vn -0.7071 0.0000 -0.7071
vn 0.0000 0.2701 -0.9628
vn 0.6808 0.2701 -0.6808
vn 0.0000 0.8318 -0.5551
vn 0.3925 0.8318 -0.3925
vn 0.7071 0.0000 -0.7071
vn -0.3925 0.8318 0.3925
vn -0.5551 0.8318 0.0000
vn 0.3925 0.8318 0.3925
vn 0.0000 0.8318 0.5551
vn -0.3925 0.8318 -0.3925
vn 0.5551 0.8318 0.0000
vn 0.0000 1.0000 0.0000
vn 1.0000 0.0049 -0.0011
vn 0.8807 0.4703 -0.0566
vn 0.6224 0.5431 0.5636
vn 0.7074 0.0873 0.7013
vn -0.0019 0.5707 0.8211
vn 0.0005 0.1186 0.9929
vn -0.6264 0.5369 0.5650
vn -0.7067 0.0804 0.7029
vn -0.8854 0.4616 -0.0547
vn -1.0000 -0.0049 0.0011
vn -0.6271 0.3888 -0.6749
vn -0.7074 -0.0873 -0.7013
vn -0.0028 0.3612 -0.9325
vn -0.0005 -0.1186 -0.9929
vn 0.6217 0.3949 -0.6764
vn 0.7067 -0.0804 -0.7029
vn 0.6264 -0.5369 -0.5650
vn 0.8854 -0.4616 0.0547
vn 0.0019 -0.5707 -0.8211
vn -0.6224 -0.5431 -0.5636
vn -0.8807 -0.4703 0.0566
vn -0.6217 -0.3949 0.6764
vn 0.0028 -0.3612 0.9325
vn 0.6271 -0.3888 0.6749
vn -0.7071 -0.7071 0.0000
vn -0.7071 0.7071 0.0000
vn 0.7071 0.7071 0.0000
vn -0.5773 -0.5773 -0.5773
vn -0.5773 -0.5773 0.5773
vn -0.5773 0.5773 0.5773
vn -0.5773 0.5773 -0.5773
vn 0.5773 0.5773 0.5773
vn 0.5773 -0.5773 0.5773
vn 0.5773 -0.5773 -0.5773
vn 0.5773 0.5773 -0.5773
vn 0.9772 -0.1849 -0.1046
vn -0.4886 -0.6015 0.6320
vn 0.0000 -0.8704 -0.4923
vn -0.4886 -0.2318 0.8412
vn 0.9772 0.1849 0.1046
vn 0.0000 0.8704 0.4923
vn -0.4886 0.6015 0.6320
vn 0.0000 0.8704 -0.4923
vn -0.4886 -0.2318 -0.8412
vn 0.9772 0.1849 -0.1046
vn -0.4886 0.6015 -0.6320
vn -0.4886 0.2318 -0.8412
vn 0.9772 -0.1849 0.1046
vn 0.0000 -0.8704 0.4923
vn -0.4886 -0.6015 -0.6320
vn -0.4886 0.2318 0.8412
vn 0.8830 0.4654 0.0604
vn 0.6244 0.3849 0.6796
vn 0.7071 -0.0911 0.7012
vn 0.0000 0.3516 0.9361
vn 0.0000 -0.1288 0.9917
vn -0.6244 0.3849 0.6796
vn -0.7071 -0.0911 0.7012
vn -0.8830 0.4654 0.0604
vn -0.6244 0.5458 -0.5587
vn -0.7071 0.0911 -0.7012
vn 0.0000 0.5791 -0.8152
vn 0.0000 0.1288 -0.9917
vn 0.6244 0.5458 -0.5587
vn 0.7071 0.0911 -0.7012
vn 0.6244 -0.3849 -0.6796
vn 0.8830 -0.4654 -0.0604
vn 0.0000 -0.3516 -0.9361
vn -0.6244 -0.3849 -0.6796
vn -0.8830 -0.4654 -0.0604
vn -0.6244 -0.5458 0.5587
vn 0.0000 -0.5791 0.8152
vn 0.6244 -0.5458 0.5587
vn 0.8830 0.4658 -0.0566
vn 0.6244 0.5412 0.5632
vn 0.7071 0.0854 0.7019
vn 0.0000 0.5725 0.8199
vn 0.0000 0.1207 0.9927
vn -0.6244 0.5412 0.5632
vn -0.7071 0.0854 0.7019
vn -0.8830 0.4658 -0.0566
vn -0.6244 0.3905 -0.6765
vn -0.7071 -0.0854 -0.7019
vn 0.0000 0.3592 -0.9332
vn 0.0000 -0.1207 -0.9927
vn 0.6244 0.3905 -0.6765
vn 0.7071 -0.0854 -0.7019
vn 0.6244 -0.5412 -0.5632
vn 0.8830 -0.4658 0.0566
vn 0.0000 -0.5725 -0.8199
vn -0.6244 -0.5412 -0.5632
vn -0.8830 -0.4658 0.0566
vn -0.6244 -0.3905 0.6765
vn 0.0000 -0.3592 0.9332
vn 0.6244 -0.3905 0.6765
vn 0.8830 0.4682 0.0309
vn 0.6244 0.4272 0.6539
vn 0.7071 -0.0465 0.7056
vn 0.0000 0.4102 0.9120
vn 0.0000 -0.0657 0.9978
vn -0.6244 0.4272 0.6539
vn -0.7071 -0.0465 0.7056
vn -0.8830 0.4682 0.0309
vn -0.6244 0.5093 -0.5922
vn -0.7071 0.0465 -0.7056
vn 0.0000 0.5263 -0.8503
vn 0.0000 0.0657 -0.9978
vn 0.6244 0.5093 -0.5922
vn 0.7071 0.0465 -0.7056
vn 0.6244 -0.4272 -0.6539
vn 0.8830 -0.4682 -0.0309
vn 0.0000 -0.4102 -0.9120
vn -0.6244 -0.4272 -0.6539
vn -0.8830 -0.4682 -0.0309
vn -0.6244 -0.5093 0.5922
vn 0.0000 -0.5263 0.8503
vn 0.6244 -0.5093 0.5922
vn -0.5773 -0.5247 -0.6256
vn -0.5773 -0.6256 0.5247
vn -0.5773 0.5247 0.6256
vn -0.5773 0.6256 -0.5247
vn 0.9772 0.1933 -0.0880
vn 0.0000 0.9101 -0.4144
vn -0.4886 0.5440 0.6821
vn -0.4886 -0.1574 -0.8582
vn 0.5773 -0.5247 -0.6256
vn 0.5773 -0.6256 0.5247
vn 0.5773 0.5247 0.6256
vn 0.9772 0.1750 0.1203
vn -0.4886 0.6544 -0.5770
vn 0.0000 0.8241 0.5665
vn -0.4886 -0.3044 0.8177
vn 0.5773 0.6256 -0.5247
vn 0.9772 -0.1750 -0.1203
vn -0.4886 -0.6544 0.5770
vn 0.0000 -0.8241 -0.5665
vn -0.4886 0.3044 -0.8177
vn 0.9772 -0.1933 0.0880
vn 0.0000 -0.9101 0.4144
vn -0.4886 -0.5440 -0.6821
vn -0.4886 0.1574 0.8582
vn 0.7071 -0.7071 0.0000
s off
f 185/1/1 183/2/1 182/3/1 184/4/1
s 1
f 1/5/2 2/6/3 4/7/4 3/8/5
f 3/8/5 4/7/4 6/9/6 5/10/7
f 5/10/7 6/9/6 8/11/8 7/12/9
f 7/12/9 8/11/8 10/13/10 9/14/11
f 9/14/11 10/13/10 12/15/12 11/16/13
f 11/16/13 12/15/12 14/17/14 13/18/1
f 16/19/15 14/17/14 23/20/16 24/21/17
f 13/18/1 14/17/14 16/19/15 15/22/18
f 15/22/18 16/19/15 2/23/3 1/24/2
f 10/13/10 8/11/8 20/25/19 21/26/20
f 6/9/6 4/7/4 18/27/21 19/28/22
f 12/15/12 10/13/10 21/26/20 22/29/23
f 2/23/3 16/19/15 24/21/17 17/30/24
f 4/7/4 2/6/3 17/31/24 18/27/21
f 8/11/8 6/9/6 19/28/22 20/25/19
f 14/17/14 12/15/12 22/29/23 23/20/16
f 20/25/19 19/28/22 25/32/25
f 18/27/21 17/31/24 25/33/25
f 17/30/24 24/21/17 25/34/25
f 23/20/16 22/29/23 25/35/25
f 21/26/20 20/25/19 25/36/25
f 19/28/22 18/27/21 25/37/25
f 24/21/17 23/20/16 25/38/25
f 22/29/23 21/26/20 25/39/25
f 42/40/26 27/41/27 29/42/28 43/43/29
f 43/43/29 29/42/28 31/44/30 44/45/31
f 44/45/31 31/44/30 33/46/32 45/47/33
f 45/47/33 33/46/32 35/48/34 46/49/35
f 46/49/35 35/48/34 37/50/36 47/51/37
f 47/51/37 37/50/36 39/52/38 48/53/39
f 48/53/39 39/52/38 41/54/40 49/55/41
f 49/55/41 41/54/40 27/56/27 42/57/26
f 40/58/42 49/55/41 42/57/26 26/59/43
f 38/60/44 48/53/39 49/55/41 40/58/42
f 36/61/45 47/51/37 48/53/39 38/60/44
f 34/62/46 46/49/35 47/51/37 36/61/45
f 32/63/47 45/47/33 46/49/35 34/62/46
f 30/64/48 44/45/31 45/47/33 32/63/47
f 28/65/49 43/43/29 44/45/31 30/64/48
f 26/66/43 42/40/26 43/43/29 28/65/49
f 50/67/50 51/68/51 180/69/51 181/70/50
f 53/71/52 179/72/52 180/73/51 51/68/51
f 66/74/53 72/75/54 59/76/55 61/77/56
f 58/78/57 73/79/58 67/80/59 60/81/60
f 68/82/61 69/83/62 71/84/63
f 64/85/64 55/86/65 65/87/66
f 56/88/67 62/89/68 63/90/69
f 57/91/70 62/89/68 56/88/67
f 67/92/59 73/93/58 72/94/54 66/95/53
f 55/86/65 54/96/71 65/87/66
f 54/96/71 64/85/64 65/87/66
f 59/97/55 72/94/54 73/79/58 58/78/57
f 63/90/69 62/89/68 57/91/70
f 69/83/62 70/98/72 71/84/63
f 70/98/72 68/82/61 71/84/63
f 60/81/60 67/80/59 66/95/53 61/99/56
f 74/100/73 77/101/74 75/102/75
f 75/102/75 77/101/74 76/103/76
f 76/103/76 77/101/74 74/100/73
f 61/99/56 59/97/55 58/104/57 60/105/60
f 78/106/50 79/107/51 184/108/56 182/109/53
f 81/110/52 185/111/60 184/112/56 79/107/51
f 98/113/2 83/114/77 85/115/78 99/116/79
f 99/116/79 85/115/78 87/117/80 100/118/81
f 100/118/81 87/117/80 89/119/82 101/120/83
f 101/120/83 89/119/82 91/121/84 102/122/11
f 102/122/11 91/121/84 93/123/85 103/124/86
f 103/124/86 93/123/85 95/125/87 104/126/88
f 104/126/88 95/125/87 97/127/89 105/128/90
f 105/128/90 97/127/89 83/129/77 98/130/2
f 96/131/91 105/128/90 98/130/2 82/132/92
f 94/133/93 104/126/88 105/128/90 96/131/91
f 92/134/94 103/124/86 104/126/88 94/133/93
f 90/135/95 102/122/11 103/124/86 92/134/94
f 88/136/96 101/120/83 102/122/11 90/135/95
f 86/137/97 100/118/81 101/120/83 88/136/96
f 84/138/98 99/116/79 100/118/81 86/137/97
f 82/139/92 98/113/2 99/116/79 84/138/98
f 122/140/2 107/141/99 109/142/100 123/143/101
f 123/143/101 109/142/100 111/144/102 124/145/103
f 124/145/103 111/144/102 113/146/104 125/147/105
f 125/147/105 113/146/104 115/148/106 126/149/11
f 126/149/11 115/148/106 117/150/107 127/151/108
f 127/151/108 117/150/107 119/152/109 128/153/110
f 128/153/110 119/152/109 121/154/111 129/155/112
f 129/155/112 121/154/111 107/156/99 122/157/2
f 120/158/113 129/155/112 122/157/2 106/159/114
f 118/160/115 128/153/110 129/155/112 120/158/113
f 116/161/116 127/151/108 128/153/110 118/160/115
f 114/162/117 126/149/11 127/151/108 116/161/116
f 112/163/118 125/147/105 126/149/11 114/162/117
f 110/164/119 124/145/103 125/147/105 112/163/118
f 108/165/120 123/143/101 124/145/103 110/164/119
f 106/166/114 122/140/2 123/143/101 108/165/120
f 146/167/2 131/168/121 133/169/122 147/170/123
f 147/170/123 133/169/122 135/171/124 148/172/125
f 148/172/125 135/171/124 137/173/126 149/174/127
f 149/174/127 137/173/126 139/175/128 150/176/11
f 150/176/11 139/175/128 141/177/129 151/178/130
f 151/178/130 141/177/129 143/179/131 152/180/132
f 152/180/132 143/179/131 145/181/133 153/182/134
f 153/182/134 145/181/133 131/183/121 146/184/2
f 144/185/135 153/182/134 146/184/2 130/186/136
f 142/187/137 152/180/132 153/182/134 144/185/135
f 140/188/138 151/178/130 152/180/132 142/187/137
f 138/189/139 150/176/11 151/178/130 140/188/138
f 136/190/140 149/174/127 150/176/11 138/189/139
f 134/191/141 148/172/125 149/174/127 136/190/140
f 132/192/142 147/170/123 148/172/125 134/191/141
f 130/193/136 146/167/2 147/170/123 132/192/142
f 166/194/143 172/195/144 160/196/145 154/197/146
f 156/198/147 159/199/148 157/200/149
f 157/200/149 159/199/148 158/201/150
f 158/201/150 159/199/148 156/198/147
f 167/202/151 173/203/152 172/204/144 166/205/143
f 160/206/145 172/204/144 173/207/152 161/208/153
f 162/209/154 163/210/155 165/211/156
f 163/210/155 164/212/157 165/211/156
f 164/212/157 162/209/154 165/211/156
f 161/208/153 173/207/152 167/213/151 155/214/158
f 168/215/159 169/216/160 171/217/161
f 169/216/160 170/218/162 171/217/161
f 170/218/162 168/215/159 171/217/161
f 155/214/158 167/213/151 166/205/143 154/219/146
f 174/220/163 177/221/164 175/222/165
f 175/222/165 177/221/164 176/223/166
f 176/223/166 177/221/164 174/220/163
f 154/219/146 160/206/145 161/224/153 155/225/158
f 178/226/167 179/227/52 53/71/52 52/228/167
f 181/229/50 178/230/167 52/228/167 50/67/50
f 182/231/53 183/232/59 80/233/167 78/106/50
f 183/234/59 185/235/60 81/110/52 80/233/167
