# Blender v2.81 (sub 16) OBJ File: 'fences.blend'
# www.blender.org
o fence4_linked_Plane.008
v 0.114151 0.000000 0.500000
v 0.114151 0.361421 0.000000
v 0.095024 0.864357 0.500000
v 0.095024 0.864357 0.000000
v 0.095024 0.387906 0.500000
v 0.095024 0.387906 0.000000
v 0.114151 0.361421 0.500000
v 0.114151 0.000000 0.000000
v -0.095024 0.864357 0.500000
v -0.095024 0.864357 0.000000
v -0.095024 0.387906 0.500000
v -0.095024 0.387906 0.000000
v 0.108033 0.864348 0.000000
v 0.108033 0.958766 0.000000
v 0.108033 0.958766 0.500000
v 0.108033 0.864348 0.500000
v -0.108033 0.864348 0.000000
v -0.108033 0.958766 0.000000
v -0.108033 0.958766 0.500000
v -0.108033 0.864348 0.500000
v -0.114151 0.361421 0.500000
v -0.114151 0.000000 0.500000
v -0.114151 0.000000 0.000000
v -0.114151 0.361421 0.000000
v -0.050132 1.139772 0.500000
v -0.050132 1.139772 -0.001682
v -0.035449 1.104323 0.500000
v -0.035449 1.104323 -0.001682
v 0.000000 1.089640 0.500000
v -0.000000 1.089640 -0.001682
v 0.035449 1.104323 0.500000
v 0.035449 1.104323 -0.001682
v 0.050133 1.139772 0.500000
v 0.050132 1.139772 -0.001682
v 0.035449 1.175221 0.500000
v 0.035449 1.175221 -0.001682
v 0.000000 1.189905 0.500000
v -0.000000 1.189905 -0.001682
v -0.035449 1.175221 0.500000
v -0.035449 1.175221 -0.001682
v 0.192702 0.969319 0.335881
v 0.192701 0.984498 0.424312
v 0.190240 1.001804 0.500000
v 0.175488 0.905375 0.335881
v 0.192701 0.984498 0.247451
v 0.192702 0.969319 -0.002162
v 0.192701 0.984498 0.087342
v 0.175488 0.905375 0.424312
v 0.175488 0.905375 0.500000
v 0.175488 0.905375 0.247451
v 0.175488 0.905375 0.167396
v 0.175488 0.905375 -0.002162
v 0.175488 0.905375 0.087342
v 0.192701 1.011534 0.484758
v 0.192701 1.011534 0.152155
v 0.192701 1.011534 0.182638
v 0.190240 1.001804 0.167396
v 0.192701 1.011534 0.500000
v 0.092794 0.905375 0.424312
v 0.092794 0.905375 0.335881
v 0.092794 0.905375 0.500000
v 0.092794 0.905375 0.247451
v 0.092794 0.905375 0.167396
v 0.092794 0.905375 0.000000
v 0.092794 0.905375 0.087342
v -0.192702 0.969319 0.335881
v -0.192701 0.984498 0.424312
v -0.190240 1.001804 0.500000
v -0.175488 0.905375 0.335881
v -0.192702 0.984498 0.247451
v -0.192702 0.969319 -0.002162
v -0.192702 0.984498 0.087342
v -0.175488 0.905375 0.424312
v -0.175488 0.905375 0.500000
v -0.175488 0.905375 0.247451
v -0.175488 0.905375 0.167396
v -0.175488 0.905375 -0.002162
v -0.175488 0.905375 0.087342
v -0.000000 1.106901 0.335881
v -0.000000 1.122080 0.424312
v 0.000000 1.149116 0.500000
v -0.000000 1.122080 0.247451
v -0.192701 1.011534 0.484758
v -0.000000 1.106901 -0.002162
v -0.000000 1.122080 0.087342
v -0.192701 1.011534 0.152155
v -0.192701 1.011534 0.182638
v -0.190240 1.001804 0.167396
v -0.000000 1.149116 0.182638
v -0.000000 1.149116 0.152155
v -0.000000 1.149116 0.484758
v -0.192701 1.011534 0.500000
v -0.092794 0.905375 0.424312
v -0.092794 0.905375 0.335881
v -0.092794 0.905375 0.500000
v -0.092794 0.905375 0.247451
v -0.092794 0.905375 0.167396
v -0.092794 0.905375 0.000000
v -0.092794 0.905375 0.087342
vt 0.917155 0.954708
vt 0.764931 0.954708
vt 0.764931 0.961544
vt 0.917155 0.961544
vt 0.764931 0.845136
vt 0.917155 0.845136
vt 0.917155 0.954708
vt 0.764931 0.954708
vt 0.764931 0.845136
vt 0.917155 0.845136
vt 0.761507 0.751965
vt 0.994840 0.751965
vt 0.994840 0.829855
vt 0.761507 0.829855
vt 0.994840 0.835413
vt 0.761508 0.835413
vt 0.764931 0.961544
vt 0.917155 0.961544
vt 0.917155 0.982496
vt 0.764931 0.982496
vt 0.764931 0.982496
vt 0.917155 0.982496
vt 0.761507 0.751965
vt 0.761507 0.829855
vt 0.994840 0.829855
vt 0.994840 0.751965
vt 0.761508 0.835413
vt 0.994840 0.835413
vt 0.929863 0.947453
vt 0.997871 0.947453
vt 0.997871 0.953632
vt 0.929863 0.953632
vt 0.997871 0.959810
vt 0.929863 0.959810
vt 0.997871 0.965989
vt 0.929863 0.965989
vt 0.997871 0.972168
vt 0.929863 0.972168
vt 0.997871 0.978347
vt 0.929863 0.978347
vt 0.997871 0.984526
vt 0.929863 0.984526
vt 0.997871 0.990704
vt 0.929863 0.990704
vt 0.997871 0.996883
vt 0.929863 0.996883
vt 0.917155 0.845136
vt 0.917155 0.845136
vt 0.941583 0.968679
vt 0.942124 0.959679
vt 0.953272 0.960472
vt 0.953082 0.966285
vt 0.933678 0.973643
vt 0.931867 0.971030
vt 0.964416 0.969436
vt 0.964400 0.960632
vt 0.984123 0.969444
vt 0.985110 0.991969
vt 0.976458 0.996069
vt 0.976132 0.974863
vt 0.984259 0.960836
vt 0.995134 0.961165
vt 0.994997 0.966442
vt 0.932735 0.958686
vt 0.952937 0.990122
vt 0.941908 0.992305
vt 0.974317 0.972513
vt 0.974347 0.960597
vt 0.963953 0.992365
vt 0.972503 0.974891
vt 0.995948 0.989244
vt 0.933681 0.996182
vt 0.931786 0.996182
vt 0.931786 0.973475
vt 0.972636 0.996130
vt 0.933210 0.950174
vt 0.942569 0.950997
vt 0.953525 0.951718
vt 0.964480 0.951999
vt 0.974412 0.952062
vt 0.984381 0.952214
vt 0.995278 0.952486
vt 0.941583 0.968679
vt 0.953082 0.966285
vt 0.953272 0.960472
vt 0.942124 0.959679
vt 0.931867 0.971030
vt 0.933678 0.973643
vt 0.964416 0.969436
vt 0.964400 0.960632
vt 0.984123 0.969444
vt 0.976132 0.974863
vt 0.994997 0.966442
vt 0.995134 0.961165
vt 0.984259 0.960836
vt 0.932735 0.958686
vt 0.974347 0.960597
vt 0.974317 0.972513
vt 0.972503 0.974891
vt 0.931786 0.973475
vt 0.942569 0.950997
vt 0.933210 0.950174
vt 0.953525 0.951718
vt 0.964480 0.951999
vt 0.974412 0.952062
vt 0.984381 0.952214
vt 0.995278 0.952486
vn 0.0007 -1.0000 -0.0000
vn 1.0000 0.0000 -0.0000
vn -1.0000 0.0000 0.0000
vn 0.9515 0.3077 -0.0000
vn 0.8107 0.5855 -0.0000
vn -0.9515 0.3077 0.0000
vn -0.0007 -1.0000 0.0000
vn -0.8107 0.5855 0.0000
vn -0.7071 -0.7071 0.0000
vn -0.0000 -1.0000 -0.0000
vn 0.7071 -0.7071 -0.0000
vn 0.7071 0.7071 -0.0000
vn -0.0000 1.0000 -0.0000
vn -0.7071 0.7071 0.0000
vn 0.0000 0.0000 -1.0000
vn 0.9793 -0.2000 0.0314
vn 0.9780 -0.2066 0.0283
vn 0.9722 -0.2340 0.0000
vn 0.9844 -0.1680 0.0517
vn 0.9809 -0.1919 0.0324
vn 0.9792 -0.2009 -0.0296
vn 0.9782 -0.2056 -0.0283
vn 0.5668 0.7939 -0.2202
vn 0.5642 0.7902 -0.2393
vn 0.5745 0.8046 -0.1503
vn 0.5722 0.8015 -0.1738
vn 0.9792 -0.2010 0.0295
vn 0.9782 -0.2056 0.0281
vn 0.9721 -0.2339 0.0198
vn 0.9832 -0.1790 0.0365
vn 0.5811 0.8139 0.0000
vn 0.5623 0.7876 -0.2521
vn 0.5655 0.7920 -0.2300
vn 0.9811 -0.1916 0.0287
vn 0.9800 -0.1988 0.0000
vn 0.9842 -0.1772 0.0000
vn 0.5667 0.7937 0.2210
vn 0.5641 0.7901 0.2400
vn 0.9811 -0.1916 -0.0287
vn 0.5756 0.8062 -0.1367
vn 0.5709 0.7997 -0.1860
vn 0.5736 0.8035 -0.1593
vn 0.5745 0.8046 0.1503
vn 0.5722 0.8015 0.1738
vn 0.9695 -0.2452 0.0000
vn -0.9793 -0.2000 0.0314
vn -0.9722 -0.2340 0.0000
vn -0.9780 -0.2066 0.0283
vn -0.9809 -0.1919 0.0324
vn -0.9844 -0.1680 0.0517
vn -0.9792 -0.2009 -0.0296
vn -0.9782 -0.2056 -0.0283
vn -0.5668 0.7939 -0.2202
vn -0.5722 0.8015 -0.1738
vn -0.5745 0.8046 -0.1503
vn -0.5642 0.7902 -0.2393
vn -0.9792 -0.2010 0.0295
vn -0.9721 -0.2339 0.0198
vn -0.9782 -0.2056 0.0281
vn -0.9832 -0.1790 0.0365
vn -0.5811 0.8139 -0.0000
vn -0.5655 0.7920 -0.2300
vn -0.5623 0.7876 -0.2521
vn -0.9811 -0.1916 0.0287
vn -0.9842 -0.1772 -0.0000
vn -0.9800 -0.1988 0.0000
vn -0.5641 0.7901 0.2400
vn -0.5667 0.7937 0.2210
vn -0.9811 -0.1916 -0.0287
vn -0.5756 0.8062 -0.1367
vn -0.5709 0.7997 -0.1860
vn -0.5736 0.8035 -0.1593
vn -0.5722 0.8015 0.1738
vn -0.5745 0.8046 0.1503
vn -0.9695 -0.2452 0.0000
s 1
f 10/1/1 9/2/1 20/3/1 17/4/1
f 5/5/2 6/6/2 4/7/2 3/8/2
f 11/9/3 9/2/3 10/1/3 12/10/3
f 1/11/2 8/12/2 2/13/4 7/14/4
f 6/15/5 5/16/5 7/14/4 2/13/4
f 16/17/2 13/18/2 14/19/2 15/20/2
f 20/3/3 19/21/3 18/22/3 17/4/3
f 22/23/3 21/24/6 24/25/6 23/26/3
f 3/8/7 4/7/7 13/18/7 16/17/7
f 11/27/8 12/28/8 24/25/6 21/24/6
f 25/29/3 26/30/3 28/31/9 27/32/9
f 27/32/9 28/31/9 30/33/10 29/34/10
f 29/34/10 30/33/10 32/35/11 31/36/11
f 31/36/11 32/35/11 34/37/2 33/38/2
f 33/38/2 34/37/2 36/39/12 35/40/12
f 35/40/12 36/39/12 38/41/13 37/42/13
f 37/42/13 38/41/13 40/43/14 39/44/14
f 39/44/14 40/43/14 26/45/3 25/46/3
f 14/19/15 13/18/15 17/4/15 18/22/15
f 4/7/15 6/6/15 12/10/15 10/1/15
f 6/6/15 2/47/15 24/48/15 12/10/15
f 2/13/15 8/12/15 23/26/15 24/25/15
f 42/49/16 48/50/17 44/51/18 41/52/18
f 42/49/16 54/53/19 43/54/20
f 45/55/21 41/52/18 44/51/18 50/56/22
f 47/57/23 85/58/24 90/59/25 55/60/26
f 47/57/27 53/61/28 52/62/29 46/63/29
f 43/54/20 49/64/30 48/50/17 42/49/16
f 41/52/31 79/65/31 80/66/32 42/49/33
f 55/60/34 57/67/35 51/68/36 53/61/28 47/57/27
f 41/52/31 45/55/37 82/69/38 79/65/31
f 57/67/35 56/70/39 45/55/21 50/56/22 51/68/36
f 46/63/40 84/71/40 85/58/24 47/57/23
f 54/53/41 91/72/42 81/73/31 58/74/31
f 55/60/34 56/70/39 57/67/35
f 55/60/26 90/59/25 89/75/43 56/70/44
f 45/55/37 56/70/44 89/75/43 82/69/38
f 91/72/42 54/53/41 42/49/33 80/66/32
f 54/53/19 58/74/45 43/54/20
f 48/50/10 49/64/10 61/76/10 59/77/10
f 44/51/10 48/50/10 59/77/10 60/78/10
f 50/56/10 44/51/10 60/78/10 62/79/10
f 51/68/10 50/56/10 62/79/10 63/80/10
f 53/61/10 51/68/10 63/80/10 65/81/10
f 52/62/10 53/61/10 65/81/10 64/82/10
f 67/83/46 66/84/47 69/85/47 73/86/48
f 67/83/46 68/87/49 83/88/50
f 70/89/51 75/90/52 69/85/47 66/84/47
f 72/91/53 86/92/54 90/59/55 85/58/56
f 72/91/57 71/93/58 77/94/58 78/95/59
f 68/87/49 67/83/46 73/86/48 74/96/60
f 66/84/61 67/83/62 80/66/63 79/65/61
f 86/92/64 72/91/57 78/95/59 76/97/65 88/98/66
f 66/84/61 79/65/61 82/69/67 70/89/68
f 88/98/66 76/97/65 75/90/52 70/89/51 87/99/69
f 71/93/70 72/91/53 85/58/56 84/71/70
f 83/88/71 92/100/61 81/73/61 91/72/72
f 86/92/64 88/98/66 87/99/69
f 86/92/54 87/99/73 89/75/74 90/59/55
f 70/89/68 82/69/67 89/75/74 87/99/73
f 91/72/72 80/66/63 67/83/62 83/88/71
f 83/88/50 68/87/49 92/100/75
f 73/86/10 93/101/10 95/102/10 74/96/10
f 69/85/10 94/103/10 93/101/10 73/86/10
f 75/90/10 96/104/10 94/103/10 69/85/10
f 76/97/10 97/105/10 96/104/10 75/90/10
f 78/95/10 99/106/10 97/105/10 76/97/10
f 77/94/10 98/107/10 99/106/10 78/95/10
f 52/62/15 77/94/15 71/93/15 46/63/15
f 46/63/15 71/93/15 84/71/15
f 38/41/15 36/39/15 40/43/15
f 30/33/15 28/31/15 32/35/15
f 28/31/15 26/30/15 34/37/15 32/35/15
f 36/39/15 34/37/15 26/45/15 40/43/15
