# Blender v2.81 (sub 16) OBJ File: 'fences.blend'
# www.blender.org
o fence2_unlinked_Cylinder.002
v 0.111296 0.013458 0.216010
v 0.069392 0.007990 0.302853
v -0.024766 0.006639 0.324301
v -0.100275 0.010423 0.264204
v -0.100275 0.016492 0.167816
v -0.024766 0.020276 0.107718
v 0.069392 0.018926 0.129167
v 0.066049 0.403955 0.000000
v 0.052914 0.461245 0.000000
v -0.000066 0.486695 -0.000000
v -0.052996 0.461141 -0.000000
v -0.066019 0.403826 -0.000000
v -0.029328 0.357910 -0.000000
v 0.029447 0.357967 0.000000
v 0.112792 0.779553 0.262589
v 0.128004 0.768203 0.261621
v 0.071434 0.769418 0.351872
v 0.081570 0.756823 0.361863
v -0.024174 0.758214 0.374642
v -0.025772 0.744244 0.387427
v -0.102036 0.754377 0.313752
v -0.113190 0.739937 0.319064
v -0.103520 0.760798 0.215053
v -0.114857 0.747145 0.208252
v -0.027510 0.772641 0.152869
v -0.029518 0.760441 0.138435
v 0.068758 0.780988 0.174024
v 0.078566 0.769813 0.162187
v 0.003056 0.768026 0.268709
v -0.000000 0.418963 0.432869
v 0.062347 0.404796 0.432869
v 0.067635 0.403595 0.427914
v 0.053938 0.461174 0.438910
v 0.049718 0.457863 0.443002
v -0.000375 0.486968 0.441626
v -0.000349 0.481637 0.445505
v -0.054406 0.461552 0.434017
v -0.050154 0.458216 0.438493
v -0.067468 0.404065 0.421813
v -0.062192 0.405237 0.427246
v -0.029725 0.357797 0.414207
v -0.027398 0.362593 0.420234
v 0.030401 0.357588 0.416921
v 0.028027 0.362397 0.422736
vt 0.294101 0.759924
vt 0.294101 0.989278
vt 0.260728 0.989278
vt 0.260728 0.759924
vt 0.427594 0.759924
vt 0.427594 0.989278
vt 0.394221 0.989278
vt 0.394221 0.759924
vt 0.360848 0.989278
vt 0.360848 0.759924
vt 0.327475 0.989278
vt 0.327475 0.759924
vt 0.494341 0.759924
vt 0.494341 0.989278
vt 0.460968 0.989278
vt 0.460968 0.759924
vt 0.339903 0.929557
vt 0.339903 0.810410
vt 0.352394 0.810410
vt 0.352394 0.929592
vt 0.325406 0.972467
vt 0.330490 0.972467
vt 0.325406 0.972467
vt 0.335575 0.972467
vt 0.330490 0.972467
vt 0.340659 0.972467
vt 0.335575 0.972467
vt 0.345743 0.972467
vt 0.340659 0.972467
vt 0.350827 0.972467
vt 0.345743 0.972467
vt 0.355712 0.972467
vt 0.350827 0.972467
vt 0.494341 0.993248
vt 0.460968 0.993248
vt 0.427594 0.993248
vt 0.394221 0.993248
vt 0.360848 0.993248
vt 0.327475 0.993248
vt 0.294101 0.993248
vt 0.260728 0.993248
vt 0.386476 0.995770
vt 0.327579 0.995174
vt 0.430221 0.995174
vt 0.263582 0.995608
vt 0.494218 0.995608
vt 0.471378 0.996148
vt 0.378900 0.996389
vt 0.286422 0.996148
vt 0.314920 0.929573
vt 0.314920 0.810410
vt 0.327411 0.810410
vt 0.327411 0.929548
vt 0.277446 0.929626
vt 0.277446 0.810410
vt 0.289937 0.810410
vt 0.289937 0.929635
vt 0.302429 0.810410
vt 0.302429 0.929611
vt 0.264955 0.929592
vt 0.264955 0.810410
vt 0.320522 0.966937
vt 0.325606 0.967074
vt 0.320522 0.972467
vt 0.330690 0.967107
vt 0.335774 0.967014
vt 0.340858 0.966858
vt 0.345942 0.966760
vt 0.351026 0.966795
vt 0.356111 0.966937
vt 0.320522 0.972467
vn 0.6188 0.0269 -0.7851
vn 0.5547 0.4312 -0.7116
vn 0.9147 0.4038 0.0160
vn 0.9997 -0.0218 -0.0087
vn -0.2152 -0.0834 0.9730
vn -0.2173 0.2846 0.9337
vn -0.8547 0.2857 0.4335
vn -0.8978 -0.0489 0.4377
vn -0.8636 0.3375 -0.3746
vn -0.9041 0.0056 -0.4273
vn -0.2373 0.4011 -0.8848
vn -0.2292 0.0390 -0.9726
vn 0.5706 0.3375 0.7487
vn 0.6302 -0.0712 0.7732
vn 0.3842 -0.8664 0.3190
vn 0.4316 -0.9021 -0.0019
vn 0.9752 -0.2213 -0.0032
vn 0.8961 -0.2561 0.3625
vn 0.3230 0.1314 0.9373
vn -0.0356 0.3071 0.9510
vn -0.0449 -0.1977 0.9792
vn -0.3882 0.1264 0.9129
vn -0.4540 -0.2501 0.8552
vn -0.2145 -0.5276 0.8220
vn 0.1478 -0.5323 0.8336
vn 0.3951 -0.2521 0.8834
vn 0.3535 0.9338 0.0554
vn 0.1918 0.8941 0.4047
vn -0.1822 0.8503 0.4937
vn -0.4868 0.8353 0.2556
vn -0.4926 0.8604 -0.1305
vn -0.1953 0.9067 -0.3738
vn 0.1813 0.9394 -0.2910
vn -0.1006 0.9927 0.0661
vn -0.9065 -0.2540 0.3374
vn -0.9741 -0.2261 -0.0028
vn -0.4316 -0.9021 -0.0012
vn -0.4019 -0.8618 0.3096
vn 0.7318 0.5415 0.4138
vn 0.7789 0.6272 -0.0019
vn 0.0007 1.0000 -0.0012
vn -0.0132 0.9039 0.4276
vn -0.7805 0.6252 -0.0028
vn -0.7491 0.5355 0.3901
s 1
f 7/1/1 28/2/2 16/3/3 1/4/4
f 3/5/5 20/6/6 22/7/7 4/8/8
f 4/8/8 22/7/7 24/9/9 5/10/10
f 5/10/10 24/9/9 26/11/11 6/12/12
f 6/12/12 26/11/11 28/2/2 7/1/1
f 1/13/4 16/14/3 18/15/13 2/16/14
f 2/16/14 18/15/13 20/6/6 3/5/5
f 43/17/15 14/18/16 8/19/17 32/20/18
f 34/21/19 36/22/20 30/23/21
f 36/22/20 38/24/22 30/25/21
f 38/24/22 40/26/23 30/27/21
f 40/26/23 42/28/24 30/29/21
f 42/28/24 44/30/25 30/31/21
f 44/30/25 31/32/26 30/33/21
f 18/15/13 16/14/3 15/34/27 17/35/28
f 20/6/6 18/15/13 17/35/28 19/36/29
f 22/7/7 20/6/6 19/36/29 21/37/30
f 24/9/9 22/7/7 21/37/30 23/38/31
f 26/11/11 24/9/9 23/38/31 25/39/32
f 28/2/2 26/11/11 25/39/32 27/40/33
f 16/3/3 28/2/2 27/40/33 15/41/27
f 29/42/34 23/43/31 21/44/30
f 25/45/32 23/43/31 29/42/34
f 19/46/29 17/47/28 29/42/34
f 17/47/28 15/48/27 29/42/34
f 21/44/30 19/46/29 29/42/34
f 15/48/27 27/49/33 29/42/34
f 27/49/33 25/45/32 29/42/34
f 39/50/35 12/51/36 13/52/37 41/53/38
f 33/54/39 9/55/40 10/56/41 35/57/42
f 35/57/42 10/56/41 11/58/43 37/59/44
f 41/53/38 13/52/37 14/18/16 43/17/15
f 32/60/18 8/61/17 9/55/40 33/54/39
f 37/59/44 11/58/43 12/51/36 39/50/35
f 32/62/18 33/63/39 34/21/19 31/64/26
f 33/63/39 35/65/42 36/22/20 34/21/19
f 35/65/42 37/66/44 38/24/22 36/22/20
f 37/66/44 39/67/35 40/26/23 38/24/22
f 39/67/35 41/68/38 42/28/24 40/26/23
f 41/68/38 43/69/15 44/30/25 42/28/24
f 43/69/15 32/70/18 31/32/26 44/30/25
f 31/64/26 34/21/19 30/71/21
