# Blender v2.82 (sub 7) OBJ File: 'fences.blend'
# www.blender.org
o fence5_linked_Plane.011
v 0.138740 1.141534 0.361260
v -0.138741 1.141534 0.361260
v -0.138741 0.000000 0.500000
v -0.138741 1.141534 0.500000
v -0.138741 1.041860 0.500000
v -0.162258 1.141534 0.500000
v -0.162258 1.041860 0.500000
v 0.138740 0.000000 0.500000
v 0.138740 1.141534 0.500000
v 0.138740 1.041860 0.500000
v 0.162258 1.141534 0.500000
v 0.162258 1.041860 0.500000
v -0.108629 0.000000 -0.109726
v -0.109726 0.000000 0.403724
v 0.108629 0.000000 -0.109726
v 0.109726 0.000000 0.403724
v 0.125389 0.000000 0.361260
v 0.138740 0.000000 0.374611
v -0.138741 0.000000 0.374611
v -0.125390 0.000000 0.361260
v 0.138740 1.041860 0.374611
v 0.125389 1.041860 0.361260
v -0.125390 1.041860 0.361260
v -0.138741 1.041860 0.374611
v -0.148907 1.141534 0.337742
v -0.162258 1.141534 0.351093
v 0.162258 1.141534 0.351093
v 0.148907 1.141534 0.337742
v -0.162258 1.041860 0.351093
v -0.148907 1.041860 0.337742
v 0.148907 1.041860 0.337742
v 0.162258 1.041860 0.351093
v -0.108629 0.328235 -0.109726
v -0.095407 0.341590 -0.096371
v -0.096371 0.344668 0.403724
v -0.109726 0.331313 0.403724
v 0.095408 0.341590 -0.096371
v 0.108629 0.328235 -0.109726
v 0.109726 0.331313 0.403724
v 0.096371 0.344668 0.403724
v -0.043036 0.319554 0.134418
v -0.010420 1.060392 0.167034
v 0.022196 0.319554 0.134418
v -0.043036 0.319554 0.199650
v 0.022196 0.319554 0.199650
v -0.028871 0.878477 -0.028871
v -0.028871 0.878477 0.385458
v 0.028871 0.878477 -0.028871
v 0.028871 0.878477 0.385458
v -0.028871 0.820735 -0.028871
v -0.028871 0.820735 0.385458
v 0.028871 0.820735 -0.028871
v 0.028871 0.820735 0.385458
v -0.028871 0.497183 -0.028871
v -0.028871 0.497183 0.385458
v 0.028871 0.497183 -0.028871
v 0.028871 0.497183 0.385458
v -0.028871 0.439441 -0.028871
v -0.028871 0.439441 0.385458
v 0.028871 0.439441 -0.028871
v 0.028871 0.439441 0.385458
v -0.043113 0.906397 0.134341
v 0.022273 0.906397 0.134341
v 0.022273 0.906397 0.199728
v -0.043113 0.906397 0.199728
v -0.064492 0.968826 0.112962
v 0.043652 0.968826 0.112962
v 0.043652 0.968826 0.221106
v -0.064492 0.968826 0.221106
v -0.109726 0.000000 0.000000
v 0.109726 0.000000 0.000000
v -0.096371 0.344668 0.000000
v -0.109726 0.331313 0.000000
v 0.109726 0.331313 0.000000
v 0.096371 0.344668 0.000000
vt 0.066732 0.727519
vt 0.029309 0.727519
vt 0.030781 0.723171
vt 0.065162 0.723140
vt 0.068709 0.697784
vt 0.088780 0.697687
vt 0.088780 0.701309
vt 0.068530 0.701285
vt 0.027610 0.701309
vt 0.027610 0.723140
vt 0.008991 0.723140
vt 0.008991 0.701309
vt 0.064901 0.697687
vt 0.065162 0.701309
vt 0.088779 0.504683
vt 0.068826 0.504683
vt 0.088780 0.723140
vt 0.068495 0.723110
vt 0.088780 0.727560
vt 0.030842 0.701315
vt 0.027327 0.697687
vt 0.031003 0.697742
vt 0.008991 0.727560
vt 0.064901 0.504683
vt 0.031079 0.504683
vt 0.170016 0.727560
vt 0.026534 0.568175
vt 0.026534 0.568175
vt 0.002345 0.568175
vt 0.002345 0.568175
vt 0.026534 0.565715
vt 0.093558 0.565715
vt 0.093558 0.504683
vt 0.026534 0.504683
vt 0.008991 0.697687
vt 0.027327 0.504683
vt 0.008991 0.504683
vt 0.002345 0.565715
vt 0.026534 0.565715
vt 0.002345 0.565715
vt 0.026534 0.504683
vt 0.093558 0.504683
vt 0.093558 0.565715
vt 0.212489 0.693866
vt 0.214038 0.706555
vt 0.212489 0.706555
vt 0.214038 0.719244
vt 0.212489 0.719244
vt 0.214038 0.731933
vt 0.212489 0.731933
vt 0.214038 0.744622
vt 0.212489 0.744622
vt 0.188661 0.719244
vt 0.201349 0.719244
vt 0.201349 0.731933
vt 0.188661 0.731933
vt 0.201349 0.693866
vt 0.214038 0.693866
vt 0.214038 0.706555
vt 0.201349 0.706555
vt 0.214038 0.719244
vt 0.201349 0.719244
vt 0.214038 0.731933
vt 0.201349 0.731933
vt 0.214038 0.744622
vt 0.201349 0.744622
vt 0.201349 0.706555
vt 0.214038 0.706555
vt 0.214038 0.719244
vt 0.201349 0.719244
vt 0.201349 0.693866
vt 0.214038 0.693866
vt 0.214038 0.731933
vt 0.201349 0.731933
vt 0.214038 0.744622
vt 0.201349 0.744622
vt 0.211422 0.731933
vt 0.211422 0.744622
vt 0.201349 0.744622
vt 0.211422 0.719244
vt 0.201349 0.706555
vt 0.211422 0.706555
vt 0.201349 0.693866
vt 0.211422 0.693866
vt 0.002345 0.504683
vt 0.093558 0.568175
vt 0.093558 0.568175
vt 0.002345 0.504683
vn 0.0000 1.0000 0.0000
vn 0.0000 -1.0000 0.0000
vn 0.9239 0.0000 -0.3827
vn 1.0000 0.0000 0.0000
vn -1.0000 0.0000 0.0000
vn -0.9239 0.0000 -0.3827
vn -0.3827 0.0000 -0.9239
vn 0.3827 0.0000 -0.9239
vn -0.3806 0.9246 -0.0162
vn 0.3806 0.9246 -0.0162
vn 0.4404 0.8972 -0.0321
vn -0.4404 0.8972 -0.0321
vn 0.9221 0.3869 -0.0104
vn 0.9239 0.3827 0.0000
vn 1.0000 -0.0000 -0.0050
vn -0.9586 0.2842 -0.0181
vn -0.9221 0.3869 -0.0104
vn 0.9586 0.2842 -0.0181
vn -1.0000 0.0000 -0.0050
vn -0.9239 0.3827 -0.0000
vn -0.7036 0.1002 -0.7036
vn 0.7036 0.1002 -0.7036
vn 0.7036 0.1002 0.7036
vn -0.7036 0.1002 0.7036
vn 0.5773 -0.5774 -0.5773
vn 0.5773 -0.5774 0.5773
vn -0.5773 -0.5774 0.5773
vn -0.5773 -0.5774 -0.5773
vn -0.7071 0.7071 0.0000
vn 0.7071 0.7071 -0.0000
vn 0.7071 -0.7071 0.0000
vn -0.7071 -0.7071 0.0000
vn -0.6848 -0.2494 0.6848
vn -0.6848 -0.2494 -0.6848
vn 0.6848 -0.2494 0.6848
vn 0.6848 -0.2494 -0.6848
vn -0.9999 0.0000 -0.0100
vn 0.3827 0.9239 0.0000
vn -0.3827 0.9239 -0.0000
vn 0.9999 -0.0000 -0.0100
s 1
f 2/1/1 1/2/1 28/3/1 25/4/1
f 24/5/2 5/6/2 7/7/2 29/8/2
f 32/9/3 27/10/3 11/11/4 12/12/4
f 23/13/2 24/5/2 29/8/2 30/14/2
f 3/15/5 5/6/5 24/5/6 19/16/6
f 7/7/5 6/17/5 26/18/6 29/8/6
f 4/19/1 2/1/1 26/18/1 6/17/1
f 30/14/7 25/4/7 28/3/8 31/20/8
f 21/21/2 22/22/2 31/20/2 32/9/2
f 1/2/1 9/23/1 11/11/1 27/10/1
f 20/24/7 23/13/7 22/22/8 17/25/8
f 2/1/1 4/19/1 9/26/1 1/2/1
f 72/27/9 75/28/10 37/29/11 34/30/12
f 74/31/13 39/32/14 16/33/4 71/34/15
f 22/22/2 23/13/2 30/14/2 31/20/2
f 25/4/1 26/18/1 2/1/1
f 27/10/1 28/3/1 1/2/1
f 10/35/2 21/21/2 32/9/2 12/12/2
f 21/21/3 18/36/3 17/25/8 22/22/8
f 19/16/6 24/5/6 23/13/7 20/24/7
f 29/8/6 26/18/6 25/4/7 30/14/7
f 27/10/3 32/9/3 31/20/8 28/3/8
f 18/36/3 21/21/3 10/35/4 8/37/4
f 72/27/9 34/30/12 33/38/16 73/39/17
f 74/31/13 38/40/18 37/29/11 75/28/10
f 73/39/17 70/41/19 14/42/5 36/43/20
f 66/44/21 42/45/1 67/46/22
f 67/46/22 42/47/1 68/48/23
f 68/48/23 42/49/1 69/50/24
f 69/50/24 42/51/1 66/52/21
f 43/53/25 45/54/26 44/55/27 41/56/28
f 46/57/29 47/58/29 49/59/30 48/60/30
f 48/60/30 49/59/30 53/61/31 52/62/31
f 52/62/31 53/61/31 51/63/32 50/64/32
f 50/64/32 51/63/32 47/65/29 46/66/29
f 56/67/30 57/68/30 61/69/31 60/70/31
f 54/71/29 55/72/29 57/68/30 56/67/30
f 60/70/31 61/69/31 59/73/32 58/74/32
f 58/74/32 59/73/32 55/75/29 54/76/29
f 44/55/27 65/77/33 62/78/34 41/79/28
f 45/54/26 64/80/35 65/77/33 44/55/27
f 43/81/25 63/82/36 64/80/35 45/54/26
f 41/83/28 62/84/34 63/82/36 43/81/25
f 65/77/33 69/50/24 66/52/21 62/78/34
f 64/80/35 68/48/23 69/50/24 65/77/33
f 63/82/36 67/46/22 68/48/23 64/80/35
f 62/84/34 66/44/21 67/46/22 63/82/36
f 33/38/16 13/85/37 70/41/19 73/39/17
f 39/32/14 74/31/13 75/28/10 40/86/38
f 35/87/39 72/27/9 73/39/17 36/43/20
f 38/40/18 74/31/13 71/34/15 15/88/40
f 35/87/39 40/86/38 75/28/10 72/27/9
