# Blender v2.81 (sub 16) OBJ File: 'flowers.blend'
# www.blender.org
o flower2_Plane.003
v -0.576819 0.471472 0.249439
v -0.592755 0.529526 0.268447
v -0.533616 0.561808 0.295192
v -0.513954 0.417277 0.232273
v -0.516186 0.405324 0.221730
v -0.589151 0.380902 0.189657
v -0.609013 0.350210 0.151905
v -0.534808 0.304333 0.133594
v -0.511452 0.455835 0.240283
v -0.531627 0.528355 0.243163
v -0.587043 0.522349 0.231997
v -0.638412 0.478058 0.201653
v -0.589575 0.373094 0.159765
v -0.537717 0.386990 0.185675
v -0.631938 0.406905 0.157205
v -0.560601 0.450725 0.201464
v -0.524585 0.421413 0.212979
v -0.515070 0.411300 0.227002
v -0.609490 0.464627 0.194601
v -0.411973 0.472152 0.248182
v -0.396228 0.530336 0.266948
v -0.455217 0.562132 0.294594
v -0.494389 0.549163 0.291512
v -0.474642 0.417439 0.231973
v -0.494589 0.342802 0.153670
v -0.494244 0.500095 0.283953
v -0.494260 0.456942 0.258510
v -0.494298 0.418950 0.233052
v -0.472473 0.405504 0.221397
v -0.399806 0.381683 0.188213
v -0.380270 0.351154 0.150160
v -0.454365 0.304665 0.132980
v -0.494618 0.313887 0.134181
v -0.494481 0.375687 0.185661
v -0.494318 0.400322 0.220324
v -0.477340 0.455976 0.240022
v -0.457723 0.528660 0.242600
v -0.402436 0.523111 0.230589
v -0.351172 0.479243 0.199462
v -0.399774 0.373877 0.158317
v -0.451344 0.387347 0.185016
v -0.357736 0.408037 0.155113
v -0.428749 0.451269 0.200458
v -0.464342 0.421661 0.212519
v -0.473557 0.411472 0.226685
v -0.380086 0.465574 0.192851
v -0.494363 0.411668 0.220543
vt 0.804578 0.978906
vt 0.804692 0.993159
vt 0.797234 0.996967
vt 0.784028 0.994844
vt 0.769202 0.993950
vt 0.764337 0.991059
vt 0.763833 0.974828
vt 0.775886 0.979411
vt 0.763657 0.958397
vt 0.773456 0.959861
vt 0.765725 0.942557
vt 0.763507 0.943396
vt 0.800598 0.941079
vt 0.804692 0.942768
vt 0.804622 0.960151
vt 0.786771 0.974811
vt 0.796113 0.984002
vt 0.810361 0.995342
vt 0.796048 0.997596
vt 0.797091 0.948858
vt 0.795878 0.966735
vt 0.778429 0.983606
vt 0.790602 0.947981
vt 0.796727 0.941521
vt 0.797865 0.941673
vt 0.803579 0.949735
vt 0.808867 0.980007
vt 0.751507 0.941725
vt 0.751507 0.939105
vt 0.756626 0.940288
vt 0.756373 0.942063
vt 0.751507 0.944344
vt 0.756119 0.943837
vt 0.778328 0.995117
vt 0.795588 0.941368
vt 0.784028 0.994844
vt 0.797234 0.996967
vt 0.769202 0.993950
vt 0.775886 0.979411
vt 0.773456 0.959861
vt 0.765725 0.942557
vt 0.800598 0.941079
vt 0.786771 0.974811
vt 0.796113 0.984002
vt 0.796048 0.997596
vt 0.810361 0.995342
vt 0.797091 0.948858
vt 0.790602 0.947981
vt 0.778429 0.983606
vt 0.795878 0.966735
vt 0.803579 0.949735
vt 0.797865 0.941673
vt 0.796727 0.941521
vt 0.808867 0.980007
vt 0.756373 0.942063
vt 0.756626 0.940288
vt 0.756119 0.943837
vt 0.778328 0.995117
vt 0.795588 0.941368
vn -0.0085 0.6009 -0.7992
vn -0.0087 0.4567 -0.8896
vn 0.0072 0.4567 -0.8896
vn 0.0283 0.6572 -0.7532
vn 0.1662 0.2783 -0.9460
vn -0.0085 0.2819 -0.9594
vn -0.0086 0.3682 -0.9297
vn 0.1991 0.3625 -0.9104
vn -0.0087 0.4685 -0.8834
vn 0.2033 0.4393 -0.8750
vn 0.4294 0.4905 -0.7583
vn -0.0085 0.6586 -0.7524
vn 0.3641 0.4920 -0.7908
vn -0.0085 0.6047 -0.7964
vn -0.0081 0.7586 -0.6515
vn 0.0377 0.7453 -0.6656
vn 0.1446 0.4781 -0.8663
vn 0.2523 0.4224 -0.8705
vn 0.0408 0.5320 -0.8457
vn 0.6991 0.2172 -0.6812
vn 0.3786 0.3666 -0.8498
vn 0.3565 0.3756 -0.8554
vn 0.6469 0.2257 -0.7284
vn 0.4545 0.4145 -0.7884
vn 0.4947 0.3293 -0.8043
vn 0.3450 0.3811 -0.8577
vn -0.0086 0.5643 -0.8255
vn 0.1599 0.4593 -0.8737
vn -0.0452 0.6569 -0.7526
vn -0.0245 0.4566 -0.8893
vn -0.1829 0.2769 -0.9433
vn -0.2159 0.3608 -0.9073
vn -0.2203 0.4376 -0.8717
vn -0.4450 0.4869 -0.7516
vn -0.3801 0.4890 -0.7851
vn -0.0540 0.7450 -0.6649
vn -0.1617 0.4769 -0.8639
vn -0.0581 0.5316 -0.8450
vn -0.2691 0.4203 -0.8665
vn -0.7112 0.2114 -0.6704
vn -0.6598 0.2203 -0.7184
vn -0.3726 0.3726 -0.8499
vn -0.3945 0.3634 -0.8439
vn -0.5096 0.3251 -0.7966
vn -0.4699 0.4107 -0.7813
vn -0.3612 0.3782 -0.8523
vn -0.1770 0.4579 -0.8712
s 1
f 25/1/1 33/2/2 8/3/3 7/4/4
f 3/5/5 23/6/6 26/7/7 2/8/8
f 2/8/8 26/7/7 27/9/9 1/10/10
f 4/11/11 1/10/10 27/9/9 28/12/12
f 5/13/13 35/14/14 34/15/15 6/16/16
f 25/1/1 7/4/4 6/16/16 34/15/15
f 19/17/17 15/18/18 12/19/19
f 17/20/20 16/21/21 10/22/22 9/23/23
f 17/20/20 18/24/24 5/25/13 14/26/25
f 16/21/21 13/27/26 15/18/18 19/17/17
f 47/28/27 35/29/14 5/30/13 18/31/24
f 28/32/12 47/28/27 18/31/24 4/33/11
f 10/22/22 16/21/21 19/17/17 11/34/28
f 9/23/23 4/35/11 18/24/24 17/20/20
f 14/26/25 13/27/26 16/21/21 17/20/20
f 11/34/28 19/17/17 12/19/19
f 25/1/1 31/36/29 32/37/30 33/2/2
f 22/38/31 21/39/32 26/7/7 23/6/6
f 21/39/32 20/40/33 27/9/9 26/7/7
f 24/41/34 28/12/12 27/9/9 20/40/33
f 29/42/35 30/43/36 34/15/15 35/14/14
f 25/1/1 34/15/15 30/43/36 31/36/29
f 46/44/37 39/45/38 42/46/39
f 44/47/40 36/48/41 37/49/42 43/50/43
f 44/47/40 41/51/44 29/52/35 45/53/45
f 43/50/43 46/44/37 42/46/39 40/54/46
f 47/28/27 45/55/45 29/56/35 35/29/14
f 28/32/12 24/57/34 45/55/45 47/28/27
f 37/49/42 38/58/47 46/44/37 43/50/43
f 36/48/41 44/47/40 45/53/45 24/59/34
f 41/51/44 44/47/40 43/50/43 40/54/46
f 38/58/47 39/45/38 46/44/37
o flower2.001_Plane.003
v -0.313464 0.480162 0.702690
v -0.323157 0.533266 0.735423
v -0.258974 0.557981 0.758327
v -0.256973 0.429460 0.664983
v -0.261430 0.420031 0.652726
v -0.339647 0.404406 0.628498
v -0.366667 0.382729 0.588979
v -0.298711 0.340161 0.550039
v -0.251202 0.465423 0.680165
v -0.266761 0.536137 0.700949
v -0.323475 0.533767 0.697842
v -0.381188 0.497904 0.667771
v -0.345052 0.403045 0.598106
v -0.289172 0.410114 0.617630
v -0.385424 0.437523 0.609320
v -0.305907 0.469591 0.649528
v -0.270187 0.437768 0.648898
v -0.259202 0.424745 0.658855
v -0.354449 0.485645 0.653581
v -0.150950 0.477633 0.675138
v -0.129411 0.530251 0.702577
v -0.181684 0.556779 0.745224
v -0.221509 0.545568 0.745898
v -0.218217 0.428857 0.658412
v -0.253884 0.372717 0.570799
v -0.225166 0.499181 0.728588
v -0.231394 0.462326 0.695233
v -0.237367 0.430520 0.662919
v -0.218335 0.419360 0.645420
v -0.152981 0.401502 0.596852
v -0.141160 0.379220 0.550748
v -0.219407 0.338927 0.536594
v -0.258448 0.348534 0.546095
v -0.247118 0.398160 0.608372
v -0.240335 0.414977 0.646838
v -0.217572 0.464900 0.674464
v -0.193903 0.535003 0.688597
v -0.141480 0.530935 0.666988
v -0.098011 0.493498 0.619763
v -0.157936 0.400134 0.566384
v -0.204021 0.408789 0.603194
v -0.115101 0.433317 0.563491
v -0.175920 0.467569 0.627490
v -0.210797 0.436844 0.638829
v -0.218276 0.424109 0.651916
v -0.128290 0.482126 0.615239
v -0.239735 0.426023 0.649366
vt 0.804578 0.978906
vt 0.804692 0.993159
vt 0.797234 0.996967
vt 0.784028 0.994844
vt 0.769202 0.993950
vt 0.764337 0.991059
vt 0.763833 0.974828
vt 0.775886 0.979411
vt 0.763657 0.958397
vt 0.773456 0.959861
vt 0.765725 0.942557
vt 0.763507 0.943396
vt 0.800598 0.941079
vt 0.804692 0.942768
vt 0.804622 0.960151
vt 0.786771 0.974811
vt 0.796113 0.984002
vt 0.810361 0.995342
vt 0.796048 0.997596
vt 0.797091 0.948858
vt 0.795878 0.966735
vt 0.778429 0.983606
vt 0.790602 0.947981
vt 0.796727 0.941521
vt 0.797865 0.941673
vt 0.803579 0.949735
vt 0.808867 0.980007
vt 0.751507 0.941725
vt 0.751507 0.939105
vt 0.756626 0.940288
vt 0.756373 0.942063
vt 0.751507 0.944344
vt 0.756119 0.943837
vt 0.778328 0.995117
vt 0.795588 0.941368
vt 0.784028 0.994844
vt 0.797234 0.996967
vt 0.769202 0.993950
vt 0.775886 0.979411
vt 0.773456 0.959861
vt 0.765725 0.942557
vt 0.800598 0.941079
vt 0.786771 0.974811
vt 0.796113 0.984002
vt 0.796048 0.997596
vt 0.810361 0.995342
vt 0.797091 0.948858
vt 0.790602 0.947981
vt 0.778429 0.983606
vt 0.795878 0.966735
vt 0.803579 0.949735
vt 0.797865 0.941673
vt 0.796727 0.941521
vt 0.808867 0.980007
vt 0.756373 0.942063
vt 0.756626 0.940288
vt 0.756119 0.943837
vt 0.778328 0.995117
vt 0.795588 0.941368
vn -0.0981 0.7551 -0.6482
vn -0.1198 0.6330 -0.7648
vn -0.1041 0.6327 -0.7673
vn -0.0517 0.7997 -0.5982
vn 0.0345 0.4668 -0.8837
vn -0.1397 0.4768 -0.8678
vn -0.1306 0.5549 -0.8216
vn 0.0769 0.5410 -0.8375
vn -0.1182 0.6432 -0.7564
vn 0.0907 0.6085 -0.7883
vn 0.3344 0.6294 -0.7015
vn -0.0878 0.8016 -0.5913
vn 0.2650 0.6391 -0.7220
vn -0.0975 0.7582 -0.6446
vn -0.0666 0.8783 -0.4735
vn -0.0243 0.8673 -0.4972
vn 0.0362 0.6459 -0.7625
vn 0.1388 0.5901 -0.7953
vn -0.0602 0.6964 -0.7151
vn 0.5975 0.3404 -0.7260
vn 0.2636 0.5285 -0.8069
vn 0.2414 0.5390 -0.8070
vn 0.5393 0.3597 -0.7614
vn 0.3504 0.5609 -0.7501
vn 0.3831 0.4800 -0.7892
vn 0.2300 0.5451 -0.8062
vn -0.1042 0.7248 -0.6811
vn 0.0491 0.6287 -0.7761
vn -0.1241 0.8008 -0.5859
vn -0.1354 0.6332 -0.7620
vn -0.3097 0.4722 -0.8253
vn -0.3322 0.5473 -0.7681
vn -0.3269 0.6150 -0.7175
vn -0.5277 0.6428 -0.5553
vn -0.4687 0.6505 -0.5976
vn -0.1147 0.8687 -0.4819
vn -0.2659 0.6506 -0.7113
vn -0.1578 0.6980 -0.6985
vn -0.3752 0.5981 -0.7082
vn -0.7928 0.3620 -0.4903
vn -0.7489 0.3797 -0.5430
vn -0.4774 0.5501 -0.6851
vn -0.4986 0.5404 -0.6777
vn -0.6070 0.4954 -0.6213
vn -0.5609 0.5751 -0.5956
vn -0.4662 0.5559 -0.6882
vn -0.2831 0.6339 -0.7197
s 1
f 72/60/48 80/61/49 55/62/50 54/63/51
f 50/64/52 70/65/53 73/66/54 49/67/55
f 49/67/55 73/66/54 74/68/56 48/69/57
f 51/70/58 48/69/57 74/68/56 75/71/59
f 52/72/60 82/73/61 81/74/62 53/75/63
f 72/60/48 54/63/51 53/75/63 81/74/62
f 66/76/64 62/77/65 59/78/66
f 64/79/67 63/80/68 57/81/69 56/82/70
f 64/79/67 65/83/71 52/84/60 61/85/72
f 63/80/68 60/86/73 62/77/65 66/76/64
f 94/87/74 82/88/61 52/89/60 65/90/71
f 75/91/59 94/87/74 65/90/71 51/92/58
f 57/81/69 63/80/68 66/76/64 58/93/75
f 56/82/70 51/94/58 65/83/71 64/79/67
f 61/85/72 60/86/73 63/80/68 64/79/67
f 58/93/75 66/76/64 59/78/66
f 72/60/48 78/95/76 79/96/77 80/61/49
f 69/97/78 68/98/79 73/66/54 70/65/53
f 68/98/79 67/99/80 74/68/56 73/66/54
f 71/100/81 75/71/59 74/68/56 67/99/80
f 76/101/82 77/102/83 81/74/62 82/73/61
f 72/60/48 81/74/62 77/102/83 78/95/76
f 93/103/84 86/104/85 89/105/86
f 91/106/87 83/107/88 84/108/89 90/109/90
f 91/106/87 88/110/91 76/111/82 92/112/92
f 90/109/90 93/103/84 89/105/86 87/113/93
f 94/87/74 92/114/92 76/115/82 82/88/61
f 75/91/59 71/116/81 92/114/92 94/87/74
f 84/108/89 85/117/94 93/103/84 90/109/90
f 83/107/88 91/106/87 92/112/92 71/118/81
f 88/110/91 91/106/87 90/109/90 87/113/93
f 85/117/94 86/104/85 93/103/84
o flower2.002_Plane.003
v -0.788129 0.471194 0.692073
v -0.802127 0.525662 0.720757
v -0.741031 0.553298 0.748297
v -0.727137 0.420144 0.662789
v -0.730175 0.409964 0.650700
v -0.805307 0.390948 0.620001
v -0.827881 0.366488 0.579333
v -0.755541 0.323807 0.549471
v -0.723665 0.457001 0.676450
v -0.742732 0.528258 0.691727
v -0.798810 0.524175 0.683347
v -0.852526 0.485210 0.649915
v -0.807708 0.387841 0.589353
v -0.754156 0.397457 0.613711
v -0.849733 0.421743 0.594739
v -0.775220 0.458050 0.640540
v -0.738910 0.427229 0.645081
v -0.728656 0.415054 0.656744
v -0.824272 0.472959 0.639043
v -0.623694 0.471672 0.680367
v -0.606090 0.526232 0.706802
v -0.662828 0.553526 0.742730
v -0.702272 0.541279 0.740210
v -0.687923 0.420258 0.659997
v -0.713672 0.358627 0.572598
v -0.703202 0.493962 0.725208
v -0.705347 0.455245 0.693491
v -0.707452 0.421631 0.662553
v -0.686570 0.410091 0.647596
v -0.616434 0.391498 0.606556
v -0.599707 0.367152 0.563090
v -0.675299 0.324040 0.543759
v -0.715281 0.333061 0.548940
v -0.711147 0.386189 0.609188
v -0.708501 0.405187 0.647142
v -0.689638 0.457100 0.674028
v -0.669012 0.528473 0.686479
v -0.614664 0.524711 0.670238
v -0.566001 0.486044 0.629519
v -0.618381 0.388392 0.575875
v -0.667998 0.397707 0.607578
v -0.576214 0.422538 0.575269
v -0.643696 0.458432 0.631177
v -0.678818 0.427404 0.640803
v -0.687246 0.415174 0.653796
v -0.595439 0.473624 0.622754
v -0.708394 0.416364 0.649105
vt 0.804578 0.978906
vt 0.804692 0.993159
vt 0.797234 0.996967
vt 0.784028 0.994844
vt 0.769202 0.993950
vt 0.764337 0.991059
vt 0.763833 0.974828
vt 0.775886 0.979411
vt 0.763657 0.958397
vt 0.773456 0.959861
vt 0.765725 0.942557
vt 0.763507 0.943396
vt 0.800598 0.941079
vt 0.804692 0.942768
vt 0.804622 0.960151
vt 0.786771 0.974811
vt 0.796113 0.984002
vt 0.810361 0.995342
vt 0.796048 0.997596
vt 0.797091 0.948858
vt 0.795878 0.966735
vt 0.778429 0.983606
vt 0.790602 0.947981
vt 0.796727 0.941521
vt 0.797865 0.941673
vt 0.803579 0.949735
vt 0.808867 0.980007
vt 0.751507 0.941725
vt 0.751507 0.939105
vt 0.756626 0.940288
vt 0.756373 0.942063
vt 0.751507 0.944344
vt 0.756119 0.943837
vt 0.778328 0.995117
vt 0.795588 0.941368
vt 0.784028 0.994844
vt 0.797234 0.996967
vt 0.769202 0.993950
vt 0.775886 0.979411
vt 0.773456 0.959861
vt 0.765725 0.942557
vt 0.800598 0.941079
vt 0.786771 0.974811
vt 0.796113 0.984002
vt 0.796048 0.997596
vt 0.810361 0.995342
vt 0.797091 0.948858
vt 0.790602 0.947981
vt 0.778429 0.983606
vt 0.795878 0.966735
vt 0.803579 0.949735
vt 0.797865 0.941673
vt 0.796727 0.941521
vt 0.808867 0.980007
vt 0.756373 0.942063
vt 0.756626 0.940288
vt 0.756119 0.943837
vt 0.778328 0.995117
vt 0.795588 0.941368
vn -0.0515 0.7169 -0.6952
vn -0.0591 0.5884 -0.8064
vn -0.0433 0.5883 -0.8074
vn -0.0112 0.7653 -0.6435
vn 0.1097 0.4204 -0.9007
vn -0.0654 0.4264 -0.9021
vn -0.0627 0.5071 -0.8596
vn 0.1458 0.4980 -0.8548
vn -0.0586 0.5990 -0.7985
vn 0.1532 0.5685 -0.8083
vn 0.3868 0.6005 -0.6999
vn -0.0478 0.7667 -0.6402
vn 0.3195 0.6072 -0.7275
vn -0.0513 0.7203 -0.6918
vn -0.0399 0.8500 -0.5253
vn 0.0048 0.8389 -0.5442
vn 0.0956 0.6056 -0.7900
vn 0.2021 0.5510 -0.8097
vn -0.0060 0.6559 -0.7548
vn 0.6574 0.3179 -0.6832
vn 0.3287 0.4923 -0.8059
vn 0.3065 0.5021 -0.8086
vn 0.6025 0.3337 -0.7250
vn 0.4089 0.5300 -0.7429
vn 0.4470 0.4481 -0.7741
vn 0.2949 0.5080 -0.8093
vn -0.0537 0.6848 -0.7267
vn 0.1101 0.5881 -0.8012
vn -0.0845 0.7651 -0.6383
vn -0.0749 0.5882 -0.8052
vn -0.2386 0.4194 -0.8759
vn -0.2682 0.4968 -0.8253
vn -0.2694 0.5672 -0.7782
vn -0.4855 0.5979 -0.6378
vn -0.4228 0.6050 -0.6746
vn -0.0867 0.8386 -0.5377
vn -0.2100 0.6047 -0.7682
vn -0.1047 0.6556 -0.7478
vn -0.3180 0.5495 -0.7726
vn -0.7494 0.3139 -0.5830
vn -0.7010 0.3299 -0.6322
vn -0.4208 0.5000 -0.7569
vn -0.4424 0.4901 -0.7510
vn -0.5548 0.4452 -0.7028
vn -0.5131 0.5273 -0.6772
vn -0.4095 0.5059 -0.7591
vn -0.2259 0.5871 -0.7773
s 1
f 119/119/95 127/120/96 102/121/97 101/122/98
f 97/123/99 117/124/100 120/125/101 96/126/102
f 96/126/102 120/125/101 121/127/103 95/128/104
f 98/129/105 95/128/104 121/127/103 122/130/106
f 99/131/107 129/132/108 128/133/109 100/134/110
f 119/119/95 101/122/98 100/134/110 128/133/109
f 113/135/111 109/136/112 106/137/113
f 111/138/114 110/139/115 104/140/116 103/141/117
f 111/138/114 112/142/118 99/143/107 108/144/119
f 110/139/115 107/145/120 109/136/112 113/135/111
f 141/146/121 129/147/108 99/148/107 112/149/118
f 122/150/106 141/146/121 112/149/118 98/151/105
f 104/140/116 110/139/115 113/135/111 105/152/122
f 103/141/117 98/153/105 112/142/118 111/138/114
f 108/144/119 107/145/120 110/139/115 111/138/114
f 105/152/122 113/135/111 106/137/113
f 119/119/95 125/154/123 126/155/124 127/120/96
f 116/156/125 115/157/126 120/125/101 117/124/100
f 115/157/126 114/158/127 121/127/103 120/125/101
f 118/159/128 122/130/106 121/127/103 114/158/127
f 123/160/129 124/161/130 128/133/109 129/132/108
f 119/119/95 128/133/109 124/161/130 125/154/123
f 140/162/131 133/163/132 136/164/133
f 138/165/134 130/166/135 131/167/136 137/168/137
f 138/165/134 135/169/138 123/170/129 139/171/139
f 137/168/137 140/162/131 136/164/133 134/172/140
f 141/146/121 139/173/139 123/174/129 129/147/108
f 122/150/106 118/175/128 139/173/139 141/146/121
f 131/167/136 132/176/141 140/162/131 137/168/137
f 130/166/135 138/165/134 139/171/139 118/177/128
f 135/169/138 138/165/134 137/168/137 134/172/140
f 132/176/141 133/163/132 140/162/131
o flowerStem.001_Plane.005
v -0.186945 0.000000 0.653977
v -0.209275 0.418178 0.681723
v -0.216950 0.000000 0.664459
v -0.232979 0.418178 0.669700
v -0.210966 0.000000 0.622286
v -0.220956 0.418178 0.645996
v -0.187263 0.000000 0.634309
v -0.197253 0.418178 0.658019
v -0.204800 0.209089 0.695413
v -0.239035 0.209089 0.671680
v -0.222536 0.209089 0.661667
v -0.198833 0.209089 0.673689
vt 0.045958 0.933609
vt 0.034194 0.933609
vt 0.034194 0.921844
vt 0.045958 0.921844
vt 0.034194 0.910079
vt 0.045958 0.910079
vt 0.034194 0.898315
vt 0.045958 0.898315
vt 0.034194 0.886550
vt 0.045958 0.886550
vt 0.057723 0.898315
vt 0.057723 0.886550
vt 0.057723 0.910079
vt 0.057723 0.921844
vt 0.057723 0.933609
vn 0.4252 -0.0110 0.9050
vn 0.3146 0.0514 0.9478
vn -0.9875 0.0157 0.1569
vn -0.9477 -0.0548 0.3145
vn -0.1880 -0.0537 -0.9807
vn -0.2887 0.0252 -0.9571
vn 0.9246 -0.0278 -0.3799
vn 0.9258 0.0622 -0.3728
vn 0.8536 0.1493 -0.4991
vn 0.6678 -0.0511 0.7426
vn -0.2928 0.1253 -0.9479
vn -0.8711 -0.1292 0.4738
s 1
f 150/178/142 143/179/143 145/180/144 151/181/145
f 151/181/145 145/180/144 147/182/146 152/183/147
f 152/183/147 147/182/146 149/184/148 153/185/149
f 153/185/149 149/184/148 143/186/143 150/187/142
f 148/188/150 153/185/149 150/187/142 142/189/151
f 146/190/152 152/183/147 153/185/149 148/188/150
f 144/191/153 151/181/145 152/183/147 146/190/152
f 142/192/151 150/178/142 151/181/145 144/191/153
o flowerStem.002_Plane.006
v -0.704628 0.000000 0.689678
v -0.733609 0.418178 0.710379
v -0.736348 0.000000 0.691686
v -0.753196 0.418178 0.692413
v -0.719220 0.000000 0.652686
v -0.735230 0.418178 0.672827
v -0.699634 0.000000 0.670652
v -0.715644 0.418178 0.690793
v -0.732988 0.209089 0.724769
v -0.759561 0.209089 0.692688
v -0.740975 0.209089 0.687492
v -0.721388 0.209089 0.705457
vt 0.045958 0.933609
vt 0.034194 0.933609
vt 0.034194 0.921844
vt 0.045958 0.921844
vt 0.034194 0.910079
vt 0.045958 0.910079
vt 0.034194 0.898315
vt 0.045958 0.898315
vt 0.034194 0.886550
vt 0.045958 0.886550
vt 0.057723 0.898315
vt 0.057723 0.886550
vt 0.057723 0.910079
vt 0.057723 0.921844
vt 0.057723 0.933609
vn 0.1655 -0.0110 0.9861
vn 0.0475 0.0514 0.9975
vn -0.9932 0.0157 -0.1150
vn -0.9973 -0.0548 0.0475
vn 0.0832 -0.0537 -0.9951
vn -0.0201 0.0252 -0.9995
vn 0.9928 -0.0278 -0.1167
vn 0.9920 0.0622 -0.1096
vn 0.9565 0.1493 -0.2506
vn 0.4429 -0.0511 0.8951
vn -0.0265 0.1253 -0.9918
vn -0.9666 -0.1292 0.2215
s 1
f 162/193/154 155/194/155 157/195/156 163/196/157
f 163/196/157 157/195/156 159/197/158 164/198/159
f 164/198/159 159/197/158 161/199/160 165/200/161
f 165/200/161 161/199/160 155/201/155 162/202/154
f 160/203/162 165/200/161 162/202/154 154/204/163
f 158/205/164 164/198/159 165/200/161 160/203/162
f 156/206/165 163/196/157 164/198/159 158/205/164
f 154/207/163 162/193/154 163/196/157 156/206/165
o flowerStem_Plane.004
v -0.464537 0.000000 0.245900
v -0.487533 0.418178 0.273096
v -0.494787 0.000000 0.255652
v -0.510938 0.418178 0.260503
v -0.487784 0.000000 0.213637
v -0.498345 0.418178 0.237098
v -0.464379 0.000000 0.226230
v -0.474940 0.418178 0.249691
v -0.483389 0.209089 0.286891
v -0.517040 0.209089 0.262336
v -0.500304 0.209089 0.252725
v -0.476899 0.209089 0.265318
vt 0.045958 0.933609
vt 0.034194 0.933609
vt 0.034194 0.921844
vt 0.045958 0.921844
vt 0.034194 0.910079
vt 0.045958 0.910079
vt 0.034194 0.898315
vt 0.045958 0.898315
vt 0.034194 0.886550
vt 0.045958 0.886550
vt 0.057723 0.898315
vt 0.057723 0.886550
vt 0.057723 0.910079
vt 0.057723 0.921844
vt 0.057723 0.933609
vn 0.4031 -0.0110 0.9151
vn 0.2915 0.0514 0.9552
vn -0.9910 0.0157 0.1330
vn -0.9550 -0.0548 0.2915
vn -0.1642 -0.0537 -0.9850
vn -0.2655 0.0252 -0.9638
vn 0.9335 -0.0278 -0.3574
vn 0.9345 0.0622 -0.3503
vn 0.8654 0.1493 -0.4783
vn 0.6496 -0.0511 0.7585
vn -0.2698 0.1253 -0.9547
vn -0.8823 -0.1292 0.4526
s 1
f 174/208/166 167/209/167 169/210/168 175/211/169
f 175/211/169 169/210/168 171/212/170 176/213/171
f 176/213/171 171/212/170 173/214/172 177/215/173
f 177/215/173 173/214/172 167/216/167 174/217/166
f 172/218/174 177/215/173 174/217/166 166/219/175
f 170/220/176 176/213/171 177/215/173 172/218/174
f 168/221/177 175/211/169 176/213/171 170/220/176
f 166/222/175 174/208/166 175/211/169 168/221/177
