# Blender v2.82 (sub 7) OBJ File: ''
# www.blender.org
o Cube_Cube.009
v -2.000000 1.250000 1.500000
v -2.000000 1.250000 1.875000
v -2.000000 1.500000 1.875000
v -1.697390 -0.000000 3.000000
v -1.000000 0.000000 3.000000
v -1.000000 0.000000 4.000000
v -1.697390 -0.000000 4.000000
v -1.697390 2.000000 3.000000
v -1.697390 2.000000 2.625000
v -2.000000 2.000000 2.625000
v -2.000000 2.000000 3.000000
v -2.000000 1.750000 3.000000
v -2.000000 1.750000 2.625000
v -1.697390 0.500000 0.375000
v -1.697390 0.750000 0.750000
v -1.697390 0.500000 0.750000
v -2.000000 0.500000 0.750000
v -2.000000 0.500000 0.375000
v -2.000000 0.250000 0.375000
v -2.000000 0.750000 1.125000
v -2.000000 0.750000 0.750000
v -1.697390 1.000000 1.125000
v -1.697390 1.250000 1.500000
v -1.697390 1.000000 1.500000
v -2.000000 -0.000000 0.375000
v -2.000000 0.250000 -0.000000
v -2.000000 -0.000000 -0.000000
v -2.000000 1.750000 2.250000
v -2.000000 1.500000 2.250000
v -2.000000 -0.000000 2.625000
v -2.000000 -0.000000 3.000000
v -1.697390 1.500000 1.875000
v -1.697390 1.750000 2.250000
v -1.697390 1.500000 2.250000
v -2.000000 1.000000 1.500000
v -2.000000 1.000000 1.125000
v -2.000000 -0.000000 0.750000
v -2.000000 -0.000000 1.125000
v -2.000000 -0.000000 1.500000
v -2.000000 -0.000000 1.875000
v -2.000000 -0.000000 2.250000
v -1.000000 1.250000 1.500000
v -1.000000 1.000000 1.500000
v -1.697390 -0.000000 -0.000000
v -1.697390 0.250000 -0.000000
v -1.000000 0.250000 -0.000000
v -1.000000 0.000000 -0.000000
v -1.000000 0.750000 0.750000
v -1.000000 0.500000 0.750000
v -1.697390 0.250000 0.375000
v -1.000000 0.500000 0.375000
v -1.000000 0.250000 0.375000
v -1.697390 0.750000 1.125000
v -1.000000 1.000000 1.125000
v -1.000000 0.750000 1.125000
v -1.000000 1.750000 2.250000
v -1.000000 1.500000 2.250000
v -1.697390 1.250000 1.875000
v -1.000000 1.500000 1.875000
v -1.000000 1.250000 1.875000
v -1.697390 1.750000 2.625000
v -1.000000 2.000000 3.000000
v -1.697390 2.000000 4.000000
v -1.000000 2.000000 4.000000
v -2.000000 1.750000 4.000000
v -2.000000 2.000000 4.000000
v -2.000000 -0.000000 4.000000
v -1.000000 1.750000 4.000000
v -1.697390 1.750000 4.000000
v -1.000000 2.000000 2.625000
v -1.000000 1.750000 2.625000
v -0.000000 1.250000 1.500000
v -0.000000 1.500000 1.875000
v -0.000000 1.250000 1.875000
v -0.302610 0.000000 3.000000
v -0.302610 0.000000 4.000000
v -0.302610 2.000000 3.000000
v -0.000000 2.000000 3.000000
v -0.000000 2.000000 2.625000
v -0.302610 2.000000 2.625000
v -0.000000 1.750000 3.000000
v -0.000000 1.750000 2.625000
v -0.302610 0.500000 0.375000
v -0.302610 0.500000 0.750000
v -0.302610 0.750000 0.750000
v -0.000000 0.500000 0.750000
v 0.000000 0.250000 0.375000
v -0.000000 0.500000 0.375000
v -0.000000 0.750000 1.125000
v -0.000000 0.750000 0.750000
v -0.302610 1.000000 1.125000
v -0.302610 1.000000 1.500000
v -0.302610 1.250000 1.500000
v 0.000000 0.000000 0.375000
v 0.000000 0.000000 0.000000
v 0.000000 0.250000 0.000000
v -0.000000 1.750000 2.250000
v -0.000000 1.500000 2.250000
v -0.000000 0.000000 3.000000
v -0.000000 0.000000 2.625000
v -1.000000 1.750000 3.000000
v -0.302610 1.500000 1.875000
v -0.302610 1.500000 2.250000
v -0.302610 1.750000 2.250000
v -0.000000 1.000000 1.500000
v -0.000000 1.000000 1.125000
v 0.000000 0.000000 0.750000
v 0.000000 0.000000 1.125000
v -0.000000 0.000000 1.500000
v -0.000000 0.000000 1.875000
v -0.000000 0.000000 2.250000
v -0.302610 0.000000 -0.000000
v -0.302610 0.250000 -0.000000
v -0.302610 0.250000 0.375000
v -0.302610 0.750000 1.125000
v -0.302610 1.250000 1.875000
v -0.302610 1.750000 2.625000
v -0.302610 2.000000 4.000000
v -0.000000 2.000000 4.000000
v -0.000000 1.750000 4.000000
v -0.000000 0.000000 4.000000
v -0.302610 1.750000 4.000000
vt 0.531250 0.875000
vt 0.531250 0.843750
vt 0.562500 0.843750
vt 0.000000 0.000000
vt 0.000000 0.000000
vt 0.000000 0.000000
vt 0.000000 0.000000
vt 0.625000 0.687500
vt 0.656250 0.687500
vt 0.656250 0.750000
vt 0.625000 0.750000
vt 0.593750 0.750000
vt 0.625000 0.781250
vt 0.593750 0.781250
vt 0.437500 0.796875
vt 0.468750 0.781250
vt 0.437500 0.781250
vt 0.437500 0.937500
vt 0.437500 0.968750
vt 0.406250 0.968750
vt 0.468750 0.906250
vt 0.468750 0.937500
vt 0.500000 0.765625
vt 0.531250 0.750000
vt 0.500000 0.750000
vt 0.375000 0.968750
vt 0.406250 1.000000
vt 0.375000 1.000000
vt 0.593750 0.812500
vt 0.562500 0.812500
vt 0.375000 0.781250
vt 0.375000 0.750000
vt 0.562500 0.734375
vt 0.593750 0.718750
vt 0.562500 0.718750
vt 0.500000 0.875000
vt 0.500000 0.906250
vt 0.375000 0.937500
vt 0.375000 0.906250
vt 0.375000 0.875000
vt 0.375000 0.843750
vt 0.375000 0.812500
vt 0.531250 0.625000
vt 0.500000 0.625000
vt 0.375000 0.062500
vt 0.406250 0.062500
vt 0.406250 0.125000
vt 0.375000 0.125000
vt 0.468750 0.625000
vt 0.437500 0.625000
vt 0.406250 0.796875
vt 0.437500 0.625000
vt 0.406250 0.625000
vt 0.468750 0.765625
vt 0.500000 0.625000
vt 0.468750 0.625000
vt 0.593750 0.625000
vt 0.562500 0.625000
vt 0.531250 0.734375
vt 0.562500 0.625000
vt 0.531250 0.625000
vt 0.375000 0.000000
vt 0.406250 0.000000
vt 0.625000 0.703125
vt 0.593750 0.703125
vt 0.625000 0.625000
vt 0.625000 0.687500
vt 0.625000 0.625000
vt 0.593750 0.750000
vt 0.625000 0.750000
vt 0.375000 0.750000
vt 0.000000 0.000000
vt 0.000000 0.000000
vt 0.593750 0.625000
vt 0.593750 0.687500
vt 0.375000 0.625000
vt 0.375000 0.687500
vt 0.625000 0.625000
vt 0.593750 0.625000
vt 0.656250 0.625000
vt 0.531250 0.875000
vt 0.562500 0.843750
vt 0.531250 0.843750
vt 0.000000 0.000000
vt 0.000000 0.000000
vt 0.625000 0.687500
vt 0.625000 0.750000
vt 0.656250 0.750000
vt 0.656250 0.687500
vt 0.593750 0.750000
vt 0.593750 0.781250
vt 0.625000 0.781250
vt 0.437500 0.796875
vt 0.437500 0.781250
vt 0.468750 0.781250
vt 0.437500 0.937500
vt 0.406250 0.968750
vt 0.437500 0.968750
vt 0.468750 0.906250
vt 0.468750 0.937500
vt 0.500000 0.765625
vt 0.500000 0.750000
vt 0.531250 0.750000
vt 0.375000 0.968750
vt 0.375000 1.000000
vt 0.406250 1.000000
vt 0.593750 0.812500
vt 0.562500 0.812500
vt 0.375000 0.750000
vt 0.375000 0.781250
vt 0.000000 0.000000
vt 0.000000 0.000000
vt 0.562500 0.734375
vt 0.562500 0.718750
vt 0.593750 0.718750
vt 0.500000 0.875000
vt 0.500000 0.906250
vt 0.375000 0.937500
vt 0.375000 0.906250
vt 0.375000 0.875000
vt 0.375000 0.843750
vt 0.375000 0.812500
vt 0.375000 0.062500
vt 0.406250 0.062500
vt 0.406250 0.796875
vt 0.468750 0.765625
vt 0.531250 0.734375
vt 0.375000 0.000000
vt 0.406250 0.000000
vt 0.625000 0.703125
vt 0.593750 0.703125
vt 0.625000 0.687500
vt 0.000000 0.000000
vt 0.000000 0.000000
vt 0.625000 0.750000
vt 0.593750 0.750000
vt 0.375000 0.750000
vt 0.000000 0.000000
vt 0.000000 0.000000
vt 0.593750 0.687500
vt 0.375000 0.687500
vn -1.0000 0.0000 0.0000
vn 0.0000 -1.0000 0.0000
vn -0.0000 1.0000 0.0000
vn 1.0000 0.0000 0.0000
vn 0.0000 0.0000 -1.0000
vn 0.0000 0.0000 1.0000
vn -0.0000 0.8321 -0.5547
s 1
f 1/1/1 2/2/1 3/3/1
f 4/4/2 5/5/2 6/6/2 7/7/2
f 8/8/3 9/9/3 10/10/3 11/11/3
f 12/12/1 11/11/1 10/13/1 13/14/1
f 14/15/4 15/16/4 16/17/4
f 17/18/1 18/19/1 19/20/1
f 20/21/1 21/22/1 17/18/1
f 22/23/4 23/24/4 24/25/4
f 25/26/1 19/20/1 26/27/1 27/28/1
f 13/14/1 10/13/1 28/29/1
f 13/14/1 28/29/1 29/30/1
f 29/30/1 3/3/1 2/2/1
f 12/12/1 13/14/1 30/31/1 31/32/1
f 32/33/4 33/34/4 34/35/4
f 2/2/1 1/1/1 35/36/1
f 35/36/1 36/37/1 20/21/1
f 37/38/1 17/18/1 19/20/1 25/26/1
f 38/39/1 20/21/1 17/18/1 37/38/1
f 39/40/1 35/36/1 20/21/1 38/39/1
f 40/41/1 2/2/1 35/36/1 39/40/1
f 41/42/1 29/30/1 2/2/1 40/41/1
f 30/31/1 13/14/1 29/30/1 41/42/1
f 24/25/5 23/24/5 42/43/5 43/44/5
f 44/45/5 45/46/5 46/47/5 47/48/5
f 16/17/5 15/16/5 48/49/5 49/50/5
f 50/51/5 14/15/5 51/52/5 52/53/5
f 53/54/5 22/23/5 54/55/5 55/56/5
f 34/35/5 33/34/5 56/57/5 57/58/5
f 58/59/5 32/33/5 59/60/5 60/61/5
f 29/30/1 28/29/1 3/3/1
f 35/36/1 1/1/1 36/37/1
f 23/24/4 32/33/4 58/59/4
f 45/46/4 14/15/4 50/51/4
f 15/16/4 22/23/4 53/54/4
f 27/62/5 26/63/5 45/46/5 44/45/5
f 9/64/4 61/65/4 33/34/4
f 48/49/3 15/16/3 53/54/3 55/56/3
f 62/66/3 8/8/3 63/67/3 64/68/3
f 54/55/3 22/23/3 24/25/3 43/44/3
f 51/52/3 14/15/3 16/17/3 49/50/3
f 52/53/3 46/47/3 45/46/3 50/51/3
f 11/11/1 12/12/1 65/69/1 66/70/1
f 12/12/1 31/32/1 67/71/1 65/69/1
f 31/72/2 4/4/2 7/7/2 67/73/2
f 68/74/6 64/68/6 63/67/6 69/75/6
f 6/76/6 68/74/6 69/75/6 7/77/6
f 7/77/6 69/75/6 65/69/6 67/71/6
f 70/78/5 71/79/5 61/65/5 9/64/5
f 56/57/3 33/34/3 61/65/3 71/79/3
f 59/60/3 32/33/3 34/35/3 57/58/3
f 62/66/3 70/80/3 9/9/3 8/8/3
f 69/75/6 63/67/6 66/70/6 65/69/6
f 8/8/3 11/11/3 66/70/3 63/67/3
f 42/43/3 23/24/3 58/59/3 60/61/3
f 20/21/1 36/37/1 21/22/1
f 17/18/1 21/22/1 18/19/1
f 19/20/1 18/19/1 26/27/1
f 10/13/7 9/64/7 33/34/7 28/29/7
f 3/3/7 28/29/7 33/34/7 32/33/7
f 1/1/7 3/3/7 32/33/7 23/24/7
f 36/37/7 1/1/7 23/24/7 22/23/7
f 21/22/7 36/37/7 22/23/7 15/16/7
f 18/19/7 21/22/7 15/16/7 14/15/7
f 14/15/7 45/46/7 26/63/7 18/19/7
f 72/81/4 73/82/4 74/83/4
f 75/84/2 76/85/2 6/6/2 5/5/2
f 77/86/3 78/87/3 79/88/3 80/89/3
f 81/90/4 82/91/4 79/92/4 78/87/4
f 83/93/1 84/94/1 85/95/1
f 86/96/4 87/97/4 88/98/4
f 89/99/4 86/96/4 90/100/4
f 91/101/1 92/102/1 93/103/1
f 94/104/4 95/105/4 96/106/4 87/97/4
f 82/91/4 97/107/4 79/92/4
f 82/91/4 98/108/4 97/107/4
f 98/108/4 74/83/4 73/82/4
f 81/90/4 99/109/4 100/110/4 82/91/4
f 5/5/1 6/6/1 68/111/1 101/112/1
f 102/113/1 103/114/1 104/115/1
f 74/83/4 105/116/4 72/81/4
f 105/116/4 89/99/4 106/117/4
f 107/118/4 94/104/4 87/97/4 86/96/4
f 108/119/4 107/118/4 86/96/4 89/99/4
f 109/120/4 108/119/4 89/99/4 105/116/4
f 110/121/4 109/120/4 105/116/4 74/83/4
f 111/122/4 110/121/4 74/83/4 98/108/4
f 100/110/4 111/122/4 98/108/4 82/91/4
f 92/102/5 43/44/5 42/43/5 93/103/5
f 112/123/5 47/48/5 46/47/5 113/124/5
f 84/94/5 49/50/5 48/49/5 85/95/5
f 114/125/5 52/53/5 51/52/5 83/93/5
f 115/126/5 55/56/5 54/55/5 91/101/5
f 103/114/5 57/58/5 56/57/5 104/115/5
f 116/127/5 60/61/5 59/60/5 102/113/5
f 98/108/4 73/82/4 97/107/4
f 105/116/4 106/117/4 72/81/4
f 93/103/1 116/127/1 102/113/1
f 113/124/1 114/125/1 83/93/1
f 85/95/1 115/126/1 91/101/1
f 95/128/5 112/123/5 113/124/5 96/129/5
f 80/130/1 104/115/1 117/131/1
f 48/49/3 55/56/3 115/126/3 85/95/3
f 62/66/3 64/68/3 118/132/3 77/86/3
f 54/55/3 43/44/3 92/102/3 91/101/3
f 51/52/3 49/50/3 84/94/3 83/93/3
f 52/53/3 114/125/3 113/124/3 46/47/3
f 101/112/1 68/111/1 64/133/1 62/134/1
f 78/87/4 119/135/4 120/136/4 81/90/4
f 81/90/4 120/136/4 121/137/4 99/109/4
f 99/138/2 121/139/2 76/85/2 75/84/2
f 68/74/6 122/140/6 118/132/6 64/68/6
f 6/76/6 76/141/6 122/140/6 68/74/6
f 76/141/6 121/137/6 120/136/6 122/140/6
f 70/78/5 80/130/5 117/131/5 71/79/5
f 56/57/3 71/79/3 117/131/3 104/115/3
f 59/60/3 57/58/3 103/114/3 102/113/3
f 62/66/3 77/86/3 80/89/3 70/80/3
f 122/140/6 120/136/6 119/135/6 118/132/6
f 77/86/3 118/132/3 119/135/3 78/87/3
f 42/43/3 60/61/3 116/127/3 93/103/3
f 89/99/4 90/100/4 106/117/4
f 86/96/4 88/98/4 90/100/4
f 87/97/4 96/106/4 88/98/4
f 79/92/7 97/107/7 104/115/7 80/130/7
f 73/82/7 102/113/7 104/115/7 97/107/7
f 72/81/7 93/103/7 102/113/7 73/82/7
f 106/117/7 91/101/7 93/103/7 72/81/7
f 90/100/7 85/95/7 91/101/7 106/117/7
f 88/98/7 83/93/7 85/95/7 90/100/7
f 83/93/7 88/98/7 96/129/7 113/124/7
