# Blender v2.82 (sub 7) OBJ File: 'fences.blend'
# www.blender.org
o Fence1_unlinked_Plane.001
v 0.080025 0.691644 -0.049032
v 0.248240 0.812498 -0.044711
v 0.400125 0.691644 -0.049032
v 0.334797 -0.002450 -0.019316
v 0.161682 -0.002450 -0.016069
v 0.080025 0.691644 0.044377
v 0.248240 0.812498 0.039970
v 0.400125 0.691644 0.042552
v 0.334797 -0.002450 0.027234
v 0.161682 -0.002450 0.025510
v 0.000000 0.538685 -0.018595
v 0.000000 0.334698 -0.018595
v 0.000000 0.538685 0.018596
v 0.000000 0.334698 0.018596
v 0.451762 0.538685 -0.018595
v 0.418692 0.334698 -0.018595
v 0.451762 0.538685 0.018596
v 0.418692 0.334698 0.018596
vt 0.034168 0.994576
vt 0.005369 0.966280
vt 0.071574 0.973202
vt 0.033898 0.824002
vt 0.069712 0.827716
vt 0.114209 0.972962
vt 0.089443 0.958164
vt 0.134203 0.953795
vt 0.079370 0.827214
vt 0.120155 0.825267
vt 0.151470 0.960429
vt 0.130570 0.824002
vt 0.119554 0.992040
vt 0.156089 0.770405
vt 0.242943 0.770405
vt 0.242943 0.810006
vt 0.158042 0.810006
vt 0.242943 0.817226
vt 0.158042 0.817226
vt 0.156089 0.763185
vt 0.242943 0.763185
vt 0.156088 0.856826
vt 0.242943 0.856826
vt 0.151938 0.811855
vt 0.149985 0.768556
vn 0.0000 0.0357 -0.9994
vn -0.0066 -0.0452 -0.9990
vn 0.0057 0.0285 0.9996
vn 0.0002 -0.0246 0.9997
vn 0.9956 -0.0937 -0.0000
vn -0.5835 0.8121 0.0000
vn -0.9932 -0.1168 0.0000
vn 0.6226 0.7825 0.0000
vn -0.0000 0.0000 1.0000
vn 0.0000 -1.0000 0.0000
vn 0.0000 1.0000 0.0000
vn 0.0000 -0.0000 -1.0000
vn 0.9871 -0.1600 0.0000
s off
f 2/1/1 3/2/1 1/3/1
f 3/2/2 4/4/2 5/5/2 1/3/2
f 7/6/3 6/7/3 8/8/3
f 8/8/4 6/7/4 10/9/4 9/10/4
f 3/11/5 8/8/5 9/10/5 4/12/5
f 1/3/6 6/7/6 7/6/6 2/13/6
f 5/5/7 10/9/7 6/7/7 1/3/7
f 2/13/8 7/6/8 8/8/8 3/11/8
f 17/14/9 13/15/9 14/16/9 18/17/9
f 12/18/10 16/19/10 18/17/10 14/16/10
f 15/20/11 11/21/11 13/15/11 17/14/11
f 15/22/12 16/19/12 12/18/12 11/23/12
f 16/24/13 15/25/13 17/14/13 18/17/13
