# Blender v2.81 (sub 16) OBJ File: ''
# www.blender.org
mtllib cliffCorner.mtl
o Plane
v -0.500000 0.000000 0.500000
v 0.500000 0.000000 -0.500000
v -0.500000 2.000000 0.500000
v -0.500000 2.000000 -0.500000
v 0.500000 2.000000 -0.500000
v 0.500000 0.000000 0.500000
v 0.500000 2.000000 0.500000
vt 1.000000 0.000000
vt 1.000000 1.000000
vt 0.000000 1.000000
vt 0.000000 0.000000
vt 0.000000 0.000000
vt 0.500000 1.000000
vt 1.000000 1.000000
vt 1.000000 0.000000
vt 0.000000 1.000000
vt 0.000000 0.000000
vn 0.0000 0.0000 1.0000
vn 0.0000 1.0000 0.0000
vn 1.0000 0.0000 0.0000
usemtl None
s off
f 6/1/1 7/2/1 3/3/1 1/4/1
f 4/5/2 3/3/2 7/6/2 5/7/2
f 2/8/3 5/7/3 7/9/3 6/10/3
