# Blender v2.81 (sub 16) OBJ File: ''
# www.blender.org
o Plane.003
v 0.250000 0.000000 0.500000
v 0.375000 0.000000 0.600000
v 0.500000 0.000000 0.500000
v 0.500000 -0.200000 0.500000
v 0.375000 -0.200000 0.600000
v 0.250000 -0.200000 0.500000
v 0.375000 -2.000000 0.600000
v 0.250000 -2.000000 0.500000
v 0.500000 -2.000000 0.500000
vt 0.852273 0.920455
vt 0.937500 1.000000
vt 1.000000 1.000000
vt 1.000000 0.500000
vt 0.875000 1.000000
vt 0.875000 0.500000
vt 0.750000 1.000000
vt 0.750000 0.500000
vt 0.875000 0.000000
vt 0.750000 0.000000
vt 1.000000 0.000000
vn -0.0000 1.0000 0.0000
vn 0.6247 0.0000 0.7809
vn -0.6247 -0.0000 0.7809
s 1
f 1/1/1 2/2/1 3/3/1
f 4/4/2 3/3/2 2/5/2 5/6/2
f 5/6/3 2/5/3 1/7/3 6/8/3
f 7/9/3 5/6/3 6/8/3 8/10/3
f 9/11/2 4/4/2 5/6/2 7/9/2
