# Blender v2.81 (sub 16) OBJ File: ''
# www.blender.org
mtllib pathCurved2.mtl
o Plane_Plane.006
v 0.500000 0.005000 0.000000
v 0.000000 0.005000 0.000000
v 0.000000 0.005000 0.500000
v 0.500000 0.005000 0.500000
v 0.500000 0.005000 -0.500000
v 0.000000 0.005000 -0.500000
v -0.500000 0.005000 0.000000
v -0.500000 0.005000 0.500000
vt 0.250000 0.250000
vt 0.375000 0.250000
vt 0.375000 0.500000
vt 0.250000 0.500000
vt 0.250000 0.000000
vt 0.375000 0.000000
vt 0.496094 0.250000
vt 0.496094 0.500000
vn 0.0000 1.0000 0.0000
usemtl None.006
s 1
f 1/1/1 2/2/1 3/3/1 4/4/1
f 2/2/1 1/1/1 5/5/1 6/6/1
f 3/3/1 2/2/1 7/7/1 8/8/1
