# Blender v2.81 (sub 16) OBJ File: ''
# www.blender.org
mtllib waterBigEdge.mtl
o Plane.001
v 0.000000 0.000000 0.000000
v 0.000000 0.000000 -0.250000
v 0.000000 -0.750000 -0.250000
v 0.000000 -0.750000 -0.000000
v -0.250000 -0.750000 -0.250000
v -0.250000 -0.750000 -0.000000
v 0.250000 -0.000000 0.250000
v 0.250000 0.000000 0.000000
v 0.000000 -0.000000 0.250000
v 0.250000 0.000000 -0.250000
v -0.250000 0.000000 0.000000
v -0.250000 -0.000000 0.250000
vt 0.500000 1.000000
vt 0.000000 1.000000
vt 0.000000 0.000000
vt 0.500000 0.000000
vt 0.500000 0.000000
vt 1.000000 0.000000
vt 0.000000 0.000000
vt 0.250000 0.000000
vt 0.250000 0.250000
vt 0.000000 0.250000
vt 0.500000 0.000000
vt 0.500000 0.250000
vt 1.000000 1.000000
vt 0.250000 0.500000
vt 0.000000 0.500000
vn -1.0000 0.0000 0.0000
vn 0.0000 1.0000 0.0000
vn 0.0000 0.0000 -1.0000
usemtl None
s 1
f 1/1/1 2/2/1 3/3/1 4/4/1
f 4/4/2 3/3/2 5/5/2 6/6/2
f 7/7/2 8/8/2 1/9/2 9/10/2
f 8/8/2 10/11/2 2/12/2 1/9/2
f 11/13/3 1/1/3 4/4/3 6/6/3
f 9/10/2 1/9/2 11/14/2 12/15/2
