# Blender v2.81 (sub 16) OBJ File: ''
# www.blender.org
o Plane.010
v 0.250000 -0.000000 0.250000
v 0.250000 -0.000000 -0.000000
v -0.250000 -0.000000 -0.000000
v -0.250000 -0.000000 0.250000
v 0.250000 -0.750000 -0.000000
v -0.250000 -0.750000 -0.000000
v 0.250000 -0.750000 -0.250000
v -0.250000 -0.750000 -0.250000
vt 0.201784 1.250078
vt 0.000000 1.000000
vt 1.000000 1.000000
vt 0.689019 1.199862
vt 0.000000 0.000000
vt 1.000000 0.000000
vt 0.000000 0.000000
vt 1.000000 0.000000
vn 0.0000 1.0000 0.0000
vn 0.0000 0.0000 -1.0000
s 1
f 1/1/1 2/2/1 3/3/1 4/4/1
f 2/2/2 5/5/2 6/6/2 3/3/2
f 5/5/1 7/7/1 8/8/1 6/6/1
