# Blender v2.81 (sub 16) OBJ File: ''
# www.blender.org
mtllib waterSide.mtl
o Plane.004
v 0.000000 -0.750000 -0.000000
v -0.250000 -0.750000 -0.250000
v 0.250000 -0.750000 -0.000000
v 0.250000 -0.750000 -0.250000
v 0.000000 -0.750000 0.250000
v -0.250000 -0.750000 0.250000
v 0.000000 0.000000 0.000000
v 0.250000 0.000000 0.000000
v 0.000000 -0.000000 0.250000
v 0.250000 -0.000000 0.250000
vt 0.000000 0.000000
vt 0.000000 0.000000
vt 0.500000 0.000000
vt 0.500000 0.000000
vt 1.000000 0.000000
vt 1.000000 0.000000
vt 0.500000 1.000000
vt 0.000000 1.000000
vt 1.000000 1.000000
vt 0.546294 1.658568
vn 0.0000 1.0000 0.0000
vn 0.0000 0.0000 -1.0000
vn -1.0000 0.0000 0.0000
usemtl None.004
s 1
f 3/1/1 4/2/1 2/3/1 1/4/1
f 5/5/1 1/4/1 2/3/1 6/6/1
f 7/7/2 8/8/2 3/1/2 1/4/2
f 9/9/3 7/7/3 1/4/3 5/5/3
f 9/9/1 10/10/1 8/8/1 7/7/1
