# Blender v2.81 (sub 16) OBJ File: ''
# www.blender.org
mtllib waterSide.mtl
o Plane.003
v -0.250000 0.000000 0.000000
v -0.250000 -0.750000 -0.000000
v -0.250000 -0.750000 -0.250000
v 0.250000 -0.000000 0.250000
v 0.250000 0.000000 0.000000
v -0.250000 -0.000000 0.250000
v 0.250000 -0.750000 -0.000000
v 0.250000 -0.750000 -0.250000
vt 0.201784 1.250078
vt 0.000000 1.000000
vt 1.000000 1.000000
vt 0.689019 1.199862
vt 0.000000 0.000000
vt 1.000000 0.000000
vt 0.000000 0.000000
vt 1.000000 0.000000
vn 0.0000 1.0000 0.0000
vn 0.0000 0.0000 -1.0000
usemtl None.003
s 1
f 4/1/1 5/2/1 1/3/1 6/4/1
f 5/2/2 7/5/2 2/6/2 1/3/2
f 7/5/1 8/7/1 3/8/1 2/6/1
