# Blender v2.82 (sub 7) OBJ File: 'stairs.blend'
# www.blender.org
o brickStair_Cube_Cube.001
v -2.000000 1.250000 1.653387
v -2.000000 -0.000000 2.066734
v -2.000000 1.500000 2.066734
v -1.697390 2.015825 3.070826
v -1.697390 2.015825 2.893427
v -2.010887 2.015825 2.893427
v -2.010887 2.015825 3.070826
v -2.010887 -0.000002 3.070826
v -2.010887 -0.000000 2.893427
v -1.697390 0.500000 0.413347
v -1.697390 0.750000 0.826694
v -1.697390 0.500000 0.826694
v -2.000000 -0.000000 0.826693
v -2.000000 0.500000 0.413347
v -2.000000 -0.000000 0.413347
v -2.000000 -0.000000 1.240040
v -2.000000 0.750000 0.826694
v -1.697390 1.000000 1.240040
v -1.697390 1.250000 1.653387
v -1.697390 1.000000 1.653387
v -2.000000 0.250000 0.000000
v -2.000000 0.000000 0.000000
v -2.000000 1.750000 2.480081
v -2.000000 -0.000000 2.480080
v -1.697390 1.500000 2.066734
v -1.697390 1.750000 2.480081
v -1.697390 1.500000 2.480081
v -2.000000 -0.000000 1.653387
v -2.000000 1.000000 1.240040
v -1.697390 0.000000 0.000000
v -1.697390 0.250000 0.000000
v -1.697390 0.250000 0.413347
v -1.697390 0.750000 1.240040
v -1.697390 1.250000 2.066734
v -1.697390 1.750000 2.893427
v -1.697390 2.015823 4.013126
v -2.010887 -0.000002 4.013126
v -2.010887 2.015823 4.013126
v -1.697390 -0.000002 4.013126
v -1.697390 1.750000 2.646094
v -1.697390 1.500000 2.232748
v -1.697390 1.250000 1.819401
v -1.697390 1.000000 1.406054
v -1.697390 0.750000 0.992707
v -1.697390 0.500000 0.579361
v -1.697390 0.250000 0.166014
v -1.697390 2.015824 3.831915
v -2.010887 2.015824 3.831915
v -2.010887 -0.000002 3.831914
v -0.000000 1.250000 1.653387
v -0.000000 -0.000000 2.066734
v -0.000000 1.500000 2.066734
v -0.302610 2.015825 3.070826
v -0.302610 2.015825 2.893427
v 0.010887 2.015825 2.893427
v 0.010887 2.015825 3.070826
v 0.010887 -0.000002 3.070826
v 0.010887 -0.000000 2.893427
v -0.302610 0.500000 0.413347
v -0.302610 0.750000 0.826694
v -0.302610 0.500000 0.826694
v -0.000000 -0.000000 0.826693
v -0.000000 0.500000 0.413347
v -0.000000 -0.000000 0.413347
v -0.000000 -0.000000 1.240040
v -0.000000 0.750000 0.826694
v -0.302610 1.000000 1.240040
v -0.302610 1.250000 1.653387
v -0.302610 1.000000 1.653387
v -0.000000 0.250000 0.000000
v -0.000000 0.000000 0.000000
v -0.000000 1.750000 2.480081
v -0.000000 -0.000000 2.480080
v -0.302610 1.500000 2.066734
v -0.302610 1.750000 2.480081
v -0.302610 1.500000 2.480081
v -0.000000 -0.000000 1.653387
v -0.000000 1.000000 1.240040
v -1.000000 1.250000 1.653387
v -1.000000 1.000000 1.653387
v -0.302610 0.000000 0.000000
v -0.302610 0.250000 0.000000
v -1.000000 0.250000 0.000000
v -1.000000 0.000000 0.000000
v -1.000000 0.750000 0.826694
v -1.000000 0.500000 0.826694
v -0.302610 0.250000 0.413347
v -1.000000 0.500000 0.413347
v -1.000000 0.250000 0.413347
v -0.302610 0.750000 1.240040
v -1.000000 1.000000 1.240040
v -1.000000 0.750000 1.240040
v -1.000000 1.750000 2.480081
v -1.000000 1.500000 2.480081
v -0.302610 1.250000 2.066734
v -1.000000 1.500000 2.066734
v -1.000000 1.250000 2.066734
v -0.302610 1.750000 2.893427
v -1.000000 2.015825 3.070826
v -0.302610 2.015823 4.013126
v -1.000000 2.015823 4.013126
v 0.010887 -0.000002 4.013126
v 0.010887 2.015823 4.013126
v -1.000000 2.015825 2.893427
v -1.000000 1.750000 2.893427
v -0.302610 -0.000002 4.013126
v -1.000000 -0.000002 4.013126
v -0.302610 1.750000 2.646094
v -1.000000 1.750000 2.646094
v -0.302610 1.500000 2.232748
v -1.000000 1.500000 2.232748
v -0.302610 1.250000 1.819401
v -1.000000 1.250000 1.819401
v -0.302610 1.000000 1.406054
v -1.000000 1.000000 1.406054
v -0.302610 0.750000 0.992707
v -1.000000 0.750000 0.992707
v -0.302610 0.500000 0.579361
v -1.000000 0.500000 0.579361
v -0.302610 0.250000 0.166014
v -1.000000 0.250000 0.166014
v -1.000000 2.015824 3.831915
v -0.302610 2.015824 3.831915
v 0.010887 2.015824 3.831915
v 0.010887 -0.000002 3.831914
vt 0.909117 0.479252
vt 0.915304 0.479252
vt 0.909117 0.482167
vt 0.902930 0.482167
vt 0.946238 0.455928
vt 0.952425 0.455928
vt 0.952425 0.461759
vt 0.946238 0.461759
vt 0.940051 0.461759
vt 0.946238 0.464675
vt 0.940051 0.464675
vt 0.909117 0.466132
vt 0.915304 0.464675
vt 0.909117 0.464675
vt 0.909117 0.465403
vt 0.915304 0.476336
vt 0.921491 0.476336
vt 0.902930 0.485083
vt 0.896744 0.485083
vt 0.921491 0.463217
vt 0.927678 0.461759
vt 0.921491 0.461759
vt 0.921491 0.462488
vt 0.933864 0.467590
vt 0.940051 0.467590
vt 0.933864 0.470506
vt 0.927678 0.470506
vt 0.921491 0.473421
vt 0.927678 0.473421
vt 0.933864 0.460301
vt 0.940051 0.458844
vt 0.933864 0.458844
vt 0.933864 0.459573
vt 0.929555 0.355028
vt 0.935742 0.355028
vt 0.935742 0.338959
vt 0.929555 0.338959
vt 0.912478 0.349398
vt 0.918665 0.349398
vt 0.918665 0.357433
vt 0.912478 0.357433
vt 0.917182 0.359045
vt 0.923368 0.359045
vt 0.923368 0.338959
vt 0.917182 0.338959
vt 0.910995 0.361054
vt 0.917182 0.361054
vt 0.917182 0.338959
vt 0.910995 0.338959
vt 0.923368 0.357037
vt 0.929555 0.357037
vt 0.929555 0.338959
vt 0.923368 0.338959
vt 0.941929 0.351011
vt 0.948115 0.351011
vt 0.948115 0.338959
vt 0.941929 0.338959
vt 0.935742 0.353019
vt 0.941929 0.353019
vt 0.941929 0.338959
vt 0.935742 0.338959
vt 0.927678 0.460301
vt 0.927678 0.461030
vt 0.911577 0.475037
vt 0.902930 0.466132
vt 0.907254 0.470585
vt 0.915304 0.463217
vt 0.915304 0.463946
vt 0.905390 0.469206
vt 0.911577 0.469206
vt 0.905390 0.475037
vt 0.946238 0.457386
vt 0.940051 0.457386
vt 0.940051 0.458115
vt 0.929434 0.387604
vt 0.929434 0.415484
vt 0.929434 0.414017
vt 0.929434 0.387604
vt 0.954302 0.338959
vt 0.954302 0.346993
vt 0.954302 0.346993
vt 0.954302 0.338959
vt 0.935620 0.387604
vt 0.935620 0.412549
vt 0.935620 0.411082
vt 0.935620 0.387604
vt 0.923247 0.387604
vt 0.923247 0.418419
vt 0.923247 0.416951
vt 0.923247 0.387604
vt 0.915318 0.360159
vt 0.914342 0.343263
vt 0.946238 0.461759
vt 0.940051 0.461759
vt 0.940051 0.461759
vt 0.946238 0.461759
vt 0.954302 0.338959
vt 0.948115 0.338959
vt 0.948115 0.349002
vt 0.954302 0.349002
vt 0.954181 0.387604
vt 0.954181 0.403745
vt 0.954181 0.402278
vt 0.954181 0.387604
vt 0.947994 0.387604
vt 0.947994 0.406680
vt 0.947994 0.405213
vt 0.947994 0.387604
vt 0.954302 0.338959
vt 0.960489 0.338959
vt 0.960489 0.346993
vt 0.954302 0.346993
vt 0.946238 0.455928
vt 0.946238 0.455928
vt 0.941807 0.387604
vt 0.941807 0.409615
vt 0.941807 0.408147
vt 0.941807 0.387604
vt 0.946238 0.450097
vt 0.929489 0.455416
vt 0.929489 0.450354
vt 0.948115 0.350006
vt 0.948115 0.338959
vt 0.941929 0.352015
vt 0.941929 0.338959
vt 0.935742 0.354024
vt 0.935742 0.338959
vt 0.929555 0.356032
vt 0.929555 0.338959
vt 0.923368 0.358041
vt 0.923368 0.338959
vt 0.917182 0.360050
vt 0.917182 0.338959
vt 0.917060 0.387604
vt 0.921384 0.418578
vt 0.921384 0.428849
vt 0.917060 0.419886
vt 0.960368 0.387604
vt 0.960368 0.399343
vt 0.960368 0.399343
vt 0.960368 0.387604
vt 0.909117 0.479252
vt 0.902930 0.482167
vt 0.909117 0.482167
vt 0.915304 0.479252
vt 0.946238 0.455928
vt 0.946238 0.461759
vt 0.952425 0.461759
vt 0.952425 0.455928
vt 0.940051 0.461759
vt 0.940051 0.464675
vt 0.946238 0.464675
vt 0.909117 0.466132
vt 0.909117 0.465403
vt 0.909117 0.464675
vt 0.915304 0.464675
vt 0.915304 0.476336
vt 0.921491 0.476336
vt 0.902930 0.485083
vt 0.896744 0.485083
vt 0.921491 0.463217
vt 0.921491 0.462488
vt 0.921491 0.461759
vt 0.927678 0.461759
vt 0.933864 0.467590
vt 0.927678 0.470506
vt 0.933864 0.470506
vt 0.940051 0.467590
vt 0.921491 0.473421
vt 0.927678 0.473421
vt 0.933864 0.460301
vt 0.933864 0.459573
vt 0.933864 0.458844
vt 0.940051 0.458844
vt 0.929555 0.355028
vt 0.935742 0.355028
vt 0.912478 0.349398
vt 0.918665 0.349398
vt 0.917182 0.359045
vt 0.923368 0.359045
vt 0.910995 0.361054
vt 0.917182 0.361054
vt 0.923368 0.357037
vt 0.929555 0.357037
vt 0.941929 0.351011
vt 0.948115 0.351011
vt 0.935742 0.353019
vt 0.941929 0.353019
vt 0.927678 0.461030
vt 0.927678 0.460301
vt 0.911577 0.475037
vt 0.907254 0.470585
vt 0.902930 0.466132
vt 0.915304 0.463946
vt 0.915304 0.463217
vt 0.905390 0.469206
vt 0.905390 0.475037
vt 0.911577 0.469206
vt 0.946238 0.457386
vt 0.940051 0.458115
vt 0.940051 0.457386
vt 0.929434 0.414017
vt 0.929434 0.415484
vt 0.954302 0.346993
vt 0.954302 0.346993
vt 0.935620 0.411082
vt 0.935620 0.412549
vt 0.923247 0.416951
vt 0.923247 0.418419
vt 0.914342 0.343263
vt 0.946238 0.461759
vt 0.946238 0.461759
vt 0.940051 0.461759
vt 0.940051 0.461759
vt 0.954302 0.349002
vt 0.948115 0.349002
vt 0.954181 0.402278
vt 0.954181 0.403745
vt 0.947994 0.405213
vt 0.947994 0.406680
vt 0.954302 0.346993
vt 0.960489 0.346993
vt 0.946238 0.455928
vt 0.946238 0.455928
vt 0.941807 0.408147
vt 0.941807 0.409615
vt 0.929489 0.455416
vt 0.948115 0.350006
vt 0.941929 0.352015
vt 0.935742 0.354024
vt 0.929555 0.356032
vt 0.923368 0.358041
vt 0.917182 0.360050
vt 0.917060 0.419886
vt 0.921384 0.428849
vt 0.960368 0.399343
vt 0.960368 0.399343
vn -1.0000 0.0000 0.0000
vn 0.0000 1.0000 0.0000
vn -0.9999 -0.0000 -0.0102
vn -0.9999 -0.0000 -0.0132
vn 1.0000 0.0000 0.0000
vn -0.9998 0.0000 -0.0178
vn 0.0000 0.0000 -1.0000
vn 0.0000 0.8411 -0.5409
vn 0.0000 0.8485 -0.5293
vn 0.0000 0.8484 -0.5293
vn 0.0000 0.8557 -0.5175
vn 0.0000 -0.0000 1.0000
vn 0.9999 0.0000 -0.0132
vn 0.9999 0.0000 -0.0102
vn 0.9998 0.0000 -0.0178
s 1
f 13/1/1 17/2/1 14/3/1 15/4/1
f 4/5/2 5/6/2 6/7/2 7/8/2
f 8/9/1 7/8/1 6/10/3 9/11/4
f 10/12/5 11/13/5 12/14/5 45/15/5
f 16/16/1 29/17/1 17/2/1 13/1/1
f 21/18/1 22/19/1 15/4/1 14/3/1
f 18/20/5 19/21/5 20/22/5 43/23/5
f 24/24/4 23/25/6 3/26/1 2/27/1
f 28/28/1 1/29/1 29/17/1 16/16/1
f 25/30/5 26/31/5 27/32/5 41/33/5
f 20/34/7 19/35/7 79/36/7 80/37/7
f 30/38/7 31/39/7 83/40/7 84/41/7
f 12/42/7 11/43/7 85/44/7 86/45/7
f 32/46/7 10/47/7 88/48/7 89/49/7
f 33/50/7 18/51/7 91/52/7 92/53/7
f 27/54/7 26/55/7 93/56/7 94/57/7
f 34/58/7 25/59/7 96/60/7 97/61/7
f 19/21/5 25/30/5 34/62/5 42/63/5
f 31/64/5 10/12/5 32/65/5 46/66/5
f 11/13/5 18/20/5 33/67/5 44/68/5
f 22/69/7 21/70/7 31/64/7 30/71/7
f 5/72/5 35/73/5 40/74/5 26/31/5
f 117/75/2 44/76/2 33/77/2 92/78/2
f 122/79/2 47/80/2 36/81/2 101/82/2
f 115/83/2 43/84/2 20/85/2 80/86/2
f 119/87/2 45/88/2 12/89/2 86/90/2
f 121/91/2 83/40/2 31/39/2 46/92/2
f 48/93/1 49/94/1 37/95/1 38/96/1
f 104/97/7 105/98/7 35/99/7 5/100/7
f 109/101/2 40/102/2 35/103/2 105/104/2
f 111/105/2 41/106/2 27/107/2 94/108/2
f 99/109/2 104/110/2 5/111/2 4/112/2
f 47/113/2 48/93/2 38/96/2 36/114/2
f 113/115/2 42/116/2 34/117/2 97/118/2
f 23/25/6 24/24/4 9/11/4 6/10/3
f 6/10/8 5/72/8 26/31/9 23/25/10
f 3/26/11 23/25/10 26/31/9 25/30/11
f 1/29/11 3/26/11 25/30/11 19/21/11
f 29/17/11 1/29/11 19/21/11 18/20/11
f 17/2/11 29/17/11 18/20/11 11/13/11
f 14/3/11 17/2/11 11/13/11 10/12/11
f 10/12/11 31/64/11 21/70/11 14/3/11
f 1/29/1 28/28/1 2/27/1 3/26/1
f 101/119/12 36/114/12 39/120/12 107/121/12
f 38/96/12 37/95/12 39/120/12 36/114/12
f 93/56/2 26/55/2 40/122/2 109/123/2
f 96/60/2 25/59/2 41/124/2 111/125/2
f 79/36/2 19/35/2 42/126/2 113/127/2
f 91/52/2 18/51/2 43/128/2 115/129/2
f 85/44/2 11/43/2 44/130/2 117/131/2
f 88/48/2 10/47/2 45/132/2 119/133/2
f 89/134/2 121/135/2 46/136/2 32/137/2
f 4/5/2 7/8/2 48/93/2 47/113/2
f 7/8/1 8/9/1 49/94/1 48/93/1
f 99/138/2 4/139/2 47/140/2 122/141/2
f 62/142/5 64/143/5 63/144/5 66/145/5
f 53/146/2 56/147/2 55/148/2 54/149/2
f 57/150/5 58/151/13 55/152/14 56/147/5
f 59/153/1 118/154/1 61/155/1 60/156/1
f 65/157/5 62/142/5 66/145/5 78/158/5
f 70/159/5 63/144/5 64/143/5 71/160/5
f 67/161/1 114/162/1 69/163/1 68/164/1
f 73/165/13 51/166/5 52/167/5 72/168/15
f 77/169/5 65/157/5 78/158/5 50/170/5
f 74/171/1 110/172/1 76/173/1 75/174/1
f 69/175/7 80/37/7 79/36/7 68/176/7
f 81/177/7 84/41/7 83/40/7 82/178/7
f 61/179/7 86/45/7 85/44/7 60/180/7
f 87/181/7 89/49/7 88/48/7 59/182/7
f 90/183/7 92/53/7 91/52/7 67/184/7
f 76/185/7 94/57/7 93/56/7 75/186/7
f 95/187/7 97/61/7 96/60/7 74/188/7
f 68/164/1 112/189/1 95/190/1 74/171/1
f 82/191/1 120/192/1 87/193/1 59/153/1
f 60/156/1 116/194/1 90/195/1 67/161/1
f 71/196/7 81/197/7 82/191/7 70/198/7
f 54/199/1 75/174/1 108/200/1 98/201/1
f 117/75/2 92/78/2 90/202/2 116/203/2
f 122/79/2 101/82/2 100/204/2 123/205/2
f 115/83/2 80/86/2 69/206/2 114/207/2
f 119/87/2 86/90/2 61/208/2 118/209/2
f 121/91/2 120/210/2 82/178/2 83/40/2
f 124/211/5 103/212/5 102/213/5 125/214/5
f 104/97/7 54/215/7 98/216/7 105/98/7
f 109/101/2 105/104/2 98/217/2 108/218/2
f 111/105/2 94/108/2 76/219/2 110/220/2
f 99/109/2 53/221/2 54/222/2 104/110/2
f 123/223/2 100/224/2 103/212/2 124/211/2
f 113/115/2 97/118/2 95/225/2 112/226/2
f 72/168/15 55/152/14 58/151/13 73/165/13
f 55/152/8 72/168/10 75/174/9 54/199/8
f 52/167/11 74/171/11 75/174/9 72/168/10
f 50/170/11 68/164/11 74/171/11 52/167/11
f 78/158/11 67/161/11 68/164/11 50/170/11
f 66/145/11 60/156/11 67/161/11 78/158/11
f 63/144/11 59/153/11 60/156/11 66/145/11
f 59/153/11 63/144/11 70/198/11 82/191/11
f 50/170/5 52/167/5 51/166/5 77/169/5
f 101/119/12 107/121/12 106/227/12 100/224/12
f 103/212/12 100/224/12 106/227/12 102/213/12
f 93/56/2 109/123/2 108/228/2 75/186/2
f 96/60/2 111/125/2 110/229/2 74/188/2
f 79/36/2 113/127/2 112/230/2 68/176/2
f 91/52/2 115/129/2 114/231/2 67/184/2
f 85/44/2 117/131/2 116/232/2 60/180/2
f 88/48/2 119/133/2 118/233/2 59/182/2
f 89/134/2 87/234/2 120/235/2 121/135/2
f 53/146/2 123/223/2 124/211/2 56/147/2
f 56/147/5 124/211/5 125/214/5 57/150/5
f 99/138/2 122/141/2 123/236/2 53/237/2
