# Blender v2.82 (sub 7) OBJ File: 'stairs.blend'
# www.blender.org
o slopeWhiteStair_Cube_Cube.007
v -2.000000 0.000000 0.000000
v -2.010887 1.837426 2.996730
v -1.676595 2.061523 3.354563
v -1.676595 2.061525 3.007992
v -2.001144 -0.000000 0.304098
v -1.676595 1.981699 3.007992
v -1.676595 1.981698 3.354563
v -1.756832 2.061523 3.774670
v -1.756832 2.061525 3.480809
v -1.756832 1.981699 3.480809
v -1.756832 1.981698 3.774670
v -1.933248 -0.058266 2.853816
v -1.933248 1.796800 2.853816
v -1.933248 -0.058266 2.690594
v -1.933248 1.796800 2.690594
v -1.770026 -0.058266 2.853816
v -1.770026 1.796800 2.853816
v -1.770026 -0.058266 2.690594
v -1.770026 1.796800 2.690594
v -1.933248 -0.058266 1.634194
v -1.933248 0.976427 1.634194
v -1.933248 -0.058266 1.470973
v -1.933248 0.976427 1.470973
v -1.770026 -0.058266 1.634194
v -1.770026 0.976427 1.634194
v -1.770026 -0.058266 1.470973
v -1.770026 0.976427 1.470973
v -1.910044 0.194808 2.802797
v -1.910044 0.194808 0.340654
v -1.910044 0.077994 2.802797
v -1.910044 0.077994 0.340654
v -1.793230 0.194808 2.802797
v -1.793230 0.194808 0.340654
v -1.793230 0.077994 2.802797
v -1.793230 0.077994 0.340654
v -1.879495 0.194808 2.711063
v -1.879495 0.077994 2.711063
v -1.879495 0.194808 2.827878
v -1.879495 0.077994 2.827878
v -2.009479 1.669308 2.579705
v -2.009627 1.599834 2.648554
v -2.007888 1.407529 2.167394
v -2.008203 1.331272 2.254993
v -2.006569 1.155899 1.846623
v -2.007023 1.108697 1.928824
v -2.005305 0.932887 1.505252
v -2.005892 0.895404 1.616256
v -2.003848 0.646612 1.081374
v -2.004588 0.649490 1.255884
v -2.001924 0.286674 0.575488
v -2.002866 0.324745 0.779991
v -1.971583 0.040100 -0.006331
v -1.973397 0.376106 0.475959
v -1.979590 0.730139 0.992170
v -1.977758 0.391067 0.505480
v -1.979068 0.994573 1.386485
v -1.977687 0.738854 1.019438
v -1.987087 1.240155 1.719644
v -1.985872 1.015206 1.396762
v -1.987677 1.494125 2.062537
v -1.986411 1.259726 1.726092
v -1.995696 1.777637 2.495061
v -1.994148 1.491039 2.083690
v -2.002269 2.034922 2.875388
v -2.000885 1.778703 2.507623
v -0.000000 0.000000 0.000000
v 0.010887 1.837426 2.996730
v -0.323405 2.061523 3.354563
v -1.000000 0.000000 0.000000
v -1.000000 2.061523 3.354563
v -1.000000 1.837426 2.996733
v -0.323405 2.061525 3.007992
v 0.001144 -0.000000 0.304098
v -1.000000 2.061525 3.007992
v -0.323405 1.981699 3.007992
v -0.323405 1.981698 3.354563
v -1.000000 1.981698 3.354563
v -1.000000 1.981699 3.007990
v -0.243168 2.061523 3.774670
v -1.000000 2.061523 3.774670
v -0.243168 2.061525 3.480809
v -1.000000 2.061525 3.480809
v -0.243168 1.981699 3.480809
v -0.243168 1.981698 3.774670
v -1.000000 1.981698 3.774670
v -1.000000 1.981699 3.480808
v -0.066752 -0.058266 2.853816
v -0.066752 1.796800 2.853816
v -0.066752 -0.058266 2.690594
v -0.066752 1.796800 2.690594
v -0.229974 -0.058266 2.853816
v -0.229974 1.796800 2.853816
v -0.229974 -0.058266 2.690594
v -0.229974 1.796800 2.690594
v -0.066752 -0.058266 1.634194
v -0.066752 0.976427 1.634194
v -0.066752 -0.058266 1.470973
v -0.066752 0.976427 1.470973
v -0.229974 -0.058266 1.634194
v -0.229974 0.976427 1.634194
v -0.229974 -0.058266 1.470973
v -0.229974 0.976427 1.470973
v -0.089956 0.194808 2.802797
v -0.089956 0.194808 0.340654
v -0.089956 0.077994 2.802797
v -0.089956 0.077994 0.340654
v -0.206770 0.194808 2.802797
v -0.206770 0.194808 0.340654
v -0.206770 0.077994 2.802797
v -0.206770 0.077994 0.340654
v -0.120505 0.194808 2.711063
v -1.000000 0.194808 2.711063
v -0.120505 0.077994 2.711063
v -1.000000 0.077994 2.711063
v -0.120505 0.194808 2.827878
v -1.000000 0.194808 2.827877
v -0.120505 0.077994 2.827878
v -1.000000 0.077994 2.827877
v -1.000000 0.000000 0.304098
v -1.000000 1.669308 2.579705
v 0.009479 1.669308 2.579705
v 0.009627 1.599834 2.648554
v -1.000000 1.599834 2.648557
v -1.000000 1.407529 2.167395
v 0.007888 1.407529 2.167394
v 0.008203 1.331272 2.254993
v -1.000000 1.331272 2.254995
v -1.000000 1.155899 1.846623
v 0.006569 1.155899 1.846623
v 0.007023 1.108697 1.928824
v -1.000000 1.108697 1.928825
v -1.000000 0.932887 1.505252
v 0.005305 0.932887 1.505252
v 0.005892 0.895404 1.616256
v -1.000000 0.895404 1.616258
v -1.000000 0.646612 1.081374
v 0.003848 0.646612 1.081374
v 0.004588 0.649490 1.255884
v -1.000000 0.649490 1.255885
v -1.000000 0.286674 0.575488
v 0.001924 0.286674 0.575488
v 0.002866 0.324745 0.779991
v -1.000000 0.324745 0.779992
v -1.000000 0.376106 0.475959
v -1.000000 0.040100 -0.006331
v -0.028417 0.040100 -0.006331
v -0.026603 0.376106 0.475959
v -0.020410 0.730139 0.992170
v -1.000000 0.730139 0.992170
v -1.000000 0.391067 0.505480
v -0.022242 0.391067 0.505480
v -0.020932 0.994573 1.386485
v -1.000000 0.994573 1.386485
v -1.000000 0.738854 1.019438
v -0.022313 0.738854 1.019438
v -0.012913 1.240155 1.719644
v -1.000000 1.240155 1.719644
v -1.000000 1.015206 1.396762
v -0.014128 1.015206 1.396762
v -0.012323 1.494125 2.062537
v -1.000000 1.494125 2.062538
v -1.000000 1.259726 1.726092
v -0.013589 1.259726 1.726092
v -0.004304 1.777637 2.495061
v -1.000000 1.777637 2.495061
v -1.000000 1.491039 2.083690
v -0.005852 1.491039 2.083690
v 0.002269 2.034922 2.875388
v -1.000000 2.034922 2.875388
v -1.000000 1.778703 2.507623
v 0.000885 1.778703 2.507623
vt 0.277527 0.281983
vt 0.324036 0.281983
vt 0.324036 0.328492
vt 0.277527 0.328492
vt 0.324036 0.375000
vt 0.277527 0.375000
vt 0.324036 0.421508
vt 0.277527 0.421508
vt 0.324036 0.468017
vt 0.277527 0.468017
vt 0.277527 0.281983
vt 0.324036 0.281983
vt 0.324036 0.328492
vt 0.277527 0.328492
vt 0.324036 0.375000
vt 0.277527 0.375000
vt 0.324036 0.421508
vt 0.277527 0.421508
vt 0.324036 0.468017
vt 0.277527 0.468017
vt 0.277527 0.281983
vt 0.324036 0.281983
vt 0.324036 0.328492
vt 0.277527 0.328492
vt 0.324036 0.375000
vt 0.277527 0.375000
vt 0.324036 0.421508
vt 0.277527 0.421508
vt 0.324036 0.468017
vt 0.277527 0.468017
vt 0.277527 0.281983
vt 0.324036 0.281983
vt 0.324036 0.328492
vt 0.277527 0.328492
vt 0.324036 0.375000
vt 0.277527 0.375000
vt 0.324036 0.421508
vt 0.277527 0.421508
vt 0.324036 0.468017
vt 0.277527 0.468017
vt 0.316406 0.359375
vt 0.316406 0.359375
vt 0.316406 0.359375
vt 0.316406 0.359375
vt 0.277527 0.281983
vt 0.277527 0.328492
vt 0.324036 0.328492
vt 0.324036 0.281983
vt 0.277527 0.375000
vt 0.324036 0.375000
vt 0.277527 0.421508
vt 0.324036 0.421508
vt 0.277527 0.468017
vt 0.324036 0.468017
vt 0.277527 0.281983
vt 0.277527 0.328492
vt 0.324036 0.328492
vt 0.324036 0.281983
vt 0.277527 0.375000
vt 0.324036 0.375000
vt 0.277527 0.421508
vt 0.324036 0.421508
vt 0.277527 0.468017
vt 0.324036 0.468017
vt 0.277527 0.281983
vt 0.277527 0.328492
vt 0.324036 0.328492
vt 0.324036 0.281983
vt 0.277527 0.375000
vt 0.324036 0.375000
vt 0.277527 0.421508
vt 0.324036 0.421508
vt 0.277527 0.468017
vt 0.324036 0.468017
vt 0.277527 0.281983
vt 0.277527 0.328492
vt 0.277527 0.375000
vt 0.277527 0.421508
vt 0.277527 0.468017
vt 0.316406 0.359375
vt 0.316406 0.359375
vt 0.317580 0.286821
vt 0.328142 0.355702
vt 0.323082 0.355702
vt 0.313818 0.286467
vt 0.322542 0.375586
vt 0.328142 0.373310
vt 0.328142 0.373310
vt 0.322542 0.375586
vt 0.323082 0.373310
vt 0.328142 0.373310
vt 0.340516 0.355702
vt 0.334329 0.355702
vt 0.334329 0.285273
vt 0.340516 0.285273
vt 0.318136 0.375347
vt 0.316406 0.355469
vt 0.317580 0.286821
vt 0.328142 0.355702
vt 0.323082 0.355702
vt 0.313818 0.286467
vt 0.323082 0.373310
vt 0.328142 0.373310
vt 0.340516 0.355702
vt 0.334329 0.355702
vt 0.334329 0.285273
vt 0.340516 0.285273
vt 0.316406 0.355469
vt 0.316406 0.355469
vt 0.316406 0.355469
vt 0.323082 0.373310
vt 0.312546 0.377650
vt 0.316406 0.355469
vt 0.316212 0.378160
vt 0.307913 0.379559
vt 0.310966 0.380293
vt 0.316406 0.355469
vt 0.303473 0.381388
vt 0.316406 0.355469
vt 0.305939 0.382337
vt 0.319574 0.380546
vt 0.313544 0.387340
vt 0.313544 0.387340
vt 0.319574 0.380546
vt 0.300143 0.384693
vt 0.305939 0.382337
vt 0.300143 0.384693
vt 0.298354 0.383497
vt 0.316406 0.355469
vt 0.291594 0.386282
vt 0.316406 0.355469
vt 0.292489 0.387805
vt 0.300143 0.384693
vt 0.292489 0.387805
vt 0.284835 0.389066
vt 0.284835 0.390917
vt 0.316406 0.355469
vt 0.299668 0.471105
vt 0.299668 0.400676
vt 0.304700 0.395839
vt 0.306887 0.438261
vt 0.292489 0.387805
vt 0.284835 0.390917
vt 0.304700 0.395839
vt 0.306887 0.438261
vt 0.306887 0.438261
vt 0.304700 0.395839
vt 0.309733 0.391002
vt 0.314107 0.405417
vt 0.309733 0.391002
vt 0.314107 0.405417
vt 0.314107 0.405417
vt 0.309733 0.391002
vt 0.313544 0.387340
vt 0.319574 0.380546
vt 0.316849 0.384163
vt 0.324315 0.358974
vt 0.310966 0.380293
vt 0.305939 0.382337
vt 0.316849 0.384163
vt 0.324315 0.358974
vt 0.324315 0.358974
vt 0.316849 0.384163
vt 0.320298 0.380848
vt 0.329263 0.336464
vt 0.316212 0.378160
vt 0.310966 0.380293
vt 0.320298 0.380848
vt 0.329263 0.336464
vt 0.329263 0.336464
vt 0.320298 0.380848
vt 0.324460 0.376848
vt 0.335234 0.309302
vt 0.322542 0.375586
vt 0.316212 0.378160
vt 0.324460 0.376848
vt 0.335234 0.309302
vt 0.335234 0.309302
vt 0.324460 0.376848
vt 0.340516 0.285273
vt 0.340516 0.285273
vt 0.323082 0.355702
vt 0.328142 0.355702
vt 0.322542 0.375586
vt 0.322542 0.375586
vt 0.328142 0.373310
vt 0.328142 0.373310
vt 0.323082 0.373310
vt 0.328142 0.373310
vt 0.340516 0.355702
vt 0.334329 0.355702
vt 0.318136 0.375347
vt 0.323082 0.355702
vt 0.328142 0.355702
vt 0.323082 0.373310
vt 0.328142 0.373310
vt 0.340516 0.355702
vt 0.334329 0.355702
vt 0.323082 0.373310
vt 0.312546 0.377650
vt 0.316212 0.378160
vt 0.307913 0.379559
vt 0.310966 0.380293
vt 0.303473 0.381388
vt 0.305939 0.382337
vt 0.313544 0.387340
vt 0.313544 0.387340
vt 0.300143 0.384693
vt 0.300143 0.384693
vt 0.305939 0.382337
vt 0.298354 0.383497
vt 0.291594 0.386282
vt 0.292489 0.387805
vt 0.292489 0.387805
vt 0.300143 0.384693
vt 0.284835 0.389066
vt 0.284835 0.390917
vt 0.304700 0.395839
vt 0.299668 0.400676
vt 0.284835 0.390917
vt 0.292489 0.387805
vt 0.304700 0.395839
vt 0.309733 0.391002
vt 0.304700 0.395839
vt 0.309733 0.391002
vt 0.313544 0.387340
vt 0.309733 0.391002
vt 0.316849 0.384163
vt 0.305939 0.382337
vt 0.310966 0.380293
vt 0.316849 0.384163
vt 0.320298 0.380848
vt 0.316849 0.384163
vt 0.310966 0.380293
vt 0.316212 0.378160
vt 0.320298 0.380848
vt 0.324460 0.376848
vt 0.320298 0.380848
vt 0.316212 0.378160
vt 0.322542 0.375586
vt 0.324460 0.376848
vt 0.324460 0.376848
vn -1.0000 0.0000 0.0000
vn 0.0000 0.0000 -1.0000
vn 1.0000 0.0000 0.0000
vn 0.0000 0.0000 1.0000
vn 0.0000 -1.0000 -0.0000
vn 0.0000 1.0000 0.0000
vn -0.0000 -0.1559 -0.9878
vn -0.9992 0.0321 -0.0236
vn -0.9992 0.0347 -0.0223
vn -0.9989 0.0401 -0.0252
vn -0.7071 0.0000 -0.7071
vn -1.0000 -0.0007 -0.0032
vn -0.0000 -0.8260 0.5637
vn -1.0000 -0.0001 -0.0037
vn -0.9980 0.0496 -0.0386
vn -1.0000 0.0008 -0.0044
vn -0.9976 0.0540 -0.0423
vn -1.0000 0.0015 -0.0046
vn -0.9963 0.0693 -0.0507
vn 0.0000 -0.7966 -0.6045
vn -0.9946 0.0836 -0.0616
vn -0.9750 0.1817 -0.1280
vn -1.0000 0.0014 -0.0045
vn -1.0000 0.0012 -0.0045
vn -0.9931 0.0969 -0.0653
vn -0.9811 0.1564 -0.1138
vn -1.0000 0.0012 -0.0042
vn -0.9697 0.2091 -0.1265
vn 0.0000 0.8205 -0.5716
vn -0.9456 0.2788 -0.1675
vn -0.0000 0.7438 0.6684
vn -0.0000 0.7300 0.6835
vn -0.0000 -0.5570 -0.8305
vn -0.0000 0.8874 0.4609
vn 0.0000 -0.5574 -0.8302
vn -0.9899 0.1157 -0.0817
vn -0.0000 0.8332 0.5529
vn -0.9904 0.1095 -0.0849
vn -0.0000 0.7711 0.6368
vn 0.0000 -0.7577 -0.6527
vn -0.9942 0.0879 -0.0623
vn -0.0000 0.6157 0.7880
vn -0.0000 -0.7079 -0.7063
vn 0.0000 -0.5502 -0.8350
vn -0.0000 0.5235 0.8520
vn 0.9992 0.0321 -0.0236
vn 0.9989 0.0401 -0.0252
vn 0.9992 0.0347 -0.0223
vn 0.7071 0.0000 -0.7071
vn 1.0000 -0.0007 -0.0032
vn 1.0000 -0.0001 -0.0037
vn 0.9980 0.0496 -0.0386
vn 1.0000 0.0008 -0.0044
vn 0.9976 0.0540 -0.0423
vn 1.0000 0.0015 -0.0046
vn 0.9963 0.0693 -0.0507
vn 0.9946 0.0836 -0.0616
vn 0.9750 0.1817 -0.1280
vn 1.0000 0.0014 -0.0045
vn 1.0000 0.0012 -0.0045
vn 0.9931 0.0969 -0.0653
vn 0.9811 0.1564 -0.1138
vn 1.0000 0.0013 -0.0042
vn 0.9697 0.2091 -0.1265
vn 0.9456 0.2788 -0.1675
vn 0.9899 0.1157 -0.0817
vn 0.9904 0.1095 -0.0849
vn 0.9942 0.0879 -0.0623
s off
f 12/1/1 13/2/1 15/3/1 14/4/1
f 14/4/2 15/3/2 19/5/2 18/6/2
f 18/6/3 19/5/3 17/7/3 16/8/3
f 16/8/4 17/7/4 13/9/4 12/10/4
f 20/11/1 21/12/1 23/13/1 22/14/1
f 22/14/2 23/13/2 27/15/2 26/16/2
f 26/16/3 27/15/3 25/17/3 24/18/3
f 24/18/4 25/17/4 21/19/4 20/20/4
f 28/21/1 29/22/1 31/23/1 30/24/1
f 30/24/5 31/23/5 35/25/5 34/26/5
f 34/26/3 35/25/3 33/27/3 32/28/3
f 32/28/6 33/27/6 29/29/6 28/30/6
f 36/31/2 112/32/2 114/33/2 37/34/2
f 37/34/5 114/33/5 118/35/5 39/36/5
f 39/36/4 118/35/4 116/37/4 38/38/4
f 38/38/6 116/37/6 112/39/6 36/40/6
f 69/41/7 1/42/7 52/43/7 145/44/7
f 87/45/3 89/46/3 90/47/3 88/48/3
f 89/46/2 93/49/2 94/50/2 90/47/2
f 93/49/1 91/51/1 92/52/1 94/50/1
f 91/51/4 87/53/4 88/54/4 92/52/4
f 95/55/3 97/56/3 98/57/3 96/58/3
f 97/56/2 101/59/2 102/60/2 98/57/2
f 101/59/1 99/61/1 100/62/1 102/60/1
f 99/61/4 95/63/4 96/64/4 100/62/4
f 103/65/3 105/66/3 106/67/3 104/68/3
f 105/66/5 109/69/5 110/70/5 106/67/5
f 109/69/1 107/71/1 108/72/1 110/70/1
f 107/71/6 103/73/6 104/74/6 108/72/6
f 111/75/2 113/76/2 114/33/2 112/32/2
f 113/76/5 117/77/5 118/35/5 114/33/5
f 117/77/4 115/78/4 116/37/4 118/35/4
f 115/78/6 111/79/6 112/39/6 116/37/6
f 69/41/7 145/44/7 146/80/7 66/81/7
s 1
f 70/82/4 3/83/4 7/84/4 77/85/4
f 40/86/8 2/87/9 64/88/10 65/89/10
f 6/90/11 7/84/1 3/83/1 4/91/11
f 4/92/6 3/93/6 70/94/6 74/95/6
f 41/96/12 2/87/9 40/86/8
f 6/90/11 4/91/11 74/95/2 78/97/2
f 80/98/4 8/99/4 11/100/4 85/101/4
f 10/102/11 11/100/1 8/99/1 9/103/11
f 9/104/6 8/105/6 80/106/6 82/107/6
f 10/102/11 9/103/11 82/107/2 86/108/2
f 41/96/13 123/109/13 71/110/13 2/111/13
f 43/112/13 127/113/13 123/109/13 41/96/13
f 43/112/14 41/96/12 40/86/8 42/114/15
f 45/115/16 43/112/14 42/114/15 44/116/17
f 45/115/13 131/117/13 127/113/13 43/112/13
f 47/118/13 135/119/13 131/117/13 45/115/13
f 47/118/18 45/115/16 44/116/17 46/120/19
f 132/121/20 46/122/20 59/123/20 158/124/20
f 48/125/21 46/120/19 56/126/22 57/127/22
f 49/128/23 47/118/18 46/120/19 48/125/21
f 49/128/13 139/129/13 135/119/13 47/118/13
f 51/130/13 143/131/13 139/129/13 49/128/13
f 51/130/24 49/128/23 48/125/21 50/132/25
f 50/132/25 48/125/21 54/133/26 55/134/26
f 5/135/27 51/130/24 50/132/25 1/136/28
f 5/135/13 119/137/13 143/131/13 51/130/13
f 145/138/29 52/139/29 53/140/29 144/141/29
f 1/136/28 50/132/25 53/142/30 52/143/30
f 50/144/31 140/145/31 144/141/31 53/140/31
f 150/146/29 55/147/29 54/148/29 149/149/29
f 48/150/32 136/151/32 149/149/32 54/148/32
f 140/145/33 50/144/33 55/147/33 150/146/33
f 154/152/29 57/153/29 56/154/29 153/155/29
f 46/122/34 132/121/34 153/155/34 56/154/34
f 136/151/35 48/150/35 57/153/35 154/152/35
f 158/124/29 59/123/29 58/156/29 157/157/29
f 46/120/19 44/116/17 58/158/36 59/159/36
f 44/160/37 128/161/37 157/157/37 58/156/37
f 162/162/29 61/163/29 60/164/29 161/165/29
f 44/116/17 42/114/15 60/166/38 61/167/38
f 42/168/39 124/169/39 161/165/39 60/164/39
f 128/161/40 44/160/40 61/163/40 162/162/40
f 166/170/29 63/171/29 62/172/29 165/173/29
f 42/114/15 40/86/8 62/174/41 63/175/41
f 40/176/42 120/177/42 165/173/42 62/172/42
f 124/169/43 42/168/43 63/171/43 166/170/43
f 170/178/29 65/179/29 64/88/29 169/180/29
f 120/177/44 40/176/44 65/179/44 170/178/44
f 2/87/45 71/181/45 169/180/45 64/88/45
f 70/82/4 77/85/4 76/182/4 68/183/4
f 121/184/46 171/185/47 168/186/47 67/187/48
f 75/188/49 72/189/49 68/183/3 76/182/3
f 72/190/6 74/95/6 70/94/6 68/191/6
f 122/192/50 121/184/46 67/187/48
f 75/188/49 78/97/2 74/95/2 72/189/49
f 80/98/4 85/101/4 84/193/4 79/194/4
f 83/195/49 81/196/49 79/194/3 84/193/3
f 81/197/6 82/107/6 80/106/6 79/198/6
f 83/195/49 86/108/2 82/107/2 81/196/49
f 122/192/13 67/199/13 71/110/13 123/109/13
f 126/200/13 122/192/13 123/109/13 127/113/13
f 126/200/51 125/201/52 121/184/46 122/192/50
f 130/202/53 129/203/54 125/201/52 126/200/51
f 130/202/13 126/200/13 127/113/13 131/117/13
f 134/204/13 130/202/13 131/117/13 135/119/13
f 134/204/55 133/205/56 129/203/54 130/202/53
f 132/121/20 158/124/20 159/206/20 133/207/20
f 137/208/57 155/209/58 152/210/58 133/205/56
f 138/211/59 137/208/57 133/205/56 134/204/55
f 138/211/13 134/204/13 135/119/13 139/129/13
f 142/212/13 138/211/13 139/129/13 143/131/13
f 142/212/60 141/213/61 137/208/57 138/211/59
f 141/213/61 151/214/62 148/215/62 137/208/57
f 73/216/63 66/217/64 141/213/61 142/212/60
f 73/216/13 142/212/13 143/131/13 119/137/13
f 145/138/29 144/141/29 147/218/29 146/219/29
f 66/217/64 146/220/65 147/221/65 141/213/61
f 141/222/31 147/218/31 144/141/31 140/145/31
f 150/146/29 149/149/29 148/223/29 151/224/29
f 137/225/32 148/223/32 149/149/32 136/151/32
f 140/145/33 150/146/33 151/224/33 141/222/33
f 154/152/29 153/155/29 152/226/29 155/227/29
f 133/207/34 152/226/34 153/155/34 132/121/34
f 136/151/35 154/152/35 155/227/35 137/225/35
f 158/124/29 157/157/29 156/228/29 159/206/29
f 133/205/56 159/229/66 156/230/66 129/203/54
f 129/231/37 156/228/37 157/157/37 128/161/37
f 162/162/29 161/165/29 160/232/29 163/233/29
f 129/203/54 163/234/67 160/235/67 125/201/52
f 125/236/39 160/232/39 161/165/39 124/169/39
f 128/161/40 162/162/40 163/233/40 129/231/40
f 166/170/29 165/173/29 164/237/29 167/238/29
f 125/201/52 167/239/68 164/240/68 121/184/46
f 121/241/42 164/237/42 165/173/42 120/177/42
f 124/169/43 166/170/43 167/238/43 125/236/43
f 170/178/29 169/180/29 168/186/29 171/242/29
f 120/177/44 170/178/44 171/242/44 121/241/44
f 67/187/45 168/186/45 169/180/45 71/181/45
