# Blender v2.82 (sub 7) OBJ File: 'stairs.blend'
# www.blender.org
o slopeStairStones_Cube_Cube.013
v -1.794898 0.331862 0.653375
v -1.794898 0.114919 0.128833
v -1.794898 0.017708 0.204036
v -1.794898 0.429073 0.578173
v -1.661787 0.714119 1.221398
v -1.661787 0.529705 0.729398
v -1.661787 0.424331 0.814147
v -1.661787 0.819493 1.136649
v -1.816617 1.926284 2.932464
v -1.816617 1.762516 2.585986
v -1.816617 1.706390 2.622626
v -1.816617 1.982410 2.895824
v -1.816617 1.140468 1.831993
v -1.816617 0.948373 1.331005
v -1.816617 0.845236 1.401954
v -1.816617 1.243605 1.761044
v -1.732049 1.570789 2.453914
v -1.732049 1.340798 1.941659
v -1.732049 1.257327 1.996530
v -1.732049 1.654261 2.399043
v -1.739477 1.960293 3.654439
v -1.739477 2.052241 3.168111
v -1.739477 1.966265 3.158766
v -1.739477 2.046270 3.663784
v -1.000000 0.714119 1.221398
v -0.205102 0.331862 0.653375
v -1.000000 0.819493 1.136649
v -0.205102 0.114919 0.128833
v -0.205102 0.017708 0.204036
v -0.205102 0.429073 0.578173
v -1.000000 0.529705 0.729398
v -1.000000 0.424331 0.814147
v -0.338213 0.714119 1.221398
v -0.338213 0.529705 0.729398
v -0.338213 0.424331 0.814147
v -0.338213 0.819493 1.136649
v -1.000000 0.948373 1.331005
v -0.183383 1.926284 2.932464
v -1.000000 1.140468 1.831993
v -0.183383 1.762516 2.585986
v -0.183383 1.706390 2.622626
v -0.183383 1.982410 2.895824
v -1.000000 1.243605 1.761044
v -1.000000 0.845236 1.401954
v -0.183383 1.140468 1.831993
v -0.183383 0.948373 1.331005
v -0.183383 0.845236 1.401954
v -0.183383 1.243605 1.761044
v -0.267950 1.570789 2.453914
v -0.267950 1.340798 1.941659
v -0.267950 1.257327 1.996530
v -0.267950 1.654261 2.399043
v -1.000000 1.926284 2.932464
v -0.260523 1.960293 3.654439
v -1.000000 1.982410 2.895824
v -0.260523 2.052241 3.168111
v -0.260523 1.966265 3.158766
v -0.260523 2.046270 3.663784
v -1.000000 1.762516 2.585986
v -1.000000 1.706390 2.622626
v -1.000000 1.966265 3.158766
v -1.000000 2.052241 3.168111
v -1.000000 2.046270 3.663784
v -1.000000 1.960293 3.654439
v -1.000000 1.257327 1.996530
v -1.000000 1.340798 1.941659
v -1.000000 1.654261 2.399043
v -1.000000 1.570789 2.453914
v -1.000000 0.017708 0.204036
v -1.000000 0.114919 0.128833
v -1.000000 0.429073 0.578173
v -1.000000 0.331862 0.653375
vt 0.424992 0.298418
vt 0.481226 0.298418
vt 0.481226 0.332348
vt 0.424992 0.332348
vt 0.481226 0.400208
vt 0.424992 0.400208
vt 0.396875 0.400208
vt 0.424992 0.400208
vt 0.424992 0.468069
vt 0.396875 0.468069
vt 0.424992 0.298418
vt 0.481226 0.298418
vt 0.481226 0.332348
vt 0.424992 0.332348
vt 0.481226 0.400208
vt 0.424992 0.400208
vt 0.396875 0.400208
vt 0.424992 0.400208
vt 0.424992 0.468069
vt 0.396875 0.468069
vt 0.424992 0.298418
vt 0.481226 0.298418
vt 0.481226 0.332348
vt 0.424992 0.332348
vt 0.481226 0.400208
vt 0.424992 0.400208
vt 0.396875 0.400208
vt 0.424992 0.400208
vt 0.424992 0.468069
vt 0.396875 0.468069
vt 0.424992 0.298418
vt 0.481226 0.298418
vt 0.481226 0.332348
vt 0.424992 0.332348
vt 0.481226 0.400208
vt 0.424992 0.400208
vt 0.396875 0.400208
vt 0.424992 0.400208
vt 0.424992 0.468069
vt 0.396875 0.468069
vt 0.424992 0.298418
vt 0.481226 0.298418
vt 0.481226 0.332348
vt 0.424992 0.332348
vt 0.481226 0.400208
vt 0.424992 0.400208
vt 0.396875 0.400208
vt 0.424992 0.400208
vt 0.424992 0.468069
vt 0.396875 0.468069
vt 0.424992 0.298418
vt 0.481226 0.298418
vt 0.481226 0.332348
vt 0.424992 0.332348
vt 0.481226 0.400208
vt 0.424992 0.400208
vt 0.396875 0.400208
vt 0.424992 0.400208
vt 0.424992 0.468069
vt 0.396875 0.468069
vt 0.481226 0.434138
vt 0.424992 0.434138
vt 0.481226 0.434138
vt 0.424992 0.434138
vt 0.481226 0.434138
vt 0.424992 0.434138
vt 0.481226 0.434138
vt 0.424992 0.434138
vt 0.481226 0.434138
vt 0.424992 0.434138
vt 0.481226 0.434138
vt 0.424992 0.434138
vt 0.424992 0.332348
vt 0.481226 0.332348
vt 0.424992 0.400208
vt 0.481226 0.400208
vt 0.424992 0.468069
vt 0.424992 0.400208
vt 0.424992 0.332348
vt 0.481226 0.332348
vt 0.424992 0.400208
vt 0.481226 0.400208
vt 0.424992 0.468069
vt 0.424992 0.400208
vt 0.424992 0.332348
vt 0.481226 0.332348
vt 0.424992 0.400208
vt 0.481226 0.400208
vt 0.424992 0.468069
vt 0.424992 0.400208
vt 0.424992 0.332348
vt 0.481226 0.332348
vt 0.424992 0.400208
vt 0.481226 0.400208
vt 0.424992 0.468069
vt 0.424992 0.400208
vt 0.424992 0.332348
vt 0.481226 0.332348
vt 0.424992 0.400208
vt 0.481226 0.400208
vt 0.424992 0.468069
vt 0.424992 0.400208
vt 0.424992 0.332348
vt 0.481226 0.332348
vt 0.424992 0.400208
vt 0.481226 0.400208
vt 0.424992 0.468069
vt 0.424992 0.400208
vn 0.0000 0.6119 0.7909
vn 0.0000 0.9886 0.1505
vn -0.5799 0.8054 0.1226
vn -0.6960 0.4394 0.5679
vn -0.5749 0.1232 -0.8089
vn -0.7177 -0.4261 -0.5508
vn 0.0000 0.1505 -0.9886
vn 0.0000 0.6267 0.7792
vn 0.0000 0.9906 0.1371
vn -0.5805 0.8066 0.1116
vn -0.6935 0.4515 0.5614
vn -0.5743 0.1122 -0.8109
vn -0.7200 -0.4349 -0.5408
vn 0.0000 0.1371 -0.9906
vn 0.0000 0.5467 0.8374
vn 0.0000 0.9825 0.1865
vn -0.5753 0.8036 0.1526
vn -0.7157 0.3818 0.5848
vn -0.5794 0.1520 -0.8007
vn -0.6982 -0.3913 -0.5995
vn 0.0000 0.1865 -0.9825
vn 0.0000 0.5668 0.8239
vn 0.0000 0.9832 0.1823
vn -0.5774 0.8028 0.1488
vn -0.7069 0.4009 0.5827
vn -0.5773 0.1488 -0.8029
vn -0.7073 -0.4006 -0.5824
vn 0.0000 0.1823 -0.9832
vn 0.0000 0.5493 0.8356
vn 0.0000 0.9812 0.1930
vn -0.5763 0.8018 0.1577
vn -0.7114 0.3860 0.5873
vn -0.5784 0.1574 -0.8004
vn -0.7027 -0.3908 -0.5945
vn 0.0000 0.1930 -0.9812
vn 0.0000 -0.1081 0.9941
vn 0.0000 0.6633 0.7483
vn -0.5725 0.5439 0.6136
vn -0.7278 -0.0741 0.6818
vn -0.5826 0.6082 -0.5391
vn -0.6844 0.0788 -0.7248
vn 0.0000 0.7483 -0.6633
vn 0.0000 -0.5668 -0.8239
vn 0.0000 0.1081 -0.9941
vn 0.0000 -0.5467 -0.8374
vn 0.0000 -0.5493 -0.8356
vn 0.0000 -0.6119 -0.7909
vn 0.0000 -0.6267 -0.7792
vn 0.6960 0.4394 0.5679
vn 0.5799 0.8054 0.1226
vn 0.7177 -0.4261 -0.5508
vn 0.5749 0.1232 -0.8089
vn 0.6935 0.4515 0.5614
vn 0.5805 0.8066 0.1116
vn 0.7200 -0.4349 -0.5408
vn 0.5743 0.1122 -0.8109
vn 0.7157 0.3818 0.5848
vn 0.5753 0.8036 0.1526
vn 0.6982 -0.3913 -0.5995
vn 0.5794 0.1520 -0.8007
vn 0.7069 0.4009 0.5827
vn 0.5774 0.8028 0.1488
vn 0.7073 -0.4006 -0.5824
vn 0.5773 0.1488 -0.8029
vn 0.7114 0.3860 0.5873
vn 0.5763 0.8018 0.1577
vn 0.7027 -0.3908 -0.5945
vn 0.5784 0.1574 -0.8004
vn 0.7278 -0.0741 0.6818
vn 0.5725 0.5439 0.6136
vn 0.6844 0.0788 -0.7248
vn 0.5826 0.6082 -0.5391
s 1
f 72/1/1 71/2/2 4/3/3 1/4/4
f 1/4/4 4/3/3 2/5/5 3/6/6
f 70/7/7 2/8/5 4/9/3 71/10/2
f 25/11/8 27/12/9 8/13/10 5/14/11
f 5/14/11 8/13/10 6/15/12 7/16/13
f 31/17/14 6/18/12 8/19/10 27/20/9
f 53/21/15 55/22/16 12/23/17 9/24/18
f 9/24/18 12/23/17 10/25/19 11/26/20
f 59/27/21 10/28/19 12/29/17 55/30/16
f 39/31/22 43/32/23 16/33/24 13/34/25
f 13/34/25 16/33/24 14/35/26 15/36/27
f 37/37/28 14/38/26 16/39/24 43/40/23
f 68/41/29 67/42/30 20/43/31 17/44/32
f 17/44/32 20/43/31 18/45/33 19/46/34
f 66/47/35 18/48/33 20/49/31 67/50/30
f 64/51/36 63/52/37 24/53/38 21/54/39
f 21/54/39 24/53/38 22/55/40 23/56/41
f 62/57/42 22/58/40 24/59/38 63/60/37
f 15/36/27 14/35/26 37/61/28 44/62/43
f 23/56/41 22/55/40 62/63/42 61/64/44
f 11/26/20 10/25/19 59/65/21 60/66/45
f 19/46/34 18/45/33 66/67/35 65/68/46
f 3/6/6 2/5/5 70/69/7 69/70/47
f 7/16/13 6/15/12 31/71/14 32/72/48
f 72/1/1 26/73/49 30/74/50 71/2/2
f 26/73/49 29/75/51 28/76/52 30/74/50
f 70/7/7 71/10/2 30/77/50 28/78/52
f 25/11/8 33/79/53 36/80/54 27/12/9
f 33/79/53 35/81/55 34/82/56 36/80/54
f 31/17/14 27/20/9 36/83/54 34/84/56
f 53/21/15 38/85/57 42/86/58 55/22/16
f 38/85/57 41/87/59 40/88/60 42/86/58
f 59/27/21 55/30/16 42/89/58 40/90/60
f 39/31/22 45/91/61 48/92/62 43/32/23
f 45/91/61 47/93/63 46/94/64 48/92/62
f 37/37/28 43/40/23 48/95/62 46/96/64
f 68/41/29 49/97/65 52/98/66 67/42/30
f 49/97/65 51/99/67 50/100/68 52/98/66
f 66/47/35 67/50/30 52/101/66 50/102/68
f 64/51/36 54/103/69 58/104/70 63/52/37
f 54/103/69 57/105/71 56/106/72 58/104/70
f 62/57/42 63/60/37 58/107/70 56/108/72
f 47/93/63 44/62/43 37/61/28 46/94/64
f 57/105/71 61/64/44 62/63/42 56/106/72
f 41/87/59 60/66/45 59/65/21 40/88/60
f 51/99/67 65/68/46 66/67/35 50/100/68
f 29/75/51 69/70/47 70/69/7 28/76/52
f 35/81/55 32/72/48 31/71/14 34/82/56
