# Blender v2.81 (sub 16) OBJ File: ''
# www.blender.org
mtllib waterSidee.mtl
o Plane
v 0.250000 0.000000 0.250000
v -0.250000 0.000000 0.250000
v 0.000000 0.000000 0.250000
v 0.250000 0.000000 -0.000000
v 0.250000 -0.250000 -0.000000
v 0.250000 -0.250000 -0.250000
v 0.000000 0.000000 -0.000000
v 0.000000 -0.250000 -0.000000
v 0.000000 -0.250000 -0.250000
v -0.250000 0.000000 -0.000000
v -0.250000 -0.250000 -0.000000
v -0.250000 -0.250000 -0.250000
vt 0.250000 0.250000
vt 0.500000 0.250000
vt 0.500000 0.500000
vt 0.250000 0.500000
vt 0.750000 0.250000
vt 0.750000 0.500000
vt 0.000000 0.000000
vt 0.250000 0.000000
vt 0.000000 0.250000
vt 0.500000 0.000000
vt 0.750000 0.000000
vt 0.000000 0.500000
vn -0.0000 0.0000 -1.0000
vn 0.0000 1.0000 0.0000
usemtl None
s off
f 7/1/1 8/2/1 11/3/1 10/4/1
f 8/2/2 9/5/2 12/6/2 11/3/2
f 1/7/2 4/8/2 7/1/2 3/9/2
f 4/8/1 5/10/1 8/2/1 7/1/1
f 5/10/2 6/11/2 9/5/2 8/2/2
f 3/9/2 7/1/2 10/4/2 2/12/2
