# Blender v2.81 (sub 16) OBJ File: ''
# www.blender.org
mtllib waterDiagonal.mtl
o Plane
v 0.500000 0.000000 -0.500000
v -0.500000 0.000000 -0.500000
v -0.500000 0.000000 0.500000
v 0.500000 0.000000 -0.250000
v 0.250000 0.000000 -0.500000
v -0.000000 0.000000 -0.500000
v -0.250000 0.000000 -0.500000
v -0.500000 0.000000 -0.250000
v -0.500000 0.000000 0.000000
v -0.500000 0.000000 0.250000
v -0.250000 0.000000 0.500000
v 0.250000 0.000000 -0.250000
v -0.000000 0.000000 -0.250000
v -0.250000 0.000000 -0.250000
v 0.250000 0.000000 -0.000000
v -0.000000 0.000000 -0.000000
v -0.250000 0.000000 0.000000
v 0.000000 0.000000 0.250000
v -0.250000 0.000000 0.250000
v 0.500000 -0.500000 -0.250000
v -0.250000 -0.500000 0.500000
v 0.250000 -0.500000 -0.000000
v 0.000000 -0.500000 0.250000
vt 0.250000 0.250000
vt 0.500000 0.250000
vt 0.500000 0.500000
vt 0.250000 0.500000
vt 0.750000 0.250000
vt 0.750000 0.500000
vt 0.500000 0.750000
vt 0.750000 0.750000
vt 0.000000 0.000000
vt 0.250000 0.000000
vt 0.000000 0.250000
vt 0.500000 0.000000
vt 0.750000 0.000000
vt 1.000000 0.000000
vt 1.000000 0.250000
vt 1.000000 0.500000
vt 1.000000 0.750000
vt 1.000000 1.000000
vt 0.750000 1.000000
vt 0.250000 0.500000
vt 0.000000 0.250000
vt 0.500000 0.750000
vt 0.750000 1.000000
vn 0.0000 1.0000 0.0000
vn 0.7071 0.0000 0.7071
usemtl None
s off
f 12/1/1 13/2/1 16/3/1 15/4/1
f 13/2/1 14/5/1 17/6/1 16/3/1
f 15/4/1 16/3/1 18/7/1
f 16/3/1 17/6/1 19/8/1 18/7/1
f 1/9/1 5/10/1 12/1/1 4/11/1
f 5/10/1 6/12/1 13/2/1 12/1/1
f 6/12/1 7/13/1 14/5/1 13/2/1
f 7/13/1 2/14/1 8/15/1 14/5/1
f 14/5/1 8/15/1 9/16/1 17/6/1
f 17/6/1 9/16/1 10/17/1 19/8/1
f 19/8/1 10/17/1 3/18/1 11/19/1
f 18/7/1 19/8/1 11/19/1
f 4/11/1 12/1/1 15/4/1
f 4/11/2 15/4/2 22/20/2 20/21/2
f 15/4/2 18/7/2 23/22/2 22/20/2
f 18/7/2 11/19/2 21/23/2 23/22/2
